<svg xmlns="http://www.w3.org/2000/svg" width="295" height="138.985" viewBox="0 0 295 138.985">
  <g id="Grupo_1210676" data-name="Grupo 1210676" transform="translate(-1125 -282.015)">
    <g id="Grupo_1210513" data-name="Grupo 1210513" transform="translate(-104.909 9.209)">
      <rect id="Rect치ngulo_419516" data-name="Rect치ngulo 419516" width="295" height="82" rx="2" transform="translate(1229.909 309.791)" fill="#431b4a"/>
      <rect id="Rect치ngulo_419517" data-name="Rect치ngulo 419517" width="259" height="122" rx="2" transform="translate(1247.909 289.791)" fill="#7b3289"/>
    </g>
    <g id="Filled_outline" data-name="Filled outline" transform="translate(1181 266.012)">
      <path id="Trazado_1054372" data-name="Trazado 1054372" d="M93.493,289.7V275.8h-7.86a27.587,27.587,0,0,0-2.96-7.149l5.557-5.557L78.4,253.263l-5.557,5.557a27.589,27.589,0,0,0-7.149-2.96V248H51.8v7.86a27.589,27.589,0,0,0-7.149,2.96l-5.557-5.557-9.828,9.828,5.557,5.557a27.588,27.588,0,0,0-2.96,7.149H24v13.9h7.86a27.587,27.587,0,0,0,2.96,7.149L29.263,302.4l9.828,9.828,5.557-5.557a27.6,27.6,0,0,0,7.149,2.96v7.86H65.7v-7.86a27.6,27.6,0,0,0,7.149-2.96L78.4,312.23,88.23,302.4l-5.557-5.557a27.588,27.588,0,0,0,2.96-7.149Zm-34.746,0a6.949,6.949,0,1,1,6.949-6.949A6.949,6.949,0,0,1,58.746,289.7Z" transform="translate(-5.684 -164.821)" fill="#ffb531"/>
      <path id="Trazado_1054373" data-name="Trazado 1054373" d="M107.643,293.618l5.557-5.557-4.914-4.914L88.631,302.8A6.949,6.949,0,1,1,78.8,312.63L59.147,332.286l4.914,4.914,5.557-5.557a27.6,27.6,0,0,0,7.149,2.96v7.86h13.9V334.6a27.6,27.6,0,0,0,7.149-2.96l5.557,5.557,9.828-9.828-5.557-5.557a27.587,27.587,0,0,0,2.96-7.149h7.86v-13.9H110.6A27.589,27.589,0,0,0,107.643,293.618Z" transform="translate(-30.654 -189.792)" fill="#ffa912"/>
      <path id="Trazado_1054374" data-name="Trazado 1054374" d="M92.848,337.7A20.848,20.848,0,1,1,113.7,316.848,20.848,20.848,0,0,1,92.848,337.7Zm0-37.063a16.215,16.215,0,1,0,16.215,16.215,16.215,16.215,0,0,0-16.215-16.215Z" transform="translate(-39.785 -198.923)" fill="#f98500"/>
      <path id="Trazado_1054375" data-name="Trazado 1054375" d="M272.024,336.86V307.218a13.9,13.9,0,0,0-11.933-13.759l-20.5-2.928V272H216.43v18.531l-21.444,4.595A13.9,13.9,0,0,0,184,308.715V336.86" transform="translate(-119.355 -181.872)" fill="#fec9a3"/>
      <path id="Trazado_1054376" data-name="Trazado 1054376" d="M272.024,352.687v29.642H184V354.184A13.9,13.9,0,0,1,194.985,340.6L216.43,336l6.949,11.582,4.633,6.949,4.633-6.949L239.594,336l17.981,2.568,2.516.359A13.9,13.9,0,0,1,272.024,352.687Z" transform="translate(-119.355 -227.341)" fill="#348fd9"/>
      <path id="Trazado_1054377" data-name="Trazado 1054377" d="M352.639,358.989V388.63H297.47c14.226-8.9,30.319-22.82,40.72-43.76l2.516.359A13.9,13.9,0,0,1,352.639,358.989Z" transform="translate(-199.969 -233.642)" fill="#3086cd"/>
      <g id="Grupo_1210675" data-name="Grupo 1210675" transform="translate(76.227 57.698)">
        <path id="Trazado_1054378" data-name="Trazado 1054378" d="M319.164,284.7V272H296v12.7a20.837,20.837,0,0,0,23.164,0Z" transform="translate(-275.152 -239.57)" fill="#feb784"/>
        <path id="Trazado_1054379" data-name="Trazado 1054379" d="M416,160h2.316a6.949,6.949,0,1,1,0,13.9H416Z" transform="translate(-360.406 -160)" fill="#feb784"/>
        <path id="Trazado_1054380" data-name="Trazado 1054380" d="M233.266,160h-2.316a6.949,6.949,0,0,0,0,13.9h2.316Z" transform="translate(-224 -160)" fill="#feb784"/>
      </g>
      <path id="Trazado_1054381" data-name="Trazado 1054381" d="M302.329,95.171v20.848a23.164,23.164,0,1,1-46.329,0V95.171A23.129,23.129,0,0,1,279.161,72.01h.006a23.16,23.16,0,0,1,23.161,23.163Z" transform="translate(-170.507 -39.79)" fill="#fec9a3"/>
      <path id="Trazado_1054382" data-name="Trazado 1054382" d="M347.5,95.171v20.848a23.178,23.178,0,0,1-27.916,22.675,20.858,20.858,0,0,0,16.334-20.359V92.855A20.862,20.862,0,0,0,319.58,72.5a23.345,23.345,0,0,1,4.752-.486h.006A23.161,23.161,0,0,1,347.5,95.173Z" transform="translate(-215.677 -39.79)" fill="#fec093"/>
      <path id="Trazado_1054383" data-name="Trazado 1054383" d="M274.773,343.164l11.582-6.949L279.406,320l-6.763,6.082Z" transform="translate(-182.331 -215.974)" fill="#62a9e6"/>
      <path id="Trazado_1054384" data-name="Trazado 1054384" d="M363.582,343.164,352,336.215,358.949,320l6.834,5.61Z" transform="translate(-238.71 -215.974)" fill="#62a9e6"/>
      <path id="Trazado_1054385" data-name="Trazado 1054385" d="M298.961,64.294V72.43H248V64.294A24.294,24.294,0,0,1,272.294,40h2.374a24.286,24.286,0,0,1,16.5,6.47q.432.4.841.818A24.2,24.2,0,0,1,298.961,64.294Z" transform="translate(-164.823 -17.049)" fill="#ffb531"/>
      <path id="Trazado_1054386" data-name="Trazado 1054386" d="M342.412,80.172v8.136H309.16A108.425,108.425,0,0,0,334.623,62.35,24.215,24.215,0,0,1,342.412,80.172Z" transform="translate(-208.274 -32.927)" fill="#ffa912"/>
      <path id="Trazado_1054387" data-name="Trazado 1054387" d="M284.4,137.584l-27.974,2-27.974-2A4.8,4.8,0,0,1,228.8,128h55.264a4.8,4.8,0,0,1,.342,9.584Z" transform="translate(-147.773 -79.568)" fill="#ffb531"/>
      <path id="Trazado_1054388" data-name="Trazado 1054388" d="M325.9,44.848H312v-13.9a6.949,6.949,0,0,1,13.9,0Z" transform="translate(-210.292 -5.682)" fill="#ffcb73"/>
      <path id="Trazado_1054389" data-name="Trazado 1054389" d="M297.7,178.531H288.43a4.329,4.329,0,0,1-3.6-1.927l-2.063-3.095a4.329,4.329,0,0,0-7.2,0L273.5,176.6a4.329,4.329,0,0,1-3.6,1.927h-9.266A4.633,4.633,0,0,1,256,173.9v-9.266A4.633,4.633,0,0,1,260.633,160H297.7a4.633,4.633,0,0,1,4.633,4.633V173.9a4.633,4.633,0,0,1-4.633,4.633Z" transform="translate(-170.507 -102.302)" fill="#4db7e5"/>
      <path id="Trazado_1054390" data-name="Trazado 1054390" d="M357.059,160h-5.791l-11.71,11.71a4.326,4.326,0,0,1,2.571,1.8l2.063,3.094a4.328,4.328,0,0,0,3.6,1.928h9.266a4.633,4.633,0,0,0,4.633-4.633v-9.266A4.633,4.633,0,0,0,357.059,160Z" transform="translate(-229.87 -102.302)" fill="#48add9"/>
      <path id="Trazado_1054391" data-name="Trazado 1054391" d="M48.43,303.957a2.316,2.316,0,0,0-1.726-2.24,26.44,26.44,0,0,1-6.581-2.727,2.316,2.316,0,0,0-2.805.363L33.4,303.275l-6.546-6.546,3.921-3.921A2.316,2.316,0,0,0,31.135,290a26.423,26.423,0,0,1-2.726-6.581,2.316,2.316,0,0,0-2.24-1.726H20.633V272.43h5.536a2.316,2.316,0,0,0,2.24-1.726,26.424,26.424,0,0,1,2.726-6.581,2.316,2.316,0,0,0-.363-2.805L26.851,257.4l6.546-6.546,3.921,3.922a2.316,2.316,0,0,0,2.805.363,26.439,26.439,0,0,1,6.581-2.726,2.316,2.316,0,0,0,1.726-2.24v-5.536H57.7v5.536a2.316,2.316,0,0,0,1.726,2.24A26.439,26.439,0,0,1,66,255.135a2.316,2.316,0,0,0,2.805-.363l3.921-3.922,6.546,6.546-3.921,3.921a2.316,2.316,0,0,0-.363,2.805,26.462,26.462,0,0,1,1.308,2.55l4.231-1.888q-.319-.714-.676-1.417l4.336-4.335a2.316,2.316,0,0,0,0-3.276l-9.822-9.822a2.316,2.316,0,0,0-3.276,0l-4.335,4.335a31.015,31.015,0,0,0-4.429-1.834v-6.122A2.316,2.316,0,0,0,60.012,240h-13.9a2.316,2.316,0,0,0-2.316,2.316v6.122a31.011,31.011,0,0,0-4.428,1.834l-4.335-4.336a2.316,2.316,0,0,0-3.276,0l-9.823,9.823a2.316,2.316,0,0,0,0,3.276l4.335,4.335a31.076,31.076,0,0,0-1.833,4.428H18.316A2.316,2.316,0,0,0,16,270.114v13.9a2.316,2.316,0,0,0,2.316,2.316h6.121a31.079,31.079,0,0,0,1.834,4.428l-4.336,4.335a2.316,2.316,0,0,0,0,3.276l9.822,9.822a2.316,2.316,0,0,0,3.276,0l4.335-4.335a31.013,31.013,0,0,0,4.429,1.834v6.122a2.316,2.316,0,0,0,2.316,2.316h11v-4.633H48.43Z" transform="translate(0 -159.138)"/>
      <path id="Trazado_1054392" data-name="Trazado 1054392" d="M121.266,336a9.266,9.266,0,1,0,9.266,9.266A9.266,9.266,0,0,0,121.266,336Zm0,13.9a4.633,4.633,0,1,1,4.633-4.633A4.633,4.633,0,0,1,121.266,349.9Z" transform="translate(-68.203 -227.341)"/>
      <path id="Trazado_1054393" data-name="Trazado 1054393" d="M92.832,333.03a16.215,16.215,0,1,1,14.46-23.573l4.126-2.106a20.853,20.853,0,1,0-12.181,29.3l-1.427-4.407A16.139,16.139,0,0,1,92.832,333.03Z" transform="translate(-39.769 -198.89)"/>
      <path id="Trazado_1054394" data-name="Trazado 1054394" d="M254.736,109.284,242.4,107.535l-6.177-4.662V97.579a25.575,25.575,0,0,0,11.582-21.35V73.913a9.257,9.257,0,0,0,7.1-15.206,7.439,7.439,0,0,0,2.165-5.255,7.24,7.24,0,0,0-6.975-7.332,26.618,26.618,0,0,0-19.231-24.445,9.266,9.266,0,0,0-17.08,0,26.618,26.618,0,0,0-19.231,24.445,7.24,7.24,0,0,0-6.975,7.333,7.438,7.438,0,0,0,2.172,5.262,9.256,9.256,0,0,0,7.094,15.2v2.316A25.575,25.575,0,0,0,208.43,97.58v5.293s-7.012,5.316-7.109,5.425l-12.5,2.681a15.508,15.508,0,0,0-4.983,2A16.276,16.276,0,0,0,176,126.843v28.145h4.633V126.843a11.63,11.63,0,0,1,5.619-9.913,10.956,10.956,0,0,1,3.529-1.419l10.617-2.272.856-.186,2.579,14.542a2.316,2.316,0,0,0,3.473,1.582l9.688-5.813,3.019,4.527v27.1h4.633v-27.1l3.019-4.528,9.688,5.813a2.316,2.316,0,0,0,3.473-1.582l2.7-15.222,10.553,1.5a11.667,11.667,0,0,1,9.947,11.466v29.65h4.633v-29.65A16.327,16.327,0,0,0,254.736,109.284Zm-29.82,9.849-2.587,3.881-2.587-3.88-6.678-15.584V99.962a25.435,25.435,0,0,0,18.531,0v3.589Zm-23.435-56.8a2.25,2.25,0,0,1,.235-1l6.135.458c4.8.359,9.642.538,14.478.538s9.675-.179,14.478-.538l6.134-.458a2.25,2.25,0,0,1,.236,1V71.6a2.319,2.319,0,0,1-2.316,2.316h-9.266a2,2,0,0,1-1.667-.9l-2.068-3.08a6.631,6.631,0,0,0-11.042-.024l-2.1,3.127a1.984,1.984,0,0,1-1.653.874H203.8a2.319,2.319,0,0,1-2.316-2.316Zm49.6,5.588a4.6,4.6,0,0,1-3.272,1.361V60.968l2.538-.19a4.619,4.619,0,0,1,.734,7.141ZM217.7,25.268a4.633,4.633,0,0,1,9.266,0V36.85H217.7Zm-13.9,8.474v7.741h4.633V29.324a22.056,22.056,0,0,1,4.633-2.515V39.166a2.316,2.316,0,0,0,2.316,2.316h13.9a2.316,2.316,0,0,0,2.316-2.316V26.809a22.07,22.07,0,0,1,4.633,2.515V41.483h4.633V33.742a21.806,21.806,0,0,1,4.6,12.374H199.193a21.8,21.8,0,0,1,4.6-12.374Zm-9.1,17.007H249.96a2.721,2.721,0,0,1,.169,5.4L236.463,57.17a190.3,190.3,0,0,1-28.266,0L194.53,56.149a2.627,2.627,0,0,1-2.313-2.7,2.6,2.6,0,0,1,2.48-2.7Zm-1.121,17.171a4.6,4.6,0,0,1,.753-7.14l2.519.188V69.28a4.663,4.663,0,0,1-3.272-1.361Zm8,10.259a6.922,6.922,0,0,0,2.222.368h9.266a6.563,6.563,0,0,0,5.513-2.948l2.1-3.127a2,2,0,0,1,3.319.024l2.069,3.08a6.575,6.575,0,0,0,5.529,2.971h9.266a6.922,6.922,0,0,0,2.222-.367,20.845,20.845,0,0,1-41.508,0Zm6.232,45.294-2.241-12.635,4.216-3.182,4.988,11.64Zm29.042,0-6.964-4.177,4.988-11.64,4.216,3.182Z" transform="translate(-113.671)"/>
      <path id="Trazado_1054395" data-name="Trazado 1054395" d="M296,424h4.633v4.633H296Z" transform="translate(-198.925 -289.86)"/>
      <path id="Trazado_1054396" data-name="Trazado 1054396" d="M296,480h4.633v4.633H296Z" transform="translate(-198.925 -329.645)"/>
      <path id="Trazado_1054398" data-name="Trazado 1054398" d="M389.9,435.582H376v4.633h13.9v4.633h4.633V424H389.9Z" transform="translate(-255.761 -289.86)"/>
      <path id="Trazado_1054401" data-name="Trazado 1054401" d="M236.633,435.582V424H232v20.848h4.633v-4.633h13.9v-4.633Z" transform="translate(-153.456 -289.86)"/>
    </g>
  </g>
</svg>
