<svg xmlns="http://www.w3.org/2000/svg" xmlns:xlink="http://www.w3.org/1999/xlink" width="108" height="108" viewBox="0 0 108 108">
  <defs>
    <filter id="Trazado_904820" x="0" y="0" width="108" height="108" filterUnits="userSpaceOnUse">
      <feOffset dy="3" input="SourceAlpha"/>
      <feGaussianBlur stdDeviation="3" result="blur"/>
      <feFlood flood-opacity="0.161"/>
      <feComposite operator="in" in2="blur"/>
      <feComposite in="SourceGraphic"/>
    </filter>
  </defs>
  <g id="Grupo_1210678" data-name="Grupo 1210678" transform="translate(-620 -1673.388)">
    <g id="Grupo_1210174" data-name="Grupo 1210174" transform="translate(629 1679.388)">
      <g id="Grupo_1209259" data-name="Grupo 1209259" transform="translate(0 0)">
        <g id="Grupo_1206197" data-name="Grupo 1206197">
          <g id="Grupo_1202705" data-name="Grupo 1202705">
            <g id="Grupo_1173585" data-name="Grupo 1173585">
              <g id="Grupo_1173428" data-name="Grupo 1173428">
                <g id="Grupo_1171958" data-name="Grupo 1171958">
                  <g id="Grupo_1167341" data-name="Grupo 1167341">
                    <g id="Grupo_1166792" data-name="Grupo 1166792">
                      <g transform="matrix(1, 0, 0, 1, -9, -6)" filter="url(#Trazado_904820)">
                        <g id="Trazado_904820-2" data-name="Trazado 904820" transform="translate(9 6)" fill="#fef9e7">
                          <path d="M 44.99999618530273 88.50003051757812 C 39.12687301635742 88.50003051757812 33.43022155761719 87.35010528564453 28.06829643249512 85.08219146728516 C 22.88852119445801 82.89134216308594 18.23629570007324 79.75461578369141 14.24084663391113 75.75917053222656 C 10.24540901184082 71.76371765136719 7.108683586120605 67.11149597167969 4.917821407318115 61.93172073364258 C 2.649921178817749 56.56979370117188 1.499996185302734 50.87314224243164 1.499996185302734 45.00001907348633 C 1.499996185302734 39.12689590454102 2.649921178817749 33.43024444580078 4.917821407318115 28.06830596923828 C 7.108683586120605 22.88853073120117 10.24540901184082 18.23631858825684 14.24084663391113 14.24086952209473 C 18.23629570007324 10.2454195022583 22.88852119445801 7.108694076538086 28.06829643249512 4.917831420898438 C 33.43022155761719 2.649931669235229 39.12687301635742 1.500006556510925 44.99999618530273 1.500006556510925 C 50.87311935424805 1.500006556510925 56.56977081298828 2.649931669235229 61.93169784545898 4.917831420898438 C 67.11147308349609 7.108694076538086 71.76369476318359 10.2454195022583 75.75914764404297 14.24086952209473 C 79.75458526611328 18.23631858825684 82.89131164550781 22.88853073120117 85.08216857910156 28.06830596923828 C 87.35007476806641 33.43024444580078 88.5 39.12689590454102 88.5 45.00001907348633 C 88.5 50.87314224243164 87.35007476806641 56.56979370117188 85.08216857910156 61.93172073364258 C 82.89131164550781 67.11149597167969 79.75458526611328 71.76371765136719 75.75914764404297 75.75917053222656 C 71.76369476318359 79.75461578369141 67.11147308349609 82.89134216308594 61.93169784545898 85.08219146728516 C 56.56977081298828 87.35010528564453 50.87311935424805 88.50003051757812 44.99999618530273 88.50003051757812 Z" stroke="none"/>
                          <path d="M 44.99999618530273 3.000007629394531 C 39.32870864868164 3.000007629394531 33.82865142822266 4.110061645507812 28.65262603759766 6.299346923828125 C 23.65165710449219 8.414573669433594 19.15968322753906 11.44334411621094 15.301513671875 15.30152130126953 C 11.44333648681641 19.15969085693359 8.414566040039062 23.65166473388672 6.299339294433594 28.65263366699219 C 4.110054016113281 33.82867431640625 2.999992370605469 39.32873153686523 2.999992370605469 45.00001907348633 C 2.999992370605469 50.67130661010742 4.110054016113281 56.17136383056641 6.299339294433594 61.34738922119141 C 8.414566040039062 66.34837341308594 11.44333648681641 70.84033203125 15.301513671875 74.69850158691406 C 19.15968322753906 78.55668640136719 23.65165710449219 81.58546447753906 28.65262603759766 83.70069122314453 C 33.82865142822266 85.88997650146484 39.32870864868164 87.00003051757812 44.99999618530273 87.00003051757812 C 50.67128372192383 87.00003051757812 56.17134094238281 85.88997650146484 61.34736633300781 83.70069122314453 C 66.34834289550781 81.58546447753906 70.84030914306641 78.55668640136719 74.69847869873047 74.69850158691406 C 78.55665588378906 70.84033203125 81.58542633056641 66.34837341308594 83.70065307617188 61.34738922119141 C 85.88993835449219 56.17136383056641 87 50.67130661010742 87 45.00001907348633 C 87 39.32873153686523 85.88993835449219 33.82867431640625 83.70065307617188 28.65263366699219 C 81.58542633056641 23.65166473388672 78.55665588378906 19.15969085693359 74.69847869873047 15.30152130126953 C 70.84030914306641 11.44334411621094 66.34834289550781 8.414573669433594 61.34736633300781 6.299346923828125 C 56.17134094238281 4.110061645507812 50.67128372192383 3.000007629394531 44.99999618530273 3.000007629394531 M 44.99999618530273 7.62939453125e-06 C 69.85281372070312 7.62939453125e-06 90 20.14719390869141 90 45.00001907348633 C 90 69.85282897949219 69.85281372070312 90.00003051757812 44.99999618530273 90.00003051757812 C 20.14717864990234 90.00003051757812 -7.62939453125e-06 69.85282897949219 -7.62939453125e-06 45.00001907348633 C -7.62939453125e-06 20.14719390869141 20.14717864990234 7.62939453125e-06 44.99999618530273 7.62939453125e-06 Z" stroke="none" fill="#887013"/>
                        </g>
                      </g>
                    </g>
                  </g>
                </g>
              </g>
            </g>
          </g>
        </g>
      </g>
    </g>
    <g id="employee_923451" transform="translate(604.232 1687.521)">
      <path id="Trazado_1054402" data-name="Trazado 1054402" d="M161.924,292.03v12.912a1.036,1.036,0,0,1-1.035,1.036H127.1a1.036,1.036,0,0,1-1.036-1.036V292.03a17.847,17.847,0,0,1,3.69-10.894c.252-.329.514-.648.79-.959a17.915,17.915,0,0,1,26.129-.824q.47.47.906.975c.226.262.445.533.656.809A17.848,17.848,0,0,1,161.924,292.03Z" transform="translate(-74.273 -236.179)" fill="#694b4b"/>
      <path id="Trazado_1054403" data-name="Trazado 1054403" d="M185.483,280.328v25.651H158.448v-25.8a17.915,17.915,0,0,1,26.129-.824Q185.047,279.823,185.483,280.328Z" transform="translate(-102.177 -236.179)" fill="#563939"/>
      <rect id="Rect치ngulo_419553" data-name="Rect치ngulo 419553" width="22.741" height="25.89" transform="translate(58.418 43.91)" fill="#fec007"/>
      <path id="Trazado_1054404" data-name="Trazado 1054404" d="M266.247,292.026v12.913a1.036,1.036,0,0,1-1.036,1.036h-1.325V292.026a17.838,17.838,0,0,0-3.69-10.893,17.567,17.567,0,0,0-1.561-1.784,17.871,17.871,0,0,0-11.5-5.211c.389-.027.784-.04,1.18-.04A17.888,17.888,0,0,1,261,279.348a17.573,17.573,0,0,1,1.561,1.784A17.84,17.84,0,0,1,266.247,292.026Z" transform="translate(-178.596 -236.174)" fill="#563939"/>
      <path id="Trazado_1054405" data-name="Trazado 1054405" d="M196.709,317.371v3.992L191,327.075a2.356,2.356,0,0,1-3.328,0l-2.4-2.4-2.4,2.4a2.356,2.356,0,0,1-3.328,0l-5.577-5.577v-4.127Z" transform="translate(-115.55 -273.461)" fill="#ff9700"/>
      <path id="Trazado_1054406" data-name="Trazado 1054406" d="M213.807,275.981,205.8,283.99l-8.007-8.007a17.956,17.956,0,0,1,16.015,0Z" transform="translate(-136.078 -236.175)" fill="#e59351"/>
      <path id="Trazado_1054407" data-name="Trazado 1054407" d="M171.411,75.382a16.117,16.117,0,1,1-32.233,0c0-.54.027-1.074.079-1.6a16.117,16.117,0,0,1,32.116.477C171.4,74.631,171.411,75.006,171.411,75.382Z" transform="translate(-85.573 -51.065)" fill="#fbcb99"/>
      <path id="Trazado_1054408" data-name="Trazado 1054408" d="M171.412,127.295a16.215,16.215,0,0,1-.082,1.633h-32.07a16.21,16.21,0,0,1-.082-1.633c0-.54.027-1.074.079-1.6a15.965,15.965,0,0,1,1.924-6.183h28.231a16.012,16.012,0,0,1,1.961,6.659C171.4,126.543,171.412,126.918,171.412,127.295Z" transform="translate(-85.574 -102.978)" fill="#eaa96e"/>
      <g id="Grupo_1210677" data-name="Grupo 1210677" transform="translate(53.936 1.038)">
        <path id="Trazado_1054409" data-name="Trazado 1054409" d="M171.967,288.778l-7.032-7.032a2.535,2.535,0,0,1,0-3.584l2.271-2.271,9.643,9.643-3.244,3.244A1.157,1.157,0,0,1,171.967,288.778Z" transform="translate(-161.062 -238.758)" fill="#fec007"/>
        <path id="Trazado_1054410" data-name="Trazado 1054410" d="M260.546,288.778l7.032-7.032a2.535,2.535,0,0,0,0-3.584l-2.271-2.271-9.643,9.643,3.244,3.244A1.157,1.157,0,0,0,260.546,288.778Z" transform="translate(-239.879 -238.758)" fill="#fec007"/>
        <path id="Trazado_1054411" data-name="Trazado 1054411" d="M173.139,20.638v6.581h-31.57V20.638A13.138,13.138,0,0,1,154.707,7.5H160A13.138,13.138,0,0,1,173.139,20.638Z" transform="translate(-141.569 -7.5)" fill="#fec007"/>
      </g>
      <rect id="Rect치ngulo_419554" data-name="Rect치ngulo 419554" width="31.57" height="4.221" transform="translate(53.936 16.535)" fill="#ff9700"/>
      <path id="Trazado_1054412" data-name="Trazado 1054412" d="M155.894,140.152H123.826a2.56,2.56,0,0,1-2.56-2.56h0a2.56,2.56,0,0,1,2.56-2.56h32.068a2.56,2.56,0,0,1,2.56,2.56h0A2.56,2.56,0,0,1,155.894,140.152Z" transform="translate(-70.139 -116.35)" fill="#fec007"/>
      <path id="Trazado_1054413" data-name="Trazado 1054413" d="M431.828,248.5h-3.66a1.038,1.038,0,1,0,0,2.075h3.66a1.038,1.038,0,1,0,0-2.075Z" transform="translate(-333.686 -214.119)"/>
      <path id="Trazado_1054414" data-name="Trazado 1054414" d="M45.1,250.575h3.66a1.038,1.038,0,1,0,0-2.075H45.1a1.038,1.038,0,0,0,0,2.075Z" transform="translate(-3.615 -214.119)"/>
      <path id="Trazado_1054415" data-name="Trazado 1054415" d="M99.367,27.8a1.038,1.038,0,0,0-1.468,0l-.884.884A27.253,27.253,0,0,0,84.665,6.968a1.043,1.043,0,0,0-.141-.076A14.182,14.182,0,0,0,72.367,0H67.074A14.18,14.18,0,0,0,54.918,6.892a1.046,1.046,0,0,0-.141.076A27.26,27.26,0,0,0,42.4,29.843a1.038,1.038,0,0,0,2.075,0A25.172,25.172,0,0,1,53.35,10.621a14.156,14.156,0,0,0-.451,3.555v3.557a3.6,3.6,0,0,0-.327,6.93,17.132,17.132,0,0,0,6.475,13.072l-1.973,1.973A3.567,3.567,0,0,0,56.06,42.7a18.85,18.85,0,0,0-5.306,13.156v1.7A24.971,24.971,0,0,1,44.6,42.214l.827.827a1.038,1.038,0,0,0,1.468-1.468l-2.628-2.628a1.038,1.038,0,0,0-1.468,0l-2.628,2.628a1.038,1.038,0,0,0,1.468,1.468l.883-.883a27.072,27.072,0,0,0,8.236,18.408v8.2a2.076,2.076,0,0,0,2.073,2.073h7.814a1.038,1.038,0,0,0,0-2.075H59.456V47.141l4.651,4.651a2.2,2.2,0,0,0,3.1,0l1.473-1.473V68.7c0,.021,0,.042,0,.064H64.965a1.038,1.038,0,0,0,0,2.075h21.65a2.076,2.076,0,0,0,2.073-2.073V60.745a27.233,27.233,0,0,0,8.447-19.751,1.038,1.038,0,1,0-2.075,0,25.349,25.349,0,0,1-6.372,16.762v-1.9a18.973,18.973,0,0,0-.824-5.545,1.038,1.038,0,0,0-1.985.606,16.9,16.9,0,0,1,.734,4.939l0,12.91H82.2V44.931l.172-.172.047-.049a16.966,16.966,0,0,1,1.666,2.242,1.038,1.038,0,0,0,1.763-1.095A19.074,19.074,0,0,0,83.382,42.7a3.568,3.568,0,0,0-1.014-2.99L80.4,37.74q.567-.452,1.1-.955a1.038,1.038,0,0,0-1.425-1.508A15.077,15.077,0,0,1,54.653,24.841H84.791a15.044,15.044,0,0,1-2.159,7.27,1.038,1.038,0,1,0,1.776,1.074,17.12,17.12,0,0,0,2.462-8.522,3.6,3.6,0,0,0-.327-6.93V14.176a14.151,14.151,0,0,0-.451-3.555,25.161,25.161,0,0,1,8.843,18L94.11,27.8a1.038,1.038,0,1,0-1.468,1.468l2.628,2.628a1.038,1.038,0,0,0,1.468,0l2.628-2.628A1.038,1.038,0,0,0,99.367,27.8ZM57.38,68.763H52.829V55.852a16.779,16.779,0,0,1,4.2-11.143l.048.05.306.306v23.7Zm8.363-18.439a.12.12,0,0,1-.169,0l-7.032-7.032a1.5,1.5,0,0,1,0-2.117l1.537-1.537,8.175,8.175ZM80.122,68.762H70.756c0-.021,0-.042,0-.064V50.319l1.473,1.473a2.2,2.2,0,0,0,3.1,0l4.785-4.785V68.762Zm.779-25.47-7.032,7.032a.12.12,0,0,1-.17,0l-2.511-2.51,8.175-8.176L80.9,41.175A1.5,1.5,0,0,1,80.9,43.292Zm-5.252-2.873-5.928,5.928-5.934-5.935a17.194,17.194,0,0,0,11.862.007Zm8.819-26.243v3.469h-3.11A7.116,7.116,0,0,0,75.844,11.3,2.843,2.843,0,0,1,73.79,8.568V2.159A12.118,12.118,0,0,1,84.467,14.176ZM81.444,19.72v3.045H58V19.72ZM67.727,8.568V2.075h3.988V8.568a4.9,4.9,0,0,0,3.538,4.725c2.39.712,3.737,2.174,4.018,4.352h-19.1c.281-2.178,1.628-3.641,4.018-4.352A4.9,4.9,0,0,0,67.727,8.568ZM65.652,2.159V8.568A2.843,2.843,0,0,1,63.6,11.3a7.116,7.116,0,0,0-5.514,6.341H54.974V14.176A12.117,12.117,0,0,1,65.652,2.159ZM53.687,19.72h2.236v3.045H53.687a1.523,1.523,0,0,1,0-3.045Zm33.591,1.523a1.524,1.524,0,0,1-1.523,1.523H83.519V19.72h2.236A1.524,1.524,0,0,1,87.277,21.242Z"/>
      <path id="Trazado_1054416" data-name="Trazado 1054416" d="M190.934,189.684a1.038,1.038,0,0,0,2.075,0,.4.4,0,1,1,.793,0,1.038,1.038,0,1,0,2.075,0,2.472,2.472,0,1,0-4.944,0Z" transform="translate(-130.169 -161.31)"/>
      <path id="Trazado_1054417" data-name="Trazado 1054417" d="M286.77,189.684a1.038,1.038,0,1,0,2.075,0,.4.4,0,1,1,.793,0,1.038,1.038,0,1,0,2.075,0,2.472,2.472,0,1,0-4.944,0Z" transform="translate(-212.745 -161.31)"/>
      <path id="Trazado_1054418" data-name="Trazado 1054418" d="M275.543,408.064a1.037,1.037,0,0,0,1.038,1.038h3.813a1.038,1.038,0,1,0,0-2.075h-3.813A1.038,1.038,0,0,0,275.543,408.064Z" transform="translate(-203.072 -350.712)"/>
      <path id="Trazado_1054419" data-name="Trazado 1054419" d="M198.077,408.064a1.038,1.038,0,0,0-1.038-1.038h-3.813a1.038,1.038,0,0,0,0,2.075h3.813A1.038,1.038,0,0,0,198.077,408.064Z" transform="translate(-131.249 -350.712)"/>
    </g>
  </g>
</svg>
