<svg xmlns="http://www.w3.org/2000/svg" xmlns:xlink="http://www.w3.org/1999/xlink" width="108" height="108" viewBox="0 0 108 108">
  <defs>
    <filter id="Trazado_904820" x="0" y="0" width="108" height="108" filterUnits="userSpaceOnUse">
      <feOffset dy="3" input="SourceAlpha"/>
      <feGaussianBlur stdDeviation="3" result="blur"/>
      <feFlood flood-opacity="0.161"/>
      <feComposite operator="in" in2="blur"/>
      <feComposite in="SourceGraphic"/>
    </filter>
  </defs>
  <g id="Grupo_1209259" data-name="Grupo 1209259" transform="translate(-200 -485)">
    <g id="Grupo_1206197" data-name="Grupo 1206197" transform="translate(0 -277)">
      <g id="Grupo_1202705" data-name="Grupo 1202705" transform="translate(209 768)">
        <g id="Grupo_1173585" data-name="Grupo 1173585" transform="translate(0 0)">
          <g id="Grupo_1173428" data-name="Grupo 1173428">
            <g id="Grupo_1171958" data-name="Grupo 1171958">
              <g id="Grupo_1167341" data-name="Grupo 1167341">
                <g id="Grupo_1166792" data-name="Grupo 1166792">
                  <g transform="matrix(1, 0, 0, 1, -9, -6)" filter="url(#Trazado_904820)">
                    <g id="Trazado_904820-2" data-name="Trazado 904820" transform="translate(9 6)" fill="#f6f9fa">
                      <path d="M 44.99999618530273 88.50002288818359 C 39.12687301635742 88.50002288818359 33.43022155761719 87.35009765625 28.06829643249512 85.08218383789062 C 22.88852119445801 82.89133453369141 18.23629570007324 79.75460815429688 14.24084663391113 75.75916290283203 C 10.24540901184082 71.76371002197266 7.108683586120605 67.11148834228516 4.917821407318115 61.93171310424805 C 2.649921178817749 56.56978607177734 1.499996185302734 50.87313461303711 1.499996185302734 45.0000114440918 C 1.499996185302734 39.12688827514648 2.649921178817749 33.43023681640625 4.917821407318115 28.06829833984375 C 7.108683586120605 22.88852310180664 10.24540901184082 18.2363109588623 14.24084663391113 14.2408618927002 C 18.23629570007324 10.24541187286377 22.88852119445801 7.108686447143555 28.06829643249512 4.917823791503906 C 33.43022155761719 2.649924039840698 39.12687301635742 1.499998927116394 44.99999618530273 1.499998927116394 C 50.87311935424805 1.499998927116394 56.56977081298828 2.649924039840698 61.93169784545898 4.917823791503906 C 67.11147308349609 7.108686447143555 71.76369476318359 10.24541187286377 75.75914764404297 14.2408618927002 C 79.75458526611328 18.2363109588623 82.89131164550781 22.88852310180664 85.08216857910156 28.06829833984375 C 87.35007476806641 33.43023681640625 88.5 39.12688827514648 88.5 45.0000114440918 C 88.5 50.87313461303711 87.35007476806641 56.56978607177734 85.08216857910156 61.93171310424805 C 82.89131164550781 67.11148834228516 79.75458526611328 71.76371002197266 75.75914764404297 75.75916290283203 C 71.76369476318359 79.75460815429688 67.11147308349609 82.89133453369141 61.93169784545898 85.08218383789062 C 56.56977081298828 87.35009765625 50.87311935424805 88.50002288818359 44.99999618530273 88.50002288818359 Z" stroke="none"/>
                      <path d="M 44.99999618530273 3 C 39.32870864868164 3 33.82865142822266 4.110054016113281 28.65262603759766 6.299339294433594 C 23.65165710449219 8.414566040039062 19.15968322753906 11.44333648681641 15.301513671875 15.30152893066406 C 11.44333648681641 19.15969848632812 8.414566040039062 23.65165710449219 6.299339294433594 28.65264129638672 C 4.110054016113281 33.82866668701172 2.999992370605469 39.3287239074707 2.999992370605469 45.0000114440918 C 2.999992370605469 50.67129898071289 4.110054016113281 56.17135620117188 6.299339294433594 61.34738159179688 C 8.414566040039062 66.34836578369141 11.44333648681641 70.84032440185547 15.301513671875 74.69849395751953 C 19.15968322753906 78.55668640136719 23.65165710449219 81.58545684814453 28.65262603759766 83.70068359375 C 33.82865142822266 85.88996887207031 39.32870864868164 87.00002288818359 44.99999618530273 87.00002288818359 C 50.67128372192383 87.00002288818359 56.17134094238281 85.88996887207031 61.34736633300781 83.70068359375 C 66.34834289550781 81.58545684814453 70.84030914306641 78.55668640136719 74.69847869873047 74.69849395751953 C 78.55665588378906 70.84032440185547 81.58542633056641 66.34836578369141 83.70065307617188 61.34738159179688 C 85.88993835449219 56.17135620117188 87 50.67129898071289 87 45.0000114440918 C 87 39.3287239074707 85.88993835449219 33.82866668701172 83.70065307617188 28.65264129638672 C 81.58542633056641 23.65165710449219 78.55665588378906 19.15969848632812 74.69847869873047 15.30152893066406 C 70.84030914306641 11.44333648681641 66.34834289550781 8.414566040039062 61.34736633300781 6.299339294433594 C 56.17134094238281 4.110054016113281 50.67128372192383 3 44.99999618530273 3 M 44.99999618530273 0 C 69.85281372070312 0 90 20.14719390869141 90 45.0000114440918 C 90 69.85282897949219 69.85281372070312 90.00002288818359 44.99999618530273 90.00002288818359 C 20.14717864990234 90.00002288818359 -7.62939453125e-06 69.85282897949219 -7.62939453125e-06 45.0000114440918 C -7.62939453125e-06 20.14719390869141 20.14717864990234 0 44.99999618530273 0 Z" stroke="none" fill="#5e7076"/>
                    </g>
                  </g>
                </g>
              </g>
            </g>
          </g>
        </g>
      </g>
    </g>
    <g id="_15-biomass" data-name="15-biomass" transform="translate(208.989 492.079)">
      <path id="Trazado_1047142" data-name="Trazado 1047142" d="M80,88.865v34.717H24.089V98.505l1.928-10.6h8.676l1.928,10.6,17.331.012.021-.976,8.676-8.676v8.676l8.676-8.676v8.676Z" transform="translate(-7.035 -63.237)" fill="#7fc44f"/>
      <g id="Grupo_1209258" data-name="Grupo 1209258" transform="translate(17.054 24.664)">
        <path id="Trazado_1047143" data-name="Trazado 1047143" d="M24.089,98.505l1.928-10.6h8.676l1.928,10.6Z" transform="translate(-24.089 -87.901)" fill="#ffc43b"/>
        <path id="Trazado_1047144" data-name="Trazado 1047144" d="M144.089,98.6,146.017,88h8.676l1.928,10.6Z" transform="translate(-129.628 -87.988)" fill="#ffc43b"/>
        <circle id="Elipse_12675" data-name="Elipse 12675" cx="8.676" cy="8.676" r="8.676" transform="translate(4.809 14.472)" fill="#ffc43b"/>
      </g>
      <path id="Trazado_1047145" data-name="Trazado 1047145" d="M274.6,208a10.6,10.6,0,0,1,10.6,10.6v23.137H264V218.6A10.6,10.6,0,0,1,274.6,208Z" transform="translate(-218.036 -168.863)" fill="#808285"/>
      <path id="Trazado_1047146" data-name="Trazado 1047146" d="M101.784,232,96,238.748h2.892v4.82l5.784-6.748h-2.892Z" transform="translate(-70.28 -189.971)" fill="#fff"/>
      <path id="Trazado_1047147" data-name="Trazado 1047147" d="M323.907,391.856H317.64l1.928-1.928L317.64,388l-3.856,3.856H308v4.82h15.907a2.41,2.41,0,0,0,0-4.82Z" transform="translate(-256.733 -327.172)" fill="#a97c50"/>
      <circle id="Elipse_12676" data-name="Elipse 12676" cx="2.41" cy="2.41" r="2.41" transform="translate(48.856 64.684)" fill="#c49a6c"/>
      <path id="Trazado_1047148" data-name="Trazado 1047148" d="M315.856,312h3.856v3.856a3.856,3.856,0,0,1-3.856,3.856H312v-3.856A3.856,3.856,0,0,1,315.856,312Z" transform="translate(-260.251 -260.331)" fill="#7fc44f"/>
      <path id="Trazado_1047149" data-name="Trazado 1047149" d="M252.82,212.533a7.712,7.712,0,1,1,15.425,0h4.82a12.532,12.532,0,1,0-25.065,0Z" transform="translate(-203.964 -161.827)" fill="#ffc43b"/>
      <path id="Trazado_1047150" data-name="Trazado 1047150" d="M73.337,24.738a.964.964,0,0,0-1.051.209l-7.031,7.031V25.628a.964.964,0,0,0-1.646-.682L56.58,31.977V25.628a.964.964,0,0,0-1.646-.682l-8.676,8.676a.964.964,0,0,0-.282.66v.033H44.851L43.068,24.5a.964.964,0,0,0-.949-.792H39.205V21.784A2.9,2.9,0,0,1,42.1,18.892H49.81V16.964H42.1a4.826,4.826,0,0,0-4.82,4.82v1.928H33.443a.964.964,0,0,0-.948.792l-1.782,9.8h-.321l-1.784-9.814a.964.964,0,0,0-.948-.792h-1.95v-.952a.965.965,0,0,1,.964-.964h2.892V19.856H26.673a2.9,2.9,0,0,0-2.892,2.892V23.7H21.853V20.82a2.9,2.9,0,0,1,2.892-2.892h7.712V16H24.745a4.826,4.826,0,0,0-4.82,4.82V23.7h-.942a.964.964,0,0,0-.949.792L16.105,35.1v0c-.005.03-.009.061-.012.092,0,.011,0,.023,0,.034s0,.028,0,.042V60.346a.964.964,0,0,0,.964.964H45V72.878a.964.964,0,0,0,.964.964H67.173a.964.964,0,0,0,.964-.964V70.327a3.374,3.374,0,0,0,0-6.466V61.31h4.831a.964.964,0,0,0,.964-.964V25.628a.964.964,0,0,0-.6-.891Zm-39.09.9h7.067l1.577,8.674-10.22-.007Zm-14.461-.012h7.067L28.431,34.3H18.209ZM65.192,49.741a8.677,8.677,0,0,0-17.246,0H45.04a11.568,11.568,0,0,1,23.057,0ZM46.928,71.914V51.669h1.928a.964.964,0,0,0,.964-.964,6.748,6.748,0,0,1,13.5,0,.964.964,0,0,0,.964.964h1.928V63.72H63.234l.282-.282a.964.964,0,0,0,0-1.363l-1.928-1.928a.964.964,0,0,0-1.363,0L56.652,63.72H51.267a3.374,3.374,0,0,0,0,6.748H66.209v1.446Zm5.784-4.82a1.446,1.446,0,1,1-1.446-1.446,1.446,1.446,0,0,1,1.446,1.446Zm15.907,0a1.448,1.448,0,0,1-1.446,1.446H54.314a3.368,3.368,0,0,0,0-2.892h2.736a.964.964,0,0,0,.682-.282l3.174-3.175.565.565L60.225,64a.964.964,0,0,0,.682,1.646h6.266a1.448,1.448,0,0,1,1.446,1.446ZM72,59.382H68.137V51.669H69.1a.964.964,0,0,0,.964-.964,13.5,13.5,0,1,0-26.993,0,.964.964,0,0,0,.964.964H45v7.712H18.018V36.233h13.36a.961.961,0,0,0,.136.011H44.047l.036,0,2.833,0h0a.964.964,0,0,0,.964-.943l.013-.589,6.757-6.757V34.3a.964.964,0,0,0,1.646.682l7.031-7.031V34.3a.964.964,0,0,0,1.646.682L72,27.956Z" transform="translate(0 0)"/>
      <path id="Trazado_1047151" data-name="Trazado 1047151" d="M311.911,24h1.928v1.928h-1.928Z" transform="translate(-260.173 -7.036)"/>
      <path id="Trazado_1047152" data-name="Trazado 1047152" d="M167.911,16h1.928v1.928h-1.928Z" transform="translate(-133.526 0)"/>
      <path id="Trazado_1047153" data-name="Trazado 1047153" d="M255.911,56h10.6v1.928h-10.6Z" transform="translate(-210.921 -35.18)"/>
      <path id="Trazado_1047154" data-name="Trazado 1047154" d="M359.911,56h1.928v1.928h-1.928Z" transform="translate(-302.389 -35.18)"/>
      <path id="Trazado_1047155" data-name="Trazado 1047155" d="M65.64,200a9.64,9.64,0,1,0,9.64,9.64A9.64,9.64,0,0,0,65.64,200Zm0,17.353a7.712,7.712,0,1,1,7.712-7.712A7.712,7.712,0,0,1,65.64,217.353Z" transform="translate(-35.101 -161.827)"/>
      <path id="Trazado_1047156" data-name="Trazado 1047156" d="M97.64,228.819H95.712v-3.856a.964.964,0,0,0-1.7-.627l-5.784,6.748a.964.964,0,0,0,.732,1.592h1.928v3.856a.964.964,0,0,0,1.7.627l5.784-6.748a.964.964,0,0,0-.732-1.592Zm-4.82,5.106v-2.214a.964.964,0,0,0-.964-.964h-.8l2.724-3.178v2.214a.964.964,0,0,0,.964.964h.8Z" transform="translate(-63.244 -182.934)"/>
      <path id="Trazado_1047157" data-name="Trazado 1047157" d="M296.87,313.64h3.457a4.826,4.826,0,0,0,4.82-4.82v-3.856a.964.964,0,0,0-.964-.964h-3.856a4.826,4.826,0,0,0-4.82,4.82v3.457l-1.164,1.164,1.363,1.363Zm.565-4.82a2.9,2.9,0,0,1,2.892-2.892h2.892v2.892a2.9,2.9,0,0,1-2.892,2.892H298.8l3.175-3.174-1.363-1.363-3.174,3.175Z" transform="translate(-244.722 -253.295)"/>
    </g>
  </g>
</svg>
