<svg xmlns="http://www.w3.org/2000/svg" xmlns:xlink="http://www.w3.org/1999/xlink" width="108" height="108" viewBox="0 0 108 108">
  <defs>
    <filter id="Trazado_904820" x="0" y="0" width="108" height="108" filterUnits="userSpaceOnUse">
      <feOffset dy="3" input="SourceAlpha"/>
      <feGaussianBlur stdDeviation="3" result="blur"/>
      <feFlood flood-opacity="0.161"/>
      <feComposite operator="in" in2="blur"/>
      <feComposite in="SourceGraphic"/>
    </filter>
  </defs>
  <g id="Grupo_1209260" data-name="Grupo 1209260" transform="translate(-191 -1445)">
    <g id="Grupo_1206690" data-name="Grupo 1206690" transform="translate(-9 683)">
      <g id="Grupo_1202705" data-name="Grupo 1202705" transform="translate(209 768)">
        <g id="Grupo_1173585" data-name="Grupo 1173585" transform="translate(0 0)">
          <g id="Grupo_1173428" data-name="Grupo 1173428">
            <g id="Grupo_1171958" data-name="Grupo 1171958">
              <g id="Grupo_1167341" data-name="Grupo 1167341">
                <g id="Grupo_1166792" data-name="Grupo 1166792">
                  <g transform="matrix(1, 0, 0, 1, -9, -6)" filter="url(#Trazado_904820)">
                    <g id="Trazado_904820-2" data-name="Trazado 904820" transform="translate(9 6)" fill="#fef9e7">
                      <path d="M 44.99999618530273 88.50002288818359 C 39.12687301635742 88.50002288818359 33.43022155761719 87.35009765625 28.06829643249512 85.08218383789062 C 22.88852119445801 82.89133453369141 18.23629570007324 79.75460815429688 14.24084663391113 75.75916290283203 C 10.24540901184082 71.76371002197266 7.108683586120605 67.11148834228516 4.917821407318115 61.93171310424805 C 2.649921178817749 56.56978607177734 1.499996185302734 50.87313461303711 1.499996185302734 45.0000114440918 C 1.499996185302734 39.12688827514648 2.649921178817749 33.43023681640625 4.917821407318115 28.06829833984375 C 7.108683586120605 22.88852310180664 10.24540901184082 18.2363109588623 14.24084663391113 14.2408618927002 C 18.23629570007324 10.24541187286377 22.88852119445801 7.108686447143555 28.06829643249512 4.917823791503906 C 33.43022155761719 2.649924039840698 39.12687301635742 1.499998927116394 44.99999618530273 1.499998927116394 C 50.87311935424805 1.499998927116394 56.56977081298828 2.649924039840698 61.93169784545898 4.917823791503906 C 67.11147308349609 7.108686447143555 71.76369476318359 10.24541187286377 75.75914764404297 14.2408618927002 C 79.75458526611328 18.2363109588623 82.89131164550781 22.88852310180664 85.08216857910156 28.06829833984375 C 87.35007476806641 33.43023681640625 88.5 39.12688827514648 88.5 45.0000114440918 C 88.5 50.87313461303711 87.35007476806641 56.56978607177734 85.08216857910156 61.93171310424805 C 82.89131164550781 67.11148834228516 79.75458526611328 71.76371002197266 75.75914764404297 75.75916290283203 C 71.76369476318359 79.75460815429688 67.11147308349609 82.89133453369141 61.93169784545898 85.08218383789062 C 56.56977081298828 87.35009765625 50.87311935424805 88.50002288818359 44.99999618530273 88.50002288818359 Z" stroke="none"/>
                      <path d="M 44.99999618530273 3 C 39.32870864868164 3 33.82865142822266 4.110054016113281 28.65262603759766 6.299339294433594 C 23.65165710449219 8.414566040039062 19.15968322753906 11.44333648681641 15.301513671875 15.30152893066406 C 11.44333648681641 19.15969848632812 8.414566040039062 23.65165710449219 6.299339294433594 28.65264129638672 C 4.110054016113281 33.82866668701172 2.999992370605469 39.3287239074707 2.999992370605469 45.0000114440918 C 2.999992370605469 50.67129898071289 4.110054016113281 56.17135620117188 6.299339294433594 61.34738159179688 C 8.414566040039062 66.34836578369141 11.44333648681641 70.84032440185547 15.301513671875 74.69849395751953 C 19.15968322753906 78.55668640136719 23.65165710449219 81.58545684814453 28.65262603759766 83.70068359375 C 33.82865142822266 85.88996887207031 39.32870864868164 87.00002288818359 44.99999618530273 87.00002288818359 C 50.67128372192383 87.00002288818359 56.17134094238281 85.88996887207031 61.34736633300781 83.70068359375 C 66.34834289550781 81.58545684814453 70.84030914306641 78.55668640136719 74.69847869873047 74.69849395751953 C 78.55665588378906 70.84032440185547 81.58542633056641 66.34836578369141 83.70065307617188 61.34738159179688 C 85.88993835449219 56.17135620117188 87 50.67129898071289 87 45.0000114440918 C 87 39.3287239074707 85.88993835449219 33.82866668701172 83.70065307617188 28.65264129638672 C 81.58542633056641 23.65165710449219 78.55665588378906 19.15969848632812 74.69847869873047 15.30152893066406 C 70.84030914306641 11.44333648681641 66.34834289550781 8.414566040039062 61.34736633300781 6.299339294433594 C 56.17134094238281 4.110054016113281 50.67128372192383 3 44.99999618530273 3 M 44.99999618530273 0 C 69.85281372070312 0 90 20.14719390869141 90 45.0000114440918 C 90 69.85282897949219 69.85281372070312 90.00002288818359 44.99999618530273 90.00002288818359 C 20.14717864990234 90.00002288818359 -7.62939453125e-06 69.85282897949219 -7.62939453125e-06 45.0000114440918 C -7.62939453125e-06 20.14719390869141 20.14717864990234 0 44.99999618530273 0 Z" stroke="none" fill="#887013"/>
                    </g>
                  </g>
                </g>
              </g>
            </g>
          </g>
        </g>
      </g>
    </g>
    <g id="Layer_1" data-name="Layer 1" transform="translate(202.657 1454.725)">
      <path id="Trazado_1047158" data-name="Trazado 1047158" d="M31.375,148.179,43.311,168.26A3.731,3.731,0,0,1,40.1,173.9H16.231a3.731,3.731,0,0,1-3.207-5.637l11.936-20.081a3.731,3.731,0,0,1,6.414,0Z" transform="translate(-6.254 -118.875)" fill="#ffdf40"/>
      <path id="Trazado_1047159" data-name="Trazado 1047159" d="M18.891,173.873h-2.66a3.731,3.731,0,0,1-3.207-5.637L24.96,148.156a3.728,3.728,0,0,1,4.537-1.582,3.682,3.682,0,0,0-1.877,1.582L15.684,168.236a3.731,3.731,0,0,0,3.207,5.637Z" transform="translate(-6.254 -118.852)" fill="#ffbe40"/>
      <path id="Trazado_1047160" data-name="Trazado 1047160" d="M123.436,206.6a1.547,1.547,0,1,1-1.547-1.547,1.547,1.547,0,0,1,1.547,1.547Zm.631-16.133a2.177,2.177,0,1,0-4.355,0c0,.076.631,10.724.631,10.724a1.547,1.547,0,1,0,3.093,0S124.067,190.548,124.067,190.471Z" transform="translate(-99.976 -155.538)" fill="#ff5959"/>
      <path id="Trazado_1047161" data-name="Trazado 1047161" d="M120.343,201.2s-.631-10.648-.631-10.724a2.177,2.177,0,0,1,2.177-2.177v14.448A1.547,1.547,0,0,1,120.343,201.2Zm1.547,3.862a1.547,1.547,0,1,0,0,3.093Z" transform="translate(-99.976 -155.542)" fill="#e63a57"/>
      <path id="Trazado_1047162" data-name="Trazado 1047162" d="M371.739,28.439H359.326a2.791,2.791,0,0,1-2.79-2.79V20.161a2.791,2.791,0,0,1,2.79-2.791h12.413a2.791,2.791,0,0,1,2.791,2.791v5.488a2.79,2.79,0,0,1-2.79,2.79Z" transform="translate(-307.003 -6.119)" fill="#6cf"/>
      <path id="Trazado_1047163" data-name="Trazado 1047163" d="M361.861,28.439h-2.534a2.79,2.79,0,0,1-2.79-2.79V20.161a2.791,2.791,0,0,1,2.79-2.791h2.534a2.79,2.79,0,0,0-2.79,2.791v5.488a2.79,2.79,0,0,0,2.791,2.79Z" transform="translate(-307.003 -6.119)" fill="#4da6ff"/>
      <path id="Trazado_1047164" data-name="Trazado 1047164" d="M371.739,158.2H359.326a2.79,2.79,0,0,1-2.79-2.79v-5.488a2.791,2.791,0,0,1,2.79-2.791h12.413a2.791,2.791,0,0,1,2.791,2.791v5.489A2.79,2.79,0,0,1,371.739,158.2Z" transform="translate(-307.003 -119.553)" fill="#6cf"/>
      <path id="Trazado_1047165" data-name="Trazado 1047165" d="M361.861,158.2h-2.534a2.79,2.79,0,0,1-2.79-2.79v-5.488a2.791,2.791,0,0,1,2.79-2.791h2.534a2.79,2.79,0,0,0-2.79,2.791v5.488a2.79,2.79,0,0,0,2.791,2.79Z" transform="translate(-307.003 -119.553)" fill="#4da6ff"/>
      <path id="Trazado_1047166" data-name="Trazado 1047166" d="M371.739,287.96H359.326a2.791,2.791,0,0,1-2.79-2.79v-5.489a2.79,2.79,0,0,1,2.79-2.79h12.413a2.79,2.79,0,0,1,2.791,2.791v5.488A2.791,2.791,0,0,1,371.739,287.96Z" transform="translate(-307.003 -232.988)" fill="#6cf"/>
      <path id="Trazado_1047167" data-name="Trazado 1047167" d="M361.861,287.96h-2.534a2.791,2.791,0,0,1-2.79-2.79v-5.489a2.79,2.79,0,0,1,2.79-2.79h2.534a2.79,2.79,0,0,0-2.79,2.791v5.488a2.79,2.79,0,0,0,2.791,2.791Z" transform="translate(-307.003 -232.988)" fill="#4da6ff"/>
      <path id="Trazado_1047168" data-name="Trazado 1047168" d="M371.739,417.72H359.326a2.791,2.791,0,0,1-2.79-2.79v-5.489a2.79,2.79,0,0,1,2.79-2.79h12.413a2.79,2.79,0,0,1,2.791,2.791v5.488A2.791,2.791,0,0,1,371.739,417.72Z" transform="translate(-307.003 -346.421)" fill="#6cf"/>
      <path id="Trazado_1047169" data-name="Trazado 1047169" d="M361.861,417.72h-2.534a2.791,2.791,0,0,1-2.79-2.79v-5.489a2.79,2.79,0,0,1,2.79-2.79h2.534a2.79,2.79,0,0,0-2.79,2.791v5.488a2.791,2.791,0,0,0,2.791,2.791Z" transform="translate(-307.003 -346.421)" fill="#4da6ff"/>
      <path id="Trazado_1047170" data-name="Trazado 1047170" d="M21.894,48.387a2.427,2.427,0,1,0,2.427,2.427,2.427,2.427,0,0,0-2.427-2.427Zm0,3.093a.666.666,0,1,1,.666-.666.666.666,0,0,1-.666.666ZM18.836,34.3c0,.033,0,.1.631,10.753a2.427,2.427,0,1,0,4.855,0c.631-10.651.631-10.72.631-10.753a3.058,3.058,0,1,0-6.116,0Zm4.355-.017c-.022.43-.419,7.144-.629,10.69,0,.017,0,.035,0,.052a.666.666,0,0,1-1.332,0q0-.026,0-.052c-.21-3.545-.607-10.26-.629-10.69a1.3,1.3,0,1,1,2.593,0ZM52.3,23.2H64.716a3.676,3.676,0,0,0,3.671-3.671V14.041a3.676,3.676,0,0,0-3.671-3.671H52.3a3.676,3.676,0,0,0-3.671,3.671V15.9H28.055a7.05,7.05,0,0,0-7.042,7.042v3.735a4.566,4.566,0,0,0-3.083,2.172L5.994,48.935A4.612,4.612,0,0,0,9.958,55.9H21.013v3.7a7.05,7.05,0,0,0,7.042,7.042H48.633v1.863A3.676,3.676,0,0,0,52.3,72.18H64.716a3.676,3.676,0,0,0,3.671-3.671V63.02a3.676,3.676,0,0,0-3.671-3.671H52.3a3.676,3.676,0,0,0-3.671,3.671v1.864H28.055A5.287,5.287,0,0,1,22.774,59.6V55.9H33.83a4.612,4.612,0,0,0,3.964-6.968L33.506,41.72h8.029v6.492A2.19,2.19,0,0,0,43.723,50.4h4.909v1.782A3.675,3.675,0,0,0,52.3,55.853H64.716a3.675,3.675,0,0,0,3.671-3.671V46.694a3.675,3.675,0,0,0-3.671-3.671H52.3a3.675,3.675,0,0,0-3.671,3.671v1.945H43.723a.427.427,0,0,1-.426-.426V34.063a.427.427,0,0,1,.426-.426h4.909v2.219A3.675,3.675,0,0,0,52.3,39.527H64.716a3.675,3.675,0,0,0,3.671-3.671V30.368A3.675,3.675,0,0,0,64.716,26.7H52.3a3.675,3.675,0,0,0-3.671,3.671v1.508H43.723a2.19,2.19,0,0,0-2.188,2.188v5.9H32.459l-6.6-11.105a4.566,4.566,0,0,0-3.083-2.172V22.947a5.287,5.287,0,0,1,5.281-5.281H48.633V19.53A3.676,3.676,0,0,0,52.3,23.2Zm-1.91-9.16a1.912,1.912,0,0,1,1.91-1.91H64.716a1.912,1.912,0,0,1,1.91,1.91V19.53a1.912,1.912,0,0,1-1.91,1.91H52.3a1.912,1.912,0,0,1-1.91-1.91Zm0,48.979a1.912,1.912,0,0,1,1.91-1.91H64.716a1.912,1.912,0,0,1,1.91,1.91v5.488a1.912,1.912,0,0,1-1.91,1.91H52.3a1.912,1.912,0,0,1-1.91-1.91Zm0-16.326a1.912,1.912,0,0,1,1.91-1.91H64.716a1.912,1.912,0,0,1,1.91,1.91v5.488a1.912,1.912,0,0,1-1.91,1.91H52.3a1.912,1.912,0,0,1-1.91-1.91Zm0-16.326a1.912,1.912,0,0,1,1.91-1.91H64.716a1.912,1.912,0,0,1,1.91,1.91v5.488a1.912,1.912,0,0,1-1.91,1.91H52.3a1.912,1.912,0,0,1-1.91-1.91Zm-26.05-.613L36.28,49.835a2.85,2.85,0,0,1-2.45,4.306H9.958a2.85,2.85,0,0,1-2.45-4.306L19.444,29.754a2.85,2.85,0,0,1,4.9,0ZM54.2,17.185a.881.881,0,1,1,1.246-1.246L57.41,17.9l4.133-4.133a.881.881,0,0,1,1.246,1.246l-4.756,4.756a.881.881,0,0,1-1.246,0Zm0,16.326a.881.881,0,0,1,1.246-1.246l1.963,1.963L61.543,30.1a.881.881,0,1,1,1.246,1.246L58.033,36.1a.881.881,0,0,1-1.246,0Zm0,16.326a.881.881,0,1,1,1.246-1.246l1.963,1.963,4.133-4.134a.881.881,0,1,1,1.246,1.246l-4.756,4.756a.881.881,0,0,1-1.246,0Zm0,16.326a.881.881,0,0,1,1.246-1.246l1.963,1.963,4.133-4.133a.881.881,0,1,1,1.246,1.246l-4.756,4.756a.881.881,0,0,1-1.246,0Z"/>
    </g>
  </g>
</svg>
