<svg xmlns="http://www.w3.org/2000/svg" xmlns:xlink="http://www.w3.org/1999/xlink" width="108" height="108" viewBox="0 0 108 108">
  <defs>
    <filter id="Trazado_904820" x="0" y="0" width="108" height="108" filterUnits="userSpaceOnUse">
      <feOffset dy="3" input="SourceAlpha"/>
      <feGaussianBlur stdDeviation="3" result="blur"/>
      <feFlood flood-opacity="0.161"/>
      <feComposite operator="in" in2="blur"/>
      <feComposite in="SourceGraphic"/>
    </filter>
  </defs>
  <g id="Grupo_1209288" data-name="Grupo 1209288" transform="translate(-611 -1445)">
    <g id="Grupo_1206691" data-name="Grupo 1206691" transform="translate(411 683)">
      <g id="Grupo_1202705" data-name="Grupo 1202705" transform="translate(209 768)">
        <g id="Grupo_1173585" data-name="Grupo 1173585" transform="translate(0 0)">
          <g id="Grupo_1173428" data-name="Grupo 1173428">
            <g id="Grupo_1171958" data-name="Grupo 1171958">
              <g id="Grupo_1167341" data-name="Grupo 1167341">
                <g id="Grupo_1166792" data-name="Grupo 1166792">
                  <g transform="matrix(1, 0, 0, 1, -9, -6)" filter="url(#Trazado_904820)">
                    <g id="Trazado_904820-2" data-name="Trazado 904820" transform="translate(9 6)" fill="#fef9e7">
                      <path d="M 44.99999618530273 88.50002288818359 C 39.12687301635742 88.50002288818359 33.43022155761719 87.35009765625 28.06829643249512 85.08218383789062 C 22.88852119445801 82.89133453369141 18.23629570007324 79.75460815429688 14.24084663391113 75.75916290283203 C 10.24540901184082 71.76371002197266 7.108683586120605 67.11148834228516 4.917821407318115 61.93171310424805 C 2.649921178817749 56.56978607177734 1.499996185302734 50.87313461303711 1.499996185302734 45.0000114440918 C 1.499996185302734 39.12688827514648 2.649921178817749 33.43023681640625 4.917821407318115 28.06829833984375 C 7.108683586120605 22.88852310180664 10.24540901184082 18.2363109588623 14.24084663391113 14.2408618927002 C 18.23629570007324 10.24541187286377 22.88852119445801 7.108686447143555 28.06829643249512 4.917823791503906 C 33.43022155761719 2.649924039840698 39.12687301635742 1.499998927116394 44.99999618530273 1.499998927116394 C 50.87311935424805 1.499998927116394 56.56977081298828 2.649924039840698 61.93169784545898 4.917823791503906 C 67.11147308349609 7.108686447143555 71.76369476318359 10.24541187286377 75.75914764404297 14.2408618927002 C 79.75458526611328 18.2363109588623 82.89131164550781 22.88852310180664 85.08216857910156 28.06829833984375 C 87.35007476806641 33.43023681640625 88.5 39.12688827514648 88.5 45.0000114440918 C 88.5 50.87313461303711 87.35007476806641 56.56978607177734 85.08216857910156 61.93171310424805 C 82.89131164550781 67.11148834228516 79.75458526611328 71.76371002197266 75.75914764404297 75.75916290283203 C 71.76369476318359 79.75460815429688 67.11147308349609 82.89133453369141 61.93169784545898 85.08218383789062 C 56.56977081298828 87.35009765625 50.87311935424805 88.50002288818359 44.99999618530273 88.50002288818359 Z" stroke="none"/>
                      <path d="M 44.99999618530273 3 C 39.32870864868164 3 33.82865142822266 4.110054016113281 28.65262603759766 6.299339294433594 C 23.65165710449219 8.414566040039062 19.15968322753906 11.44333648681641 15.301513671875 15.30152893066406 C 11.44333648681641 19.15969848632812 8.414566040039062 23.65165710449219 6.299339294433594 28.65264129638672 C 4.110054016113281 33.82866668701172 2.999992370605469 39.3287239074707 2.999992370605469 45.0000114440918 C 2.999992370605469 50.67129898071289 4.110054016113281 56.17135620117188 6.299339294433594 61.34738159179688 C 8.414566040039062 66.34836578369141 11.44333648681641 70.84032440185547 15.301513671875 74.69849395751953 C 19.15968322753906 78.55668640136719 23.65165710449219 81.58545684814453 28.65262603759766 83.70068359375 C 33.82865142822266 85.88996887207031 39.32870864868164 87.00002288818359 44.99999618530273 87.00002288818359 C 50.67128372192383 87.00002288818359 56.17134094238281 85.88996887207031 61.34736633300781 83.70068359375 C 66.34834289550781 81.58545684814453 70.84030914306641 78.55668640136719 74.69847869873047 74.69849395751953 C 78.55665588378906 70.84032440185547 81.58542633056641 66.34836578369141 83.70065307617188 61.34738159179688 C 85.88993835449219 56.17135620117188 87 50.67129898071289 87 45.0000114440918 C 87 39.3287239074707 85.88993835449219 33.82866668701172 83.70065307617188 28.65264129638672 C 81.58542633056641 23.65165710449219 78.55665588378906 19.15969848632812 74.69847869873047 15.30152893066406 C 70.84030914306641 11.44333648681641 66.34834289550781 8.414566040039062 61.34736633300781 6.299339294433594 C 56.17134094238281 4.110054016113281 50.67128372192383 3 44.99999618530273 3 M 44.99999618530273 0 C 69.85281372070312 0 90 20.14719390869141 90 45.0000114440918 C 90 69.85282897949219 69.85281372070312 90.00002288818359 44.99999618530273 90.00002288818359 C 20.14717864990234 90.00002288818359 -7.62939453125e-06 69.85282897949219 -7.62939453125e-06 45.0000114440918 C -7.62939453125e-06 20.14719390869141 20.14717864990234 0 44.99999618530273 0 Z" stroke="none" fill="#887013"/>
                    </g>
                  </g>
                </g>
              </g>
            </g>
          </g>
        </g>
      </g>
    </g>
    <g id="Layer_63" transform="translate(623.677 1460.84)">
      <g id="Grupo_1209287" data-name="Grupo 1209287" transform="translate(8.497 0)">
        <g id="Grupo_1209261" data-name="Grupo 1209261" transform="translate(23.171 3.021)">
          <path id="Trazado_1047171" data-name="Trazado 1047171" d="M123.935,20.365l-.711-5.086a1.374,1.374,0,0,0-1.684-1.145,1.413,1.413,0,0,0-1.029,1.583l.226,1.613A29.4,29.4,0,0,0,93.8,12.318a1.367,1.367,0,0,0-.868,1.775v0a1.378,1.378,0,0,0,1.71.836,26.641,26.641,0,0,1,24.571,4.705l-1.861.26a1.414,1.414,0,0,0-1.241,1.428,1.373,1.373,0,0,0,1.562,1.3l5.086-.711a1.373,1.373,0,0,0,1.17-1.55Z" transform="translate(-92.852 -10.999)" fill="#9be5f9"/>
        </g>
        <g id="Grupo_1209262" data-name="Grupo 1209262" transform="translate(11.385 55.658)">
          <path id="Trazado_1047172" data-name="Trazado 1047172" d="M80.956,211.165a1.378,1.378,0,0,0-1.711-.836,26.641,26.641,0,0,1-24.571-4.705l1.861-.26a1.414,1.414,0,0,0,1.241-1.428,1.374,1.374,0,0,0-1.562-1.3l-5.086.711a1.374,1.374,0,0,0-1.17,1.55l.711,5.086a1.374,1.374,0,0,0,1.684,1.145,1.413,1.413,0,0,0,1.029-1.583l-.226-1.613a29.4,29.4,0,0,0,26.933,5.012,1.367,1.367,0,0,0,.868-1.775Z" transform="translate(-49.945 -202.62)" fill="#b598f9"/>
        </g>
        <g id="Grupo_1209263" data-name="Grupo 1209263" transform="translate(0.687 13.719)">
          <path id="Trazado_1047173" data-name="Trazado 1047173" d="M20.365,49.958l-5.086.711a1.374,1.374,0,0,0-1.145,1.684,1.413,1.413,0,0,0,1.583,1.029l1.613-.226a29.4,29.4,0,0,0-5.012,26.933,1.367,1.367,0,0,0,1.775.868h0a1.378,1.378,0,0,0,.836-1.71,26.641,26.641,0,0,1,4.705-24.571l.26,1.861a1.414,1.414,0,0,0,1.428,1.241,1.373,1.373,0,0,0,1.3-1.562l-.711-5.086a1.374,1.374,0,0,0-1.55-1.17Z" transform="translate(-10.999 -49.945)" fill="#966aea"/>
        </g>
        <g id="Grupo_1209264" data-name="Grupo 1209264" transform="translate(53.324 25.506)">
          <path id="Trazado_1047174" data-name="Trazado 1047174" d="M211.165,92.937a1.378,1.378,0,0,0-.836,1.711,26.641,26.641,0,0,1-4.705,24.571l-.26-1.861a1.414,1.414,0,0,0-1.428-1.241,1.374,1.374,0,0,0-1.3,1.562l.711,5.086a1.374,1.374,0,0,0,1.55,1.17l5.086-.711a1.374,1.374,0,0,0,1.145-1.684,1.413,1.413,0,0,0-1.583-1.029l-1.613.226A29.4,29.4,0,0,0,212.943,93.8a1.367,1.367,0,0,0-1.775-.868Z" transform="translate(-202.62 -92.852)" fill="#70d6f9"/>
        </g>
        <g id="Grupo_1209265" data-name="Grupo 1209265" transform="translate(12.542 13.78)">
          <path id="Trazado_1047175" data-name="Trazado 1047175" d="M94.2,77.713l-3.092-2.476a1.38,1.38,0,0,1-.507-1.278,16.342,16.342,0,0,0,0-4.829,1.38,1.38,0,0,1,.507-1.278L94.2,65.376a1.393,1.393,0,0,0,.336-1.784l-3.161-5.476a1.393,1.393,0,0,0-1.713-.6L85.97,58.956a1.374,1.374,0,0,1-1.354-.194,16.318,16.318,0,0,0-4.2-2.425,1.372,1.372,0,0,1-.843-1.075l-.6-3.915A1.393,1.393,0,0,0,77.6,50.164H71.279A1.393,1.393,0,0,0,69.9,51.347l-.6,3.915a1.372,1.372,0,0,1-.843,1.075,16.31,16.31,0,0,0-4.2,2.425,1.373,1.373,0,0,1-1.354.194l-3.693-1.441a1.393,1.393,0,0,0-1.713.6l-3.161,5.476a1.393,1.393,0,0,0,.336,1.784l3.092,2.476a1.379,1.379,0,0,1,.507,1.278,16.342,16.342,0,0,0,0,4.829,1.38,1.38,0,0,1-.507,1.278l-3.092,2.476a1.394,1.394,0,0,0-.336,1.784l3.161,5.476a1.393,1.393,0,0,0,1.713.6l3.693-1.441a1.374,1.374,0,0,1,1.354.194,16.319,16.319,0,0,0,4.2,2.425,1.372,1.372,0,0,1,.843,1.075l.6,3.915a1.393,1.393,0,0,0,1.377,1.183H77.6a1.393,1.393,0,0,0,1.377-1.183l.6-3.915a1.372,1.372,0,0,1,.843-1.075,16.311,16.311,0,0,0,4.2-2.425,1.373,1.373,0,0,1,1.354-.194l3.693,1.441a1.394,1.394,0,0,0,1.713-.6L94.538,79.5A1.394,1.394,0,0,0,94.2,77.713Z" transform="translate(-54.157 -50.164)" fill="#f5c84c"/>
        </g>
        <g id="Grupo_1209266" data-name="Grupo 1209266" transform="translate(22.629 35.589)">
          <path id="Trazado_1047176" data-name="Trazado 1047176" d="M110.386,129.828H108.08v1.148a.918.918,0,0,1-.918.918h-.91a.918.918,0,0,1-.918-.918v-1.148H96.817v1.148a.918.918,0,0,1-.918.918h-.91a.918.918,0,0,1-.918-.918v-1.148H91.764a1.6,1.6,0,0,1-.886-.268v6.98a2.19,2.19,0,0,0,2.19,2.19h16.014a2.19,2.19,0,0,0,2.19-2.19v-6.98A1.594,1.594,0,0,1,110.386,129.828Z" transform="translate(-90.878 -129.56)" fill="#a57453"/>
        </g>
        <g id="Grupo_1209267" data-name="Grupo 1209267" transform="translate(21.914 27.241)">
          <path id="Trazado_1047177" data-name="Trazado 1047177" d="M108.5,99.17H89.874a1.6,1.6,0,0,0-1.6,1.6v5.413a1.6,1.6,0,0,0,1.6,1.6h2.307V106.65a.918.918,0,0,1,.918-.918h.91a.918.918,0,0,1,.918.918v1.136h8.515V106.65a.918.918,0,0,1,.918-.918h.91a.918.918,0,0,1,.918.918v1.136H108.5a1.6,1.6,0,0,0,1.6-1.6v-5.413A1.6,1.6,0,0,0,108.5,99.17Z" transform="translate(-88.273 -99.17)" fill="#c18e6b"/>
        </g>
        <g id="Grupo_1209268" data-name="Grupo 1209268" transform="translate(25.822 33.802)">
          <path id="Trazado_1047178" data-name="Trazado 1047178" d="M104.329,123.057h-.91a.918.918,0,0,0-.918.918v2.284a.918.918,0,0,0,.918.918h.91a.918.918,0,0,0,.918-.918v-2.284A.918.918,0,0,0,104.329,123.057Z" transform="translate(-102.5 -123.057)" fill="#f5c84c"/>
        </g>
        <g id="Grupo_1209269" data-name="Grupo 1209269" transform="translate(37.084 33.802)">
          <path id="Trazado_1047179" data-name="Trazado 1047179" d="M145.329,123.057h-.91a.918.918,0,0,0-.918.918v2.284a.918.918,0,0,0,.918.918h.91a.918.918,0,0,0,.918-.918v-2.284A.918.918,0,0,0,145.329,123.057Z" transform="translate(-143.5 -123.057)" fill="#f5c84c"/>
        </g>
        <g id="Grupo_1209275" data-name="Grupo 1209275" transform="translate(27.607 22.128)">
          <path id="Trazado_1047183" data-name="Trazado 1047183" d="M109.687,86.188A.687.687,0,0,1,109,85.5V82.973a2.418,2.418,0,0,1,2.416-2.416h5.607a2.418,2.418,0,0,1,2.416,2.416v2.414a.687.687,0,0,1-1.373,0V82.973a1.043,1.043,0,0,0-1.042-1.042h-5.607a1.043,1.043,0,0,0-1.042,1.042V85.5A.687.687,0,0,1,109.687,86.188Z" transform="translate(-109 -80.557)"/>
        </g>
        <g id="Grupo_1209276" data-name="Grupo 1209276" transform="translate(29.942 31.193)">
          <path id="Trazado_1047184" data-name="Trazado 1047184" d="M122.582,114.93h-4.4a.687.687,0,0,1,0-1.373h4.4a.687.687,0,1,1,0,1.373Z" transform="translate(-117.5 -113.557)"/>
        </g>
        <g id="Grupo_1209277" data-name="Grupo 1209277" transform="translate(22.486 2.334)">
          <path id="Trazado_1047185" data-name="Trazado 1047185" d="M115.679,21.512a2.06,2.06,0,0,1-2.059-1.968,2.107,2.107,0,0,1,1.832-2.14l.222-.031a25.96,25.96,0,0,0-22.634-3.6,2.063,2.063,0,0,1-2.469-2.885A2.016,2.016,0,0,1,91.79,9.848a30.1,30.1,0,0,1,26.229,4.132,2.107,2.107,0,0,1,1.551-2.329,2.06,2.06,0,0,1,2.523,1.718l.711,5.086h0a2.06,2.06,0,0,1-1.755,2.326l-5.086.711a2.064,2.064,0,0,1-.284.02Zm-15-10.268q.684,0,1.369.034a27.165,27.165,0,0,1,15.789,6.011A.687.687,0,0,1,117.5,18.5l-1.861.26a.725.725,0,0,0-.65.716.686.686,0,0,0,.781.652l5.087-.711a.687.687,0,0,0,.585-.775l-.711-5.086a.68.68,0,0,0-.293-.472.688.688,0,0,0-.552-.1.725.725,0,0,0-.508.82l.226,1.613a.687.687,0,0,1-1.106.634A28.716,28.716,0,0,0,92.2,11.16a.655.655,0,0,0-.4.34.686.686,0,0,0-.03.545.694.694,0,0,0,.863.418,27.219,27.219,0,0,1,8.047-1.217Z" transform="translate(-90.357 -8.497)"/>
        </g>
        <g id="Grupo_1209278" data-name="Grupo 1209278" transform="translate(10.699 54.971)">
          <path id="Trazado_1047186" data-name="Trazado 1047186" d="M69.591,213.136q-.753,0-1.508-.038a29.914,29.914,0,0,1-15.831-5.445,2.108,2.108,0,0,1-1.552,2.329,2.06,2.06,0,0,1-2.523-1.718l-.711-5.086a2.06,2.06,0,0,1,1.755-2.326l5.086-.711a2.06,2.06,0,0,1,2.344,1.949,2.107,2.107,0,0,1-1.832,2.14l-.222.031a25.96,25.96,0,0,0,22.634,3.6,2.067,2.067,0,0,1,2.559,1.258l.006.018v0a2.065,2.065,0,0,1-.1,1.608,2.016,2.016,0,0,1-1.219,1.041A29.918,29.918,0,0,1,69.591,213.136ZM51.343,205.43a.687.687,0,0,1,.426.148,28.712,28.712,0,0,0,26.3,4.895.656.656,0,0,0,.4-.34.686.686,0,0,0,.03-.545l.645-.237-.646.235a.694.694,0,0,0-.863-.415,27.326,27.326,0,0,1-25.2-4.827.687.687,0,0,1,.336-1.215l1.861-.26a.725.725,0,0,0,.65-.716.687.687,0,0,0-.781-.652l-5.087.711a.687.687,0,0,0-.585.776l.711,5.086a.687.687,0,0,0,.844.572.725.725,0,0,0,.508-.82l-.226-1.613a.688.688,0,0,1,.68-.783Z" transform="translate(-47.446 -200.12)"/>
        </g>
        <g id="Grupo_1209279" data-name="Grupo 1209279" transform="translate(0 13.032)">
          <path id="Trazado_1047187" data-name="Trazado 1047187" d="M11.808,79.912a2.071,2.071,0,0,1-.919-.214,2.017,2.017,0,0,1-1.041-1.219A30.1,30.1,0,0,1,13.98,52.249,2.108,2.108,0,0,1,11.652,50.7a2.06,2.06,0,0,1,1.718-2.523l5.086-.711a2.06,2.06,0,0,1,2.326,1.755l.711,5.086a2.061,2.061,0,0,1-1.949,2.343,2.113,2.113,0,0,1-2.14-1.832l-.031-.222a25.962,25.962,0,0,0-3.6,22.634,2.06,2.06,0,0,1-1.966,2.683Zm3.708-29.257a.687.687,0,0,1,.538,1.113,28.715,28.715,0,0,0-4.895,26.3.656.656,0,0,0,.34.4.685.685,0,0,0,.545.03.7.7,0,0,0,.418-.864,27.327,27.327,0,0,1,4.827-25.2.687.687,0,0,1,1.215.336l.26,1.861a.728.728,0,0,0,.716.65.687.687,0,0,0,.652-.781l-.711-5.087a.687.687,0,0,0-.775-.585l-5.086.711a.687.687,0,0,0-.572.844.726.726,0,0,0,.82.508l1.614-.225a.711.711,0,0,1,.1-.007Z" transform="translate(-8.497 -47.443)"/>
        </g>
        <g id="Grupo_1209280" data-name="Grupo 1209280" transform="translate(52.637 24.819)">
          <path id="Trazado_1047188" data-name="Trazado 1047188" d="M202.888,122.821a2.062,2.062,0,0,1-2.036-1.776l-.711-5.086a2.06,2.06,0,0,1,1.949-2.343,2.109,2.109,0,0,1,2.14,1.831l.031.222a25.962,25.962,0,0,0,3.6-22.634,2.066,2.066,0,0,1,1.258-2.559l.018-.006h0a2.063,2.063,0,0,1,1.608.1,2.016,2.016,0,0,1,1.041,1.219,30.094,30.094,0,0,1-4.132,26.229,2.1,2.1,0,0,1,2.329,1.551,2.06,2.06,0,0,1-1.718,2.523l-5.086.711A2.135,2.135,0,0,1,202.888,122.821Zm-.706-7.834h-.028a.687.687,0,0,0-.652.781l.711,5.087a.687.687,0,0,0,.776.585l5.086-.711a.687.687,0,0,0,.572-.844.727.727,0,0,0-.82-.508l-1.613.226a.687.687,0,0,1-.634-1.106,28.713,28.713,0,0,0,4.895-26.3.656.656,0,0,0-.34-.4.683.683,0,0,0-.545-.03l-.237-.645.235.646a.694.694,0,0,0-.415.863,27.327,27.327,0,0,1-4.827,25.2.687.687,0,0,1-1.215-.336l-.26-1.861A.73.73,0,0,0,202.181,114.987Z" transform="translate(-200.121 -90.352)"/>
        </g>
        <g id="Grupo_1209281" data-name="Grupo 1209281" transform="translate(11.852 13.092)">
          <path id="Trazado_1047189" data-name="Trazado 1047189" d="M75.781,91.8H69.458A2.068,2.068,0,0,1,67.4,90.031l-.6-3.915a.687.687,0,0,0-.415-.54,17,17,0,0,1-4.372-2.527.685.685,0,0,0-.677-.091L57.646,84.4a2.069,2.069,0,0,1-2.557-.9l-3.161-5.476a2.068,2.068,0,0,1,.5-2.663l3.092-2.476a.7.7,0,0,0,.257-.641,17.035,17.035,0,0,1,0-5.031.7.7,0,0,0-.257-.641L52.428,64.1a2.069,2.069,0,0,1-.5-2.663l3.161-5.476a2.069,2.069,0,0,1,2.557-.9L61.339,56.5a.685.685,0,0,0,.677-.091,16.994,16.994,0,0,1,4.371-2.527.686.686,0,0,0,.416-.54l.6-3.915a2.068,2.068,0,0,1,2.056-1.766h6.323a2.069,2.069,0,0,1,2.056,1.766l.6,3.915a.685.685,0,0,0,.415.54,17,17,0,0,1,4.372,2.527.686.686,0,0,0,.677.091l3.693-1.441a2.07,2.07,0,0,1,2.557.9l3.161,5.476a2.068,2.068,0,0,1-.5,2.663l-3.092,2.476a.7.7,0,0,0-.257.641,17.012,17.012,0,0,1,0,5.032.7.7,0,0,0,.258.641l3.091,2.476h0a2.069,2.069,0,0,1,.5,2.663L90.15,83.5a2.07,2.07,0,0,1-2.557.9L83.9,82.958a.687.687,0,0,0-.677.091,16.991,16.991,0,0,1-4.372,2.527.685.685,0,0,0-.415.54l-.6,3.915A2.069,2.069,0,0,1,75.781,91.8ZM61.6,81.535a2.04,2.04,0,0,1,1.272.44A15.631,15.631,0,0,0,66.891,84.3a2.063,2.063,0,0,1,1.27,1.61l.6,3.915a.7.7,0,0,0,.7.6h6.323a.7.7,0,0,0,.7-.6l.6-3.915a2.063,2.063,0,0,1,1.27-1.61,15.627,15.627,0,0,0,4.019-2.323,2.064,2.064,0,0,1,2.032-.3l3.693,1.441a.7.7,0,0,0,.869-.305l3.161-5.476a.7.7,0,0,0-.17-.9L88.86,73.958a2.074,2.074,0,0,1-.757-1.915,15.651,15.651,0,0,0,0-4.627A2.074,2.074,0,0,1,88.86,65.5l3.092-2.476a.7.7,0,0,0,.17-.9L88.96,56.644a.7.7,0,0,0-.869-.3L84.4,57.779a2.064,2.064,0,0,1-2.032-.3,15.627,15.627,0,0,0-4.019-2.323,2.063,2.063,0,0,1-1.27-1.61l-.6-3.915a.7.7,0,0,0-.7-.6H69.458a.7.7,0,0,0-.7.6l-.6,3.915a2.063,2.063,0,0,1-1.27,1.61,15.624,15.624,0,0,0-4.018,2.323,2.065,2.065,0,0,1-2.032.3l-3.693-1.441a.7.7,0,0,0-.869.305L53.117,62.12a.7.7,0,0,0,.17.9L56.379,65.5a2.073,2.073,0,0,1,.757,1.915,15.673,15.673,0,0,0,0,4.627,2.074,2.074,0,0,1-.757,1.915l-3.092,2.476a.7.7,0,0,0-.17.9l3.161,5.476a.7.7,0,0,0,.869.3l3.693-1.441a2.091,2.091,0,0,1,.76-.143Z" transform="translate(-51.645 -47.661)"/>
        </g>
        <g id="Grupo_1209282" data-name="Grupo 1209282" transform="translate(21.942 35.015)">
          <path id="Trazado_1047190" data-name="Trazado 1047190" d="M107.269,137.9H91.255a2.88,2.88,0,0,1-2.877-2.877v-6.816a.687.687,0,1,1,1.373,0v6.816a1.5,1.5,0,0,0,1.5,1.5h16.015a1.5,1.5,0,0,0,1.5-1.5v-6.867a.687.687,0,0,1,1.373,0v6.868A2.88,2.88,0,0,1,107.269,137.9Z" transform="translate(-88.378 -127.47)"/>
        </g>
        <g id="Grupo_1209283" data-name="Grupo 1209283" transform="translate(28.122 35.17)">
          <path id="Trazado_1047191" data-name="Trazado 1047191" d="M119.528,129.407h-7.966a.687.687,0,0,1,0-1.373h7.966a.687.687,0,0,1,0,1.373Z" transform="translate(-110.875 -128.034)"/>
        </g>
        <g id="Grupo_1209284" data-name="Grupo 1209284" transform="translate(21.227 26.555)">
          <path id="Trazado_1047192" data-name="Trazado 1047192" d="M106.684,106.66h-2.021a.687.687,0,0,1,0-1.373h2.021a.915.915,0,0,0,.914-.914V98.959a.915.915,0,0,0-.914-.914H88.061a.916.916,0,0,0-.914.914v5.413a.916.916,0,0,0,.914.914H90.07a.687.687,0,0,1,0,1.373H88.061a2.29,2.29,0,0,1-2.288-2.288V98.959a2.29,2.29,0,0,1,2.288-2.288h18.623a2.29,2.29,0,0,1,2.288,2.288v5.413A2.291,2.291,0,0,1,106.684,106.66Z" transform="translate(-85.773 -96.671)"/>
        </g>
        <g id="Grupo_1209285" data-name="Grupo 1209285" transform="translate(25.135 33.116)">
          <path id="Trazado_1047193" data-name="Trazado 1047193" d="M102.515,126.051h-.91A1.607,1.607,0,0,1,100,124.446v-2.284a1.607,1.607,0,0,1,1.605-1.605h.91a1.607,1.607,0,0,1,1.605,1.605v2.284A1.607,1.607,0,0,1,102.515,126.051Zm-.91-4.12a.232.232,0,0,0-.232.232v2.284a.232.232,0,0,0,.232.232h.91a.232.232,0,0,0,.232-.232v-2.284a.232.232,0,0,0-.232-.232Z" transform="translate(-100 -120.557)"/>
        </g>
        <g id="Grupo_1209286" data-name="Grupo 1209286" transform="translate(36.397 33.116)">
          <path id="Trazado_1047194" data-name="Trazado 1047194" d="M143.515,126.051h-.91A1.607,1.607,0,0,1,141,124.446v-2.284a1.607,1.607,0,0,1,1.605-1.605h.91a1.607,1.607,0,0,1,1.605,1.605v2.284A1.607,1.607,0,0,1,143.515,126.051Zm-.91-4.12a.232.232,0,0,0-.232.232v2.284a.232.232,0,0,0,.232.232h.91a.232.232,0,0,0,.232-.232v-2.284a.232.232,0,0,0-.232-.232Z" transform="translate(-141 -120.557)"/>
        </g>
      </g>
    </g>
  </g>
</svg>
