<svg xmlns="http://www.w3.org/2000/svg" xmlns:xlink="http://www.w3.org/1999/xlink" width="108" height="108" viewBox="0 0 108 108">
  <defs>
    <filter id="Trazado_904820" x="0" y="0" width="108" height="108" filterUnits="userSpaceOnUse">
      <feOffset dy="3" input="SourceAlpha"/>
      <feGaussianBlur stdDeviation="3" result="blur"/>
      <feFlood flood-opacity="0.161"/>
      <feComposite operator="in" in2="blur"/>
      <feComposite in="SourceGraphic"/>
    </filter>
  </defs>
  <g id="Grupo_1209314" data-name="Grupo 1209314" transform="translate(-1031 -1445)">
    <g id="Grupo_1206692" data-name="Grupo 1206692" transform="translate(831 683)">
      <g id="Grupo_1202705" data-name="Grupo 1202705" transform="translate(209 768)">
        <g id="Grupo_1173585" data-name="Grupo 1173585" transform="translate(0 0)">
          <g id="Grupo_1173428" data-name="Grupo 1173428">
            <g id="Grupo_1171958" data-name="Grupo 1171958">
              <g id="Grupo_1167341" data-name="Grupo 1167341">
                <g id="Grupo_1166792" data-name="Grupo 1166792">
                  <g transform="matrix(1, 0, 0, 1, -9, -6)" filter="url(#Trazado_904820)">
                    <g id="Trazado_904820-2" data-name="Trazado 904820" transform="translate(9 6)" fill="#fef9e7">
                      <path d="M 44.99999618530273 88.50002288818359 C 39.12687301635742 88.50002288818359 33.43022155761719 87.35009765625 28.06829643249512 85.08218383789062 C 22.88852119445801 82.89133453369141 18.23629570007324 79.75460815429688 14.24084663391113 75.75916290283203 C 10.24540901184082 71.76371002197266 7.108683586120605 67.11148834228516 4.917821407318115 61.93171310424805 C 2.649921178817749 56.56978607177734 1.499996185302734 50.87313461303711 1.499996185302734 45.0000114440918 C 1.499996185302734 39.12688827514648 2.649921178817749 33.43023681640625 4.917821407318115 28.06829833984375 C 7.108683586120605 22.88852310180664 10.24540901184082 18.2363109588623 14.24084663391113 14.2408618927002 C 18.23629570007324 10.24541187286377 22.88852119445801 7.108686447143555 28.06829643249512 4.917823791503906 C 33.43022155761719 2.649924039840698 39.12687301635742 1.499998927116394 44.99999618530273 1.499998927116394 C 50.87311935424805 1.499998927116394 56.56977081298828 2.649924039840698 61.93169784545898 4.917823791503906 C 67.11147308349609 7.108686447143555 71.76369476318359 10.24541187286377 75.75914764404297 14.2408618927002 C 79.75458526611328 18.2363109588623 82.89131164550781 22.88852310180664 85.08216857910156 28.06829833984375 C 87.35007476806641 33.43023681640625 88.5 39.12688827514648 88.5 45.0000114440918 C 88.5 50.87313461303711 87.35007476806641 56.56978607177734 85.08216857910156 61.93171310424805 C 82.89131164550781 67.11148834228516 79.75458526611328 71.76371002197266 75.75914764404297 75.75916290283203 C 71.76369476318359 79.75460815429688 67.11147308349609 82.89133453369141 61.93169784545898 85.08218383789062 C 56.56977081298828 87.35009765625 50.87311935424805 88.50002288818359 44.99999618530273 88.50002288818359 Z" stroke="none"/>
                      <path d="M 44.99999618530273 3 C 39.32870864868164 3 33.82865142822266 4.110054016113281 28.65262603759766 6.299339294433594 C 23.65165710449219 8.414566040039062 19.15968322753906 11.44333648681641 15.301513671875 15.30152893066406 C 11.44333648681641 19.15969848632812 8.414566040039062 23.65165710449219 6.299339294433594 28.65264129638672 C 4.110054016113281 33.82866668701172 2.999992370605469 39.3287239074707 2.999992370605469 45.0000114440918 C 2.999992370605469 50.67129898071289 4.110054016113281 56.17135620117188 6.299339294433594 61.34738159179688 C 8.414566040039062 66.34836578369141 11.44333648681641 70.84032440185547 15.301513671875 74.69849395751953 C 19.15968322753906 78.55668640136719 23.65165710449219 81.58545684814453 28.65262603759766 83.70068359375 C 33.82865142822266 85.88996887207031 39.32870864868164 87.00002288818359 44.99999618530273 87.00002288818359 C 50.67128372192383 87.00002288818359 56.17134094238281 85.88996887207031 61.34736633300781 83.70068359375 C 66.34834289550781 81.58545684814453 70.84030914306641 78.55668640136719 74.69847869873047 74.69849395751953 C 78.55665588378906 70.84032440185547 81.58542633056641 66.34836578369141 83.70065307617188 61.34738159179688 C 85.88993835449219 56.17135620117188 87 50.67129898071289 87 45.0000114440918 C 87 39.3287239074707 85.88993835449219 33.82866668701172 83.70065307617188 28.65264129638672 C 81.58542633056641 23.65165710449219 78.55665588378906 19.15969848632812 74.69847869873047 15.30152893066406 C 70.84030914306641 11.44333648681641 66.34834289550781 8.414566040039062 61.34736633300781 6.299339294433594 C 56.17134094238281 4.110054016113281 50.67128372192383 3 44.99999618530273 3 M 44.99999618530273 0 C 69.85281372070312 0 90 20.14719390869141 90 45.0000114440918 C 90 69.85282897949219 69.85281372070312 90.00002288818359 44.99999618530273 90.00002288818359 C 20.14717864990234 90.00002288818359 -7.62939453125e-06 69.85282897949219 -7.62939453125e-06 45.0000114440918 C -7.62939453125e-06 20.14719390869141 20.14717864990234 0 44.99999618530273 0 Z" stroke="none" fill="#887013"/>
                    </g>
                  </g>
                </g>
              </g>
            </g>
          </g>
        </g>
      </g>
    </g>
    <g id="customer-feedback_2967324" transform="translate(1055.913 1463.913)">
      <g id="Grupo_1209312" data-name="Grupo 1209312" transform="translate(1.906 1.906)">
        <g id="Grupo_1209289" data-name="Grupo 1209289" transform="translate(36.622 45.302)">
          <path id="Trazado_1047195" data-name="Trazado 1047195" d="M53.129,52.054A9.285,9.285,0,0,1,60.16,61.06H43.852V58.832a11.026,11.026,0,0,0-1.432-5.445l.335-.181a9.253,9.253,0,0,1,2.691-1.151L45.664,52l.535.535a4.375,4.375,0,0,0,6.179,0L52.912,52Z" transform="translate(-42.42 -52)" fill="#b4dd7f"/>
        </g>
        <g id="Grupo_1209290" data-name="Grupo 1209290" transform="translate(16.309 42.883)">
          <path id="Trazado_1047196" data-name="Trazado 1047196" d="M41.745,58.581v2.229H20V58.581a11,11,0,0,1,1.413-5.418,9.333,9.333,0,0,1,.843-1.3,11.218,11.218,0,0,1,2.655-2.537l1.432,3.325,4.53-2.718,4.53,2.718,1.432-3.325a11.2,11.2,0,0,1,2.917,2.89,8,8,0,0,1,.562.915,11.026,11.026,0,0,1,1.432,5.445Z" transform="translate(-20 -49.33)" fill="#75b1f2"/>
        </g>
        <g id="Grupo_1209291" data-name="Grupo 1209291" transform="translate(27.181 41.678)">
          <path id="Trazado_1047197" data-name="Trazado 1047197" d="M37.962,49.205,36.53,52.53,32,49.812,35.624,48A11.626,11.626,0,0,1,37.962,49.205Z" transform="translate(-32 -48)" fill="#5d9cec"/>
        </g>
        <g id="Grupo_1209292" data-name="Grupo 1209292" transform="translate(21.219 41.678)">
          <path id="Trazado_1047198" data-name="Trazado 1047198" d="M31.382,49.812l-4.53,2.718L25.42,49.205A11.626,11.626,0,0,1,27.758,48Z" transform="translate(-25.42 -48)" fill="#5d9cec"/>
        </g>
        <g id="Grupo_1209293" data-name="Grupo 1209293" transform="translate(10.872 45.302)">
          <path id="Trazado_1047199" data-name="Trazado 1047199" d="M20.85,53.413a11,11,0,0,0-1.413,5.418V61.06H14a9.049,9.049,0,0,0,3.443-5.436,9.242,9.242,0,0,0,.181-1.812V52l.217.054a9.288,9.288,0,0,1,3,1.35Z" transform="translate(-14 -52)" fill="#ff826e"/>
        </g>
        <g id="Grupo_1209294" data-name="Grupo 1209294" transform="translate(0 45.302)">
          <path id="Trazado_1047200" data-name="Trazado 1047200" d="M9.248,52v1.812a9.242,9.242,0,0,0,.181,1.812,9.049,9.049,0,0,0,3.443,5.436H2a9.3,9.3,0,0,1,7.031-9.006Z" transform="translate(-2 -52)" fill="#ff826e"/>
        </g>
        <g id="Grupo_1209295" data-name="Grupo 1209295" transform="translate(7.429 48.926)">
          <path id="Trazado_1047201" data-name="Trazado 1047201" d="M17.086,56a9.049,9.049,0,0,1-3.443,5.436A9.049,9.049,0,0,1,10.2,56Z" transform="translate(-10.2 -56)" fill="#e6e9ed"/>
        </g>
        <g id="Grupo_1209296" data-name="Grupo 1209296" transform="translate(18.121 21.745)">
          <path id="Trazado_1047202" data-name="Trazado 1047202" d="M40.039,31.482a5.754,5.754,0,0,1,.082.969,6.456,6.456,0,0,1-.19,1.567l-.489,1.957-.009.009a2.654,2.654,0,0,0-2.03-.924H36.5v-.036a2.676,2.676,0,0,0-2.682-2.682H28.306a2.676,2.676,0,0,0-2.682,2.682v.036h-.906a2.654,2.654,0,0,0-2.03.924l-.009-.009-.571-2.292a2.691,2.691,0,0,1-.072-.39A3,3,0,0,1,22,32.8a3.624,3.624,0,0,1,.553-1.921,3.686,3.686,0,0,1,1.477-1.359l1.595-.8a3.976,3.976,0,0,1,1.45-1.966A3.92,3.92,0,0,1,29.393,26H33.67a6.442,6.442,0,0,1,6.369,5.482Z" transform="translate(-22 -26)" fill="#b27946"/>
        </g>
        <g id="Grupo_1209297" data-name="Grupo 1209297" transform="translate(35.553 23.557)">
          <path id="Trazado_1047203" data-name="Trazado 1047203" d="M53.4,29.024a2.375,2.375,0,0,1,.2-.227,2.712,2.712,0,0,1,1.921-.8,4.516,4.516,0,0,1,4.53,4.53,6.3,6.3,0,0,1-1.857,4.485c-.544.544-1.178.988-3.579,1.785l-.906.072a6.315,6.315,0,0,1-5.726-3.624h-.616a3.623,3.623,0,0,0-3.624,3.624h-.906a2.664,2.664,0,0,0-1.169.263l.263-1.169a2.65,2.65,0,0,0-.689-1.794l.009-.009.489-1.957a6.456,6.456,0,0,0,.19-1.567,5.753,5.753,0,0,0-.082-.969h.009a4.817,4.817,0,0,1,1.885-.951l.5-.5a7.574,7.574,0,0,1,9.16-1.2Z" transform="translate(-41.24 -28)" fill="#656d78"/>
        </g>
        <g id="Grupo_1209298" data-name="Grupo 1209298" transform="translate(1.812 25.369)">
          <path id="Trazado_1047204" data-name="Trazado 1047204" d="M19.9,51.337a9.288,9.288,0,0,0-3-1.35l-.217-.054-1.2-2.383A5.44,5.44,0,0,0,18.5,42.684V42.2a3.631,3.631,0,0,0-3.108-3.588,7.3,7.3,0,0,1-5.047-3.18,3.976,3.976,0,0,0-2.718,3.769v3.479a5.386,5.386,0,0,0,1.595,3.842l1.413,1.024-1.2,2.383-.217.054a9.186,9.186,0,0,0-2.926,1.3A9.272,9.272,0,0,1,4,45.185V39.06a9.059,9.059,0,0,1,16.345-5.391,2.692,2.692,0,0,0,.072.39l.571,2.292L21,36.36a2.7,2.7,0,0,0,.109,3.715,2.571,2.571,0,0,0,1.015.634v4.476a9.331,9.331,0,0,1-1.377,4.865h.009a9.333,9.333,0,0,0-.843,1.3Z" transform="translate(-4 -30)" fill="#656d78"/>
        </g>
        <g id="Grupo_1209299" data-name="Grupo 1209299" transform="translate(18.121 30.805)">
          <path id="Trazado_1047205" data-name="Trazado 1047205" d="M25.624,36v5.436h-.906a2.512,2.512,0,0,1-.906-.163,2.571,2.571,0,0,1-1.015-.634,2.7,2.7,0,0,1-.109-3.715A2.654,2.654,0,0,1,24.718,36Z" transform="translate(-22 -36)" fill="#f0d0b4"/>
        </g>
        <g id="Grupo_1209300" data-name="Grupo 1209300" transform="translate(32.617 30.805)">
          <path id="Trazado_1047206" data-name="Trazado 1047206" d="M38.906,36a2.741,2.741,0,0,1,2.718,2.718l-.263,1.169-.535.752a2.69,2.69,0,0,1-1.921.8H38V36Z" transform="translate(-38 -36)" fill="#f0d0b4"/>
        </g>
        <g id="Grupo_1209301" data-name="Grupo 1209301" transform="translate(48.926 34.429)">
          <path id="Trazado_1047207" data-name="Trazado 1047207" d="M56.906,40a2.718,2.718,0,0,1,0,5.436H56V40Z" transform="translate(-56 -40)" fill="#f0d0b4"/>
        </g>
        <g id="Grupo_1209302" data-name="Grupo 1209302" transform="translate(34.429 34.429)">
          <path id="Trazado_1047208" data-name="Trazado 1047208" d="M43.624,40v5.436h-.906A2.722,2.722,0,0,1,40,42.718a2.664,2.664,0,0,1,.263-1.169,2.769,2.769,0,0,0,.752-.535l.535-.752A2.664,2.664,0,0,1,42.718,40Z" transform="translate(-40 -40)" fill="#f0d0b4"/>
        </g>
        <g id="Grupo_1209303" data-name="Grupo 1209303" transform="translate(39.866 43.299)">
          <path id="Trazado_1047209" data-name="Trazado 1047209" d="M51.436,49.98a3.484,3.484,0,0,0,1.151-.19V49.8l.661,1.993-.535.535a4.375,4.375,0,0,1-6.179,0L46,51.792l.661-1.993V49.79a3.445,3.445,0,0,0,1.151.19Z" transform="translate(-46 -49.79)" fill="#f0d0b4"/>
        </g>
        <g id="Grupo_1209304" data-name="Grupo 1209304" transform="translate(38.053 30.805)">
          <path id="Trazado_1047210" data-name="Trazado 1047210" d="M54.872,39.624V45.06A3.621,3.621,0,0,1,52.4,48.494a3.484,3.484,0,0,1-1.151.19H47.624a3.445,3.445,0,0,1-1.151-.19A3.621,3.621,0,0,1,44,45.06V39.624A3.623,3.623,0,0,1,47.624,36h.616a6.316,6.316,0,0,0,5.726,3.624l.906-.072v.009Z" transform="translate(-44 -36)" fill="#f0d0b4"/>
        </g>
        <g id="Grupo_1209305" data-name="Grupo 1209305" transform="translate(23.557 39.675)">
          <path id="Trazado_1047211" data-name="Trazado 1047211" d="M35.248,47.792,31.624,49.6,28,47.792l.661-1.993V45.79a3.445,3.445,0,0,0,1.151.19h3.624a3.445,3.445,0,0,0,1.151-.19V45.8Z" transform="translate(-28 -45.79)" fill="#f0d0b4"/>
        </g>
        <g id="Grupo_1209306" data-name="Grupo 1209306" transform="translate(7.248 42.919)">
          <path id="Trazado_1047212" data-name="Trazado 1047212" d="M17.248,51.753v1.812a9.242,9.242,0,0,1-.181,1.812H10.181A9.242,9.242,0,0,1,10,53.565V51.753l1.2-2.383a5.45,5.45,0,0,0,4.856,0Z" transform="translate(-10 -49.37)" fill="#f0d0b4"/>
        </g>
        <g id="Grupo_1209307" data-name="Grupo 1209307" transform="translate(21.745 28.087)">
          <path id="Trazado_1047213" data-name="Trazado 1047213" d="M36.872,35.718v5.436A3.621,3.621,0,0,1,34.4,44.588a3.445,3.445,0,0,1-1.151.19H29.624a3.445,3.445,0,0,1-1.151-.19A3.621,3.621,0,0,1,26,41.154V35.682A2.676,2.676,0,0,1,28.682,33h5.509a2.676,2.676,0,0,1,2.682,2.682Z" transform="translate(-26 -33)" fill="#f0d0b4"/>
        </g>
        <g id="Grupo_1209308" data-name="Grupo 1209308" transform="translate(5.436 30.805)">
          <path id="Trazado_1047214" data-name="Trazado 1047214" d="M18.872,42.768v.48a5.439,5.439,0,0,1-7.864,4.865L9.595,47.09A5.386,5.386,0,0,1,8,43.248V39.769A3.976,3.976,0,0,1,10.718,36a7.3,7.3,0,0,0,5.047,3.18,3.631,3.631,0,0,1,3.108,3.588Z" transform="translate(-8 -36)" fill="#f0d0b4"/>
        </g>
        <g id="Grupo_1209309" data-name="Grupo 1209309" transform="translate(43.49 9.06)">
          <path id="Trazado_1047215" data-name="Trazado 1047215" d="M60.872,12V22.872H50V12H60.872Z" transform="translate(-50 -12)" fill="#ffeaa7"/>
        </g>
        <g id="Grupo_1209310" data-name="Grupo 1209310" transform="translate(21.745 0)">
          <path id="Trazado_1047216" data-name="Trazado 1047216" d="M36.872,4.274v8.6H26V2H36.872Z" transform="translate(-26 -2)" fill="#ffeaa7"/>
        </g>
        <g id="Grupo_1209311" data-name="Grupo 1209311" transform="translate(0 10.872)">
          <path id="Trazado_1047217" data-name="Trazado 1047217" d="M12.872,14V24.872H2V14H12.872Z" transform="translate(-2 -14)" fill="#ffeaa7"/>
        </g>
      </g>
      <g id="Grupo_1209313" data-name="Grupo 1209313" transform="translate(1 1)">
        <path id="Trazado_1047218" data-name="Trazado 1047218" d="M57.174,32.248a5.442,5.442,0,0,0-5.436-5.436,3.587,3.587,0,0,0-2.287.836,8.425,8.425,0,0,0-9.636,1.65l-.328.328a5.626,5.626,0,0,0-.844.334A7.365,7.365,0,0,0,31.694,25H27.422a4.873,4.873,0,0,0-4.492,2.972l-1.281.641A4.543,4.543,0,0,0,19.4,31.159,9.949,9.949,0,0,0,2.812,38.591v6.122a10.18,10.18,0,0,0,1.912,5.936A10.169,10.169,0,0,0,1,58.523v.906H57.174v-.906a10.176,10.176,0,0,0-7.451-9.815l-.259-.777a4.528,4.528,0,0,0,2.182-3h.092A3.618,3.618,0,0,0,53.82,38.35a7.24,7.24,0,0,0,3.354-6.1ZM40.18,31.315l.244-.061.675-.675a6.671,6.671,0,0,1,7.268-1.449,3.6,3.6,0,0,0,3.371,4.93V32.248a1.812,1.812,0,0,1,0-3.624,3.628,3.628,0,0,1,3.624,3.624,5.436,5.436,0,0,1-10.872,0H42.678a7.222,7.222,0,0,0,.256,1.878,4.528,4.528,0,0,0-3.788,3.558h-.092a3.6,3.6,0,0,0-.605-2l.385-1.541a7.358,7.358,0,0,0,.22-1.786c0-.176-.014-.347-.026-.52a3.852,3.852,0,0,1,1.152-.525Zm.889,17.393a10.157,10.157,0,0,0-2.216.938,12.088,12.088,0,0,0-5.415-4.495l-.282-.845a4.528,4.528,0,0,0,2.182-3h.092a3.628,3.628,0,0,0,3.624,3.624h.092a4.53,4.53,0,0,0,2.182,3ZM10.534,53.993h4.488a8.194,8.194,0,0,1-2.244,3.345,8.209,8.209,0,0,1-2.243-3.345Zm2.244-7.248a4.535,4.535,0,0,1-4.53-4.53V38.737A3.064,3.064,0,0,1,9.764,36.09a8.219,8.219,0,0,0,5.211,2.953,2.733,2.733,0,0,1,2.334,2.691v.481a4.535,4.535,0,0,1-4.53,4.53Zm0,1.812a6.324,6.324,0,0,0,2-.326l.723,1.446v1.6a8.146,8.146,0,0,1-.053.906H10.115a7.934,7.934,0,0,1-.054-.906v-1.6l.723-1.446A6.324,6.324,0,0,0,12.778,48.557Zm4.53,2.718v-.59a8.348,8.348,0,0,1,1.14.522,12,12,0,0,0-1.14,5.091v1.319H15.023A10.014,10.014,0,0,0,17.309,51.275ZM22.745,39.5a1.812,1.812,0,1,1,0-3.624Zm.092,1.812a4.53,4.53,0,0,0,2.182,3l-.282.845a11.9,11.9,0,0,0-2.131,1.165,10.107,10.107,0,0,0,.14-1.605v-3.4Zm2.593,5.527,1.776.888L24.978,49.06l-.713-1.652a10.126,10.126,0,0,1,1.164-.573Zm7.315,0a10.126,10.126,0,0,1,1.164.573L33.2,49.06l-2.227-1.336ZM31.6,45.379l-2.516,1.258L26.571,45.38l.167-.5a4.572,4.572,0,0,0,.537.053H30.9a4.386,4.386,0,0,0,.537-.054Zm-.7-2.259H27.275A2.721,2.721,0,0,1,24.557,40.4V34.927a1.775,1.775,0,0,1,1.773-1.773h5.515a1.775,1.775,0,0,1,1.772,1.773V40.4A2.721,2.721,0,0,1,30.9,43.121ZM19.121,56.3a10.308,10.308,0,0,1,3.634-7.818l1.381,3.2,4.951-2.971,4.951,2.971,1.381-3.2A10.308,10.308,0,0,1,39.053,56.3v1.319H19.121ZM35.429,35.872a1.812,1.812,0,1,1,0,3.624ZM39.053,39.5v3.624a1.814,1.814,0,0,1-1.812-1.812,1.79,1.79,0,0,1,.1-.558A3.64,3.64,0,0,0,38.5,39.594a1.805,1.805,0,0,1,.557-.1ZM22.459,30.233l1.933-.967.119-.356a3.065,3.065,0,0,1,2.911-2.1h4.272a5.547,5.547,0,0,1,5.382,6.893l-.169.677a3.593,3.593,0,0,0-1.477-.322h-.118a3.583,3.583,0,0,0-3.466-2.718H26.33a3.582,3.582,0,0,0-3.466,2.718h-.119a3.579,3.579,0,0,0-1.477.323l-.253-1.011a2.76,2.76,0,0,1,1.444-3.139ZM4.624,44.713V38.591a8.164,8.164,0,0,1,8.154-8.154,8.081,8.081,0,0,1,6.44,3.165c.014.07.022.141.039.21l.468,1.875A3.6,3.6,0,0,0,20.933,40.8v3.909a8.381,8.381,0,0,1-1.246,4.4l.013.008c-.125.169-.25.337-.366.512a10.2,10.2,0,0,0-2.306-.941l-.634-1.268a6.339,6.339,0,0,0,2.727-5.205v-.481a4.553,4.553,0,0,0-3.889-4.485,6.4,6.4,0,0,1-4.417-2.785l-.384-.576-.657.219a4.875,4.875,0,0,0-3.338,4.631v3.477a6.336,6.336,0,0,0,2.727,5.2l-.634,1.268a10.241,10.241,0,0,0-2.311.94,8.377,8.377,0,0,1-1.594-4.915ZM8.248,50.7v.575a10.014,10.014,0,0,0,2.286,6.342H2.861A8.348,8.348,0,0,1,8.248,50.7Zm47.065,6.918H40.866V56.3a12,12,0,0,0-1.131-5.07,8.328,8.328,0,0,1,1.777-.743l.15.15a5.281,5.281,0,0,0,7.468,0l.15-.15a8.351,8.351,0,0,1,6.033,7.133Zm-7.33-8.4-.135.135a3.552,3.552,0,0,1-4.905,0l-.135-.135.238-.716a4.387,4.387,0,0,0,.537.054h3.624a4.386,4.386,0,0,0,.537-.054Zm1.943-5.192a2.721,2.721,0,0,1-2.718,2.718H43.584a2.721,2.721,0,0,1-2.718-2.718V38.591a2.721,2.721,0,0,1,2.718-2.718h.074A7.247,7.247,0,0,0,49.926,39.5Zm1.812-.906V39.5a1.812,1.812,0,1,1,0,3.624Z" transform="translate(-1 -3.255)"/>
        <path id="Trazado_1047219" data-name="Trazado 1047219" d="M49.575,10.06A32.566,32.566,0,0,0,35.429,3.444V1H22.745V3.449a32.387,32.387,0,0,0-16.2,8.423H1V24.557H13.684V11.872H9.237A30.536,30.536,0,0,1,22.745,5.3v8.384H35.429V5.295A30.712,30.712,0,0,1,46.54,10.06H44.49V22.745H57.174V10.06ZM2.812,22.745v-9.06h7.969L6.392,18.7,5.265,17.574,3.984,18.855l2.5,2.5,5.392-6.163v7.555ZM24.557,11.872V2.812h7.969l-4.39,5.017L27.01,6.7,25.728,7.983l2.5,2.5,5.392-6.163v7.555ZM46.3,20.933v-9.06h7.969l-4.39,5.017-1.127-1.127-1.281,1.281,2.5,2.5,5.392-6.163v7.555Z" transform="translate(-1 -1)"/>
        <path id="Trazado_1047220" data-name="Trazado 1047220" d="M31,19h1.812v1.812H31Z" transform="translate(-3.819 -2.691)"/>
        <path id="Trazado_1047221" data-name="Trazado 1047221" d="M35,19h1.812v1.812H35Z" transform="translate(-4.195 -2.691)"/>
        <path id="Trazado_1047222" data-name="Trazado 1047222" d="M27,19h1.812v1.812H27Z" transform="translate(-3.443 -2.691)"/>
      </g>
    </g>
  </g>
</svg>
