<svg xmlns="http://www.w3.org/2000/svg" xmlns:xlink="http://www.w3.org/1999/xlink" width="505" height="439.489" viewBox="0 0 505 439.489">
  <defs>
    <clipPath id="clip-path">
      <rect id="Rectángulo_418569" data-name="Rectángulo 418569" width="505" height="439.489" transform="translate(915 2124)" fill="#193141" stroke="#707070" stroke-width="1" opacity="0.49"/>
    </clipPath>
    <filter id="Rectángulo_418551" x="73" y="32" width="359" height="419" filterUnits="userSpaceOnUse">
      <feOffset dy="3" input="SourceAlpha"/>
      <feGaussianBlur stdDeviation="3" result="blur"/>
      <feFlood flood-opacity="0.161"/>
      <feComposite operator="in" in2="blur"/>
      <feComposite in="SourceGraphic"/>
    </filter>
    <clipPath id="clip-path-2">
      <rect id="Rectángulo_418818" data-name="Rectángulo 418818" width="457.104" height="435.795" transform="translate(0 0)" fill="none"/>
    </clipPath>
  </defs>
  <g id="Enmascarar_grupo_1098794" data-name="Enmascarar grupo 1098794" transform="translate(-915 -2124)" clip-path="url(#clip-path)">
    <g transform="matrix(1, 0, 0, 1, 915, 2124)" filter="url(#Rectángulo_418551)">
      <rect id="Rectángulo_418551-2" data-name="Rectángulo 418551" width="341" height="401" rx="8" transform="translate(82 38)" fill="#aed3eb"/>
    </g>
    <g id="Grupo_1209316" data-name="Grupo 1209316" transform="translate(947.693 2128.938)">
      <g id="Grupo_1209315" data-name="Grupo 1209315" transform="translate(0 0.003)" clip-path="url(#clip-path-2)">
        <path id="Trazado_1047224" data-name="Trazado 1047224" d="M1686.893,208.7a13.848,13.848,0,0,1,5.957-1.661c3.7-.135,7.637-.314,11.016,1.467,1.5.743,2.153,2.457,3.514,3.35a51.328,51.328,0,0,1,6.58,2.409,78.913,78.913,0,0,1,11.807,17.171,84.764,84.764,0,0,1,8.2,24.706,28.892,28.892,0,0,1,.516,7.207c-2.2-.164-4.383-.463-6.57-.748-2.829-.362-5.682-.082-8.515-.328a73.575,73.575,0,0,0-14.2-.6c-9.152-.034-18.3-.135-27.457.053-4.325.439-8.679.435-13.014.743-6.555.14-13.024,1.424-19.565,1.738.936-3.138.652-6.512,1.665-9.655,2.993-13.12,9.77-25.686,20.337-34.211a40.186,40.186,0,0,1,6.314-4.383c3.143-1.545,6.276-3.21,9.713-4,1.805-.285,2.23-2.452,3.707-3.263m-2.09,5.962a11.738,11.738,0,0,0-.295,2.356c-.048,7.564.386,15.114.183,22.674a44.55,44.55,0,0,0-.14,5.324c.4,5.069.073,10.157.217,15.235.546,0,1.1,0,1.656.014.044-15.162.073-30.33-.01-45.492-.541-.039-1.076-.077-1.612-.111m18.9.594c.246,8.959.236,17.924.174,26.883-.01,4.653.15,9.312-.063,13.965a14.334,14.334,0,0,0,.348,3.954,35.4,35.4,0,0,0,.2-5.4c-.087-13.357.072-26.719-.01-40.076-.159.169-.488.5-.647.671m.951,3.205c.073,13.912-.106,27.829.1,41.736.6,0,1.212,0,1.82-.01q.1-22.584,0-45.169l-1.371-.792c-.888,1.236-.478,2.819-.55,4.234" transform="translate(-1468.677 -184.759)" fill="#f3af2a"/>
        <path id="Trazado_1047226" data-name="Trazado 1047226" d="M2286.542,275.069c10.6,4.562,18.851,13.478,24.276,23.5a64.2,64.2,0,0,1,7.632,25.7c-.034.309-.1.922-.135,1.231-3.727-.613-7.5-.927-11.252-1.347a28.892,28.892,0,0,0-.517-7.207,84.76,84.76,0,0,0-8.2-24.706,78.919,78.919,0,0,0-11.808-17.171" transform="translate(-2041.259 -245.562)" fill="#d88c19"/>
        <path id="Trazado_1047227" data-name="Trazado 1047227" d="M2012.26,278.759c.536.034,1.072.072,1.612.111.082,15.162.053,30.33.01,45.492-.555-.01-1.11-.01-1.656-.014-.145-5.078.179-10.166-.217-15.235a44.55,44.55,0,0,1,.14-5.324c.2-7.56-.232-15.109-.183-22.674a11.738,11.738,0,0,1,.294-2.356" transform="translate(-1796.134 -248.856)" fill="#f5fcff"/>
        <path id="Trazado_1047228" data-name="Trazado 1047228" d="M2190.917,278.71c.159-.169.488-.5.647-.671.082,13.357-.077,26.719.01,40.076a35.332,35.332,0,0,1-.2,5.4,14.334,14.334,0,0,1-.347-3.954c.212-4.653.053-9.312.063-13.965.063-8.959.072-17.924-.174-26.883" transform="translate(-1955.892 -248.213)" fill="#dfae47"/>
        <path id="Trazado_1047229" data-name="Trazado 1047229" d="M2199.506,278.943c.073-1.414-.338-3,.55-4.234l1.371.792q.065,22.584,0,45.169c-.608,0-1.217.01-1.82.01-.208-13.907-.029-27.824-.1-41.736" transform="translate(-1963.53 -245.241)" fill="#fffefa"/>
        <path id="Trazado_1047230" data-name="Trazado 1047230" d="M1132.739,319.86c.676-.039,1.352-.077,2.032-.106a31.326,31.326,0,0,1,.169,4.663c-.237,3.4.068,6.8.034,10.2-.068,6.932.034,13.859-.015,20.786-.241,7.4.106,14.791-.01,22.186.111,3.35-.232,6.715.121,10.055.116.222.348.671.464.893a3.419,3.419,0,0,1-2.636,1.55c.4-.632.806-1.255,1.221-1.878-.024-.145-.068-.43-.087-.574-.464.043-.917.1-1.381.106q.123-16.169.048-32.343c.01-10.47-.014-20.941.01-31.406q0-2.071.029-4.132" transform="translate(-1011.15 -285.454)" fill="#757fbe"/>
        <path id="Trazado_1047231" data-name="Trazado 1047231" d="M2773.037,319.912c.483-.753,2.25-.676,2.143.434.212,2.081.024,4.176.058,6.261.019,20.241-.02,40.481.024,60.717.473.314.956.628,1.439.941-.454.565-.908,1.13-1.4,1.661-.9-.772-1.168-2.143-2.331-2.631-.092-14.607-.024-29.219.039-43.827-.241-6.275.111-12.556-.082-18.831a32.845,32.845,0,0,1,.111-4.726" transform="translate(-2475.441 -285.152)" fill="#737ec3"/>
        <path id="Trazado_1047232" data-name="Trazado 1047232" d="M3080.573,318.854c.637.111,1.294.217,1.941.314.01,22.553.092,45.106.029,67.659-.724-.014-1.443-.019-2.163-.014-.053-20.564-.014-41.133-.053-61.7a40.421,40.421,0,0,1,.246-6.256" transform="translate(-2749.877 -284.65)" fill="#747cbe"/>
        <path id="Trazado_1047236" data-name="Trazado 1047236" d="M1670.465,716.587c9.152-.188,18.3-.087,27.458-.053,5.175.642,10.4.7,15.606.869,8.544.628,17.04,1.752,25.58,2.443.338.681.719,1.337,1.105,2-8.37-1.018-16.731-2.177-25.16-2.554a124.559,124.559,0,0,0-15.066-.328c1.83-.164,3.659-.3,5.489-.468-5.185.212-10.369-.126-15.553-.126-17.677-.077-35.408.348-52.912,2.974.285-.758.594-1.511.874-2.274,6.541-.314,13.01-1.6,19.565-1.738,4.335-.309,8.689-.3,13.014-.743" transform="translate(-1461.406 -639.619)" fill="#f9fcfe"/>
        <path id="Trazado_1047237" data-name="Trazado 1047237" d="M2204.822,714.563a73.574,73.574,0,0,1,14.2.6c2.834.246,5.687-.034,8.515.328,2.187.285,4.368.584,6.57.748,3.756.42,7.526.734,11.252,1.347.034-.309.1-.922.135-1.231.092-.7.212-1.39.328-2.085.034,1.2.063,2.409.183,3.606-8.539-.69-17.035-1.815-25.58-2.443-5.209-.169-10.432-.227-15.606-.869" transform="translate(-1968.305 -637.648)" fill="#ebca85"/>
        <path id="Trazado_1047238" data-name="Trazado 1047238" d="M1582.055,737.019c17.5-2.626,35.234-3.051,52.911-2.974,5.184,0,10.369.338,15.553.126-1.83.164-3.659.3-5.489.468a124.557,124.557,0,0,1,15.066.328c8.428.377,16.789,1.535,25.16,2.554a12.944,12.944,0,0,1,6.015,4.48c-.256.724-.5,1.453-.734,2.182-2.394.753-4.919.6-7.391.608-4.789.087-9.568.41-14.356.406-6.763.14-13.531.106-20.289.41-16.717-.024-33.443.309-50.155-.256-4.856-.01-9.712-.145-14.573-.15-2.066-.019-4.137.087-6.2-.043a2.129,2.129,0,0,1-1.849-3.094,10.09,10.09,0,0,1,6.333-5.044" transform="translate(-1406.449 -655.295)" fill="#d98f1b"/>
        <path id="Trazado_1047239" data-name="Trazado 1047239" d="M2445.572,834.69c4.789,0,9.568-.319,14.356-.405A41.009,41.009,0,0,1,2458.446,846c-.328,1.139-.7,2.269-1.043,3.4-2.293-.883-4.475.381-5.706,2.307a25,25,0,0,1-.246,4.61,25.81,25.81,0,0,1-.28-4.436,6.7,6.7,0,0,1,1.8-3.007c-2.24-.121-3.876-1.723-5.373-3.21a57.26,57.26,0,0,1-2.023-10.977" transform="translate(-2183.229 -744.789)" fill="#151314"/>
        <path id="Trazado_1047240" data-name="Trazado 1047240" d="M1653.032,838.109c4.861,0,9.717.14,14.574.15a53.808,53.808,0,0,1-1.67,10.268c-1.4.787-2.641,1.936-4.238,2.293-1.728-.2-3.4-.758-5.131-.922-.1.632-.2,1.27-.3,1.907.816.319,1.641.628,2.448.99a4.7,4.7,0,0,0-3.616.468c.965-.7.227-1.859.029-2.756a37.988,37.988,0,0,1-2.1-12.4" transform="translate(-1475.707 -748.203)" fill="#141213"/>
        <path id="Trazado_1047241" data-name="Trazado 1047241" d="M1774.987,838.219c16.712.565,33.438.232,50.155.256,6.758-.3,13.526-.27,20.289-.41a57.251,57.251,0,0,0,2.023,10.977,9.968,9.968,0,0,0-4.494-1.221,4.484,4.484,0,0,0-2.563-1.989c-5.672-1.969-11.957-1.588-17.639.145-.917.372-2.124.589-2.626,1.54-.2.367-.391.739-.574,1.11a9.564,9.564,0,0,0-4.436,7.178,19.551,19.551,0,0,0-10.321.053,9.334,9.334,0,0,0-4.06-7.077c-.266-2.114-2.539-2.612-4.234-3.123-4.914-1.221-10.181-1.651-15.1-.232-1.5.483-3.21.98-3.953,2.52a29.671,29.671,0,0,0-4.137.541,53.809,53.809,0,0,0,1.67-10.268" transform="translate(-1583.089 -748.163)" fill="#f5ba9b"/>
        <path id="Trazado_1047242" data-name="Trazado 1047242" d="M1815.835,899.286c4.919-1.419,10.186-.99,15.1.232,1.694.512,3.968,1.009,4.234,3.123a9.44,9.44,0,0,0-5.035-1.081c-6.082.063-12.184-.391-18.252.246.744-1.54,2.452-2.037,3.953-2.52" transform="translate(-1617.517 -802.023)" fill="#100f0f"/>
        <path id="Trazado_1047243" data-name="Trazado 1047243" d="M2211.63,899.6c5.682-1.733,11.967-2.114,17.639-.145a4.483,4.483,0,0,1,2.563,1.989c-4.364.082-8.742-.338-13.082.28-3.287.053-6.623-.883-9.833.328.024-.227.063-.685.087-.912.5-.951,1.709-1.168,2.626-1.54" transform="translate(-1971.961 -801.791)" fill="#121112"/>
        <path id="Trazado_1047244" data-name="Trazado 1047244" d="M1692.851,927.144a29.662,29.662,0,0,1,4.137-.541c6.068-.637,12.17-.183,18.252-.246a9.44,9.44,0,0,1,5.035,1.081,9.335,9.335,0,0,1,4.06,7.077,19.55,19.55,0,0,1,10.321-.053,9.564,9.564,0,0,1,4.436-7.178c.183-.372.377-.743.574-1.11-.024.227-.063.685-.087.912,3.21-1.212,6.546-.275,9.833-.328,4.34-.618,8.718-.2,13.082-.28a9.969,9.969,0,0,1,4.494,1.221c1.5,1.487,3.133,3.089,5.373,3.21a6.7,6.7,0,0,0-1.8,3.007,25.8,25.8,0,0,0,.28,4.436,17.228,17.228,0,0,1-9.037,12.179c-3.49,1.791-7.511,2.182-11.378,2.09a15.571,15.571,0,0,1-12.029-6.681,23.028,23.028,0,0,1-3.775-8.81,16.783,16.783,0,0,0-10.374.193,18.76,18.76,0,0,1-10.046,13.97c-2.983,1.463-6.415,1.487-9.655,1.178-3.915-.4-7.9-1.627-10.857-4.325a17.857,17.857,0,0,1-5.8-13.323c.188-1.559-1.13-2.626-2.269-3.413-.806-.362-1.632-.671-2.448-.99.1-.637.2-1.274.3-1.907,1.733.164,3.4.724,5.131.922,1.6-.357,2.843-1.506,4.238-2.293m4.972,1.791c-1.936,0-4.586-.034-5.6,1.955a1.891,1.891,0,0,0-1.858,1.361c-.362,1.578-1.105,3.625.294,4.919-.043.159-.14.483-.183.642a15.053,15.053,0,0,0,10.451,11.7c3.509.859,7.28,1.279,10.789.217a15.313,15.313,0,0,0,9.413-9.5c.951-2.558,1.419-5.537.208-8.086a5.481,5.481,0,0,0-4.243-3.268c-6.42-.729-12.85.632-19.27.063m44.179-.019a6.115,6.115,0,0,0-4.793,4.716c-.8,3.871.825,7.8,3.07,10.89a13.6,13.6,0,0,0,10.161,5.827c4.49.212,9.331-.589,12.879-3.548a15.084,15.084,0,0,0,5.426-9.519c-.068-2.418-.053-5.373-2.114-7.043-1.791-1.53-4.3-1.439-6.5-1.3-6.039.463-12.107-.83-18.126-.019" transform="translate(-1502.623 -826.821)" fill="#1f2743"/>
        <path id="Trazado_1047245" data-name="Trazado 1047245" d="M2555.867,946.9c.348-1.134.714-2.264,1.043-3.4-.077.285-.222.85-.294,1.13,7.531-.237,15.071-.053,22.606-.2,1.163.488,1.429,1.859,2.331,2.631.492-.531.946-1.1,1.4-1.661-.483-.314-.966-.628-1.438-.941q15.336.072,30.682-.01c.719,0,1.439,0,2.163.014,23.538.082,47.08-.014,70.613.058a3.627,3.627,0,0,1,3.664,3.857c-.01,15.047.106,30.1-.01,45.149,5.484.208,10.977-.048,16.47.077-.063,34.187.015,68.373-.019,102.56-3.495-.188-6.985.164-10.48.106-9.167-.261-18.334-.169-27.5-.068-6.439-.053-12.879-.024-19.319-.039-5.151,0-10.3-.236-15.442-.015-3.582-9.833-7.091-19.715-11.682-29.133,4.948-.111,9.9-.063,14.854-.043,7.69-7.366,15.491-14.622,23.1-22.07q-.015-17.863-.019-35.727c-15.418.154-30.846.2-46.265-.029-.14,6.454.116,12.918.01,19.372a4.72,4.72,0,0,1-2.795,4.3,17.668,17.668,0,0,1-3.147.372c-.473.227-.922.488-1.376.739l-.937-2.134a11.26,11.26,0,0,1-1.308-5.16c-.647-.043-1.289-.082-1.926-.121-.053,3.732.2,7.468-.019,11.19.024.936-1.236.965-1.849.642a5.319,5.319,0,0,1-.367-2.578c.063-3,.039-6.005-.024-9.008-.589-.1-1.178-.193-1.757-.285-.019-5.735,0-11.47-.019-17.2q-2.179-.014-4.359-.1c.077-1.931-.376-4.011.2-5.851,2.925-2.858,6.232-5.315,9.249-8.081.854-.7,1.685-1.7,2.911-1.607,4.933-.111,9.867.034,14.805.014q.007-2.418.014-4.832c1.772-.019,3.543-.029,5.315-.044q.029-8.79,0-17.586c2.341,0,4.688,0,7.038,0,.014,5.851,0,11.7.014,17.552q2.534-.007,5.073.048-.044,2.433-.034,4.866c14.443-.193,28.891.082,43.334-.125-.015-11.151.014-22.3-.024-33.448q-60.121.065-120.237.01c.488-4.668-.188-10.185-4.243-13.188m55.287,52.313a2.5,2.5,0,0,0-.753,3.9,2.452,2.452,0,0,0,4.151-1.086,2.487,2.487,0,0,0-3.4-2.809m33.4,0a2.49,2.49,0,0,0-.8,3.92,2.425,2.425,0,1,0,.8-3.92m23.726,3.471c.073,8.375-.058,16.751-.015,25.126,9.027-.029,18.059.01,27.086,0-.174-8.361.034-16.722-.121-25.083-8.984-.087-17.967.1-26.951-.043m-62.774,16.857a2.044,2.044,0,0,0,.357,3.591c1.313.787,2.737-.512,2.761-1.854a2.006,2.006,0,0,0-3.118-1.738m55.861,17.243c-.121,3.36-.116,6.729-.116,10.094.145,9.379-.1,18.764.01,28.148,12.9-.034,25.8.039,38.7,0,.179-12.734-.27-25.469-.029-38.2-12.85-.058-25.71-.034-38.565-.039m-11.267,25.917a58.493,58.493,0,0,0-4.436,4.243c4.344-.019,8.689.072,13.034-.019-.125-4.011.077-8.033-.164-12.044-2.945,2.462-5.614,5.223-8.434,7.82" transform="translate(-2281.693 -842.288)" fill="#7a83c7"/>
        <path id="Trazado_1047246" data-name="Trazado 1047246" d="M339.08,952.65c.463-.01.917-.063,1.381-.106.019.145.063.43.087.574-.415.623-.825,1.245-1.221,1.878a3.419,3.419,0,0,0,2.636-1.549c-.116-.222-.348-.671-.463-.893,18.5.072,37-.125,55.5.111.2.9.936,2.052-.029,2.756-3.794,2.969-4.523,8.221-3.978,12.72q-31.94.036-63.889-.019c-.048,3.4-.019,6.792-.01,10.19,12.44.063,24.88.019,37.32.024a28.78,28.78,0,0,1,5.078.154c.656.478.594,1.361.647,2.085.01,2.414-.068,4.827-.01,7.241.072,1.974-.613,3.876-.584,5.846.14,9.968.029,19.937.063,29.9a11.2,11.2,0,0,1-.338,3.891,1.4,1.4,0,0,1-1.723-.208c-.449-1.665-.145-3.418-.183-5.122.019-10.354-.068-20.709.014-31.063-2.549-.029-5.1-.058-7.642.019,0,5.841.043,11.682.039,17.523a48.432,48.432,0,0,1-.121,6.208,1.133,1.133,0,0,1-2.047-.879c-.159-7.646.111-15.3-.154-22.944-27.134.159-54.273-.024-81.407.048.2,8.168-.087,16.34.077,24.508,10.263.125,20.54-.1,30.793.082,2.274,1.815,4.079,4.161,6.242,6.116.854.956,2.278,1.786,2.148,3.254-.01,6.531.024,13.067-.01,19.6,3.949-.121,7.9-.01,11.841-.106q-.007,3.157-.063,6.324c3.128,3.027,6.184,6.13,9.263,9.21a36.592,36.592,0,0,0-8.95,10.523c-3.678-3.809-7.391-7.6-11.185-11.291-1.815-.714-3.915-.111-5.841-.285-1.463.159-3.292-.5-4.446.676-6.285,6.1-12.285,12.5-18.561,18.614-.859.676-.652,1.805-.661,2.761.261,7.767-.1,15.534-.039,23.306-5.46-.1-10.924-.266-16.384-.077-.1-7.912-.034-15.824-.053-23.735a28.221,28.221,0,0,1,.145-4.74,32.649,32.649,0,0,1,3.693-4.06c6.845-6.874,13.6-13.83,20.535-20.608q.014-3.273.019-6.546c3.944-.039,7.888-.029,11.832-.039-.087-5.517-.072-11.04-.01-16.557a26.409,26.409,0,0,0-3.384-3.273c-11.7-.077-23.412.063-35.118-.063-.232,2.259,1.023,5.416-1.159,6.966-2.539.492-5.155.145-7.724.222-.034,24.16.029,48.321-.058,72.481-5.687-.121-11.378.053-17.064-.024q-.043-46.385-.043-92.78c-.217-8.872-.043-17.75-.15-26.627q.014-3.273-.01-6.541c.994.015,1.994.024,2.988.029,22.273-.053,44.546.029,66.814-.058.082-7.429-.058-14.863.01-22.292a3.385,3.385,0,0,1,2.346-3.215,19.9,19.9,0,0,1,4.219-.236c6.329.063,12.657-.082,18.981.092M261,991.013c.029,6.121.077,12.242.01,18.363,2.592.227,5.262-.261,7.811.294,2.047,1.226.98,4,1.163,5.947,1.965.01,3.929.01,5.889-.1.053-8.182-.121-16.369,0-24.551-4.958.1-9.92.039-14.878.043" transform="translate(-217.577 -850.363)" fill="#7a82c7"/>
        <path id="Trazado_1047247" data-name="Trazado 1047247" d="M1758.524,949.557c6.42.57,12.85-.792,19.27-.063a5.48,5.48,0,0,1,4.243,3.268c1.212,2.549.743,5.527-.208,8.086a15.313,15.313,0,0,1-9.413,9.5c-3.509,1.062-7.28.642-10.789-.217a15.053,15.053,0,0,1-10.451-11.7c.043-.159.14-.483.183-.642.579-2.081.951-4.209,1.564-6.28,1.014-1.989,3.664-1.96,5.6-1.955m10.741,5.064a3.353,3.353,0,0,0-.541,5.629,3.359,3.359,0,1,0,.541-5.629" transform="translate(-1563.324 -847.444)" fill="#f7dfd0"/>
        <path id="Trazado_1047248" data-name="Trazado 1047248" d="M2189.89,949.454c6.02-.811,12.088.483,18.126.019,2.206-.135,4.711-.227,6.5,1.3,2.061,1.67,2.047,4.624,2.114,7.043a15.082,15.082,0,0,1-5.426,9.519c-3.548,2.959-8.39,3.76-12.879,3.548a13.6,13.6,0,0,1-10.162-5.827c-2.245-3.089-3.871-7.019-3.07-10.89a6.115,6.115,0,0,1,4.793-4.716m5.682,5.122a3.321,3.321,0,0,0-.227,5.759,3.394,3.394,0,0,0,5.064-2.529,3.318,3.318,0,0,0-4.837-3.229" transform="translate(-1950.511 -847.36)" fill="#f6ded0"/>
        <path id="Trazado_1047249" data-name="Trazado 1047249" d="M1745.784,971.5a1.891,1.891,0,0,1,1.859-1.361c-.613,2.071-.985,4.2-1.564,6.28-1.4-1.294-.656-3.34-.294-4.919" transform="translate(-1558.042 -866.07)" fill="#1b1415"/>
        <path id="Trazado_1047250" data-name="Trazado 1047250" d="M1637.853,973.28a4.7,4.7,0,0,1,3.616-.468c1.139.787,2.457,1.854,2.269,3.413a17.857,17.857,0,0,0,5.8,13.323c2.954,2.7,6.942,3.929,10.857,4.325,3.239.309,6.671.285,9.655-1.178a18.761,18.761,0,0,0,10.046-13.97,16.783,16.783,0,0,1,10.374-.193,23.028,23.028,0,0,0,3.775,8.81,15.571,15.571,0,0,0,12.03,6.681c3.867.092,7.888-.3,11.378-2.09a17.228,17.228,0,0,0,9.036-12.179,24.979,24.979,0,0,0,.246-4.61c1.231-1.926,3.413-3.191,5.706-2.307,4.055,3,4.731,8.52,4.243,13.188-1.26,5.764-3.954,11.8-9.211,14.945-1.308.869-2.911.98-4.369,1.438a61.315,61.315,0,0,1-6.425,14.882,60.1,60.1,0,0,1-6.063,7.893c-1.284,1.192-1.323,3.046-1.4,4.673a54.587,54.587,0,0,0,.348,9.273c.42,2.848.169,5.793,1.038,8.573.328,1.27.951,2.713.073,3.91-7.057,5.073-14.057,10.229-21.211,15.167a29.557,29.557,0,0,0-4.533,3.466c-.048-.048-.14-.14-.188-.184-8.771-6.657-18.073-12.6-26.782-19.348,2.278-5.677,1.955-11.952,2.22-17.953a34.075,34.075,0,0,0-.15-7.014,55.143,55.143,0,0,1-10.306-15.824c-1.25-2.288-1.747-4.871-2.781-7.251a15.891,15.891,0,0,1-7.381-4.3,32.684,32.684,0,0,1-3.017-4.156c-1.6-2.467-2.187-5.4-2.863-8.216-.545-4.5.183-9.751,3.978-12.72m.7,8.424c1.033,1.245,2.409,2.254,3.027,3.8,1.052,2.539.99,5.344,1.472,8.018l1.8-.029a18.933,18.933,0,0,0-1.381-7.994c-.917-2.109-2.134-4.359-4.364-5.3-.251.463-1,.912-.555,1.5m91.433-.565c-3.118,3.215-4.272,7.893-4.229,12.266.362.121,1.086.372,1.443.5,1.241-2.848.743-6.169,2.23-8.926.821-1.511,2.9-2.307,2.872-4.214-.8-.15-1.743-.386-2.317.377m-42.9.116c-.125,5.064,1.2,10.1.714,15.172a2.137,2.137,0,0,1-2.25,1.815c-1.477-.068-2.3-1.448-3.418-2.206-.753-.425-1.274.483-1.747.883a5.479,5.479,0,0,0,8.057,2.5c2.085-1.747,1.752-4.745,1.6-7.173-.463-3.7-.362-7.453-1.105-11.117-.623.043-1.241.082-1.854.125m-14.573,30.769a2.387,2.387,0,0,0,1.086,2.25,20.291,20.291,0,0,0,23.407-.488,1.152,1.152,0,0,0-.734-2.119c-2.138,1.313-4.243,2.776-6.71,3.413-4.943,1.159-10.528.56-14.6-2.665a2.052,2.052,0,0,0-2.447-.391m-11.552,14.641c0,1.472-.323,3.147.724,4.374,2.587,3.606,5.358,7.188,8.959,9.843,3.331,2.684,7.217,4.895,11.527,5.4a22.392,22.392,0,0,0,13.647-2.785,34.749,34.749,0,0,0,10.108-9.167c1.612-2.167,4.147-4.736,3.031-7.656-2.592,2.3-5.184,4.687-8.317,6.232a32.455,32.455,0,0,1-26.531,2.129,38.275,38.275,0,0,1-13.149-8.366" transform="translate(-1458.462 -868.221)" fill="#f5ba9a"/>
        <path id="Trazado_1047251" data-name="Trazado 1047251" d="M1904.545,996.04a3.359,3.359,0,1,1-.541,5.629,3.353,3.353,0,0,1,.541-5.629" transform="translate(-1698.604 -888.863)" fill="#323844"/>
        <path id="Trazado_1047252" data-name="Trazado 1047252" d="M2269.615,996.15a3.318,3.318,0,0,1,4.837,3.229,3.394,3.394,0,0,1-5.064,2.529,3.321,3.321,0,0,1,.227-5.759" transform="translate(-2024.554 -888.934)" fill="#343c48"/>
        <path id="Trazado_1047253" data-name="Trazado 1047253" d="M1677.608,1045.4c-.449-.589.3-1.038.555-1.5,2.23.941,3.447,3.191,4.364,5.3a18.933,18.933,0,0,1,1.38,7.994l-1.8.029c-.483-2.674-.42-5.479-1.472-8.018-.618-1.55-1.994-2.558-3.027-3.8" transform="translate(-1497.522 -931.913)" fill="#df7b53"/>
        <path id="Trazado_1047254" data-name="Trazado 1047254" d="M2495.916,1048.193c.574-.763,1.516-.526,2.317-.377.029,1.907-2.052,2.7-2.872,4.214-1.487,2.756-.99,6.078-2.23,8.926-.357-.125-1.082-.377-1.443-.5-.043-4.374,1.11-9.051,4.229-12.266" transform="translate(-2224.397 -935.275)" fill="#dc7c51"/>
        <path id="Trazado_1047255" data-name="Trazado 1047255" d="M2075.4,1052.66c.613-.043,1.231-.082,1.854-.125.743,3.664.642,7.419,1.105,11.117.15,2.428.483,5.426-1.6,7.173a5.479,5.479,0,0,1-8.057-2.5c.473-.4.994-1.308,1.747-.883,1.115.758,1.941,2.139,3.418,2.206a2.136,2.136,0,0,0,2.249-1.815c.488-5.073-.84-10.108-.714-15.172" transform="translate(-1846.783 -939.626)" fill="#dc825d"/>
        <path id="Trazado_1047260" data-name="Trazado 1047260" d="M1995.3,1337.418a2.052,2.052,0,0,1,2.447.391c4.074,3.225,9.659,3.823,14.6,2.665,2.467-.637,4.571-2.1,6.71-3.413a1.152,1.152,0,0,1,.734,2.119,20.291,20.291,0,0,1-23.407.488,2.387,2.387,0,0,1-1.086-2.25" transform="translate(-1781.261 -1193.616)" fill="#dc825b"/>
        <path id="Trazado_1047261" data-name="Trazado 1047261" d="M3059.623,1460.951a2.487,2.487,0,0,1,3.4,2.81,2.452,2.452,0,0,1-4.152,1.086,2.5,2.5,0,0,1,.753-3.9" transform="translate(-2730.162 -1304.024)" fill="#d2ddef"/>
        <path id="Trazado_1047262" data-name="Trazado 1047262" d="M3370.626,1461.027a2.425,2.425,0,1,1-.8,3.92,2.49,2.49,0,0,1,.8-3.92" transform="translate(-3007.766 -1304.095)" fill="#d7dcee"/>
        <path id="Trazado_1047263" data-name="Trazado 1047263" d="M1887.225,1477.019a38.275,38.275,0,0,0,13.15,8.366,32.455,32.455,0,0,0,26.531-2.129c3.133-1.545,5.725-3.934,8.317-6.232,1.115,2.921-1.419,5.489-3.031,7.656a34.749,34.749,0,0,1-10.108,9.167,22.391,22.391,0,0,1-13.647,2.785c-4.311-.5-8.2-2.713-11.527-5.4-3.6-2.655-6.372-6.237-8.959-9.843-1.047-1.226-.724-2.9-.724-4.374" transform="translate(-1684.735 -1318.576)" fill="#e1845f"/>
        <path id="Trazado_1047264" data-name="Trazado 1047264" d="M3603.586,1495.289c8.983.14,17.967-.043,26.95.043.155,8.361-.053,16.722.121,25.083-9.027.01-18.059-.029-27.086,0-.043-8.375.087-16.751.015-25.126m5.194,7.154a1.127,1.127,0,0,0,.937,1.989c4.895-.015,9.8.077,14.689,0,1.183.087,1.352-1.96.2-2.076-3.36-.3-6.739.029-10.1.029-1.907.053-3.823-.159-5.72.058m2.375,7.482c2.858.183,5.73-.082,8.6.116,1.385-.053,3.2.483,4.113-.907-.251-.473-.492-.941-.724-1.41-3.847.01-7.695,0-11.532.121a1.131,1.131,0,0,0-.454,2.081" transform="translate(-3216.999 -1334.886)" fill="#dadef0"/>
        <path id="Trazado_1047265" data-name="Trazado 1047265" d="M3648.461,1560.19c1.9-.217,3.813,0,5.72-.058,3.365,0,6.744-.333,10.1-.029,1.154.116.985,2.163-.2,2.076-4.89.077-9.795-.014-14.689,0a1.127,1.127,0,0,1-.937-1.989" transform="translate(-3256.681 -1392.633)" fill="#797fc4"/>
        <path id="Trazado_1047266" data-name="Trazado 1047266" d="M3669.915,1613.41a1.131,1.131,0,0,1,.454-2.081c3.838-.121,7.685-.111,11.532-.121.232.468.473.936.724,1.41-.912,1.39-2.727.854-4.113.907-2.868-.2-5.74.068-8.6-.116" transform="translate(-3275.759 -1438.371)" fill="#7983c5"/>
        <path id="Trazado_1047268" data-name="Trazado 1047268" d="M3010.97,1649.49a2.005,2.005,0,0,1,3.118,1.738c-.024,1.342-1.448,2.641-2.761,1.854a2.044,2.044,0,0,1-.357-3.591" transform="translate(-2687.157 -1472.23)" fill="#d9dfee"/>
        <path id="Trazado_1047269" data-name="Trazado 1047269" d="M1667.027,1707.987c6.951-2.264,13.878-4.615,20.864-6.778,8.708,6.744,18.01,12.691,26.781,19.348-3.524,4.542-7.144,9.008-10.649,13.565l1.646.56c-.724,0-1.458.019-2.172.034a35.9,35.9,0,0,0-14.554.55c-7.313-9.085-14.573-18.218-21.916-27.279" transform="translate(-1488.201 -1518.716)" fill="#fff"/>
        <path id="Trazado_1047270" data-name="Trazado 1047270" d="M2138.676,1703.663c1.588-1.438,3.6-.343,5.305.232,5.5,1.921,11.079,3.591,16.529,5.657-2.076,1.888-3.49,4.354-5.416,6.377q-11.73,14.46-23.354,28.993c-.405.029-.811.063-1.212.1-5.725-7.685-11.5-15.336-17.6-22.727a29.559,29.559,0,0,1,4.533-3.466c7.154-4.938,14.153-10.094,21.211-15.167" transform="translate(-1886.272 -1520.273)" fill="#fff"/>
        <path id="Trazado_1047271" data-name="Trazado 1047271" d="M2549.776,1750.529c6.406,2.027,12.725,4.316,19.111,6.411-.01.454-.015.908-.019,1.366-.217,9.635-.155,19.275-.439,28.91a50.648,50.648,0,0,0-.295-8.12c-.724,9.264-.323,18.571-.647,27.849a10.653,10.653,0,0,0,.444,3.109c-3.133,1.849-4.735,5.349-5.228,8.839-4.875-.029-9.746.015-14.622-.048l.019-.1c1.182-3.094.449-6.444.907-9.65.835-2.906.608-5.947.647-8.93a51.615,51.615,0,0,0-.517-9.384c-.1-6.324,1-12.667.246-18.976.077-6.792.126-13.594.309-20.381.019-.222.063-.671.082-.9" transform="translate(-2274.743 -1562.746)" fill="#4d58b0"/>
        <path id="Trazado_1047272" data-name="Trazado 1047272" d="M1369.178,1757.124c6.217-2.1,12.343-4.489,18.662-6.28a10.769,10.769,0,0,1,.459,3.283c-.183,4.5.227,9.008-.174,13.5.232-1.154.449-2.312.574-3.48a25.407,25.407,0,0,0,.434,5.02c-.077,3.485.077,6.975.1,10.466-.208,5.981.092,11.962.1,17.943a11.424,11.424,0,0,1-1.149,4.123,34.137,34.137,0,0,0,2.312,27c-.125.782-.251,1.564-.372,2.356q.977.094,1.969.2a34.019,34.019,0,0,0,18.179,13.821c-.565,1.883-.97,3.809-1.39,5.73-2.534-.43-4.147,1.805-4.615,4-4.262.439-8.626.488-12.744,1.805-3.176,1.125-5.518,3.688-7.931,5.923q-1.557-.043-3.114-.063a10.181,10.181,0,0,1-.661,4.079c-3.925,4.465-7.42,9.292-11.363,13.734-1.033.068-1.719-.772-2.448-1.356-.941.1-1.873.217-2.8.362.4.039,1.2.111,1.6.15a40.113,40.113,0,0,0-8.187,3.591c.275-3.64.661-7.284.594-10.939.169-2.515.092-5.04.256-7.555.391-4.137.106-8.312.686-12.435.111-7.019.656-14.014.681-21.032,3.949.058,7.9.024,11.851.024.121-.01.352-.019.468-.024-.01-4.383.372-8.814-.42-13.149a67.2,67.2,0,0,0-.5-7.564c-.053-7.173-.27-14.347-.328-21.52.024-2.1-.391-4.171-.444-6.266-.077-8.018-.116-16.036-.251-24.049-.014-.468-.024-.937-.029-1.4" transform="translate(-1211.089 -1563.027)" fill="#4e59b2"/>
        <path id="Trazado_1047273" data-name="Trazado 1047273" d="M1647.677,1749.88l.4-.116c.082.632.159,1.265.232,1.907.14,3.833.164,7.675.232,11.513-.126,1.168-.343,2.327-.574,3.48.4-4.494-.01-9,.174-13.5a10.768,10.768,0,0,0-.459-3.283" transform="translate(-1470.927 -1562.063)" fill="#262c53"/>
        <path id="Trazado_1047274" data-name="Trazado 1047274" d="M2066.575,1759.705c.019-.2.063-.6.082-.806-.183,6.787-.232,13.589-.309,20.381l-.092-.574c-.488-3.394-.159-6.831-.41-10.234-.724,11.431-.338,22.891-.666,34.336a70.763,70.763,0,0,1-.357,9.157c-.565,4.6-.256,9.235-.41,13.854-1.057.169-2.1.343-3.152.521-.155.246-.454.748-.6,1a14.281,14.281,0,0,0-.941,1.786c-8.776.053-17.552-.024-26.328.043a35.682,35.682,0,0,0-.343-20.381,33.557,33.557,0,0,0-19.449-20.69,29.461,29.461,0,0,0-3.031-1.028c-1.188-.3-2.37-.594-3.563-.854.714-.014,1.448-.029,2.172-.034l-1.646-.56c3.5-4.557,7.125-9.022,10.649-13.565.048.044.14.135.188.184,6.092,7.391,11.87,15.042,17.6,22.727.4-.039.806-.072,1.212-.1q11.629-14.533,23.354-28.992c1.926-2.023,3.34-4.489,5.416-6.377Z" transform="translate(-1791.706 -1570.218)" fill="#f3ae29"/>
        <path id="Trazado_1047275" data-name="Trazado 1047275" d="M1653.527,1764.727c.478-.111.961-.222,1.448-.338,7.342,9.061,14.6,18.194,21.916,27.279a34.017,34.017,0,0,0-20.154,14.82,5.764,5.764,0,0,1-1.685-4.552c-.125-5.633-.13-11.272-.092-16.91a9.189,9.189,0,0,0-.767-3.765,25.407,25.407,0,0,1-.434-5.02c-.068-3.838-.092-7.68-.232-11.513" transform="translate(-1476.149 -1575.119)" fill="#f4ae2a"/>
        <path id="Trazado_1047276" data-name="Trazado 1047276" d="M3005.327,1766.594l.937,2.134c.454-.251.9-.512,1.376-.738-.039,3.509.039,7.024,0,10.538-.748,0-1.491.01-2.23.024-.053-3.987-.063-7.975-.087-11.957" transform="translate(-2682.938 -1577.087)" fill="#6c73be"/>
        <path id="Trazado_1047277" data-name="Trazado 1047277" d="M3538.226,1813.161c12.855,0,25.715-.019,38.565.039-.241,12.734.208,25.469.029,38.2-12.9.039-25.8-.034-38.7,0-.106-9.384.135-18.768-.01-28.148,0-3.365,0-6.734.116-10.094m23.33,3.6a2.336,2.336,0,0,0-.762,4.137,2.3,2.3,0,0,0,3.543-1.067c.84-1.67-1.1-3.62-2.781-3.07m-18.5.227a2.471,2.471,0,0,0-.767,3.6,2.353,2.353,0,1,0,.767-3.6m8.8.193a2.3,2.3,0,0,0,.077,3.9c1.588,1.25,4.118-.685,3.476-2.549a2.286,2.286,0,0,0-3.553-1.352m17.851.063a2.267,2.267,0,0,0,.178,3.722c1.545,1.265,4.069-.729,3.423-2.53a2.269,2.269,0,0,0-3.6-1.192m-26.038,8.689a2.32,2.32,0,0,0-1.748,3.08,2.39,2.39,0,0,0,4,.6c1.506-1.453-.26-4.359-2.254-3.678m8.675,0a2.335,2.335,0,0,0-1.439,3.007c.637,2.109,4.258,1.834,4.542-.357a2.322,2.322,0,0,0-3.1-2.65m18.334-.039a2.339,2.339,0,0,0-1.54,3.49,2.4,2.4,0,0,0,3.968-.077c1.168-1.53-.594-4.031-2.428-3.413m-9.79.246a2.3,2.3,0,0,0-.285,3.645c1.443,1.54,4.49-.135,3.8-2.187a2.424,2.424,0,0,0-3.519-1.458m-17.692,8.979a2.3,2.3,0,0,0-.787,3.7c1.265,1.472,4.209.488,4.1-1.545.184-1.7-1.873-2.834-3.316-2.153m9.568-.164c-1.5.348-2.568,2.3-1.453,3.587a2.293,2.293,0,0,0,4.094-.854,2.265,2.265,0,0,0-2.64-2.732m8.694.053a2.322,2.322,0,1,0,3.075,2.24,2.317,2.317,0,0,0-3.075-2.24m9.133-.053a2.334,2.334,0,1,0,2.809,2.785,2.347,2.347,0,0,0-2.809-2.785m-27.53,9.167a2.307,2.307,0,1,0,3.345,2.332,2.285,2.285,0,0,0-3.345-2.332m9.206-.048c-1.8.656-1.733,3.466-.039,4.2,1.651.956,3.765-.965,3.167-2.713a2.2,2.2,0,0,0-3.128-1.487m8.713.053a2.361,2.361,0,0,0,.348,4.229c1.863.869,3.929-1.646,2.867-3.345a2.343,2.343,0,0,0-3.215-.883m9.1-.039a2.342,2.342,0,0,0,.01,4.171c1.8.99,4.007-1.371,3.07-3.123a2.289,2.289,0,0,0-3.08-1.048" transform="translate(-3158.552 -1618.658)" fill="#d9ddf0"/>
        <path id="Trazado_1047278" data-name="Trazado 1047278" d="M611.571,1828.034c5.981-1.844,11.88-3.987,17.933-5.595.135,8.013.174,16.031.251,24.049.053,2.1.468,4.166.444,6.266.058,7.173.275,14.347.328,21.52-.367,5.32.043,10.649.019,15.974a31.869,31.869,0,0,0-.077,4.074c-2.761.092-5.522.068-8.284-.029-1.047.029-2.3-.236-3.056.7-.024,7.019-.57,14.014-.681,21.032-.579,4.122-.294,8.3-.685,12.435-.164,2.515-.087,5.04-.256,7.555-1,2.554-.83,5.329-.937,8.013a8.954,8.954,0,0,0,.343,2.925,40.121,40.121,0,0,1,8.187-3.591c.179,0,.536.01.714.01-.014,1.144-.034,2.283-.029,3.432.15,5.46,1.941,10.731,4.094,15.7a75.622,75.622,0,0,0,11.61,17.586,96.629,96.629,0,0,0,9.22,10.2c-.15.2-.444.613-.594.816q-1.311.956-2.607,1.931c-5.706,4.219-11.634,8.134-17.277,12.44-.039.024-.116.082-.154.111-6.5,4.287-12.8,8.906-19.28,13.236-6.073,4.18-12.285,8.168-18.652,11.89-7.019,4.026-14.105,8.071-21.819,10.62-5.218,1.743-10.832,1.762-16.249,1.236a32.057,32.057,0,0,1-17.195-9.9,30.48,30.48,0,0,1-8.766-20.125c-.483-5.783,1.149-11.426,2.235-17.045,6.256-25.7,14.366-50.908,22.944-75.918.671-2.254,1.554-4.441,2.332-6.661.024-.053.072-.164.1-.217.039-.106.121-.314.159-.415.994-2.7,1.994-5.406,3.027-8.09,1.328-2.911,2.2-5.991,3.36-8.969.84-2.443,1.989-4.76,2.9-7.178.685-1.675,1.323-3.369,1.97-5.054.116-.314.237-.627.362-.932,1.076-2.534,2.221-5.044,3.157-7.632.154-.111.459-.333.608-.444a16.55,16.55,0,0,1,1.468-4.224c3.345-7.608,6.739-15.2,10.466-22.63a36.593,36.593,0,0,1,8.95-10.523,45.877,45.877,0,0,1,8.887-5.305c3.389-1.458,7.024-2.187,10.538-3.268m-1.41,61.4c.343,7.555.676,15.133.4,22.7-.338,10.306-1.1,20.776-4.639,30.557-1.414,3.925-3.287,8.274-7.381,10.036-14.158,6.57-28.384,13-42.485,19.71-.888.261-.941,1.173-.985,1.95a2.761,2.761,0,0,0,2.288-.077c18.392-8.815,37.006-17.156,55.576-25.575.362-20.033.7-40.1-.6-60.114-.739.039-2.235-.386-2.172.811m-2.79,65.221c-.367,2.766.348,5.5.893,8.192,3.186,14.472,12,27.327,23.514,36.5.338-.164,1.014-.488,1.352-.652-.029-.188-.082-.565-.106-.753-7.608-6.372-14.342-14.014-18.561-23.065a52.887,52.887,0,0,1-5.329-18.778c.039-.985-.661-2.22-1.762-1.443m27.82,32.864c-1.2,1.2-.777,3.031-.039,4.354,1.525.879,3.973,1.328,5-.5,1.323-1.482.217-3.4-.835-4.663-1.381,0-3.22-.589-4.127.806" transform="translate(-471.387 -1626.942)" fill="#f3ae2a"/>
        <path id="Trazado_1047279" data-name="Trazado 1047279" d="M2734.059,1823.024a27,27,0,0,1,4,1.463c-1.163-.2-2.322-.376-3.476-.589-.28,16.538-.145,33.086-.9,49.615l.56.56c-.381.222-.753.454-1.12.7.352-7.608.241-15.23.5-22.838.285-9.635.222-19.275.439-28.91" transform="translate(-2439.934 -1627.464)" fill="#d7a55c"/>
        <path id="Trazado_1047280" data-name="Trazado 1047280" d="M2739.245,1831.169c1.154.213,2.312.391,3.475.589,5.112,1.608,10.118,3.524,15.259,5.059,7.381,2.245,14.564,6.005,19.6,11.972,2.689,3.128,4.176,7.024,5.971,10.678,4.591,9.418,8.1,19.3,11.682,29.132,1.082,2.79,1.873,5.687,3.09,8.424,1.82,4.668,3.312,9.461,4.789,14.245.642,2.032,1.3,4.065,1.936,6.1.328,1.072.671,2.143.994,3.22.647,2.331,1.39,4.634,2.143,6.937,3.949,12.971,7.386,26.086,11.011,39.149,2.621,11.281,5.778,22.461,7.622,33.911a93.615,93.615,0,0,1,1.086,17.818c.048,6.251-2.52,12.261-6.135,17.262a33.788,33.788,0,0,1-9.857,9.191,35.942,35.942,0,0,1-31.927,2.877c-9.833-3.934-17.827-11.112-25.483-18.223a63.1,63.1,0,0,1-.121-6.753c.719-.121,1.438-.237,2.158-.353,1.825-.323,3.775-.2,5.479-1.023a8.861,8.861,0,0,0,4.639-6.749c2.206-.738,4.784-1.115,6.285-3.089,2.138-2.2,2.11-5.431,2.279-8.288a18.711,18.711,0,0,0,4-3.2,9.379,9.379,0,0,0,1.067-8.187c-.671-1.521,1.052-2.447,1.7-3.6,1.588-1.907.942-4.47.6-6.671a9.168,9.168,0,0,0-.772-4.311c-.893-2.052-2.978-3.215-3.968-5.2,12.971,1.188,26.193,5.74,35.471,15.2a35.862,35.862,0,0,1,6.937,9.939,34.063,34.063,0,0,0,2.047,4.451c.637-.043,1.274-.1,1.917-.183-1.226-5.749-4.673-10.794-8.588-15.066-8.588-9.235-20.9-14.018-33.115-16.07a30.617,30.617,0,0,0-5.971-.55,19.867,19.867,0,0,1-1.453-3.22c2.052-7.468,4.34-14.868,6.357-22.345.237-.169.71-.5.951-.671.034-.888,0-1.776.015-2.66,3.978-13.878,7.921-27.761,11.942-41.63.227-1.076.676-2.245.2-3.307a3.527,3.527,0,0,0-3.2-2.3c-6.908-.1-13.816.01-20.723-.034a11.18,11.18,0,0,0-1.468-2.167,4.622,4.622,0,0,0-2.916-.686c-4.745,0-9.49.121-14.231-.053,1.622-4.591-1.815-9.9-6.536-10.62-2.255-.241-4.678-.14-6.584,1.236l-.56-.56c.758-16.528.623-33.076.9-49.615m44.976,148.714c-.111,4.489.937,8.974.27,13.439a40.384,40.384,0,0,1-6.748,21.032,28.408,28.408,0,0,1-16.051,11.272c0,.584-.01,1.168,0,1.762,2.718-.019,5.059-1.574,7.429-2.7,6.493-3.466,11.311-9.582,14.052-16.335a51.415,51.415,0,0,0,3.3-14.94c.724-4.446-.275-8.9-.347-13.347-.637-.068-1.274-.125-1.907-.179" transform="translate(-2444.593 -1634.735)" fill="#f4ae2a"/>
        <path id="Trazado_1047281" data-name="Trazado 1047281" d="M3742.416,1845.9c1.68-.55,3.62,1.4,2.781,3.07a2.3,2.3,0,0,1-3.543,1.067,2.336,2.336,0,0,1,.763-4.137" transform="translate(-3339.412 -1647.805)" fill="#7c80c6"/>
        <path id="Trazado_1047282" data-name="Trazado 1047282" d="M2511.7,1882.47c.328-11.445-.058-22.905.666-34.336.251,3.4-.077,6.84.41,10.234-.637,13.652-.579,27.327-1.139,40.984-.111,2.172-.116,4.354-.053,6.531l-.02.1a8.58,8.58,0,0,0-4.388,1.023c.149-.251.449-.753.6-1,1.048-.179,2.1-.352,3.152-.521.154-4.62-.155-9.259.41-13.854a70.721,70.721,0,0,0,.357-9.157" transform="translate(-2238.226 -1649.88)" fill="#d9a757"/>
        <path id="Trazado_1047283" data-name="Trazado 1047283" d="M3573.867,1846.762a2.352,2.352,0,1,1-.768,3.6,2.472,2.472,0,0,1,.768-3.6" transform="translate(-3189.366 -1648.437)" fill="#7d83c5"/>
        <path id="Trazado_1047284" data-name="Trazado 1047284" d="M3657.72,1846.825a2.286,2.286,0,0,1,3.553,1.352c.642,1.863-1.887,3.8-3.476,2.549a2.3,2.3,0,0,1-.077-3.9" transform="translate(-3264.413 -1648.306)" fill="#787ec5"/>
        <path id="Trazado_1047285" data-name="Trazado 1047285" d="M3825.456,1847.08a2.269,2.269,0,0,1,3.6,1.192c.647,1.8-1.878,3.794-3.423,2.53a2.267,2.267,0,0,1-.178-3.722" transform="translate(-3414.298 -1648.498)" fill="#8084c5"/>
        <path id="Trazado_1047286" data-name="Trazado 1047286" d="M1659.558,1921.664a9.191,9.191,0,0,1,.767,3.765c-.039,5.638-.034,11.277.092,16.91a5.765,5.765,0,0,0,1.685,4.552,33,33,0,0,0-2.008,3.76c-.063-6.179-.439-12.343-.439-18.522-.019-3.49-.174-6.98-.1-10.465" transform="translate(-1481.514 -1715.523)" fill="#f9bc3a"/>
        <path id="Trazado_1047287" data-name="Trazado 1047287" d="M3574.176,1931.348c1.994-.681,3.76,2.225,2.254,3.678a2.39,2.39,0,0,1-4-.6,2.32,2.32,0,0,1,1.748-3.08" transform="translate(-3189.056 -1724.077)" fill="#7e85c5"/>
        <path id="Trazado_1047288" data-name="Trazado 1047288" d="M3657.693,1930.616a2.322,2.322,0,0,1,3.1,2.65c-.285,2.192-3.905,2.467-4.542.357a2.335,2.335,0,0,1,1.438-3.007" transform="translate(-3263.9 -1723.341)" fill="#767ac4"/>
        <path id="Trazado_1047289" data-name="Trazado 1047289" d="M3826.042,1931.078c1.834-.618,3.6,1.883,2.428,3.413a2.4,2.4,0,0,1-3.968.077,2.339,2.339,0,0,1,1.54-3.49" transform="translate(-3413.915 -1723.841)" fill="#757ac2"/>
        <path id="Trazado_1047290" data-name="Trazado 1047290" d="M3741.791,1931.768a2.424,2.424,0,0,1,3.519,1.458c.686,2.052-2.361,3.727-3.8,2.187a2.3,2.3,0,0,1,.285-3.645" transform="translate(-3339.453 -1724.284)" fill="#8083c6"/>
        <path id="Trazado_1047292" data-name="Trazado 1047292" d="M2549.117,1943.534l.092.574c.753,6.309-.348,12.652-.246,18.976.005,6.1-.188,12.208-.13,18.315-.458,3.205.275,6.555-.907,9.65-.063-2.177-.058-4.359.053-6.531.56-13.656.5-27.332,1.139-40.983" transform="translate(-2274.567 -1735.047)" fill="#6b637b"/>
        <path id="Trazado_1047294" data-name="Trazado 1047294" d="M1659.792,2010.032a35.9,35.9,0,0,1,14.554-.55c1.192.261,2.375.555,3.563.854-.063.27-.193.816-.261,1.091,1.1-.034,2.192-.082,3.292-.063a33.558,33.558,0,0,1,19.449,20.69,35.68,35.68,0,0,1,.343,20.381l-.116.613c8.728-.082,17.455-.019,26.183-.019-.739,2.872-1.414,5.759-2.182,8.621-6.864-.038-13.729.063-20.593-.029-5.6,20.236-11.489,40.39-17.229,60.587-5.016,17.475-9.954,34.969-14.95,52.453q42.873-.007,85.747,0c4.383,2.336,8.646,4.972,13.405,6.493q-1.079.174-2.158.353c-6.975.348-13.975.092-20.965.169q-41.99-.022-83.98,0c-2.143.212-3.394-1.878-3.563-3.746q-9.08-.065-18.165.029a16.984,16.984,0,0,1-3.5-.231,4.3,4.3,0,0,1-3.046-3.93c-.318-4.735.3-9.509-.444-14.221q1.3-.977,2.607-1.931l.637-.149c-.628,2.809-.266,5.706-.362,8.559a77.6,77.6,0,0,0,.1,8c.343,1.309,1.921,1.4,3.036,1.342,6.459-.145,12.918.087,19.372-.072.956.086.932-1.1,1.192-1.719,1.443-6.479,3.727-12.729,5.421-19.14,1.69-6.71,4.04-13.227,5.691-19.946,1.038-4.233,2.607-8.312,3.6-12.556-1.752-.043-3.5-.067-5.257-.058-.353-.743-.729-1.468-1.115-2.182-.1-.2-.309-.613-.415-.816,2.549.183,5.1.246,7.656.232,1.477-4.707,2.67-9.5,4.079-14.217.825-2.993,1.868-5.918,2.578-8.94-2.24-.029-4.475-.044-6.715-.063a17.2,17.2,0,0,0-.743-2.505c2.723.029,5.445.111,8.168-.02,2.365-8.955,5.151-17.784,7.695-26.685-6.816,7.246-17.064,10.861-26.931,10.229-.686-.053-1.371-.125-2.052-.212-1.072-.154-2.134-.328-3.181-.579-.676-.193-1.342-.4-2-.613a34.018,34.018,0,0,1-18.18-13.82c-.555-.84-1.091-1.694-1.6-2.559a34.136,34.136,0,0,1-2.312-27,11.425,11.425,0,0,0,1.149-4.122c-.01-5.981-.309-11.962-.1-17.943,0,6.179.377,12.343.439,18.522a33.021,33.021,0,0,1,2.008-3.76,34.016,34.016,0,0,1,20.154-14.82m-8.163,11.426a26.915,26.915,0,0,0-10.388,24.411,27.735,27.735,0,0,0,7.193,15.679,26.666,26.666,0,0,0,22.683,8.554,27.321,27.321,0,0,0,16.924-8.53,28.638,28.638,0,0,0,7.371-18.136,27.09,27.09,0,0,0-25.889-27.8,36.274,36.274,0,0,0-5.218.256,28.8,28.8,0,0,0-12.677,5.566" transform="translate(-1459.051 -1793.483)" fill="#272c50"/>
        <path id="Trazado_1047295" data-name="Trazado 1047295" d="M3573.867,2016.2c1.443-.681,3.5.449,3.316,2.153.106,2.032-2.838,3.017-4.1,1.545a2.3,2.3,0,0,1,.787-3.7" transform="translate(-3189.221 -1799.739)" fill="#707ac2"/>
        <path id="Trazado_1047296" data-name="Trazado 1047296" d="M3658.943,2015.854a2.265,2.265,0,0,1,2.64,2.732,2.293,2.293,0,0,1-4.094.855c-1.115-1.284-.048-3.239,1.453-3.587" transform="translate(-3264.729 -1799.556)" fill="#7e84c5"/>
        <path id="Trazado_1047297" data-name="Trazado 1047297" d="M3743.317,2015.748a2.317,2.317,0,0,1,3.075,2.24,2.322,2.322,0,1,1-3.075-2.24" transform="translate(-3340.409 -1799.397)" fill="#777dc1"/>
        <path id="Trazado_1047298" data-name="Trazado 1047298" d="M3826.2,2015.687a2.347,2.347,0,0,1,2.809,2.785,2.334,2.334,0,1,1-2.809-2.785" transform="translate(-3414.157 -1799.389)" fill="#7279c3"/>
        <path id="Trazado_1047299" data-name="Trazado 1047299" d="M2729.583,2016.839a50.648,50.648,0,0,1,.295,8.12c-.256,7.608-.145,15.23-.5,22.838a10.646,10.646,0,0,1-.444-3.109c.323-9.278-.077-18.585.647-27.849" transform="translate(-2436.192 -1800.488)" fill="#595987"/>
        <path id="Trazado_1047300" data-name="Trazado 1047300" d="M2037.782,2022.61c.068-.275.2-.821.261-1.091a29.453,29.453,0,0,1,3.031,1.028c-1.1-.019-2.2.029-3.292.063" transform="translate(-1819.184 -1804.666)" fill="#3c3028"/>
        <path id="Trazado_1047301" data-name="Trazado 1047301" d="M1707.163,2076.751a28.8,28.8,0,0,1,12.677-5.566,32.127,32.127,0,0,0,2.032,3.451,18.126,18.126,0,0,0,3.186-3.707,27.09,27.09,0,0,1,25.889,27.8,28.638,28.638,0,0,1-7.371,18.136,46.229,46.229,0,0,1-5.715-.319c3.374-2.553,6.415-5.986,7.424-10.19l-1.728-.174a18.832,18.832,0,0,1-10.789,10.745c-4.6-.256-9.21-.125-13.816-.14-4.991.063-9.988-.145-14.984.053a27.735,27.735,0,0,1-7.193-15.679,26.916,26.916,0,0,1,10.388-24.412m.483,4.417c-3.949,3.731-7.053,8.974-6.913,14.54.512,0,1.023,0,1.54.01.879-4.571,2.476-9.259,6.073-12.421,3.519-3.567,8.568-5.02,13.458-5.257-.053-.6-.106-1.2-.155-1.8-5.156-.584-10.007,1.926-14,4.929" transform="translate(-1514.585 -1848.776)" fill="#c8c6a0"/>
        <path id="Trazado_1047302" data-name="Trazado 1047302" d="M1913.4,2071.086a36.242,36.242,0,0,1,5.218-.256,18.133,18.133,0,0,1-3.186,3.707,32.171,32.171,0,0,1-2.032-3.451" transform="translate(-1708.147 -1848.677)" fill="#fbfbf4"/>
        <path id="Trazado_1047303" data-name="Trazado 1047303" d="M3574.118,2099.391a2.285,2.285,0,0,1,3.345,2.332,2.307,2.307,0,1,1-3.345-2.332" transform="translate(-3189.608 -1873.927)" fill="#7e84c9"/>
        <path id="Trazado_1047304" data-name="Trazado 1047304" d="M3659.194,2099.305a2.2,2.2,0,0,1,3.128,1.487c.6,1.747-1.516,3.669-3.167,2.713-1.694-.734-1.757-3.543.039-4.2" transform="translate(-3265.478 -1873.888)" fill="#757dc1"/>
        <path id="Trazado_1047305" data-name="Trazado 1047305" d="M3741.9,2099.139a2.344,2.344,0,0,1,3.215.884c1.062,1.7-1,4.214-2.868,3.345a2.361,2.361,0,0,1-.347-4.229" transform="translate(-3339.466 -1873.67)" fill="#7d80ca"/>
        <path id="Trazado_1047306" data-name="Trazado 1047306" d="M3825.716,2099.62a2.289,2.289,0,0,1,3.08,1.048c.937,1.752-1.275,4.113-3.07,3.123a2.342,2.342,0,0,1-.01-4.171" transform="translate(-3414.187 -1874.189)" fill="#7d84c4"/>
        <path id="Trazado_1047307" data-name="Trazado 1047307" d="M1742.167,2124.65c4-3,8.849-5.513,14-4.929.048.6.1,1.2.154,1.8-4.89.237-9.939,1.689-13.458,5.257-3.6,3.162-5.194,7.849-6.073,12.42-.516,0-1.028,0-1.54-.01-.14-5.566,2.964-10.808,6.913-14.54" transform="translate(-1549.105 -1892.258)" fill="#fefefb"/>
        <path id="Trazado_1047308" data-name="Trazado 1047308" d="M2556.762,2125.784a51.663,51.663,0,0,1,.517,9.384c-.039,2.983.188,6.024-.647,8.93-.058-6.106.135-12.213.13-18.315" transform="translate(-2282.366 -1897.746)" fill="#4258ca"/>
        <path id="Trazado_1047309" data-name="Trazado 1047309" d="M718.171,2213.521c7.753-.053,15.5-.034,23.253-.077.154,3.389.343,6.86-1.052,10.046-.937,2.587-2.081,5.1-3.157,7.632-.019-.208-.053-.623-.072-.83-6.29-.266-12.6.053-18.894-.3-.082-5.488-.15-10.977-.077-16.466m3.538,6.917c0,3.171-.029,6.343-.111,9.514,5.16-.193,10.326-.01,15.491-.121-.092-3.147-.116-6.29-.048-9.432-5.107.024-10.219.009-15.331.039" transform="translate(-641.104 -1976.003)" fill="#7a82c5"/>
        <path id="Trazado_1047311" data-name="Trazado 1047311" d="M2492.427,2287.763c1.907-1.376,4.33-1.477,6.584-1.236,4.721.724,8.158,6.029,6.536,10.62,4.74.174,9.486.053,14.231.053a4.624,4.624,0,0,1,2.916.686,11.184,11.184,0,0,1,1.468,2.167c-.6,3.138-1.622,6.169-2.283,9.288-.613,2.312-.821,4.793-1.965,6.927-1,1.714-3.114,2.119-4.943,2.047-15.129-.13-30.253-.034-45.376-.034a34.1,34.1,0,0,1-5.3-.184,2.544,2.544,0,0,1-2.013-2.829,49.5,49.5,0,0,1,1.4-5.947c.768-2.863,1.443-5.75,2.182-8.622l.261-.637a14.29,14.29,0,0,1,.941-1.786,8.575,8.575,0,0,1,4.388-1.023c4.875.063,9.746.019,14.622.048.492-3.49,2.1-6.99,5.228-8.838.367-.246.739-.478,1.12-.7m1.424,4.542c-1.139.907-.772,2.5-.85,3.765a4.554,4.554,0,0,0,4.248,1.588c.633-.57,1.274-1.129,1.931-1.67a9.181,9.181,0,0,0,.068-2.993c-.753-2.216-3.958-2.187-5.4-.69m-23.017,9.259c.073.618.164,1.236.271,1.859,16.306-.063,32.608.048,48.915-.048.1-.584.2-1.158.314-1.733-4.509-.188-9.022-.058-13.535-.1-11.986.082-23.977-.034-35.963.024m-3.871,1.8a70.077,70.077,0,0,0-2.394,10.021c-.319.883.961.719,1.453.932,1.149-3.7,2.032-7.478,2.829-11.267-.391-1.082-1.685-.589-1.887.314m.719,10.8c.038.594.077,1.192.125,1.791,8.472.019,16.948.01,25.425.019,7.912-.1,15.833.164,23.74-.149-.019-.415-.053-1.246-.068-1.661-5.146-.125-10.287-.053-15.428-.058-11.267.039-22.534-.125-33.8.058" transform="translate(-2198.119 -2041.155)" fill="#bcbecd"/>
        <path id="Trazado_1047312" data-name="Trazado 1047312" d="M1482.242,2305.649a67.169,67.169,0,0,1,.5,7.564c-.241,2.563-.106,5.136-.212,7.709l-.27.7c.024-5.324-.386-10.654-.019-15.973" transform="translate(-1323.101 -2058.317)" fill="#b9a088"/>
        <path id="Trazado_1047313" data-name="Trazado 1047313" d="M2749.767,2332.439c1.439-1.5,4.644-1.525,5.4.69a9.167,9.167,0,0,1-.067,2.993c-.656.541-1.3,1.1-1.931,1.67a4.553,4.553,0,0,1-4.248-1.588c.077-1.27-.29-2.858.85-3.765" transform="translate(-2454.034 -2081.288)" fill="#f8b426"/>
        <path id="Trazado_1047314" data-name="Trazado 1047314" d="M17.2,2366.164c7.289-.044,14.583.024,21.872-.044,5.687.077,11.378-.1,17.064.024,3.76.034,7.521.1,11.281-.048,5.46-.188,10.924-.019,16.384.077,2.023.024,4.045-.015,6.068.014,6.295.357,12.6.039,18.894.3.019.208.053.623.072.831-.126.3-.246.618-.362.932q-4.591.072-9.181.092a23.609,23.609,0,0,1,7.212,4.962c-.908,2.418-2.056,4.736-2.9,7.178-1.023-2.578-2.911-5.073-5.783-5.633-4.644-1.424-9.886,2.317-10.2,7.11a8.158,8.158,0,0,0,7.83,8.82,10.777,10.777,0,0,0,4.793-1.327c-1.033,2.684-2.032,5.387-3.027,8.09a15.726,15.726,0,0,1-13.338-4.509,15.441,15.441,0,0,1-4.19-12.479,15.746,15.746,0,0,1,9.944-12.2c-7.685-.073-15.375-.01-23.06-.019a15.663,15.663,0,0,1,9.939,11.257c1.54,7.111-3.017,14.81-9.823,17.19-6,2.443-13.241-.231-16.862-5.426a15.068,15.068,0,0,1-1.883-14.023,16.608,16.608,0,0,1,9.172-9.042c-7.695.034-15.394-.024-23.089.058a15.2,15.2,0,0,1,9.181,8.921c2.727,6.715-.574,15.018-6.855,18.45a23.906,23.906,0,0,1-4.316,1.791,15.137,15.137,0,0,1-16.973-19.719,14.948,14.948,0,0,1,9.659-9.5c-2.327-.068-4.668.179-6.985-.073-1.052-.275-.71-1.313-.545-2.056m11.262,8.621a8.1,8.1,0,1,0,9.563,10.523,8.079,8.079,0,0,0-9.563-10.523m32.825.014a8.063,8.063,0,1,0,9.693,6.69c-.362-4.591-5.32-7.83-9.693-6.69" transform="translate(-12.727 -2112.203)" fill="#6066b6"/>
        <path id="Trazado_1047315" data-name="Trazado 1047315" d="M3268.712,2365.735c5.141-.222,10.292.01,15.443.014,6.439.014,12.879-.014,19.319.039,9.167-.1,18.334-.193,27.5.068,3.495.058,6.985-.294,10.48-.106,4.084.14,8.168.068,12.252.044.608.135,1.574-.208,1.945.463.517.439.164,1.709-.545,1.661-5.146.237-10.306-.164-15.452.212a17.266,17.266,0,0,1,6.111,4.05,14.859,14.859,0,0,1,1.95,17.537,15.735,15.735,0,0,1-10.084,7.362,14.772,14.772,0,0,1-10.466-1.969c-6.309-3.741-9.186-12.546-5.749-19.15a15.492,15.492,0,0,1,8.766-7.989c-7.69.039-15.38-.029-23.07.01a16.365,16.365,0,0,1,8.607,7.695,14.906,14.906,0,0,1-1.39,15.36,15.394,15.394,0,0,1-8.988,6.015c-3.939,1-8.12-.323-11.407-2.529-6.145-4.156-8.3-13.217-4.456-19.618a15.155,15.155,0,0,1,8.395-6.927c-7.989-.14-15.983.116-23.967-.135a17.529,17.529,0,0,1,6.589,3.915,14.825,14.825,0,0,1,4.3,12.266,16.162,16.162,0,0,1-6.266,10.485c-.633-2.037-1.294-4.069-1.936-6.1a8.319,8.319,0,0,0,.632-11.388,10.194,10.194,0,0,0-5.421-2.858c-1.217-2.737-2.008-5.634-3.09-8.424m32.458,8.81a8.627,8.627,0,0,0-5.556,6.155,8.128,8.128,0,0,0,6.372,9.549c4.813,1.125,9.877-3.172,9.6-8.1.14-5.156-5.542-9.307-10.412-7.6m32.415.053a8.153,8.153,0,0,0-5.581,9.461c.777,4.653,6.353,7.656,10.693,5.855a8.077,8.077,0,0,0-5.112-15.317" transform="translate(-2918.069 -2111.871)" fill="#6065b5"/>
        <path id="Trazado_1047316" data-name="Trazado 1047316" d="M1486.429,2376.164c.792,4.335.41,8.766.42,13.149-.116,0-.348.014-.468.024,0-1.825-.063-3.649-.164-5.465.106-2.573-.029-5.146.212-7.709" transform="translate(-1326.787 -2121.268)" fill="#826e68"/>
        <path id="Trazado_1047319" data-name="Trazado 1047319" d="M1972.413,2410.31a18.831,18.831,0,0,0,10.789-10.746l1.728.174c-1.009,4.2-4.05,7.636-7.424,10.19-3.389,2.056-7.183,3.722-11.2,3.809-.879.178-1.82-1.241-.9-1.709,2.307-.681,4.774-.753,7.014-1.719" transform="translate(-1754.23 -2142.157)" fill="#fdfeff"/>
        <path id="Trazado_1047320" data-name="Trazado 1047320" d="M2252.008,2413.6c8.776-.068,17.552.01,26.328-.043l-.26.637c-8.728,0-17.455-.063-26.183.019Z" transform="translate(-2010.326 -2154.651)" fill="#2c2531"/>
        <path id="Trazado_1047321" data-name="Trazado 1047321" d="M3003.6,2413.383c6.908.043,13.816-.067,20.723.034a3.527,3.527,0,0,1,3.2,2.3c.478,1.062.029,2.23-.2,3.307-4.021,13.869-7.965,27.752-11.942,41.63-.338,1.105-.671,2.211-.965,3.331-2.018,7.478-4.306,14.878-6.358,22.345-.507,1.771-1.081,3.529-1.593,5.3-2.37-.951-4.736-1.926-7.168-2.694,6.2-22.114,12.531-44.188,18.812-66.278-5.6.01-11.2-.024-16.794.01.661-3.118,1.685-6.15,2.283-9.288" transform="translate(-2677.555 -2154.485)" fill="#262c53"/>
        <path id="Trazado_1047322" data-name="Trazado 1047322" d="M2542.277,2427.319c11.986-.058,23.977.058,35.963-.024,4.514.043,9.027-.087,13.536.1-.116.574-.217,1.149-.314,1.733-16.306.1-32.608-.014-48.915.048-.106-.623-.2-1.241-.271-1.859" transform="translate(-2269.561 -2166.91)" fill="#fffefe"/>
        <path id="Trazado_1047323" data-name="Trazado 1047323" d="M835.211,2439.845c-.063-1.2,1.434-.772,2.172-.811,1.3,20.009.965,40.081.6,60.114-18.57,8.419-37.184,16.76-55.576,25.575a2.762,2.762,0,0,1-2.288.077c.043-.777.1-1.69.985-1.95,14.1-6.705,28.326-13.14,42.485-19.709,4.093-1.762,5.966-6.112,7.381-10.036,3.538-9.78,4.3-20.25,4.639-30.557.275-7.569-.058-15.148-.4-22.7" transform="translate(-696.436 -2177.355)" fill="#d27918"/>
        <path id="Trazado_1047324" data-name="Trazado 1047324" d="M2485.843,2436.551c.2-.9,1.5-1.4,1.887-.314-.8,3.79-1.68,7.569-2.829,11.267-.492-.212-1.771-.048-1.453-.931a70.055,70.055,0,0,1,2.394-10.022" transform="translate(-2216.998 -2174.345)" fill="#fdffff"/>
        <path id="Trazado_1047331" data-name="Trazado 1047331" d="M1388.688,2448.729l.27-.7c.1,1.815.164,3.64.164,5.464-3.949,0-7.9.034-11.851-.024.753-.932,2.008-.666,3.056-.7,2.761.1,5.522.121,8.284.029a31.847,31.847,0,0,1,.077-4.074" transform="translate(-1229.529 -2185.423)" fill="#eab652"/>
        <path id="Trazado_1047332" data-name="Trazado 1047332" d="M1669.334,2476.649c.507.864,1.043,1.719,1.6,2.558q-.992-.108-1.969-.2c.121-.792.246-1.574.372-2.356" transform="translate(-1489.928 -2210.973)" fill="#9a816d"/>
        <path id="Trazado_1047333" data-name="Trazado 1047333" d="M1765.442,2496.474c5-.2,9.992.01,14.984-.053,4.605.014,9.215-.116,13.816.14-2.24.966-4.707,1.038-7.014,1.719-.917.469.024,1.887.9,1.709,4.021-.087,7.815-1.752,11.2-3.809a46.134,46.134,0,0,0,5.715.319,27.32,27.32,0,0,1-16.924,8.53,26.665,26.665,0,0,1-22.683-8.554" transform="translate(-1576.059 -2228.408)" fill="#809acd"/>
        <path id="Trazado_1047334" data-name="Trazado 1047334" d="M2015.87,2499.6c6.864.092,13.729-.01,20.593.029a49.478,49.478,0,0,0-1.4,5.947,2.544,2.544,0,0,0,2.013,2.829,34.063,34.063,0,0,0,5.3.184c15.124,0,30.248-.1,45.376.034,1.83.072,3.944-.333,4.943-2.047,1.144-2.134,1.352-4.615,1.965-6.927,5.595-.034,11.194,0,16.794-.01-6.281,22.089-12.614,44.164-18.812,66.278-5.759-1.993-11.6-3.746-17.364-5.735,3.423-.406,6.874-.058,10.306-.348.039-.656.082-1.308.125-1.955-16.693-.237-33.39.043-50.083-.073a18.06,18.06,0,0,0-4.48.227c-.347.565-.671,1.27-.116,1.839a8.359,8.359,0,0,0,2.138.265c9.5-.188,19.01-.053,28.515-.174,1.6-.039,3.19.111,4.788.222a8.358,8.358,0,0,0-2.568,3.727c-.159.633-.294,1.275-.425,1.926-9.761-.135-19.526-.072-29.292-.063a40.777,40.777,0,0,0-5.151.29q-.094.9-.174,1.81c11.841.372,23.7.029,35.548.14a13.122,13.122,0,0,0,6.183,4.456c-2.273-.309-4.325-1.381-6.468-2.115a6.935,6.935,0,0,0-5.151.155,6.64,6.64,0,0,0-3.306,8.115c-7.811-.067-15.621-.034-23.427-.034a47.865,47.865,0,0,0-6.058.106,5.692,5.692,0,0,0-.367,2.081c10.417.058,20.835,0,31.252-.034a24.749,24.749,0,0,0,3.2,2.341c-.343.2-.676.405-1.009.613a31.24,31.24,0,0,1-7.231.328c-7.41-.058-14.82.024-22.23,0a29.022,29.022,0,0,0-4.808.135c-.956.231-.6,1.38-.729,2.085,10.755-.058,21.51.121,32.261-.164a7.356,7.356,0,0,0,.178,7.931c1.4,1.965,3.678,2.978,5.749,4.069-1.342,1.5-2.549,3.384-2.22,5.493.386,3.432,3.335,5.909,6.328,7.217a18.814,18.814,0,0,1,2.882,1.839q-42.873.051-85.746,0c5-17.484,9.934-34.978,14.95-52.453,5.74-20.2,11.629-40.351,17.229-60.587m5.411,16.244c-1.212,4.393-2.4,8.8-3.471,13.222,4.818.126,9.65.044,14.472.048,1.366-4.344,2.476-8.771,3.616-13.183-4.871-.149-9.746-.087-14.617-.087m20.5.28c-.29.864-.188,2.24,1.081,2.056,16.572.067,33.149-.019,49.725.029a16.453,16.453,0,0,0,4.127-.265c.019-.6.048-1.2.077-1.786-.594-.063-1.187-.111-1.776-.14-11.271.087-22.548-.053-33.825-.01-6.468.082-12.952-.179-19.41.116m-1.762,7.7c13.821.058,27.646,0,41.466.01,1.042.082.811-1.27,1.11-1.907a10.5,10.5,0,0,0-3.051-.338c-12.7.164-25.406-.029-38.1.179-1.236-.155-1.622,1.047-1.424,2.056m-3.336,11.856c-.019.637-.743,1.6.019,2.042a19.535,19.535,0,0,0,4.219.246c15.443-.1,30.885-.072,46.332-.125a11.69,11.69,0,0,0,3.529-.275,3.648,3.648,0,0,0,.28-1.916c-18.126-.044-36.253.014-54.379.029m-8.211,1.178c-4.287-.063-8.578-.121-12.865-.092-1.294,4.431-2.375,8.926-3.533,13.4,4.832.2,9.674.1,14.511.048.99-3.485,1.863-7,2.708-10.528.961-.941,3.63-1.883,2.206-3.495-.888-1.11-2.2.092-3.027.671m6.888,4.649a7.071,7.071,0,0,0-.256,2.013c7.405.145,14.81.053,22.21.068,10.605-.063,21.216.125,31.822-.068.178-.637.574-1.279.309-1.946a10.7,10.7,0,0,0-2.688-.188c-17.132.063-34.264-.121-51.4.121m-2.8,12.913c13.719-.111,27.438.1,41.157-.121,4.335.043,8.679.217,13.009-.092.1-.661.193-1.323.28-1.974-3.432-.391-6.894-.044-10.335-.155-14.337,0-28.679.043-43.016,0-1.332-.178-1.578,1.41-1.1,2.336m-9.085,3.471c-4,.024-8.008-.058-12.01-.077-.541.106-1.535-.222-1.7.521-1.318,4.258-2.38,8.6-3.553,12.9,4.851.444,9.741.1,14.607.2,1.11-3.369,1.651-6.917,2.969-10.215.806-.763,1.892-1.294,2.476-2.254.454-.946-.69-1.516-1.236-2.042q-.8.449-1.55.97m-21.94,31.44c4.871.27,9.766.265,14.646.116,1.241-4.335,2.481-8.679,3.49-13.077-4.876-.1-9.751.044-14.622-.01-1.347,4.272-2.351,8.646-3.514,12.971" transform="translate(-1770.896 -2231.462)" fill="#fff"/>
        <path id="Trazado_1047335" data-name="Trazado 1047335" d="M1915.444,2557.3c9.867.632,20.115-2.983,26.931-10.229-2.544,8.9-5.329,17.73-7.695,26.685-2.723.13-5.445.048-8.168.019-.565-.734-1.183-1.419-1.786-2.1-.039-.656-.058-1.3-.082-1.945-.2-.135-.6-.41-.806-.545-2.018-1.164-4.523-.5-6.739-.768-.048-2.071-.434-4.542-2.708-5.276.285-1.96.647-3.9,1.052-5.836" transform="translate(-1709.03 -2273.844)" fill="#4d59b3"/>
        <path id="Trazado_1047336" data-name="Trazado 1047336" d="M2512.892,2544.22c11.262-.183,22.529-.019,33.8-.058,5.141,0,10.282-.067,15.428.058.014.415.048,1.245.067,1.661-7.907.314-15.829.053-23.74.149-8.477-.01-16.953,0-25.425-.019-.048-.6-.087-1.2-.125-1.791" transform="translate(-2243.328 -2271.217)" fill="#fdfeff"/>
        <path id="Trazado_1047337" data-name="Trazado 1047337" d="M1843.832,2635.064c.42-1.921.825-3.847,1.39-5.73.656.217,1.323.42,2,.613q-.55,2.766-1.135,5.522c-.753-.154-1.5-.3-2.254-.405" transform="translate(-1646.04 -2347.279)" fill="#afb7be"/>
        <path id="Trazado_1047338" data-name="Trazado 1047338" d="M1865.982,2635.049c1.047.251,2.109.425,3.181.579q-.528,2.8-.951,5.619c-1.125-.231-2.245-.453-3.365-.676q.587-2.758,1.135-5.522" transform="translate(-1664.8 -2352.381)" fill="#d9dadc"/>
        <path id="Trazado_1047339" data-name="Trazado 1047339" d="M1897.163,2640.449c.681.087,1.366.159,2.052.212-.406,1.936-.768,3.876-1.052,5.836-.652-.164-1.3-.3-1.95-.43q.42-2.824.951-5.619" transform="translate(-1692.801 -2357.202)" fill="#b1b2ba"/>
        <path id="Trazado_1047340" data-name="Trazado 1047340" d="M2305.223,2650.916c4.871,0,9.746-.063,14.617.087-1.139,4.412-2.249,8.839-3.615,13.183-4.822,0-9.655.077-14.472-.048,1.072-4.427,2.259-8.829,3.471-13.222m1.535,1.921c-.85,3.157-1.786,6.29-2.631,9.452,3.553,0,7.1-.067,10.654-.039.9-3.123,1.771-6.261,2.65-9.394-3.558-.058-7.115.034-10.673-.019" transform="translate(-2054.837 -2366.534)" fill="#4759b0"/>
        <path id="Trazado_1047341" data-name="Trazado 1047341" d="M2524.059,2652.432c6.459-.295,12.942-.034,19.41-.116,11.277-.043,22.553.1,33.825.01.589.029,1.183.077,1.776.14-.029.589-.058,1.188-.077,1.786a16.44,16.44,0,0,1-4.127.265c-16.577-.048-33.154.039-49.726-.029-1.27.183-1.371-1.192-1.081-2.056" transform="translate(-2253.177 -2367.77)" fill="#b6bccf"/>
        <path id="Trazado_1047342" data-name="Trazado 1047342" d="M141.549,2663.939c1.636.043,3.273.077,4.909.111,21.375.174,42.75-.087,64.125.1-.777,2.221-1.661,4.407-2.332,6.662-7.931.241-15.867.082-23.8.14-14.308-.029-28.616-.01-42.929-.015,0-2.331,0-4.663.024-6.994" transform="translate(-126.343 -2378.172)" fill="#5e64b5"/>
        <path id="Trazado_1047343" data-name="Trazado 1047343" d="M2326.523,2668.928c3.558.053,7.115-.038,10.673.02-.879,3.133-1.748,6.271-2.65,9.394-3.553-.029-7.1.039-10.654.039.844-3.162,1.781-6.295,2.631-9.452" transform="translate(-2074.602 -2382.626)" fill="#fefefe"/>
        <path id="Trazado_1047344" data-name="Trazado 1047344" d="M3369.467,2664.749c20.226.077,40.457.164,60.683.029-.1,2.279-.125,4.562-.13,6.845-19.469.106-38.942-.024-58.41.063-.753-2.3-1.5-4.6-2.143-6.937" transform="translate(-3008.016 -2378.895)" fill="#5d64b4"/>
        <path id="Trazado_1047345" data-name="Trazado 1047345" d="M1791.653,2686.3c.468-2.191,2.08-4.427,4.615-4,.753.106,1.5.251,2.254.405,1.12.222,2.24.444,3.365.676.647.131,1.3.266,1.95.43,2.274.734,2.66,3.205,2.708,5.276,2.216.27,4.721-.4,6.739.768-2.288-.777-4.74-.526-7.115-.681-.121.647-.236,1.3-.352,1.96a118.612,118.612,0,0,0-14.863.908c-.13-.338-.266-.671-.4-1,.42-1.569.748-3.162,1.1-4.745" transform="translate(-1598.475 -2394.52)" fill="#242a4f"/>
        <path id="Trazado_1047346" data-name="Trazado 1047346" d="M2508.344,2706.763c-.2-1.009.188-2.211,1.424-2.056,12.7-.208,25.4-.014,38.1-.179a10.51,10.51,0,0,1,3.051.338c-.3.637-.068,1.989-1.11,1.907-13.821-.01-27.646.048-41.466-.01" transform="translate(-2239.224 -2414.397)" fill="#b8bdce"/>
        <path id="Trazado_1047347" data-name="Trazado 1047347" d="M1465.36,2721.814c4.118-1.318,8.481-1.366,12.744-1.805-.352,1.583-.681,3.176-1.1,4.745a29.036,29.036,0,0,0-8.8.961c.082.425.169.854.256,1.284,2.993-.319,5.967-.792,8.94-1.245a118.567,118.567,0,0,1,14.863-.908c.116-.656.232-1.313.352-1.96,2.375.155,4.827-.1,7.115.681.2.135.608.41.806.545-.072.6-.145,1.216-.212,1.829a13.205,13.205,0,0,0-7.444-1.182c1.907,1.289,4.533.835,6.324,2.413,2.22,1.424,2.64,4.562,1.467,6.792a7.187,7.187,0,0,1-5.069,3.22c-3.925.739-7.922.975-11.861,1.617-.01.5-.024,1-.034,1.511,3.529.15,6.966-.748,10.456-1.1,1.892-.319,3.5,1.067,4.523,2.515a6.256,6.256,0,0,1,.4,6.126c-1.323,1.931-3.654,2.844-5.841,3.384-3.036.69-6.145,1.038-9.153,1.859-.029.41-.092,1.231-.125,1.641,2.66.106,5.146-1,7.772-1.135,1.144-.159,1.994.768,2.65,1.574a5.584,5.584,0,0,1-1.53,8.1c-3.239,2.115-7.275,1.849-10.765,3.258.169.492.338.985.512,1.482,1.743-.251,3.442-.8,5.2-.937a4.513,4.513,0,0,1,2.636,3.775c.092,2.4-1.632,4.316-3.157,5.967a49.1,49.1,0,0,1-6.1,1.752,92.138,92.138,0,0,1-17.359,2.095l-.01.237-.029.517c-.044-.2-.135-.608-.179-.806-1.245-.14-2.5-.193-3.746-.241q.485.985.99,1.984c-.521-.864-1.047-1.728-1.545-2.6a9.8,9.8,0,0,0-4.282,1.6,75.624,75.624,0,0,1-11.609-17.586c-2.153-4.972-3.944-10.243-4.094-15.7.99-.864,2-1.7,2.964-2.6,3.944-4.441,7.439-9.269,11.363-13.734,1.178-1.409,2.481-2.713,3.775-4.016,2.414-2.235,4.755-4.8,7.931-5.923" transform="translate(-1284.927 -2428.227)" fill="#f4bb9d"/>
        <path id="Trazado_1047348" data-name="Trazado 1047348" d="M1856.472,2758.259c.024.647.043,1.289.082,1.945.6.686,1.221,1.371,1.786,2.1a17.172,17.172,0,0,1,.743,2.505,6.558,6.558,0,0,1-5.431,7.362c1.83,2.023,3.954,4.306,3.567,7.28.241,3.842-3.427,6.222-6.662,7.221.449.637.912,1.279,1.342,1.941.386.714.763,1.438,1.115,2.182a6.879,6.879,0,0,1-1.438,6.082c-1.347,1.791-3.635,2.23-5.508,3.239.724,1.593,1.926,3.075,1.873,4.914.082,1.887-1.265,3.379-2.134,4.938q-1.3.493-2.592,1c1.525-1.651,3.249-3.563,3.157-5.967a4.513,4.513,0,0,0-2.635-3.775c-1.757.14-3.456.685-5.2.937-.174-.5-.343-.99-.512-1.482,3.49-1.409,7.526-1.144,10.765-3.258a5.584,5.584,0,0,0,1.53-8.1c-.656-.806-1.506-1.733-2.65-1.574-2.626.131-5.112,1.241-7.772,1.135.034-.41.1-1.231.125-1.641,3.007-.821,6.116-1.168,9.152-1.858,2.187-.541,4.518-1.453,5.841-3.384a6.256,6.256,0,0,0-.4-6.126c-1.018-1.448-2.631-2.834-4.523-2.515-3.49.348-6.927,1.246-10.456,1.1.01-.507.024-1.014.034-1.511,3.939-.642,7.936-.879,11.861-1.617a7.187,7.187,0,0,0,5.069-3.22c1.173-2.23.753-5.368-1.468-6.792-1.791-1.578-4.417-1.125-6.324-2.413a13.207,13.207,0,0,1,7.444,1.182c.068-.613.14-1.226.213-1.829" transform="translate(-1640.857 -2462.374)" fill="#df8860"/>
        <path id="Trazado_1047349" data-name="Trazado 1047349" d="M1708.562,2765.1a29.028,29.028,0,0,1,8.8-.96c.135.328.27.661.4,1-2.974.454-5.947.927-8.94,1.245-.087-.43-.174-.859-.256-1.284" transform="translate(-1525.28 -2467.615)" fill="#dc8766"/>
        <path id="Trazado_1047350" data-name="Trazado 1047350" d="M1573.548,2791.469q1.557.022,3.114.063c-1.294,1.3-2.6,2.607-3.775,4.016a10.182,10.182,0,0,0,.661-4.079" transform="translate(-1404.159 -2492.021)" fill="#222b5b"/>
        <path id="Trazado_1047351" data-name="Trazado 1047351" d="M1963.372,2819.369c2.24.019,4.475.034,6.715.063-.71,3.022-1.752,5.947-2.578,8.94-1.41,4.721-2.6,9.51-4.079,14.216-2.554.015-5.107-.048-7.656-.231.106.2.314.613.415.816-.43-.661-.893-1.3-1.342-1.941,3.234-1,6.9-3.379,6.662-7.221.386-2.974-1.738-5.257-3.567-7.28a6.558,6.558,0,0,0,5.431-7.362" transform="translate(-1745.146 -2516.929)" fill="#4f5ab5"/>
        <path id="Trazado_1047352" data-name="Trazado 1047352" d="M2474.917,2835.6c18.126-.014,36.253-.073,54.379-.029a3.648,3.648,0,0,1-.28,1.916,11.688,11.688,0,0,1-3.529.275c-15.447.053-30.89.029-46.332.125a19.535,19.535,0,0,1-4.219-.246c-.763-.439-.039-1.4-.02-2.042" transform="translate(-2209.133 -2531.379)" fill="#b8bacf"/>
        <path id="Trazado_1047353" data-name="Trazado 1047353" d="M2368.291,2837.59c.825-.58,2.138-1.781,3.027-.671,1.424,1.612-1.245,2.553-2.206,3.495a28.209,28.209,0,0,0-2.332,2.023l-.28.27c0-.27.015-.811.019-1.081-.729.3-1.453.6-2.172.922a6.168,6.168,0,0,0,1.651-3.041l.029-.024c.748-.637,1.5-1.27,2.264-1.892" transform="translate(-2110.718 -2532.19)" fill="#d63b3d"/>
        <path id="Trazado_1047354" data-name="Trazado 1047354" d="M2248.247,2859.431c1.159-4.47,2.24-8.964,3.533-13.4,4.287-.029,8.578.029,12.865.092-.768.623-1.516,1.255-2.264,1.892q-4.511-.051-9.022.014-1.383,4.794-2.766,9.6c3.558-.043,7.11-.039,10.668-.092a61.694,61.694,0,0,1,1.873-6.565,28.242,28.242,0,0,1,2.331-2.023c-.845,3.524-1.718,7.043-2.708,10.528-4.837.048-9.679.155-14.511-.048" transform="translate(-2007.072 -2540.727)" fill="#4958b1"/>
        <path id="Trazado_1047355" data-name="Trazado 1047355" d="M3140.237,2857.485c.294-1.12.627-2.225.965-3.331-.014.884.019,1.772-.014,2.66-.241.169-.714.5-.951.671" transform="translate(-2803.376 -2547.982)" fill="#e4ad4c"/>
        <path id="Trazado_1047356" data-name="Trazado 1047356" d="M2270.117,2874.007q1.383-4.8,2.766-9.6,4.511-.073,9.022-.015l-.029.024c-1.887,1.429-3.326,3.336-5.088,4.895-1.255-.478-1.636-2.076-2.8-2.737-.719.3-1.7.922-1.617,1.81a26.019,26.019,0,0,0,3.78,5.122c2.264-1.757,4.06-4.021,6.227-5.889l.28-.27a61.634,61.634,0,0,0-1.873,6.565c-3.558.053-7.111.048-10.668.092" transform="translate(-2026.596 -2557.104)" fill="#f9fcff"/>
        <path id="Trazado_1047357" data-name="Trazado 1047357" d="M2295.509,2869.714c1.762-1.559,3.2-3.466,5.088-4.895a6.168,6.168,0,0,1-1.651,3.041c.719-.319,1.444-.618,2.172-.922,0,.27-.014.811-.019,1.081-2.167,1.868-3.963,4.132-6.227,5.889a26,26,0,0,1-3.78-5.122c-.082-.888.9-1.511,1.617-1.81,1.163.662,1.545,2.259,2.8,2.737" transform="translate(-2045.316 -2557.503)" fill="#c6292a"/>
        <path id="Trazado_1047358" data-name="Trazado 1047358" d="M1353.333,2889.167c.106-2.684-.063-5.46.937-8.013.068,3.654-.318,7.3-.594,10.939a8.957,8.957,0,0,1-.343-2.926" transform="translate(-1208.149 -2572.086)" fill="#c7a36b"/>
        <path id="Trazado_1047359" data-name="Trazado 1047359" d="M2463.144,2889.215c17.132-.241,34.264-.058,51.4-.121a10.7,10.7,0,0,1,2.688.188c.266.666-.13,1.308-.309,1.946-10.606.193-21.216,0-31.822.068-7.4-.014-14.805.077-22.21-.068a7.058,7.058,0,0,1,.256-2.013" transform="translate(-2198.682 -2579.167)" fill="#b9bccf"/>
        <path id="Trazado_1047360" data-name="Trazado 1047360" d="M1418,2945.236c.932-.145,1.863-.266,2.8-.362.729.584,1.414,1.424,2.448,1.356-.966.893-1.974,1.733-2.964,2.6,0-1.149.014-2.288.029-3.432-.179,0-.536-.01-.714-.01-.4-.039-1.2-.111-1.6-.15" transform="translate(-1265.885 -2628.97)" fill="#c2791b"/>
        <path id="Trazado_1047361" data-name="Trazado 1047361" d="M2437.373,2990.872c-.483-.927-.237-2.515,1.1-2.336,14.337.039,28.679,0,43.016,0,3.442.111,6.9-.237,10.335.155-.087.652-.183,1.313-.28,1.974-4.33.309-8.675.135-13.01.092-13.719.217-27.438.01-41.157.121" transform="translate(-2175.707 -2667.911)" fill="#b8bcd1"/>
        <path id="Trazado_1047362" data-name="Trazado 1047362" d="M2311.878,3034.945q.753-.521,1.55-.97c.545.526,1.69,1.1,1.236,2.042-.584.961-1.67,1.492-2.477,2.254-.6.5-1.2,1.009-1.815,1.5-.869.241-1.743.449-2.616.656-.251-.256-.753-.768-1.009-1.023a35.472,35.472,0,0,1,2.819-2.5c.777-.647,1.516-1.342,2.312-1.965" transform="translate(-2059.297 -2708.512)" fill="#d73b39"/>
        <path id="Trazado_1047363" data-name="Trazado 1047363" d="M2197.17,3042.821c.169-.743,1.163-.415,1.7-.521,4,.019,8.009.1,12.01.077-.8.623-1.535,1.318-2.312,1.965-3.278-.092-6.56-.077-9.838-.058-.758,3.263-1.8,6.454-2.771,9.659,3.6,0,7.2-.087,10.8.034.594-2.008,1.052-4.06,1.767-6.029.213-.188.637-.56.85-.743.613-.492,1.212-1,1.815-1.5-1.318,3.3-1.858,6.845-2.969,10.215-4.866-.1-9.756.246-14.607-.2,1.173-4.3,2.235-8.641,3.553-12.9" transform="translate(-1958.302 -2715.945)" fill="#4958ae"/>
        <path id="Trazado_1047364" data-name="Trazado 1047364" d="M2422.587,3042.211a18.047,18.047,0,0,1,4.48-.227c16.693.116,33.39-.164,50.083.073-.043.647-.087,1.3-.125,1.955-3.432.29-6.884-.058-10.306.348a26.889,26.889,0,0,0-5.01-.4c-1.274.063-2.534.231-3.794.405-1.6-.111-3.191-.261-4.789-.222-9.5.121-19.01-.015-28.515.174a8.353,8.353,0,0,1-2.138-.266c-.555-.57-.231-1.274.116-1.839" transform="translate(-2162.34 -2715.64)" fill="#b6bbcd"/>
        <path id="Trazado_1047365" data-name="Trazado 1047365" d="M1266.815,3052.907c1.1-.777,1.8.458,1.762,1.443a52.882,52.882,0,0,0,5.329,18.778c4.219,9.051,10.953,16.693,18.561,23.065.024.188.077.565.106.753-.338.164-1.014.488-1.352.652-11.518-9.172-20.327-22.027-23.513-36.5-.546-2.689-1.26-5.426-.893-8.192" transform="translate(-1130.831 -2725.196)" fill="#f9fcff"/>
        <path id="Trazado_1047366" data-name="Trazado 1047366" d="M1699.028,3061.586c1.752-.01,3.5.015,5.257.058-.99,4.243-2.558,8.322-3.6,12.556-1.651,6.719-4,13.236-5.691,19.946-1.694,6.41-3.978,12.662-5.421,19.14-.261.618-.237,1.805-1.192,1.718-6.454.159-12.913-.072-19.372.073-1.115.053-2.693-.034-3.036-1.342a77.637,77.637,0,0,1-.1-8c.1-2.853-.266-5.75.362-8.559.164-.357.343-.7.521-1.038-.415-1.2-.816-2.39-1.221-3.577-.01-2.071.092-4.137.2-6.194l.029-.517c.9,1.965,1.916,4.224,4.06,5.1a27.19,27.19,0,0,0,5.508,1.332,5.4,5.4,0,0,0,5.913-3.253c.714-1.825.4-4.089,1.95-5.518l-.063.01a49.189,49.189,0,0,0,6.1-1.752q1.289-.514,2.592-1c.869-1.559,2.216-3.051,2.134-4.938.053-1.839-1.149-3.321-1.873-4.914,1.873-1.009,4.161-1.448,5.508-3.239a6.881,6.881,0,0,0,1.438-6.083" transform="translate(-1486.87 -2733.161)" fill="#4e59b3"/>
        <path id="Trazado_1047367" data-name="Trazado 1047367" d="M2218.258,3060.674c3.278-.019,6.56-.034,9.838.058a35.473,35.473,0,0,0-2.819,2.5c-.936.932-1.863,1.873-2.809,2.8a14.83,14.83,0,0,0-2.09-2.3,1.383,1.383,0,0,0-2,1.149,15.344,15.344,0,0,0,3.809,5.1c2.215-1.607,3.751-3.925,5.865-5.638-.714,1.97-1.173,4.021-1.767,6.029-3.6-.121-7.2-.034-10.8-.034.975-3.205,2.013-6.4,2.771-9.659" transform="translate(-1977.826 -2732.336)" fill="#fcfcfc"/>
        <path id="Trazado_1047368" data-name="Trazado 1047368" d="M2733.487,3061.019c1.26-.174,2.52-.343,3.794-.405-1.4,1.231-3.427,1.979-4.229,3.755a4.532,4.532,0,0,0,1.337,4.9c1.907,1.7,4.374,2.53,6.671,3.563,4.677,2.013,9.331,4.089,13.975,6.179a55.686,55.686,0,0,1,6.333,2.858,1.061,1.061,0,0,1,.063,1.733c-2-.188-3.688-1.419-5.517-2.134q-9.211-3.954-18.305-8.163a13.125,13.125,0,0,1-6.184-4.456,8.623,8.623,0,0,1-.507-4.1,8.355,8.355,0,0,1,2.568-3.727" transform="translate(-2437.913 -2732.295)" fill="#e08861"/>
        <path id="Trazado_1047369" data-name="Trazado 1047369" d="M2684.508,3060.541a26.869,26.869,0,0,1,5.01.4c5.764,1.989,11.6,3.741,17.364,5.735,2.433.768,4.8,1.743,7.168,2.694.512-1.771,1.086-3.529,1.593-5.3a19.867,19.867,0,0,0,1.453,3.22c.425.758.859,1.525,1.3,2.283.989,1.989,3.075,3.152,3.968,5.2a9.171,9.171,0,0,1,.772,4.311,15.031,15.031,0,0,1-1.284,5.073,15.993,15.993,0,0,1-3.481,3.389c.56,2.336,1.559,4.827.589,7.207-.782,2.457-3.225,3.669-5.3,4.866.043,2.3.463,4.813-.782,6.9-1.1,2.206-3.635,2.882-5.638,3.978-.01.406-.029,1.216-.039,1.622a8.862,8.862,0,0,1-4.639,6.749c-1.7.825-3.654.7-5.479,1.023-4.76-1.521-9.022-4.156-13.405-6.493a18.82,18.82,0,0,0-2.882-1.839l.966-.058c-1.95-1.9-4.432-3.789-4.8-6.681-.2-1.622.048-3.833,1.82-4.479a14.014,14.014,0,0,1,3.925,1.5c4.548,1.994,8.979,4.238,13.468,6.353a13.953,13.953,0,0,0,2.694.758c-.2-.724.087-1.8-.85-2.057-4.639-2.312-9.447-4.286-14.057-6.661-3.408-1.8-7.265-2.814-10.287-5.291-2.829-2.278-2.177-7.641,1.332-8.877a5.463,5.463,0,0,1,4.446.246c4.837,2.013,9.573,4.268,14.4,6.3a61.216,61.216,0,0,0,7.545,3.075c.155-.295.468-.884.623-1.178-1.781-1.419-3.953-2.129-6-3.046-6.652-3.017-13.434-5.749-19.98-8.993-1.627-.893-3.4-1.945-4.132-3.741a5.011,5.011,0,0,1,2.52-5.812,35.879,35.879,0,0,0,3.925-1.8c2.143.734,4.2,1.805,6.469,2.114q9.095,4.207,18.305,8.163c1.829.714,3.514,1.945,5.517,2.134a1.061,1.061,0,0,0-.062-1.733,55.73,55.73,0,0,0-6.333-2.858c-4.644-2.09-9.3-4.166-13.975-6.179-2.3-1.033-4.765-1.858-6.671-3.562a4.533,4.533,0,0,1-1.337-4.9c.8-1.776,2.824-2.525,4.229-3.755" transform="translate(-2385.14 -2732.221)" fill="#f5bc9e"/>
        <path id="Trazado_1047370" data-name="Trazado 1047370" d="M2242.442,3086.245a1.383,1.383,0,0,1,2-1.149,14.841,14.841,0,0,1,2.09,2.3c.946-.927,1.873-1.868,2.809-2.8.256.256.758.768,1.009,1.023.874-.208,1.747-.415,2.616-.656-.212.183-.637.555-.85.743-2.114,1.714-3.649,4.031-5.865,5.638a15.343,15.343,0,0,1-3.809-5.1" transform="translate(-2001.89 -2753.707)" fill="#ca2b2a"/>
        <path id="Trazado_1047371" data-name="Trazado 1047371" d="M2439.374,3101.061c.13-.652.266-1.294.425-1.926a8.623,8.623,0,0,0,.507,4.1c-11.846-.111-23.707.231-35.548-.14q.079-.913.174-1.81a40.784,40.784,0,0,1,5.151-.29c9.765-.01,19.531-.073,29.292.063" transform="translate(-2146.793 -2766.683)" fill="#b6bdd3"/>
        <path id="Trazado_1047372" data-name="Trazado 1047372" d="M3094.517,3123.508a30.626,30.626,0,0,1,5.971.55c12.218,2.052,24.527,6.836,33.115,16.07,3.915,4.272,7.362,9.317,8.588,15.066-.642.082-1.279.14-1.916.183a34.006,34.006,0,0,1-2.047-4.451,35.869,35.869,0,0,0-6.937-9.939c-9.278-9.456-22.5-14.009-35.471-15.2-.444-.758-.878-1.525-1.3-2.283" transform="translate(-2762.561 -2788.44)" fill="#cf7816"/>
        <path id="Trazado_1047373" data-name="Trazado 1047373" d="M2654.861,3155.877a6.933,6.933,0,0,1,5.151-.155,35.946,35.946,0,0,1-3.925,1.8,5.011,5.011,0,0,0-2.52,5.812c.734,1.8,2.505,2.848,4.132,3.741,6.546,3.244,13.328,5.976,19.98,8.993,2.042.917,4.214,1.627,6,3.046-.155.294-.468.883-.623,1.178a61.083,61.083,0,0,1-7.545-3.075c-4.832-2.032-9.568-4.287-14.4-6.3a5.462,5.462,0,0,0-4.446-.246c-3.51,1.236-4.161,6.6-1.332,8.877,3.022,2.476,6.879,3.495,10.287,5.291,4.61,2.375,9.418,4.349,14.057,6.661.936.261.647,1.333.849,2.056a13.95,13.95,0,0,1-2.693-.758c-4.49-2.115-8.921-4.359-13.468-6.353a14.015,14.015,0,0,0-3.925-1.5c-1.772.647-2.018,2.858-1.82,4.48.367,2.892,2.848,4.779,4.8,6.681l-.966.058c-2.993-1.308-5.942-3.784-6.329-7.217-.328-2.109.879-4,2.22-5.493-2.071-1.091-4.344-2.1-5.749-4.069a7.356,7.356,0,0,1-.179-7.931,15.047,15.047,0,0,1,2.737-2.39c.333-.208.666-.415,1.009-.613a24.732,24.732,0,0,1-3.2-2.341,21.613,21.613,0,0,1-1.4-2.119,6.64,6.64,0,0,1,3.307-8.115" transform="translate(-2366.784 -2816.826)" fill="#e0845a"/>
        <path id="Trazado_1047374" data-name="Trazado 1047374" d="M2150.057,3227.95c1.163-4.325,2.167-8.7,3.514-12.971,4.871.053,9.746-.087,14.622.01-1.009,4.4-2.25,8.742-3.49,13.077-4.88.15-9.775.155-14.646-.116m2.365-1.728c3.615-.072,7.231-.043,10.847-.077.835-3.1,1.656-6.208,2.549-9.292q-5.387.029-10.774.034c-.845,3.118-1.665,6.247-2.621,9.336" transform="translate(-1919.415 -2870.078)" fill="#4b5bab"/>
        <path id="Trazado_1047375" data-name="Trazado 1047375" d="M2978.49,3217.484c.632.053,1.27.111,1.907.179.073,4.451,1.072,8.9.348,13.347a51.414,51.414,0,0,1-3.3,14.941c-2.742,6.753-7.56,12.869-14.052,16.335-2.37,1.13-4.711,2.684-7.429,2.7-.01-.594,0-1.178,0-1.762a28.41,28.41,0,0,0,16.051-11.272,40.386,40.386,0,0,0,6.748-21.032c.667-4.465-.381-8.95-.27-13.439" transform="translate(-2638.863 -2872.337)" fill="#fbfcff"/>
        <path id="Trazado_1047376" data-name="Trazado 1047376" d="M2172.107,3242.019c.956-3.089,1.776-6.218,2.621-9.336q5.387-.007,10.774-.034c-.893,3.085-1.714,6.189-2.549,9.293-3.615.033-7.231,0-10.847.077" transform="translate(-1939.1 -2885.875)" fill="#fff"/>
        <path id="Trazado_1047377" data-name="Trazado 1047377" d="M2376.729,3235.706a47.869,47.869,0,0,1,6.058-.106c7.805,0,15.616-.033,23.427.034a21.731,21.731,0,0,0,1.4,2.119c-10.417.039-20.834.092-31.251.034a5.691,5.691,0,0,1,.367-2.081" transform="translate(-2121.444 -2888.469)" fill="#b7bccd"/>
        <path id="Trazado_1047378" data-name="Trazado 1047378" d="M3016.963,3238.577a15.019,15.019,0,0,0,1.284-5.073c.338,2.2.985,4.764-.6,6.671-.652,1.154-2.375,2.081-1.7,3.6a9.378,9.378,0,0,1-1.067,8.187,18.715,18.715,0,0,1-4,3.2c-.169,2.858-.14,6.092-2.279,8.288-1.5,1.974-4.079,2.351-6.285,3.09.01-.406.029-1.217.039-1.622,2-1.1,4.542-1.772,5.638-3.978,1.246-2.085.826-4.6.782-6.9,2.076-1.2,4.518-2.409,5.3-4.866.97-2.38-.029-4.871-.589-7.207a15.993,15.993,0,0,0,3.481-3.389" transform="translate(-2680.247 -2886.638)" fill="#df8253"/>
        <path id="Trazado_1047379" data-name="Trazado 1047379" d="M1667.667,3268.054a92.178,92.178,0,0,0,17.359-2.095l.063-.01c-1.549,1.429-1.236,3.693-1.95,5.518a5.4,5.4,0,0,1-5.913,3.253,27.19,27.19,0,0,1-5.508-1.332c-2.143-.874-3.162-3.133-4.06-5.1Z" transform="translate(-1488.763 -2915.603)" fill="#252b4b"/>
        <path id="Trazado_1047380" data-name="Trazado 1047380" d="M1585.712,3278.712a9.8,9.8,0,0,1,4.282-1.6c.5.869,1.023,1.733,1.545,2.6.961,1.723,1.844,3.49,2.737,5.257.406,1.188.806,2.38,1.221,3.577-.179.338-.357.68-.521,1.038l-.637.15c.15-.2.444-.613.594-.816a96.623,96.623,0,0,1-9.22-10.2" transform="translate(-1415.609 -2925.565)" fill="#ce7c24"/>
        <path id="Trazado_1047381" data-name="Trazado 1047381" d="M1630.8,3282.824c1.245.048,2.5.1,3.746.241.043.2.135.6.179.806-.106,2.056-.208,4.123-.2,6.194-.893-1.767-1.776-3.533-2.737-5.257q-.507-1-.99-1.984" transform="translate(-1455.862 -2930.668)" fill="#202b60"/>
        <path id="Trazado_1047382" data-name="Trazado 1047382" d="M2389.639,3283.917a31.226,31.226,0,0,0,7.231-.328,15.037,15.037,0,0,0-2.737,2.39c-10.75.285-21.505.106-32.261.164.126-.7-.227-1.854.729-2.085a29.075,29.075,0,0,1,4.808-.135c7.41.019,14.82-.063,22.23,0" transform="translate(-2108.508 -2931.351)" fill="#b6bad3"/>
        <path id="Trazado_1047383" data-name="Trazado 1047383" d="M1520.712,3353.552c.908-1.4,2.747-.811,4.127-.806,1.052,1.26,2.158,3.181.835,4.663-1.028,1.825-3.476,1.376-5,.5-.739-1.323-1.163-3.157.039-4.354" transform="translate(-1356.908 -2992.977)" fill="#fefdfc"/>
        <path id="Trazado_1047384" data-name="Trazado 1047384" d="M1310.2,3425.179c5.643-4.306,11.571-8.221,17.277-12.44.743,4.711.125,9.486.444,14.221a4.3,4.3,0,0,0,3.046,3.93,17.017,17.017,0,0,0,3.5.231q9.08-.108,18.165-.029c.169,1.868,1.419,3.958,3.563,3.746q41.99.007,83.98,0c6.99-.077,13.989.178,20.965-.169a63.039,63.039,0,0,0,.121,6.753c.43,12.778.907,25.555,1.168,38.338q-86.362-.051-172.729,0c.183-13.748.656-27.5,1.062-41.239,6.483-4.33,12.778-8.95,19.28-13.237l.082-.048Z" transform="translate(-1151.352 -3046.646)" fill="#4e59b3"/>
        <path id="Trazado_1047385" data-name="Trazado 1047385" d="M1479.332,3528.815c.039-.029.116-.087.155-.111l-.072.063Z" transform="translate(-1320.64 -3150.172)" fill="#ae6e00"/>
        <path id="Trazado_1047386" data-name="Trazado 1047386" d="M156,4037.463c10-.058,20,.01,30-.01q45.321-.022,90.642-.019,86.362.029,172.729,0c28.732.043,57.464,0,86.2.024,13.893.01,27.786-.039,41.679,0,.652-.02,1.318.265,1.371,1.013.42,1.072-.9,1.81-1.82,1.617q-210.239-.051-420.474-.015c-1.665.357-1.965-2.558-.323-2.6" transform="translate(-138.291 -3604.315)" fill="#141415"/>
      </g>
    </g>
  </g>
</svg>
