<svg xmlns="http://www.w3.org/2000/svg" xmlns:xlink="http://www.w3.org/1999/xlink" width="505" height="441.291" viewBox="0 0 505 441.291">
  <defs>
    <clipPath id="clip-path">
      <rect id="Rectángulo_418589" data-name="Rectángulo 418589" width="505" height="441.291" transform="translate(180 3085)" fill="#193141" stroke="#707070" stroke-width="1" opacity="0.49"/>
    </clipPath>
    <filter id="Rectángulo_418571" x="38" y="-6" width="429" height="459" filterUnits="userSpaceOnUse">
      <feOffset dy="3" input="SourceAlpha"/>
      <feGaussianBlur stdDeviation="3" result="blur"/>
      <feFlood flood-opacity="0.161"/>
      <feComposite operator="in" in2="blur"/>
      <feComposite in="SourceGraphic"/>
    </filter>
    <clipPath id="clip-path-2">
      <rect id="Rectángulo_418864" data-name="Rectángulo 418864" width="471" height="471" transform="translate(-0.442 -0.687)" fill="none"/>
    </clipPath>
    <clipPath id="clip-path-3">
      <rect id="Rectángulo_418863" data-name="Rectángulo 418863" width="471" height="471" transform="translate(0 -0.245)" fill="none"/>
    </clipPath>
    <clipPath id="clip-path-4">
      <rect id="Rectángulo_418819" data-name="Rectángulo 418819" width="230.561" height="25.692" fill="none"/>
    </clipPath>
    <clipPath id="clip-path-5">
      <rect id="Rectángulo_418821" data-name="Rectángulo 418821" width="114.46" height="0.531" fill="none"/>
    </clipPath>
    <clipPath id="clip-path-6">
      <rect id="Rectángulo_418849" data-name="Rectángulo 418849" width="33.507" height="19.308" fill="none"/>
    </clipPath>
    <clipPath id="clip-path-7">
      <rect id="Rectángulo_418850" data-name="Rectángulo 418850" width="9.816" height="3.17" fill="none"/>
    </clipPath>
    <clipPath id="clip-path-8">
      <rect id="Rectángulo_418851" data-name="Rectángulo 418851" width="5.728" height="4.246" fill="none"/>
    </clipPath>
    <clipPath id="clip-path-9">
      <rect id="Rectángulo_418852" data-name="Rectángulo 418852" width="9.523" height="5.463" fill="none"/>
    </clipPath>
    <clipPath id="clip-path-10">
      <rect id="Rectángulo_418853" data-name="Rectángulo 418853" width="11.961" height="47.943" fill="none"/>
    </clipPath>
    <clipPath id="clip-path-11">
      <rect id="Rectángulo_418854" data-name="Rectángulo 418854" width="35.17" height="21.501" fill="none"/>
    </clipPath>
    <clipPath id="clip-path-12">
      <rect id="Rectángulo_418855" data-name="Rectángulo 418855" width="2.953" height="7.678" fill="none"/>
    </clipPath>
    <clipPath id="clip-path-14">
      <rect id="Rectángulo_418857" data-name="Rectángulo 418857" width="2.281" height="1.264" fill="none"/>
    </clipPath>
    <clipPath id="clip-path-15">
      <rect id="Rectángulo_418858" data-name="Rectángulo 418858" width="1.673" height="24.874" fill="none"/>
    </clipPath>
    <clipPath id="clip-path-16">
      <rect id="Rectángulo_418859" data-name="Rectángulo 418859" width="4.61" height="61.779" fill="none"/>
    </clipPath>
    <clipPath id="clip-path-17">
      <rect id="Rectángulo_418860" data-name="Rectángulo 418860" width="14.137" height="35.006" fill="none"/>
    </clipPath>
    <clipPath id="clip-path-18">
      <rect id="Rectángulo_418861" data-name="Rectángulo 418861" width="4.133" height="34.141" fill="none"/>
    </clipPath>
  </defs>
  <g id="Enmascarar_grupo_1098795" data-name="Enmascarar grupo 1098795" transform="translate(-180 -3085)" clip-path="url(#clip-path)">
    <g id="Grupo_1206698" data-name="Grupo 1206698" transform="translate(227.271 3085)">
      <g id="Grupo_1206697" data-name="Grupo 1206697">
        <g transform="matrix(1, 0, 0, 1, -47.27, 0)" filter="url(#Rectángulo_418571)">
          <rect id="Rectángulo_418571-2" data-name="Rectángulo 418571" width="411" height="441" rx="8" transform="translate(47)" fill="#56a8dd" opacity="0.39"/>
        </g>
      </g>
    </g>
    <g id="Grupo_1209365" data-name="Grupo 1209365" transform="translate(188.442 3066.442)">
      <g id="Grupo_1209364" data-name="Grupo 1209364" transform="translate(9 18.245)" clip-path="url(#clip-path-2)">
        <g id="Grupo_1209363" data-name="Grupo 1209363" transform="translate(-0.442 -0.442)">
          <g id="Grupo_1209362" data-name="Grupo 1209362" clip-path="url(#clip-path-3)">
            <path id="Trazado_1047388" data-name="Trazado 1047388" d="M209.4,854.076c12.737,5.863,19.953,25.791,14.091,38.528s-25.791,19.951-38.528,14.091-19.954-25.791-14.091-38.528,25.79-19.953,38.528-14.091m-1.3-30.7a57.844,57.844,0,0,0-15.416-.591l-7.8-11.993L162.69,819l1.874,14.181a57.792,57.792,0,0,0-11.328,10.479l-13.988-2.964-9.895,21.5,11.345,8.7a58.032,58.032,0,0,0-.59,15.419l-11.99,7.8,8.206,22.2,14.182-1.871a57.906,57.906,0,0,0,10.474,11.323l-2.957,13.989,21.5,9.9,8.7-11.345a58.014,58.014,0,0,0,15.418.587l7.8,11.993,22.2-8.206-1.874-14.181a58.069,58.069,0,0,0,11.325-10.478l13.99,2.963,9.895-21.5-11.348-8.7a57.9,57.9,0,0,0,.59-15.419l11.99-7.8L260,845.361l-14.182,1.871a57.917,57.917,0,0,0-10.474-11.323l2.96-13.99-21.5-9.9Z" transform="translate(-97.592 -619.867)" fill="#fff4db"/>
            <path id="Trazado_1047389" data-name="Trazado 1047389" d="M209.4,854.076c12.737,5.863,19.953,25.791,14.091,38.528s-25.791,19.951-38.528,14.091-19.954-25.791-14.091-38.528,25.79-19.953,38.528-14.091m-1.3-30.7a57.844,57.844,0,0,0-15.416-.591l-7.8-11.993L162.69,819l1.874,14.181a57.792,57.792,0,0,0-11.328,10.479l-13.988-2.964-9.895,21.5,11.345,8.7a58.032,58.032,0,0,0-.59,15.419l-11.99,7.8,8.206,22.2,14.182-1.871a57.906,57.906,0,0,0,10.474,11.323l-2.957,13.989,21.5,9.9,8.7-11.345a58.014,58.014,0,0,0,15.418.587l7.8,11.993,22.2-8.206-1.874-14.181a58.069,58.069,0,0,0,11.325-10.478l13.99,2.963,9.895-21.5-11.348-8.7a57.9,57.9,0,0,0,.59-15.419l11.99-7.8L260,845.361l-14.182,1.871a57.917,57.917,0,0,0-10.474-11.323l2.96-13.99-21.5-9.9Z" transform="translate(-97.592 -619.867)" fill="none" stroke="#fbdb98" stroke-linejoin="round" stroke-width="13.921"/>
            <path id="Trazado_1047390" data-name="Trazado 1047390" d="M1694.526,1356.242c4.655,2.142,7.292,9.425,5.149,14.079s-9.425,7.291-14.079,5.149-7.292-9.425-5.149-14.079,9.425-7.292,14.079-5.149m-.475-11.22a21.126,21.126,0,0,0-5.633-.216l-2.851-4.383-8.112,3,.685,5.182a21.121,21.121,0,0,0-4.14,3.829l-5.112-1.083-3.616,7.857,4.146,3.179a21.207,21.207,0,0,0-.215,5.635l-4.382,2.851,3,8.112,5.182-.684a21.162,21.162,0,0,0,3.828,4.138l-1.081,5.112,7.856,3.616,3.179-4.146a21.215,21.215,0,0,0,5.634.215l2.851,4.382,8.112-3-.684-5.182a21.225,21.225,0,0,0,4.138-3.829l5.113,1.083,3.616-7.857-4.147-3.178a21.152,21.152,0,0,0,.216-5.635l4.381-2.85-3-8.112-5.182.684A21.177,21.177,0,0,0,1704,1349.6l1.082-5.112-7.856-3.616Z" transform="translate(-1273.242 -1025.063)" fill="#fff4db"/>
            <path id="Trazado_1047391" data-name="Trazado 1047391" d="M1694.526,1356.242c4.655,2.142,7.292,9.425,5.149,14.079s-9.425,7.291-14.079,5.149-7.292-9.425-5.149-14.079,9.425-7.292,14.079-5.149m-.475-11.22a21.126,21.126,0,0,0-5.633-.216l-2.851-4.383-8.112,3,.685,5.182a21.121,21.121,0,0,0-4.14,3.829l-5.112-1.083-3.616,7.857,4.146,3.179a21.207,21.207,0,0,0-.215,5.635l-4.382,2.851,3,8.112,5.182-.684a21.162,21.162,0,0,0,3.828,4.138l-1.081,5.112,7.856,3.616,3.179-4.146a21.215,21.215,0,0,0,5.634.215l2.851,4.382,8.112-3-.684-5.182a21.225,21.225,0,0,0,4.138-3.829l5.113,1.083,3.616-7.857-4.147-3.178a21.152,21.152,0,0,0,.216-5.635l4.381-2.85-3-8.112-5.182.684A21.177,21.177,0,0,0,1704,1349.6l1.082-5.112-7.856-3.616Z" transform="translate(-1273.242 -1025.063)" fill="none" stroke="#fbdb98" stroke-linejoin="round" stroke-width="3.983"/>
            <path id="Trazado_1047392" data-name="Trazado 1047392" d="M1486.061,308.6a12.169,12.169,0,0,1,6.585,14.542l-2.259,7.627c-16.973,57.314-56.4,62.45-68.68,62.615a12.13,12.13,0,0,1-6.906-2.045c-10.21-6.825-40.482-32.6-23.509-89.916l2.252-7.605a12.2,12.2,0,0,1,13.6-8.566,76.377,76.377,0,0,0,36.535-3.165,12.159,12.159,0,0,1,13.47,3.884,79.57,79.57,0,0,0,28.912,22.629" transform="translate(-1060.104 -214.873)" fill="#fff4db"/>
            <path id="Trazado_1047393" data-name="Trazado 1047393" d="M1486.061,308.6a12.169,12.169,0,0,1,6.585,14.542l-2.259,7.627c-16.973,57.314-56.4,62.45-68.68,62.615a12.13,12.13,0,0,1-6.906-2.045c-10.21-6.825-40.482-32.6-23.509-89.916l2.252-7.605a12.2,12.2,0,0,1,13.6-8.566,76.377,76.377,0,0,0,36.535-3.165,12.159,12.159,0,0,1,13.47,3.884,79.57,79.57,0,0,0,28.912,22.629" transform="translate(-1060.104 -214.873)" fill="none" stroke="#fbdb98" stroke-linejoin="round" stroke-width="11.858"/>
            <path id="Trazado_1047394" data-name="Trazado 1047394" d="M673.592,635.613H416.824c-6.232,0-11.285-4.785-11.285-10.686V270.863c0-5.9,5.053-10.686,11.285-10.686H673.592c6.232,0,11.285,4.785,11.285,10.686V624.927c0,5.9-5.053,10.686-11.285,10.686" transform="translate(-309.832 -198.623)" fill="#d3d3d3"/>
            <path id="Trazado_1047395" data-name="Trazado 1047395" d="M673.592,635.613H416.824c-6.232,0-11.285-4.785-11.285-10.686V270.863c0-5.9,5.053-10.686,11.285-10.686H673.592c6.232,0,11.285,4.785,11.285,10.686V624.927c0,5.9-5.053,10.686-11.285,10.686" transform="translate(-309.832 -198.623)" fill="none" stroke="#364049" stroke-linejoin="round" stroke-width="1.09"/>
            <path id="Trazado_1047396" data-name="Trazado 1047396" d="M714.965,311.713v351.7H460.726V311.741H714.311Z" transform="translate(-352.052 -238.05)" fill="#fff" fill-rule="evenodd"/>
            <path id="Trazado_1047397" data-name="Trazado 1047397" d="M714.965,311.713v351.7H460.726V311.741H714.311Z" transform="translate(-352.052 -238.05)" fill="none" stroke="#364049" stroke-linejoin="round" stroke-width="2.218"/>
            <g id="Grupo_1209319" data-name="Grupo 1209319" transform="translate(120.512 56.541)" opacity="0.15">
              <g id="Grupo_1209318" data-name="Grupo 1209318">
                <g id="Grupo_1209317" data-name="Grupo 1209317" clip-path="url(#clip-path-4)">
                  <path id="Trazado_1047398" data-name="Trazado 1047398" d="M511.113,238.836v24.026l230.561,1.666-3.669-25.692Z" transform="translate(-511.113 -238.837)"/>
                </g>
              </g>
            </g>
            <path id="Trazado_1047399" data-name="Trazado 1047399" d="M731.644,182.037H681.789l2.059-2.74c2.273-3.025-.1-7.132-4.13-7.132H569.4c-4.022,0-6.4,4.1-4.133,7.128l2.058,2.744H517.475a6.1,6.1,0,0,0-6.362,5.793v22.118H738.006V187.83a6.1,6.1,0,0,0-6.362-5.793" transform="translate(-390.601 -131.29)" fill="#434d56"/>
            <g id="Grupo_1209322" data-name="Grupo 1209322" transform="translate(176.729 50.482)" opacity="0.15">
              <g id="Grupo_1209321" data-name="Grupo 1209321">
                <g id="Grupo_1209320" data-name="Grupo 1209320" clip-path="url(#clip-path-5)">
                  <rect id="Rectángulo_418820" data-name="Rectángulo 418820" width="114.46" height="0.53" transform="translate(0 0)"/>
                </g>
              </g>
            </g>
            <rect id="Rectángulo_418822" data-name="Rectángulo 418822" width="220.764" height="3.656" transform="translate(124.997 153.159)" fill="#c4c4c4"/>
            <rect id="Rectángulo_418823" data-name="Rectángulo 418823" width="220.765" height="3.656" transform="translate(124.994 142.964)" fill="#c4c4c4"/>
            <rect id="Rectángulo_418824" data-name="Rectángulo 418824" width="149.068" height="3.656" transform="translate(124.996 163.353)" fill="#c4c4c4"/>
            <rect id="Rectángulo_418825" data-name="Rectángulo 418825" width="220.764" height="3.656" transform="translate(124.997 398.438)" fill="#c4c4c4"/>
            <rect id="Rectángulo_418826" data-name="Rectángulo 418826" width="220.765" height="3.656" transform="translate(124.994 387.702)" fill="#c4c4c4"/>
            <rect id="Rectángulo_418827" data-name="Rectángulo 418827" width="149.068" height="3.656" transform="translate(124.996 409.007)" fill="#c4c4c4"/>
            <path id="Rectángulo_418828" data-name="Rectángulo 418828" d="M15.507,0h0A15.506,15.506,0,0,1,31.013,15.506v1.742A15.506,15.506,0,0,1,15.507,32.754h0A15.507,15.507,0,0,1,0,17.247v-1.74A15.507,15.507,0,0,1,15.507,0Z" transform="translate(124.163 174.544)" fill="none" stroke="#c4c4c4" stroke-miterlimit="9.852" stroke-width="4.808"/>
            <rect id="Rectángulo_418829" data-name="Rectángulo 418829" width="181.985" height="3.133" transform="translate(163.048 193.316)" fill="#c4c4c4"/>
            <rect id="Rectángulo_418830" data-name="Rectángulo 418830" width="77.668" height="3.133" transform="translate(163.047 202.375)" fill="#c4c4c4"/>
            <rect id="Rectángulo_418831" data-name="Rectángulo 418831" width="181.985" height="11.723" transform="translate(163.048 175.976)" fill="#c4c4c4"/>
            <rect id="Rectángulo_418832" data-name="Rectángulo 418832" width="31.013" height="32.754" rx="15.507" transform="translate(124.163 217.414)" fill="none" stroke="#c4c4c4" stroke-miterlimit="9.852" stroke-width="4.808"/>
            <rect id="Rectángulo_418833" data-name="Rectángulo 418833" width="181.985" height="3.133" transform="translate(163.048 235.816)" fill="#c4c4c4"/>
            <rect id="Rectángulo_418834" data-name="Rectángulo 418834" width="110.181" height="3.133" transform="translate(163.047 244.874)" fill="#c4c4c4"/>
            <rect id="Rectángulo_418835" data-name="Rectángulo 418835" width="181.985" height="11.723" transform="translate(163.048 218.846)" fill="#c4c4c4"/>
            <rect id="Rectángulo_418836" data-name="Rectángulo 418836" width="31.013" height="32.755" rx="15.507" transform="translate(124.163 260.284)" fill="none" stroke="#c4c4c4" stroke-miterlimit="9.852" stroke-width="4.808"/>
            <rect id="Rectángulo_418837" data-name="Rectángulo 418837" width="181.985" height="3.133" transform="translate(163.048 278.092)" fill="#c4c4c4"/>
            <rect id="Rectángulo_418838" data-name="Rectángulo 418838" width="44.093" height="3.133" transform="translate(163.047 287.151)" fill="#c4c4c4"/>
            <rect id="Rectángulo_418839" data-name="Rectángulo 418839" width="181.985" height="11.723" transform="translate(163.048 261.715)" fill="#c4c4c4"/>
            <rect id="Rectángulo_418840" data-name="Rectángulo 418840" width="31.013" height="32.755" rx="15.507" transform="translate(124.163 303.153)" fill="none" stroke="#c4c4c4" stroke-miterlimit="9.852" stroke-width="4.808"/>
            <rect id="Rectángulo_418841" data-name="Rectángulo 418841" width="181.985" height="3.133" transform="translate(163.048 320.962)" fill="#c4c4c4"/>
            <rect id="Rectángulo_418842" data-name="Rectángulo 418842" width="44.093" height="3.133" transform="translate(163.047 330.021)" fill="#c4c4c4"/>
            <rect id="Rectángulo_418843" data-name="Rectángulo 418843" width="181.985" height="11.723" transform="translate(163.048 304.585)" fill="#c4c4c4"/>
            <rect id="Rectángulo_418844" data-name="Rectángulo 418844" width="31.013" height="32.755" rx="15.507" transform="translate(124.163 346.023)" fill="none" stroke="#c4c4c4" stroke-miterlimit="9.852" stroke-width="4.808"/>
            <rect id="Rectángulo_418845" data-name="Rectángulo 418845" width="181.985" height="3.133" transform="translate(163.048 363.831)" fill="#c4c4c4"/>
            <rect id="Rectángulo_418846" data-name="Rectángulo 418846" width="44.093" height="3.133" transform="translate(163.047 372.89)" fill="#c4c4c4"/>
            <rect id="Rectángulo_418847" data-name="Rectángulo 418847" width="181.985" height="11.723" transform="translate(163.048 347.454)" fill="#c4c4c4"/>
            <path id="Trazado_1047400" data-name="Trazado 1047400" d="M560.28,756.862l-10.76,15.618L542.662,767l-3.341,4.118,10.816,9.833,14.521-21.076Z" transform="translate(-412.181 -578.61)" fill="#d49207"/>
            <path id="Trazado_1047401" data-name="Trazado 1047401" d="M560.28,940.13l-10.76,15.617-6.858-5.48-3.341,4.118,10.816,9.833,14.521-21.076Z" transform="translate(-412.181 -718.819)" fill="#d49207"/>
            <path id="Trazado_1047402" data-name="Trazado 1047402" d="M560.28,1306.668l-10.76,15.618-6.858-5.48-3.341,4.119,10.816,9.833,14.521-21.076Z" transform="translate(-412.181 -999.238)" fill="#d49207"/>
            <path id="Trazado_1047403" data-name="Trazado 1047403" d="M560.28,1123.4l-10.76,15.618-6.858-5.48-3.341,4.119,10.816,9.833,14.521-21.076Z" transform="translate(-412.181 -859.03)" fill="#d49207"/>
            <path id="Trazado_1047404" data-name="Trazado 1047404" d="M560.28,1489.935l-10.76,15.618-6.858-5.48-3.341,4.118,10.816,9.833,14.521-21.076Z" transform="translate(-412.181 -1139.446)" fill="#d49207"/>
            <path id="Trazado_1047405" data-name="Trazado 1047405" d="M643.818,524.335l-3.371-4.833a5.711,5.711,0,0,1-.637.024h-3.725v4.81H633.02v-16.5h6.79c4.338,0,7.026,2.216,7.026,5.871a5.276,5.276,0,0,1-3.513,5.21l3.8,5.422Zm-4.149-13.91h-3.583V517h3.583c2.688,0,4.079-1.226,4.079-3.3s-1.391-3.277-4.079-3.277" transform="translate(-483.865 -388.09)" fill="#d49207"/>
            <path id="Trazado_1047406" data-name="Trazado 1047406" d="M718.745,521.765v2.57H706.368v-16.5h12.047v2.57h-8.983v4.29H717.4v2.523h-7.969v4.55Z" transform="translate(-539.98 -388.09)" fill="#d49207"/>
            <path id="Trazado_1047407" data-name="Trazado 1047407" d="M780.728,515.128h2.9v6.578a10.448,10.448,0,0,1-6.46,2.1c-5.116,0-8.888-3.56-8.888-8.487s3.772-8.487,8.935-8.487a8.525,8.525,0,0,1,6.625,2.688l-1.933,1.886a6.125,6.125,0,0,0-4.55-1.886,5.8,5.8,0,1,0-.023,11.6,6.668,6.668,0,0,0,3.395-.849Z" transform="translate(-587.346 -387.323)" fill="#d49207"/>
            <path id="Trazado_1047408" data-name="Trazado 1047408" d="M850.156,517.144v-9.312h3.065v9.195c0,3.395,1.533,4.856,4.2,4.856s4.173-1.462,4.173-4.856v-9.195h3.017v9.312c0,4.81-2.711,7.426-7.214,7.426-4.526,0-7.238-2.617-7.238-7.426" transform="translate(-649.985 -388.09)" fill="#d49207"/>
            <path id="Trazado_1047409" data-name="Trazado 1047409" d="M929.925,507.832h3.065v13.91h8.629v2.593H929.925Z" transform="translate(-711.012 -388.09)" fill="#d49207"/>
            <path id="Trazado_1047410" data-name="Trazado 1047410" d="M993.636,520.516h-8.251l-1.627,3.819H980.6l7.426-16.5h3.017l7.45,16.5h-3.206Zm-1.014-2.4-3.112-7.214-3.089,7.214Z" transform="translate(-749.78 -388.09)" fill="#d49207"/>
            <path id="Trazado_1047411" data-name="Trazado 1047411" d="M1058.614,510.425h-5.47v-2.593h14v2.593h-5.47v13.91h-3.065Z" transform="translate(-805.281 -388.09)" fill="#d49207"/>
            <rect id="Rectángulo_418848" data-name="Rectángulo 418848" width="3.065" height="16.503" transform="translate(264.178 119.742)" fill="#d49207"/>
            <path id="Trazado_1047412" data-name="Trazado 1047412" d="M1149.569,515.316c0-4.88,3.772-8.487,8.888-8.487s8.888,3.583,8.888,8.487-3.772,8.487-8.888,8.487-8.888-3.607-8.888-8.487m14.688,0a5.8,5.8,0,1,0-5.8,5.8,5.624,5.624,0,0,0,5.8-5.8" transform="translate(-879.05 -387.323)" fill="#d49207"/>
            <path id="Trazado_1047413" data-name="Trazado 1047413" d="M1253.736,507.832v16.5h-2.522l-9.1-11.175v11.175h-3.041v-16.5h2.523l9.1,11.175V507.832Z" transform="translate(-947.524 -388.09)" fill="#d49207"/>
            <path id="Trazado_1047414" data-name="Trazado 1047414" d="M1314.428,521.823l1.061-2.381a9.144,9.144,0,0,0,5.446,1.815c2.57,0,3.655-.92,3.655-2.146,0-3.56-9.807-1.226-9.807-7.355,0-2.664,2.122-4.927,6.648-4.927a10.434,10.434,0,0,1,5.493,1.462l-.967,2.381a9.169,9.169,0,0,0-4.55-1.3c-2.546,0-3.584.99-3.584,2.24,0,3.513,9.784,1.226,9.784,7.285,0,2.64-2.146,4.9-6.672,4.9a10.634,10.634,0,0,1-6.507-1.98" transform="translate(-1005.175 -387.323)" fill="#d49207"/>
            <path id="Trazado_1047415" data-name="Trazado 1047415" d="M742.974,415.734l1.948-4.376a13.234,13.234,0,0,0,6.924,2.068c2.458,0,3.417-.69,3.417-1.709,0-3.327-11.93-.9-11.93-8.693,0-3.747,3.057-6.8,9.292-6.8a15.711,15.711,0,0,1,7.614,1.829l-1.828,4.406a12.4,12.4,0,0,0-5.815-1.619c-2.488,0-3.387.839-3.387,1.889,0,3.207,11.9.809,11.9,8.543,0,3.657-3.057,6.774-9.292,6.774a16.525,16.525,0,0,1-8.843-2.308" transform="translate(-567.985 -302.702)" fill="#d49207"/>
            <path id="Trazado_1047416" data-name="Trazado 1047416" d="M837.628,414.913h-8.873l-1.648,4.077h-6.055l9.262-20.982h5.845l9.292,20.982h-6.175Zm-1.739-4.376-2.7-6.714-2.7,6.714Z" transform="translate(-627.719 -304.069)" fill="#d49207"/>
            <path id="Trazado_1047417" data-name="Trazado 1047417" d="M937.981,402.592v4.616h9.262v4.586h-9.262v7.194h-5.935V398.006H948.5v4.586Z" transform="translate(-712.634 -304.068)" fill="#d49207"/>
            <path id="Trazado_1047418" data-name="Trazado 1047418" d="M1030.8,414.4v4.586h-16.846V398.006h16.456v4.586h-10.581v3.537h9.322v4.436h-9.322V414.4Z" transform="translate(-775.297 -304.068)" fill="#d49207"/>
            <path id="Trazado_1047419" data-name="Trazado 1047419" d="M1097.71,402.712h-6.444v-4.706h18.794v4.706h-6.415v16.276h-5.935Z" transform="translate(-834.445 -304.069)" fill="#d49207"/>
            <path id="Trazado_1047420" data-name="Trazado 1047420" d="M1180.988,411.465v7.524h-5.935v-7.613l-8-13.369h6.265l4.976,8.333,4.976-8.333h5.755Z" transform="translate(-892.423 -304.068)" fill="#d49207"/>
            <path id="Trazado_1047421" data-name="Trazado 1047421" d="M175.488,203.685a13.364,13.364,0,0,0-11.468,13.259v8.735c0,65.643,39.914,83.345,52.793,87.348a13.321,13.321,0,0,0,7.909,0c12.879-4,52.792-21.7,52.792-87.348v-8.711a13.4,13.4,0,0,0-11.648-13.26,83.872,83.872,0,0,1-37.482-14.725,13.353,13.353,0,0,0-15.4-.11,87.387,87.387,0,0,1-37.5,14.812" transform="translate(-125.058 -142.245)" fill="#fbdb98"/>
            <path id="Trazado_1047422" data-name="Trazado 1047422" d="M206.157,238.112a11.582,11.582,0,0,0-9.939,11.492v7.57c0,56.892,34.592,71.928,45.754,75.4a11.544,11.544,0,0,0,6.855,0c11.162-3.47,45.754-18.506,45.754-75.4v-7.549a11.61,11.61,0,0,0-10.1-11.492A72.688,72.688,0,0,1,252,225.37a11.573,11.573,0,0,0-13.343-.1,75.737,75.737,0,0,1-32.5,12.838" transform="translate(-149.691 -170.337)" fill="#d49207"/>
            <path id="Trazado_1047423" data-name="Trazado 1047423" d="M206.157,238.112a11.582,11.582,0,0,0-9.939,11.492v7.57c0,56.892,34.592,71.928,45.754,75.4a11.544,11.544,0,0,0,6.855,0c11.162-3.47,45.754-18.506,45.754-75.4v-7.549a11.61,11.61,0,0,0-10.1-11.492A72.688,72.688,0,0,1,252,225.37a11.573,11.573,0,0,0-13.343-.1,75.737,75.737,0,0,1-32.5,12.838" transform="translate(-149.691 -170.337)" fill="none" stroke="#b47c06" stroke-linejoin="round" stroke-width="15.386"/>
            <path id="Trazado_1047424" data-name="Trazado 1047424" d="M275.013,375.927,285.59,365.35,301.2,380.961l24.569-24.569,10.578,10.577L301.2,402.116Z" transform="translate(-209.973 -272.232)" fill="#fff4db" fill-rule="evenodd"/>
            <path id="Trazado_1047425" data-name="Trazado 1047425" d="M135.345,1422.309a7.848,7.848,0,0,1-5.516-5.263c-1.565-5.038-3.288-14.036.961-21.593,0,0-3.736-23.221,2.8-41.229,0,0-.93-32.982,23.3-47.749,24.05-14.658,99.261-44.875,141.292,54.907a3.65,3.65,0,0,0,2.807,2.194c2.044.327,5.814,1.9,11.551,7.85,9.294,9.641,15.795,13.858-1.686,26.015s-33.149,20.531-40.479,23.657c-6.5,2.773-10.8,6.29-26.121-1.24-7.251-3.564-81.487,9.515-108.906,2.452" transform="translate(-97.593 -986.86)" fill="#d49207" fill-rule="evenodd"/>
            <path id="Trazado_1047426" data-name="Trazado 1047426" d="M851.892,1592.15a.068.068,0,0,0,.007.017,3.651,3.651,0,0,0,2.807,2.194c.081.013.164.029.252.046a12.311,12.311,0,0,1,1,9.015c-.586-.73-1.763-4.935-2.806-7.791-.394-1.079-.94-2.456-1.256-3.481" transform="translate(-651.313 -1217.645)" fill="#bf8406" fill-rule="evenodd"/>
            <path id="Trazado_1047427" data-name="Trazado 1047427" d="M320.27,1415.443c-.27-1.378-.624-2.662-1.472-5.707-.34-1.219-.618-2.162-.618-2.162.028-.083.09-.154.117-.237.069.076.188.093.257.168,0,0,.454,1.2.968,2.657.354,1,1.256,3.742,1.6,5.234.059.257.013.314-.29.712a37.155,37.155,0,0,1-5.221,5.19c-6.946,5.741-15.226,9.506-19.54,11.3-.023.01-.252.106-.289.115a.441.441,0,0,1-.51-.276c-.092-.223-.057-.235-1.076-2.817-6.8-17.25-33.35-76.8-71.56-81.739-44.216-5.712-64.949,26.63-69.515,48.077a5.012,5.012,0,0,1-.105.508c-.066.024-.141-.065-.208-.041a65.453,65.453,0,0,1,20.825-36c17.15-14.829,36.792-14.563,46.125-13.728a45.207,45.207,0,0,1,12.99,2.875c37.262,14.235,61.1,76.551,63.184,82.141a84.4,84.4,0,0,0,15.78-8.535c5.623-3.96,8.082-7.094,8.555-7.734" transform="translate(-116.483 -1029.62)" fill="#434d56" fill-rule="evenodd"/>
            <path id="Trazado_1047428" data-name="Trazado 1047428" d="M295.9,1433.45c-4.538.567-9.075,1.15-13.613,1.718a.374.374,0,0,1-.3-.19c-.032-.059-1.18-3.645-3.483-9.582-9.38-24.2-30.635-68.6-58.012-71.71-20.7-2.349-33.554,3.576-39.713,7.146-18.51,10.728-25.53,29.522-27.247,35.186-.066.217-.225.625-.4,1.209a.054.054,0,0,1-.106-.024l.016-.085c0-.012.017-.1.041-.21a62.407,62.407,0,0,1,2.576-8.969c7.5-20.269,28.052-44.772,67.094-39.941,44.718,5.533,73.441,84.814,73.469,84.923a.318.318,0,0,1,.019.192.415.415,0,0,1-.219.3c-.041.015-.083.021-.124.037m-142.2-38.746c2.867-8.792,17.851-46.9,66.609-41.785,8.416.883,22.935,6.065,40.166,33.853,11.545,18.619,19.537,40,22.15,47.872l-.269.089,12.954-2c-4.368-11.773-31.774-79.146-72.6-84.334-9.745-1.238-29.816-2.227-47.529,12.176a65.277,65.277,0,0,0-21.477,34.127" transform="translate(-116.645 -1030.385)" fill="#434d56" fill-rule="evenodd"/>
            <path id="Trazado_1047429" data-name="Trazado 1047429" d="M155.881,1395.911a65.277,65.277,0,0,1,21.477-34.127c17.713-14.4,37.784-13.414,47.529-12.176,40.829,5.188,68.235,72.56,72.6,84.334l-12.954,2,.269-.089c-2.613-7.874-10.6-29.253-22.15-47.872-17.231-27.788-31.75-32.971-40.166-33.854-48.758-5.113-63.742,32.993-66.609,41.785" transform="translate(-118.831 -1031.592)" fill="#b47c06" fill-rule="evenodd"/>
            <path id="Trazado_1047430" data-name="Trazado 1047430" d="M589.018,1718.269c-.1.159-.053.39-.157.55a67.883,67.883,0,0,1-8.836,4.62,77.793,77.793,0,0,1-26.261,6.57c-.081.005-.228.037-.24-.117-.006-.064.062-.125.123-.145a80.9,80.9,0,0,0,18.018-4.01,90.749,90.749,0,0,0,14.8-6.395c.15-.084,1.074-.594,1.862-1.079.057-.035.1-.107.17-.107.269,0,.249.111.52.114" transform="translate(-423.046 -1314.045)" fill="#434d56" fill-rule="evenodd"/>
            <path id="Trazado_1047431" data-name="Trazado 1047431" d="M142.794,1741.476c.061.041.148.034.209.075.15.1.88,2.844,6.157,5.255,5.7,2.6,19.727,6.568,63.765,3.054,8.034-.64,15.861-1.468,20.97-2.116a.682.682,0,0,1,.239-.031c.071.018.1.116.176.134-.12.035-.2.169-.317.2-.106.031-17.292,2.593-35.212,3.567-25.264,1.376-50.218-.233-55.61-9.091a6.087,6.087,0,0,1-.454-.843c.006-.074.069-.136.075-.21" transform="translate(-108.762 -1331.886)" fill="#434d56" fill-rule="evenodd"/>
            <path id="Trazado_1047432" data-name="Trazado 1047432" d="M221.833,1717.051l2.063,16.835a.284.284,0,0,1-.285.32l-33.132-.272a.286.286,0,0,1-.281-.253l-1.888-16.556a.287.287,0,0,1,.283-.318l32.957-.005a.285.285,0,0,1,.283.25m-.536.321-32.384.006,1.823,15.988,32.555.267Z" transform="translate(-143.64 -1313.009)" fill="#434d56" fill-rule="evenodd"/>
            <path id="Trazado_1047433" data-name="Trazado 1047433" d="M192.943,1697.841l32.957-.007a.287.287,0,0,1,.284.259l1.922,19.965a.284.284,0,0,1-.2.3l-4.208,1.326a.284.284,0,0,1-.369-.237l-2.033-16.584-32.7.006a.285.285,0,0,1-.2-.484l4.349-4.455a.289.289,0,0,1,.2-.087m.12.571-3.792,3.885,32.279-.006a.285.285,0,0,1,.283.25l2.022,16.5,3.66-1.154-1.875-19.477Z" transform="translate(-143.64 -1298.498)" fill="#434d56" fill-rule="evenodd"/>
            <path id="Trazado_1047434" data-name="Trazado 1047434" d="M225.261,1735.491l-32.555-.267-1.823-15.988,32.384-.006Z" transform="translate(-145.61 -1314.867)" fill="#d49207" fill-rule="evenodd"/>
            <path id="Trazado_1047435" data-name="Trazado 1047435" d="M192.406,1704.155l3.792-3.885,32.577-.007-3.807,4.136a.285.285,0,0,0-.283-.25Z" transform="translate(-146.775 -1300.357)" fill="#daa22c" fill-rule="evenodd"/>
            <path id="Trazado_1047436" data-name="Trazado 1047436" d="M331,1704.4l3.807-4.136,1.875,19.477-3.66,1.154Z" transform="translate(-252.804 -1300.357)" fill="#d49207" fill-rule="evenodd"/>
            <path id="Trazado_1047437" data-name="Trazado 1047437" d="M134.444,1694.265c.087.062.208.06.3.121.031.021.371,1.331,2.949,2.576,2.082,1.006,11.4,5.581,58.828,3.5,12.735-.559,28.1-1.639,38.562-2.812,18.753-2.107,23.291,6.5,33.023,4.566,9.149-1.821,36.036-19.861,49.121-28.449.9-.591,8.605-5.34,5.361-12.205a7.759,7.759,0,0,0-.742-1.239c-.019-.027-.056-.044-.059-.076-.012-.16.041-.157.029-.317.108.031.227.018.336.05.02.006,6.129,7.086-4.2,14.333-2.367,1.66-7.766,5.347-8.444,5.811-24.225,16.544-36.233,22.888-41.826,23.739-9.817,1.5-14.521-6.64-32.029-4.874-.861.087-8.885,1-25.1,1.917-28.593,1.61-44.488.815-48.351.621-10.3-.516-25.591-1.945-27.811-6.823-.021-.047-.068-.089-.062-.14.022-.161.1-.136.12-.3" transform="translate(-102.339 -1269.5)" fill="#434d56" fill-rule="evenodd"/>
            <path id="Trazado_1047438" data-name="Trazado 1047438" d="M447.922,1297.5s48.849-10.187,85.588,52.667c0,0-36.988-56.307-85.588-52.667" transform="translate(-342.257 -991.758)" fill="#daa22c" fill-rule="evenodd"/>
            <path id="Trazado_1047439" data-name="Trazado 1047439" d="M885.431,1662.107s16.983-7.972,5.574-18.186c-5.059-4.529-1.54,2.486-2.512,7.24-1.219,5.967-5.937,10.7-3.063,10.946" transform="translate(-676.273 -1256.135)" fill="#daa22c" fill-rule="evenodd"/>
            <path id="Trazado_1047440" data-name="Trazado 1047440" d="M201.477,1830.781c-22.8,1.928-48.028,3.4-61.668-.115a7.848,7.848,0,0,1-5.516-5.263c-.113-.362-.226-.745-.338-1.147,2.1,1.688,5.83,3.557,12.479,4.833,11.994,2.3,40.695,2.01,55.043,1.692" transform="translate(-102.057 -1395.218)" fill="#bf8406" fill-rule="evenodd"/>
            <path id="Trazado_1047441" data-name="Trazado 1047441" d="M1604.024,630.333s-15.747,11.015-20.979,7.7-4.226-3.61-4.226-3.61,7.125-2.1,7.558-3.5a20.78,20.78,0,0,0,.252-3.827c.032-2.818-.06-6.084-.06-6.084l16.548-8.61s-.032.39-.078,1.038v0a44.165,44.165,0,0,0-.1,7.579c.342,3.846,1.084,9.317,1.084,9.317" transform="translate(-1207.386 -468.088)" fill="#fbc0a4"/>
            <path id="Trazado_1047442" data-name="Trazado 1047442" d="M1628.6,612.4s-.032.39-.078,1.038c0,0,0,0,0,0-2.949,10.736-10.983,12.4-12.743,12.538a11.347,11.347,0,0,0-3.666,1.116c.032-2.819-.06-6.084-.06-6.084Z" transform="translate(-1232.873 -468.088)" fill="#f69d7d"/>
            <path id="Trazado_1047443" data-name="Trazado 1047443" d="M1602.763,518.943c-.316-9.118-6.193-21.314-13.914-21.544s-10.825.873-11.357,9.981c-.934,15.99.114,19.017,2.29,23.264,1.579,3.084,5.678,5.138,7.469,5.192,9.367.279,15.819-8.015,15.511-16.893" transform="translate(-1206.17 -380.088)" fill="#fbc0a4"/>
            <path id="Trazado_1047444" data-name="Trazado 1047444" d="M1686.254,582.286a2.011,2.011,0,0,1-2.738.327c-.885-1.98.383-5.264.383-5.264,0-1.79,1.458-4.359,3.843-3.441a3.909,3.909,0,0,1,.706.36c2.8,1.774-.236,6.173-2.193,8.018" transform="translate(-1287.304 -438.495)" fill="#fbc0a4"/>
            <path id="Trazado_1047445" data-name="Trazado 1047445" d="M1693.405,581.97a3.593,3.593,0,0,1-1.19,2.867,4.106,4.106,0,0,1-1.33,1.187c-.291.155-.551.158-.661-.153s.132-.6.321-.857.776-.727.528-.928c-.115-.094-.37-.323-.321-.566.063-.317.088-.51.148-.827a3.4,3.4,0,0,1,.4-1.077,1.212,1.212,0,0,1,1.062-.657,1.394,1.394,0,0,1,1.044,1.011" transform="translate(-1292.656 -444.032)" fill="#f69d7d"/>
            <path id="Trazado_1047446" data-name="Trazado 1047446" d="M1677.243,509.15c0,.133-.012.279-.025.44-.054.706.492,1.534.191,2.819a56.977,56.977,0,0,0-1.7,11.308c-2.385-.918-3.842,1.651-3.843,3.441,0,0-.528-6.906-4.155-9.03a14.171,14.171,0,0,1,.073-2.444,4.547,4.547,0,0,0,.027-.805c0-.11-.009-.226-.016-.346-.075-1.255-.32-2.89-.32-2.89l9.728-3.532a4.943,4.943,0,0,1,.038,1.04" transform="translate(-1275.274 -388.303)" fill="#2d2525"/>
            <path id="Trazado_1047447" data-name="Trazado 1047447" d="M1604.859,473.062c-2,1.614-4.93,4.7-9.446,5.046,0,0-.848.022-2.183-.066-.778-.051-1.722-.14-2.759-.294-3.263-.483-10.8,1.8-15.405.425l-.054-.016q-.671-.2-1.294-.432c-3.833-1.42,6.395-16.218,7.879-16.223s1.123-1.2,3.589-.931c1.894.209,5.794-.341,9.206.117a11.267,11.267,0,0,1,2.885.738" transform="translate(-1202.89 -351.879)" fill="#3e3533"/>
            <path id="Trazado_1047448" data-name="Trazado 1047448" d="M1577.982,530.576a1.141,1.141,0,0,0-.433.487,13.8,13.8,0,0,0-.845,1.84,11.632,11.632,0,0,1-.449-2.272c-.061-.574-.075-.978-.075-.978s2.269.77,1.8.922" transform="translate(-1205.427 -404.785)" fill="#3e3533"/>
            <g id="Grupo_1209325" data-name="Grupo 1209325" transform="translate(368.462 108.809)" opacity="0.15">
              <g id="Grupo_1209324" data-name="Grupo 1209324">
                <g id="Grupo_1209323" data-name="Grupo 1209323" clip-path="url(#clip-path-6)">
                  <path id="Trazado_1047449" data-name="Trazado 1047449" d="M1599.938,473.674c-2,1.614-4.93,4.7-9.446,5.046,0,0-.848.022-2.183-.066-.778-.051-1.722-.14-2.759-.294-3.263-.483-10.8,1.8-15.405.425l-.054-.016a13.811,13.811,0,0,0-.845,1.84,11.677,11.677,0,0,1-.449-2.272c-2.893-1.169-4.025-4.566,1.882-3.152,0,0-2.152-1.009-2.519-2.325.055.07,1.834,2.359,6.934,3.065,0,0-6.167-3.9,1.323-.592-.055-.041-1.806-1.348-1.807-2.079a4.919,4.919,0,0,0,4.891,1.406s-4.37-2.277-5.549-4.256c0,0,5.352,4.07,9.519,4.06s5.92.086,10.025-.873c0,0-7.708-1.288-10.147-4.132,0,0,3.193,2.415,9.444,2.017,0,0-12.016-4.558-14.036-9.34.162.318,2.484,4.467,15.005,7.026,10.278,2.1,2.042-4.773-4.291-7.862a11.267,11.267,0,0,1,2.885.738" transform="translate(-1566.432 -461.299)"/>
                </g>
              </g>
            </g>
            <g id="Grupo_1209328" data-name="Grupo 1209328" transform="translate(378.99 118.266)" opacity="0.3">
              <g id="Grupo_1209327" data-name="Grupo 1209327">
                <g id="Grupo_1209326" data-name="Grupo 1209326" clip-path="url(#clip-path-7)">
                  <path id="Trazado_1047450" data-name="Trazado 1047450" d="M1611.239,501.547s3.353,3.118,9.817,3.085a12.62,12.62,0,0,1-9.817-3.085" transform="translate(-1611.239 -501.548)"/>
                </g>
              </g>
            </g>
            <g id="Grupo_1209331" data-name="Grupo 1209331" transform="translate(383.099 116.384)" opacity="0.3">
              <g id="Grupo_1209330" data-name="Grupo 1209330">
                <g id="Grupo_1209329" data-name="Grupo 1209329" clip-path="url(#clip-path-8)">
                  <path id="Trazado_1047451" data-name="Trazado 1047451" d="M1628.731,493.538s.985,3.2,5.729,4.247c0,0-4.4-.424-5.729-4.247" transform="translate(-1628.731 -493.538)"/>
                </g>
              </g>
            </g>
            <g id="Grupo_1209334" data-name="Grupo 1209334" transform="translate(392.523 121.116)" opacity="0.15">
              <g id="Grupo_1209333" data-name="Grupo 1209333">
                <g id="Grupo_1209332" data-name="Grupo 1209332" clip-path="url(#clip-path-9)">
                  <path id="Trazado_1047452" data-name="Trazado 1047452" d="M1678.283,513.763c0,.134-.012.28-.025.44-.973.64-1.367,1.552-4.074,3.144-3.331,1.959-5.332,1.8-5.332,1.8,0-.11-.009-.226-.016-.346,4.516-.348,7.45-3.432,9.446-5.046.25-.2-.2.135,0,.012" transform="translate(-1668.838 -513.684)"/>
                </g>
              </g>
            </g>
            <path id="Trazado_1047453" data-name="Trazado 1047453" d="M1615.741,626.373c-.132-.138-.583.021-1.255.211a8.753,8.753,0,0,1-5.21.016c-.672-.186-1.122-.343-1.255-.2-.062.067-.034.2.093.378a2.649,2.649,0,0,0,.685.62,4.965,4.965,0,0,0,1.293.6,6.058,6.058,0,0,0,3.573-.011,5.019,5.019,0,0,0,1.295-.609,2.678,2.678,0,0,0,.687-.625c.127-.18.157-.312.094-.378" transform="translate(-1229.763 -478.74)" fill="#3e3533"/>
            <path id="Trazado_1047454" data-name="Trazado 1047454" d="M1644.825,564.944c-.025-.027-.05-.051-.075-.075a4.836,4.836,0,0,0-4.681-1.388.64.64,0,0,0-.428.285,2.524,2.524,0,0,0-.3,1.437,5.666,5.666,0,0,1,5.657.415.443.443,0,0,0-.009-.4.728.728,0,0,0-.163-.277" transform="translate(-1253.748 -430.549)" fill="#3e3533"/>
            <path id="Trazado_1047455" data-name="Trazado 1047455" d="M1584.147,564.444c.026-.025.052-.048.079-.071a4.835,4.835,0,0,1,4.749-1.133.639.639,0,0,1,.412.307,2.524,2.524,0,0,1,.224,1.451,5.666,5.666,0,0,0-5.671.109.442.442,0,0,1,.03-.4.719.719,0,0,1,.177-.268" transform="translate(-1211.339 -430.311)" fill="#3e3533"/>
            <path id="Trazado_1047456" data-name="Trazado 1047456" d="M1642.708,577.944a1.375,1.375,0,1,0,1.316-1.66,1.512,1.512,0,0,0-1.316,1.66" transform="translate(-1256.324 -440.459)" fill="#3e3533"/>
            <path id="Trazado_1047457" data-name="Trazado 1047457" d="M1591.313,577.343a1.375,1.375,0,1,0,1.316-1.66,1.512,1.512,0,0,0-1.316,1.66" transform="translate(-1217.005 -440)" fill="#3e3533"/>
            <path id="Trazado_1047458" data-name="Trazado 1047458" d="M1617.546,581.064a.69.69,0,0,1,.024-.324c.083-.252.266-.608.512.091a19.166,19.166,0,0,1-.238,6.125.687.687,0,0,0,.375.813l.544.245a.655.655,0,0,1,.366.4c.062.2,0,.43-.562.447-1.027.031-2.242-.994-1.86-1.946a11.85,11.85,0,0,0,.841-5.848" transform="translate(-1236.376 -443.626)" fill="#f69d7d"/>
            <path id="Trazado_1047459" data-name="Trazado 1047459" d="M1561.987,1184.117a.625.625,0,0,1-.625.637l-12.032.061a.62.62,0,0,1-.617-.527c-.172-1.13,1.766-4.024,1.146-8.228-1.653-11.207-6.971-31.723-9.584-52.951a444.334,444.334,0,0,0-7.866-45.278c-1.063-4.57-1.75-7.058-1.75-7.058a72.182,72.182,0,0,0-2.658,13.6l0,0a190.033,190.033,0,0,0-.748,31.185c.582,8.055,1.745,47.243,2.079,62.785.059,2.746-2.321,4.754-2.286,5.721a.624.624,0,0,1-.625.648l-10.6.1a.624.624,0,0,1-.61-.482c-.414-1.794,1.305-5.529.236-9.858-5.085-20.6-18.23-64.178-16.328-81.5,1.855-16.891,5.023-45.526,6.26-56.689q.071-.634.13-1.187c.245-2.2.385-3.465.385-3.465l1.88-31.692,6.45-.5.6-.045,15.228-1.18.1-.008,26.344-2.04,6.9,22.97s0,10.583-.148,16.028c-.013.405-.025.823-.035,1.25-.265,9.856-.64,25.169-.79,38.13-.2,17.513.27,82.2.494,103.463.032,3.036-.952,5.106-.933,6.109" transform="translate(-1146.331 -761.69)" fill="#576470"/>
            <g id="Grupo_1209337" data-name="Grupo 1209337" transform="translate(374.117 274.745)" opacity="0.15">
              <g id="Grupo_1209336" data-name="Grupo 1209336">
                <g id="Grupo_1209335" data-name="Grupo 1209335" clip-path="url(#clip-path-10)">
                  <path id="Trazado_1047460" data-name="Trazado 1047460" d="M1602.46,1208.948c-1.062-4.57-1.75-7.058-1.75-7.058a72.173,72.173,0,0,0-2.658,13.6l0,0s.85-14.681-.513-25.242-.755-15.1-2.193-16.921c-1.417-1.788-4.743-5.66-4.845-5.781.148.105,5.685,4.108,6.47,6.235.8,2.158,5.49,35.16,5.49,35.16" transform="translate(-1590.499 -1167.553)"/>
                </g>
              </g>
            </g>
            <path id="Trazado_1047461" data-name="Trazado 1047461" d="M1516.721,1755.088c-2.177-.612-7.69-.844-10.136-1.046-.21-.017-.4-.034-.557-.051-2.489-.265-3.23-.132-3.575,2.41s-.662,5.719-4.184,8.791c-1.17,1.021-2.069,1.881-2.88,2.557-.22.184-.434.354-.646.51a5.727,5.727,0,0,1-4.682,1.144,16.6,16.6,0,0,0-3.553-.233c-1.639.163-2.724,1.01-3.119,3.548l5.031,3.438s11.651.98,18.35,0,11.309-1.45,11.752-2.582a20.71,20.71,0,0,0-.393-5.415c-.122-.572-.254-1.162-.385-1.75q-.058-.259-.115-.517a17.246,17.246,0,0,1-.675-4.983c.01-.058.022-.112.036-.163a16.076,16.076,0,0,0,.635-5.137c-.044-.2-.375-.37-.9-.518" transform="translate(-1134.437 -1341.387)" fill="#d49207" fill-rule="evenodd"/>
            <path id="Trazado_1047462" data-name="Trazado 1047462" d="M1591.9,1761.385c.01-.058.022-.112.036-.164a16.07,16.07,0,0,0,.635-5.137c-.223-1.016-8-1.313-11.041-1.564a29.894,29.894,0,0,0-.151,3.643c-.089,2.39-.067,2.814,1.72,2.7,1.522-.1,7.163.377,8.8.519" transform="translate(-1209.388 -1341.867)" fill="#b47c06" fill-rule="evenodd"/>
            <path id="Trazado_1047463" data-name="Trazado 1047463" d="M1554.611,1805.463l-.115-.517a49.355,49.355,0,0,0-10.835,1.709c-3.151.945-7.4,2.5-9.842,2.4a1.808,1.808,0,0,1-1.543-.606,1.97,1.97,0,0,1-.02-1.646c-.221.184-.434.354-.646.51a2.031,2.031,0,0,0,.227,1.42,2.3,2.3,0,0,0,1.962.845c2.487.094,6.808-1.463,10.012-2.424a48.852,48.852,0,0,1,10.8-1.692" transform="translate(-1171.305 -1380.444)" fill="#fbdb98" fill-rule="evenodd"/>
            <path id="Trazado_1047464" data-name="Trazado 1047464" d="M1570.555,1759.253a.787.787,0,1,0,.787.787.787.787,0,0,0-.787-.787m0,.244a.543.543,0,1,1-.543.543.543.543,0,0,1,.543-.543" transform="translate(-1200.522 -1345.487)" fill="#434d56" fill-rule="evenodd"/>
            <path id="Trazado_1047465" data-name="Trazado 1047465" d="M1568.544,1771.837a.787.787,0,1,0,.787.787.787.787,0,0,0-.787-.787m0,.244a.543.543,0,1,1-.543.543.543.543,0,0,1,.543-.543" transform="translate(-1198.984 -1355.114)" fill="#434d56" fill-rule="evenodd"/>
            <path id="Trazado_1047466" data-name="Trazado 1047466" d="M1565.1,1783.1a.787.787,0,1,0,.787.787.788.788,0,0,0-.787-.787m0,.244a.543.543,0,1,1-.543.543.543.543,0,0,1,.543-.543" transform="translate(-1196.345 -1363.73)" fill="#434d56" fill-rule="evenodd"/>
            <path id="Trazado_1047467" data-name="Trazado 1047467" d="M1559.523,1792.235a.787.787,0,1,0,.787.787.787.787,0,0,0-.787-.787m0,.244a.543.543,0,1,1-.543.543.543.543,0,0,1,.543-.543" transform="translate(-1192.082 -1370.72)" fill="#434d56" fill-rule="evenodd"/>
            <path id="Trazado_1047468" data-name="Trazado 1047468" d="M1550.329,1801.716a.787.787,0,1,0,.787.787.787.787,0,0,0-.787-.787m0,.244a.543.543,0,1,1-.543.543.543.543,0,0,1,.543-.543" transform="translate(-1185.048 -1377.973)" fill="#434d56" fill-rule="evenodd"/>
            <path id="Trazado_1047469" data-name="Trazado 1047469" d="M1540.963,1809.358a.787.787,0,1,0,.787.787.787.787,0,0,0-.787-.787m0,.244a.543.543,0,1,1-.543.543.543.543,0,0,1,.543-.543" transform="translate(-1177.883 -1383.82)" fill="#434d56" fill-rule="evenodd"/>
            <path id="Trazado_1047470" data-name="Trazado 1047470" d="M1571.349,1760.291a.543.543,0,1,0,.543.543.543.543,0,0,0-.543-.543" transform="translate(-1201.316 -1346.281)" fill="#bf8406" fill-rule="evenodd"/>
            <path id="Trazado_1047471" data-name="Trazado 1047471" d="M1569.338,1772.875a.543.543,0,1,0,.543.543.543.543,0,0,0-.543-.543" transform="translate(-1199.777 -1355.908)" fill="#bf8406" fill-rule="evenodd"/>
            <path id="Trazado_1047472" data-name="Trazado 1047472" d="M1565.891,1784.137a.543.543,0,1,0,.543.543.543.543,0,0,0-.543-.543" transform="translate(-1197.14 -1364.524)" fill="#bf8406" fill-rule="evenodd"/>
            <path id="Trazado_1047473" data-name="Trazado 1047473" d="M1560.317,1793.273a.543.543,0,1,0,.543.543.543.543,0,0,0-.543-.543" transform="translate(-1192.876 -1371.514)" fill="#bf8406" fill-rule="evenodd"/>
            <path id="Trazado_1047474" data-name="Trazado 1047474" d="M1551.123,1802.754a.543.543,0,1,0,.543.543.543.543,0,0,0-.543-.543" transform="translate(-1185.842 -1378.767)" fill="#bf8406" fill-rule="evenodd"/>
            <path id="Trazado_1047475" data-name="Trazado 1047475" d="M1541.757,1810.4a.543.543,0,1,0,.543.543.543.543,0,0,0-.543-.543" transform="translate(-1178.677 -1384.614)" fill="#bf8406" fill-rule="evenodd"/>
            <path id="Trazado_1047476" data-name="Trazado 1047476" d="M1565.855,1761.01a.323.323,0,0,0-.033-.645,4.85,4.85,0,0,1-1.816-.206.323.323,0,1,0-.289.578,5.945,5.945,0,0,0,2.138.273" transform="translate(-1195.756 -1346.154)" fill="#fbdb98" fill-rule="evenodd"/>
            <path id="Trazado_1047477" data-name="Trazado 1047477" d="M1563.778,1774.186a.323.323,0,1,0-.069-.642,7.137,7.137,0,0,1-1.843-.079.323.323,0,1,0-.121.634,7.854,7.854,0,0,0,2.033.087" transform="translate(-1194.183 -1356.356)" fill="#fbdb98" fill-rule="evenodd"/>
            <path id="Trazado_1047478" data-name="Trazado 1047478" d="M1560.659,1784.478a.323.323,0,0,0-.013-.646,6.187,6.187,0,0,1-1.763-.288.323.323,0,0,0-.193.616,6.811,6.811,0,0,0,1.968.317" transform="translate(-1191.874 -1364.059)" fill="#fbdb98" fill-rule="evenodd"/>
            <path id="Trazado_1047479" data-name="Trazado 1047479" d="M1555.7,1792.657a.323.323,0,0,0,.115-.636,4.04,4.04,0,0,1-1.484-.615.323.323,0,0,0-.386.518,4.839,4.839,0,0,0,1.755.733" transform="translate(-1188.319 -1370.037)" fill="#fbdb98" fill-rule="evenodd"/>
            <path id="Trazado_1047480" data-name="Trazado 1047480" d="M1547.389,1801.381a.323.323,0,1,0,.259-.591,4.454,4.454,0,0,1-1.171-.759.323.323,0,0,0-.457.456,5.312,5.312,0,0,0,1.369.894" transform="translate(-1182.281 -1376.611)" fill="#fbdb98" fill-rule="evenodd"/>
            <path id="Trazado_1047481" data-name="Trazado 1047481" d="M1540.015,1807.617a.323.323,0,1,0,.488-.423,2.577,2.577,0,0,1-.6-1.123.323.323,0,1,0-.643.059,3.542,3.542,0,0,0,.758,1.487" transform="translate(-1177.179 -1381.08)" fill="#fbdb98" fill-rule="evenodd"/>
            <g id="Grupo_1209340" data-name="Grupo 1209340" transform="translate(348.951 413.7)" opacity="0.1">
              <g id="Grupo_1209339" data-name="Grupo 1209339">
                <g id="Grupo_1209338" data-name="Grupo 1209338" clip-path="url(#clip-path-11)">
                  <path id="Trazado_1047482" data-name="Trazado 1047482" d="M1486.506,1773.053c-1.639.163-2.723,1.01-3.119,3.548l5.031,3.437s11.651.98,18.35,0,11.309-1.45,11.752-2.582a20.713,20.713,0,0,0-.393-5.415c-.122-.572-.254-1.162-.385-1.75-.039-.172-.077-.345-.115-.517a17.237,17.237,0,0,1-.675-4.983c.01-.058.022-.113.036-.164a16.075,16.075,0,0,0,.636-5.137c-.044-.2-.376-.369-.9-.518a9.219,9.219,0,0,1-.816,3.4c-.789,1.452-1.021,4.063-.325,7.633s2.368,5.8-7.15,7.1c-9.055,1.237-23.826,1.045-21.923-4.054" transform="translate(-1483.388 -1758.972)" fill-rule="evenodd"/>
                </g>
              </g>
            </g>
            <path id="Trazado_1047483" data-name="Trazado 1047483" d="M1514.22,1836.274a1.339,1.339,0,0,0-1.465-1.343c-2.46.24-8.123.849-16.5,1.968-11.506,1.537-16.315-2.617-17.142-2.866s-1.172.952-1.476,1.739.041.855.276,1.034a.253.253,0,0,0,.386-.083l.331.151s-.124.345.055.456a9.357,9.357,0,0,0,.828.5c.29.138.552-.455.552-.455l.373.124s-.083.552.11.635.469.221.7.317.455-.524.455-.524l.345.083s-.055.676.083.745a3.781,3.781,0,0,0,.786.207c.359.069.5-.579.5-.579l.29.055s-.083.649.193.718.676.193.966.248.455-.62.455-.62l.372.124s.027.607.276.69a6.111,6.111,0,0,0,.952.165c.386.055.345-.649.345-.649l.318.11s.014.566.345.69a4.114,4.114,0,0,0,1.035.2c.152,0,.234-.8.234-.8h.235s.138.8.3.8h1.09c.207,0,.29-.735.29-.735h.441s.276.735.442.735H1493c.262,0,.3-.79.3-.79l.359-.028a1.84,1.84,0,0,0,.262.621s.758-.055,1.048-.11.24-.659.24-.659l5.995-.383.217.751.771.04a1.594,1.594,0,0,0,.257.559h1.127c.148,0,.277-.678.277-.678h.247s.119.678.267.678.514-.016.741,0,.316-.648.316-.648h.306s.247.648.405.648h.88c.257,0,.336-.728.336-.728l.287.03s.128.7.316.7h1.295c.188,0,.247-.787.247-.787h.445l.237.787a9.969,9.969,0,0,0,1.947-.283c.049-.138.168-.553.168-.553l.435-.03.129.524a2.249,2.249,0,0,0,1.215-.277,14.15,14.15,0,0,0,.145-3.215" transform="translate(-1129.944 -1402.672)" fill="#333" fill-rule="evenodd"/>
            <g id="Grupo_1209343" data-name="Grupo 1209343" transform="translate(381.344 428.116)" opacity="0.15">
              <g id="Grupo_1209342" data-name="Grupo 1209342">
                <g id="Grupo_1209341" data-name="Grupo 1209341" clip-path="url(#clip-path-12)">
                  <path id="Trazado_1047484" data-name="Trazado 1047484" d="M1621.282,1825.584c-.1.782.2,1.083.844,1.381.768.357.991.938,2.063,1.043.04-.681.03-1.5.007-2.192a1.347,1.347,0,0,0-.435-1c-.021-.019-.045-.038-.068-.056a.879.879,0,0,0,.31-.364,20.533,20.533,0,0,0-.157-4.067,5.47,5.47,0,0,0-1.2,2.667s-.667.2-1.121,1.6c-.009.033-.021.066-.031.1a5.5,5.5,0,0,0-.209.891" transform="translate(-1621.263 -1820.33)" fill-rule="evenodd"/>
                </g>
              </g>
            </g>
            <path id="Trazado_1047485" data-name="Trazado 1047485" d="M1661.793,1755.088c-2.177-.612-7.69-.844-10.137-1.046-.21-.017-.4-.034-.557-.051-2.489-.265-3.23-.132-3.575,2.41s-.662,5.719-4.184,8.791c-1.171,1.021-2.069,1.881-2.88,2.557-.22.184-.434.354-.646.51a5.727,5.727,0,0,1-4.682,1.144,16.6,16.6,0,0,0-3.553-.233c-1.639.163-2.724,1.01-3.119,3.548l5.031,3.438s11.651.98,18.35,0,11.309-1.45,11.752-2.582a20.71,20.71,0,0,0-.393-5.415c-.122-.572-.254-1.162-.385-1.75q-.058-.259-.115-.517a17.241,17.241,0,0,1-.675-4.983c.01-.058.022-.112.036-.163a16.08,16.08,0,0,0,.636-5.137c-.044-.2-.375-.37-.9-.518" transform="translate(-1245.424 -1341.387)" fill="#d49207" fill-rule="evenodd"/>
            <path id="Trazado_1047486" data-name="Trazado 1047486" d="M1736.976,1761.385c.01-.058.022-.112.036-.164a16.081,16.081,0,0,0,.636-5.137c-.223-1.016-8-1.313-11.041-1.564a29.876,29.876,0,0,0-.151,3.643c-.089,2.39-.067,2.814,1.72,2.7,1.522-.1,7.163.377,8.8.519" transform="translate(-1320.375 -1341.867)" fill="#b47c06" fill-rule="evenodd"/>
            <path id="Trazado_1047487" data-name="Trazado 1047487" d="M1699.683,1805.463c-.039-.173-.077-.345-.115-.517a49.355,49.355,0,0,0-10.835,1.709c-3.151.945-7.4,2.5-9.842,2.4a1.808,1.808,0,0,1-1.543-.606,1.971,1.971,0,0,1-.019-1.646c-.221.184-.434.354-.646.51a2.033,2.033,0,0,0,.227,1.42,2.3,2.3,0,0,0,1.962.845c2.487.094,6.808-1.463,10.012-2.424a48.854,48.854,0,0,1,10.8-1.692" transform="translate(-1282.292 -1380.444)" fill="#fbdb98" fill-rule="evenodd"/>
            <path id="Trazado_1047488" data-name="Trazado 1047488" d="M1715.627,1759.253a.787.787,0,1,0,.787.787.787.787,0,0,0-.787-.787m0,.244a.543.543,0,1,1-.543.543.543.543,0,0,1,.543-.543" transform="translate(-1311.509 -1345.487)" fill="#434d56" fill-rule="evenodd"/>
            <path id="Trazado_1047489" data-name="Trazado 1047489" d="M1713.616,1771.837a.787.787,0,1,0,.787.787.787.787,0,0,0-.787-.787m0,.244a.543.543,0,1,1-.543.543.543.543,0,0,1,.543-.543" transform="translate(-1309.97 -1355.114)" fill="#434d56" fill-rule="evenodd"/>
            <path id="Trazado_1047490" data-name="Trazado 1047490" d="M1710.168,1783.1a.787.787,0,1,0,.787.787.788.788,0,0,0-.787-.787m0,.244a.543.543,0,1,1-.543.543.543.543,0,0,1,.543-.543" transform="translate(-1307.332 -1363.73)" fill="#434d56" fill-rule="evenodd"/>
            <path id="Trazado_1047491" data-name="Trazado 1047491" d="M1704.595,1792.235a.787.787,0,1,0,.787.787.787.787,0,0,0-.787-.787m0,.244a.543.543,0,1,1-.543.543.543.543,0,0,1,.543-.543" transform="translate(-1303.069 -1370.72)" fill="#434d56" fill-rule="evenodd"/>
            <path id="Trazado_1047492" data-name="Trazado 1047492" d="M1695.4,1801.716a.787.787,0,1,0,.787.787.787.787,0,0,0-.787-.787m0,.244a.543.543,0,1,1-.543.543.543.543,0,0,1,.543-.543" transform="translate(-1296.035 -1377.973)" fill="#434d56" fill-rule="evenodd"/>
            <path id="Trazado_1047493" data-name="Trazado 1047493" d="M1686.035,1809.358a.787.787,0,1,0,.787.787.787.787,0,0,0-.787-.787m0,.244a.543.543,0,1,1-.543.543.543.543,0,0,1,.543-.543" transform="translate(-1288.87 -1383.82)" fill="#434d56" fill-rule="evenodd"/>
            <path id="Trazado_1047494" data-name="Trazado 1047494" d="M1716.421,1760.291a.543.543,0,1,0,.543.543.543.543,0,0,0-.543-.543" transform="translate(-1312.303 -1346.281)" fill="#bf8406" fill-rule="evenodd"/>
            <path id="Trazado_1047495" data-name="Trazado 1047495" d="M1714.41,1772.875a.543.543,0,1,0,.543.543.543.543,0,0,0-.543-.543" transform="translate(-1310.764 -1355.908)" fill="#bf8406" fill-rule="evenodd"/>
            <path id="Trazado_1047496" data-name="Trazado 1047496" d="M1710.963,1784.137a.543.543,0,1,0,.543.543.543.543,0,0,0-.543-.543" transform="translate(-1308.127 -1364.524)" fill="#bf8406" fill-rule="evenodd"/>
            <path id="Trazado_1047497" data-name="Trazado 1047497" d="M1705.389,1793.273a.543.543,0,1,0,.543.543.543.543,0,0,0-.543-.543" transform="translate(-1303.863 -1371.514)" fill="#bf8406" fill-rule="evenodd"/>
            <path id="Trazado_1047498" data-name="Trazado 1047498" d="M1696.2,1802.754a.543.543,0,1,0,.543.543.543.543,0,0,0-.543-.543" transform="translate(-1296.829 -1378.767)" fill="#bf8406" fill-rule="evenodd"/>
            <path id="Trazado_1047499" data-name="Trazado 1047499" d="M1686.829,1810.4a.543.543,0,1,0,.543.543.543.543,0,0,0-.543-.543" transform="translate(-1289.664 -1384.614)" fill="#bf8406" fill-rule="evenodd"/>
            <path id="Trazado_1047500" data-name="Trazado 1047500" d="M1710.927,1761.01a.323.323,0,1,0-.033-.645,4.849,4.849,0,0,1-1.816-.206.323.323,0,0,0-.289.578,5.944,5.944,0,0,0,2.138.273" transform="translate(-1306.743 -1346.154)" fill="#fbdb98" fill-rule="evenodd"/>
            <path id="Trazado_1047501" data-name="Trazado 1047501" d="M1708.85,1774.186a.323.323,0,1,0-.069-.642,7.139,7.139,0,0,1-1.844-.079.323.323,0,0,0-.121.634,7.854,7.854,0,0,0,2.033.087" transform="translate(-1305.17 -1356.356)" fill="#fbdb98" fill-rule="evenodd"/>
            <path id="Trazado_1047502" data-name="Trazado 1047502" d="M1705.731,1784.478a.323.323,0,1,0-.013-.646,6.188,6.188,0,0,1-1.763-.288.323.323,0,0,0-.192.616,6.809,6.809,0,0,0,1.968.317" transform="translate(-1302.861 -1364.059)" fill="#fbdb98" fill-rule="evenodd"/>
            <path id="Trazado_1047503" data-name="Trazado 1047503" d="M1700.774,1792.657a.323.323,0,0,0,.115-.636,4.039,4.039,0,0,1-1.484-.615.323.323,0,1,0-.386.518,4.838,4.838,0,0,0,1.755.733" transform="translate(-1299.306 -1370.037)" fill="#fbdb98" fill-rule="evenodd"/>
            <path id="Trazado_1047504" data-name="Trazado 1047504" d="M1692.461,1801.381a.323.323,0,1,0,.259-.591,4.456,4.456,0,0,1-1.171-.759.323.323,0,0,0-.457.456,5.31,5.31,0,0,0,1.369.894" transform="translate(-1293.268 -1376.611)" fill="#fbdb98" fill-rule="evenodd"/>
            <path id="Trazado_1047505" data-name="Trazado 1047505" d="M1685.087,1807.617a.323.323,0,1,0,.488-.423,2.577,2.577,0,0,1-.6-1.123.323.323,0,1,0-.643.059,3.542,3.542,0,0,0,.758,1.487" transform="translate(-1288.166 -1381.08)" fill="#fbdb98" fill-rule="evenodd"/>
            <g id="Grupo_1209346" data-name="Grupo 1209346" transform="translate(383.036 413.7)" opacity="0.1">
              <g id="Grupo_1209345" data-name="Grupo 1209345">
                <g id="Grupo_1209344" data-name="Grupo 1209344" clip-path="url(#clip-path-11)">
                  <path id="Trazado_1047506" data-name="Trazado 1047506" d="M1631.578,1773.053c-1.639.163-2.723,1.01-3.119,3.548l5.031,3.437s11.651.98,18.35,0,11.309-1.45,11.752-2.582a20.7,20.7,0,0,0-.393-5.415c-.122-.572-.255-1.162-.385-1.75-.039-.172-.077-.345-.115-.517a17.24,17.24,0,0,1-.675-4.983c.01-.058.022-.113.036-.164a16.079,16.079,0,0,0,.636-5.137c-.043-.2-.375-.369-.9-.518a9.219,9.219,0,0,1-.816,3.4c-.789,1.452-1.021,4.063-.325,7.633s2.368,5.8-7.15,7.1c-9.055,1.237-23.826,1.045-21.923-4.054" transform="translate(-1628.459 -1758.972)" fill-rule="evenodd"/>
                </g>
              </g>
            </g>
            <path id="Trazado_1047507" data-name="Trazado 1047507" d="M1659.292,1836.274a1.339,1.339,0,0,0-1.465-1.343c-2.46.24-8.124.849-16.5,1.968-11.506,1.537-16.315-2.617-17.142-2.866s-1.172.952-1.476,1.739.041.855.276,1.034a.253.253,0,0,0,.386-.083l.331.151s-.124.345.055.456a9.317,9.317,0,0,0,.828.5c.29.138.552-.455.552-.455l.373.124s-.083.552.11.635.469.221.7.317.455-.524.455-.524l.345.083s-.055.676.083.745a3.784,3.784,0,0,0,.786.207c.359.069.5-.579.5-.579l.29.055s-.083.649.193.718.676.193.966.248.455-.62.455-.62l.373.124s.027.607.276.69a6.113,6.113,0,0,0,.952.165c.386.055.345-.649.345-.649l.318.11s.014.566.345.69a4.113,4.113,0,0,0,1.035.2c.152,0,.234-.8.234-.8h.235s.138.8.3.8h1.09c.207,0,.29-.735.29-.735h.441s.276.735.441.735h1.007c.262,0,.3-.79.3-.79l.359-.028a1.84,1.84,0,0,0,.262.621s.758-.055,1.048-.11.241-.659.241-.659l5.994-.383.217.751.771.04a1.594,1.594,0,0,0,.257.559h1.127c.148,0,.277-.678.277-.678h.247s.119.678.267.678.514-.016.741,0,.316-.648.316-.648h.307s.247.648.405.648h.879c.257,0,.336-.728.336-.728l.287.03s.128.7.316.7h1.295c.188,0,.247-.787.247-.787h.444l.237.787a9.969,9.969,0,0,0,1.947-.283c.049-.138.168-.553.168-.553l.435-.03.128.524a2.249,2.249,0,0,0,1.215-.277,14.137,14.137,0,0,0,.144-3.215" transform="translate(-1240.93 -1402.672)" fill="#333" fill-rule="evenodd"/>
            <path id="Trazado_1047508" data-name="Trazado 1047508" d="M1512.458,720.739s.531,22.783,0,35.767c-.125,3.045-.632,9.088-1.041,10.131-1.144,2.918.113,12.288,7.425,10.975,2.9-.519,6.266,1.245,11.8.547,8.764-1.109,18.667.665,22.666-3.122,7.507-7.11,13.74-5.921,18.538-5.7,0,0-3.717-21.358-2.669-34.98s4.3-48.906,4.3-48.906-14.548-6.782-21.2-8.981a.351.351,0,0,0-.435.2c-3.085,7.5-11.015,8.886-17.558,3.682a.354.354,0,0,0-.348-.053c-1.6.628-12.965,5.188-19.917,10.607Z" transform="translate(-1155.598 -517.096)" fill="#434d56" fill-rule="evenodd"/>
            <path id="Trazado_1047509" data-name="Trazado 1047509" d="M1514.58,1043.221s18.418.956,30.3-5.491c0,0-10.9,7.469-30.3,5.491" transform="translate(-1158.3 -793.487)" fill="#394249" fill-rule="evenodd"/>
            <path id="Trazado_1047510" data-name="Trazado 1047510" d="M1343.787,622.463c.013.053.024.1.036.154.141.608.219.982.219.982l-3.433,1.938-.086-.364c-.012-.055-.026-.117-.042-.183-.225-.979-.68-3.043-.805-4.253a35.523,35.523,0,0,0-1.174-5.705c-.5-1.661-.67-2.141.3-2.55s1.882.636,3.126,3.763a47.9,47.9,0,0,1,1.86,6.219" transform="translate(-1023.283 -468.088)" fill="#fbc0a4"/>
            <path id="Trazado_1047511" data-name="Trazado 1047511" d="M1351.915,642.5a3.892,3.892,0,0,1-1.994.656,2.461,2.461,0,0,0,1.994-.656" transform="translate(-1032.328 -491.119)" fill="#f69d7d"/>
            <path id="Trazado_1047512" data-name="Trazado 1047512" d="M1348.88,630.049a3.279,3.279,0,0,1-1.679.553,2.072,2.072,0,0,0,1.679-.553" transform="translate(-1030.248 -481.592)" fill="#f69d7d"/>
            <path id="Trazado_1047513" data-name="Trazado 1047513" d="M1342.743,661.774a1.23,1.23,0,0,0,.155-.821,1.506,1.506,0,0,0-.033-.212.026.026,0,0,1,.007.009,1.976,1.976,0,0,0,.369.338,1.029,1.029,0,0,0,.192.62c-.161-.109-.69.065-.69.065m4-3.212c-.55-2.255-2.159-2.051-2.965-1.675a1.831,1.831,0,0,1-.507.138c-.351.058-.758.066-1.115.093-.527.037-.948.111-.941.432,0,0-.031-.045-.086-.118a5.894,5.894,0,0,0-1.068-1.1,1.585,1.585,0,0,0-2.2-.109c-.745.71-1.81,1.8-2.759,2.826a28.464,28.464,0,0,0-2.048,2.37,10.243,10.243,0,0,0-1.043,2.847c-.333,1.079-.273,1.486.512,3.472s1.22,4.456,2.482,6,.871,2.391,2.162,13.327l9.9-3.088a63.322,63.322,0,0,1-1.313-9.292c.007-3.079.566-3.3,1.264-4.808s.466-4.1.854-5.5-.585-3.567-1.132-5.824" transform="translate(-1018.481 -501.308)" fill="#fbc0a4"/>
            <path id="Trazado_1047514" data-name="Trazado 1047514" d="M1350.506,668.682c.106.178-.481.038-.569.238a2.071,2.071,0,0,1-.816,1.089.512.512,0,0,0-.222.286,3.6,3.6,0,0,1-1.021,1.623.544.544,0,0,0-.139.17,5.257,5.257,0,0,1-2.412,2.323.761.761,0,0,1-.471.065,1.705,1.705,0,0,1-1.132-.863.176.176,0,0,0-.257-.048,4.859,4.859,0,0,1-1.7.673s1.467-.692,1.556-1.172c0,0-1.105-.113-1.806-.1a.018.018,0,0,1-.007-.036,7.036,7.036,0,0,0,1.447-.508c.19-.177-.671-.205-1.175-.416s1.443-.013,1.622-.315.112-.946.313-.481.308.78.591.881-.441.4-.4.892.768,1.42,1.345,1.141,2.25-1.84,2.234-2.358a3.055,3.055,0,0,0-1.139-2.175c-1.168-1.036-2.281-3.007-5.328.36a6.2,6.2,0,0,1,2.053-1.913c1.3-.716,2.057.049,2.918.878a3.7,3.7,0,0,1,1.611,2.741c.309-.311,1.15-1.193,1.13-1.7a2.426,2.426,0,0,0-.465-1.957c-.718-.814-2.228-3.662-3.523-2.779a15.345,15.345,0,0,0-2.972,2.678,7.153,7.153,0,0,1,2.839-2.737,1.088,1.088,0,0,1,1.386-.032,15.254,15.254,0,0,1,2.4,2.746,2.883,2.883,0,0,1,.5,1.971,1.905,1.905,0,0,0,.881-1.133s.529-.174.69-.065a.375.375,0,0,0,.033.036" transform="translate(-1025.52 -508.246)" fill="#f69d7d"/>
            <path id="Trazado_1047515" data-name="Trazado 1047515" d="M1373.043,665.991a1.445,1.445,0,0,1,.033.213s-2.137-1.685-1.765-3.522c.057.073.087.118.087.118s-.163,1.448,1.645,3.191" transform="translate(-1048.66 -506.558)" fill="#f69d7d"/>
            <path id="Trazado_1047516" data-name="Trazado 1047516" d="M1380.427,674.714a2.5,2.5,0,0,0,2.364-1.083,2.056,2.056,0,0,1-2.364,1.083" transform="translate(-1055.667 -514.935)" fill="#f69d7d"/>
            <path id="Trazado_1047517" data-name="Trazado 1047517" d="M1381.335,681.35s.5.93,2.167.444a2.2,2.2,0,0,1-2.167-.444" transform="translate(-1056.362 -520.84)" fill="#f69d7d"/>
            <g id="Grupo_1209349" data-name="Grupo 1209349" transform="translate(323.68 155.717)" opacity="0.6">
              <g id="Grupo_1209348" data-name="Grupo 1209348">
                <g id="Grupo_1209347" data-name="Grupo 1209347" clip-path="url(#clip-path-14)">
                  <path id="Trazado_1047518" data-name="Trazado 1047518" d="M1377.124,662.139a2.445,2.445,0,0,1-1.3-1.093c.357-.027.765-.035,1.115-.093v0c.225.847,1.015.883,1.137,1s-.147.4-.957.186" transform="translate(-1375.828 -660.952)" fill="#fff"/>
                </g>
              </g>
            </g>
            <path id="Trazado_1047519" data-name="Trazado 1047519" d="M1353.135,680.137a1.481,1.481,0,0,1-.276,1.443,1.135,1.135,0,0,0,.276-1.443" transform="translate(-1034.576 -519.912)" fill="#f69d7d"/>
            <path id="Trazado_1047520" data-name="Trazado 1047520" d="M1357.6,667.025a1.481,1.481,0,0,1-.276,1.443,1.135,1.135,0,0,0,.276-1.443" transform="translate(-1037.994 -509.881)" fill="#f69d7d"/>
            <path id="Trazado_1047521" data-name="Trazado 1047521" d="M1360.775,656.839a1.481,1.481,0,0,1-.276,1.443,1.135,1.135,0,0,0,.276-1.443" transform="translate(-1040.421 -502.088)" fill="#f69d7d"/>
            <path id="Trazado_1047522" data-name="Trazado 1047522" d="M1378.532,727.135a8.275,8.275,0,0,1-4.065,1.807,5.944,5.944,0,0,0,4.065-1.807" transform="translate(-1051.107 -555.868)" fill="#f69d7d"/>
            <path id="Trazado_1047523" data-name="Trazado 1047523" d="M1351.544,655.14c.013.053.024.1.036.154a1.318,1.318,0,0,0-1.158.387c-.586.559-1.371,1.357-2.142,2.169-.012-.055-.026-.117-.042-.183,0,0,1.651-1.7,2-2.034a1.432,1.432,0,0,1,1.3-.492" transform="translate(-1031.04 -500.765)" fill="#f69d7d"/>
            <path id="Trazado_1047524" data-name="Trazado 1047524" d="M1383.95,735.572s-19.231,21.455-24.142,25.852a.648.648,0,0,1-1.075-.407l-4.322-26.19-13.39,2.731s3.176,41.943,8.522,44.315c7.68,3.408,14.56,1.195,32.86-15.366s1.546-30.936,1.546-30.936" transform="translate(-1025.52 -561.752)" fill="#434d56"/>
            <g id="Grupo_1209352" data-name="Grupo 1209352" transform="translate(356.86 179.882)" opacity="0.15">
              <g id="Grupo_1209351" data-name="Grupo 1209351">
                <g id="Grupo_1209350" data-name="Grupo 1209350" clip-path="url(#clip-path-15)">
                  <path id="Trazado_1047525" data-name="Trazado 1047525" d="M1517.076,788.672a148.018,148.018,0,0,1,1.648-24.874Z" transform="translate(-1517.051 -763.798)"/>
                </g>
              </g>
            </g>
            <path id="Trazado_1047526" data-name="Trazado 1047526" d="M1565.079,739.928c-.271,4,2.009,39.11,2.009,39.11s-26.9,1.595-32.666,1.035c-1.54-.15-1.948-4.4-1.948-4.4s-1,4.432-2.741,4.7c-4.472.678-24.092-.625-24.092-.625-.311-.414,1.63-11.1,1.907-16.21.878-16.228.669-33.521.669-33.521,3.139-6.195,3.324-22.476,4.361-35.845a92.129,92.129,0,0,1,12.435-6.612c-2.128,11.942,10.781,26.13,10.781,26.13,8.626-7.35,17.421-30.129,17.421-30.129a87.917,87.917,0,0,1,12.641,5.585c-11.59,26.051-.777,50.781-.777,50.781" transform="translate(-1151.436 -522.532)" fill="#d49207"/>
            <path id="Trazado_1047527" data-name="Trazado 1047527" d="M1511.873,763.064c.059-1.563.11-3.114.153-4.635q4.828.375,9.708.633a1.936,1.936,0,0,1,0-.234c1.417-37.824-.707-54.15-2.084-60.5,1.454-.843,2.885-1.609,4.175-2.268,1.541,6.364,4.027,23.187,2.538,62.938a2.171,2.171,0,0,1-.026.278q12,.5,24.3.368c-2.413-35.124,6.708-58.667,11.4-68.209,1.633.682,3.061,1.331,4.236,1.891-4.387,8.886-13.411,31.8-10.993,66.253q7.105-.131,14.3-.444c.078,1.5.162,3.058.251,4.626a484.045,484.045,0,0,1-57.953-.7m58.426,8.841c.1,1.626.193,3.186.282,4.626a397.553,397.553,0,0,1-59.706-.461c.216-1.6.416-3.2.552-4.6a393,393,0,0,0,58.872.435" transform="translate(-1155.465 -528.558)" fill="#fff4db" fill-rule="evenodd"/>
            <g id="Grupo_1209355" data-name="Grupo 1209355" transform="translate(379.718 191.174)" opacity="0.2">
              <g id="Grupo_1209354" data-name="Grupo 1209354">
                <g id="Grupo_1209353" data-name="Grupo 1209353" clip-path="url(#clip-path-16)">
                  <path id="Trazado_1047528" data-name="Trazado 1047528" d="M1618.949,811.855c-.314,2.577-.656,5.144-.922,7.719-.3,2.569-.569,5.142-.721,7.7-.325,5.191-.815,10.336-1.167,15.5-.388,5.158-.7,10.315-.911,15.471-.111,2.579-.143,5.154-.112,7.726a58.625,58.625,0,0,0,.526,7.662,67.413,67.413,0,0,1-1.3-15.364c0-5.193.286-10.386.65-15.565.382-5.177.9-10.351,1.437-15.49a139.784,139.784,0,0,1,2.523-15.362" transform="translate(-1614.339 -811.856)"/>
                </g>
              </g>
            </g>
            <g id="Grupo_1209358" data-name="Grupo 1209358" transform="translate(402.922 230.855)" opacity="0.15">
              <g id="Grupo_1209357" data-name="Grupo 1209357">
                <g id="Grupo_1209356" data-name="Grupo 1209356" clip-path="url(#clip-path-17)">
                  <path id="Trazado_1047529" data-name="Trazado 1047529" d="M1724.3,980.754q.031.58.063,1.169c-.841,1.925-1.824,4.114-2.846,6.356-2.725,5.981-5.723,12.337-7.017,15.065l-.676,1.425a.482.482,0,0,0,.1.55l9.956,9.413a.475.475,0,0,0,.7-.052c.464-.593,1.407-1.8,2.654-3.442,0,.305,0,.623,0,.95-1.229,1.613-2.16,2.8-2.62,3.39a.477.477,0,0,1-.7.052l-10.661-10.273a.477.477,0,0,1-.1-.55c.109-.23.284-.6.514-1.079,1.285-2.693,4.637-9.736,7.618-16.244,1.1-2.4,2.146-4.721,3.022-6.729" transform="translate(-1713.102 -980.753)"/>
                </g>
              </g>
            </g>
            <path id="Trazado_1047530" data-name="Trazado 1047530" d="M1708.287,1100.394c.372.111,2.9-1.705,4-2.734a.017.017,0,0,0,.008-.008l.307-.282c1.066-.96,4.685-5.23,4.785-5.345-2.794-1.168-8.976-3.837-10.847-5.426-.191.324-.427.707-.676,1.074-.131.189-.261.373-.394.541a2.788,2.788,0,0,1-.8.786,7.739,7.739,0,0,1-1.943.518v0c-.319,2.912,1.71,9.719,5.567,10.87" transform="translate(-1302.212 -830.875)" fill="#fbc0a4"/>
            <path id="Trazado_1047531" data-name="Trazado 1047531" d="M1731.053,1113.471s-1.548-4.909-3.869-6.313c0,0,2.934,1.4,3.869,6.313" transform="translate(-1320.953 -846.603)" fill="#f69d7d"/>
            <path id="Trazado_1047532" data-name="Trazado 1047532" d="M1749.006,776.081a24.1,24.1,0,0,1-2.468,6.228c-5.4,10.358-17.609,26.109-19.746,28.837a.475.475,0,0,1-.7.053l-9.956-9.413a.481.481,0,0,1-.1-.55c1.44-3.038,12.909-27.332,12.909-29.952,0-3.925-2.948-7.846-2.948-7.846-5.713-11.071,2.877-45.655,4.11-48.69.063-.153.9.264.9.264s4.586,1.915,5.6,5.405,14,46.649,12.4,55.664" transform="translate(-1312.388 -546.365)" fill="#434d56"/>
            <g id="Grupo_1209361" data-name="Grupo 1209361" transform="translate(413.585 183.124)" opacity="0.15">
              <g id="Grupo_1209360" data-name="Grupo 1209360">
                <g id="Grupo_1209359" data-name="Grupo 1209359" clip-path="url(#clip-path-18)">
                  <path id="Trazado_1047533" data-name="Trazado 1047533" d="M1758.5,811.546c-.113,2.468.019-19.422,4.11-33.949,0,0-3.589,21.134-4.11,33.949" transform="translate(-1758.477 -777.598)"/>
                </g>
              </g>
            </g>
            <path id="Trazado_1047534" data-name="Trazado 1047534" d="M1544.519,473.67a199.874,199.874,0,0,0,20.144-.211c5.715-.526,23.228-.729,17.842-2.712,0,0-.415-10.781-4.593-14.884s-15.055-11.55-26.278.248c0,0-1.946,1.612-3.859,9.982-.23,1-.46,2.108-.684,3.317q-.134.716-.265,1.481s-8.42,2.634-2.307,2.778" transform="translate(-1179.503 -343.652)" fill="#d49207"/>
            <path id="Trazado_1047535" data-name="Trazado 1047535" d="M1561.568,539.276a.185.185,0,0,0,.028.137.443.443,0,0,0,.041.059c.017.017.033.036.05.052a1.218,1.218,0,0,0,.237.163,3.233,3.233,0,0,0,.531.215,8.843,8.843,0,0,0,1.112.262,22.783,22.783,0,0,0,2.264.259c.757.056,1.516.081,2.274.1s1.517.013,2.275.008c3.026-.043,6.054-.042,9.082-.055,1.514-.005,3.028-.013,4.542-.036s3.028-.049,4.542-.091c.757-.022,1.514-.046,2.271-.079s1.513-.076,2.269-.13,1.511-.119,2.263-.218a11.123,11.123,0,0,0,1.12-.2,3.208,3.208,0,0,0,.542-.175.72.72,0,0,0,.237-.157.19.19,0,0,0,.054-.13.229.229,0,0,0-.053-.13.226.226,0,0,1,.049.13.185.185,0,0,1-.056.125.709.709,0,0,1-.237.148,3.159,3.159,0,0,1-.542.159c-.37.078-.745.128-1.12.172-.751.084-1.506.134-2.262.173s-1.512.065-2.268.085-1.513.039-2.269.051c-3.026.05-6.054.033-9.081.04s-6.056-.013-9.085.02c-1.512.02-3.024.019-4.532-.041-.754-.033-1.508-.078-2.255-.172a9.358,9.358,0,0,1-1.111-.2,3.192,3.192,0,0,1-.533-.177,1.172,1.172,0,0,1-.242-.14c-.019-.014-.035-.031-.053-.046a.408.408,0,0,1-.044-.054.179.179,0,0,1-.038-.131" transform="translate(-1194.245 -412.036)" fill="#b47c06"/>
            <path id="Trazado_1047536" data-name="Trazado 1047536" d="M1668.559,467.91s-3.541-2.37-6.116-.228c-2.467,2.052-3.819-3.171,2.685-3.109a2.419,2.419,0,0,1,1.56.593c1.1.955,3.091,2.806,1.871,2.744" transform="translate(-1269.861 -354.994)" fill="#b47c06"/>
            <path id="Trazado_1047537" data-name="Trazado 1047537" d="M1645.383,456.749s-4.742-.176-6.492,2.37-3.336-.68-.231-2.17,5.1-1.961,5.821-1.737,2.869,1.843.9,1.537" transform="translate(-1251.877 -347.794)" fill="#b47c06"/>
            <path id="Trazado_1047538" data-name="Trazado 1047538" d="M1624.672,449.614s-5.908,1.322-7.485,3.867-3.166-.267-.223-2.1,4.239-2.608,4.838-2.61,4.137.5,2.87.841" transform="translate(-1235.368 -342.908)" fill="#b47c06"/>
            <path id="Trazado_1047539" data-name="Trazado 1047539" d="M1606.706,449.969s-4.9,2.005-6.191,4.593-2.474-.884.1-2.669a9.453,9.453,0,0,1,6.087-1.924" transform="translate(-1222.953 -343.823)" fill="#b47c06"/>
            <path id="Trazado_1047540" data-name="Trazado 1047540" d="M1562.71,522.641c2.008,2.014,12.514,1.625,16.937,1.365a1.967,1.967,0,1,0-.243-3.926,75.3,75.3,0,0,1-16.009-.756c-.23,1.005-.459,2.108-.685,3.317" transform="translate(-1195.122 -396.882)" fill="#b47c06"/>
            <path id="Trazado_1047541" data-name="Trazado 1047541" d="M1689.623,530.89l-.244-3.114a.353.353,0,0,0-.363-.325l-4.291.136a.353.353,0,0,0-.341.38l.249,3.225a37.373,37.373,0,0,0,4.991-.3" transform="translate(-1288.207 -403.1)" fill="#b47c06"/>
            <path id="Trazado_1047542" data-name="Trazado 1047542" d="M1263.341,1822.964h-56.084a1.748,1.748,0,0,0-1.749,1.748v7.034h59.581v-7.034a1.748,1.748,0,0,0-1.748-1.748" transform="translate(-921.846 -1394.229)" fill="#fbdb98"/>
            <path id="Trazado_1047543" data-name="Trazado 1047543" d="M1263.341,1822.964h-56.084a1.748,1.748,0,0,0-1.749,1.748v7.034h59.581v-7.034A1.748,1.748,0,0,0,1263.341,1822.964Z" transform="translate(-921.846 -1394.229)" fill="none" stroke="#434d56" stroke-miterlimit="12.491" stroke-width="1.886"/>
            <path id="Trazado_1047544" data-name="Trazado 1047544" d="M1277.545,1633.676h-48.539l5.631-14.465,6.43-16.518,6.215-15.958,3.673-9.436a2.412,2.412,0,0,1,4.641,0l.313.808,2.733,7.014,2.828,7.26,2.729,7.014,2.828,7.263,2.729,7.014,2.828,7.26,2.729,7.017Z" transform="translate(-939.823 -1204.941)" fill="#e19a06"/>
            <path id="Trazado_1047545" data-name="Trazado 1047545" d="M1277.545,1633.676h-48.539l5.631-14.465,6.43-16.518,6.215-15.958,3.673-9.436a2.412,2.412,0,0,1,4.641,0l.313.808,2.733,7.014,2.828,7.26,2.729,7.014,2.828,7.263,2.729,7.014,2.828,7.26,2.729,7.017Z" transform="translate(-939.823 -1204.941)" fill="none" stroke="#434d56" stroke-miterlimit="12.491" stroke-width="1.886"/>
            <path id="Trazado_1047546" data-name="Trazado 1047546" d="M1299.383,1611.528l1.741-4.47,1.9-4.874,8.164-.075,1.3,3.335,2.314,5.94Z" transform="translate(-993.665 -1225.264)" fill="#fef4df"/>
            <path id="Trazado_1047547" data-name="Trazado 1047547" d="M1299.383,1611.528l1.741-4.47,1.9-4.874,8.164-.075,1.3,3.335,2.314,5.94Z" transform="translate(-993.665 -1225.264)" fill="none" stroke="#434d56" stroke-miterlimit="16.872" stroke-width="1.873"/>
            <path id="Trazado_1047548" data-name="Trazado 1047548" d="M1267.734,1692.686l2.962-7.608.662-1.7,23.035-.147,2.263,5.813,1.35,3.468Z" transform="translate(-969.452 -1287.326)" fill="#fef4df"/>
            <path id="Trazado_1047549" data-name="Trazado 1047549" d="M1267.734,1692.686l2.962-7.608.662-1.7,23.035-.147,2.263,5.813,1.35,3.468Z" transform="translate(-969.452 -1287.326)" fill="none" stroke="#434d56" stroke-miterlimit="16.872" stroke-width="1.873"/>
            <path id="Trazado_1047550" data-name="Trazado 1047550" d="M1236.447,1772.83l3.622-9.3,37.712-.221.5,1.273,2.729,7.017.39,1Z" transform="translate(-945.516 -1348.586)" fill="#fef4df"/>
            <path id="Trazado_1047551" data-name="Trazado 1047551" d="M1236.447,1772.83l3.622-9.3,37.712-.221.5,1.273,2.729,7.017.39,1Z" transform="translate(-945.516 -1348.586)" fill="none" stroke="#434d56" stroke-miterlimit="16.872" stroke-width="1.873"/>
            <rect id="Rectángulo_418862" data-name="Rectángulo 418862" width="426.923" height="3.223" transform="translate(21.917 437.437)" fill="#1d2227"/>
          </g>
        </g>
      </g>
    </g>
  </g>
</svg>
