<svg xmlns="http://www.w3.org/2000/svg" width="400" height="135.657" viewBox="0 0 400 135.657">
  <g id="Grupo_1210430" data-name="Grupo 1210430" transform="translate(-1020 -12603.002)">
    <path id="Fondo" d="M0,0H400V120H0Z" transform="translate(1020 12618.241)" fill="#2f5b79"/>
    <g id="insurance_17485781_1_" data-name="insurance_17485781 (1)" transform="translate(1153.23 12603.002)">
      <g id="Grupo_1210405" data-name="Grupo 1210405" transform="translate(0.77 86.185)">
        <path id="Trazado_1050562" data-name="Trazado 1050562" d="M101.966,86.882H5.713A3.935,3.935,0,0,1,1.77,82.939,41.278,41.278,0,0,1,43.039,41.67H64.66a41.278,41.278,0,0,1,41.269,41.269,3.981,3.981,0,0,1-3.964,3.943Z" transform="translate(0.35 -39.529)" fill="#6cc2c1"/>
        <path id="Trazado_1050563" data-name="Trazado 1050563" d="M103.085,90.132H6.832A6.079,6.079,0,0,1,.77,84.049,43.431,43.431,0,0,1,44.159,40.66h21.62a43.431,43.431,0,0,1,43.389,43.389,6.111,6.111,0,0,1-6.083,6.083ZM44.159,44.9a39.193,39.193,0,0,0-39.15,39.15,1.841,1.841,0,0,0,1.823,1.844h96.253a1.827,1.827,0,0,0,1.823-1.844A39.206,39.206,0,0,0,65.758,44.9Z" transform="translate(-0.77 -40.66)"/>
      </g>
      <g id="Grupo_1210406" data-name="Grupo 1210406" transform="translate(24.976 86.206)">
        <path id="Trazado_1050564" data-name="Trazado 1050564" d="M13.19,86.882h55.7v-41.5A40.873,40.873,0,0,0,51.852,41.67H30.232A41.205,41.205,0,0,0,13.19,45.379Z" transform="translate(-11.07 -39.55)" fill="#e18a86"/>
        <path id="Trazado_1050565" data-name="Trazado 1050565" d="M70.014,90.121H14.31A2.126,2.126,0,0,1,12.19,88V46.5a2.115,2.115,0,0,1,1.251-1.929,43.168,43.168,0,0,1,17.932-3.9h21.62a43.168,43.168,0,0,1,17.932,3.9A2.115,2.115,0,0,1,72.176,46.5V88A2.177,2.177,0,0,1,70.014,90.121ZM16.429,85.882H67.894V47.877a38.906,38.906,0,0,0-14.922-2.989H31.352a38.515,38.515,0,0,0-14.922,2.989Z" transform="translate(-12.19 -40.67)"/>
      </g>
      <g id="Grupo_1210409" data-name="Grupo 1210409" transform="translate(18.151 43.347)">
        <g id="Grupo_1210407" data-name="Grupo 1210407" transform="translate(53.86)">
          <circle id="Elipse_11574" data-name="Elipse 11574" cx="7.355" cy="7.355" r="7.355" transform="translate(2.12 2.098)" fill="#ffcaca"/>
          <path id="Trazado_1050566" data-name="Trazado 1050566" d="M43.855,39.4a9.475,9.475,0,1,1,9.475-9.475A9.485,9.485,0,0,1,43.855,39.4Zm0-14.732A5.236,5.236,0,1,0,49.09,29.9,5.247,5.247,0,0,0,43.855,24.668Z" transform="translate(-34.38 -20.45)"/>
        </g>
        <g id="Grupo_1210408" data-name="Grupo 1210408">
          <circle id="Elipse_11575" data-name="Elipse 11575" cx="7.355" cy="7.355" r="7.355" transform="translate(2.12 2.098)" fill="#ffcaca"/>
          <path id="Trazado_1050567" data-name="Trazado 1050567" d="M18.445,39.4a9.475,9.475,0,1,1,9.475-9.475A9.485,9.485,0,0,1,18.445,39.4Zm0-14.732A5.236,5.236,0,1,0,23.68,29.9,5.247,5.247,0,0,0,18.445,24.668Z" transform="translate(-8.97 -20.45)"/>
        </g>
      </g>
      <g id="Grupo_1210410" data-name="Grupo 1210410" transform="translate(39.072 68.443)">
        <path id="Trazado_1050568" data-name="Trazado 1050568" d="M47.342,51.031,33.585,61.651,19.85,51.031V33.29H47.342Z" transform="translate(-17.709 -31.17)" fill="#ffcaca"/>
        <path id="Trazado_1050569" data-name="Trazado 1050569" d="M34.716,64.89a2.08,2.08,0,0,1-1.293-.445l-13.756-10.6a2.088,2.088,0,0,1-.827-1.675V34.41a2.126,2.126,0,0,1,2.12-2.12H48.473a2.126,2.126,0,0,1,2.12,2.12V52.172a2.088,2.088,0,0,1-.827,1.675l-13.756,10.6A2.037,2.037,0,0,1,34.716,64.89ZM23.1,51.112l11.637,8.966,11.637-8.966v-14.6H23.1Z" transform="translate(-18.84 -32.29)"/>
      </g>
      <g id="Grupo_1210411" data-name="Grupo 1210411" transform="translate(25.146 31.885)">
        <path id="Trazado_1050570" data-name="Trazado 1050570" d="M67.872,26.259c0,16.682-12.23,37.687-27.3,37.687s-27.3-21.006-27.3-37.687c0-11.149,12.209-10.916,20.306-9.538a42.011,42.011,0,0,0,14.011,0C55.663,15.343,67.872,15.11,67.872,26.259Z" transform="translate(-11.15 -13.908)" fill="#ffcaca"/>
        <path id="Trazado_1050571" data-name="Trazado 1050571" d="M41.691,67.2c-16.3,0-29.421-21.79-29.421-39.828,0-3.858,1.272-6.889,3.794-9.03,4.769-4.027,12.951-3.646,18.971-2.607a38.988,38.988,0,0,0,13.311,0c6.041-1.039,14.223-1.42,18.971,2.607,2.522,2.12,3.794,5.151,3.794,9.03,0,18.059-13.121,39.828-29.421,39.828ZM27.51,19.3c-3.921,0-6.931.784-8.733,2.31-1.547,1.293-2.289,3.2-2.289,5.787,0,16.025,11.616,35.589,25.181,35.589S66.851,43.419,66.851,27.394c0-2.586-.742-4.494-2.289-5.787-2.734-2.31-8.267-2.9-15.537-1.675a44.064,44.064,0,0,1-14.732,0A40.413,40.413,0,0,0,27.51,19.3Z" transform="translate(-12.27 -15.043)"/>
      </g>
      <g id="Grupo_1210414" data-name="Grupo 1210414" transform="translate(35.426 34.029)" opacity="0.2">
        <g id="Grupo_1210412" data-name="Grupo 1210412" transform="translate(0 0.01)">
          <path id="Trazado_1050572" data-name="Trazado 1050572" d="M18.265,16.718a41.925,41.925,0,0,0,12.506.191c-.509-.064-1.017-.106-1.526-.191a33.265,33.265,0,0,0-12.124-.17c.4.042.784.106,1.145.17Z" transform="translate(-17.12 -16.059)"/>
        </g>
        <g id="Grupo_1210413" data-name="Grupo 1210413" transform="translate(13.651)">
          <path id="Trazado_1050573" data-name="Trazado 1050573" d="M37.211,16.533c4.578.975,8.182,3.667,8.182,9.729,0,14.6-9.369,32.537-21.832,36.776a17.258,17.258,0,0,0,5.49.933c15.092,0,27.3-21.006,27.3-37.687,0-10.662-11.107-10.937-19.14-9.75Z" transform="translate(-23.56 -16.054)"/>
        </g>
      </g>
      <g id="Grupo_1210415" data-name="Grupo 1210415" transform="translate(19.55 27.068)">
        <path id="Trazado_1050574" data-name="Trazado 1050574" d="M73.6,23.881H13.428a2.8,2.8,0,0,1-2.8-2.8V16.568a2.8,2.8,0,0,1,2.8-2.8H73.6a2.8,2.8,0,0,1,2.8,2.8v4.515A2.769,2.769,0,0,1,73.6,23.881Z" transform="translate(-8.51 -11.65)" fill="#6cc2c1"/>
        <path id="Trazado_1050575" data-name="Trazado 1050575" d="M74.724,27.12H14.548A4.921,4.921,0,0,1,9.63,22.2V17.688a4.921,4.921,0,0,1,4.918-4.918H74.724a4.921,4.921,0,0,1,4.918,4.918V22.2A4.894,4.894,0,0,1,74.724,27.12ZM14.548,16.988a.683.683,0,0,0-.678.678v4.515a.683.683,0,0,0,.678.678H74.724a.67.67,0,0,0,.678-.678V17.666a.683.683,0,0,0-.678-.678Z" transform="translate(-9.63 -12.77)"/>
      </g>
      <g id="Grupo_1210416" data-name="Grupo 1210416" transform="translate(25.125 0)">
        <path id="Trazado_1050576" data-name="Trazado 1050576" d="M40.825,1h-.509A27.039,27.039,0,0,0,13.27,28.047H67.893A27.071,27.071,0,0,0,40.825,1Z" transform="translate(-11.129 1.12)" fill="#6cc2c1"/>
        <path id="Trazado_1050577" data-name="Trazado 1050577" d="M69,31.286H14.38a2.126,2.126,0,0,1-2.12-2.12A29.21,29.21,0,0,1,41.447,0h.509A29.192,29.192,0,0,1,71.123,29.166,2.112,2.112,0,0,1,69,31.286Zm-52.4-4.239H66.8A24.96,24.96,0,0,0,41.956,4.239h-.509A24.96,24.96,0,0,0,16.605,27.047Z" transform="translate(-12.26)"/>
      </g>
      <g id="Grupo_1210417" data-name="Grupo 1210417" transform="translate(45.007 0)">
        <path id="Trazado_1050578" data-name="Trazado 1050578" d="M30.08,13.591a7.436,7.436,0,0,0,7.44-7.44V2a26.978,26.978,0,0,0-7.186-1h-.509A26.739,26.739,0,0,0,22.64,2V6.172a7.431,7.431,0,0,0,7.44,7.419Z" transform="translate(-20.52 1.12)" fill="#65a4ab"/>
        <path id="Trazado_1050579" data-name="Trazado 1050579" d="M31.2,16.83a9.562,9.562,0,0,1-9.56-9.56V3.116a2.111,2.111,0,0,1,1.547-2.035A28.9,28.9,0,0,1,30.945,0h.509a29.458,29.458,0,0,1,7.737,1.06,2.111,2.111,0,0,1,1.547,2.035V7.27A9.544,9.544,0,0,1,31.2,16.83ZM25.879,4.769v2.5a5.32,5.32,0,0,0,10.641,0v-2.5a26.209,26.209,0,0,0-5.066-.53h-.509a25.869,25.869,0,0,0-5.066.53Z" transform="translate(-21.64 0)"/>
      </g>
      <g id="Grupo_1210418" data-name="Grupo 1210418" transform="translate(52.447 97.991)">
        <path id="Trazado_1050580" data-name="Trazado 1050580" d="M27.27,83.9a2.126,2.126,0,0,1-2.12-2.12V48.35a2.12,2.12,0,0,1,4.239,0V81.776A2.126,2.126,0,0,1,27.27,83.9Z" transform="translate(-25.15 -46.23)"/>
      </g>
      <g id="Grupo_1210419" data-name="Grupo 1210419" transform="translate(66.755 6.893)">
        <path id="Trazado_1050581" data-name="Trazado 1050581" d="M36.843,4.25a13.592,13.592,0,0,0,1.123,20.158h7.927A27.019,27.019,0,0,0,36.843,4.25Z" transform="translate(-30.78 -2.135)" fill="#65a4ab"/>
        <path id="Trazado_1050582" data-name="Trazado 1050582" d="M47.013,27.645H39.086a2.176,2.176,0,0,1-1.335-.466A15.71,15.71,0,0,1,36.457,3.884,2.113,2.113,0,0,1,39.382,3.8a29.2,29.2,0,0,1,9.772,21.748A2.14,2.14,0,0,1,47.013,27.645ZM39.87,23.406h4.939A25.063,25.063,0,0,0,38.132,8.483,11.465,11.465,0,0,0,39.87,23.406Z" transform="translate(-31.9 -3.252)"/>
      </g>
      <g id="Grupo_1210420" data-name="Grupo 1210420" transform="translate(25.146 6.888)">
        <path id="Trazado_1050583" data-name="Trazado 1050583" d="M22.321,4.25A13.592,13.592,0,0,1,21.2,24.408H13.27A26.869,26.869,0,0,1,22.321,4.25Z" transform="translate(-11.15 -2.129)" fill="#65a4ab"/>
        <path id="Trazado_1050584" data-name="Trazado 1050584" d="M22.317,27.648H14.39a2.126,2.126,0,0,1-2.12-2.12A29.23,29.23,0,0,1,22.042,3.78a2.156,2.156,0,0,1,2.925.085A15.71,15.71,0,0,1,23.674,27.16,2.056,2.056,0,0,1,22.317,27.648Zm-5.723-4.239h4.939A11.465,11.465,0,0,0,23.271,8.486a24.938,24.938,0,0,0-6.677,14.922Z" transform="translate(-12.27 -3.25)"/>
      </g>
      <g id="Grupo_1210424" data-name="Grupo 1210424" transform="translate(94.183 58.057)">
        <g id="Grupo_1210421" data-name="Grupo 1210421">
          <path id="Trazado_1050585" data-name="Trazado 1050585" d="M51.733,62.029l11.488,7.1,11.488-7.1A12.4,12.4,0,0,0,80.6,51.473V34.707L63.221,28.39,45.84,34.707V51.473a12.429,12.429,0,0,0,5.893,10.556Z" transform="translate(-43.72 -26.27)" fill="#f0dba5"/>
          <path id="Trazado_1050586" data-name="Trazado 1050586" d="M64.341,72.369a2.2,2.2,0,0,1-1.123-.318l-11.488-7.1A14.425,14.425,0,0,1,44.84,52.593V35.826a2.1,2.1,0,0,1,1.4-1.992L63.62,27.517a2.106,2.106,0,0,1,1.441,0l17.381,6.317a2.1,2.1,0,0,1,1.4,1.992V52.593A14.419,14.419,0,0,1,76.953,64.95l-11.488,7.1a2.2,2.2,0,0,1-1.123.318ZM49.079,37.31V52.593a10.213,10.213,0,0,0,4.875,8.754l10.365,6.4,10.365-6.4a10.24,10.24,0,0,0,4.875-8.754V37.31L64.3,31.756Z" transform="translate(-44.84 -27.39)"/>
        </g>
        <g id="Grupo_1210422" data-name="Grupo 1210422" transform="translate(13.46 2.12)" opacity="0.2">
          <path id="Trazado_1050587" data-name="Trazado 1050587" d="M57.231,28.39l-1.7.615,10.217,3.709V49.48a12.376,12.376,0,0,1-5.893,10.556L51.19,65.4l6.041,3.731,11.488-7.1a12.4,12.4,0,0,0,5.893-10.556V34.707Z" transform="translate(-51.19 -28.39)"/>
        </g>
        <g id="Grupo_1210423" data-name="Grupo 1210423" transform="translate(8.578 12.84)">
          <path id="Trazado_1050588" data-name="Trazado 1050588" d="M55.316,50.919h-.191a2.168,2.168,0,0,1-1.547-.89l-4.3-6.126a2.117,2.117,0,0,1,3.476-2.416l2.84,4.07L67.08,34.067a2.113,2.113,0,0,1,2.989,2.989L56.8,50.325a2.082,2.082,0,0,1-1.484.593Z" transform="translate(-48.887 -33.447)"/>
        </g>
      </g>
      <g id="Grupo_1210425" data-name="Grupo 1210425" transform="translate(18.151 108.823)">
        <path id="Trazado_1050589" data-name="Trazado 1050589" d="M92.233,52.33H9.97v7.821H95.243A40.592,40.592,0,0,0,92.233,52.33Z" transform="translate(-7.85 -50.232)" fill="#f0dba5"/>
        <path id="Trazado_1050590" data-name="Trazado 1050590" d="M96.363,63.4H11.09a2.126,2.126,0,0,1-2.12-2.12V53.46a2.126,2.126,0,0,1,2.12-2.12H93.353a2.094,2.094,0,0,1,1.886,1.166A43.7,43.7,0,0,1,98.4,60.73,2.111,2.111,0,0,1,96.363,63.4ZM13.209,59.161H93.5a35.225,35.225,0,0,0-1.463-3.582H13.209Z" transform="translate(-8.97 -51.34)"/>
      </g>
      <g id="Grupo_1210426" data-name="Grupo 1210426" transform="translate(72.011 116.644)">
        <path id="Trazado_1050591" data-name="Trazado 1050591" d="M35.38,56.03h8.669V70.8H35.38Z" transform="translate(-33.26 -53.91)" fill="#f0dba5"/>
        <path id="Trazado_1050592" data-name="Trazado 1050592" d="M45.169,74.043H36.5a2.126,2.126,0,0,1-2.12-2.12V57.15a2.126,2.126,0,0,1,2.12-2.12h8.669a2.126,2.126,0,0,1,2.12,2.12V71.924A2.112,2.112,0,0,1,45.169,74.043ZM38.619,69.8h4.43V59.269h-4.43Z" transform="translate(-34.38 -55.03)"/>
      </g>
      <g id="Grupo_1210429" data-name="Grupo 1210429" transform="translate(34.289 44.924)">
        <g id="Grupo_1210427" data-name="Grupo 1210427" transform="translate(5.935 19.72)">
          <path id="Trazado_1050593" data-name="Trazado 1050593" d="M21.517,33.258a.576.576,0,0,1-.36-.127A13.453,13.453,0,0,1,19.5,31.351a.514.514,0,0,1,.085-.742.533.533,0,0,1,.742.085,14.528,14.528,0,0,0,1.526,1.653.532.532,0,0,1,.042.742A.5.5,0,0,1,21.517,33.258Z" transform="translate(-19.383 -30.498)" fill="#fff"/>
        </g>
        <g id="Grupo_1210428" data-name="Grupo 1210428">
          <path id="Trazado_1050594" data-name="Trazado 1050594" d="M20.752,38.312a.527.527,0,0,1-.466-.276c-2.84-5.469-4.324-12.527-3.455-16.427a.532.532,0,1,1,1.039.233c-.805,3.625.657,10.513,3.349,15.707a.538.538,0,0,1-.233.721A.9.9,0,0,1,20.752,38.312Z" transform="translate(-16.583 -21.194)" fill="#fff"/>
        </g>
      </g>
    </g>
  </g>
</svg>
