<svg xmlns="http://www.w3.org/2000/svg" xmlns:xlink="http://www.w3.org/1999/xlink" width="113" height="113" viewBox="0 0 113 113">
  <defs>
    <filter id="Trazado_982547" x="0" y="-0.001" width="113" height="113" filterUnits="userSpaceOnUse">
      <feOffset dy="3" input="SourceAlpha"/>
      <feGaussianBlur stdDeviation="3" result="blur"/>
      <feFlood flood-opacity="0.161"/>
      <feComposite operator="in" in2="blur"/>
      <feComposite in="SourceGraphic"/>
    </filter>
  </defs>
  <g id="Grupo_1210617" data-name="Grupo 1210617" transform="translate(-823 -844.448)">
    <g id="Grupo_1210485" data-name="Grupo 1210485" transform="translate(0 -14857.543)">
      <g id="Grupo_1210149" data-name="Grupo 1210149" transform="translate(29.51 13379.992)">
        <g id="Grupo_1209048" data-name="Grupo 1209048" transform="translate(0 1091.783)">
          <g id="Grupo_1208492" data-name="Grupo 1208492" transform="translate(0 -4397.209)">
            <g id="Grupo_1177675" data-name="Grupo 1177675" transform="translate(-4493 3707.152)">
              <g id="Grupo_1176928" data-name="Grupo 1176928" transform="translate(5295.49 1926.273)">
                <g id="Grupo_1172322" data-name="Grupo 1172322" transform="translate(0 0)">
                  <g id="Grupo_1164700" data-name="Grupo 1164700">
                    <g id="Grupo_1160931" data-name="Grupo 1160931">
                      <g id="Grupo_1160749" data-name="Grupo 1160749">
                        <g id="Grupo_1158891" data-name="Grupo 1158891">
                          <g id="Grupo_1157406" data-name="Grupo 1157406">
                            <g id="Grupo_1155793" data-name="Grupo 1155793">
                              <g id="Grupo_1154704" data-name="Grupo 1154704">
                                <g id="Grupo_1150790" data-name="Grupo 1150790">
                                  <g id="Grupo_1154214" data-name="Grupo 1154214">
                                    <g id="Grupo_1152583" data-name="Grupo 1152583">
                                      <g id="Grupo_1146973" data-name="Grupo 1146973">
                                        <g id="Grupo_1146954" data-name="Grupo 1146954">
                                          <g transform="matrix(1, 0, 0, 1, -9, -6)" filter="url(#Trazado_982547)">
                                            <g id="Trazado_982547-2" data-name="Trazado 982547" transform="translate(9 6)" fill="#fef9e7">
                                              <path d="M 47.5000114440918 93.49987030029297 C 41.28938293457031 93.49987030029297 35.26534652709961 92.28384399414062 29.5951976776123 89.88558959960938 C 24.11773109436035 87.56881713867188 19.19814491271973 84.25183868408203 14.97310447692871 80.02680206298828 C 10.74805164337158 75.80176544189453 7.43107795715332 70.88218688964844 5.114304542541504 65.40472412109375 C 2.716038227081299 59.73458862304688 1.500011444091797 53.71054840087891 1.500011444091797 47.49993515014648 C 1.500011444091797 41.28932189941406 2.716038227081299 35.26528167724609 5.114304542541504 29.59514808654785 C 7.43107795715332 24.1176815032959 10.74805164337158 19.1981086730957 14.97310447692871 14.97306823730469 C 19.19814491271973 10.74802875518799 24.11773109436035 7.431055068969727 29.5951976776123 5.11428165435791 C 35.26534652709961 2.716028451919556 41.28938293457031 1.500001788139343 47.5000114440918 1.500001788139343 C 53.71063995361328 1.500001788139343 59.73467636108398 2.716028451919556 65.40482330322266 5.11428165435791 C 70.88229370117188 7.431055068969727 75.8018798828125 10.74802875518799 80.02691650390625 14.97306823730469 C 84.25196838378906 19.1981086730957 87.56894683837891 24.1176815032959 89.88571929931641 29.59514808654785 C 92.28398132324219 35.26528167724609 93.50001525878906 41.28932189941406 93.50001525878906 47.49993515014648 C 93.50001525878906 53.71054840087891 92.28398132324219 59.73458862304688 89.88571929931641 65.40472412109375 C 87.56894683837891 70.88218688964844 84.25196838378906 75.80176544189453 80.02691650390625 80.02680206298828 C 75.8018798828125 84.25183868408203 70.88229370117188 87.56881713867188 65.40482330322266 89.88558959960938 C 59.73467636108398 92.28384399414062 53.71063995361328 93.49987030029297 47.5000114440918 93.49987030029297 Z" stroke="none"/>
                                              <path d="M 47.5000114440918 3 C 41.49122619628906 3 35.66378021240234 4.1761474609375 30.17951965332031 6.495796203613281 C 24.880859375 8.7369384765625 20.12153625488281 11.94596862792969 16.03376770019531 16.03373718261719 C 11.94598388671875 20.12149047851562 8.736968994140625 24.88081359863281 6.495811462402344 30.17947387695312 C 4.176162719726562 35.66371917724609 3.000007629394531 41.49116516113281 3.000007629394531 47.49993515014648 C 3.000007629394531 53.50870513916016 4.176162719726562 59.33615112304688 6.495811462402344 64.82039642333984 C 8.736968994140625 70.11905670166016 11.94598388671875 74.87837982177734 16.03376770019531 78.96613311767578 C 20.12153625488281 83.05390167236328 24.880859375 86.26293182373047 30.17951965332031 88.50407409667969 C 35.66378021240234 90.82372283935547 41.49122619628906 91.99987030029297 47.5000114440918 91.99987030029297 C 53.50879669189453 91.99987030029297 59.33624267578125 90.82372283935547 64.82050323486328 88.50407409667969 C 70.11916351318359 86.26293182373047 74.87848663330078 83.05390167236328 78.96625518798828 78.96613311767578 C 83.05403900146484 74.87837982177734 86.2630615234375 70.11905670166016 88.50421142578125 64.82039642333984 C 90.82386016845703 59.33615112304688 92.00001525878906 53.50870513916016 92.00001525878906 47.49993515014648 C 92.00001525878906 41.49116516113281 90.82386016845703 35.66371917724609 88.50421142578125 30.17947387695312 C 86.2630615234375 24.88081359863281 83.05403900146484 20.12149047851562 78.96625518798828 16.03373718261719 C 74.87848663330078 11.94596862792969 70.11916351318359 8.7369384765625 64.82050323486328 6.495796203613281 C 59.33624267578125 4.1761474609375 53.50879669189453 3 47.5000114440918 3 M 47.5000114440918 0 C 73.73353576660156 0 95.00001525878906 21.26644134521484 95.00001525878906 47.49993515014648 C 95.00001525878906 73.73342895507812 73.73353576660156 94.99987030029297 47.5000114440918 94.99987030029297 C 21.26648712158203 94.99987030029297 7.62939453125e-06 73.73342895507812 7.62939453125e-06 47.49993515014648 C 7.62939453125e-06 21.26644134521484 21.26648712158203 0 47.5000114440918 0 Z" stroke="none" fill="#f8ce24"/>
                                            </g>
                                          </g>
                                        </g>
                                      </g>
                                    </g>
                                  </g>
                                </g>
                              </g>
                            </g>
                          </g>
                        </g>
                      </g>
                    </g>
                  </g>
                </g>
              </g>
            </g>
          </g>
        </g>
      </g>
    </g>
    <g id="spray-screen-cleaning-clean-people" transform="translate(847.815 863.815)">
      <path id="Trazado_1054174" data-name="Trazado 1054174" d="M6,5.012V57.333H58.321V5.012A2.012,2.012,0,0,0,56.308,3H8.012A2.012,2.012,0,0,0,6,5.012Z" transform="translate(0.025 0.006)" fill="#a78966"/>
      <path id="Trazado_1054175" data-name="Trazado 1054175" d="M58.037,5.012V57.333H54.012V5.012A2.018,2.018,0,0,0,52,3h4.025a2.018,2.018,0,0,1,2.012,2.012Z" transform="translate(0.308 0.006)" fill="#957856"/>
      <path id="Trazado_1054176" data-name="Trazado 1054176" d="M10,7H54.271V57.308H10Z" transform="translate(0.049 0.031)" fill="#e0e0e2"/>
      <path id="Trazado_1054177" data-name="Trazado 1054177" d="M50,7h4.025V57.308H50Z" transform="translate(0.296 0.031)" fill="#c6c5ca"/>
      <path id="Trazado_1054178" data-name="Trazado 1054178" d="M3,57H61.358v4.025H3Z" transform="translate(0.006 0.339)" fill="#a78966"/>
      <g id="Grupo_1210616" data-name="Grupo 1210616" transform="translate(43.253 7.031)">
        <path id="Trazado_1054179" data-name="Trazado 1054179" d="M50,45h4.025v4.025H50Z" transform="translate(-42.957 -6.766)" fill="#898890"/>
        <path id="Trazado_1054180" data-name="Trazado 1054180" d="M54.025,28v4.025H50V28Z" transform="translate(-42.957 -6.87)" fill="#898890"/>
        <path id="Trazado_1054181" data-name="Trazado 1054181" d="M43,7h4.025v4.025H43Z" transform="translate(-43 -7)" fill="#898890"/>
      </g>
      <path id="Trazado_1054182" data-name="Trazado 1054182" d="M39.086,29.012V41.086H25V29.012A2.018,2.018,0,0,1,27.012,27H37.074A2.018,2.018,0,0,1,39.086,29.012Z" transform="translate(0.142 0.154)" fill="#91dc5a"/>
      <path id="Trazado_1054183" data-name="Trazado 1054183" d="M39.037,29.012V41.086H35.012V29.012A2.018,2.018,0,0,0,33,27h4.025A2.018,2.018,0,0,1,39.037,29.012Z" transform="translate(0.191 0.154)" fill="#5eac24"/>
      <path id="Trazado_1054184" data-name="Trazado 1054184" d="M36.025,41V57.1H32V41h4.025Z" transform="translate(0.185 0.241)" fill="#a78966"/>
      <path id="Trazado_1054185" data-name="Trazado 1054185" d="M36.049,21.012v2.012a4.025,4.025,0,1,1-8.049,0V21.012L32.025,19Z" transform="translate(0.16 0.105)" fill="#ffc477"/>
      <path id="Trazado_1054186" data-name="Trazado 1054186" d="M36.049,19.025v2.012l-4.025-2.012L28,21.037V19.025a4.025,4.025,0,0,1,8.049,0Z" transform="translate(0.16 0.08)" fill="#ffd422"/>
      <path id="Trazado_1054187" data-name="Trazado 1054187" d="M36.034,21.012v2.012a4.025,4.025,0,0,1-4.025,4.025,3.779,3.779,0,0,1-1.509-.3,4,4,0,0,0,2.515-3.723V21.012L30.5,19.755,32.009,19Z" transform="translate(0.176 0.105)" fill="#ffa733"/>
      <path id="Trazado_1054188" data-name="Trazado 1054188" d="M36.034,19.025v2.012l-3.019-1.509v-.5a4.05,4.05,0,0,0-1.177-2.847A4.113,4.113,0,0,0,30.5,15.3a3.779,3.779,0,0,1,1.509-.3,4.02,4.02,0,0,1,4.025,4.025Z" transform="translate(0.176 0.08)" fill="#ebbf00"/>
      <path id="Trazado_1054189" data-name="Trazado 1054189" d="M32.025,41V57.1H28V41h4.025Z" transform="translate(0.16 0.241)" fill="#a78966"/>
      <path id="Trazado_1054190" data-name="Trazado 1054190" d="M17,7h4.025v4.025H17Z" transform="translate(0.093 0.031)" fill="#898890"/>
      <path id="Trazado_1054191" data-name="Trazado 1054191" d="M14.025,47.012v2.012H10V45h4.025Z" transform="translate(0.049 0.265)" fill="#898890"/>
      <path id="Trazado_1054192" data-name="Trazado 1054192" d="M14.025,30.012v2.012H10V28h4.025Z" transform="translate(0.049 0.16)" fill="#898890"/>
      <path id="Trazado_1054193" data-name="Trazado 1054193" d="M61.364,56.333H59.351V5.018A3.028,3.028,0,0,0,56.333,2H8.037A3.028,3.028,0,0,0,5.018,5.018V56.333H3.006A1.006,1.006,0,0,0,2,57.339v4.025A1.006,1.006,0,0,0,3.006,62.37H61.364a1.006,1.006,0,0,0,1.006-1.006V57.339A1.006,1.006,0,0,0,61.364,56.333ZM7.031,5.018A1.006,1.006,0,0,1,8.037,4.012h48.3a1.006,1.006,0,0,1,1.006,1.006V56.333H55.327V7.031a1.006,1.006,0,0,0-1.006-1.006H10.049A1.006,1.006,0,0,0,9.043,7.031v49.3H7.031ZM50.3,27.154A1.006,1.006,0,0,0,49.29,28.16v4.025A1.006,1.006,0,0,0,50.3,33.191h3.018V44.259H50.3a1.006,1.006,0,0,0-1.006,1.006V49.29A1.006,1.006,0,0,0,50.3,50.3h3.018v6.037h-16.1V42.247h2.012a1.006,1.006,0,0,0,1.006-1.006V29.167a3.028,3.028,0,0,0-3.019-3.019H36.179a4.954,4.954,0,0,0,1.036-3.018V19.1a5.031,5.031,0,1,0-10.062,0V23.13a4.954,4.954,0,0,0,1.036,3.018H27.154a3.028,3.028,0,0,0-3.019,3.018V41.24a1.006,1.006,0,0,0,1.006,1.006h2.012V56.333h-16.1V50.3h3.019A1.006,1.006,0,0,0,15.08,49.29V45.265a1.006,1.006,0,0,0-1.006-1.006H11.056V33.191h3.019a1.006,1.006,0,0,0,1.006-1.006V28.16a1.006,1.006,0,0,0-1.006-1.006H11.056V8.037h5.031v3.019a1.006,1.006,0,0,0,1.006,1.006h4.025a1.006,1.006,0,0,0,1.006-1.006V8.037H42.247v3.019a1.006,1.006,0,0,0,1.006,1.006h4.025a1.006,1.006,0,0,0,1.006-1.006V8.037h5.031V27.154Zm3.018,2.012v2.012H51.3V29.167Zm0,17.1v2.012H51.3V46.271ZM34.2,31.179v9.055H30.173V31.179H28.16v9.055H26.148V29.167a1.006,1.006,0,0,1,1.006-1.006H37.216a1.006,1.006,0,0,1,1.006,1.006V40.234H36.21V31.179ZM35.2,42.247V56.333H33.191V42.247Zm-4.025,0V56.333H29.167V42.247Zm1.006-22.015L35.2,21.741V23.13a3.018,3.018,0,1,1-6.037,0V21.741Zm-3.019-.745V19.1a3.018,3.018,0,1,1,6.037,0v.382l-2.566-1.278a.962.962,0,0,0-.906,0Zm-18.111,28.8V46.271h2.012v2.012Zm0-17.1V29.167h2.012v2.012ZM18.1,10.049V8.037h2.012v2.012Zm26.16,0V8.037h2.012v2.012Zm16.1,50.308H4.012V58.345H60.358Z"/>
      <path id="Trazado_1054194" data-name="Trazado 1054194" d="M18,14h2.012v2.012H18Z" transform="translate(0.099 0.074)"/>
      <path id="Trazado_1054195" data-name="Trazado 1054195" d="M18,18h2.012v2.012H18Z" transform="translate(0.099 0.099)"/>
      <path id="Trazado_1054196" data-name="Trazado 1054196" d="M0,0H2.012V2.012H0Z" transform="matrix(0.866, -0.5, 0.5, 0.866, 21.251, 14.577)"/>
      <path id="Trazado_1054197" data-name="Trazado 1054197" d="M0,0H2.012V2.012H0Z" transform="matrix(0.866, -0.5, 0.5, 0.866, 23.264, 18.059)"/>
      <path id="Trazado_1054198" data-name="Trazado 1054198" d="M0,0H2.012V2.012H0Z" transform="matrix(0.5, -0.866, 0.866, 0.5, 14.209, 15.314)"/>
      <path id="Trazado_1054199" data-name="Trazado 1054199" d="M0,0H2.012V2.012H0Z" transform="matrix(0.5, -0.866, 0.866, 0.5, 12.196, 18.801)"/>
      <path id="Trazado_1054200" data-name="Trazado 1054200" d="M44,14h2.012v2.012H44Z" transform="translate(0.259 0.074)"/>
      <path id="Trazado_1054201" data-name="Trazado 1054201" d="M44,18h2.012v2.012H44Z" transform="translate(0.259 0.099)"/>
      <path id="Trazado_1054202" data-name="Trazado 1054202" d="M0,0H2.012V2.012H0Z" transform="matrix(0.866, -0.5, 0.5, 0.866, 47.41, 14.572)"/>
      <path id="Trazado_1054203" data-name="Trazado 1054203" d="M0,0H2.012V2.012H0Z" transform="matrix(0.866, -0.5, 0.5, 0.866, 49.423, 18.057)"/>
      <path id="Trazado_1054204" data-name="Trazado 1054204" d="M0,0H2.012V2.012H0Z" transform="matrix(0.5, -0.866, 0.866, 0.5, 40.371, 15.318)"/>
      <path id="Trazado_1054205" data-name="Trazado 1054205" d="M0,0H2.012V2.012H0Z" transform="matrix(0.5, -0.866, 0.866, 0.5, 38.359, 18.803)"/>
      <path id="Trazado_1054206" data-name="Trazado 1054206" d="M17,29h2.012v2.012H17Z" transform="translate(0.093 0.167)"/>
      <path id="Trazado_1054207" data-name="Trazado 1054207" d="M21,29h2.012v2.012H21Z" transform="translate(0.117 0.167)"/>
      <path id="Trazado_1054208" data-name="Trazado 1054208" d="M0,0H2.012V2.012H0Z" transform="matrix(0.866, -0.5, 0.5, 0.866, 16.59, 26.28)"/>
      <path id="Trazado_1054209" data-name="Trazado 1054209" d="M0,0H2.012V2.012H0Z" transform="matrix(0.866, -0.5, 0.5, 0.866, 20.076, 24.267)"/>
      <path id="Trazado_1054210" data-name="Trazado 1054210" d="M0,0H2.012V2.012H0Z" transform="matrix(0.5, -0.866, 0.866, 0.5, 16.588, 34.067)"/>
      <path id="Trazado_1054211" data-name="Trazado 1054211" d="M0,0H2.012V2.012H0Z" transform="matrix(0.5, -0.866, 0.866, 0.5, 20.074, 36.079)"/>
      <path id="Trazado_1054212" data-name="Trazado 1054212" d="M17,46h2.012v2.012H17Z" transform="translate(0.093 0.271)"/>
      <path id="Trazado_1054213" data-name="Trazado 1054213" d="M21,46h2.012v2.012H21Z" transform="translate(0.117 0.271)"/>
      <path id="Trazado_1054214" data-name="Trazado 1054214" d="M0,0H2.012V2.012H0Z" transform="matrix(0.866, -0.5, 0.5, 0.866, 16.591, 43.384)"/>
      <path id="Trazado_1054215" data-name="Trazado 1054215" d="M0,0H2.012V2.012H0Z" transform="matrix(0.866, -0.5, 0.5, 0.866, 20.077, 41.37)"/>
      <path id="Trazado_1054216" data-name="Trazado 1054216" d="M0,0H2.012V2.012H0Z" transform="matrix(0.5, -0.866, 0.866, 0.5, 16.587, 51.172)"/>
      <path id="Trazado_1054217" data-name="Trazado 1054217" d="M0,0H2.012V2.012H0Z" transform="matrix(0.5, -0.866, 0.866, 0.5, 20.073, 53.186)"/>
      <path id="Trazado_1054218" data-name="Trazado 1054218" d="M45,29h2.012v2.012H45Z" transform="translate(0.265 0.167)"/>
      <path id="Trazado_1054219" data-name="Trazado 1054219" d="M41,29h2.012v2.012H41Z" transform="translate(0.241 0.167)"/>
      <path id="Trazado_1054220" data-name="Trazado 1054220" d="M0,0H2.012V2.012H0Z" transform="matrix(0.5, -0.866, 0.866, 0.5, 45.034, 27.024)"/>
      <path id="Trazado_1054221" data-name="Trazado 1054221" d="M0,0H2.012V2.012H0Z" transform="matrix(0.5, -0.866, 0.866, 0.5, 41.548, 25.012)"/>
      <path id="Trazado_1054222" data-name="Trazado 1054222" d="M0,0H2.012V2.012H0Z" transform="matrix(0.866, -0.5, 0.5, 0.866, 45.031, 33.32)"/>
      <path id="Trazado_1054223" data-name="Trazado 1054223" d="M0,0H2.012V2.012H0Z" transform="matrix(0.866, -0.5, 0.5, 0.866, 41.547, 35.332)"/>
      <path id="Trazado_1054224" data-name="Trazado 1054224" d="M45,46h2.012v2.012H45Z" transform="translate(0.265 0.271)"/>
      <path id="Trazado_1054225" data-name="Trazado 1054225" d="M41,46h2.012v2.012H41Z" transform="translate(0.241 0.271)"/>
      <path id="Trazado_1054226" data-name="Trazado 1054226" d="M0,0H2.012V2.012H0Z" transform="matrix(0.5, -0.866, 0.866, 0.5, 45.032, 44.131)"/>
      <path id="Trazado_1054227" data-name="Trazado 1054227" d="M0,0H2.012V2.012H0Z" transform="matrix(0.5, -0.866, 0.866, 0.5, 41.546, 42.119)"/>
      <path id="Trazado_1054228" data-name="Trazado 1054228" d="M0,0H2.012V2.012H0Z" transform="matrix(0.866, -0.5, 0.5, 0.866, 45.033, 50.424)"/>
      <path id="Trazado_1054229" data-name="Trazado 1054229" d="M0,0H2.012V2.012H0Z" transform="matrix(0.866, -0.5, 0.5, 0.866, 41.548, 52.436)"/>
    </g>
  </g>
</svg>
