<svg xmlns="http://www.w3.org/2000/svg" xmlns:xlink="http://www.w3.org/1999/xlink" width="113" height="113" viewBox="0 0 113 113">
  <defs>
    <filter id="Trazado_982547" x="0" y="0" width="113" height="113" filterUnits="userSpaceOnUse">
      <feOffset dy="3" input="SourceAlpha"/>
      <feGaussianBlur stdDeviation="3" result="blur"/>
      <feFlood flood-opacity="0.161"/>
      <feComposite operator="in" in2="blur"/>
      <feComposite in="SourceGraphic"/>
    </filter>
  </defs>
  <g id="Grupo_1210627" data-name="Grupo 1210627" transform="translate(-3920 -844.448)">
    <g id="Grupo_1210490" data-name="Grupo 1210490" transform="translate(2782 -14857.543)">
      <g id="Grupo_1210150" data-name="Grupo 1210150" transform="translate(26 13379.992)">
        <g id="Grupo_1209055" data-name="Grupo 1209055" transform="translate(0 1091.783)">
          <g id="Grupo_1209049" data-name="Grupo 1209049">
            <g id="Grupo_1208493" data-name="Grupo 1208493" transform="translate(0 -4397.209)">
              <g id="Grupo_1202104" data-name="Grupo 1202104" transform="translate(0 -1149.226)">
                <g id="Grupo_1201923" data-name="Grupo 1201923" transform="translate(-4174.49 4856.378)">
                  <g id="Grupo_1176928" data-name="Grupo 1176928" transform="translate(5295.49 1926.273)">
                    <g id="Grupo_1172322" data-name="Grupo 1172322" transform="translate(0 0)">
                      <g id="Grupo_1164700" data-name="Grupo 1164700">
                        <g id="Grupo_1160931" data-name="Grupo 1160931">
                          <g id="Grupo_1160749" data-name="Grupo 1160749">
                            <g id="Grupo_1158891" data-name="Grupo 1158891">
                              <g id="Grupo_1157406" data-name="Grupo 1157406">
                                <g id="Grupo_1155793" data-name="Grupo 1155793">
                                  <g id="Grupo_1154704" data-name="Grupo 1154704">
                                    <g id="Grupo_1150790" data-name="Grupo 1150790">
                                      <g id="Grupo_1154214" data-name="Grupo 1154214">
                                        <g id="Grupo_1152583" data-name="Grupo 1152583">
                                          <g id="Grupo_1146973" data-name="Grupo 1146973">
                                            <g id="Grupo_1146954" data-name="Grupo 1146954">
                                              <g transform="matrix(1, 0, 0, 1, -9, -6)" filter="url(#Trazado_982547)">
                                                <g id="Trazado_982547-2" data-name="Trazado 982547" transform="translate(9 6)" fill="#fef9e7">
                                                  <path d="M 47.5000114440918 93.49987030029297 C 41.28938293457031 93.49987030029297 35.26534652709961 92.28384399414062 29.5951976776123 89.88558959960938 C 24.11773109436035 87.56881713867188 19.19814491271973 84.25183868408203 14.97310447692871 80.02680206298828 C 10.74805164337158 75.80176544189453 7.43107795715332 70.88218688964844 5.114304542541504 65.40472412109375 C 2.716038227081299 59.73458862304688 1.500011444091797 53.71054840087891 1.500011444091797 47.49993515014648 C 1.500011444091797 41.28932189941406 2.716038227081299 35.26528167724609 5.114304542541504 29.59514808654785 C 7.43107795715332 24.1176815032959 10.74805164337158 19.1981086730957 14.97310447692871 14.97306823730469 C 19.19814491271973 10.74802875518799 24.11773109436035 7.431055068969727 29.5951976776123 5.11428165435791 C 35.26534652709961 2.716028451919556 41.28938293457031 1.500001788139343 47.5000114440918 1.500001788139343 C 53.71063995361328 1.500001788139343 59.73467636108398 2.716028451919556 65.40482330322266 5.11428165435791 C 70.88229370117188 7.431055068969727 75.8018798828125 10.74802875518799 80.02691650390625 14.97306823730469 C 84.25196838378906 19.1981086730957 87.56894683837891 24.1176815032959 89.88571929931641 29.59514808654785 C 92.28398132324219 35.26528167724609 93.50001525878906 41.28932189941406 93.50001525878906 47.49993515014648 C 93.50001525878906 53.71054840087891 92.28398132324219 59.73458862304688 89.88571929931641 65.40472412109375 C 87.56894683837891 70.88218688964844 84.25196838378906 75.80176544189453 80.02691650390625 80.02680206298828 C 75.8018798828125 84.25183868408203 70.88229370117188 87.56881713867188 65.40482330322266 89.88558959960938 C 59.73467636108398 92.28384399414062 53.71063995361328 93.49987030029297 47.5000114440918 93.49987030029297 Z" stroke="none"/>
                                                  <path d="M 47.5000114440918 3 C 41.49122619628906 3 35.66378021240234 4.1761474609375 30.17951965332031 6.495796203613281 C 24.880859375 8.7369384765625 20.12153625488281 11.94596862792969 16.03376770019531 16.03373718261719 C 11.94598388671875 20.12149047851562 8.736968994140625 24.88081359863281 6.495811462402344 30.17947387695312 C 4.176162719726562 35.66371917724609 3.000007629394531 41.49116516113281 3.000007629394531 47.49993515014648 C 3.000007629394531 53.50870513916016 4.176162719726562 59.33615112304688 6.495811462402344 64.82039642333984 C 8.736968994140625 70.11905670166016 11.94598388671875 74.87837982177734 16.03376770019531 78.96613311767578 C 20.12153625488281 83.05390167236328 24.880859375 86.26293182373047 30.17951965332031 88.50407409667969 C 35.66378021240234 90.82372283935547 41.49122619628906 91.99987030029297 47.5000114440918 91.99987030029297 C 53.50879669189453 91.99987030029297 59.33624267578125 90.82372283935547 64.82050323486328 88.50407409667969 C 70.11916351318359 86.26293182373047 74.87848663330078 83.05390167236328 78.96625518798828 78.96613311767578 C 83.05403900146484 74.87837982177734 86.2630615234375 70.11905670166016 88.50421142578125 64.82039642333984 C 90.82386016845703 59.33615112304688 92.00001525878906 53.50870513916016 92.00001525878906 47.49993515014648 C 92.00001525878906 41.49116516113281 90.82386016845703 35.66371917724609 88.50421142578125 30.17947387695312 C 86.2630615234375 24.88081359863281 83.05403900146484 20.12149047851562 78.96625518798828 16.03373718261719 C 74.87848663330078 11.94596862792969 70.11916351318359 8.7369384765625 64.82050323486328 6.495796203613281 C 59.33624267578125 4.1761474609375 53.50879669189453 3 47.5000114440918 3 M 47.5000114440918 0 C 73.73353576660156 0 95.00001525878906 21.26644134521484 95.00001525878906 47.49993515014648 C 95.00001525878906 73.73342895507812 73.73353576660156 94.99987030029297 47.5000114440918 94.99987030029297 C 21.26648712158203 94.99987030029297 7.62939453125e-06 73.73342895507812 7.62939453125e-06 47.49993515014648 C 7.62939453125e-06 21.26644134521484 21.26648712158203 0 47.5000114440918 0 Z" stroke="none" fill="#f8ce24"/>
                                                </g>
                                              </g>
                                            </g>
                                          </g>
                                        </g>
                                      </g>
                                    </g>
                                  </g>
                                </g>
                              </g>
                            </g>
                          </g>
                        </g>
                      </g>
                    </g>
                  </g>
                </g>
              </g>
            </g>
          </g>
        </g>
      </g>
    </g>
    <g id="electrician_7215361" transform="translate(3921.5 855.833)">
      <g id="Grupo_1210622" data-name="Grupo 1210622" transform="translate(28.308 7.5)">
        <path id="Trazado_1054230" data-name="Trazado 1054230" d="M76.466,346.85v13.175a2.747,2.747,0,0,1-2.747,2.747H31.055a2.747,2.747,0,0,1-2.747-2.747V346.85a5.49,5.49,0,0,1,5.49-5.49H70.976A5.49,5.49,0,0,1,76.466,346.85Z" transform="translate(-28.308 -297.542)" fill="#bec6ed"/>
        <g id="Grupo_1210619" data-name="Grupo 1210619" transform="translate(36.858 43.818)">
          <path id="Trazado_1054231" data-name="Trazado 1054231" d="M320.438,346.85v9.015a9.979,9.979,0,0,1-1.162.067,10.143,10.143,0,0,1-9.12-14.572h4.792A5.49,5.49,0,0,1,320.438,346.85Z" transform="translate(-309.138 -341.36)" fill="#a2aee6"/>
        </g>
        <path id="Trazado_1054232" data-name="Trazado 1054232" d="M318.62,341.355h-5.255a5.49,5.49,0,0,1,5.49,5.49V360.02a2.747,2.747,0,0,1-2.747,2.747h5.255a2.747,2.747,0,0,0,2.747-2.747V346.845A5.49,5.49,0,0,0,318.62,341.355Z" transform="translate(-275.952 -297.538)" fill="#a2aee6"/>
        <path id="Trazado_1054233" data-name="Trazado 1054233" d="M215.98,341.355H222.1v7.54a1.9,1.9,0,0,1-1.895,1.895h-1.168l-7.271,11.978v-7.941Z" transform="translate(-187.692 -297.538)" fill="#838383"/>
        <path id="Trazado_1054234" data-name="Trazado 1054234" d="M219.477,341.355v7.54a1.894,1.894,0,0,1-1.894,1.894h0a2.075,2.075,0,0,0-1.774,1l-4.038,6.651v4.329l7.271-11.978h1.168a1.894,1.894,0,0,0,1.894-1.894v-7.54Z" transform="translate(-187.692 -297.538)" fill="#696969"/>
        <path id="Trazado_1054235" data-name="Trazado 1054235" d="M179.7,341.355l4.209,13.471,4.209-13.471Z" transform="translate(-159.831 -297.538)" fill="#e5e1e5"/>
        <path id="Trazado_1054236" data-name="Trazado 1054236" d="M204.656,341.355l-2.9,9.266,1.314,4.2,4.209-13.471Z" transform="translate(-178.996 -297.538)" fill="#d7d0d6"/>
        <path id="Trazado_1054237" data-name="Trazado 1054237" d="M138.717,143.087H130.3a7.463,7.463,0,0,1-7.463-7.463v-14.96H146.18v14.96A7.463,7.463,0,0,1,138.717,143.087Z" transform="translate(-110.429 -105.811)" fill="#ffcebf"/>
        <path id="Trazado_1054238" data-name="Trazado 1054238" d="M231.283,120.663v14.96a7.463,7.463,0,0,1-7.463,7.463h2.628a7.463,7.463,0,0,0,7.463-7.463v-14.96Z" transform="translate(-198.16 -105.811)" fill="#ffb09e"/>
        <path id="Trazado_1054239" data-name="Trazado 1054239" d="M80.793,166.764h3.278V157.8H80.793a2.578,2.578,0,0,0-2.578,2.578v3.805A2.579,2.579,0,0,0,80.793,166.764Z" transform="translate(-71.665 -138.075)" fill="#ffcebf"/>
        <rect id="Rectángulo_419552" data-name="Rectángulo 419552" width="2.628" height="8.962" transform="translate(9.779 19.727)" fill="#ffb09e"/>
        <path id="Trazado_1054240" data-name="Trazado 1054240" d="M300.707,166.763h3.278a2.578,2.578,0,0,0,2.578-2.578v-3.805a2.578,2.578,0,0,0-2.578-2.578h-3.278Z" transform="translate(-264.956 -138.074)" fill="#ffcebf"/>
        <path id="Trazado_1054241" data-name="Trazado 1054241" d="M308.289,157.8h-2.628a2.578,2.578,0,0,1,2.578,2.578v3.805a2.578,2.578,0,0,1-2.578,2.578h2.628a2.578,2.578,0,0,0,2.578-2.578V160.38A2.578,2.578,0,0,0,308.289,157.8Z" transform="translate(-269.259 -138.075)" fill="#ffb09e"/>
        <path id="Trazado_1054242" data-name="Trazado 1054242" d="M139.164,341.355H133.04v7.54a1.9,1.9,0,0,0,1.895,1.895H136.1l7.271,11.978v-7.941Z" transform="translate(-119.294 -297.538)" fill="#838383"/>
        <path id="Trazado_1054243" data-name="Trazado 1054243" d="M162.307,341.355h-2.628L163.7,354.23a4.092,4.092,0,0,1,.186,1.22v2.988l2.628,4.329v-7.941Z" transform="translate(-142.437 -297.538)" fill="#696969"/>
        <path id="Trazado_1054244" data-name="Trazado 1054244" d="M179.7,291.514h8.418v6.541h0a6.317,6.317,0,0,1-8.418,0h0Z" transform="translate(-159.831 -254.238)" fill="#ffb09e"/>
        <path id="Trazado_1054245" data-name="Trazado 1054245" d="M204.655,291.514v6.541h0a6.292,6.292,0,0,1-2.9,1.468,6.312,6.312,0,0,0,5.523-1.468h0v-6.541Z" transform="translate(-178.995 -254.238)" fill="#ffa78f"/>
        <path id="Trazado_1054246" data-name="Trazado 1054246" d="M122.836,120.663v4.874l6.215,2.973a2.448,2.448,0,0,0,2.4-.164l3.054-2.013,3.054,2.013a2.448,2.448,0,0,0,2.4.164l6.215-2.973v-4.874Z" transform="translate(-110.43 -105.811)" fill="#4f66d0"/>
        <path id="Trazado_1054247" data-name="Trazado 1054247" d="M232.8,120.663v4a.751.751,0,0,1-.44.683l-4.744,2.156a2.447,2.447,0,0,1-2.05.028l1.243.819a2.448,2.448,0,0,0,2.4.164l6.215-2.973v-4.874Z" transform="translate(-199.677 -105.811)" fill="#3b58c4"/>
        <g id="Grupo_1210620" data-name="Grupo 1210620" transform="translate(8.423 0)">
          <path id="Trazado_1054248" data-name="Trazado 1054248" d="M94.688,91.5h26.907a2.2,2.2,0,0,0,2.2-2.2h0a2.2,2.2,0,0,0-2.2-2.2H94.688a2.2,2.2,0,0,0-2.2,2.2h0A2.2,2.2,0,0,0,94.688,91.5Z" transform="translate(-92.485 -76.65)" fill="#ffd15b"/>
          <path id="Trazado_1054249" data-name="Trazado 1054249" d="M288.208,87.1H284.27a2.2,2.2,0,0,1,2.2,2.2h0a2.2,2.2,0,0,1-2.2,2.2h3.938a2.2,2.2,0,0,0,2.2-2.2h0A2.2,2.2,0,0,0,288.208,87.1Z" transform="translate(-259.099 -76.649)" fill="#ffc344"/>
          <path id="Trazado_1054250" data-name="Trazado 1054250" d="M117.693,7.5H129.6a7.357,7.357,0,0,1,7.357,7.357v3.089H110.336V14.857A7.357,7.357,0,0,1,117.693,7.5Z" transform="translate(-107.993 -7.5)" fill="#ffe177"/>
          <path id="Trazado_1054251" data-name="Trazado 1054251" d="M231.082,7.5h-3.938a7.357,7.357,0,0,1,7.357,7.357v3.089h3.938V14.857A7.357,7.357,0,0,0,231.082,7.5Z" transform="translate(-209.47 -7.5)" fill="#ffd15b"/>
        </g>
        <path id="Trazado_1054252" data-name="Trazado 1054252" d="M102.386,340.69h4.023V317.955a2.012,2.012,0,0,0-2.012-2.012h0a2.012,2.012,0,0,0-2.012,2.012Z" transform="translate(-92.664 -275.461)" fill="#d77f4a"/>
        <path id="Trazado_1054253" data-name="Trazado 1054253" d="M71.732,340.69h4.023V317.955a2.012,2.012,0,0,0-2.012-2.012h0a2.012,2.012,0,0,0-2.012,2.012Z" transform="translate(-66.033 -275.461)" fill="#e19974"/>
        <path id="Trazado_1054254" data-name="Trazado 1054254" d="M71.732,340.69h4.023V317.955a2.012,2.012,0,0,0-2.012-2.012h0a2.012,2.012,0,0,0-2.012,2.012Z" transform="translate(-66.033 -275.461)" fill="#e19974"/>
        <g id="Grupo_1210621" data-name="Grupo 1210621" transform="translate(39.491 38.113)">
          <circle id="Elipse_13455" data-name="Elipse 13455" cx="10.139" cy="10.139" r="10.139" transform="translate(0)" fill="#ffd15b"/>
        </g>
        <path id="Trazado_1054255" data-name="Trazado 1054255" d="M393.374,297.894a10.186,10.186,0,0,0-1.975.194,10.139,10.139,0,0,1,0,19.89,10.139,10.139,0,1,0,1.975-20.083Z" transform="translate(-343.744 -259.781)" fill="#ffc344"/>
      </g>
      <g id="Grupo_1210626" data-name="Grupo 1210626" transform="translate(28.308 7.5)">
        <line id="Línea_818" data-name="Línea 818" x1="6.124" transform="translate(13.745 43.818)" fill="none" stroke="#000" stroke-linecap="round" stroke-linejoin="round" stroke-miterlimit="10" stroke-width="1.5"/>
        <line id="Línea_819" data-name="Línea 819" x1="12.222" transform="translate(28.288 43.818)" fill="none" stroke="#000" stroke-linecap="round" stroke-linejoin="round" stroke-miterlimit="10" stroke-width="1.5"/>
        <path id="Trazado_1054256" data-name="Trazado 1054256" d="M76.466,355.826v4.2a2.747,2.747,0,0,1-2.747,2.747H31.055a2.747,2.747,0,0,1-2.747-2.747V346.85a5.49,5.49,0,0,1,5.49-5.49h.209" transform="translate(-28.308 -297.542)" fill="none" stroke="#000" stroke-linecap="round" stroke-linejoin="round" stroke-miterlimit="10" stroke-width="1.5"/>
        <path id="Trazado_1054257" data-name="Trazado 1054257" d="M179.7,341.355l4.209,13.471,4.209-13.471" transform="translate(-159.831 -297.538)" fill="none" stroke="#000" stroke-linecap="round" stroke-linejoin="round" stroke-miterlimit="10" stroke-width="1.5"/>
        <path id="Trazado_1054258" data-name="Trazado 1054258" d="M138.717,143.087H130.3a7.463,7.463,0,0,1-7.463-7.463v-14.96H146.18v14.96A7.463,7.463,0,0,1,138.717,143.087Z" transform="translate(-110.429 -105.811)" fill="none" stroke="#000" stroke-linecap="round" stroke-linejoin="round" stroke-miterlimit="10" stroke-width="1.5"/>
        <path id="Trazado_1054259" data-name="Trazado 1054259" d="M80.793,166.764h3.278V157.8H80.793a2.578,2.578,0,0,0-2.578,2.578v3.805A2.579,2.579,0,0,0,80.793,166.764Z" transform="translate(-71.665 -138.075)" fill="none" stroke="#000" stroke-linecap="round" stroke-linejoin="round" stroke-miterlimit="10" stroke-width="1.5"/>
        <path id="Trazado_1054260" data-name="Trazado 1054260" d="M300.707,166.763h3.278a2.578,2.578,0,0,0,2.578-2.578v-3.805a2.578,2.578,0,0,0-2.578-2.578h-3.278Z" transform="translate(-264.956 -138.074)" fill="none" stroke="#000" stroke-linecap="round" stroke-linejoin="round" stroke-miterlimit="10" stroke-width="1.5"/>
        <path id="Trazado_1054261" data-name="Trazado 1054261" d="M179.7,291.514h8.418v6.541h0a6.317,6.317,0,0,1-8.418,0h0Z" transform="translate(-159.831 -254.238)" fill="none" stroke="#000" stroke-linecap="round" stroke-linejoin="round" stroke-miterlimit="10" stroke-width="1.5"/>
        <path id="Trazado_1054262" data-name="Trazado 1054262" d="M122.836,120.663v4.874l6.215,2.973a2.448,2.448,0,0,0,2.4-.164l3.054-2.013,3.054,2.013a2.448,2.448,0,0,0,2.4.164l6.215-2.973v-4.874Z" transform="translate(-110.43 -105.811)" fill="none" stroke="#000" stroke-linecap="round" stroke-linejoin="round" stroke-miterlimit="10" stroke-width="1.5"/>
        <line id="Línea_820" data-name="Línea 820" y2="3.684" transform="translate(24.079 20.523)" fill="none" stroke="#000" stroke-linecap="round" stroke-linejoin="round" stroke-miterlimit="10" stroke-width="1.5"/>
        <path id="Trazado_1054263" data-name="Trazado 1054263" d="M197.709,232.881a4.9,4.9,0,0,0,3.691,0" transform="translate(-175.476 -203.3)" fill="none" stroke="#000" stroke-linecap="round" stroke-linejoin="round" stroke-miterlimit="10" stroke-width="1.5"/>
        <g id="Grupo_1210624" data-name="Grupo 1210624" transform="translate(8.423 0)">
          <path id="Trazado_1054264" data-name="Trazado 1054264" d="M94.688,91.5h26.907a2.2,2.2,0,0,0,2.2-2.2h0a2.2,2.2,0,0,0-2.2-2.2H94.688a2.2,2.2,0,0,0-2.2,2.2h0A2.2,2.2,0,0,0,94.688,91.5Z" transform="translate(-92.485 -76.65)" fill="none" stroke="#000" stroke-linecap="round" stroke-linejoin="round" stroke-miterlimit="10" stroke-width="1.5"/>
          <path id="Trazado_1054265" data-name="Trazado 1054265" d="M136.962,17.948H110.336V14.858A7.357,7.357,0,0,1,117.693,7.5H129.6a7.36,7.36,0,0,1,7.2,5.84" transform="translate(-107.993 -7.501)" fill="none" stroke="#000" stroke-linecap="round" stroke-linejoin="round" stroke-miterlimit="10" stroke-width="1.5"/>
          <g id="Grupo_1210623" data-name="Grupo 1210623" transform="translate(12.824)">
            <line id="Línea_821" data-name="Línea 821" y2="10.447" fill="none" stroke="#000" stroke-linecap="round" stroke-linejoin="round" stroke-miterlimit="10" stroke-width="1.5"/>
            <line id="Línea_822" data-name="Línea 822" y2="10.447" transform="translate(5.664)" fill="none" stroke="#000" stroke-linecap="round" stroke-linejoin="round" stroke-miterlimit="10" stroke-width="1.5"/>
          </g>
        </g>
        <path id="Trazado_1054266" data-name="Trazado 1054266" d="M215.98,341.355H222.1v7.54a1.9,1.9,0,0,1-1.895,1.895h-1.168l-7.271,11.978v-7.941Z" transform="translate(-187.692 -297.538)" fill="none" stroke="#000" stroke-linecap="round" stroke-linejoin="round" stroke-miterlimit="10" stroke-width="1.5"/>
        <path id="Trazado_1054267" data-name="Trazado 1054267" d="M139.164,341.355H133.04v7.54a1.9,1.9,0,0,0,1.895,1.895H136.1l7.271,11.978v-7.941Z" transform="translate(-119.294 -297.538)" fill="none" stroke="#000" stroke-linecap="round" stroke-linejoin="round" stroke-miterlimit="10" stroke-width="1.5"/>
        <path id="Trazado_1054268" data-name="Trazado 1054268" d="M102.386,336.182v4.508h4.023V317.955a2.012,2.012,0,0,0-2.012-2.012h0a2.012,2.012,0,0,0-2.012,2.012v13.614" transform="translate(-92.664 -275.461)" fill="none" stroke="#000" stroke-linecap="round" stroke-linejoin="round" stroke-miterlimit="10" stroke-width="1.5"/>
        <path id="Trazado_1054269" data-name="Trazado 1054269" d="M75.755,317.955a2.012,2.012,0,0,0-2.012-2.012h0a2.012,2.012,0,0,0-2.012,2.012V340.69h4.023" transform="translate(-66.033 -275.461)" fill="none" stroke="#000" stroke-linecap="round" stroke-linejoin="round" stroke-miterlimit="10" stroke-width="1.5"/>
        <line id="Línea_823" data-name="Línea 823" x2="3.234" transform="translate(32.517 60.338)" fill="none" stroke="#000" stroke-linecap="round" stroke-linejoin="round" stroke-miterlimit="10" stroke-width="1.5"/>
        <g id="Grupo_1210625" data-name="Grupo 1210625" transform="translate(39.491 38.374)">
          <path id="Trazado_1054270" data-name="Trazado 1054270" d="M394.36,350.224l1.713-4.434h-3.691l1.713-4.434" transform="translate(-384.089 -335.911)" fill="none" stroke="#000" stroke-linecap="round" stroke-linejoin="round" stroke-miterlimit="10" stroke-width="1.5"/>
          <path id="Trazado_1054271" data-name="Trazado 1054271" d="M341.632,299.88a10.139,10.139,0,1,1-4.591,0" transform="translate(-329.196 -299.879)" fill="none" stroke="#000" stroke-linecap="round" stroke-linejoin="round" stroke-miterlimit="10" stroke-width="1.5"/>
        </g>
      </g>
    </g>
  </g>
</svg>
