<svg xmlns="http://www.w3.org/2000/svg" xmlns:xlink="http://www.w3.org/1999/xlink" width="113" height="113" viewBox="0 0 113 113">
  <defs>
    <filter id="Trazado_982547" x="0" y="0" width="113" height="113" filterUnits="userSpaceOnUse">
      <feOffset dy="3" input="SourceAlpha"/>
      <feGaussianBlur stdDeviation="3" result="blur"/>
      <feFlood flood-opacity="0.161"/>
      <feComposite operator="in" in2="blur"/>
      <feComposite in="SourceGraphic"/>
    </filter>
  </defs>
  <g id="Grupo_1210628" data-name="Grupo 1210628" transform="translate(-4276 -844.448)">
    <g id="Grupo_1210491" data-name="Grupo 1210491" transform="translate(3138 -14857.543)">
      <g id="Grupo_1210150" data-name="Grupo 1210150" transform="translate(26 13379.992)">
        <g id="Grupo_1209055" data-name="Grupo 1209055" transform="translate(0 1091.783)">
          <g id="Grupo_1209049" data-name="Grupo 1209049">
            <g id="Grupo_1208493" data-name="Grupo 1208493" transform="translate(0 -4397.209)">
              <g id="Grupo_1202104" data-name="Grupo 1202104" transform="translate(0 -1149.226)">
                <g id="Grupo_1201923" data-name="Grupo 1201923" transform="translate(-4174.49 4856.378)">
                  <g id="Grupo_1176928" data-name="Grupo 1176928" transform="translate(5295.49 1926.273)">
                    <g id="Grupo_1172322" data-name="Grupo 1172322" transform="translate(0 0)">
                      <g id="Grupo_1164700" data-name="Grupo 1164700">
                        <g id="Grupo_1160931" data-name="Grupo 1160931">
                          <g id="Grupo_1160749" data-name="Grupo 1160749">
                            <g id="Grupo_1158891" data-name="Grupo 1158891">
                              <g id="Grupo_1157406" data-name="Grupo 1157406">
                                <g id="Grupo_1155793" data-name="Grupo 1155793">
                                  <g id="Grupo_1154704" data-name="Grupo 1154704">
                                    <g id="Grupo_1150790" data-name="Grupo 1150790">
                                      <g id="Grupo_1154214" data-name="Grupo 1154214">
                                        <g id="Grupo_1152583" data-name="Grupo 1152583">
                                          <g id="Grupo_1146973" data-name="Grupo 1146973">
                                            <g id="Grupo_1146954" data-name="Grupo 1146954">
                                              <g transform="matrix(1, 0, 0, 1, -9, -6)" filter="url(#Trazado_982547)">
                                                <g id="Trazado_982547-2" data-name="Trazado 982547" transform="translate(9 6)" fill="#fef9e7">
                                                  <path d="M 47.5000114440918 93.49987030029297 C 41.28938293457031 93.49987030029297 35.26534652709961 92.28384399414062 29.5951976776123 89.88558959960938 C 24.11773109436035 87.56881713867188 19.19814491271973 84.25183868408203 14.97310447692871 80.02680206298828 C 10.74805164337158 75.80176544189453 7.43107795715332 70.88218688964844 5.114304542541504 65.40472412109375 C 2.716038227081299 59.73458862304688 1.500011444091797 53.71054840087891 1.500011444091797 47.49993515014648 C 1.500011444091797 41.28932189941406 2.716038227081299 35.26528167724609 5.114304542541504 29.59514808654785 C 7.43107795715332 24.1176815032959 10.74805164337158 19.1981086730957 14.97310447692871 14.97306823730469 C 19.19814491271973 10.74802875518799 24.11773109436035 7.431055068969727 29.5951976776123 5.11428165435791 C 35.26534652709961 2.716028451919556 41.28938293457031 1.500001788139343 47.5000114440918 1.500001788139343 C 53.71063995361328 1.500001788139343 59.73467636108398 2.716028451919556 65.40482330322266 5.11428165435791 C 70.88229370117188 7.431055068969727 75.8018798828125 10.74802875518799 80.02691650390625 14.97306823730469 C 84.25196838378906 19.1981086730957 87.56894683837891 24.1176815032959 89.88571929931641 29.59514808654785 C 92.28398132324219 35.26528167724609 93.50001525878906 41.28932189941406 93.50001525878906 47.49993515014648 C 93.50001525878906 53.71054840087891 92.28398132324219 59.73458862304688 89.88571929931641 65.40472412109375 C 87.56894683837891 70.88218688964844 84.25196838378906 75.80176544189453 80.02691650390625 80.02680206298828 C 75.8018798828125 84.25183868408203 70.88229370117188 87.56881713867188 65.40482330322266 89.88558959960938 C 59.73467636108398 92.28384399414062 53.71063995361328 93.49987030029297 47.5000114440918 93.49987030029297 Z" stroke="none"/>
                                                  <path d="M 47.5000114440918 3 C 41.49122619628906 3 35.66378021240234 4.1761474609375 30.17951965332031 6.495796203613281 C 24.880859375 8.7369384765625 20.12153625488281 11.94596862792969 16.03376770019531 16.03373718261719 C 11.94598388671875 20.12149047851562 8.736968994140625 24.88081359863281 6.495811462402344 30.17947387695312 C 4.176162719726562 35.66371917724609 3.000007629394531 41.49116516113281 3.000007629394531 47.49993515014648 C 3.000007629394531 53.50870513916016 4.176162719726562 59.33615112304688 6.495811462402344 64.82039642333984 C 8.736968994140625 70.11905670166016 11.94598388671875 74.87837982177734 16.03376770019531 78.96613311767578 C 20.12153625488281 83.05390167236328 24.880859375 86.26293182373047 30.17951965332031 88.50407409667969 C 35.66378021240234 90.82372283935547 41.49122619628906 91.99987030029297 47.5000114440918 91.99987030029297 C 53.50879669189453 91.99987030029297 59.33624267578125 90.82372283935547 64.82050323486328 88.50407409667969 C 70.11916351318359 86.26293182373047 74.87848663330078 83.05390167236328 78.96625518798828 78.96613311767578 C 83.05403900146484 74.87837982177734 86.2630615234375 70.11905670166016 88.50421142578125 64.82039642333984 C 90.82386016845703 59.33615112304688 92.00001525878906 53.50870513916016 92.00001525878906 47.49993515014648 C 92.00001525878906 41.49116516113281 90.82386016845703 35.66371917724609 88.50421142578125 30.17947387695312 C 86.2630615234375 24.88081359863281 83.05403900146484 20.12149047851562 78.96625518798828 16.03373718261719 C 74.87848663330078 11.94596862792969 70.11916351318359 8.7369384765625 64.82050323486328 6.495796203613281 C 59.33624267578125 4.1761474609375 53.50879669189453 3 47.5000114440918 3 M 47.5000114440918 0 C 73.73353576660156 0 95.00001525878906 21.26644134521484 95.00001525878906 47.49993515014648 C 95.00001525878906 73.73342895507812 73.73353576660156 94.99987030029297 47.5000114440918 94.99987030029297 C 21.26648712158203 94.99987030029297 7.62939453125e-06 73.73342895507812 7.62939453125e-06 47.49993515014648 C 7.62939453125e-06 21.26644134521484 21.26648712158203 0 47.5000114440918 0 Z" stroke="none" fill="#f8ce24"/>
                                                </g>
                                              </g>
                                            </g>
                                          </g>
                                        </g>
                                      </g>
                                    </g>
                                  </g>
                                </g>
                              </g>
                            </g>
                          </g>
                        </g>
                      </g>
                    </g>
                  </g>
                </g>
              </g>
            </g>
          </g>
        </g>
      </g>
    </g>
    <g id="Layer_x0020_1" transform="translate(4301.991 865.991)">
      <path id="Trazado_1054272" data-name="Trazado 1054272" d="M54.476,52.546H42.18a1.037,1.037,0,0,1,0-2.073h12.3A1.037,1.037,0,1,1,54.476,52.546ZM29.919,41.929H10.938V59.945A1.046,1.046,0,0,1,9.9,61.018H4.969a1.046,1.046,0,0,1-1.037-1.072V41.929h-2.9A1.037,1.037,0,0,1,0,40.893V30.884A6.186,6.186,0,0,1,6.184,24.7h1.93l.393-1.466a6.623,6.623,0,0,1-3.289-5.719V15.728c-3,0-2.538.286-2.538-4.933,0-.679.5-1.037,1.215-1.037a9.958,9.958,0,0,1,6.22-7.042C10.009,1.859,9.508,0,10.974,0H15.8c1.466,0,.965,1.859.858,2.717a9.958,9.958,0,0,1,6.22,7.042c.679,0,1.215.357,1.215,1.037,0,5.219.465,4.933-2.538,4.933v1.787a6.623,6.623,0,0,1-3.289,5.719l.393,1.466h1.93a6.186,6.186,0,0,1,6.184,6.184v4.075h3.146V19.517a1.037,1.037,0,0,1,1.037-1.037h28.99a1.046,1.046,0,0,1,1.072,1.037V59.945a1.053,1.053,0,0,1-1.072,1.072H30.956a1.046,1.046,0,0,1-1.037-1.072Zm-21.09,0H6.041V58.909H8.829Zm21.09-4.9H2.109v2.824h27.81Zm8.65,21.876H58.909V20.554H38.569v3.217h4.468a1.037,1.037,0,0,1,1.037,1.037v6.22a1.037,1.037,0,0,1-1.037,1.037H38.569ZM37.533,25.844H35.781V29.99h6.184V25.844ZM36.46,23.771V20.554H31.992V58.909H36.46V32.064c-1.144,0-2.788.286-2.788-1.037v-6.22C33.672,23.485,35.317,23.771,36.46,23.771ZM53.189,36.5H43.5a1.037,1.037,0,1,1,0-2.073h9.687A1.037,1.037,0,0,1,53.189,36.5Zm1.287,3.932H42.18a1.055,1.055,0,0,1,0-2.109h12.3A1.055,1.055,0,0,1,54.476,40.428ZM48.328,44.36H42.18a1.037,1.037,0,0,1,0-2.073h6.148A1.037,1.037,0,1,1,48.328,44.36ZM51.9,48.435H42.18a1.037,1.037,0,0,1,0-2.073H51.9A1.037,1.037,0,0,1,51.9,48.435ZM8.615,26.809H6.184a4.073,4.073,0,0,0-4.075,4.075v4.075H5.576V32.636a1.055,1.055,0,0,1,2.109,0v2.323h11.4V32.636a1.055,1.055,0,0,1,2.109,0v2.323h3.467V30.884a4.073,4.073,0,0,0-4.075-4.075H18.159l-4.182,2.752a1.021,1.021,0,0,1-1.18,0Zm1.537-1.5,3.217,2.145,3.253-2.145L16.3,23.985a26.462,26.462,0,0,1-5.827,0Zm-.071-3.646a4.5,4.5,0,0,0,1.752.357c1.752,0,3.432.214,4.861-.357a4.517,4.517,0,0,0,2.752-4.146V15.728H7.328v1.787A4.517,4.517,0,0,0,10.08,21.662Zm11.9-9.83H4.79v1.787H21.983ZM20.7,9.759A7.689,7.689,0,0,0,16.443,4.9c-.357,3.11.143,2.645-4.861,2.645-1.215,0-1.108-1.466-1.251-2.645A7.689,7.689,0,0,0,6.077,9.759ZM14.477,3.4l.143-1.287H12.153l.357,3.324h1.752Zm40,53.082H42.18a1.037,1.037,0,0,1,0-2.073h12.3A1.037,1.037,0,1,1,54.476,56.478Z" fill-rule="evenodd"/>
      <path id="Trazado_1054273" data-name="Trazado 1054273" d="M896.68,579.254c0-1.323,1.644-1.037,2.788-1.037V575H895v38.355h4.468V586.51c-1.144,0-2.788.286-2.788-1.037Z" transform="translate(-863.008 -554.446)" fill="#ffe4af" fill-rule="evenodd"/>
      <path id="Trazado_1054274" data-name="Trazado 1054274" d="M1002.752,723H1001v4.146h6.184V723Z" transform="translate(-965.219 -697.156)" fill="#1aa1ff" fill-rule="evenodd"/>
      <path id="Trazado_1054275" data-name="Trazado 1054275" d="M1083.468,578.217a1.037,1.037,0,0,1,1.037,1.037v6.22a1.037,1.037,0,0,1-1.037,1.037H1079v26.845h20.339V575H1079v3.217Zm.465,10.652h9.687a1.037,1.037,0,0,1,0,2.073h-9.687A1.037,1.037,0,1,1,1083.933,588.869Zm-1.323,3.9h12.3a1.055,1.055,0,0,1,0,2.109h-12.3A1.055,1.055,0,0,1,1082.61,592.766Zm6.148,3.968a1.037,1.037,0,1,1,0,2.073h-6.148a1.037,1.037,0,0,1,0-2.073Zm-6.148,4.075h9.723a1.037,1.037,0,0,1,0,2.073h-9.723A1.037,1.037,0,0,1,1082.61,600.808Zm0,4.111h12.3a1.037,1.037,0,1,1,0,2.073h-12.3A1.037,1.037,0,0,1,1082.61,604.919Zm0,3.932h12.3a1.037,1.037,0,1,1,0,2.073h-12.3A1.037,1.037,0,0,1,1082.61,608.851Z" transform="translate(-1040.431 -554.446)" fill="#ffc06d" fill-rule="evenodd"/>
      <path id="Trazado_1054276" data-name="Trazado 1054276" d="M86.81,1036H59v2.824H86.81Z" transform="translate(-56.891 -998.968)" fill="#c06000" fill-rule="evenodd"/>
      <path id="Trazado_1054277" data-name="Trazado 1054277" d="M78.088,755.827v2.323h3.467v-4.075A4.073,4.073,0,0,0,77.48,750H75.05l-4.182,2.752a1.021,1.021,0,0,1-1.18,0L65.506,750H63.075A4.073,4.073,0,0,0,59,754.075v4.075h3.467v-2.323a1.055,1.055,0,0,1,2.109,0v2.323h11.4v-2.323A1.055,1.055,0,0,1,78.088,755.827Z" transform="translate(-56.891 -723.191)" fill="#ffa721" fill-rule="evenodd"/>
      <path id="Trazado_1054278" data-name="Trazado 1054278" d="M171.788,1189.979V1173H169v16.979Z" transform="translate(-162.959 -1131.071)" fill="#9c4d00" fill-rule="evenodd"/>
      <path id="Trazado_1054279" data-name="Trazado 1054279" d="M287.217,674.467l3.253-2.145L290.148,671a26.468,26.468,0,0,1-5.827,0L284,672.323Z" transform="translate(-273.848 -647.015)" fill="#ffc06d" fill-rule="evenodd"/>
      <path id="Trazado_1054280" data-name="Trazado 1054280" d="M209.5,446.291c1.752,0,3.432.215,4.861-.357a4.517,4.517,0,0,0,2.752-4.146V440H205v1.787a4.513,4.513,0,0,0,4.5,4.5Z" transform="translate(-197.672 -424.272)" fill="#ffe0a8" fill-rule="evenodd"/>
      <path id="Trazado_1054281" data-name="Trazado 1054281" d="M134,332.787h17.194V331H134Z" transform="translate(-129.21 -319.168)" fill="#ff700d" fill-rule="evenodd"/>
      <path id="Trazado_1054282" data-name="Trazado 1054282" d="M170,141.861h14.62A7.689,7.689,0,0,0,180.366,137c-.357,3.11.143,2.645-4.861,2.645-1.215,0-1.108-1.466-1.251-2.645A7.689,7.689,0,0,0,170,141.861Z" transform="translate(-163.923 -132.103)" fill="#ffa721" fill-rule="evenodd"/>
      <path id="Trazado_1054283" data-name="Trazado 1054283" d="M340.357,62.324h1.752l.214-2.037L342.466,59H340Z" transform="translate(-327.847 -56.891)" fill="#ff700d" fill-rule="evenodd"/>
    </g>
  </g>
</svg>
