<svg xmlns="http://www.w3.org/2000/svg" width="1328" height="570.04" viewBox="0 0 1328 570.04">
  <g id="Grupo_1209162" data-name="Grupo 1209162" transform="translate(-136 -3623.743)">
    <rect id="Rect치ngulo_418632" data-name="Rect치ngulo 418632" width="1327.99" height="526" transform="translate(136 3623.743)" fill="#defffd"/>
    <g id="Grupo_1209068" data-name="Grupo 1209068" transform="translate(136 3647.548)">
      <rect id="Rect치ngulo_418633" data-name="Rect치ngulo 418633" width="1327.99" height="90.275" transform="translate(0 455.96)" fill="#afd2d2"/>
    </g>
    <g id="Grupo_1209161" data-name="Grupo 1209161" transform="translate(-828)" opacity="0.25">
      <path id="Trazado_1046784" data-name="Trazado 1046784" d="M1327.984,222.24V0l-200.13,42.95c-271.178,58.19-509.208,135.93-700.52,228.78L220.83,371.95l-66.4-30.02C113.1,323.25,35.627,324.85.01,345.13h0V455.95h1328V222.23Z" transform="translate(963.99 3647.548)" fill="#1a8fc3" opacity="0.4"/>
      <path id="Trazado_1046785" data-name="Trazado 1046785" d="M1327.984,233.51V21.99l-200.13,40.88c-271.178,55.38-509.208,129.38-700.52,217.75l-206.5,95.39-66.4-28.57C113.1,329.66,35.627,331.19.01,350.48h0V455.96h1328V233.51Z" transform="translate(963.99 3647.548)" fill="#1a8fc3" opacity="0.21"/>
    </g>
    <path id="Trazado_1049239" data-name="Trazado 1049239" d="M406.821,514.434l16.546-17.221a4.438,4.438,0,0,0,.675-5.251l-13.26-23.91a4.434,4.434,0,0,0-4.665-2.23l-21.181,3.638a4.518,4.518,0,0,1-3.99-1.32,92.931,92.931,0,0,0-7.716-7.1,4.492,4.492,0,0,1-1.643-4.107l2.582-18.864a4.471,4.471,0,0,0-2.582-4.665l-25.465-11.588a4.494,4.494,0,0,0-4.987.88l-16.37,16.165a4.5,4.5,0,0,1-3.52,1.261,89.283,89.283,0,0,0-10.121-.323,4.571,4.571,0,0,1-3.7-1.79L293.14,418.8a4.488,4.488,0,0,0-4.958-1.584l-27.166,8.742a4.474,4.474,0,0,0-3.08,4.107L257.085,455a4.466,4.466,0,0,1-1.878,3.462,96.013,96.013,0,0,0-10.385,8.713,4.4,4.4,0,0,1-3.256,1.261l-26.051-1.027a4.466,4.466,0,0,0-4.313,2.787l-10.415,25.787a4.5,4.5,0,0,0,1.291,5.134l13.906,11.471a4.484,4.484,0,0,1,1.526,4.371c-.44,2.2-.792,4.4-1.086,6.66a4.408,4.408,0,0,1-1.819,3.11l-22.443,16.047a4.412,4.412,0,0,0-1.643,4.987l8.361,25.993a4.476,4.476,0,0,0,4.2,3.11l20.976.293a4.492,4.492,0,0,1,3.843,2.288c1.115,1.966,2.318,3.873,3.55,5.721a4.433,4.433,0,0,1,.528,4.048l-7.921,22.12a4.511,4.511,0,0,0,1.555,5.1l22.384,16.37a4.462,4.462,0,0,0,5.075.117l19.3-12.674a4.378,4.378,0,0,1,3.99-.44q2.772,1.012,5.633,1.848a4.515,4.515,0,0,1,2.934,2.67l8.361,21.709a4.419,4.419,0,0,0,4.4,2.846l28.428-1.555a4.46,4.46,0,0,0,4.019-3.139l6.4-20.448a4.466,4.466,0,0,1,2.934-2.9h0c2.552-.821,5.075-1.76,7.51-2.758a4.443,4.443,0,0,1,4.2.381l17.6,11.676a4.406,4.406,0,0,0,5.134-.147l22.766-16.986a4.488,4.488,0,0,0,1.584-4.958l-7.481-22.824a4.486,4.486,0,0,1,.528-3.814c1.2-1.819,2.318-3.7,3.374-5.6a4.408,4.408,0,0,1,3.462-2.288l22.443-2.142a4.435,4.435,0,0,0,3.9-3.374L431.2,541.19a4.48,4.48,0,0,0-1.995-4.9l-21.416-13.114a4.417,4.417,0,0,1-2.083-3.286c-.059-.557-.147-1.085-.235-1.643a4.5,4.5,0,0,1,1.173-3.785ZM257.583,548.876c-8.977-27.87,6.777-57.882,35.2-67.035s58.733,6.043,67.71,33.914-6.777,57.882-35.2,67.035S266.56,576.746,257.583,548.876Z" transform="translate(-10.293 3259.869)" fill="#c3f0f5"/>
  </g>
</svg>
