<svg xmlns="http://www.w3.org/2000/svg" width="38.305" height="38.293" viewBox="0 0 38.305 38.293">
  <g id="hearing_5759881" transform="translate(0 -0.077)">
    <path id="Trazado_1049529" data-name="Trazado 1049529" d="M13.331.077a13.316,13.316,0,0,0-11.792,19.5L8.668,33.168a9.716,9.716,0,0,0,18.319-4.514V13.734A13.672,13.672,0,0,0,13.331.077ZM25.865,28.654a8.593,8.593,0,0,1-16.2,3.992L2.533,19.057A12.194,12.194,0,0,1,13.331,1.2,12.549,12.549,0,0,1,25.865,13.734Z" transform="translate(0)"/>
    <path id="Trazado_1049530" data-name="Trazado 1049530" d="M101.233,70.055h-.084a7.89,7.89,0,0,0-6.094,2.763.561.561,0,1,0,.852.731,6.793,6.793,0,0,1,5.316-2.371,7.359,7.359,0,0,1,7.225,7.376v.2a2.1,2.1,0,0,1-.045.43,7.311,7.311,0,0,0-2.039-2.725,7.144,7.144,0,0,0-4.472-1.638,6.916,6.916,0,0,0-2.823.552.561.561,0,1,0,.442,1.031,5.849,5.849,0,0,1,2.369-.462,5.937,5.937,0,0,1,3.767,1.381,6.184,6.184,0,0,1,2,3.067,1.9,1.9,0,0,1-.333.2,3.994,3.994,0,0,0-.783,6.745,1.73,1.73,0,0,1,.651,1.5,1.754,1.754,0,0,1-.864,1.412,1.373,1.373,0,0,1-.69.215.561.561,0,0,0,0,1.122,2.473,2.473,0,0,0,1.26-.371,2.9,2.9,0,0,0,.339-4.754,2.872,2.872,0,0,1,.563-4.85,3.151,3.151,0,0,0,1.781-2.854v-.2A8.485,8.485,0,0,0,101.233,70.055Z" transform="translate(-87.817 -64.742)"/>
    <path id="Trazado_1049531" data-name="Trazado 1049531" d="M71.8,140.72a6.793,6.793,0,0,1-.335-5.744.561.561,0,1,0-1.043-.415,7.9,7.9,0,0,0,.384,6.68l2.041,3.891a.561.561,0,1,0,.994-.521Z" transform="translate(-64.633 -124.095)"/>
    <path id="Trazado_1049532" data-name="Trazado 1049532" d="M375.184,124.329a10.865,10.865,0,0,1,3.2-7.736,1.683,1.683,0,0,0-2.381-2.38c-.307.307-.6.631-.879.962a.561.561,0,0,0,.862.718c.255-.306.528-.6.81-.887a.561.561,0,0,1,.793.793,12.076,12.076,0,0,0,0,17.058.561.561,0,1,1-.793.793,13.221,13.221,0,0,1-2.224-15.693.561.561,0,0,0-.982-.543A14.343,14.343,0,0,0,376,134.444a1.683,1.683,0,1,0,2.381-2.38A10.865,10.865,0,0,1,375.184,124.329Z" transform="translate(-343.999 -105.14)"/>
    <path id="Trazado_1049533" data-name="Trazado 1049533" d="M439.917,166.728a6.05,6.05,0,0,1,1.784-4.306,1.683,1.683,0,0,0-2.38-2.38,9.456,9.456,0,0,0,0,13.373,1.683,1.683,0,1,0,2.38-2.38A6.05,6.05,0,0,1,439.917,166.728Zm.99,5.893a.561.561,0,0,1-.793,0,8.334,8.334,0,0,1,0-11.786.561.561,0,0,1,.793.793,7.213,7.213,0,0,0,0,10.2A.561.561,0,0,1,440.907,172.621Z" transform="translate(-403.888 -147.539)"/>
  </g>
</svg>
