<svg xmlns="http://www.w3.org/2000/svg" width="27.946" height="37.666" viewBox="0 0 27.946 37.666">
  <path id="architect_18094828" d="M17.276,17.65a.609.609,0,0,1-.122.851,3.645,3.645,0,0,1-4.374,0,.608.608,0,1,1,.729-.972,2.43,2.43,0,0,0,2.916,0,.609.609,0,0,1,.851.122ZM4.032,14.066A2.736,2.736,0,0,1,6.2,11.392H6.2a1.788,1.788,0,0,1-.431-1.324A1.834,1.834,0,0,1,7.258,8.422a7.869,7.869,0,0,1,5.4-5.85l-.024-.194a1.235,1.235,0,0,1,.292-.954,1.222,1.222,0,0,1,.911-.413H16.1a1.222,1.222,0,0,1,.911.413,1.19,1.19,0,0,1,.292.954l-.024.2a7.838,7.838,0,0,1,5.395,5.85A1.817,1.817,0,0,1,23.74,11.4h-.006a2.733,2.733,0,0,1-.565,5.407h-.407a7.887,7.887,0,0,1-15.589,0H6.766a2.738,2.738,0,0,1-2.734-2.734Zm4.253,1.416a1.84,1.84,0,0,0,1.166-1.209l.577-2.12c-.583-.024-1.16-.055-1.744-.085v3.42Zm13.262,1.227a3.037,3.037,0,0,1-2.224-2.084l-.656-2.412q-1.85.064-3.7.061c-1.233,0-2.467-.024-3.7-.061l-.656,2.4a3.058,3.058,0,0,1-2.23,2.1,6.673,6.673,0,0,0,13.159,0Zm.1-4.647c-.577.036-1.16.061-1.744.085l.583,2.138a1.839,1.839,0,0,0,1.16,1.2Zm1.519.486h-.3v3.038h.3a1.519,1.519,0,0,0,0-3.038ZM13.832,2.219l.456,3.645h1.355L16.1,2.219Zm1.81,3.645v0ZM8.5,8.422a109.265,109.265,0,0,0,12.928,0,6.741,6.741,0,0,0-4.3-4.623l-.279,2.217a1.213,1.213,0,0,1-1.2,1.063H14.287a1.209,1.209,0,0,1-1.2-1.063L12.811,3.8A6.61,6.61,0,0,0,8.5,8.428ZM6.967,10.159a.589.589,0,0,0,.14.431.636.636,0,0,0,.437.219,109.819,109.819,0,0,0,14.829,0,.636.636,0,0,0,.437-.219.564.564,0,0,0,.14-.431.619.619,0,0,0-.662-.565h-.03c-.03,0-.061.006-.091.006h-.018a109.212,109.212,0,0,1-14.38,0H7.75a.46.46,0,0,1-.091-.006H7.586A.617.617,0,0,0,6.967,10.159ZM5.241,14.066A1.519,1.519,0,0,0,6.76,15.584h.3V12.547h-.3A1.519,1.519,0,0,0,5.241,14.066ZM28.886,38.117a.608.608,0,0,1-.608.553h-.055a.612.612,0,0,1-.553-.662c.1-1.051.389-6.44-3.268-9.161a6.874,6.874,0,0,0-1.4-.8,10.791,10.791,0,0,0,.723,3.718,10.192,10.192,0,0,0,.735,1.482,1.819,1.819,0,0,1,.219,3.493v1.324a.608.608,0,0,1-1.215,0V36.853H16.784v1.215a.608.608,0,0,1-1.215,0V29.527c-.255.024-.468.036-.608.036-.207,0-.407-.018-.608-.036v8.542a.608.608,0,0,1-1.215,0V36.853H6.456v1.215a.608.608,0,0,1-1.215,0V36.744a1.819,1.819,0,0,1,.219-3.493A10.191,10.191,0,0,0,6.2,31.769a10.651,10.651,0,0,0,.723-3.718,7,7,0,0,0-1.4.8c-3.657,2.722-3.366,8.1-3.268,9.161a.608.608,0,0,1-.553.662H1.645a.612.612,0,0,1-.608-.553c-.1-1.166-.425-7.138,3.754-10.243a8.418,8.418,0,0,1,2.71-1.33c.03-.006.055,0,.085-.006s.055-.018.085-.018h.207c.134,0,.267.006.4.012v-.115a1.824,1.824,0,0,1,.735-1.47,1.782,1.782,0,0,1,1.592-.286,15.213,15.213,0,0,0,8.687,0,1.829,1.829,0,0,1,1.616.286,1.8,1.8,0,0,1,.729,1.458v.115c.152-.006.3-.012.456-.012h.152l.085.018a.4.4,0,0,1,.085.006,8.479,8.479,0,0,1,2.71,1.33c4.18,3.11,3.864,9.082,3.754,10.243ZM13.139,35.632V34.417H5.849a.608.608,0,1,0,0,1.215Zm0-6.355a6.657,6.657,0,0,1-1.264-.516,8.307,8.307,0,0,0-3.742-1.008,12.094,12.094,0,0,1-.808,4.459,10.324,10.324,0,0,1-.45.99h6.263Zm1.823-.936a5.476,5.476,0,0,0,2.624-.7,8.57,8.57,0,0,1,2.843-.978v-.243a.6.6,0,0,0-.243-.48.624.624,0,0,0-.547-.1,16.507,16.507,0,0,1-9.386-.006.584.584,0,0,0-.516.091.607.607,0,0,0-.249.492v.249A9.676,9.676,0,0,1,12.453,27.7a5.155,5.155,0,0,0,2.5.644Zm1.823.942V33.2h6.263c-.164-.328-.316-.656-.45-1a11.971,11.971,0,0,1-.808-4.459,7.789,7.789,0,0,0-3.6.942,6.982,6.982,0,0,1-1.4.589Zm7.9,5.741a.609.609,0,0,0-.608-.608h-7.29v1.215h7.29A.609.609,0,0,0,24.682,35.025Z" transform="translate(-0.987 -1.01)"/>
</svg>
