<svg xmlns="http://www.w3.org/2000/svg" xmlns:xlink="http://www.w3.org/1999/xlink" width="98" height="98" viewBox="0 0 98 98">
  <defs>
    <filter id="Trazado_904820" x="0" y="0" width="98" height="98" filterUnits="userSpaceOnUse">
      <feOffset dy="3" input="SourceAlpha"/>
      <feGaussianBlur stdDeviation="3" result="blur"/>
      <feFlood flood-opacity="0.161"/>
      <feComposite operator="in" in2="blur"/>
      <feComposite in="SourceGraphic"/>
    </filter>
  </defs>
  <g id="Grupo_1210534" data-name="Grupo 1210534" transform="translate(-611 -3217.457)">
    <g id="Grupo_1210396" data-name="Grupo 1210396" transform="translate(0 -9259.784)">
      <g id="Grupo_1210130" data-name="Grupo 1210130" transform="translate(411 11715.241)">
        <g id="Grupo_1202705" data-name="Grupo 1202705" transform="translate(209 768)">
          <g id="Grupo_1173585" data-name="Grupo 1173585" transform="translate(0 0)">
            <g id="Grupo_1173428" data-name="Grupo 1173428">
              <g id="Grupo_1171958" data-name="Grupo 1171958">
                <g id="Grupo_1167341" data-name="Grupo 1167341">
                  <g id="Grupo_1166792" data-name="Grupo 1166792">
                    <g transform="matrix(1, 0, 0, 1, -9, -6)" filter="url(#Trazado_904820)">
                      <g id="Trazado_904820-2" data-name="Trazado 904820" transform="translate(9 6)" fill="#fef9e7">
                        <path d="M 39.99999618530273 78.50002288818359 C 34.80187225341797 78.50002288818359 29.76002883911133 77.4822998046875 25.01451873779297 75.47511291503906 C 20.43014144897461 73.53608703613281 16.31264114379883 70.7598876953125 12.77638530731201 67.22362518310547 C 9.240129470825195 63.6873664855957 6.463929653167725 59.56986618041992 4.524896144866943 54.98548889160156 C 2.517718315124512 50.2399787902832 1.499996185302734 45.19814300537109 1.499996185302734 40.0000114440918 C 1.499996185302734 34.8018798828125 2.517718315124512 29.76003456115723 4.524896144866943 25.01453399658203 C 6.463929653167725 20.43015670776367 9.240129470825195 16.31264495849609 12.77638530731201 12.77638912200928 C 16.31264114379883 9.240133285522461 20.43014144897461 6.46393346786499 25.01451873779297 4.524900436401367 C 29.76002883911133 2.517722606658936 34.80186462402344 1.500000357627869 39.99999618530273 1.500000357627869 C 45.19812774658203 1.500000357627869 50.23996353149414 2.517722606658936 54.9854736328125 4.524900436401367 C 59.56985092163086 6.46393346786499 63.68735122680664 9.240133285522461 67.22360992431641 12.77638912200928 C 70.75986480712891 16.31264495849609 73.53606414794922 20.43015670776367 75.47509765625 25.01453399658203 C 77.48227691650391 29.76003456115723 78.5 34.8018798828125 78.5 40.0000114440918 C 78.5 45.19814300537109 77.48227691650391 50.2399787902832 75.47509765625 54.98548889160156 C 73.53606414794922 59.56986618041992 70.75986480712891 63.6873664855957 67.22360992431641 67.22362518310547 C 63.68735122680664 70.7598876953125 59.56985092163086 73.53608703613281 54.9854736328125 75.47511291503906 C 50.23996353149414 77.4822998046875 45.1981201171875 78.50002288818359 39.99999618530273 78.50002288818359 Z" stroke="none"/>
                        <path d="M 39.99999618530273 3 C 35.00370407104492 3 30.15846252441406 3.977851867675781 25.59885025024414 5.906410217285156 C 21.19327545166016 7.769813537597656 17.23603439331055 10.43806457519531 13.83705139160156 13.83705139160156 C 10.43806457519531 17.23603820800781 7.769805908203125 21.19327926635742 5.906410217285156 25.59885025024414 C 3.977851867675781 30.15846633911133 2.999992370605469 35.00371932983398 2.999992370605469 40.0000114440918 C 2.999992370605469 44.99630355834961 3.977851867675781 49.84154510498047 5.906410217285156 54.40115737915039 C 7.769805908203125 58.80674743652344 10.43806457519531 62.76398468017578 13.83705139160156 66.16297149658203 C 17.23603439331055 69.56195831298828 21.19327545166016 72.23020935058594 25.59885025024414 74.09361267089844 C 30.15846252441406 76.02217102050781 35.00370407104492 77.00002288818359 39.99999618530273 77.00002288818359 C 44.99628829956055 77.00002288818359 49.84152984619141 76.02217102050781 54.40114212036133 74.09361267089844 C 58.80671691894531 72.23020935058594 62.76395416259766 69.56195831298828 66.16294097900391 66.16297149658203 C 69.56192779541016 62.76398468017578 72.23017883300781 58.80674743652344 74.09358215332031 54.40115737915039 C 76.02214050292969 49.84154510498047 77 44.99630355834961 77 40.0000114440918 C 77 35.00371932983398 76.02214050292969 30.15846633911133 74.09358215332031 25.59885025024414 C 72.23017883300781 21.19327926635742 69.56192779541016 17.23603820800781 66.16294097900391 13.83705139160156 C 62.76395416259766 10.43806457519531 58.80671691894531 7.769813537597656 54.40114212036133 5.906410217285156 C 49.84152984619141 3.977851867675781 44.99628829956055 3 39.99999618530273 3 M 39.99999618530273 0 C 62.09138488769531 0 80 17.90861129760742 80 40.0000114440918 C 80 62.09140014648438 62.09138488769531 80.00002288818359 39.99999618530273 80.00002288818359 C 17.90861129760742 80.00002288818359 -7.62939453125e-06 62.09140014648438 -7.62939453125e-06 40.0000114440918 C -7.62939453125e-06 17.90861129760742 17.90861129760742 0 39.99999618530273 0 Z" stroke="none" fill="#887013"/>
                      </g>
                    </g>
                  </g>
                </g>
              </g>
            </g>
          </g>
        </g>
      </g>
    </g>
    <g id="risk-assessment_14247501_2_" data-name="risk-assessment_14247501 (2)" transform="translate(624.197 3228.292)">
      <g id="Grupo_1210544" data-name="Grupo 1210544" transform="translate(10.941 7.921)">
        <g id="Grupo_1210535" data-name="Grupo 1210535" transform="translate(0)">
          <path id="Trazado_1053949" data-name="Trazado 1053949" d="M54.522,54.437a2.148,2.148,0,0,1,2.144,2.144V96.033a2.148,2.148,0,0,1-2.144,2.147H21.5a2.149,2.149,0,0,1-2.144-2.147V56.581A2.148,2.148,0,0,1,21.5,54.437Z" transform="translate(-19.357 -50.353)" fill="#837683" fill-rule="evenodd"/>
          <path id="Trazado_1053950" data-name="Trazado 1053950" d="M326.42,98.179h2.768a2.148,2.148,0,0,0,2.144-2.147V56.581a2.148,2.148,0,0,0-2.144-2.144H326.42Z" transform="translate(-294.023 -50.353)" fill="#685e68" fill-rule="evenodd"/>
          <path id="Trazado_1053951" data-name="Trazado 1053951" d="M78,82.7H48.591a.967.967,0,0,0-.966.966v35.846a.965.965,0,0,0,.966.963H78a.967.967,0,0,0,.966-.963V83.67A.969.969,0,0,0,78,82.7Z" transform="translate(-44.643 -75.638)" fill="#eceff1" fill-rule="evenodd"/>
          <path id="Trazado_1053952" data-name="Trazado 1053952" d="M326.42,120.478h.963c.031,0,.062,0,.09,0a.969.969,0,0,0,.876-.96V83.67a.966.966,0,0,0-.876-.96.9.9,0,0,0-.09-.006h-.963Z" transform="translate(-294.023 -75.638)" fill="#d1d1d6" fill-rule="evenodd"/>
          <path id="Trazado_1053953" data-name="Trazado 1053953" d="M118.882,18.517h3.059a.944.944,0,0,0,.884-.582,3.646,3.646,0,0,1,6.7,0,.945.945,0,0,0,.884.582h3.056a.969.969,0,0,1,.966.966v3.646a.967.967,0,0,1-.966.963H118.882a.964.964,0,0,1-.963-.963V19.483A.967.967,0,0,1,118.882,18.517Z" transform="translate(-107.52 -15.729)" fill="#e3a76f" fill-rule="evenodd"/>
          <path id="Trazado_1053954" data-name="Trazado 1053954" d="M132.5,46.762H117.919a.964.964,0,0,0,.963.963h14.582a.967.967,0,0,0,.966-.963V43.116a.969.969,0,0,0-.966-.966V45.8a.968.968,0,0,1-.963.966Z" transform="translate(-107.52 -39.362)" fill="#c48958" fill-rule="evenodd"/>
        </g>
        <g id="Grupo_1210536" data-name="Grupo 1210536" transform="translate(12.115 10.504)">
          <path id="Trazado_1053955" data-name="Trazado 1053955" d="M135.279,115.286h3.194a1.217,1.217,0,0,1,1.076.62l1.145,1.981h6.325a1.094,1.094,0,0,1,1.093,1.093v6.253a1.093,1.093,0,0,1-1.093,1.09h-11.74a1.093,1.093,0,0,1-1.093-1.09v-8.858a1.093,1.093,0,0,1,1.093-1.09Z" transform="translate(-134.186 -115.286)" fill="#ffd064" fill-rule="evenodd"/>
          <path id="Trazado_1053956" data-name="Trazado 1053956" d="M166.956,115.286h.829a1.217,1.217,0,0,1,1.076.62l1.145,1.981h-.829l-1.144-1.981A1.217,1.217,0,0,0,166.956,115.286Zm8.546,2.6h.829a1.094,1.094,0,0,1,1.093,1.093v6.253a1.093,1.093,0,0,1-1.093,1.09H175.5a1.093,1.093,0,0,0,1.093-1.09V118.98A1.094,1.094,0,0,0,175.5,117.887Z" transform="translate(-163.499 -115.286)" fill="#ffc338" fill-rule="evenodd"/>
          <path id="Trazado_1053957" data-name="Trazado 1053957" d="M147.019,139.936a1.094,1.094,0,0,1,1.093,1.093v6.253a1.093,1.093,0,0,1-1.093,1.09h-11.74a1.093,1.093,0,0,1-1.093-1.09v-7.347Z" transform="translate(-134.186 -137.335)" fill="#ffe177" fill-rule="evenodd"/>
          <path id="Trazado_1053958" data-name="Trazado 1053958" d="M147.488,140.2a1.091,1.091,0,0,1,.857,1.066v6.253a1.093,1.093,0,0,1-1.093,1.09h-11.74a1.092,1.092,0,0,1-1.066-.853,1.065,1.065,0,0,0,.236.024h11.739a1.093,1.093,0,0,0,1.093-1.09v-6.253A1.06,1.06,0,0,0,147.488,140.2Z" transform="translate(-134.419 -137.568)" fill="#ffd064" fill-rule="evenodd"/>
        </g>
        <g id="Grupo_1210539" data-name="Grupo 1210539" transform="translate(7.675 24.177)">
          <g id="Grupo_1210537" data-name="Grupo 1210537">
            <path id="Trazado_1053959" data-name="Trazado 1053959" d="M97.124,244.877H93.351a1.248,1.248,0,0,0-1.246,1.246V249.9a1.247,1.247,0,0,0,1.246,1.243h3.773a1.247,1.247,0,0,0,1.243-1.243v-3.773A1.247,1.247,0,0,0,97.124,244.877Z" transform="translate(-92.105 -244.877)" fill="#8ac9fe" fill-rule="evenodd"/>
            <path id="Trazado_1053960" data-name="Trazado 1053960" d="M94.406,244.877H93.351a1.248,1.248,0,0,0-1.246,1.246V249.9a1.247,1.247,0,0,0,1.246,1.243h1.055A1.247,1.247,0,0,1,93.16,249.9v-3.773A1.248,1.248,0,0,1,94.406,244.877Z" transform="translate(-92.105 -244.877)" fill="#60b7ff" fill-rule="evenodd"/>
          </g>
          <g id="Grupo_1210538" data-name="Grupo 1210538" transform="translate(0 10.583)">
            <path id="Trazado_1053961" data-name="Trazado 1053961" d="M97.124,345.187H93.351A1.247,1.247,0,0,0,92.1,346.43V350.2a1.248,1.248,0,0,0,1.246,1.246h3.773a1.247,1.247,0,0,0,1.243-1.246V346.43A1.247,1.247,0,0,0,97.124,345.187Z" transform="translate(-92.105 -345.187)" fill="#6cf5c2" fill-rule="evenodd"/>
            <path id="Trazado_1053962" data-name="Trazado 1053962" d="M94.406,345.187H93.351a1.247,1.247,0,0,0-1.246,1.243V350.2a1.248,1.248,0,0,0,1.246,1.246h1.055A1.248,1.248,0,0,1,93.16,350.2V346.43A1.247,1.247,0,0,1,94.406,345.187Z" transform="translate(-92.105 -345.187)" fill="#00e499" fill-rule="evenodd"/>
          </g>
        </g>
        <g id="Grupo_1210540" data-name="Grupo 1210540" transform="translate(27.206 11.417)">
          <path id="Trazado_1053963" data-name="Trazado 1053963" d="M278.213,137.616l13.161-13.161a1.877,1.877,0,0,1,2.648.056l.542.542a1.876,1.876,0,0,1,.056,2.648l-13.161,13.161-4.01.994a.191.191,0,0,1-.229-.229Z" transform="translate(-277.214 -123.936)" fill="#e3a76f" fill-rule="evenodd"/>
          <path id="Trazado_1053964" data-name="Trazado 1053964" d="M293.817,127.692a2.134,2.134,0,0,1,.205.179l.542.542a1.877,1.877,0,0,1,.056,2.648l-13.161,13.161-4.01.994a.191.191,0,0,1-.229-.229l.228-.925,3.087-.765L293.7,130.136A1.864,1.864,0,0,0,293.817,127.692Z" transform="translate(-277.214 -127.296)" fill="#c48958" fill-rule="evenodd"/>
          <path id="Trazado_1053965" data-name="Trazado 1053965" d="M277.22,257.6l.994-4.011,3.246,3.246-4.01.994A.191.191,0,0,1,277.22,257.6Z" transform="translate(-277.214 -239.914)" fill="#837683" fill-rule="evenodd"/>
          <path id="Trazado_1053966" data-name="Trazado 1053966" d="M277.22,277.281l.227-.925,3.087-.765.925.925-4.01.994a.191.191,0,0,1-.229-.229Z" transform="translate(-277.214 -259.59)" fill="#685e68" fill-rule="evenodd"/>
          <path id="Trazado_1053967" data-name="Trazado 1053967" d="M401.115,125.543l1.088-1.088a1.878,1.878,0,0,1,2.648.056l.542.542a1.876,1.876,0,0,1,.056,2.648l-1.088,1.088Z" transform="translate(-388.043 -123.936)" fill="#837683" fill-rule="evenodd"/>
          <path id="Trazado_1053968" data-name="Trazado 1053968" d="M424.321,127.692a2.137,2.137,0,0,1,.205.179l.542.542a1.877,1.877,0,0,1,.056,2.648l-1.088,1.088-.925-.925,1.088-1.088A1.864,1.864,0,0,0,424.321,127.692Z" transform="translate(-407.719 -127.296)" fill="#685e68" fill-rule="evenodd"/>
        </g>
        <g id="Grupo_1210543" data-name="Grupo 1210543" transform="translate(25.726 28.932)">
          <g id="Grupo_1210541" data-name="Grupo 1210541">
            <path id="Trazado_1053969" data-name="Trazado 1053969" d="M277.132,291.034l9.9,17.145a2.165,2.165,0,0,1-1.876,3.247h-19.8a2.165,2.165,0,0,1-1.874-3.247l9.9-17.145a2.163,2.163,0,0,1,3.747,0Z" transform="translate(-263.192 -289.952)" fill="#ffe177" fill-rule="evenodd"/>
            <path id="Trazado_1053970" data-name="Trazado 1053970" d="M370.515,290.08a2.195,2.195,0,0,1,.744-.128,2.129,2.129,0,0,1,1.874,1.082l9.9,17.145a2.165,2.165,0,0,1-1.876,3.247h-1.488a2.165,2.165,0,0,0,1.876-3.247l-9.9-17.145A2.131,2.131,0,0,0,370.515,290.08Z" transform="translate(-359.192 -289.952)" fill="#ffd064" fill-rule="evenodd"/>
          </g>
          <g id="Grupo_1210542" data-name="Grupo 1210542" transform="translate(10.829 5.408)">
            <path id="Trazado_1053971" data-name="Trazado 1053971" d="M367.3,349.907a.965.965,0,0,1-.965-.932l-.246-6.763a.945.945,0,0,1,.271-.706.935.935,0,0,1,.7-.3h.487a.967.967,0,0,1,.967,1l-.244,6.763A.966.966,0,0,1,367.3,349.907Z" transform="translate(-366.058 -341.21)" fill="#fe646f" fill-rule="evenodd"/>
            <path id="Trazado_1053972" data-name="Trazado 1053972" d="M367.071,438.388a1.237,1.237,0,1,0-1.237-1.237A1.24,1.24,0,0,0,367.071,438.388Z" transform="translate(-365.834 -425.921)" fill="#fe646f" fill-rule="evenodd"/>
          </g>
        </g>
      </g>
      <path id="Trazado_1053973" data-name="Trazado 1053973" d="M35.89,56.914H12.956a3.012,3.012,0,0,1-3.008-3V14.125a3.015,3.015,0,0,1,3.008-3.008h7.479v-.462a.844.844,0,0,1,.844-.844h4.14a4.521,4.521,0,0,1,8.37,0h4.14a.844.844,0,0,1,.844.844v.462h7.479a3.015,3.015,0,0,1,3.008,3.008V22l2.461-2.461a2.616,2.616,0,0,1,3.7,0l.5.5,0,0a2.63,2.63,0,0,1,0,3.7l-6.667,6.667v5.805a2.952,2.952,0,0,1,2.088,1.462h0l9.9,17.145h0a2.97,2.97,0,0,1,0,3.009h0a2.971,2.971,0,0,1-2.606,1.5h-19.8a2.969,2.969,0,0,1-2.6-1.5h0a3.065,3.065,0,0,1-.348-.912ZM20.435,12.806H12.956a1.323,1.323,0,0,0-1.319,1.319V53.909a1.321,1.321,0,0,0,1.319,1.317H36.041a3.139,3.139,0,0,1,.2-.408l.526-.911H13.8a.844.844,0,0,1-.844-.844V14.971a.844.844,0,0,1,.844-.844h6.633Zm18.338,0v1.321h6.633a.844.844,0,0,1,.844.844V25.007l1.321-1.322V14.125a1.323,1.323,0,0,0-1.319-1.319Zm0,3.01v.462a.844.844,0,0,1-.844.844H21.279a.844.844,0,0,1-.844-.844v-.462H14.646v36.4H37.739L44.562,40.4V35.1l-1.4,1.4a.841.841,0,0,1-.377.218l-4.05,1.086a.842.842,0,0,1-.287.05h-8.37a.844.844,0,0,1,0-1.688H37.8l.457-1.7H30.079a.844.844,0,0,1,0-1.688h8.634l.028-.1a.841.841,0,0,1,.218-.377l5.6-5.6V15.815Zm8.8,16.278L46.25,33.415v4.077A2.956,2.956,0,0,1,47.571,36.4Zm-7.583,2.424-.35,1.3,1.3-.35Zm2.579.2L52.673,24.612l-1.825-1.825L40.743,32.893Zm11.3-11.3.874-.874a.942.942,0,0,0,0-1.324l-.5-.5,0,0a.93.93,0,0,0-1.316,0l0,0-.874.874ZM49.885,38.516a1.319,1.319,0,0,0-2.285,0L37.7,55.661a1.321,1.321,0,0,0,1.142,1.982h19.8a1.321,1.321,0,0,0,1.144-1.982l-9.9-17.145ZM49.592,51.75a2.081,2.081,0,1,1-1.7,0,1.808,1.808,0,0,1-.958-1.534l-.246-6.766v0a1.763,1.763,0,0,1,.506-1.318l0,0a1.749,1.749,0,0,1,1.3-.552h.488a1.811,1.811,0,0,1,1.81,1.876l-.244,6.763a1.809,1.809,0,0,1-.96,1.534Zm-.85,2.293a.393.393,0,1,0-.393-.393A.394.394,0,0,0,48.742,54.043Zm0-3.77a.123.123,0,0,0,.123-.118l.244-6.764h0a.116.116,0,0,0-.035-.089l0,0a.115.115,0,0,0-.087-.035H48.5a.122.122,0,0,0-.09.039.129.129,0,0,0-.033.092l.246,6.76h0A.122.122,0,0,0,48.742,50.273Zm-26.1-21.929V19.952a1.881,1.881,0,0,1,1.88-1.876h3.026a1.973,1.973,0,0,1,1.749,1l0,0,.841,1.457H35.64a1.881,1.881,0,0,1,1.88,1.88v5.925a1.881,1.881,0,0,1-1.88,1.876H24.518A1.881,1.881,0,0,1,22.639,28.344Zm5.548-7.8-.354-.613a.327.327,0,0,0-.288-.162H24.518a.19.19,0,0,0-.192.188v.588Zm7.454,1.688H24.327v6.116a.19.19,0,0,0,.192.188H35.64a.19.19,0,0,0,.191-.188V22.42A.192.192,0,0,0,35.64,22.228Zm-9.909,12.7v2.352a2.094,2.094,0,0,1-2.09,2.087H19.868a2.094,2.094,0,0,1-2.087-2.087V33.5a2.094,2.094,0,0,1,2.087-2.09h3.773A2.1,2.1,0,0,1,25.6,32.766l1.212-1.1a.844.844,0,1,1,1.134,1.25Zm-1.688-.748V33.5a.4.4,0,0,0-.4-.4H19.868a.4.4,0,0,0-.4.4v3.773a.4.4,0,0,0,.4.4h3.773a.4.4,0,0,0,.4-.4v-.82l-.551.5a.844.844,0,0,1-1.164-.028L20.5,35.1A.844.844,0,1,1,21.691,33.9l1.262,1.262ZM30.079,48.51a.844.844,0,0,1,0-1.688h8.37a.844.844,0,1,1,0,1.688Zm0-3.39a.844.844,0,0,1,0-1.688H41.235a.844.844,0,0,1,0,1.688Zm-4.348.387v2.349a2.094,2.094,0,0,1-2.09,2.09H19.868a2.093,2.093,0,0,1-2.087-2.09V44.083A2.093,2.093,0,0,1,19.868,42h3.773A2.1,2.1,0,0,1,25.6,43.349l1.211-1.1a.844.844,0,1,1,1.134,1.25Zm-1.688-.748v-.677a.4.4,0,0,0-.4-.4H19.868a.4.4,0,0,0-.4.4v3.773a.4.4,0,0,0,.4.4h3.773a.4.4,0,0,0,.4-.4v-.817l-.551.5a.844.844,0,0,1-1.164-.029L20.5,45.677a.844.844,0,0,1,1.195-1.193l1.262,1.264ZM22.123,11.5v3.934H37.084V11.5H33.177a.844.844,0,0,1-.821-.646,2.833,2.833,0,0,0-5.505,0,.844.844,0,0,1-.821.646Zm7.479.33a.972.972,0,1,1,.973-.97A.972.972,0,0,1,29.6,11.829Z" transform="translate(0 0)" fill-rule="evenodd"/>
    </g>
  </g>
</svg>
