<svg xmlns="http://www.w3.org/2000/svg" xmlns:xlink="http://www.w3.org/1999/xlink" width="98" height="98" viewBox="0 0 98 98">
  <defs>
    <filter id="Trazado_904820" x="0" y="0" width="98" height="98" filterUnits="userSpaceOnUse">
      <feOffset dy="3" input="SourceAlpha"/>
      <feGaussianBlur stdDeviation="3" result="blur"/>
      <feFlood flood-opacity="0.161"/>
      <feComposite operator="in" in2="blur"/>
      <feComposite in="SourceGraphic"/>
    </filter>
  </defs>
  <g id="Grupo_1210558" data-name="Grupo 1210558" transform="translate(-1031 -3218.457)">
    <g id="Grupo_1210397" data-name="Grupo 1210397" transform="translate(0 -9259.784)">
      <g id="Grupo_1210131" data-name="Grupo 1210131" transform="translate(0 4736.458)">
        <g id="Grupo_1209196" data-name="Grupo 1209196" transform="translate(1040 7747.783)">
          <g id="Grupo_1202705" data-name="Grupo 1202705" transform="translate(0 0)">
            <g id="Grupo_1173585" data-name="Grupo 1173585" transform="translate(0 0)">
              <g id="Grupo_1173428" data-name="Grupo 1173428">
                <g id="Grupo_1171958" data-name="Grupo 1171958">
                  <g id="Grupo_1167341" data-name="Grupo 1167341">
                    <g id="Grupo_1166792" data-name="Grupo 1166792">
                      <g transform="matrix(1, 0, 0, 1, -9, -6)" filter="url(#Trazado_904820)">
                        <g id="Trazado_904820-2" data-name="Trazado 904820" transform="translate(9 6)" fill="#fef9e7">
                          <path d="M 39.99999618530273 78.50002288818359 C 34.80187225341797 78.50002288818359 29.76002883911133 77.4822998046875 25.01451873779297 75.47511291503906 C 20.43014144897461 73.53608703613281 16.31264114379883 70.7598876953125 12.77638530731201 67.22362518310547 C 9.240129470825195 63.6873664855957 6.463929653167725 59.56986618041992 4.524896144866943 54.98548889160156 C 2.517718315124512 50.2399787902832 1.499996185302734 45.19814300537109 1.499996185302734 40.0000114440918 C 1.499996185302734 34.8018798828125 2.517718315124512 29.76003456115723 4.524896144866943 25.01453399658203 C 6.463929653167725 20.43015670776367 9.240129470825195 16.31264495849609 12.77638530731201 12.77638912200928 C 16.31264114379883 9.240133285522461 20.43014144897461 6.46393346786499 25.01451873779297 4.524900436401367 C 29.76002883911133 2.517722606658936 34.80186462402344 1.500000357627869 39.99999618530273 1.500000357627869 C 45.19812774658203 1.500000357627869 50.23996353149414 2.517722606658936 54.9854736328125 4.524900436401367 C 59.56985092163086 6.46393346786499 63.68735122680664 9.240133285522461 67.22360992431641 12.77638912200928 C 70.75986480712891 16.31264495849609 73.53606414794922 20.43015670776367 75.47509765625 25.01453399658203 C 77.48227691650391 29.76003456115723 78.5 34.8018798828125 78.5 40.0000114440918 C 78.5 45.19814300537109 77.48227691650391 50.2399787902832 75.47509765625 54.98548889160156 C 73.53606414794922 59.56986618041992 70.75986480712891 63.6873664855957 67.22360992431641 67.22362518310547 C 63.68735122680664 70.7598876953125 59.56985092163086 73.53608703613281 54.9854736328125 75.47511291503906 C 50.23996353149414 77.4822998046875 45.1981201171875 78.50002288818359 39.99999618530273 78.50002288818359 Z" stroke="none"/>
                          <path d="M 39.99999618530273 3 C 35.00370407104492 3 30.15846252441406 3.977851867675781 25.59885025024414 5.906410217285156 C 21.19327545166016 7.769813537597656 17.23603439331055 10.43806457519531 13.83705139160156 13.83705139160156 C 10.43806457519531 17.23603820800781 7.769805908203125 21.19327926635742 5.906410217285156 25.59885025024414 C 3.977851867675781 30.15846633911133 2.999992370605469 35.00371932983398 2.999992370605469 40.0000114440918 C 2.999992370605469 44.99630355834961 3.977851867675781 49.84154510498047 5.906410217285156 54.40115737915039 C 7.769805908203125 58.80674743652344 10.43806457519531 62.76398468017578 13.83705139160156 66.16297149658203 C 17.23603439331055 69.56195831298828 21.19327545166016 72.23020935058594 25.59885025024414 74.09361267089844 C 30.15846252441406 76.02217102050781 35.00370407104492 77.00002288818359 39.99999618530273 77.00002288818359 C 44.99628829956055 77.00002288818359 49.84152984619141 76.02217102050781 54.40114212036133 74.09361267089844 C 58.80671691894531 72.23020935058594 62.76395416259766 69.56195831298828 66.16294097900391 66.16297149658203 C 69.56192779541016 62.76398468017578 72.23017883300781 58.80674743652344 74.09358215332031 54.40115737915039 C 76.02214050292969 49.84154510498047 77 44.99630355834961 77 40.0000114440918 C 77 35.00371932983398 76.02214050292969 30.15846633911133 74.09358215332031 25.59885025024414 C 72.23017883300781 21.19327926635742 69.56192779541016 17.23603820800781 66.16294097900391 13.83705139160156 C 62.76395416259766 10.43806457519531 58.80671691894531 7.769813537597656 54.40114212036133 5.906410217285156 C 49.84152984619141 3.977851867675781 44.99628829956055 3 39.99999618530273 3 M 39.99999618530273 0 C 62.09138488769531 0 80 17.90861129760742 80 40.0000114440918 C 80 62.09140014648438 62.09138488769531 80.00002288818359 39.99999618530273 80.00002288818359 C 17.90861129760742 80.00002288818359 -7.62939453125e-06 62.09140014648438 -7.62939453125e-06 40.0000114440918 C -7.62939453125e-06 17.90861129760742 17.90861129760742 0 39.99999618530273 0 Z" stroke="none" fill="#887013"/>
                        </g>
                      </g>
                    </g>
                  </g>
                </g>
              </g>
            </g>
          </g>
        </g>
      </g>
    </g>
    <g id="check_4944616_2_" data-name="check_4944616 (2)" transform="translate(992.407 3233.884)">
      <g id="Grupo_1210545" data-name="Grupo 1210545" transform="translate(66.744 9.148)">
        <path id="Trazado_1053974" data-name="Trazado 1053974" d="M113.53,128.627H74.57a1.369,1.369,0,0,1-1.369-1.369V81.581a1.369,1.369,0,0,1,1.369-1.369h38.96a1.369,1.369,0,0,1,1.369,1.369v45.678A1.369,1.369,0,0,1,113.53,128.627Z" transform="translate(-73.201 -80.212)" fill="#98695e"/>
      </g>
      <g id="Grupo_1210546" data-name="Grupo 1210546" transform="translate(66.744 9.148)">
        <path id="Trazado_1053975" data-name="Trazado 1053975" d="M113.53,80.212h-.857v44.846a1.344,1.344,0,0,1-1.344,1.344H73.2v.857a1.369,1.369,0,0,0,1.369,1.369h38.96a1.369,1.369,0,0,0,1.369-1.369V81.581A1.369,1.369,0,0,0,113.53,80.212Z" transform="translate(-73.201 -80.212)" fill="#785252"/>
      </g>
      <g id="Grupo_1210547" data-name="Grupo 1210547" transform="translate(69.77 9.148)">
        <path id="Trazado_1053976" data-name="Trazado 1053976" d="M134.236,125.465H100.872a1.14,1.14,0,0,1-1.141-1.141V81.353a1.141,1.141,0,0,1,1.141-1.141h33.365a1.14,1.14,0,0,1,1.141,1.141v42.972A1.141,1.141,0,0,1,134.236,125.465Z" transform="translate(-99.731 -80.212)" fill="#f9f6f9"/>
      </g>
      <g id="Grupo_1210548" data-name="Grupo 1210548" transform="translate(69.77 9.148)">
        <path id="Trazado_1053977" data-name="Trazado 1053977" d="M134.235,80.212h-.829v42.175A1.108,1.108,0,0,1,132.3,123.5H99.73v.829a1.14,1.14,0,0,0,1.141,1.141h33.365a1.14,1.14,0,0,0,1.141-1.141V81.353A1.141,1.141,0,0,0,134.235,80.212Z" transform="translate(-99.73 -80.212)" fill="#f1eaf9"/>
      </g>
      <g id="Grupo_1210549" data-name="Grupo 1210549" transform="translate(72.477 39.176)">
        <path id="Trazado_1053978" data-name="Trazado 1053978" d="M129.72,343.893l-6.147,10.647a.8.8,0,0,0,.691,1.2h12.294a.8.8,0,0,0,.691-1.2L131.1,343.893A.8.8,0,0,0,129.72,343.893Z" transform="translate(-123.465 -343.494)" fill="#ecb780"/>
      </g>
      <path id="Trazado_1053979" data-name="Trazado 1053979" d="M178.85,354.54,172.7,343.893a.8.8,0,0,0-1.383,0l-.9,1.558,5.939,10.286h1.8A.8.8,0,0,0,178.85,354.54Z" transform="translate(-92.589 -304.318)" fill="#e29375"/>
      <g id="Grupo_1210550" data-name="Grupo 1210550" transform="translate(80.903 0.831)">
        <path id="Trazado_1053980" data-name="Trazado 1053980" d="M209.281,10.2h-1.316a.663.663,0,0,1-.635-.454,3.526,3.526,0,0,0-6.722,0,.663.663,0,0,1-.635.454h-1.189a1.441,1.441,0,0,0-1.441,1.441v4.947a1.441,1.441,0,0,0,1.441,1.441h10.5a1.441,1.441,0,0,0,1.441-1.441V11.644A1.441,1.441,0,0,0,209.281,10.2Z" transform="translate(-197.342 -7.289)" fill="#e4d5f4"/>
      </g>
      <g id="Grupo_1210553" data-name="Grupo 1210553" transform="translate(80.903 0.961)">
        <g id="Grupo_1210551" data-name="Grupo 1210551" transform="translate(7.568)">
          <path id="Trazado_1053981" data-name="Trazado 1053981" d="M263.7,8.427a.679.679,0,0,0,.38.129A3.487,3.487,0,0,0,263.7,8.427Z" transform="translate(-263.702 -8.427)" fill="#ddc8f1"/>
        </g>
        <g id="Grupo_1210552" data-name="Grupo 1210552" transform="translate(0 2.785)">
          <path id="Trazado_1053982" data-name="Trazado 1053982" d="M209.282,32.845h-1.214v3.733a1.441,1.441,0,0,1-1.441,1.441h-9.284v1.214a1.441,1.441,0,0,0,1.441,1.441h10.5a1.441,1.441,0,0,0,1.441-1.441V34.286A1.441,1.441,0,0,0,209.282,32.845Z" transform="translate(-197.343 -32.845)" fill="#ddc8f1"/>
        </g>
      </g>
      <g id="Grupo_1210554" data-name="Grupo 1210554" transform="translate(73.47 16.483)">
        <circle id="Elipse_13447" data-name="Elipse 13447" cx="5.954" cy="5.954" r="5.954" fill="#aaddb4"/>
      </g>
      <g id="Grupo_1210555" data-name="Grupo 1210555" transform="translate(74.257 17.271)">
        <path id="Trazado_1053983" data-name="Trazado 1053983" d="M147.194,151.427a5.953,5.953,0,0,1-8.124,8.124,5.953,5.953,0,1,0,8.124-8.124Z" transform="translate(-139.07 -151.427)" fill="#78d090"/>
      </g>
      <g id="Grupo_1210556" data-name="Grupo 1210556" transform="translate(72.477 30.5)">
        <path id="Trazado_1053984" data-name="Trazado 1053984" d="M129.72,267.823l-6.147,10.647a.8.8,0,0,0,.691,1.2h12.294a.8.8,0,0,0,.691-1.2L131.1,267.823A.8.8,0,0,0,129.72,267.823Z" transform="translate(-123.465 -267.424)" fill="#ecb780"/>
      </g>
      <path id="Trazado_1053985" data-name="Trazado 1053985" d="M178.67,278.47l-6.147-10.647a.8.8,0,0,0-1.383,0l-.923,1.6,5.916,10.246h1.846A.8.8,0,0,0,178.67,278.47Z" transform="translate(-92.408 -236.924)" fill="#e29375"/>
      <g id="Grupo_1210557" data-name="Grupo 1210557" transform="translate(65.913 0)">
        <path id="Trazado_1053986" data-name="Trazado 1053986" d="M108.441,229.926a.831.831,0,0,0-.831.831v8.406a.513.513,0,0,1-.512.512H68.088a.513.513,0,0,1-.512-.512V207.326a.831.831,0,0,0-1.662,0v31.837a2.177,2.177,0,0,0,2.175,2.175H107.1a2.177,2.177,0,0,0,2.175-2.175v-8.406A.831.831,0,0,0,108.441,229.926Z" transform="translate(-65.913 -182.944)"/>
        <path id="Trazado_1053987" data-name="Trazado 1053987" d="M107.1,8.317H98.469a3.086,3.086,0,0,0-3.355-2.9,2.3,2.3,0,0,0-2.272-2.506h-1.2a4.357,4.357,0,0,0-8.223,0H82.344a2.3,2.3,0,0,0-2.272,2.506,3.086,3.086,0,0,0-3.355,2.9H68.088a2.177,2.177,0,0,0-2.175,2.175v9.985a.831.831,0,1,0,1.662,0V10.492a.513.513,0,0,1,.512-.512h.873a1.929,1.929,0,0,0-.022.277V53.293a1.942,1.942,0,0,0,1.94,1.94h33.429a1.942,1.942,0,0,0,1.94-1.94V10.257a1.928,1.928,0,0,0-.022-.277h.873a.513.513,0,0,1,.512.512V43.978a.831.831,0,1,0,1.662,0V10.492A2.177,2.177,0,0,0,107.1,8.317ZM78.376,9.98h1.7a2.286,2.286,0,0,0,2.272,2.426h10.5A2.286,2.286,0,0,0,95.114,9.98h1.7v2.041c0,.287,0,1.275-1.385,1.275H79.761c-1.385,0-1.385-.988-1.385-1.275Zm17.049-2.9A1.387,1.387,0,0,1,96.8,8.317H95.114V7.084Zm-13.69-1.9a.61.61,0,0,1,.61-.61h1.189A1.487,1.487,0,0,0,84.96,3.542a2.695,2.695,0,0,1,5.137,0,1.487,1.487,0,0,0,1.428,1.035h1.316a.61.61,0,0,1,.61.61v4.947a.61.61,0,0,1-.61.61h-10.5a.61.61,0,0,1-.61-.61V5.187Zm-1.973,1.9h.311V8.317H78.384A1.387,1.387,0,0,1,79.761,7.084Zm24.823,3.173V53.293a.277.277,0,0,1-.277.277H70.878a.277.277,0,0,1-.277-.277V10.257a.277.277,0,0,1,.277-.277h5.835v2.152a2.715,2.715,0,0,0,3.048,2.826H95.424a2.715,2.715,0,0,0,3.048-2.826V9.98h5.835a.277.277,0,0,1,.277.277Z" transform="translate(-65.913 0)"/>
        <path id="Trazado_1053988" data-name="Trazado 1053988" d="M177.471,420.567a.872.872,0,1,0,.872.872A.872.872,0,0,0,177.471,420.567Z" transform="translate(-163.975 -372.601)"/>
        <path id="Trazado_1053989" data-name="Trazado 1053989" d="M131.665,150.807a6.785,6.785,0,1,0-6.785-6.785A6.793,6.793,0,0,0,131.665,150.807Zm0-11.908a5.123,5.123,0,1,1-5.123,5.123A5.128,5.128,0,0,1,131.665,138.9Z" transform="translate(-118.155 -121.585)"/>
        <path id="Trazado_1053990" data-name="Trazado 1053990" d="M155.72,181.123a1.165,1.165,0,0,0,1.646,0l3.036-3.036a.831.831,0,0,0-1.176-1.175l-2.684,2.684-1.164-1.164a.831.831,0,1,0-1.176,1.175Z" transform="translate(-143.918 -156.519)"/>
        <path id="Trazado_1053991" data-name="Trazado 1053991" d="M131.393,273.064a1.591,1.591,0,0,0,0-1.607l-.9-1.566a.831.831,0,1,0-1.44.831l.856,1.483h-12.18l6.09-10.548,3.269,5.662a.831.831,0,1,0,1.44-.831l-3.317-5.745a1.591,1.591,0,0,0-1.392-.8h0a1.591,1.591,0,0,0-1.392.8l-6.186,10.714a1.607,1.607,0,0,0,1.392,2.411h2.225l-3.617,6.265a1.607,1.607,0,0,0,1.392,2.411H130a1.607,1.607,0,0,0,1.392-2.411l-3.617-6.265H130A1.591,1.591,0,0,0,131.393,273.064Zm-1.487,7.817h-12.18l4.049-7.013h1.2v2.241a.831.831,0,0,0,1.662,0v-2.241h1.224Z" transform="translate(-110.305 -230.292)"/>
        <path id="Trazado_1053992" data-name="Trazado 1053992" d="M177.786,300.272a.831.831,0,0,0,.831-.831V296.9a.831.831,0,1,0-1.662,0v2.542A.831.831,0,0,0,177.786,300.272Z" transform="translate(-164.29 -262.301)"/>
        <path id="Trazado_1053993" data-name="Trazado 1053993" d="M177.471,346.242a.872.872,0,1,0-.872-.872A.872.872,0,0,0,177.471,346.242Z" transform="translate(-163.975 -305.207)"/>
        <path id="Trazado_1053994" data-name="Trazado 1053994" d="M263.73,172.255a.831.831,0,0,0,0,1.662h11.636a.831.831,0,0,0,0-1.662Z" transform="translate(-240.432 -152.609)"/>
        <path id="Trazado_1053995" data-name="Trazado 1053995" d="M275.366,203.993H263.73a.831.831,0,0,0,0,1.662h11.636a.831.831,0,1,0,0-1.662Z" transform="translate(-240.432 -180.727)"/>
        <path id="Trazado_1053996" data-name="Trazado 1053996" d="M263.73,237.392h4.64a.831.831,0,1,0,0-1.662h-4.64a.831.831,0,1,0,0,1.662Z" transform="translate(-240.432 -208.845)"/>
        <path id="Trazado_1053997" data-name="Trazado 1053997" d="M275.366,299.2H263.73a.831.831,0,1,0,0,1.662h11.636a.831.831,0,1,0,0-1.662Z" transform="translate(-240.432 -265.079)"/>
        <path id="Trazado_1053998" data-name="Trazado 1053998" d="M275.366,330.94H263.73a.831.831,0,0,0,0,1.662h11.636a.831.831,0,1,0,0-1.662Z" transform="translate(-240.432 -293.196)"/>
        <path id="Trazado_1053999" data-name="Trazado 1053999" d="M263.73,396.077h4.64a.831.831,0,1,0,0-1.662h-4.64a.831.831,0,0,0,0,1.662Z" transform="translate(-240.432 -349.431)"/>
        <path id="Trazado_1054000" data-name="Trazado 1054000" d="M275.366,426.151H263.73a.831.831,0,1,0,0,1.662h11.636a.831.831,0,1,0,0-1.662Z" transform="translate(-240.432 -377.548)"/>
      </g>
    </g>
  </g>
</svg>
