<svg xmlns="http://www.w3.org/2000/svg" xmlns:xlink="http://www.w3.org/1999/xlink" width="600" height="299.96" viewBox="0 0 600 299.96">
  <defs>
    <clipPath id="clip-path">
      <rect id="Rectángulo_419506" data-name="Rectángulo 419506" width="600" height="299.96" transform="translate(810 5338.249)" fill="#fff" opacity="0.4"/>
    </clipPath>
    <clipPath id="clip-path-2">
      <rect id="Rectángulo_419389" data-name="Rectángulo 419389" width="314.51" height="292.18" transform="translate(0 0)" fill="none"/>
    </clipPath>
    <filter id="Trazado_1043752" x="102.528" y="8.03" width="96.939" height="95.941" filterUnits="userSpaceOnUse">
      <feOffset dy="3" input="SourceAlpha"/>
      <feGaussianBlur stdDeviation="3" result="blur"/>
      <feFlood flood-opacity="0.161"/>
      <feComposite operator="in" in2="blur"/>
      <feComposite in="SourceGraphic"/>
    </filter>
    <clipPath id="clip-path-3">
      <rect id="Rectángulo_419390" data-name="Rectángulo 419390" width="87.603" height="120.713" fill="none"/>
    </clipPath>
    <clipPath id="clip-path-4">
      <rect id="Rectángulo_419391" data-name="Rectángulo 419391" width="121.311" height="127.049" fill="none"/>
    </clipPath>
  </defs>
  <g id="Enmascarar_grupo_1098809" data-name="Enmascarar grupo 1098809" transform="translate(-810 -5338.249)" clip-path="url(#clip-path)">
    <g id="Grupo_1210409" data-name="Grupo 1210409">
      <rect id="Rectángulo_419387" data-name="Rectángulo 419387" width="505" height="110.934" rx="10" transform="translate(852.5 5502.193)" fill="#f8ce24"/>
      <g id="Grupo_1210405" data-name="Grupo 1210405" transform="translate(-22.696 3120.941)">
        <g id="Grupo_1203648" data-name="Grupo 1203648" transform="translate(990.073 2225.089)">
          <g id="Grupo_1203647" data-name="Grupo 1203647" transform="translate(0 0)" clip-path="url(#clip-path-2)">
            <path id="Trazado_1043624" data-name="Trazado 1043624" d="M2696.424,843.636c-1.41,2.777-2.925,5.533-3.5,8.623a8.493,8.493,0,0,0,2.754,8.1c1.69,1.595,3.342,3.229,5.01,4.846.7.223.938.855,1.252,1.418a3.921,3.921,0,0,0,.37.686c2.068,2.4,4.328,4.691,3.833,8.388a6.215,6.215,0,0,0,1.652-2.905,3.04,3.04,0,0,1,3.012-2.043c3.183-.023,6.368,0,9.548-.237a42.24,42.24,0,0,1,20.94,16c3.422,4.823,4.836,10.658,6.214,16.364a59.352,59.352,0,0,1,1.335,20.946,24.308,24.308,0,0,1-3.013,8.81,77.182,77.182,0,0,1-17.619,21.791,122.547,122.547,0,0,1-10.7,8.849c-1.162-.118-1.344-1.108-1.667-1.93-4.649-11.841-8.753-23.878-12.926-35.892-2.275-6.549-5.81-12.526-9.086-18.617A152.935,152.935,0,0,0,2684,890.628a13.942,13.942,0,0,0-3.128-3.469c-2.374-2.324-4.417-4.97-7.091-7.011-6.421-4.9-13.083-9.323-21.048-11.367-2-.512-2.44-1.186-2.323-3.018.26-4.085-.436-5.182-4.189-6.6a2.377,2.377,0,0,1-1.006-.584c-.671-1.031-.328-2.132-.263-3.232a11.722,11.722,0,0,0-3.143-8.931c-4.062-4.6-9.456-6.094-15.285-6.788-3.362-.4-6.742-.094-10.088-.561a1.157,1.157,0,0,1-.362-.519,2.894,2.894,0,0,1,.324-2.063,36.986,36.986,0,0,0,3.138-11.141,3.843,3.843,0,0,1,.446-1.471c.88-.854,1.249.071,1.667.538a14.226,14.226,0,0,0,3.038,2.962c.892.352,1.669-.108,2.478-.357,2.745-.677,3.636-2.525,3.977-5.238,1.178-9.388,3.357-18.61,4.971-27.929a9.382,9.382,0,0,0,.051-3.869c.9-1.957,2.325-2.146,3.588-.471a8.734,8.734,0,0,1,1.026,2.294c-.093,3.336-1.28,6.463-1.92,9.7-1.406,7.105-2.343,14.294-4,21.518.913,0,1.357-.64,1.954-.913.858-.308,1.461-1.046,2.3-1.376,1.15-.612,1.45-1.806,1.842-2.87a46.477,46.477,0,0,0,2.916-13.042c.107-1.647.967-3.282.209-4.966-.175-1.523-1.367-2.833-.947-4.483a2.018,2.018,0,0,1,.723-.91,26.576,26.576,0,0,1,14.082-4.766c1.277-.064,2.152.8,2.946,1.719,1,1.157,2.056,2.243,3.823,1.814a.67.67,0,0,1,.568.086c3.044,2.7,6.106.742,8.994-.193a7.08,7.08,0,0,1,5.823.238c10.492,5.4,17.454,13.662,20.668,25.085,2.149,7.64.613,14.734-2.784,21.623a34.758,34.758,0,0,0-1.558,3.573" transform="translate(-2440.911 -735.606)" fill="#64b1f1"/>
            <path id="Trazado_1043625" data-name="Trazado 1043625" d="M821.247,3579.747a298.891,298.891,0,0,1-31.333-3.249,332.068,332.068,0,0,1-42.978-9.415c-1.88-2.011-1.1-4.565-1.3-6.883a20.814,20.814,0,0,1,.195-4.644,40.1,40.1,0,0,1,1.424-8.045c2.191-6.77,5.233-13.027,10.534-18,4.014-3.764,8.39-5.835,14.148-4.776a119.77,119.77,0,0,1,16.044,4.191c.626.3,1.311.458,1.923.793a74.277,74.277,0,0,1,8.045,3.19c1.274.6,2.479,1.337,3.745,1.955,2.882,1.514,5.651,3.228,8.5,4.8a149.686,149.686,0,0,1,17.286,12.563,5.317,5.317,0,0,0,1.149.718c2.733,2.026,5.441,4.085,8.014,6.317,1.946,1.418,3.869,2.865,5.783,4.323.613.468,1.315.87,1.57,1.681.1.941-.587,1.385-1.2,1.86-5.644,4.4-11.631,8.309-17.587,12.262-1.253.832-2.623.481-3.967.362" transform="translate(-695.677 -3288.572)" fill="#201f50"/>
            <path id="Trazado_1043626" data-name="Trazado 1043626" d="M2120.183,3673.869a305.79,305.79,0,0,1-42.754,7.24,435.909,435.909,0,0,1-52.149,2.482c-4.563-.07-9.122-.289-13.684-.44-.41-.7.175-.96.6-1.187,8.868-4.781,16.248-11.535,23.868-17.97,7.736-6.533,15.648-12.806,24.733-17.432,6.218-3.167,12.478-6.179,18.435-6.79a58.561,58.561,0,0,0-16.225,5.372c-2.314,1.141-4.944,1.625-7.295,2.778a1.242,1.242,0,0,1-1.463-.2c-.024-1.331,1.1-1.655,1.962-2.139,5.555-3.128,11.19-6.088,17.394-7.768a4.491,4.491,0,0,0,.533-.243c7.042-1.95,14.144-3.4,21.515-2.634a23.336,23.336,0,0,1,3.159.421c.581.164,1.184.248,1.76.435,1.075.433,2.22.663,3.287,1.126,1.28.478,2.449,1.193,3.706,1.725,7.655,4.53,11.833,11.361,13.262,20.019.362,2.193.465,4.408.646,6.621-.126,1.675-.155,3.351-.115,5.027a4.677,4.677,0,0,1-1.172,3.563" transform="translate(-1876.832 -3391.457)" fill="#201f50"/>
            <path id="Trazado_1043627" data-name="Trazado 1043627" d="M437.139,2297.939c-5.5-1.576-10.934-3.323-16.629-4.223a13.669,13.669,0,0,0-11.561,3.294,35.817,35.817,0,0,0-10.189,14.341c-.6,1.482-1.109,3-1.66,4.5-2.771-1.428-5.6-.252-8.4-.154-5.329.187-10.667.689-15.88-.972a16.072,16.072,0,0,1-2.653-7.062c-1.649-8.574.2-16.738,2.991-24.788a26.094,26.094,0,0,0,1.619-5,2.786,2.786,0,0,1,.395-2.418c1.423-3.147,2.8-6.315,4.188-9.476.673-2.373,2.3-4.232,3.526-6.283,6.712-11.187,12.885-22.689,19.747-33.785,4.185-6.767,8.391-13.526,13.471-19.679.734-.889,1.361-2.195,2.955-1.644a27.6,27.6,0,0,0,3.845,4.413,6.5,6.5,0,0,1,1.684,2.38c2.589,7.275,4.832,14.624,4.724,22.466a13.861,13.861,0,0,1-.079,1.76c-.307,2.164-1.307,2.867-3.375,2.226-2.251-.7-4.571-1.073-6.847-1.645a9.412,9.412,0,0,0-4.453.071c-1.991.451-2.629,1.434-2,3.421,1.019,3.237,2.413,6.34,3.5,9.556a53.439,53.439,0,0,1,1.66,7.442,2.092,2.092,0,0,1-.46,2.011c-.974.513-1.627-.167-2.246-.694a64.709,64.709,0,0,1-8.76-9.648,40.628,40.628,0,0,1,2.78,4.272c2.074,4.121,5.155,7.479,8.245,10.82,1.682,1.818,3.521,3.489,5.226,5.287.623.657,1.412,1.391,1,2.375-.4.951-1.456.993-2.367,1.081-3.409.33-6.22-1.2-8.877-3.018a89.435,89.435,0,0,1-10.285-8.91c.553.678,1.252,1.271,1.861,1.948,1.149,1.539,2.87,2.586,3.747,4.36a23.89,23.89,0,0,0,1.285,2.412c1.243,2.011.7,3.5-1.538,4.234-2.48.816-5.055,1.33-7.512,2.218-5.412,1.956-10.818,3.939-14.98,8.19a14.1,14.1,0,0,0-2.1,2.578c-.417.7-1.377,1.466-.843,2.2.5.695,1.607.162,2.388-.022,2.1-.494,4.2-.994,6.238-1.686a93.353,93.353,0,0,1,28.509-4.468c1.017-.018,2.119-.2,2.946.69-.123,1.064-1.017,1.027-1.744,1.191-3.819.862-7.718,1.249-11.569,1.929a100.361,100.361,0,0,0-21.563,6.242,3.148,3.148,0,0,0-1.938,1.346,3.663,3.663,0,0,0,2.526.7,40.087,40.087,0,0,0,10.3-.831c10.54-2.14,21.1-4.2,31.587-6.583,2.038-.464,4-1.2,6.022-1.7,2.078-.521,2.727.021,2.059,1.965a4.931,4.931,0,0,0,.79,4.942,16.891,16.891,0,0,1-.195,4.536c-.041.608-.264,1.281-1.118,1.292" transform="translate(-344.816 -2056.913)" fill="#fec53b"/>
            <path id="Trazado_1043628" data-name="Trazado 1043628" d="M3316.689,2379.309a63.781,63.781,0,0,0-1.152-8.7,26.184,26.184,0,0,0-11.017-16.242c-.48-.322-.922-.7-1.382-1.056a1.879,1.879,0,0,1-.682-1.533c.349-2.211,0-4.479.562-6.667.724-1.174,1.538-.637,2.294-.067a27.467,27.467,0,0,1,2.52,2.727c7.049,6.981,13.986,14.083,21.607,20.458a18.552,18.552,0,0,0,6.449,3.629,3.906,3.906,0,0,0,3.853-.711c6-4.814,8.062-14.8,4.458-21.589a16.2,16.2,0,0,0-2.528-3.223c-.54-.593-1.353-1.136-.893-2.167,1.168-.64,1.993.127,2.806.742a24.238,24.238,0,0,1,3.724,3.84c1.041-8.127-4.379-14.678-12.751-15.405-3.748-.325-7.569-.51-11,1.633-1.782.3-3.481-.312-5.218-.484a98.525,98.525,0,0,0-13.223-.79,3.492,3.492,0,0,1-1.523-.277c-1.068-.6-.639-1.417-.061-1.915a79.374,79.374,0,0,0,9.01-9.491.8.8,0,0,1,.909-.164c1.167.885.753,1.966.323,3a29.936,29.936,0,0,1-3.783,6.1,10.314,10.314,0,0,0,5.465-2.606,22.159,22.159,0,0,0,6.674-9.276,43.109,43.109,0,0,0,2.385-16.126c-.215-12.225-5.8-22.612-10.944-33.159-1.242-2.546-1.421-2.4-3.128-.145a53.9,53.9,0,0,0-8.076,14.02c-1.829,5.043-2.972,10.207-2.382,15.542a18.5,18.5,0,0,0,9.52,14.7,7.681,7.681,0,0,0,3.214.734c.992.1,1.924.494,1.859,1.613-.1,1.661.176,3.408-.767,4.948a6.459,6.459,0,0,0-1.951,1.536,60.205,60.205,0,0,1-10.721,9.942c-.224-.028-.035.447-.038.185,0-.08.051-.09.133-.112.438-.115.771-.084.761.492-.886,1.1-1.915.459-2.91.245a4.251,4.251,0,0,1-2.74-1.679,17.111,17.111,0,0,1-1.21-4.925c-.574-3.609-1.558-7.141-2.009-10.773-.01-.759-.008-1.518-.009-2.277a89.431,89.431,0,0,1,8.4-38.639c1.453-3.127,3.282-6.072,5.005-9.064a12.228,12.228,0,0,0,1.584-3.341c1.063-2.452,2.247-4.811,4.852-6.025,1.568.62,2.311,2.054,3.216,3.309,5.786,8.014,10.222,16.818,14.866,25.5,4.835,9.039,7.222,19,10.829,28.507,2.291,6.036,4.483,12.11,6.739,18.159a6.809,6.809,0,0,0,.709,1.152c.734,3.127,2.274,5.958,3.283,8.987,2.522,7.572,3.03,15.179.659,22.883a10.551,10.551,0,0,0-.233,1.335c.395,1.925-.626,3.519-1.321,5.143-1.174,2.747-2.612,5.351-5.531,6.688a82.006,82.006,0,0,1-10.985,4.172c-3.978.055-7.755-1.306-11.679-1.647-1.478-.128-2.937-.479-4.42-.583a3.5,3.5,0,0,1-2.4-1.066" transform="translate(-3072.714 -2105.728)" fill="#f3a62f"/>
            <path id="Trazado_1043629" data-name="Trazado 1043629" d="M35.11,1348.572l-5.145,11.769c-2.266-.959-3.975-2.721-5.79-4.26a67.373,67.373,0,0,1-18.838-25.3A71,71,0,0,1,.2,1308.047c-1.3-17.283,3.775-32.521,14.549-45.918,5.345-6.646,11.881-12,18.926-16.8a134.909,134.909,0,0,1,36.432-17.75,165.665,165.665,0,0,1,28-6.089,21.427,21.427,0,0,1,3.878-.369,3.449,3.449,0,0,1,1.942,3.951,2.6,2.6,0,0,1-1.969.689,165.78,165.78,0,0,0-55.809,16.057,76.265,76.265,0,0,0-24.084,18.5,83.29,83.29,0,0,0-13.32,19.5c-4.1,8.663-6.129,17.724-5.113,27.349a5.265,5.265,0,0,1,.05,1.368c-.955,5.947,1.914,10.631,5.1,15.155,6.315,8.978,14.413,16.126,23.342,22.393a11.816,11.816,0,0,1,2.992,2.491" transform="translate(0 -1139.382)" fill="#83c8f4"/>
            <path id="Trazado_1043630" data-name="Trazado 1043630" d="M1483.225,61.758c-.751-2.276-.466-4.647-.546-6.968-.213-6.147-.024-12.286,1.774-18.238,1.784-5.906,4.878-10.945,10.217-14.582-1.994-1.753-3.943-3.451-3.793-6.326a5.587,5.587,0,0,1,1.523-3.587c1.016,4.419,2.678,5.386,7.084,4.315,4.141-1.007,7.881-3.107,11.938-4.347,4.536-1.386,9.067-1.951,13.592-.01a2.628,2.628,0,0,0,2.065-.086,21.66,21.66,0,0,1,5.026-1.348c-1.427-1.784-2.809-3.394-4.057-5.1-1.4-1.911-.993-2.686,1.4-2.955a11.751,11.751,0,0,1,8.585,2.609,31.682,31.682,0,0,1,4.62,4.286c-1.042-2.995-2.171-5.954-.7-9.416,3.375,6.038,8.556,8.709,14.819,9.763,3.339.562,6.458,1.622,8.281,5.081.244-1.872-.509-3.372-.767-4.972,2.269,1.068,3.248,2.809,3.384,5.959,1.408-1.658,1.626-2.58,1.771-7.685,2.192,1.584,2.566,3.718,2.34,6.057-.183,1.9-1.1,3.193-3.188,3.316.17.751.793.916,1.266,1.207,9.917,6.1,14.612,15.279,15.681,26.591.172,1.819.3,3.642.45,5.463,1.331,2.689.865,5.451.337,8.215-.38.652-.837,1.138-1.684.774-1.651-.777-1.726-2.289-1.773-3.812-.72-3.471-.288-7.018-.725-10.525-.808-6.485-2.7-12.465-6.849-17.639-1.823-2.275-4.274-3.79-6.309-5.621a22.126,22.126,0,0,1,3.252,4.729,28.87,28.87,0,0,0,4.015,6.005c1.507,1.65,1.23,2.433-.908,3.133-1.276,0-1.75-.943-2.258-1.876a35.712,35.712,0,0,0-9.781-11.81c-7.175-5.4-15.39-7.85-24.2-8.474a55.4,55.4,0,0,0-22.859,3.44,35.333,35.333,0,0,0-20.9,19.141c-.571,1.236-.971,2.638-2.693,2.745-2.088-.4-2.852-1.2-3.05-3.168a8.261,8.261,0,0,1,6.779-8.908c-1.738-.82-1.939-1.349-.971-2.55-5.236,5.523-8.591,11.953-9.043,19.636-.271,4.61-.953,9.233-.161,13.862a7.073,7.073,0,0,1,.268,2.1,2.733,2.733,0,0,1-1.94,2.265,1.307,1.307,0,0,1-1.311-.691" transform="translate(-1383.38 -0.004)" fill="#1f1f51"/>
            <path id="Trazado_1043631" data-name="Trazado 1043631" d="M3900.968,1700.736c-3.08.746-6.217.444-9.329.448-1.377,0-2.2.367-2.551,1.763a25.788,25.788,0,0,1-1.058,2.933c-.214.553-.467,1.156-1.211,1.036-.661-.106-.66-.711-.714-1.226-.048-.453-.1-.906-.119-1.36-.1-2.176-.446-4.119-2.555-5.488-1.238-.8-1.72-2.4-2.035-3.9,0-3.388,0-6.775.008-10.163.013-4.08,2.651-6.944,6.725-7.076,3.71-.12,7.429-.089,11.142-.021,2.825.051,5.721,2.272,5.9,5.051a59.144,59.144,0,0,1-.229,13.822,6.666,6.666,0,0,1-.389,1.1,3.5,3.5,0,0,1-3.582,3.082" transform="translate(-3621.618 -1565.341)" fill="#f4fefe"/>
            <path id="Trazado_1043632" data-name="Trazado 1043632" d="M4173.825,1980c1.487-.687,2.44-1.994,3.582-3.082,4.519,1.849,9.136,3.437,13.489,5.711,9.718,5.079,16.385,12.607,17.747,23.67a48.236,48.236,0,0,1-4.2,25.925,57.794,57.794,0,0,1-4.078,8.222c-.286.435-.474.934-.974,1.188a44.372,44.372,0,0,0,2.7-16.276,66.865,66.865,0,0,0-6.651-27.5c-2.447-5.1-6.829-8.656-11.235-12.05a45.39,45.39,0,0,0-10.388-5.805" transform="translate(-3894.475 -1844.609)" fill="#82c8f4"/>
            <path id="Trazado_1043633" data-name="Trazado 1043633" d="M3023.934,755.853c.4-2.852.012-5.72.174-8.576a117.6,117.6,0,0,1,15.2-.813,56.336,56.336,0,0,1,28.71,7.748c9.623,5.757,14.9,14.364,16.085,25.6.975,9.265-1.824,17.309-7.091,24.713-.081-2.253,1-4.175,1.895-6.1,5.139-11.074,2.606-21.2-3.758-30.825a37.609,37.609,0,0,0-14.27-12.481c-1.809-.951-3.461-1.564-5.673-.417a16.571,16.571,0,0,1-8.884,1.493c-1.115-.083-.328-1.038-.559-1.646-1.837,1.682-3.392.1-4-.931-1.895-3.2-4.562-2.578-7.184-1.883-3.711.984-7.389,2.162-10.5,4.569a.306.306,0,0,1-.187-.272c0-.12.018-.179.049-.179" transform="translate(-2821.499 -696.496)" fill="#82c7f4"/>
            <path id="Trazado_1043634" data-name="Trazado 1043634" d="M1927.975,3707.764c1.594.022,2.68-1.26,4.121-1.614,4.035-.988,7.614-3.133,11.516-4.5,3.87-1.354,7.854-1.709,11.8-2.458a.814.814,0,0,1,.946.355c-.81.719-1.862.381-2.75.558-7.769,1.556-14.788,4.961-21.634,8.758-9.331,5.176-17.335,12.131-25.419,19-6.04,5.135-12.1,10.286-19.061,14.217-.7.4-1.708.3-2.127,1.194a88.848,88.848,0,0,1-9.194-.521c2.312.445,3.832-1.117,5.518-2.211,5.557-3.61,11-7.391,16.276-11.4.318-.242.633-.458.67-.9.053-.961.8-1.4,1.438-1.928,1.577-1.3,3.36-2.329,4.9-3.684a245.2,245.2,0,0,1,20.188-14.046c.838-.5,1.634-1.4,2.817-.828" transform="translate(-1750.601 -3451.581)" fill="#2a3272"/>
            <path id="Trazado_1043635" data-name="Trazado 1043635" d="M308.609,3907.788c-.123,3.936-.318,7.876.485,11.774-9.489-2.827-18.681-6.5-27.97-9.885a12.463,12.463,0,0,1-4.088-2.246c-1.036-.917-.928-1.545.291-2.173,2.828-1.454,5.919-1.927,8.984-2.5.565-.106,1.188.024,1.637-.472a.966.966,0,0,1,.762.033c4.1,2.668,8.96,2.487,13.484,3.555,1.453.342,2.937.591,4.416.829a2.845,2.845,0,0,1,2,1.089" transform="translate(-257.835 -3641.051)" fill="#62b1f2"/>
            <path id="Trazado_1043636" data-name="Trazado 1043636" d="M441.245,3853.262c-5.069-.9-10.128-1.861-15.211-2.671a10.559,10.559,0,0,1-5.45-2.834c-.561-1.227-1.728-2.079-2.105-3.42.973-.886,1.982-.162,2.957-.031a70.32,70.32,0,0,0,17.594-.281c1.375-.161,3.214-.908,3.724,1.437l-1.51,7.8" transform="translate(-390.471 -3586.524)" fill="#f4a52c"/>
            <path id="Trazado_1043637" data-name="Trazado 1043637" d="M3636.576,4087.62a140.572,140.572,0,0,1,15.351,2.341c1.069.234,2.1.633,3.152.956a124.052,124.052,0,0,1-17.8,5.214l-1.327.322c.583-2.918.409-5.889.625-8.833" transform="translate(-3392.6 -3814.04)" fill="#61b1f3"/>
            <path id="Trazado_1043638" data-name="Trazado 1043638" d="M1475.73,922.683l1.155.405c1.074.308,1.5,1.232,1.886,2.118,3.341,7.62,5.671,15.5,5.969,23.88a2.952,2.952,0,0,1-.211,1.721c-1.793.75-2.3-.658-2.983-1.775-2.051-6.805-4.066-13.624-6.358-20.356a7.21,7.21,0,0,1-.594-3.047c-.084-1.161.772-1.959,1.135-2.947" transform="translate(-1375.884 -860.929)" fill="#385fb2"/>
            <path id="Trazado_1043639" data-name="Trazado 1043639" d="M4085.88,3909.617c3.657-3.148,5.266-7.481,6.851-11.831a27.172,27.172,0,0,1,7.433,2.3c2.364,1.207,2.394,2.457.032,3.891a49.978,49.978,0,0,1-9.455,4.2,23.963,23.963,0,0,1-4.86,1.444" transform="translate(-3812.416 -3636.912)" fill="#62b1f3"/>
            <path id="Trazado_1043641" data-name="Trazado 1043641" d="M1469.014,966.712c1.606,3,2.422,6.3,3.466,9.5,1.511,4.635,2.832,9.332,4.234,14-1.921.138-2.609-.525-2.663-2.566a18.653,18.653,0,0,0-1.764-3.9,85.714,85.714,0,0,1-3.537-14.2,3.685,3.685,0,0,1,.264-2.84" transform="translate(-1370.303 -902.011)" fill="#f4d23f"/>
            <path id="Trazado_1043642" data-name="Trazado 1043642" d="M1302.438,1579.418a39.648,39.648,0,0,0-4.369,5.951,2.892,2.892,0,0,1-1.476,2.223c-2.181.22-2.769,2.225-3.769,3.606a32.015,32.015,0,0,0-5.311,11.849,2.634,2.634,0,0,1-.947,1.87c-3.243,1.577-3.895,1.428-5.971-1.542-2.388-3.415-4.473-7.063-7.514-9.623a38.74,38.74,0,0,1,3.744,17.106,11.092,11.092,0,0,1-.468,3.276,37.452,37.452,0,0,1-13,23.929,5.722,5.722,0,0,1-2.556,1.375c-3.95-1.238-7.756-2.67-9.268-7.1a102.592,102.592,0,0,1,.049-12.324,6.347,6.347,0,0,0-.091-1.753,7.369,7.369,0,0,1-.045-1.708c.377-2.48.126-4.78-1.887-6.579a5.816,5.816,0,0,0-4.145-1.414c-10.557,0-21.108.405-31.665.517-3.668.039-7.43-.186-11.095.6a3.2,3.2,0,0,0-1.435.539,14.668,14.668,0,0,0-3.148,3.816,6.315,6.315,0,0,0-.565,3.227c0,4.814.021,9.629-.007,14.443-.014,2.426-.71,2.939-3.131,2.616-3.3-.44-6.614-.875-9.617,1.163a6.73,6.73,0,0,0-2.544,2.238c-.49.7-.993,1.34-1.986,1.176a34.909,34.909,0,0,1-11.144-9.99c-5.316-7.688-8.219-16.53-11.053-24.119.6,2.683,2.474,6.176,3.313,10.014a72.926,72.926,0,0,1,1.452,11.24,92.566,92.566,0,0,0,2.117,16.869,26.41,26.41,0,0,0,3.779,8.549c.428.631,1.148,1.288.747,2.1-.436.88-1.46.847-2.275.765-3.038-.305-6.119.33-9.136-.426a4.266,4.266,0,0,1-.913-.99c-1.034-2.394-.818-4.97-1.092-7.476-.366-3.357-.943-6.686-1.365-10.036a4.44,4.44,0,0,0-.193-2.584c.024-2.083-.931-4.036-.821-6.13a7.6,7.6,0,0,0,.333-3.668c-.536-6.363-.762-12.766-2.1-19.036a96.5,96.5,0,0,0-10.665-28.476c-.237-.41-.425-.817-.99-.776-.594-.3-1.319-.323-1.834-.817.079-1.157,1.043-1.6,1.8-2.175,5.6-4.231,11.461-8.006,18.129-10.36,1.411-.5,1.653-1.232,1.165-2.67-1.22-3.594-.294-6.637,2.453-8.783a3.037,3.037,0,0,1,3.052-.839c.161.482.149.956.727,1.331a32.7,32.7,0,0,1,5.592,4.515,15.263,15.263,0,0,1-3.736-4.208,5.735,5.735,0,0,0-2.475-2.374c-1.141-2.079-.776-4.183-.008-6.24,1.351-3.622,4.087-5.986,7.36-7.813,4.464-2.491,9.385-3.124,14.365-3.319,2.327-.091,4.7-.372,7.008.328a4.87,4.87,0,0,1,1.987,5.136,1.586,1.586,0,0,1-.37.558c-1.113.751-2.386.53-3.61.552-3.774.068-7.586-.323-11.261.908-2.115.708-4.259,1.412-5.122,3.812-.61,1.778.033,3.391.668,5,.4,1.015,1.149,1.851,1.51,2.889a5.651,5.651,0,0,0,2.374,4.1c6.756,5.458,13.271,11.223,20.5,16.086,1.069.72,2.264,1.474,1.8,3.127a8.118,8.118,0,0,1-.97,1.418,3.032,3.032,0,0,0,.341,3.882c.523.626,1.3,1.078,1.416,2a1.2,1.2,0,0,1-1.627,1.205c-2.212-.7-4.539-.36-6.763-.959a24.178,24.178,0,0,1-6.384-2.876,4.7,4.7,0,0,0-2.714-.971,52.81,52.81,0,0,1-12.229-7.264c3.447,2.637,6.214,5.416,9.307,7.823a46,46,0,0,0,21.022,8.9,4.286,4.286,0,0,1,2.045.575,7.66,7.66,0,0,1,1.165,5.41,15.275,15.275,0,0,1-4.675,10.26,3.047,3.047,0,0,0-1.14,1.717,15.8,15.8,0,0,0,6.511-12.372c.078-1.4-.329-2.888.6-4.178a3.244,3.244,0,0,1,2.608-.534,87.342,87.342,0,0,0,11.126.648c.828-.022,1.728-.159,2.351.633.7,1.488.343,3.077.392,4.623a17,17,0,0,0,3.839,10.645,6.6,6.6,0,0,0,.934,1,.6.6,0,0,0,.649.08c.191-.73-.473-1.074-.835-1.526a17.066,17.066,0,0,1-3.607-13.934,2.863,2.863,0,0,1,.846-1.921c6.526.275,12.1-2.519,17.651-5.439a63.112,63.112,0,0,0,16.222-12.108,21.58,21.58,0,0,0,3.936-5.206,18.211,18.211,0,0,0-4.908,1.932c-3.6,1.992-7.032,4.238-10.437,6.533a6.975,6.975,0,0,1-2.588,1.335c-1.313,0-2.309.816-3.343,1.419a49.106,49.106,0,0,1-8.181,3.453,2.235,2.235,0,0,1-2.927-.752,2.739,2.739,0,0,1-.344-1.094c-.154-1.408-.768-2.358-2.341-2.14a2.319,2.319,0,0,0-2.152,2.693,6.576,6.576,0,0,1-.006,1.348,3.168,3.168,0,0,1-2.615,3.178,5.494,5.494,0,0,0-1.429.609c-4.726,2.861-9.531,2.279-14.389.4a7.53,7.53,0,0,1-2.308-1.4,2.352,2.352,0,0,1-.558-2.826,24.363,24.363,0,0,0,.894-3.342,2.345,2.345,0,0,1,2.13-1.623c2.228.5,3.843,2.081,5.666,3.279,2.162,1.419,2.425,1.483,4.461-.008,2.143-1.57,4.207-3.24,6.212-4.982a8.755,8.755,0,0,1,.866-.684,9.68,9.68,0,0,1,2.932-2.049c1.919-.638,3.271-2.122,4.76-3.344,3.97-3.258,8.558-5.662,12.466-8.949,2.594-2.182,5.62-4.049,7.218-7.266.566-.876,1.269-1.647,1.869-2.5,2.9-4.1,1.513-8.587-3.224-10.321-2.793-1.023-5.758-.851-8.655-1.125-1.224-.116-2.468.009-3.7-.044a2.732,2.732,0,0,1-2.306-.807c-.6-1.13-.166-2.313-.187-3.474a1.147,1.147,0,0,1,.6-.864c8.291-.551,16.408-.236,23.541,4.832a5.968,5.968,0,0,1,2.23,2.4c2.5,4.858,2.032,9.426-1.451,13.62a71.085,71.085,0,0,1-16.145,14.071c-2.159,1.405-4.309,2.824-6.485,4.2,5.8-3.621,11.4-7.531,16.961-11.507a80.414,80.414,0,0,0,7.791-6.519c.694-.643,1.3-1.536,2.473-1.261,4.112-.137,6.643,2.967,5.674,7.033-.276,1.156-.385,1.967,1.123,2.306,8.088,1.821,14.837,6.239,21.343,11.12a43.792,43.792,0,0,1,7.6,7.557" transform="translate(-1062.191 -1428.375)" fill="#fec53d"/>
            <path id="Trazado_1043643" data-name="Trazado 1043643" d="M1877.938,636.747a53.988,53.988,0,0,1-4.077,14.637c-3.931,6.436-9.4,10.923-16.759,12.818-9.958,2.565-19.958-2.105-25.418-10.126a6.942,6.942,0,0,0-2.364-2.887c-2.757-3.516-3.98-7.657-4.821-11.943-.124-.631-.227-1.268-.385-1.894-.161-1.338-.65-2.613-.761-3.961-.132-2.224-.843-4.344-1.177-6.532.3-2.654-.645-5.146-1.057-7.7-.8-4.975-1.482-9.942-.642-14.982a9.732,9.732,0,0,1,.28-1.34c.579-1.836,1.527-2.3,3.25-1.464a31.2,31.2,0,0,0,3.941,1.727,8.074,8.074,0,0,0,9.261-2.816,22.952,22.952,0,0,0,3.189-6.033c.922-2.33,1.573-2.727,4.041-2.154a12.9,12.9,0,0,0,12.162-3.12c.622-.554,1.274-1.38,2.179-1.032,1.052.4,1.093,1.533,1.167,2.51a6.7,6.7,0,0,1-1.01,4.114,9.732,9.732,0,0,1-4.389,3.765c-.724.332-1.968.242-2.007,1.255-.044,1.129,1,1.76,1.921,2.274a7.868,7.868,0,0,0,6.087.416,16.162,16.162,0,0,0,9.872-6.9,10.666,10.666,0,0,1,1.759-2.34c.774-.683,1.4-.619,1.751.442a1.282,1.282,0,0,1,.1.378c.031,3.877,2.052,6.291,5.536,7.726a2.969,2.969,0,0,1,1.573,2.549c.6,3.587.065,7.152-.263,10.7-.119,1.29-.111,2.6-.328,3.885-.394,3.454-.926,6.892-1.011,10.375-.478,2.56-.106,5.3-1.6,7.649" transform="translate(-1698.275 -548.516)" fill="#febd84"/>
            <path id="Trazado_1043644" data-name="Trazado 1043644" d="M1651.676,338.245a39.8,39.8,0,0,1,.96-7.616c1.061-8.137,3.235-16.07,4.4-24.188-.635,4.3-1.482,8.567-2.414,12.814-.1.458.122,1.335-.9,1.016-.025-.008-.035-.1-.03-.155a.971.971,0,0,1,.056-.187c.31-4.815.988-9.616.439-14.461-.094-.826-.132-1.538-1.093-1.821-4.358-1.284-6.063-4.413-6.034-8.736a5.412,5.412,0,0,0-.166-.8c-.9,1.359-1.612,2.558-2.441,3.671a16.852,16.852,0,0,1-12.332,7.113,6.779,6.779,0,0,1-6.828-3.3c-.664-1.048-.775-1.673.8-1.876a8.032,8.032,0,0,0,5.2-2.863,7.06,7.06,0,0,0,1.223-7.291c-.917.8-1.7,1.557-2.569,2.212a13.286,13.286,0,0,1-12.742,2.286c-1.257-.41-1.72-.19-2.081,1.039a20.456,20.456,0,0,1-3.216,6.664c-3,3.964-6.57,5.027-11.2,3.293a22.488,22.488,0,0,1-2.825-1.341c-2.34-1.273-2.429-1.258-2.889,1.495-.964,5.771-.1,11.448.907,17.12a22.792,22.792,0,0,1,.616,5.818c-1.295.089-1.347-1.048-1.64-1.8-2.091-5.38-3.576-10.955-5.156-16.5a16.124,16.124,0,0,1-.565-2.069c2.157,9.28,5.747,18.105,8.567,27.175a10.866,10.866,0,0,1,.678,3.874,5.554,5.554,0,0,1-2.479,4.127,1.636,1.636,0,0,1-1.97.2,4.516,4.516,0,0,1-1.089-2.248c-3.456-10.912-6.606-21.913-9.6-32.96-.371-1.369-.622-2.812-1.881-3.739.626-3.112-.557-5.484-2.83-7.583-1.374-1.269-1.2-3.053.183-5.154a4.542,4.542,0,0,1,3.2-2.293,7.216,7.216,0,0,1,2.413,1.218c1.683.927,1.932.877,2.714-.971a28.537,28.537,0,0,1,9.385-11.972,40.971,40.971,0,0,1,20.385-8.893,47.554,47.554,0,0,1,24.657,2.478,38.779,38.779,0,0,1,10.457,6.43,52.792,52.792,0,0,1,7.221,8.916c.66.959,1.124,1.8,2.251.462a1.416,1.416,0,0,1,2.1-.186,3.941,3.941,0,0,1,.786,2.743c.042,1.233-.032,2.47.043,3.7.168,2.737,1.087,5.057,3.628,6.487.73.411,1.6.886,1.235,1.931s-1.356,1.085-2.285,1.1a4.273,4.273,0,0,1-2.235-.6c-1.224-.718-1.632-.094-1.766,1.03q-3.132,16.7-5.868,33.471c-.15.907-.046,1.826-.182,2.727-.172,1.14-.1,2.37-1.081,3.245-1.96-.845-3.01-2.573-4.115-4.246" transform="translate(-1472.012 -250.013)" fill="#201f51"/>
            <path id="Trazado_1043645" data-name="Trazado 1043645" d="M2775.4,793.154c1.238,0,2.135.9,3.25,1.227a1.753,1.753,0,0,1,.809,2.1q-2.513,13.233-4.908,26.487a52.694,52.694,0,0,0-.781,5.4,3.035,3.035,0,0,1-2.6,3.11,15.739,15.739,0,0,0-2,.726c-1-1.11-.783-2.448-.592-3.718,1.681-11.184,3.645-22.317,6.019-33.377a4.036,4.036,0,0,1,.8-1.957" transform="translate(-2583.131 -740.069)" fill="#3659ac"/>
            <path id="Trazado_1043646" data-name="Trazado 1043646" d="M4196.527,2744.131c1.745-1.9.411-3.568.441-5.143.024-1.195-.854-2.811.167-3.482,1.128-.74,2.712-.1,4.03.545,4.547,2.225,4.695,2.965,1.191,6.47a13.221,13.221,0,0,1-5.192,3.607c-1.295.428-2.366,1.565-3.507,2.423a2.194,2.194,0,0,1-2.862.026c-1.823-1.244-3.186-2.852-2.984-5.1a8.133,8.133,0,0,1,4.378-6.747,1.326,1.326,0,0,1,.182-.072c2.58-.931,3.295-1.9,3.245,2.1a31.142,31.142,0,0,0,.911,5.373" transform="translate(-3907.508 -2552.112)" fill="#93cdf8"/>
            <path id="Trazado_1043647" data-name="Trazado 1043647" d="M1993.037,1539.341c1.6,1.611,3.113,3.335,4.831,4.815,9.135,7.871,22.091,7.514,31.1-.863,2.14-1.989,4.081-4.191,6.114-6.3a.338.338,0,0,0,0,.324q-.086.414-.173.829c-2.154,8.543-11.789,16.289-20.572,16.428-1.782.028-3.656.7-5.365-.409-5.736-1.433-9.865-5.081-13.309-9.669-.741-.987-1.424-2.017-2.147-3.017a2.02,2.02,0,0,1-.487-2.142" transform="translate(-1859.499 -1434.127)" fill="#1a1749"/>
            <path id="Trazado_1043648" data-name="Trazado 1043648" d="M2754.369,787.457a4.344,4.344,0,0,1-.119,2.484c-2.215,10.645-4.213,21.329-5.775,32.09-.215,1.477-.226,2.983-.332,4.476-.709.419-1.4.947-2.263.343.706-10.513,3.147-20.756,4.824-31.118.4-2.447.839-4.887,1.277-7.328.088-.488-.013-1.081.588-1.356l1.8.409" transform="translate(-2562.101 -734.372)" fill="#f9d444"/>
            <path id="Trazado_1043649" data-name="Trazado 1043649" d="M2927.652,885.724q.07.225.138.451c-.1,1.529,1.521,2.59,1.143,4.2-.41,3.175-1.615,6.152-2.314,9.258-.788,3.5-1.735,6.958-2.334,10.5a3.486,3.486,0,0,1-.827,1.941,5.5,5.5,0,0,1-1.888,1.206c-.951-.675-.805-1.7-.845-2.663-.222-5.31.922-10.462,1.863-15.634a43.974,43.974,0,0,1,1.791-7.36c.36-.978.674-2.234,2.231-1.924a.9.9,0,0,0,1.043.035" transform="translate(-2725.217 -826.366)" fill="#395cad"/>
            <path id="Trazado_1043650" data-name="Trazado 1043650" d="M2649.525,1662.416c-3.613,3.077-7.039,6.361-10.932,9.121-5.641,4-11.523,7.612-17.417,11.211-.2.122-.432.334-.777.008a11.687,11.687,0,0,1,3.229-2.345,113.853,113.853,0,0,0,18.737-14.969c4.121-4.15,6.074-8.69,4.141-14.468a5.337,5.337,0,0,1-.125-1.164,11.479,11.479,0,0,1,3.319,9.917,6.307,6.307,0,0,0-.176,2.69" transform="translate(-2445.018 -1539.39)" fill="#eea12e"/>
            <path id="Trazado_1043651" data-name="Trazado 1043651" d="M3168.505,1481.163c-3.325-.009-4.1-.5-4.631-2.652-.394-1.612,1.1-4.615,2.592-5.485.659-.385.941.218,1.419.269a5.4,5.4,0,0,1,3.991,2.814c1.647,2.611.95,4.212-2.028,4.87a12.307,12.307,0,0,1-1.343.184" transform="translate(-2952.059 -1374.319)" fill="#92cefa"/>
            <path id="Trazado_1043652" data-name="Trazado 1043652" d="M2890.3,835.757c-1.144.437-1.325,1.539-1.636,2.5a68.731,68.731,0,0,0-3.4,25.086l-3.478,2.438c1-5.184,1.971-9.944,2.842-14.721,1.119-6.143,2.256-12.282,3.657-18.369l.373-.559c-.213,1.554.63,2.631,1.645,3.63" transform="translate(-2688.909 -776.434)" fill="#222b70"/>
            <path id="Trazado_1043653" data-name="Trazado 1043653" d="M3809.527,2407.809a2.086,2.086,0,0,1-2.39-1.262,4.018,4.018,0,0,1,.582-4.213c1.829-2.272,6.358-1.768,7.761.779a1.376,1.376,0,0,1-.214,1.782,8.569,8.569,0,0,1-5.74,2.914" transform="translate(-3552.008 -2240.197)" fill="#95d0fb"/>
            <path id="Trazado_1043654" data-name="Trazado 1043654" d="M2961.344,977.992c-.26-2.651.707-5.109,1.26-7.62a112.65,112.65,0,0,1,3.151-12.022,4.994,4.994,0,0,1,1.064-2.053c.7,1.665.174,3.351.029,5.014a49.539,49.539,0,0,1-3.414,14.578c-.414,1.011-.917,1.873-2.089,2.1" transform="translate(-2763.104 -892.293)" fill="#f1d043"/>
            <path id="Trazado_1043655" data-name="Trazado 1043655" d="M3010.485,1322.057c1.74-1.742,1.524-3.9,1.438-6.013-.038-.936.645-1.177,1.315-1.457,2.462-1.029,4.937-2.029,7.376-3.112,1.155-.513,1.592-.221,1.46,1-.179,1.659-.376,3.315-.578,5.086-.749-.265-.778-.794-.9-1.256-.662-2.52-.661-2.521-3-1.668-.611.223-1.207.5-1.83.679-1.636.478-2.566,1.376-2.269,3.242.338,2.121-1.55,2.6-3.009,3.5" transform="translate(-2808.997 -1223.475)" fill="#cff2fa"/>
            <path id="Trazado_1043656" data-name="Trazado 1043656" d="M4201.888,2252.2c-1.481.067-2.059-.77-1.988-1.694a2.327,2.327,0,0,1,2.445-2.092c1.133-.008,2.44.845,2.334,1.939-.146,1.529-1.9,1.451-2.791,1.846" transform="translate(-3918.799 -2097.93)" fill="#98d0fa"/>
            <path id="Trazado_1043657" data-name="Trazado 1043657" d="M1704.349,3643.478c-6.024-4.662-12-9.388-18.47-13.437-2.151-1.656-2.108-2.178.461-3.2a42.5,42.5,0,0,0,7.513-3.752c3.4-2.214,7.383-1.858,11.169-2.318a2.476,2.476,0,0,1,2,1.081,7.264,7.264,0,0,0,3.7,3.256c3.624,1.012,7.149,2.369,10.891,2.936a40.883,40.883,0,0,0,19.206-1.928c1.378-.457,2.788-.552,4.151-.947.778-.115,1.68-.32,2.112.51.413.794-.187,1.513-.682,2.1a34.748,34.748,0,0,1-9.3,8c-6.2,3.537-12.614,6.577-19.891,7.187a8.419,8.419,0,0,1-2.337,0c-2.755-.538-5.567-.685-8.324-1.152-1.573-.267-2.265.049-2.2,1.665" transform="translate(-1571.603 -3378.422)" fill="#f3a630"/>
            <path id="Trazado_1043658" data-name="Trazado 1043658" d="M1966.5,3649.9a1.032,1.032,0,0,1-.05-.188c-.065-.844-1.677-1.2-.992-2.042.615-.757,1.832-.346,2.79-.214,3.335.463,6.668,1.319,10,1.313a28.91,28.91,0,0,0,10.97-2.441c4.865-2.027,9.683-4.2,13.766-7.635A30.241,30.241,0,0,0,2009,3632.4c-.608-.574-1.207-.262-1.754-.311-1.769.2-3.537.353-5.294.687a3.8,3.8,0,0,1-3.136-.492c-.541-1.013.369-1.044.9-1.243a5.991,5.991,0,0,1,2.122-.178c3.5-.007,7.008-.074,10.508.019a9.417,9.417,0,0,0,7.56-2.856,2.725,2.725,0,0,1,2.06-.332,25.94,25.94,0,0,1,7.426,2.3,2.094,2.094,0,0,1,1.46,1.683,89.189,89.189,0,0,0-17.76,8.1c-.67.395-1.311.839-1.966,1.259a133.8,133.8,0,0,0-14.591,9.5c-2.707,1.932-5.264,4.073-8.132,5.778a33.8,33.8,0,0,1-13.953-.389q-3.217-2.462-6.435-4.921c-.5-.379-1.012-.734-1.518-1.1" transform="translate(-1833.752 -3384.84)" fill="#ed992f"/>
            <path id="Trazado_1043659" data-name="Trazado 1043659" d="M1383.059,2660.918h11.2c-5.624-6.963-6.461-15.056-6.918-23.195a91.2,91.2,0,0,0-4.3-24.3,12.619,12.619,0,0,1-.616-3.013c1.657,4.713,4.331,8.957,6.013,13.649,3.048,8.5,8,15.6,15.58,20.7a3.884,3.884,0,0,1,1.392,1.334.867.867,0,0,1,.031,1.075c-.969,1.431-1.936,2.862-2.849,4.331a1.174,1.174,0,0,1-1.144.571c-1.163-.607-1.671-1.8-2.394-2.779a79.922,79.922,0,0,1-6.1-9.318,6.529,6.529,0,0,0-1.643-1.915,30.03,30.03,0,0,0,3.865,12.3c1.2,2.089,2.652,4.024,3.752,6.174-.181,2.3-2.016,3.507-3.4,4.958-.97,1.016-2.089,1.913-3.11,2.9a2.452,2.452,0,0,1-1.582.7,1.341,1.341,0,0,1-.953-.624c-.335-.525.022-1.456-.758-1.658-.724-.188-1.125.535-1.55.99-2.844,3.043-5.123,6.345-5.135,10.767,0,1.052-.039,2.271-1.385,2.726l-1.641-.568c.841-1.919.3-4.032.841-5.993-.576-2.062.641-3.634,1.482-5.291a18.866,18.866,0,0,1,2.584-3.117c-.172-.739-1.561-.29-1.257-1.4" transform="translate(-1287.087 -2435.695)" fill="#f3a42f"/>
            <path id="Trazado_1043660" data-name="Trazado 1043660" d="M1528.543,3413.241l1.179-.751a1.689,1.689,0,0,1,.448,1.616c-.325,3.882.769,7.495,2.195,11.015,1.5,3.695,3.455,4.566,7.274,3.389a34.767,34.767,0,0,0,5.795-2.814c1.777-.935,3.42-1.482,5.541-.551,1.777.78,3.838-.187,5.782-.237.646-.017,1.29-.188,1.944-.161,1.435.061,2.231.66,1.857,2.232a1.341,1.341,0,0,1-.608,1.093c-1.584-2.14-3.634-.55-5.427-.568a15.978,15.978,0,0,0-9.576,3.349,24.774,24.774,0,0,1-4.987,2.2c-2.268.944-2.272.936-.882,2.665l-8.577-4.863c-3.425-4.881-3.76-10.419-3.371-16.093.053-.77.324-1.591,1.414-1.517" transform="translate(-1424.801 -3184.095)" fill="#f69b6c"/>
            <path id="Trazado_1043661" data-name="Trazado 1043661" d="M1403.922,3392.2c1.232-1.859.561-4.066,1.116-6.07,1.035-3.737,3.544-6.434,6.056-9.151a1.116,1.116,0,0,1,1.6-.082,1.817,1.817,0,0,1,.225,2.48,5.761,5.761,0,0,1-.733,2,15.887,15.887,0,0,0-.273,11.247c.313.942.906,1.93.233,2.978l-8.222-3.4" transform="translate(-1309.959 -3150.611)" fill="#fdc33d"/>
            <path id="Trazado_1043662" data-name="Trazado 1043662" d="M1500.009,3434.337c-1.215-3.639-2.527-7.245-1.615-11.214a9.419,9.419,0,0,1,2.389-5.007l.783.375c-.834.462-.754,1.265-.786,2.043-.211,5.167.319,10.187,2.833,14.837.095.176-.054.484-.089.73l-3.514-1.764" transform="translate(-1397.824 -3189.345)" fill="#ea744b"/>
            <path id="Trazado_1043663" data-name="Trazado 1043663" d="M2102.214,4045.282c1.262-.835,2.506.074,3.763.05,2.642-.051,5.285-.012,7.928-.014a4.311,4.311,0,0,1,2.262.354c-1.982,2.018-4.457,3.411-6.617,5.2a77.547,77.547,0,0,1-7.336-5.593" transform="translate(-1961.515 -3774.206)" fill="#e17f25"/>
            <path id="Trazado_1043664" data-name="Trazado 1043664" d="M2519.221,3098.488c-3.215-2.162-6.871-2.99-10.627-3.518a2.252,2.252,0,0,1-2.244.083,63.386,63.386,0,0,1-10.824-4.523,6.29,6.29,0,0,1-3.294-3.457c-.354-1.091-.568-2.2.757-2.875a50.234,50.234,0,0,0,9.368,2.506,66.665,66.665,0,0,0,14.391.339,4.759,4.759,0,0,0,3.136-1.3.609.609,0,0,0-.765-.216c-3.074,2.321-6.671,1.8-10.112,1.716a51.007,51.007,0,0,1-11.4-1.466c-1.641-.418-3.046-1.49-4.781-1.6-1.857-.136-2.895-1.387-3.664-2.854a3.156,3.156,0,0,1,.222-3.673c.95-1.153,2.175-.95,3.4-.544a10.54,10.54,0,0,0,5.634,1.3,57.631,57.631,0,0,0,17.565-2.12,10.332,10.332,0,0,0,4.583-2.443c-2.476.851-4.578,1.692-6.731,2.376-6.087,1.935-12.269,2.864-18.655,1.744a12.031,12.031,0,0,1-2.551-.906c-1.719-.4-2.285-1.628-2.172-3.221a3.978,3.978,0,0,1,3.482-3.464c2.265-.23,4.544-.365,6.818-.5a52.818,52.818,0,0,0,8.469-1.4,2.353,2.353,0,0,0,2.136-2.718c-.075-2.345-.04-4.7-.006-7.043.014-.9-.057-1.853.779-2.51a4.323,4.323,0,0,0,2.8,2.906c2.047.9,3.477,2.938,5.873,3.22a3.364,3.364,0,0,1,2.619,1.051,27.875,27.875,0,0,1,6.655,7.293,21.1,21.1,0,0,0,7.255,6.848c3.557,3.888,4.3,8.512,3.392,13.5-.3,1.65-1.177,3.252.381,4.714-7.478-.51-14.709.943-21.9,2.751" transform="translate(-2322.121 -2851.66)" fill="#fdbe87"/>
            <path id="Trazado_1043665" data-name="Trazado 1043665" d="M2984.757,2809.92c-4.267-1.513-6.256-5.336-8.741-8.646a27.318,27.318,0,0,0-7.285-6.742c8.6-6.174,13.191-14.733,14.865-25.022,1.264-.793,1.952.061,2.527.964a8.819,8.819,0,0,1,.976,3.352c1.048,6.01.77,12.075.794,18.129,0,1.042-.064,2.09.042,3.126.119,1.178.365,2.33,1.6,2.916.925,1.114.726,2.439.56,3.691-.238,1.784-.256,3.589-.573,5.365a2.195,2.195,0,0,0,.549,2.313,13.41,13.41,0,0,0,1.1,1.145c4.314,4.726,4.272,10.512,3.935,16.35a1.957,1.957,0,0,1-1.408,1.923,2.6,2.6,0,0,1-1.5-.4c-.55-.6-.4-1.343-.385-2.053a45.7,45.7,0,0,0-.037-6.46c-.548-4.528-2.329-8.294-7.021-9.949" transform="translate(-2770.037 -2583.856)" fill="#ec962f"/>
            <path id="Trazado_1043666" data-name="Trazado 1043666" d="M3285.448,3369.539l-.761-.612c1.431-1.357,2.857-.739,4.282.012l2.341.977c3.274,2.582,4.291,6.238,4.819,10.126a1.951,1.951,0,0,1-.453,1.642c.184,2.882-.355,5.73-.4,8.6l-3.548-1.635c-.3-4.752-.713-9.486-2.58-13.947a10.882,10.882,0,0,0-3.7-5.165" transform="translate(-3064.846 -3142.7)" fill="#fde366"/>
            <path id="Trazado_1043667" data-name="Trazado 1043667" d="M3208.177,3376.767c2.906-.441,4.407,1.443,5.684,3.547,2.844,4.69,2.439,9.793,1.759,14.916a10.159,10.159,0,0,1-3.167-.45,1.257,1.257,0,0,0-1.06-.39c-1.082-.019-1.338-.437-.926-1.486a15.47,15.47,0,0,0-2.291-16.137" transform="translate(-2993.457 -3150.703)" fill="#fec33f"/>
            <path id="Trazado_1043668" data-name="Trazado 1043668" d="M3296.056,3389.241c3.044,1.345,4.015,4.257,5.1,6.987,1.353,3.4,1.332,7.1,1.93,10.66a1.5,1.5,0,0,1-.755,1.464l-3.215-1.023c1.053-1.7.947-3.611.841-5.474-.257-4.517-.406-9.091-3.9-12.615" transform="translate(-3075.455 -3162.402)" fill="#f8be3c"/>
            <path id="Trazado_1043669" data-name="Trazado 1043669" d="M159.114,883.309c2.244-.581,2.884-2.705,4.107-4.268.425,1.7.863,3.4,1.274,5.1a24.876,24.876,0,0,0,4.011,8.616.571.571,0,0,1-.1.761c-6.183-.035-12.381-.171-18.305,2.055a16.917,16.917,0,0,0-9.026,7.087,9.062,9.062,0,0,0-.82,7.7c.153.457-.071.719-.464.893-4.417.493-6.864,5.114-4.982,9.409.982,2.242.984,2.247-1.351,3.092a68.239,68.239,0,0,0-20.332,12.109,2.968,2.968,0,0,1-2.333,1.976c-2.528,1.939-4.2,4.615-6,7.146-7.564,10.583-13.99,21.872-20.454,33.137-4.087,7.122-8.259,14.195-12.394,21.29-2.474-.788-4.353-2.544-6.359-4.046a96.955,96.955,0,0,1-12.426-10.7c-5.08-5.358-9.833-10.977-12.717-17.9a8.514,8.514,0,0,1-.726-4.733c.329-2.062-.168-4.154-.22-6.223a52.358,52.358,0,0,1,3.256-20.313,85.634,85.634,0,0,1,39.29-43.187,147.566,147.566,0,0,1,24.731-9.744,134.709,134.709,0,0,1,19.306-4.887c4.817-.722,9.6-1.739,14.5-1.819.77.977,1.139,2.37,2.662,2.565a4.658,4.658,0,0,0,1.98,1.839c.858-.3,1.608.254,2.607.476-3.275-8.158-4.239-16.766-7.385-24.743a12.152,12.152,0,0,1-.992-5.661c-.052-.64-.582-1.194-.342-1.887a1.892,1.892,0,0,1,2.475-1.452c1.288.85,1.416,2.29,1.744,3.59,2.169,8.6,4.445,17.168,6.93,25.682.055.188.093.38.147.568,1.449,5.026,1.45,5.026,6.626,6.146a5.7,5.7,0,0,1,2.078.318" transform="translate(-36.836 -790.228)" fill="#63b2f2"/>
            <path id="Trazado_1043670" data-name="Trazado 1043670" d="M910.217,2793.091c.6.669.276,1.5.405,2.258a2.972,2.972,0,0,0-1.486,2.145c-1.454,5.251-3.559,10.309-4.657,15.668a3.68,3.68,0,0,1-.751,1.569c-1.249.954-2.657.706-4.053.548a11.563,11.563,0,0,1-4.027-2.311c-4.406-3.36-8.373-7.239-12.665-10.733a20.5,20.5,0,0,1-3.375-4.032l-3.547-3.913c.529-1.4,1.065-.278,1.444.06,2.324,2.079,4.367,4.5,7.022,6.173,3.386,2.13,6.127,5.044,9.333,7.383a3.608,3.608,0,0,0,5.545-1.884c.91-2.852,1.058-5.844,1.537-8.21-.151,1.133-1.273,1.738-2.794,1.778a8.44,8.44,0,0,1-5.4-2c-4.193-3.2-7.289-7.386-10.353-11.6a8.11,8.11,0,0,0-1.219-1.515c-1.629-1.866-2.51-4.165-3.658-6.338,4.067,4,7.267,8.81,11.9,12.228,2.767.352,4.2-1.711,5.8-3.336.674-.684.046-1.617-.319-2.368-1.227-2.523-2.3-5.117-3.475-7.664-.352-.761-.794-1.637-.022-2.354.674-.627,1.491-.212,2.219.045,1.785.63,3.5,1.447,5.245,2.167,1.842.759,3.531.845,5.038-.711a1.66,1.66,0,0,1,1.767-.565c.984.566,1.062,1.57,1.221,2.534.771,4.684,1.958,9.286,2.807,13.955a1.45,1.45,0,0,0,.516,1.022" transform="translate(-817.426 -2588.634)" fill="#e9902b"/>
            <path id="Trazado_1043671" data-name="Trazado 1043671" d="M559.485,3131.2c3.976,3.515,7.922,7.065,11.939,10.534a47.911,47.911,0,0,0,7.683,5.879,3.717,3.717,0,0,1-4.7.073,95.232,95.232,0,0,0-31.881,4.619c-2.453.827-5.033,1.281-7.559,1.891-.637.154-1.359.314-1.808-.307-.484-.668.113-1.248.414-1.777a23.267,23.267,0,0,1,10.249-9.27A84.139,84.139,0,0,1,560,3137.154c1.4-.378,1.616-1.009,1.2-2.253-.438-1.3-1.509-2.3-1.716-3.7" transform="translate(-497.303 -2921.631)" fill="#f3a52f"/>
            <path id="Trazado_1043672" data-name="Trazado 1043672" d="M1017.523,2216.458c-.128.026-.317.007-.374.085-2.548,3.47-5.519,2.106-8.5.766-1.249-.561-2.508-1.1-3.787-1.59-.38-.145-.88-.545-1.252-.064-.332.428.047.867.233,1.267,1.316,2.832,2.579,5.69,3.991,8.473.732,1.444.686,2.5-.624,3.576a32.675,32.675,0,0,0-3.212,2.5,1.667,1.667,0,0,1-2.549-.491c.583-.626.3-1.312.2-2.025-.775-5.806-3.159-11.1-5.133-16.537-1.012-2.784-.063-4.051,2.791-4.635,3.921-.8,7.444.722,11.047,1.633,2.406.608,2.717.524,2.876-2.073.37-6.027-1.178-11.742-2.7-17.467-.282-1.066-.761-2.086-.985-3.162-.6-2.9-2.391-4.982-4.517-6.869a3.727,3.727,0,0,1-1.616-2.985,4.763,4.763,0,0,1,2.333-1.976c.594-.133,1.161-.172,1.563.416.679.109.934.65,1.191,1.181a87.331,87.331,0,0,1,6.958,18.444,6.3,6.3,0,0,1,.207,1.744c-.289,1.789.291,3.5.661,5.178.921,4.182.906,8.481,1.766,12.663a1.8,1.8,0,0,1-.57,1.947" transform="translate(-929.453 -2029.246)" fill="#f3a62f"/>
            <path id="Trazado_1043673" data-name="Trazado 1043673" d="M619.411,3355.7l4.7-.072c1.462-.07,2.952.284,4.382-.285.605-.736,1.422-.453,2.188-.476,2.387-.073,4.841.49,7.11-.731l.489.734c.769.834,1.9.038,2.993.793a15.907,15.907,0,0,0-5.8,9.017c-2.914-1.824-1.1-4.091-.494-6.474-2.842.783-5.517,1.64-8.247,2.252-11.858,2.662-23.736,5.246-35.725,7.24a20.386,20.386,0,0,1-8.357-.244c-.559-.143-1.317-.139-1.428-.806-.123-.74.591-1.165,1.145-1.422,1.89-.874,3.8-1.726,5.748-2.449a111.841,111.841,0,0,1,22.712-5.546,72.309,72.309,0,0,0,8.584-1.533" transform="translate(-542.309 -3129.651)" fill="#fadf61"/>
            <path id="Trazado_1043674" data-name="Trazado 1043674" d="M728.251,2297.775c.119,2.427-1.263,4.256-2.647,5.952-6.631,8.128-12.742,16.65-19.126,24.964a52.36,52.36,0,0,1-4.492,4.642c-.22.222-.479.534-.836.353-.443-.224-.369-.684-.227-1.029a18.376,18.376,0,0,1,1.1-2.292c4.258-7.246,8.447-14.535,12.837-21.7a62.292,62.292,0,0,1,8.807-11.92,5.355,5.355,0,0,1,.852-.806c.859-.537,1.712-1.515,2.789-.968,1.055.536.959,1.753.942,2.806" transform="translate(-653.909 -2141.219)" fill="#fce265"/>
            <path id="Trazado_1043675" data-name="Trazado 1043675" d="M840.1,2926.167c2.148.878,2.893,3.07,4.238,4.67a50.439,50.439,0,0,0,8.078,8.19,7.476,7.476,0,0,0,4.523,1.636c1.984.007,2.618-.713,2.46-2.766a1.964,1.964,0,0,1,.025-.576c.024-.105.149-.187.345-.414,1,2.265.458,4.489.181,6.666-.179,1.414-.669,2.784-.943,4.19-.318,1.636-.934,2.925-2.9,2.695-1.2-.139-.7.956-1.086,1.431-3.243-1.845-5.747-4.537-8.647-6.715a80.368,80.368,0,0,1-9.968-8.777c-.356-.373-.715-1.085-1.423-.421-.806-.758-1.624-1.5-2.411-2.281-.3-.3-.807-.648-.358-1.133s.922-.235,1.342.179c2.042,2.009,4.107,3.988,6.236,5.912a29.319,29.319,0,0,0,9.128,5.875,9.931,9.931,0,0,0,4.424.366c.459-.031,1.15-.064,1.3-.649.146-.554-.354-.94-.713-1.311-2.811-2.9-5.836-5.593-8.361-8.763-2.018-2.535-4.258-4.919-5.471-8" transform="translate(-776.345 -2730.322)" fill="#f3a52f"/>
            <path id="Trazado_1043676" data-name="Trazado 1043676" d="M3396.333,2459.241c.692-1.589.229-3.335.681-4.97.169-.61-.4-.9-.994-.909-5.757-.111-8.767-4.034-11.323-8.38-3.6-6.115-2.954-12.628-1.371-19.156,1.855-7.643,6.018-14.064,10.7-20.216.882-1.156,1.455-1.215,2.153.1,4.7,8.873,9.417,17.8,11.236,27.76,1.718,9.418,1.555,18.851-3.411,27.481-2.409,4.186-5.656,7.654-10.67,8.813-.468.108-1.106.488-1.46-.04-.457-.679.291-1.03.655-1.431a25.216,25.216,0,0,0,3.848-6.094,2.142,2.142,0,0,0-.131-2.222.485.485,0,0,1,.083-.739" transform="translate(-3155.701 -2243.786)" fill="#fec53d"/>
            <path id="Trazado_1043677" data-name="Trazado 1043677" d="M3388,3402.784a23.064,23.064,0,0,0-4.366-11.767c.926.08,1.85.794,2.779.012a.754.754,0,0,1,1.131-.064,110.212,110.212,0,0,1,20.777,1.631,1.988,1.988,0,0,1,1.494.288,35.535,35.535,0,0,0,6.464,2.7,25.29,25.29,0,0,1,7.944,4.834c.579.493,1.271.975,1.018,1.928a26.591,26.591,0,0,1,3.528,4.133c3.44,6.2,3.159,12.448-.255,18.6a16.606,16.606,0,0,1-3.107,3.981c-2.223,2.121-3.623,2.4-6.5,1.132a27.471,27.471,0,0,1-7.443-4.963q-9.871-9.008-19.3-18.487c-.913-.921-1.7-1.966-2.575-2.925-.432-.474-.849-1.016-1.59-1.035" transform="translate(-3157.174 -3163.801)" fill="#fec53c"/>
            <path id="Trazado_1043678" data-name="Trazado 1043678" d="M3769.395,3399.31a26.73,26.73,0,0,0-11.932-7.139,14.072,14.072,0,0,1-4.989-2.614c.605-1.517,2.087-1.459,3.294-1.66,6.313-1.049,12.217-.265,17.168,4.242,2.577,2.347,4.188,5.119,3.9,8.772-.115,1.458-.019,2.933-.019,4.862-2.69-2.471-4.039-5.675-7.424-6.464" transform="translate(-3501.325 -3160.764)" fill="#ea8320"/>
            <path id="Trazado_1043679" data-name="Trazado 1043679" d="M3292.843,2347.692c.826-.428.928-1.412,1.539-2.005.581.559.014.929-.229,1.341a104.651,104.651,0,0,0-10.878,23.913,77.085,77.085,0,0,0-3.445,19.508c-.055,2.066-.374,4.137-.346,6.221-.217.277-.146.611-.2.924-.192,1.169-.615.67-1.037.131-.847-2.66.039-5.3.232-7.92.209-2.845.369-5.7.536-8.546a46.6,46.6,0,0,1,2.941-14.833c1.768-2.132,2.1-4.933,3.392-7.292a46.1,46.1,0,0,1,2.65-4.944c1.6-1.228,2.159-3.18,3.314-4.715.423-.563.652-1.274,1.268-1.692l.26-.092" transform="translate(-3058.503 -2188.693)" fill="#df7b1c"/>
            <path id="Trazado_1043680" data-name="Trazado 1043680" d="M3270.623,3152.5c-1.428.363-2.854-.221-4.282-.013-1.2-.1-1.427-.727-1.274-1.868a64.222,64.222,0,0,0,.849-10.1c-1.035-1.093-.553-2.249-.15-3.405.429-.628.814-1.39,1.756-.659q1.551,8.02,3.1,16.04" transform="translate(-3046.5 -2926.264)" fill="#62addc"/>
            <path id="Trazado_1043681" data-name="Trazado 1043681" d="M3408.921,3229.045l-1.131.064c-.382-.053-.908.029-1.115-.19-.375-.4.154-.695.413-.89a103.021,103.021,0,0,0,11.412-10.621c.2-.2.426-.3.679-.073q-.04.37-.082.74a69.826,69.826,0,0,1-10.177,10.97" transform="translate(-3178.549 -3001.882)" fill="#de7b1c"/>
            <path id="Trazado_1043682" data-name="Trazado 1043682" d="M3279.9,3109.664c-.66-.281-.877.24-1.162.64-.522-.672-.773-1.293.312-1.665.827-.021.189-1.034.809-1.2q.021,1.11.041,2.221" transform="translate(-3058.877 -2899.466)" fill="#ec962f"/>
            <path id="Trazado_1043683" data-name="Trazado 1043683" d="M1510.7,898.224q2.9,10.117,5.8,20.236a81.015,81.015,0,0,0,3.94,11.507,11.389,11.389,0,0,1-3.971-1.815,69.334,69.334,0,0,0-2.187-14.64,56.8,56.8,0,0,0-5.2-13.245,4.379,4.379,0,0,0,1.619-2.042" transform="translate(-1408.075 -838.107)" fill="#242d72"/>
            <path id="Trazado_1043685" data-name="Trazado 1043685" d="M2070.824,2754.153c-.031,3.522-.13,7.046-.058,10.567a1.961,1.961,0,0,1-1.755,2.289,57.318,57.318,0,0,1-14.724,1.831,4.556,4.556,0,0,0-3.33.827c-1.757,1.555-1.562,3.631.534,5.216.157.037.219.1.188.176s-.074.135-.118.135c-1.313-.062-2.8-.241-3.4,1.243-.63,1.577.138,2.916,1.384,3.951.648.539,1.342,1.021,2.015,1.529q.406.123.066.377c-.675,2.275-.181,3.574,2.017,5.06a38.626,38.626,0,0,0,7.564,3.5c1.98.789,4.039,1.381,6.063,2.061-1.084,2.748-3.482,3.312-6.005,3.406-4.346.161-8.7.15-13.047.229-.838.015-1.674.114-2.51.174-.6.909-1.546.87-2.456.875-6.07.028-12.14.066-18.208-.021-1.868-.027-3.7-.576-5.569-.791a5.613,5.613,0,0,1-3.528-3.2q0-.62.007-1.238a3.671,3.671,0,0,1,2.411-1.132,31.945,31.945,0,0,0,5.447-1.542,2.815,2.815,0,0,0,2.021-2.6,3.912,3.912,0,0,1,.812-2.172,2.713,2.713,0,0,0,.513-2.393,2.092,2.092,0,0,1,1.39-2.653c1.322-.61,2.107-1.489,1.651-3.082a1.673,1.673,0,0,1,.955-1.947c1.232-.783,2.138-1.821,1.86-3.364-.311-1.721-1.708-2.4-3.227-2.733-3.121-.689-6.315-.936-9.46-1.477-1.509-.26-3.165-.187-4.337-1.482a3.37,3.37,0,0,1-.247-1.719c.025-1.911.575-2.366,2.4-1.879a28.16,28.16,0,0,0,4.711,1.11,8.82,8.82,0,0,1,1.316.081,6.3,6.3,0,0,0,4.351-.14,9.226,9.226,0,0,0,2.573-.882,1.924,1.924,0,0,0,1.1-1.913c-.085-.892-.866-1.087-1.558-1.231-4.074-.848-8.12-1.828-12.184-2.72-2.656-.583-2.743-.686-2.717-3.316.05-5.07-.135-10.142.1-15.213,2.494-3.65,5.92-5.033,10.356-5.138q14.392-.344,28.784-.312a22.8,22.8,0,0,1,2.737.062c1.53.291,1.812,1.126.915,2.332a23.424,23.424,0,0,1-4.859,5.269c-2.648,1.922-4.393,4.746-6.593,7.122a105.916,105.916,0,0,0-6.756,8.3c-.732.423-1.479.822-2.244,1.181a6.622,6.622,0,0,0-3.45,6.83,6.919,6.919,0,0,0,6.631,5.579c.26,0,.521,0,.781-.015,3.133-.439,5.484-1.819,6.206-5.157a10.022,10.022,0,0,0,.351-3.417,3.029,3.029,0,0,1,1.413-2.227c6.4-5.41,12.438-11.208,18.4-17.1.707-.7,1.085-1.794,2.211-2.048q.056,7.473.113,14.946" transform="translate(-1880.803 -2549.604)" fill="#263173"/>
            <path id="Trazado_1043686" data-name="Trazado 1043686" d="M1592.648,2765.334c-.024,5.411-.024,10.823-.093,16.234-.013,1,.521,1.164,1.28,1.323,4.591.967,9.181,1.941,13.761,2.959.817.181,1.97-.03,2.157,1.24a2.942,2.942,0,0,1-1.315,3.229,6.188,6.188,0,0,1-3.324,1,13.659,13.659,0,0,1-4.369,0l-1.143-.114c-.062-.263.116-.389.294-.514-2.659,0-5.021-1.223-7.536-1.8-2.278-.525-4.637-.932-6.837.413-.431.263-1.107.453-1.029,1.041s.754.608,1.272.673c2.125.6,4.334.868,6.41,1.657a3.286,3.286,0,0,1,.717.578c4.128.645,8.258,1.283,12.384,1.94a14.478,14.478,0,0,1,2.291.506c1.505.5,2.713,1.353,2.869,3.1a3.745,3.745,0,0,1-2.069,3.9c-.848.449-1.167.7-.653,1.775.643,1.342-.41,2.8-2.292,3.514-.941.355-2.058.473-.841,1.792a1.136,1.136,0,0,1,.154.559c.094.589.236,1.362-.23,1.679-2.113,1.441-.5,5.175-3.932,5.922-2.668.581-5.284,1.432-8.006,1.808.306-.923.2-1.536-1-1.419-1.747.171-3.51.227-5.242.489-1.483.223-2.892.717-4.16-.649-.491-.529-1.241-.116-1.831.177-2.331,1.158-4.646,2.349-6.99,3.481a10.724,10.724,0,0,1-3.2.816c-2.92.417-4.616-1.207-5.573-3.6-1.741-4.359-3.383-8.784-2.236-13.638,1.5-2.041,3.779-3.317,5.259-5.39a10.586,10.586,0,0,0,1.394-2.079,1.273,1.273,0,0,1,.344-.415c1.276-.976,1.933-2.434,2.8-3.71,2.289-3.388,4.574-6.777,7.042-10.039,3.055-2.7,6.71-2.1,10.229-1.661,2.782.35,2.761.558,2.757-2.345-.007-5.016-.026-10.032-.023-15.048,0-1.028-.123-2.117.86-2.861.825,1.253.35,2.378-.34,3.482" transform="translate(-1457.411 -2577.004)" fill="#fdbe86"/>
            <path id="Trazado_1043687" data-name="Trazado 1043687" d="M1965.884,1532.751l.1-.761c.527.96,1.694,1.475,1.868,2.68,3.439,5.709,7.39,10.89,13.877,13.453.728.288,1.467.547,2.2.819.263.512.434,1.07,1.072,1.312a21.775,21.775,0,0,1,2.044,1.142c5.62,2.865,9.215,2.24,13.778-2.11,2.849-2.717,4.648-6.083,6.487-9.456a10.116,10.116,0,0,1,1.182-2.017c.565-.631,1.165-.852,1.761-.011a7.753,7.753,0,0,1,.351,3.456,51.608,51.608,0,0,0,.876,10.436c.086,2.022,2.106,2.783,2.868,4.366.86,1.738.314,3.2-.819,4.612a25.014,25.014,0,0,0-2.529,3.41c-2.006,1.634-3.952,3.343-6.079,4.827a34.96,34.96,0,0,1-6.726,1.921,4.022,4.022,0,0,1-2.667-.086c-1.067-1.783.2-3.279,1.227-4.046,1.971-1.469.985-3.271,1.121-4.915.067-.8-.987-.693-1.568-.781-5.425-.822-10.115-3.28-14.516-6.408-5.2-3.7-8.911-8.7-12.335-13.966-.763-.988-1.034-2.279-1.95-3.175a6.7,6.7,0,0,0-1.617-4.7" transform="translate(-1834.309 -1429.456)" fill="#f39a6d"/>
            <path id="Trazado_1043688" data-name="Trazado 1043688" d="M2381.957,2749.643c1.85-3.634,4.885-6.345,7.389-9.468,1.335-1.665,2.82-3.21,4.141-4.885.643-.815,1.593-1.083,2.33-1.678a30.669,30.669,0,0,0,4.541-5.3c.322-.412-.079-.526-.4-.611.146-.953.943-1.013,1.623-1.053a28.694,28.694,0,0,1,5.828.074c3.043.443,4.609,2.142,4.984,5.267q.026.833.05,1.667a4.747,4.747,0,0,1-1.713,2.453c-1.63,1.4-3.084,3-4.6,4.522-4.59,4.616-9.5,8.88-14.407,13.152a1.793,1.793,0,0,0-.779,1.066c-.856.041-1.028-.737-1.318-1.236-1.337-2.308-3.437-3.176-5.953-3.345-.631-.042-1.321.073-1.715-.624" transform="translate(-2222.535 -2544.051)" fill="#2d408a"/>
            <path id="Trazado_1043689" data-name="Trazado 1043689" d="M2621.979,1623.414c-1.113-2.514-.792-5.233-1.049-7.857-.227-2.325-.086-4.687-.108-7.033a.24.24,0,0,1,.069-.383,66.5,66.5,0,0,1,13.438.8,8.4,8.4,0,0,1,5.08,3.1,6.91,6.91,0,0,1-.107,8.372c-.722,1-1.572,1.908-2.364,2.858-1,.833-1.471,2.328-3.058,2.422a36.421,36.421,0,0,1-9.6-.995,3.374,3.374,0,0,1-2.3-1.279" transform="translate(-2445.351 -1500.495)" fill="#e6791c"/>
            <path id="Trazado_1043690" data-name="Trazado 1043690" d="M3140,2489.662c-.472.486-.341,1.084-.312,1.664q-.222,1.713-.444,3.425c-.478.544-.926.651-1.358-.062a6.055,6.055,0,0,1-1.006-3.293c.047-4.548.118-9.1-.015-13.645a49.954,49.954,0,0,0-1.18-9.417c-.267-1.2-.793-2.238-2.3-2.194,1.062-5.338-.117-10.448-1.5-15.559-.613-2.262-1.995-4.205-2.619-6.515a55.091,55.091,0,0,1,5.218,4.841,50.546,50.546,0,0,1,4.638,6.738c1.1,1.85,2.343,2.285,4.145,1.143.228-.145.448-.269.7-.06.42.4,0,.8,0,1.193a4.362,4.362,0,0,1-.366,1.894,36.666,36.666,0,0,0-2.4,12.172c-.387,5.892-.8,11.782-1.2,17.674" transform="translate(-2919.83 -2280.489)" fill="#f3a52f"/>
            <path id="Trazado_1043691" data-name="Trazado 1043691" d="M2473.47,2035.536c4.114-2.624,8.085-5.466,12.357-7.849a29.856,29.856,0,0,1,6.7-2.646c-.371,2.479-2,4.07-3.427,5.591a64.745,64.745,0,0,1-29.457,18.342,26.035,26.035,0,0,1-3.437.661,1.959,1.959,0,0,1-2.242-.768c-.9-1.336-.025-2.352.61-3.414,3.8-3.338,8.569-4.89,13.024-7.01,1.536-.731,2.952-1.647,4.443-2.443.463-.247.861-.589,1.43-.463" transform="translate(-2289.362 -1889.507)" fill="#f4a52e"/>
            <path id="Trazado_1043692" data-name="Trazado 1043692" d="M1679.471,1624.979a4.613,4.613,0,0,1,2.709-3.35,17.553,17.553,0,0,1,8.031-2.115c3.313-.122,6.634-.026,9.952-.024a1.973,1.973,0,0,1,.951,1.61,20.2,20.2,0,0,1-.947,10.67,1.956,1.956,0,0,1-.707.906c-1.765.778-3.556.358-5.355.139a33.22,33.22,0,0,1-9.549-2.568c-2.385-1.061-4.316-2.618-5.084-5.267" transform="translate(-1567.066 -1511.064)" fill="#e6791c"/>
            <path id="Trazado_1043693" data-name="Trazado 1043693" d="M2073.544,2709.7c-1.42-3.562-2.942-4.635-6.823-4.593-1.87.021-3.772-.333-5.612.3-7.888.034-15.778-.047-23.661.154-3.643.093-7.294.129-10.934.326-2.688.145-4.731,1.648-6.507,3.572-.27.292-.277,1.211-1.085.63-.344-1.207.128-2.332.34-3.483a8.757,8.757,0,0,1,2.528-3.117,4.674,4.674,0,0,1,2.478-.4c13.9-.343,27.794-.518,41.695-.416a20.879,20.879,0,0,1,5.772.481c2.411,1.681,1.868,4.178,1.809,6.542" transform="translate(-1883.684 -2521.763)" fill="#487bc9"/>
            <path id="Trazado_1043694" data-name="Trazado 1043694" d="M1171.1,2194.218c-1.419-5.422-2.8-10.846-5.537-15.822a52.645,52.645,0,0,1-2.263-5.406c1.1-1.572,1.33.081,1.61.534a75.075,75.075,0,0,1,6.2,12.85,89.05,89.05,0,0,1,6,25.374c.268,3.764.8,7.51.7,11.3-.018.7.192,1.452-.362,2.062-.875-.23-.913-.98-1.078-1.679q-2-8.441-3.161-17.035c-.477-3.466-1.188-6.888-1.993-10.288a3.093,3.093,0,0,1-.121-1.888" transform="translate(-1085.44 -2026.935)" fill="#fce267"/>
            <path id="Trazado_1043695" data-name="Trazado 1043695" d="M2255.047,1557.844c-.017.129-.04.256-.069.383-1.028.213-1.119,1.192-1.491,1.9-2.057,3.911-4.146,7.746-7.449,10.85-5.674,5.331-10.624,4.263-16.818.044-.535-.364-.869-.833-.1-1.336a19.161,19.161,0,0,0,11.7-1.148c5.743-2.374,9.74-6.645,12.74-11.962.446-.79.908-1.57,1.362-2.355q.061,1.812.123,3.623" transform="translate(-2079.506 -1450.199)" fill="#ec845e"/>
            <path id="Trazado_1043696" data-name="Trazado 1043696" d="M1297,3094.837c.039,1.092-.557,1.486-1.568,1.438-2.576-.125-5.163.14-7.731-.231a77.545,77.545,0,0,1,3.006-11.286c.774-2.481,1.55-4.962,2.371-7.427.338-1.013.84-1.72,1.635-.266q1.144,8.886,2.287,17.773" transform="translate(-1201.514 -2870.348)" fill="#5fb0f0"/>
            <path id="Trazado_1043697" data-name="Trazado 1043697" d="M1892.789,1868.387c3.5.139,6.689-1.306,10.022-2.019-1.015,1.692-2.735,2.558-4.27,3.64l-2.687,1.866c-5.21.955-10.208-.082-15.179-1.55-6.495-1.918-12.054-5.487-17.32-9.607a15.785,15.785,0,0,1-4.261-4.476.84.84,0,0,1-.252,1.354c-.6.334-1.2-.145-1.451-.675-.665-1.383-2.2-2.632-.867-4.419a5.282,5.282,0,0,1,2.9-1.058,1.624,1.624,0,0,1,1.357.611c.348.578.042,1.358.585,1.878a24.019,24.019,0,0,0,9.957,9.087c5.951,2.928,12.148,4.971,18.907,4.761.884-.027,1.846-.161,2.563.609" transform="translate(-1731.776 -1727.526)" fill="#66a3e6"/>
            <path id="Trazado_1043698" data-name="Trazado 1043698" d="M2113.429,2681.726a.714.714,0,0,1-.831.618c-10.986-.667-21.984-.247-32.974-.187-3.295.018-6.616.222-9.927.265a25.679,25.679,0,0,1-6.213-.36c1.582-1.584,3.649-1.59,5.653-1.63,8.08-.164,16.162-.254,24.242-.4,5.148-.094,10.294-.255,15.441-.35a5.067,5.067,0,0,1,4.608,2.045" transform="translate(-1925.379 -2500.331)" fill="#62a7e8"/>
            <path id="Trazado_1043699" data-name="Trazado 1043699" d="M2061.711,2161.41a4.758,4.758,0,0,1-.835,3.473c-.729.9-.05,1.677.342,2.46a8.465,8.465,0,0,1,1.7,3.9c.324.837-.221,1.609-.179,2.425.346,5.1-.362,9.915-3.864,13.934a25.435,25.435,0,0,1-2.536,2.429c-.514.447-1.044,1.02-1.806.192-.909-.988.155-1.274.575-1.636a15,15,0,0,0,5.434-13.947c-.093-.757-.31-1.5-.47-2.247-.627-.433-.573-1.2-.875-1.786a23.432,23.432,0,0,0-1.965-4.864c-.537-.451-1.11-.868-1.606-1.36-1.794-1.78-1.416-4.239.907-6.053a3.47,3.47,0,0,1,5.179,3.086" transform="translate(-1916.692 -2013.436)" fill="#1a1949"/>
            <path id="Trazado_1043700" data-name="Trazado 1043700" d="M2133.788,2099.083a55.973,55.973,0,0,1-7.7,6.3c-.98.743-1.816.355-2.675-.234-2.04-1.4-4.093-2.776-6.141-4.161a10.42,10.42,0,0,1-4.4-2.678c-.5-.429-1.168-.922-.606-1.76.1-.062.315-.173.31-.185-.237-.532-1.221-.841-.693-1.573.568-.784,1.341-.194,1.941.084a41.753,41.753,0,0,0,18.521,3.836c.5-.009,1.06-.126,1.442.375" transform="translate(-1970.395 -1954.221)" fill="#5fa4ec"/>
            <path id="Trazado_1043701" data-name="Trazado 1043701" d="M1682.479,2121.033a3.335,3.335,0,0,1,.31,1.838,39.558,39.558,0,0,1-17.233-5.1,61.2,61.2,0,0,1-15.025-12.005c-.162-.17-.279-.383-.7-.973l12.984,7.5c1.617.04,2.613,1.337,3.947,1.954,5.182,2.4,10.278,4.989,15.717,6.792" transform="translate(-1539.41 -1963.919)" fill="#f0a12f"/>
            <path id="Trazado_1043702" data-name="Trazado 1043702" d="M1693.612,1712.4l-3.1,1.118a6.535,6.535,0,0,1-3.806,1.564,10.444,10.444,0,0,1-6.028-4.8c-1.788-2.46-3.155-5.056-2.656-8.252,5.017,6.566,12.346,7.014,19.683,7.441.451,1.632-.789,2.217-1.812,2.937-.757.278-1.517-.159-2.277,0" transform="translate(-1565.613 -1588.113)" fill="#d05c14"/>
            <path id="Trazado_1043703" data-name="Trazado 1043703" d="M2420.415,2197.873a7.055,7.055,0,0,0-1.018,3.118c-1.721,6.754-.322,12.645,4.907,17.423-1.3,1.561-2.25,1.311-3.444-.161a19.114,19.114,0,0,1-4.3-13.477c.035-.716.042-1.434.062-2.151.03-1.377-.316-2.8.5-4.08a9.391,9.391,0,0,1,1.534-3.252,3,3,0,0,0,.569-2.507c-.542-2.314-.082-3.738,1.393-4.314,2.852-1.115,4.407.159,4.286,3.51a1.768,1.768,0,0,1-.922,1.8,17.48,17.48,0,0,0-3.571,4.088" transform="translate(-2254.795 -2041.63)" fill="#1e1b4b"/>
            <path id="Trazado_1043704" data-name="Trazado 1043704" d="M1806.752,1874.907c1.332-.348,2.556-1.07,3.964-1.159-.342,1.928,1.1,3,1.967,4.367.067-1.252-1.143-2.084-1.008-3.883,3.085,4.809,7.25,7.807,11.514,10.654,7.494,5.005,15.681,7.835,24.8,7.555a3.039,3.039,0,0,1,1.907.246l-.684.515c-7.479.1-14.771-.777-21.594-4.245.461,1.175,1.9,1.047,2.442,2.084-.938.447-1.706-.356-2.541-.147a2.318,2.318,0,0,1-2.3-.755c-5.541-4.539-11.452-8.593-17.049-13.057-.7-.555-1.514-1.082-1.424-2.175" transform="translate(-1685.822 -1748.34)" fill="#4886d6"/>
            <path id="Trazado_1043705" data-name="Trazado 1043705" d="M1724.359,1829.723c6.653,5.68,13.807,10.711,20.77,15.987l5.183,4.209a2.089,2.089,0,0,0-1.865,1.211c-1.024-2.207-2.653-3.4-5.179-3.086a2.415,2.415,0,0,0-1.139-1.844c-7.6-5.07-14.433-11.117-21.545-16.812-1.288-1.032-2.387-2.2-2.1-4.065l5.87,4.4" transform="translate(-1603.429 -1703.156)" fill="#f9dd5a"/>
            <path id="Trazado_1043706" data-name="Trazado 1043706" d="M2179.294,2258.432a1.179,1.179,0,0,1,.262,1.555c-.652,1.459-1.274,2.931-1.908,4.4-3.261,2.362-7.095,2.2-10.788,2.139-2.1-.035-4.447.123-6.311-1.39l-1.164-3.951c5.539,2.629,11.075,3.713,16.75.284,1.323-.8,3.13-.945,3.159-3.036" transform="translate(-2014.859 -2107.278)" fill="#fce265"/>
            <path id="Trazado_1043707" data-name="Trazado 1043707" d="M1275.557,2499.416c1.806,7.386,3.075,14.882,4.569,22.333.573,2.857,1.189,5.7,1.785,8.557q.389,3.142.777,6.284c-.357.917-.567.117-.633-.1a45.819,45.819,0,0,1-1.307-4.666c-.683-3.563-1.729-7.053-2.154-10.672a2.666,2.666,0,0,0-.626-1.805,141.793,141.793,0,0,0-2.439-17.7c-.168-.755-.55-1.489.028-2.225" transform="translate(-1189.898 -2332.133)" fill="#d8741e"/>
            <path id="Trazado_1043708" data-name="Trazado 1043708" d="M1863.492,2221.224c-.3.622-.729.289-1.149.164-6.653-1.97-12.614-5.379-18.515-8.911.935-.757,1.646.063,2.274.462,3.421,2.174,6.978,3.818,11.172,3.5.75-.056,1.356.431,2.036.639.7.214,1.429.365,1.652-.665,1.909,1.043,2.156,2.961,2.53,4.812" transform="translate(-1720.423 -2064.11)" fill="#fde061"/>
            <path id="Trazado_1043709" data-name="Trazado 1043709" d="M2176.774,2348.122a9.281,9.281,0,0,1,3.465.376c4.663.847,9.145-.114,13.635-1.127q-.482,1.945-.962,3.887c-.181-.792-.767-.469-1.245-.456a72.419,72.419,0,0,1-12.342-.708,2.262,2.262,0,0,0-2.194.4,5.131,5.131,0,0,1-.358-2.369" transform="translate(-2031.084 -2190.264)" fill="#f3a833"/>
            <path id="Trazado_1043710" data-name="Trazado 1043710" d="M3346.729,2386.479c-.381-.4.068-.8,0-1.193a49.451,49.451,0,0,1,3.881-10.566,34.19,34.19,0,0,1,4.841-6.586c.439-.474.923-1.109,1.477-.09l0-.007c-1.7,2.055-2.715,4.559-4.316,6.681l-5.884,11.761" transform="translate(-3122.592 -2209.045)" fill="#fce164"/>
            <path id="Trazado_1043711" data-name="Trazado 1043711" d="M2491.66,1854.064l4.268-3.638,5.242-4.35c1.969-2.521,5.052-3.713,7.191-6.031,1.2-.872,2.29-1.889,3.465-2.8a2.829,2.829,0,0,1,1.915-.8l2.742-2.1c-.342,1.278-1.375,2.022-2.237,2.9-4.128,4.208-9.135,7.264-13.9,10.641-2.121,1.5-4.12,3.18-6.185,4.765a4.664,4.664,0,0,1-2.5,1.4" transform="translate(-2324.896 -1711.583)" fill="#f6e083"/>
            <path id="Trazado_1043712" data-name="Trazado 1043712" d="M2474.563,2187.8a5.865,5.865,0,0,1,3.005-4.427,6.991,6.991,0,0,0,1.488-1.466c.668.776,1.423.618,2.3.349a47.629,47.629,0,0,0,10-4.392c.53-.309,1-.971,1.7-.277-5.163,3.373-10.937,5.61-16.239,8.72-.775.454-1.5.993-2.25,1.493" transform="translate(-2308.942 -2031.561)" fill="#fbdc5f"/>
            <path id="Trazado_1043713" data-name="Trazado 1043713" d="M1922.332,1629.625c.749-.847,1.856-1.405,2.124-2.639,1.95-3.35,1.529-7,1.327-10.618-.043-.774-.209-1.542-.318-2.312l.094-.426c1.938-.05,1.438,1.932,2.312,2.77.952,5.8-.584,10.763-4.957,14.773a2.268,2.268,0,0,1-1.7.83c-.524-.573-.244-1.034.205-1.471.111-.5.52-.691.91-.906" transform="translate(-1792.367 -1505.631)" fill="#fcd8ac"/>
            <path id="Trazado_1043714" data-name="Trazado 1043714" d="M1532.1,1789.73l.464-.893c.414-.085.776-.907,1.253-.068A42.345,42.345,0,0,0,1540,1796.9c-2.5-2.13-5.3-3.793-7.846-5.813-.547-.435-.758-.873-.053-1.352" transform="translate(-1429.14 -1668.7)" fill="#ec9d2b"/>
            <path id="Trazado_1043715" data-name="Trazado 1043715" d="M1681.593,3089.275c-.051,1.842-1.7,2.748-2.511,4.146-1.852,3.185-4.023,6.185-6.095,9.24-.27.4-.417,1.244-1.256.675-.1-2.024,1-3.381,2.511-4.512l3.918-5.915c1.242-1.12,1.98-2.715,3.433-3.634" transform="translate(-1559.838 -2882.513)" fill="#fcdaae"/>
            <path id="Trazado_1043716" data-name="Trazado 1043716" d="M2110.726,1396.693c3.985,0,7.969-.006,11.954.008.5,0,1.141-.221,1.469.258.378.554-.252.946-.5,1.353-2.179,3.534-4.82,6.613-9.117,7.465-6.208,1.231-12.662-.2-16.293-5.747a10.294,10.294,0,0,1-.735-1.376c-.592-1.3-.491-2.025,1.273-1.982,3.983.1,7.968.03,11.953.03Z" transform="translate(-1956.813 -1303.174)" fill="#f48c61"/>
            <path id="Trazado_1043717" data-name="Trazado 1043717" d="M1904.133,898.9a19.389,19.389,0,0,1,7.327,1.53c.932.4,1.871.925,1.542,2.149-.349,1.293-1.386,1.392-2.525,1.137a26.26,26.26,0,0,0-6.983-.807,18.505,18.505,0,0,0-7.305,2.025c-1.041.508-2.164.928-2.913-.381s.256-2.108,1.159-2.736a16.56,16.56,0,0,1,9.7-2.916" transform="translate(-1766.313 -838.742)" fill="#1a1850"/>
            <path id="Trazado_1043718" data-name="Trazado 1043718" d="M2425.733,901.683a4.252,4.252,0,0,1-2.049-.6,18.138,18.138,0,0,0-11.856-1.217c-1.134.237-2.675.974-3.2-.734s1.031-2.2,2.244-2.632a15.963,15.963,0,0,1,15.274,2.027,1.956,1.956,0,0,1,.99,2.328c-.215.68-.793.8-1.4.831" transform="translate(-2247.325 -835.489)" fill="#19184e"/>
            <path id="Trazado_1043719" data-name="Trazado 1043719" d="M1742.031,860.038a99.474,99.474,0,0,1-5.7-15.126c-1.327-4.148-2.49-8.348-3.688-12.536-.154-.539-.828-1.4.109-1.643.983-.25.894.815,1.094,1.468,1.972,6.462,3.468,13.074,6.061,19.342a3.943,3.943,0,0,0,.92,1.688l1.206,6.807" transform="translate(-1616.325 -775.099)" fill="#3f5099"/>
            <path id="Trazado_1043720" data-name="Trazado 1043720" d="M2699.845,829.348c1.174-2.634,1.357-5.509,1.986-8.274.419-1.839.6-3.729.973-5.581.116-.579.128-1.346,1.177-1.587-.478,2.8-.883,5.519-1.412,8.21-1.142,5.818-2.345,11.624-3.535,17.432a1.808,1.808,0,0,1-.3.5c.159-3.588.608-7.147,1.108-10.7" transform="translate(-2518.114 -759.433)" fill="#424986"/>
            <path id="Trazado_1043721" data-name="Trazado 1043721" d="M2235.2,1272.875l1.179-1.025c.479,1.976-.493,3.615-2.593,4.507-2.823,1.2-6.71-.2-8.416-3.039.7-.466,1.191.346,1.815.306,2.74.478,5.518,1.367,8.015-.749" transform="translate(-2076.425 -1186.727)" fill="#24173e"/>
            <path id="Trazado_1043722" data-name="Trazado 1043722" d="M2409.009,1048.512c-1.952-1.006-2.019-1.607-.335-2.768,2.995-2.064,6.084-2.852,9.44-.816.592.359,1.058.625.208,1.186-.84.726-1.618-.07-2.377-.189a6.925,6.925,0,0,0-6.936,2.587" transform="translate(-2246.344 -973.885)" fill="#e99570"/>
            <path id="Trazado_1043723" data-name="Trazado 1043723" d="M1988.883,1071.372c-.969.05-1.521.314-.62,1.451-3.708-1.68-7.12-1.81-10.122,1.785.7-4.305,6.536-5.851,10.742-3.236" transform="translate(-1845.746 -998.472)" fill="#261c3c"/>
            <path id="Trazado_1043724" data-name="Trazado 1043724" d="M2429.089,1067.346c-.378-1.075.453-1.523,1.1-2,2.639-1.949,5.406-1.7,8.212-.4.554.464,1.335.725,1.56,1.821a15.3,15.3,0,0,0-4.891-1.393c-2.3-.083-3.987,1.336-5.983,1.97" transform="translate(-2266.424 -992.72)" fill="#201335"/>
            <path id="Trazado_1043725" data-name="Trazado 1043725" d="M2260.5,1287.161c-1.894,2.366-4.463,2.606-8.015.749,2.682-.139,5.419.31,8.015-.749" transform="translate(-2101.73 -1201.013)" fill="#d5886d"/>
            <path id="Trazado_1043726" data-name="Trazado 1043726" d="M1632.157,843.133a2,2,0,0,1-2.059.45,5.073,5.073,0,0,1-1.93-3.059c-3.066-9.905-5.652-19.945-8.429-29.931-.35-1.26-.812-2.476-1.274-3.7-.421-1.112-.5-2.178.656-2.954l-.01.04c1.6-.526,1.824.616,2.127,1.726,2.691,9.84,5.431,19.667,8.45,29.413q1.24,4,2.469,8.009" transform="translate(-1509.879 -750.052)" fill="#f6d44b"/>
            <path id="Trazado_1043727" data-name="Trazado 1043727" d="M2072,3692.328l26.232-.063,8.587.125c-6.539,1.853-13,4.045-19.981,3.507a32.448,32.448,0,0,1-11.506-2.645c-1.087-.511-2.365-.124-3.332-.924" transform="translate(-1933.327 -3445.146)" fill="#fac23a"/>
            <path id="Trazado_1043728" data-name="Trazado 1043728" d="M1557.194,3013.879l-2.511,4.513a1.982,1.982,0,0,0-.318.1,33.277,33.277,0,0,1-8.084-20.257c4.157,4.849,7.387,10.351,10.913,15.642" transform="translate(-1442.79 -2797.568)" fill="#e58223"/>
            <path id="Trazado_1043729" data-name="Trazado 1043729" d="M2550.374,3306.936a2.794,2.794,0,0,1-.07-.311c4.024,1.771,8.162,1.065,12.286.546a60.893,60.893,0,0,0,15.135-4.392,8.52,8.52,0,0,1,1.306-.4,2.2,2.2,0,0,1,.7.136,5.853,5.853,0,0,1-3.119,3.081,42.988,42.988,0,0,1-24.332,2.22,2.856,2.856,0,0,1-1.9-.879" transform="translate(-2379.615 -3081.347)" fill="#f39c6b"/>
            <path id="Trazado_1043730" data-name="Trazado 1043730" d="M2551.463,3471.418a1.011,1.011,0,0,1-.066-.376c3.426.718,6.825,1.639,10.285,2.1,4.882.657,9.81.984,14.7-.237.031-.532-.74-.214-.716-.66s.424-.412.728-.415c1.215-.013,2.429-.006,3.807-.006a5.065,5.065,0,0,1-4.472,2.983,62.245,62.245,0,0,1-12.418-.047c-1.868-.171-3.713-.595-5.581-.776-2.367-.229-4.07-1.988-6.27-2.571" transform="translate(-2380.635 -3238.729)" fill="#f6a16f"/>
            <path id="Trazado_1043731" data-name="Trazado 1043731" d="M1565.838,805.222a2.052,2.052,0,0,0-.327,2.013c3.4,8.717,5.05,17.943,7.839,26.837,1.13,3.6,1.884,7.329,3.465,10.788a14.04,14.04,0,0,0-2.859-.584c-2.295,0-3-1.408-3.6-3.306-3.033-9.688-5.5-19.527-8.046-29.346a7.47,7.47,0,0,0-1.236-3.237,13.982,13.982,0,0,1,4.762-3.164" transform="translate(-1456.595 -751.33)" fill="#385db2"/>
            <path id="Trazado_1043732" data-name="Trazado 1043732" d="M920.032,1719.97c-.414,6.771-1.724,6.583-6.982,5.091a10.721,10.721,0,0,1-5.326-3.447c-2.168-2.517-.463-8.1,2.762-8.978,4.07-1.106,9.552,3.1,9.547,7.335" transform="translate(-846.066 -1597.844)" fill="#91cdf9"/>
            <path id="Trazado_1043733" data-name="Trazado 1043733" d="M323.738,1958.246a10.456,10.456,0,0,1,5.785,1.758c2.353,1.512,2.759,3.42,1.244,5.818a18.5,18.5,0,0,1-2.175,2.746,4.566,4.566,0,0,1-6.293.476c-2.363-1.684-3.508-4.93-2.451-6.987a17.711,17.711,0,0,0,1.023-1.885c.553-1.507,1.515-2.228,2.867-1.926" transform="translate(-298.072 -1827.12)" fill="#92cefa"/>
            <path id="Trazado_1043734" data-name="Trazado 1043734" d="M428.213,2404.707a4.21,4.21,0,0,1,3.682,2.471,2.927,2.927,0,0,1-.544,3.592c-1.3,1.537-2.591,3.146-4.944,2.965-1.361-.1-2.811-.5-3.282-1.731a5.121,5.121,0,0,1,5.089-7.3" transform="translate(-394.369 -2243.76)" fill="#93cefa"/>
            <path id="Trazado_1043735" data-name="Trazado 1043735" d="M1120.425,1380.62c2.018-1.5,2.032-1.684-.059-2.808-.688-.37-1.035-.656-.683-1.483a5.931,5.931,0,0,1,6.319-3.188,3.461,3.461,0,0,1,2.458,4.539,6.478,6.478,0,0,1-4.662,4.48c-1.456.443-2.081-1.275-3.372-1.539" transform="translate(-1044.614 -1281.121)" fill="#93cef8"/>
            <path id="Trazado_1043736" data-name="Trazado 1043736" d="M611.488,2049.4c-.26.885-.513,1.892-1.7,1.724a1.887,1.887,0,0,1-1.741-1.994,1.484,1.484,0,0,1,1.723-1.444,1.629,1.629,0,0,1,1.716,1.713" transform="translate(-567.352 -1910.633)" fill="#93d0fa"/>
            <path id="Trazado_1043737" data-name="Trazado 1043737" d="M3522.1,3443.2l-11.445.772c.093.872.744,1.025,1.181,1.344a61.891,61.891,0,0,1,15.729,15.853,12.618,12.618,0,0,1,2.04,8.19c-.044.527-.027,1.111-.623,1.315-.554.19-.986-.208-1.413-.5-1.191-.824-1.452-2.17-1.726-3.413-1.686-7.651-6.172-13.17-12.816-17.082a90.348,90.348,0,0,1-8.719-6.273c-.4-.3-.948-.632-.8-1.24.186-.741.883-.654,1.456-.672,4.832-.152,9.609.541,14.4.961.9.078,1.793.208,2.689.314q.019.217.039.433" transform="translate(-3269.003 -3211.138)" fill="#fce46c"/>
            <path id="Trazado_1043738" data-name="Trazado 1043738" d="M3436.8,2382.224c1.119-2.434,2.1-4.958,4.316-6.681-1.212,2.373-2.283,4.838-4.316,6.681" transform="translate(-3206.782 -2216.55)" fill="#fec53d"/>
            <path id="Trazado_1043739" data-name="Trazado 1043739" d="M2312.1,3086.4c-.91,3.335-3.141,5.111-6.724,5.352-1.034-.608-2.272-.439-3.36-.935a6.686,6.686,0,0,1-3.8-8.7,7.063,7.063,0,0,1,8.608-4.2c4.037,1.2,5.736,3.93,5.277,8.483" transform="translate(-2143.97 -2871.648)" fill="#7ebaf0"/>
            <path id="Trazado_1043740" data-name="Trazado 1043740" d="M2303.921,3080.392c-.226-4.764-1.659-6.932-5.315-8.043a6.39,6.39,0,0,0-8.285,4.451c-1,3.729.915,6.837,4.748,7.877.742.2,1.787-.008,2.128,1.066a7.554,7.554,0,0,1-8.075-5.923c-.693-3.105,1.433-6.709,4.8-8.125.421-.177.858-.313,1.289-.468,4.184-.318,7.313,1.186,8.986,5.205-.036,1.323.412,2.681-.279,3.959" transform="translate(-2135.792 -2865.635)" fill="#6697da"/>
            <path id="Trazado_1043741" data-name="Trazado 1043741" d="M1885.2,3153.4l-.755-.069c-.069-.252.027.046-.107-.16-.572-.88.412-2.7-1.018-2.772-1.874-.09-4.028-.372-5.531,1.394l-2.565-.917c2.659-3.675,6.511-3.449,10.2-2.252a40.528,40.528,0,0,0,8.34,2.1c-.56.564-1.39.083-1.854.632a14.873,14.873,0,0,1-4.947-1.046c-1.437-.526-2.076-.313-1.842,1.336a17.555,17.555,0,0,1,.08,1.754" transform="translate(-1749.715 -2937.161)" fill="#eb966a"/>
            <path id="Trazado_1043742" data-name="Trazado 1043742" d="M2534.6,2795.413c.994.051,1.458.448,1.44,1.47s-.719,1.251-1.393,1.227a1.384,1.384,0,0,1-1.47-1.49c.043-.893.7-1.163,1.422-1.207" transform="translate(-2363.636 -2608.319)" fill="#abc2e3"/>
            <path id="Trazado_1043743" data-name="Trazado 1043743" d="M2141.583,3202.056l4.369,0a7.174,7.174,0,0,1-4.369,0" transform="translate(-1998.249 -2987.746)" fill="#eb966a"/>
            <path id="Trazado_1043744" data-name="Trazado 1043744" d="M1870.8,3319.807a48.846,48.846,0,0,1,8.551.219c-1.193-1.02-2.728-.691-4.078-.982a33.777,33.777,0,0,0-4.231-.182c6.127-1.157,11.616,1.21,17.267,3.206a2.047,2.047,0,0,1-1.984.75,130.008,130.008,0,0,1-15.151-2.624c-.051-.014-.087-.085-.374-.386" transform="translate(-1745.59 -3096.449)" fill="#f29b6b"/>
            <path id="Trazado_1043745" data-name="Trazado 1043745" d="M1910.082,3174.682c-.588-.995-.061-1.461.848-1.618,1.576-.273,3.16-.534,4.751-.682,1.243-.115,1.456.772,1.445,1.785a3.65,3.65,0,0,1-.389,2.053l-6.655-1.538" transform="translate(-1782.01 -2960.047)" fill="#f5a736"/>
            <path id="Trazado_1043746" data-name="Trazado 1043746" d="M1925.177,1670.635c2.822-2.759,5.362-5.625,5.985-9.8.289-1.933-.034-3.927.668-5.8,2.557,3.365,4.783,7,7.842,9.959,5.656,5.474,12.162,9.363,20.112,10.384,1.47.188,1.818.579.763,1.736a.8.8,0,0,0,.116,1.332,1.186,1.186,0,0,1-.117,2.114c-1.769,1.08-2.244,2.975-3.206,4.566-11.831.5-22.232-2.724-30.424-11.681a8.58,8.58,0,0,1-1.739-2.807" transform="translate(-1796.327 -1544.263)" fill="#fdbe86"/>
            <path id="Trazado_1043747" data-name="Trazado 1043747" d="M2651.266,1838.5l-5.009,4.017c-1.835.3-3.286-.185-4.079-2.007-1.164-1.224-2.773-2.1-3.129-3.959a56.039,56.039,0,0,0,9.971,1.571c.759.03,1.579-.231,2.245.378" transform="translate(-2462.421 -1713.637)" fill="#d45e12"/>
            <path id="Trazado_1043748" data-name="Trazado 1043748" d="M2637.23,1895.706c1.015,1.369,2.81,1.152,4.079,2.007-2.11,2.422-4.937,3.88-7.562,5.608.574-1.542,1.763-2.671,2.686-3.979.737-1.045,1.686-2.071.374-3.346l.424-.29" transform="translate(-2457.473 -1768.829)" fill="#638bbc"/>
            <path id="Trazado_1043749" data-name="Trazado 1043749" d="M1914.368,1851.122c-.044.563-.451.76-.91.906-.214-.446-.689-.44-1.06-.609a2.36,2.36,0,0,1,1.97-.3" transform="translate(-1784.403 -1727.127)" fill="#fdbe86"/>
            <path id="Trazado_1043750" data-name="Trazado 1043750" d="M2125.006,1414.664c7.618-.106,14.96-.037,22.391-.482-3.541,6.83-17.972,7.215-22.391.482" transform="translate(-1982.781 -1319.533)" fill="#fcfbf9"/>
            <path id="Trazado_1043751" data-name="Trazado 1043751" d="M2547.978,2809.072a.724.724,0,0,1-.538.763.624.624,0,0,1-.83-.527.524.524,0,0,1,.495-.655.758.758,0,0,1,.873.419" transform="translate(-2376.155 -2620.66)" fill="#3d5181"/>
          </g>
        </g>
      </g>
      <g id="Grupo_1210406" data-name="Grupo 1210406" transform="translate(-63.696 3108.789)">
        <g transform="matrix(1, 0, 0, 1, 873.7, 2229.46)" filter="url(#Trazado_1043752)">
          <path id="Trazado_1043752-2" data-name="Trazado 1043752" d="M35.972.074a38.251,38.251,0,0,1,39.074,29.97c2.2,10.222-.078,20.288-5.721,28.982l9.613,18.916L58.377,69.413,53.9,71.748a37.077,37.077,0,0,1-12.433,3.237c-10.2.792-20.041-2-27.86-8.738A39.08,39.08,0,0,1,.085,39.61,37.136,37.136,0,0,1,8.794,13.144C15.911,4.973,25.264.847,35.972.074" transform="translate(111.53 14.03)" fill="#f6f3ef"/>
        </g>
        <path id="Trazado_1043753" data-name="Trazado 1043753" d="M87.129,58.784l.026.336c.292,6.046-3.7,13.756-7.721,18.013a30.535,30.535,0,0,1-21.061,9.648,29.777,29.777,0,0,1-21.711-8.034C31.062,73.409,27.15,65.712,27,57.9a28.846,28.846,0,0,1,8.116-21.34,30.474,30.474,0,0,1,42.793-.676c5.282,5.263,9.261,12.849,9.22,20.446a19.342,19.342,0,0,0,0,2.456" transform="translate(966.031 2223.977)" fill="#fec53d"/>
        <path id="Trazado_1043754" data-name="Trazado 1043754" d="M94.283,106.986c-2.1,0-21.457-.159-21.639-.027a6.824,6.824,0,0,0-.584,1.3c-.838,1.853-1.832,5.006-3.407,6.252a2.087,2.087,0,0,1-1.7-.317,9.471,9.471,0,0,1-1.24-3.341l-1.679-6.429-2.407,8.349-1.254,5.4c-.211,1.072-.274,2.5-1.049,3.325a1.556,1.556,0,0,1-1.358-.184c-1.234-1.964-1.644-5.827-2.144-8.121L53.25,100.974a19.334,19.334,0,0,1-1.162,4.883,1.875,1.875,0,0,1-1.188,1.095,18.9,18.9,0,0,1-3.21.041H40.629a12.522,12.522,0,0,1-2.823-.057,4.055,4.055,0,0,1-.676-.559,1.843,1.843,0,0,1,.217-1.578c1.222-.484,2.921-.281,4.233-.281l8.5.023,1.942-8.53a1.858,1.858,0,0,1,1.451-.778,4.086,4.086,0,0,1,.7.5,6.633,6.633,0,0,1,.552,1.813l1.15,5.219,2.759,11.95,2.713-9.116c.381-1.359.841-4.318,1.754-5.335.509-.566.818-.483,1.54-.55,1.118.8,1.26,2.554,1.563,3.849l1.812,7.912a57.5,57.5,0,0,1,3.4-6.864,71.8,71.8,0,0,1,7.854-.092l15.019.014a19.344,19.344,0,0,0,0,2.456" transform="translate(958.876 2175.775)" fill="#263173"/>
      </g>
      <g id="Grupo_1210407" data-name="Grupo 1210407" transform="translate(1268.619 5492.92)">
        <g id="Grupo_1203652" data-name="Grupo 1203652" clip-path="url(#clip-path-3)">
          <path id="Trazado_1043755" data-name="Trazado 1043755" d="M219.343,74.3c-.025-1.494-.466-4.693.589-5.773,1.09-1.116,5.767-.654,7.473-.649,1.025,0,3.519-.308,4.243.427a2.361,2.361,0,0,1,.693,1.26,29.937,29.937,0,0,1,.042,4.614l.02,11.632c.02,1.239.417,4.633-.247,5.556a3.875,3.875,0,0,1-2.05.117,11.7,11.7,0,0,0-2.716-.117l-5.934.03a3.414,3.414,0,0,1-1.848-.182l-.212-.778c-.352-2.535-.017-5.624-.007-8.211Z" transform="translate(-164.551 -50.877)" fill="#747eca"/>
          <path id="Trazado_1043756" data-name="Trazado 1043756" d="M232.9,140.079c.02,1.239.417,4.633-.247,5.556a3.875,3.875,0,0,1-2.05.117,11.7,11.7,0,0,0-2.716-.117l-5.934.03a3.414,3.414,0,0,1-1.848-.182l-.212-.778.025-4.555Z" transform="translate(-165.048 -105.141)" fill="#303a72"/>
          <path id="Trazado_1043757" data-name="Trazado 1043757" d="M163.348,437.236l5.587-.085a15.15,15.15,0,0,1,2.8.013l.17.015.065,2.067c.571.451,1.649.269,2.387.266l6.475-.009a23.051,23.051,0,0,1,3.821.121c5.1.892,7.939,4.4,9.361,9.138l-52.243.02a9.423,9.423,0,0,1,3.175-6.175c3.26-3.149,6.737-3.094,10.962-3.1l7.438.063Z" transform="translate(-106.412 -328.07)" fill="#303a72"/>
          <path id="Trazado_1043758" data-name="Trazado 1043758" d="M228.273,437.236l5.587-.085a15.15,15.15,0,0,1,2.8.013v2.193a1.573,1.573,0,0,1-.3.274c-.377.192-6.759.036-7.635,0l-.454-.056Z" transform="translate(-171.338 -328.07)" fill="#1a275f"/>
          <path id="Trazado_1043759" data-name="Trazado 1043759" d="M.111,35.758c.182-2.2.007-4.558.007-6.77l0-14.294c0-3.032-.574-7.288.758-10.029A8.09,8.09,0,0,1,5.728.477,9.605,9.605,0,0,1,8.968.1l14.3-.01c2.055,0,4.6-.286,6.57.166A7.9,7.9,0,0,1,35.58,5.9a27.519,27.519,0,0,1,.19,5.671L35.8,23.431l-.012,7.92-.022,9.237c0,1.933.267,4.251-.456,6.061a8.168,8.168,0,0,1-6.485,4.889,38.28,38.28,0,0,1-4.145.047l-8.019-.016-6.193,0a14.907,14.907,0,0,1-3.592-.2,8.888,8.888,0,0,1-4.435-2.379C-.752,45.7.123,40.006.111,35.758" transform="translate(0 0)" fill="#303a72"/>
          <path id="Trazado_1043760" data-name="Trazado 1043760" d="M228.093,162.324l5.934-.03a11.7,11.7,0,0,1,2.716.117l.012,8.929-8.682-.016Z" transform="translate(-171.188 -121.8)" fill="#1a275f"/>
          <path id="Trazado_1043761" data-name="Trazado 1043761" d="M143.505,93.933l18.991,0,.045,7.926H143.493Z" transform="translate(-107.703 -70.502)" fill="#6c58aa"/>
          <path id="Trazado_1043762" data-name="Trazado 1043762" d="M228.073,198.557l8.682.016-.072,59.57-.17-.015a15.156,15.156,0,0,0-2.8-.013l-5.587.085Z" transform="translate(-171.188 -149.034)" fill="#747eca"/>
        </g>
      </g>
      <g id="Grupo_1210408" data-name="Grupo 1210408" transform="translate(867.213 5478.291)">
        <g id="Grupo_1203654" data-name="Grupo 1203654" clip-path="url(#clip-path-4)">
          <path id="Trazado_1043763" data-name="Trazado 1043763" d="M61.72,202.336c.266-.469,21.7-11.1,23.469-11.8a22.79,22.79,0,0,0,2.925,4.238l-14.972,7.461c-2.312,1.169-4.913,2.935-7.342,3.667a2.543,2.543,0,0,1-1.638-.13c-1.24-.433-1.749-1.842-2.235-2.946Z" transform="translate(-46.003 -142.02)" fill="#141e54"/>
          <path id="Trazado_1043764" data-name="Trazado 1043764" d="M75.321,144.989c-1.443,3.768-1.982,7.64-.3,11.457l.064.142c-1.772.691-23.2,11.327-23.469,11.8l-2.585-5.148c-.672-1.334-1.174-2.26-.646-3.754a3.054,3.054,0,0,1,1.2-1.568c2.393-1.613,5.483-2.792,8.089-4.109Z" transform="translate(-35.9 -108.068)" fill="#1a275f"/>
          <path id="Trazado_1043765" data-name="Trazado 1043765" d="M245.612,80.028l1.136-.678c.959,5.271,3.217,9.672,6.139,14.1L233.8,103.188a18.119,18.119,0,0,0-.828-5.654c-1.176-3.561-3.727-5.753-6.842-7.627Z" transform="translate(-168.549 -59.144)" fill="#1a275f"/>
          <path id="Trazado_1043766" data-name="Trazado 1043766" d="M265.639,80.028l1.136-.678c.959,5.271,3.217,9.672,6.14,14.1l-19.085,9.735A18.119,18.119,0,0,0,253,97.534l16-8.115a38.061,38.061,0,0,1-3.366-9.391" transform="translate(-188.576 -59.144)" fill="#141e54"/>
          <path id="Trazado_1043767" data-name="Trazado 1043767" d="M305.726,38.473a10.163,10.163,0,0,1-.132-5.571c.964-2.967,3.894-3.991,6.42-5.3l6.091-3.1a35.79,35.79,0,0,0,.015,6.036,31.618,31.618,0,0,0,7.666,16.544,22.887,22.887,0,0,0,8.865,6.334l-11.721,6.206a5.815,5.815,0,0,1-2.973.259c-2.963-.5-6.424-4.923-8.092-7.31-2.923-4.431-5.181-8.832-6.14-14.1" transform="translate(-227.527 -18.267)" fill="#303a72"/>
          <path id="Trazado_1043768" data-name="Trazado 1043768" d="M150.88,122.653l.112-.228a13.143,13.143,0,0,1,7.745-6.757,13.626,13.626,0,0,1,10.3.828c3.116,1.874,5.666,4.066,6.842,7.627a18.118,18.118,0,0,1,.828,5.654,14.332,14.332,0,0,1-5.66,9.858,3.447,3.447,0,0,1-.909.55,7.374,7.374,0,0,1,.2,3.1l-.462.545a23.074,23.074,0,0,1-12.909.362,2.839,2.839,0,0,1-1.423-1.154c-.4-.772,0-2.146.243-2.919a15.176,15.176,0,0,1-2.223-1.628,22.791,22.791,0,0,1-2.925-4.238l-.064-.142c-1.682-3.817-1.143-7.69.3-11.457" transform="translate(-111.458 -85.732)" fill="#303a72"/>
          <path id="Trazado_1043769" data-name="Trazado 1043769" d="M172.893,213.576c3.628,1.827,7.083,2.651,11.063,1.366l3.288-1.3a7.374,7.374,0,0,1,.2,3.1l-.462.545a23.075,23.075,0,0,1-12.909.362,2.839,2.839,0,0,1-1.423-1.154c-.4-.772,0-2.146.243-2.919" transform="translate(-128.558 -159.19)" fill="#1a275f"/>
          <path id="Trazado_1043770" data-name="Trazado 1043770" d="M177.416,134.948a8.782,8.782,0,0,1,5.14,1,8.564,8.564,0,0,1,4.073,5.082,8.105,8.105,0,0,1-.825,6.326,8.264,8.264,0,0,1-11.834,2.816,8.189,8.189,0,0,1-3.518-5.11,8.358,8.358,0,0,1,1.126-6.308,8.765,8.765,0,0,1,5.838-3.808" transform="translate(-126.908 -100.555)" fill="#747eca"/>
          <path id="Trazado_1043771" data-name="Trazado 1043771" d="M45.515,228.515a23.074,23.074,0,0,0,12.909-.362c.694,1.716,2.2,3.389,3.216,4.968l23.829,33.933L106.855,297.1h-4.876L80.385,266.5,59.992,237.631c-.626-.919-3.571-5.731-4.383-5.818l-1.358.068c-.52,1.38-.167,3.867-.163,5.392l.038,13.489L54.1,288.5l8.567.012a20.1,20.1,0,0,1,3.745.071,2.246,2.246,0,0,1,1.046.618c1.235,1.207.664,6,.665,7.795L37.4,296.992c-.007-1.8-.568-6.525.677-7.816a3.013,3.013,0,0,1,.789-.555,10.449,10.449,0,0,1,3.242-.172l8.124.072-.054-42.908.033-9.9c0-.978.25-2.972-.161-3.8a6.789,6.789,0,0,0-2,0L4.866,296.975l-4.866,0Z" transform="translate(0 -170.055)" fill="#303a72"/>
          <path id="Trazado_1043772" data-name="Trazado 1043772" d="M366.852,0a17.807,17.807,0,0,1,13.525,5.221,19.582,19.582,0,0,1,5.7,13.737c.016,3.546-1.145,7.87-3.738,10.413a7.078,7.078,0,0,1-1.64,1.206l-1.852.963-5.325,2.7-1.631.915a22.887,22.887,0,0,1-8.865-6.334,31.619,31.619,0,0,1-7.666-16.544,35.79,35.79,0,0,1-.015-6.036l1.686-1.013a.866.866,0,0,1,.065-.329c.751-2.021,4.22-3.245,6.039-4.05l1.943-.621Z" transform="translate(-264.764 0)" fill="#303a72"/>
          <path id="Trazado_1043773" data-name="Trazado 1043773" d="M384.774,1.519,386.717.9c-.238,1.7-.663,3.376-.771,5.087a25.788,25.788,0,0,0,5.459,17.347,21.584,21.584,0,0,0,7.907,6.532,12.962,12.962,0,0,1,3.026,1.385l-1.852.963c-4.309-1.934-7.629-3.939-10.421-7.871-5.108-7.194-6.773-14.078-5.292-22.822" transform="translate(-286.406 -0.669)" fill="#141e54"/>
          <path id="Trazado_1043774" data-name="Trazado 1043774" d="M363.132,3.336c-1.481,8.743.184,15.628,5.292,22.822,2.791,3.931,6.112,5.937,10.421,7.871l-5.325,2.7-1.631.915a22.887,22.887,0,0,1-8.865-6.334,31.619,31.619,0,0,1-7.666-16.544,35.79,35.79,0,0,1-.015-6.036l1.686-1.013a.866.866,0,0,1,.065-.329c.751-2.021,4.22-3.245,6.039-4.05" transform="translate(-264.764 -2.486)" fill="#303a72"/>
          <path id="Trazado_1043775" data-name="Trazado 1043775" d="M355.342,21.543l1.686-1.013a39.582,39.582,0,0,0-.038,6.629,30.5,30.5,0,0,0,7.573,16.148,22.484,22.484,0,0,0,6.266,5.1,21.524,21.524,0,0,1,2.691,1.13l-1.631.915a22.887,22.887,0,0,1-8.865-6.334,31.619,31.619,0,0,1-7.666-16.544,35.79,35.79,0,0,1-.015-6.036" transform="translate(-264.764 -15.302)" fill="#141e54"/>
        </g>
      </g>
    </g>
  </g>
</svg>
