<svg xmlns="http://www.w3.org/2000/svg" xmlns:xlink="http://www.w3.org/1999/xlink" width="770.842" height="567.311" viewBox="0 0 770.842 567.311">
  <defs>
    <linearGradient id="linear-gradient" x1="0.5" x2="0.5" y2="1" gradientUnits="objectBoundingBox">
      <stop offset="0" stop-color="#4ea25e"/>
      <stop offset="0.102" stop-color="#699b58"/>
      <stop offset="0.192" stop-color="#738d52"/>
      <stop offset="0.318" stop-color="#94953f"/>
      <stop offset="0.419" stop-color="#a28833"/>
      <stop offset="0.558" stop-color="#bc7b37"/>
      <stop offset="0.693" stop-color="#a0633e"/>
      <stop offset="0.815" stop-color="#ae593d"/>
      <stop offset="1" stop-color="#cb321e"/>
    </linearGradient>
  </defs>
  <g id="Grupo_1210267" data-name="Grupo 1210267" transform="translate(-315.158 -949.728)">
    <g id="_2142333" data-name="2142333" transform="translate(546 949.728)">
      <g id="OBJECTS" transform="translate(0 0)">
        <g id="Grupo_1210248" data-name="Grupo 1210248">
          <g id="Grupo_1210211" data-name="Grupo 1210211">
            <g id="Grupo_1210206" data-name="Grupo 1210206">
              <path id="Trazado_1050828" data-name="Trazado 1050828" d="M603.54,344.264l-180.66,104.3L242.2,344.264,422.88,239.94Z" transform="translate(-197.03 -142.578)" fill="#05612d"/>
              <path id="Trazado_1050829" data-name="Trazado 1050829" d="M332,291.78,557.83,422.159l-45.17,71.306L332,389.142Z" transform="translate(-106.15 -291.78)" fill="#04843b"/>
              <path id="Trazado_1050830" data-name="Trazado 1050830" d="M445.6,389.142,264.92,493.466l-45.17-71.306L445.6,291.78Z" transform="translate(-219.75 -291.78)" fill="#06ae4e"/>
            </g>
            <g id="Grupo_1210207" data-name="Grupo 1210207" transform="translate(45.17 117.482)">
              <path id="Trazado_1050831" data-name="Trazado 1050831" d="M535.65,285.728,400.16,363.955,264.65,285.728,400.16,207.48Z" transform="translate(-219.48 -110.138)" fill="#1f407c"/>
              <path id="Trazado_1050832" data-name="Trazado 1050832" d="M332,246.35,512.66,350.674,467.49,421.96,332,343.712Z" transform="translate(-151.32 -246.35)" fill="#2f559b"/>
              <path id="Trazado_1050833" data-name="Trazado 1050833" d="M422.88,343.712,287.37,421.96,242.2,350.674,422.88,246.35Z" transform="translate(-242.2 -246.35)" fill="#4169b1"/>
            </g>
            <g id="Grupo_1210208" data-name="Grupo 1210208" transform="translate(90.34 234.965)">
              <path id="Trazado_1050834" data-name="Trazado 1050834" d="M467.78,227.152,377.44,279.3,287.1,227.152,377.44,175Z" transform="translate(-241.93 -77.618)" fill="#a6400f"/>
              <path id="Trazado_1050835" data-name="Trazado 1050835" d="M332,297.872V200.51l135.49,78.228-45.15,71.286Z" transform="translate(-196.49 -199.665)" fill="#ce4f13"/>
              <path id="Trazado_1050836" data-name="Trazado 1050836" d="M400.16,298.3l-90.34,52.152-45.17-71.286L400.16,200.92Z" transform="translate(-264.65 -200.92)" fill="#f46622"/>
            </g>
            <g id="Grupo_1210209" data-name="Grupo 1210209" transform="translate(135.51 352.467)">
              <path id="Trazado_1050837" data-name="Trazado 1050837" d="M399.89,168.606l-45.17,26.076-45.17-26.076,45.17-26.076Z" transform="translate(-264.38 -45.168)" fill="#aa7e01"/>
              <path id="Trazado_1050838" data-name="Trazado 1050838" d="M332,155.49l90.34,52.152-45.17,71.286L332,252.852Z" transform="translate(-241.66 -155.49)" fill="#cc9600"/>
              <path id="Trazado_1050839" data-name="Trazado 1050839" d="M377.44,252.852l-45.17,26.076L287.1,207.642l90.34-52.152Z" transform="translate(-287.1 -155.49)" fill="#fdbe0e"/>
            </g>
            <g id="Grupo_1210210" data-name="Grupo 1210210" transform="translate(180.68 469.949)">
              <path id="Trazado_1050840" data-name="Trazado 1050840" d="M377.17,136.136,332,207.422V110.06Z" transform="translate(-286.83 -110.06)" fill="#c21b1d"/>
              <path id="Trazado_1050841" data-name="Trazado 1050841" d="M354.72,207.422l-45.17-71.286,45.17-26.076Z" transform="translate(-309.55 -110.06)" fill="#f31d1f"/>
            </g>
          </g>
        </g>
      </g>
    </g>
    <path id="Trazado_1053770" data-name="Trazado 1053770" d="M-487.96,6339.806h170.088" transform="translate(944.468 -5258.34)" fill="none" stroke="#8a08ff" stroke-width="2"/>
    <path id="Trazado_1053772" data-name="Trazado 1053772" d="M-487.96,6339.806h170.088" transform="translate(1008.807 -5167.34)" fill="none" stroke="#8a08ff" stroke-width="2"/>
    <path id="Trazado_1053774" data-name="Trazado 1053774" d="M-487.96,6339.806h170.088" transform="translate(1027.933 -5070.34)" fill="none" stroke="#8a08ff" stroke-width="2"/>
    <path id="Trazado_1053778" data-name="Trazado 1053778" d="M-487.96,6339.806h170.088" transform="translate(1071.309 -4880.34)" fill="none" stroke="#8a08ff" stroke-width="2"/>
    <g id="Trazado_1052648" data-name="Trazado 1052648" transform="translate(275.159 1060.966)" fill="#fff">
      <path d="M 196.825927734375 39 L 77.82416534423828 39 C 73.35224151611328 39 69.14131927490234 37.03850173950195 65.96712493896484 33.47679901123047 C 64.41222381591797 31.73209953308105 63.19068145751953 29.69837951660156 62.33644104003906 27.43218040466309 C 61.44964218139648 25.07962036132812 61.00000381469727 22.57908058166504 61.00000381469727 20 C 61.00000381469727 17.42091941833496 61.44964218139648 14.92037963867188 62.33644104003906 12.56781959533691 C 63.19068145751953 10.30161952972412 64.41222381591797 8.267900466918945 65.96712493896484 6.523200035095215 C 69.14131927490234 2.961499929428101 73.35224151611328 1 77.82416534423828 1 L 196.825927734375 1 C 201.2978363037109 1 205.5087432861328 2.961499929428101 208.6829376220703 6.523200035095215 C 210.2378387451172 8.267900466918945 211.4593811035156 10.30161952972412 212.3136291503906 12.56781959533691 C 213.2004241943359 14.92037963867188 213.6500701904297 17.42091941833496 213.6500701904297 20 C 213.6500701904297 22.57908058166504 213.2004241943359 25.07962036132812 212.3136291503906 27.43218040466309 C 211.4593811035156 29.69837951660156 210.2378387451172 31.73209953308105 208.6829376220703 33.47679901123047 C 205.5087432861328 37.03850173950195 201.2978363037109 39 196.825927734375 39 Z" stroke="none"/>
      <path d="M 77.82414245605469 2 C 69.09869384765625 2 62 10.07476997375488 62 20 C 62 29.92522811889648 69.09869384765625 38 77.82414245605469 38 L 196.825927734375 38 C 205.5513763427734 38 212.6500549316406 29.92522811889648 212.6500549316406 20 C 212.6500549316406 10.07476997375488 205.5513763427734 2 196.825927734375 2 L 77.82414245605469 2 M 77.82414245605469 0 L 196.825927734375 0 C 206.669921875 0 214.6500549316406 8.954313278198242 214.6500549316406 20 C 214.6500549316406 31.04568862915039 206.669921875 40 196.825927734375 40 L 77.82414245605469 40 C 67.98014831542969 40 60 31.04568862915039 60 20 C 60 8.954313278198242 67.98014831542969 0 77.82414245605469 0 Z" stroke="none" fill="#8a08ff"/>
    </g>
    <g id="Trazado_1053771" data-name="Trazado 1053771" transform="translate(355.956 1151.966)" fill="#fff">
      <path d="M 196.825927734375 39.00003051757812 L 77.82416534423828 39.00003051757812 C 73.35224151611328 39.00003051757812 69.14131927490234 37.03850936889648 65.96712493896484 33.47682952880859 C 64.41222381591797 31.73210906982422 63.19068145751953 29.69841003417969 62.33644104003906 27.43218994140625 C 61.44964218139648 25.07962989807129 61.00000381469727 22.5790901184082 61.00000381469727 20.00000953674316 C 61.00000381469727 17.42092895507812 61.44964218139648 14.92038917541504 62.33644104003906 12.56782913208008 C 63.19068145751953 10.30162906646729 64.41222381591797 8.267910003662109 65.96712493896484 6.523209571838379 C 69.14131927490234 2.961509466171265 73.35224151611328 1.000009536743164 77.82416534423828 1.000009536743164 L 196.825927734375 1.000009536743164 C 201.2978363037109 1.000009536743164 205.5087432861328 2.961509466171265 208.6829376220703 6.523209571838379 C 210.2378387451172 8.267910003662109 211.4593811035156 10.30162906646729 212.3136291503906 12.56782913208008 C 213.2004241943359 14.92038917541504 213.6500701904297 17.42092895507812 213.6500701904297 20.00000953674316 C 213.6500701904297 22.5790901184082 213.2004241943359 25.07962989807129 212.3136291503906 27.43218994140625 C 211.4593811035156 29.69841003417969 210.2378387451172 31.73210906982422 208.6829376220703 33.47682952880859 C 205.5087432861328 37.03850936889648 201.2978363037109 39.00003051757812 196.825927734375 39.00003051757812 Z" stroke="none"/>
      <path d="M 77.82414245605469 2.000011444091797 C 69.09869384765625 2.000011444091797 62 10.07477951049805 62 20.00000953674316 C 62 29.92523956298828 69.09869384765625 38.00000762939453 77.82414245605469 38.00000762939453 L 196.825927734375 38.00000762939453 C 205.5513763427734 38.00000762939453 212.6500549316406 29.92523956298828 212.6500549316406 20.00000953674316 C 212.6500549316406 10.07477951049805 205.5513763427734 2.000011444091797 196.825927734375 2.000011444091797 L 77.82414245605469 2.000011444091797 M 77.82414245605469 1.1444091796875e-05 L 196.825927734375 1.1444091796875e-05 C 206.669921875 1.1444091796875e-05 214.6500549316406 8.954301834106445 214.6500549316406 20.00000953674316 C 214.6500549316406 31.04571914672852 206.669921875 40.00000762939453 196.825927734375 40.00000762939453 L 77.82414245605469 40.00000762939453 C 67.98014831542969 40.00000762939453 60 31.04571914672852 60 20.00000953674316 C 60 8.954301834106445 67.98014831542969 1.1444091796875e-05 77.82414245605469 1.1444091796875e-05 Z" stroke="none" fill="#8a08ff"/>
    </g>
    <g id="Trazado_1053773" data-name="Trazado 1053773" transform="translate(349.063 1248.966)" fill="#fff">
      <path d="M 246.8258209228516 39 L 44.82416915893555 39 C 40.35226058959961 39 36.141357421875 37.03850173950195 32.96716690063477 33.47681427001953 C 31.41226196289062 31.73209381103516 30.19073104858398 29.6983757019043 29.33648109436035 27.43218803405762 C 28.44969940185547 25.07962417602539 28.00004386901855 22.57906341552734 28.00004386901855 20 C 28.00004386901855 17.42093658447266 28.44969940185547 14.92037487030029 29.33648109436035 12.5678129196167 C 30.19073104858398 10.30162525177002 31.41226196289062 8.267906188964844 32.96716690063477 6.523187637329102 C 36.141357421875 2.961499929428101 40.35226058959961 1 44.82416915893555 1 L 246.8258209228516 1 C 251.2977600097656 1 255.5086669921875 2.961499929428101 258.6828918457031 6.523187637329102 C 260.23779296875 8.267906188964844 261.4593200683594 10.30162525177002 262.3135681152344 12.5678129196167 C 263.2003479003906 14.92037487030029 263.6500244140625 17.42093658447266 263.6500244140625 20 C 263.6500244140625 22.57906341552734 263.2003479003906 25.07962417602539 262.3135681152344 27.43218803405762 C 261.4593200683594 29.6983757019043 260.23779296875 31.73209381103516 258.6828918457031 33.47681427001953 C 255.5086669921875 37.03850173950195 251.2977600097656 39 246.8258209228516 39 Z" stroke="none"/>
      <path d="M 44.82417297363281 2 C 36.09869384765625 2 29 10.07478141784668 29 20 C 29 29.92521858215332 36.09869384765625 38 44.82417297363281 38 L 246.8258209228516 38 C 255.5513000488281 38 262.6499938964844 29.92521858215332 262.6499938964844 20 C 262.6499938964844 10.07478141784668 255.5513000488281 2 246.8258209228516 2 L 44.82417297363281 2 M 44.82417297363281 0 L 246.8258209228516 0 C 256.6698608398438 0 264.6499938964844 8.954313278198242 264.6499938964844 20 C 264.6499938964844 31.04568862915039 256.6698608398438 40 246.8258209228516 40 L 44.82417297363281 40 C 34.98016357421875 40 27 31.04568862915039 27 20 C 27 8.954313278198242 34.98016357421875 0 44.82417297363281 0 Z" stroke="none" fill="#8a08ff"/>
    </g>
    <g id="Trazado_1053777" data-name="Trazado 1053777" transform="translate(281.885 1438.966)" fill="#fff">
      <path d="M 392.8258666992188 39 L 77.82415008544922 39 C 73.35224151611328 39 69.14132690429688 37.03850173950195 65.96714782714844 33.4768180847168 C 64.41223907470703 31.73208999633789 63.19069290161133 29.6983642578125 62.33646774291992 27.43218231201172 C 61.44964981079102 25.07963562011719 61.0000114440918 22.5790901184082 61.0000114440918 20 C 61.0000114440918 17.4209098815918 61.44964981079102 14.9203634262085 62.33646774291992 12.5678186416626 C 63.19069290161133 10.30163669586182 64.41223907470703 8.267909049987793 65.96714782714844 6.523181915283203 C 69.14132690429688 2.961499929428101 73.35224151611328 1 77.82415008544922 1 L 392.8258666992188 1 C 397.2977905273438 1 401.5086975097656 2.961499929428101 404.682861328125 6.523181915283203 C 406.23779296875 8.267909049987793 407.4593200683594 10.30163669586182 408.3135681152344 12.5678186416626 C 409.2003784179688 14.9203634262085 409.6500244140625 17.4209098815918 409.6500244140625 20 C 409.6500244140625 22.5790901184082 409.2003784179688 25.07963562011719 408.3135681152344 27.43218231201172 C 407.4593200683594 29.6983642578125 406.23779296875 31.73208999633789 404.682861328125 33.4768180847168 C 401.5086975097656 37.03850173950195 397.2977905273438 39 392.8258666992188 39 Z" stroke="none"/>
      <path d="M 77.82415771484375 2 C 69.09869384765625 2 62 10.07477188110352 62 20 C 62 29.92522811889648 69.09869384765625 38 77.82415771484375 38 L 392.8258666992188 38 C 401.5513305664062 38 408.6500244140625 29.92522811889648 408.6500244140625 20 C 408.6500244140625 10.07477188110352 401.5513305664062 2 392.8258666992188 2 L 77.82415771484375 2 M 77.82415771484375 0 L 392.8258666992188 0 C 402.6698608398438 0 410.6500244140625 8.954319000244141 410.6500244140625 20 C 410.6500244140625 31.04568099975586 402.6698608398438 40 392.8258666992188 40 L 77.82415771484375 40 C 67.98016357421875 40 60 31.04568099975586 60 20 C 60 8.954319000244141 67.98016357421875 0 77.82415771484375 0 Z" stroke="none" fill="#8a08ff"/>
    </g>
    <g id="Elipse_13431" data-name="Elipse 13431" transform="translate(315.158 1050.966)" fill="#fff" stroke="#8a08ff" stroke-width="2">
      <ellipse cx="30" cy="30" rx="30" ry="30" stroke="none"/>
      <ellipse cx="30" cy="30" rx="29" ry="29" fill="none"/>
    </g>
    <g id="Elipse_13434" data-name="Elipse 13434" transform="translate(395.956 1141.966)" fill="#fff" stroke="#8a08ff" stroke-width="2">
      <ellipse cx="30" cy="30" rx="30" ry="30" stroke="none"/>
      <ellipse cx="30" cy="30" rx="29" ry="29" fill="none"/>
    </g>
    <g id="Elipse_13435" data-name="Elipse 13435" transform="translate(351.807 1238.966)" fill="#fff" stroke="#8a08ff" stroke-width="2">
      <ellipse cx="30" cy="30" rx="30" ry="30" stroke="none"/>
      <ellipse cx="30" cy="30" rx="29" ry="29" fill="none"/>
    </g>
    <g id="Elipse_13437" data-name="Elipse 13437" transform="translate(315.158 1428.966)" fill="#fff" stroke="#8a08ff" stroke-width="2">
      <circle cx="30" cy="30" r="30" stroke="none"/>
      <circle cx="30" cy="30" r="29" fill="none"/>
    </g>
    <path id="Trazado_1054174" data-name="Trazado 1054174" d="M8,0H1.281V-11.2H7.742v2.055H3.8v2.492H7.469v2.047H3.8v2.563H8Zm4.025,0H9.556V-11.844h2.469Zm3.33-9.266a1.442,1.442,0,0,1-1.023-.371,1.2,1.2,0,0,1-.4-.91,1.153,1.153,0,0,1,.4-.906,1.49,1.49,0,0,1,1.023-.352,1.486,1.486,0,0,1,1.027.352,1.158,1.158,0,0,1,.395.906,1.191,1.191,0,0,1-.395.922A1.466,1.466,0,0,1,15.355-9.266ZM16.574,0H14.1V-8h2.469ZM31.356,0H28.9V-4.562Q28.9-6.3,27.614-6.3a1.177,1.177,0,0,0-.992.523,2.151,2.151,0,0,0-.383,1.3V0H23.77V-4.609q0-1.7-1.258-1.7a1.206,1.206,0,0,0-1.012.5,2.2,2.2,0,0,0-.379,1.359V0H18.653V-8h2.469v1.25h.031a2.952,2.952,0,0,1,1.074-1.043,2.952,2.952,0,0,1,1.512-.4A2.3,2.3,0,0,1,26.059-6.7,2.959,2.959,0,0,1,28.747-8.2q2.609,0,2.609,3.219Zm3.2-9.266a1.442,1.442,0,0,1-1.023-.371,1.2,1.2,0,0,1-.4-.91,1.153,1.153,0,0,1,.4-.906,1.49,1.49,0,0,1,1.023-.352,1.486,1.486,0,0,1,1.027.352,1.158,1.158,0,0,1,.395.906,1.191,1.191,0,0,1-.395.922A1.466,1.466,0,0,1,34.561-9.266ZM35.78,0H33.311V-8H35.78Zm9.806,0H43.125V-4.445Q43.125-6.3,41.8-6.3a1.318,1.318,0,0,0-1.055.492,1.875,1.875,0,0,0-.414,1.25V0H37.86V-8h2.469v1.266h.031A2.829,2.829,0,0,1,42.93-8.2q2.656,0,2.656,3.3ZM54.2,0H51.861V-1.148H51.83A2.607,2.607,0,0,1,49.447.2a2.492,2.492,0,0,1-1.832-.66,2.366,2.366,0,0,1-.668-1.762q0-2.328,2.758-2.687L51.877-5.2q0-1.312-1.422-1.312a4.853,4.853,0,0,0-2.719.852V-7.523a6.116,6.116,0,0,1,1.41-.469,7.413,7.413,0,0,1,1.629-.2Q54.2-8.2,54.2-4.781Zm-2.32-3.25v-.539L50.424-3.6q-1.2.156-1.2,1.086a.9.9,0,0,0,.293.691,1.126,1.126,0,0,0,.793.27,1.462,1.462,0,0,0,1.133-.48A1.735,1.735,0,0,0,51.877-3.25ZM62.214-.289A4.881,4.881,0,0,1,59.8.2,4.083,4.083,0,0,1,56.816-.922,3.859,3.859,0,0,1,55.675-3.8,4.251,4.251,0,0,1,56.9-7.02,4.518,4.518,0,0,1,60.167-8.2a4.2,4.2,0,0,1,2.047.375v2.094A2.814,2.814,0,0,0,60.488-6.3a2.275,2.275,0,0,0-1.684.621,2.317,2.317,0,0,0-.621,1.715A2.28,2.28,0,0,0,58.777-2.3,2.182,2.182,0,0,0,60.41-1.7a3.258,3.258,0,0,0,1.8-.578Zm2.869-8.977a1.442,1.442,0,0,1-1.023-.371,1.2,1.2,0,0,1-.4-.91,1.153,1.153,0,0,1,.4-.906,1.49,1.49,0,0,1,1.023-.352,1.486,1.486,0,0,1,1.027.352,1.158,1.158,0,0,1,.395.906,1.191,1.191,0,0,1-.395.922A1.466,1.466,0,0,1,65.083-9.266ZM66.3,0H63.833V-8H66.3Zm5.892.2A4.3,4.3,0,0,1,69.05-.926a4.064,4.064,0,0,1-1.145-3.043,4.065,4.065,0,0,1,1.188-3.105A4.487,4.487,0,0,1,72.3-8.2a4.249,4.249,0,0,1,3.125,1.121,3.985,3.985,0,0,1,1.133,2.965A4.23,4.23,0,0,1,75.393-.961,4.348,4.348,0,0,1,72.194.2Zm.063-6.5a1.647,1.647,0,0,0-1.359.6A2.653,2.653,0,0,0,70.413-4q0,2.3,1.859,2.3,1.773,0,1.773-2.367Q74.046-6.3,72.257-6.3Zm2.648-5.484L72.46-9.266H70.678l2.031-2.523ZM85.883,0H83.422V-4.445q0-1.859-1.328-1.859a1.318,1.318,0,0,0-1.055.492,1.875,1.875,0,0,0-.414,1.25V0H78.157V-8h2.469v1.266h.031A2.829,2.829,0,0,1,83.227-8.2q2.656,0,2.656,3.3Z" transform="translate(384.484 1087.193)" fill="#212429"/>
    <path id="Trazado_1054175" data-name="Trazado 1054175" d="M.766-.43v-2.5a4.8,4.8,0,0,0,1.477.855,4.746,4.746,0,0,0,1.609.285,3.569,3.569,0,0,0,.832-.086,1.949,1.949,0,0,0,.594-.238,1.039,1.039,0,0,0,.355-.359.9.9,0,0,0,.117-.449.971.971,0,0,0-.187-.586,2.018,2.018,0,0,0-.512-.477,5.347,5.347,0,0,0-.77-.422q-.445-.2-.961-.414A4.9,4.9,0,0,1,1.363-6.156,2.917,2.917,0,0,1,.719-8.062a3.036,3.036,0,0,1,.352-1.5A2.986,2.986,0,0,1,2.027-10.6a4.291,4.291,0,0,1,1.4-.6,7.206,7.206,0,0,1,1.688-.191,10.15,10.15,0,0,1,1.551.105,6.1,6.1,0,0,1,1.246.324v2.336A3.768,3.768,0,0,0,7.3-8.969a4.859,4.859,0,0,0-.684-.246,5.214,5.214,0,0,0-.7-.145,4.949,4.949,0,0,0-.66-.047,3.443,3.443,0,0,0-.781.082,2,2,0,0,0-.594.23,1.147,1.147,0,0,0-.375.355.843.843,0,0,0-.133.465.888.888,0,0,0,.148.5,1.7,1.7,0,0,0,.422.422,4.477,4.477,0,0,0,.664.391q.391.191.883.395a9.837,9.837,0,0,1,1.207.6,4.291,4.291,0,0,1,.918.715,2.785,2.785,0,0,1,.586.91,3.216,3.216,0,0,1,.2,1.191,3.191,3.191,0,0,1-.355,1.574A2.886,2.886,0,0,1,7.086-.543,4.184,4.184,0,0,1,5.668.023,8.2,8.2,0,0,1,3.961.2,9.492,9.492,0,0,1,2.207.039,5.3,5.3,0,0,1,.766-.43ZM17.611,0H15.15V-1.219h-.039A2.792,2.792,0,0,1,12.666.2Q9.884.2,9.884-3.172V-8h2.461v4.609q0,1.7,1.344,1.7a1.329,1.329,0,0,0,1.063-.465,1.874,1.874,0,0,0,.4-1.262V-8h2.461Zm1.556-.211v-2a5.256,5.256,0,0,0,1.215.547,4.028,4.028,0,0,0,1.145.18,2.455,2.455,0,0,0,1.035-.18.581.581,0,0,0,.379-.547.506.506,0,0,0-.172-.391,1.6,1.6,0,0,0-.441-.273,5.009,5.009,0,0,0-.59-.211q-.32-.094-.617-.211a5.913,5.913,0,0,1-.84-.387,2.427,2.427,0,0,1-.609-.48A1.889,1.889,0,0,1,19.3-4.8a2.525,2.525,0,0,1-.129-.852A2.192,2.192,0,0,1,19.46-6.8a2.393,2.393,0,0,1,.781-.793,3.57,3.57,0,0,1,1.117-.453A5.825,5.825,0,0,1,22.667-8.2a7.261,7.261,0,0,1,1.078.082,8.047,8.047,0,0,1,1.078.238v1.906a3.9,3.9,0,0,0-1-.41,4.235,4.235,0,0,0-1.051-.137,2.328,2.328,0,0,0-.457.043,1.505,1.505,0,0,0-.379.125.7.7,0,0,0-.258.211.486.486,0,0,0-.094.293.541.541,0,0,0,.141.375,1.221,1.221,0,0,0,.367.27,3.625,3.625,0,0,0,.5.2q.277.09.551.184a7.161,7.161,0,0,1,.891.375,2.848,2.848,0,0,1,.684.477,1.871,1.871,0,0,1,.438.641,2.277,2.277,0,0,1,.152.875A2.282,2.282,0,0,1,25-1.23a2.471,2.471,0,0,1-.82.82A3.72,3.72,0,0,1,23,.051,6.54,6.54,0,0,1,21.613.2,7.149,7.149,0,0,1,19.167-.211Zm12.4.117A3.649,3.649,0,0,1,29.919.2q-2.609,0-2.609-2.711V-6.18h-1.3V-8h1.3V-9.727l2.461-.7V-8h1.8v1.82h-1.8v3.234q0,1.25.992,1.25a1.673,1.673,0,0,0,.8-.227ZM34.21-9.266a1.442,1.442,0,0,1-1.023-.371,1.2,1.2,0,0,1-.4-.91,1.153,1.153,0,0,1,.4-.906A1.49,1.49,0,0,1,34.21-11.8a1.486,1.486,0,0,1,1.027.352,1.158,1.158,0,0,1,.395.906,1.191,1.191,0,0,1-.395.922A1.466,1.466,0,0,1,34.21-9.266ZM35.428,0H32.96V-8h2.469Zm6.916-.094A3.649,3.649,0,0,1,40.7.2q-2.609,0-2.609-2.711V-6.18h-1.3V-8h1.3V-9.727l2.461-.7V-8h1.8v1.82h-1.8v3.234q0,1.25.992,1.25a1.673,1.673,0,0,0,.8-.227ZM51.338,0H48.877V-1.219h-.039A2.792,2.792,0,0,1,46.392.2q-2.781,0-2.781-3.367V-8h2.461v4.609q0,1.7,1.344,1.7a1.329,1.329,0,0,0,1.063-.465,1.874,1.874,0,0,0,.4-1.262V-8h2.461ZM59.48-.289A4.881,4.881,0,0,1,57.066.2,4.083,4.083,0,0,1,54.082-.922,3.859,3.859,0,0,1,52.941-3.8,4.251,4.251,0,0,1,54.164-7.02,4.518,4.518,0,0,1,57.433-8.2a4.2,4.2,0,0,1,2.047.375v2.094A2.814,2.814,0,0,0,57.753-6.3a2.275,2.275,0,0,0-1.684.621,2.317,2.317,0,0,0-.621,1.715A2.28,2.28,0,0,0,56.042-2.3a2.182,2.182,0,0,0,1.633.605,3.258,3.258,0,0,0,1.8-.578Zm2.869-8.977a1.442,1.442,0,0,1-1.023-.371,1.2,1.2,0,0,1-.4-.91,1.153,1.153,0,0,1,.4-.906,1.49,1.49,0,0,1,1.023-.352,1.486,1.486,0,0,1,1.027.352,1.158,1.158,0,0,1,.395.906,1.191,1.191,0,0,1-.395.922A1.466,1.466,0,0,1,62.349-9.266ZM63.567,0H61.1V-8h2.469ZM69.46.2A4.3,4.3,0,0,1,66.315-.926a4.064,4.064,0,0,1-1.145-3.043,4.065,4.065,0,0,1,1.188-3.105A4.487,4.487,0,0,1,69.569-8.2a4.249,4.249,0,0,1,3.125,1.121,3.985,3.985,0,0,1,1.133,2.965A4.23,4.23,0,0,1,72.659-.961,4.348,4.348,0,0,1,69.46.2Zm.063-6.5a1.647,1.647,0,0,0-1.359.6A2.653,2.653,0,0,0,67.678-4q0,2.3,1.859,2.3,1.773,0,1.773-2.367Q71.311-6.3,69.522-6.3Zm2.648-5.484L69.725-9.266H67.944l2.031-2.523ZM83.149,0H80.688V-4.445q0-1.859-1.328-1.859a1.318,1.318,0,0,0-1.055.492,1.875,1.875,0,0,0-.414,1.25V0H75.422V-8h2.469v1.266h.031A2.829,2.829,0,0,1,80.493-8.2q2.656,0,2.656,3.3Z" transform="translate(467.281 1178.193)" fill="#212429"/>
    <path id="Trazado_1054176" data-name="Trazado 1054176" d="M9.313-.4A7.388,7.388,0,0,1,6.109.2,5.4,5.4,0,0,1,2.055-1.32,5.54,5.54,0,0,1,.578-5.359a5.919,5.919,0,0,1,1.66-4.359,5.807,5.807,0,0,1,4.309-1.672,8.058,8.058,0,0,1,2.766.414v2.43A4.9,4.9,0,0,0,6.75-9.219,3.4,3.4,0,0,0,4.2-8.227a3.682,3.682,0,0,0-.969,2.688,3.611,3.611,0,0,0,.914,2.59,3.229,3.229,0,0,0,2.461.965,5.249,5.249,0,0,0,2.7-.719ZM14.838.2A4.3,4.3,0,0,1,11.693-.926a4.064,4.064,0,0,1-1.145-3.043,4.065,4.065,0,0,1,1.188-3.105A4.487,4.487,0,0,1,14.947-8.2a4.249,4.249,0,0,1,3.125,1.121A3.985,3.985,0,0,1,19.2-4.109,4.23,4.23,0,0,1,18.037-.961,4.348,4.348,0,0,1,14.838.2ZM14.9-6.3a1.647,1.647,0,0,0-1.359.6A2.653,2.653,0,0,0,13.056-4q0,2.3,1.859,2.3,1.773,0,1.773-2.367Q16.689-6.3,14.9-6.3ZM28.534,0H26.074V-4.445q0-1.859-1.328-1.859a1.318,1.318,0,0,0-1.055.492,1.875,1.875,0,0,0-.414,1.25V0H20.808V-8h2.469v1.266h.031A2.829,2.829,0,0,1,25.878-8.2q2.656,0,2.656,3.3Zm6.791-.094A3.649,3.649,0,0,1,33.677.2q-2.609,0-2.609-2.711V-6.18h-1.3V-8h1.3V-9.727l2.461-.7V-8h1.8v1.82h-1.8v3.234q0,1.25.992,1.25a1.673,1.673,0,0,0,.8-.227Zm6.611-5.68A2.142,2.142,0,0,0,40.9-6.016a1.5,1.5,0,0,0-1.258.59,2.573,2.573,0,0,0-.453,1.605V0H36.717V-8h2.469v1.484h.031a2.136,2.136,0,0,1,2.109-1.625,1.59,1.59,0,0,1,.609.094ZM46.836.2A4.3,4.3,0,0,1,43.692-.926a4.064,4.064,0,0,1-1.145-3.043,4.065,4.065,0,0,1,1.188-3.105A4.487,4.487,0,0,1,46.945-8.2,4.249,4.249,0,0,1,50.07-7.074,3.985,3.985,0,0,1,51.2-4.109,4.23,4.23,0,0,1,50.035-.961,4.348,4.348,0,0,1,46.836.2ZM46.9-6.3a1.647,1.647,0,0,0-1.359.6A2.653,2.653,0,0,0,45.055-4q0,2.3,1.859,2.3,1.773,0,1.773-2.367Q48.688-6.3,46.9-6.3ZM55.275,0H52.806V-11.844h2.469Zm9.267-3.3H59.324q.125,1.742,2.2,1.742a4.286,4.286,0,0,0,2.32-.625V-.4A6.1,6.1,0,0,1,60.957.2,4.058,4.058,0,0,1,57.949-.879a4.058,4.058,0,0,1-1.07-3,4.281,4.281,0,0,1,1.156-3.156A3.852,3.852,0,0,1,60.878-8.2a3.5,3.5,0,0,1,2.707,1.039,4,4,0,0,1,.957,2.82ZM62.253-4.812q0-1.719-1.391-1.719a1.328,1.328,0,0,0-1.027.492,2.234,2.234,0,0,0-.527,1.227Zm3.236,4.6v-2a5.256,5.256,0,0,0,1.215.547,4.028,4.028,0,0,0,1.145.18,2.455,2.455,0,0,0,1.035-.18.581.581,0,0,0,.379-.547.506.506,0,0,0-.172-.391,1.6,1.6,0,0,0-.441-.273,5.009,5.009,0,0,0-.59-.211q-.32-.094-.617-.211a5.913,5.913,0,0,1-.84-.387,2.427,2.427,0,0,1-.609-.48,1.889,1.889,0,0,1-.375-.633,2.525,2.525,0,0,1-.129-.852A2.192,2.192,0,0,1,65.782-6.8a2.393,2.393,0,0,1,.781-.793,3.57,3.57,0,0,1,1.117-.453A5.825,5.825,0,0,1,68.989-8.2a7.261,7.261,0,0,1,1.078.082,8.047,8.047,0,0,1,1.078.238v1.906a3.9,3.9,0,0,0-1-.41,4.235,4.235,0,0,0-1.051-.137,2.328,2.328,0,0,0-.457.043,1.505,1.505,0,0,0-.379.125A.7.7,0,0,0,68-6.137a.486.486,0,0,0-.094.293.541.541,0,0,0,.141.375,1.221,1.221,0,0,0,.367.27,3.625,3.625,0,0,0,.5.2q.277.09.551.184a7.161,7.161,0,0,1,.891.375,2.848,2.848,0,0,1,.684.477,1.872,1.872,0,0,1,.438.641,2.277,2.277,0,0,1,.152.875,2.282,2.282,0,0,1-.309,1.215,2.471,2.471,0,0,1-.82.82,3.72,3.72,0,0,1-1.18.461A6.54,6.54,0,0,1,67.935.2,7.149,7.149,0,0,1,65.489-.211ZM85.3,0H82.828V-1.1H82.8A2.768,2.768,0,0,1,80.321.2,3.033,3.033,0,0,1,77.907-.863a4.382,4.382,0,0,1-.914-2.957A4.77,4.77,0,0,1,78-7a3.287,3.287,0,0,1,2.641-1.2A2.246,2.246,0,0,1,82.8-7.086h.031v-4.758H85.3ZM82.875-3.891v-.6a1.893,1.893,0,0,0-.453-1.3,1.5,1.5,0,0,0-1.18-.516,1.487,1.487,0,0,0-1.281.645,2.993,2.993,0,0,0-.461,1.77,2.59,2.59,0,0,0,.445,1.625,1.479,1.479,0,0,0,1.234.57A1.485,1.485,0,0,0,82.4-2.3,2.507,2.507,0,0,0,82.875-3.891ZM94.564-3.3H89.346q.125,1.742,2.2,1.742a4.286,4.286,0,0,0,2.32-.625V-.4A6.1,6.1,0,0,1,90.979.2,4.058,4.058,0,0,1,87.971-.879a4.058,4.058,0,0,1-1.07-3,4.281,4.281,0,0,1,1.156-3.156A3.852,3.852,0,0,1,90.9-8.2a3.5,3.5,0,0,1,2.707,1.039,4,4,0,0,1,.957,2.82ZM92.275-4.812q0-1.719-1.391-1.719a1.328,1.328,0,0,0-1.027.492,2.234,2.234,0,0,0-.527,1.227ZM101.7-9.266a1.442,1.442,0,0,1-1.023-.371,1.2,1.2,0,0,1-.4-.91,1.153,1.153,0,0,1,.4-.906A1.49,1.49,0,0,1,101.7-11.8a1.486,1.486,0,0,1,1.027.352,1.158,1.158,0,0,1,.395.906,1.191,1.191,0,0,1-.395.922A1.466,1.466,0,0,1,101.7-9.266ZM102.919,0H100.45V-8h2.469Zm9.806,0h-2.461V-4.445q0-1.859-1.328-1.859a1.318,1.318,0,0,0-1.055.492,1.875,1.875,0,0,0-.414,1.25V0H105V-8h2.469v1.266h.031a2.829,2.829,0,0,1,2.57-1.461q2.656,0,2.656,3.3Zm9.8-.914a4.526,4.526,0,0,1-1.289,3.449A5.224,5.224,0,0,1,117.5,3.758a5.919,5.919,0,0,1-2.562-.461V1.219a4.907,4.907,0,0,0,2.492.719,2.684,2.684,0,0,0,1.938-.66,2.369,2.369,0,0,0,.688-1.793v-.633h-.031A2.757,2.757,0,0,1,117.532.2,3,3,0,0,1,115.1-.883a4.372,4.372,0,0,1-.9-2.891A4.87,4.87,0,0,1,115.2-7a3.265,3.265,0,0,1,2.633-1.2,2.429,2.429,0,0,1,2.188,1.125h.031V-8h2.469Zm-2.437-2.93v-.633a1.945,1.945,0,0,0-.449-1.293,1.453,1.453,0,0,0-1.168-.535,1.51,1.51,0,0,0-1.289.641,3.012,3.012,0,0,0-.469,1.8,2.543,2.543,0,0,0,.445,1.582,1.451,1.451,0,0,0,1.219.582,1.511,1.511,0,0,0,1.238-.59A2.418,2.418,0,0,0,120.087-3.844Zm11.689.547h-5.219q.125,1.742,2.2,1.742a4.286,4.286,0,0,0,2.32-.625V-.4A6.1,6.1,0,0,1,128.19.2a4.058,4.058,0,0,1-3.008-1.074,4.058,4.058,0,0,1-1.07-3,4.281,4.281,0,0,1,1.156-3.156A3.852,3.852,0,0,1,128.112-8.2a3.5,3.5,0,0,1,2.707,1.039,4,4,0,0,1,.957,2.82Zm-2.289-1.516q0-1.719-1.391-1.719a1.328,1.328,0,0,0-1.027.492,2.234,2.234,0,0,0-.527,1.227ZM140.973,0h-2.461V-4.445q0-1.859-1.328-1.859a1.318,1.318,0,0,0-1.055.492,1.875,1.875,0,0,0-.414,1.25V0h-2.469V-8h2.469v1.266h.031a2.829,2.829,0,0,1,2.57-1.461q2.656,0,2.656,3.3Zm3.2-9.266a1.442,1.442,0,0,1-1.023-.371,1.2,1.2,0,0,1-.4-.91,1.153,1.153,0,0,1,.4-.906,1.49,1.49,0,0,1,1.023-.352,1.486,1.486,0,0,1,1.027.352,1.158,1.158,0,0,1,.395.906,1.191,1.191,0,0,1-.395.922A1.466,1.466,0,0,1,144.177-9.266ZM145.4,0h-2.469V-8H145.4Zm9.267-3.3h-5.219q.125,1.742,2.2,1.742a4.286,4.286,0,0,0,2.32-.625V-.4A6.1,6.1,0,0,1,151.077.2a4.058,4.058,0,0,1-3.008-1.074,4.058,4.058,0,0,1-1.07-3,4.281,4.281,0,0,1,1.156-3.156A3.852,3.852,0,0,1,151-8.2a3.5,3.5,0,0,1,2.707,1.039,4,4,0,0,1,.957,2.82Zm-2.289-1.516q0-1.719-1.391-1.719a1.328,1.328,0,0,0-1.027.492,2.234,2.234,0,0,0-.527,1.227Zm8.978-.961a2.142,2.142,0,0,0-1.039-.242,1.5,1.5,0,0,0-1.258.59A2.573,2.573,0,0,0,158.6-3.82V0h-2.469V-8H158.6v1.484h.031a2.136,2.136,0,0,1,2.109-1.625,1.59,1.59,0,0,1,.609.094ZM164.971,0H162.5V-8h2.469Zm1.273-11.789L163.8-9.266h-1.781l2.031-2.523ZM173.707,0h-2.336V-1.148h-.031A2.607,2.607,0,0,1,168.957.2a2.492,2.492,0,0,1-1.832-.66,2.366,2.366,0,0,1-.668-1.762q0-2.328,2.758-2.687l2.172-.289q0-1.312-1.422-1.312a4.853,4.853,0,0,0-2.719.852V-7.523a6.116,6.116,0,0,1,1.41-.469,7.413,7.413,0,0,1,1.629-.2q3.422,0,3.422,3.414Zm-2.32-3.25v-.539l-1.453.188q-1.2.156-1.2,1.086a.9.9,0,0,0,.293.691,1.126,1.126,0,0,0,.793.27,1.462,1.462,0,0,0,1.133-.48A1.735,1.735,0,0,0,171.387-3.25Z" transform="translate(420.315 1275.193)" fill="#212429"/>
    <g id="Grupo_1210249" data-name="Grupo 1210249" transform="translate(615.817 1070.687)">
      <g id="Elipse_13432" data-name="Elipse 13432" transform="translate(0)" fill="#fff" stroke="#8a08ff" stroke-width="1">
        <ellipse cx="10.779" cy="10.779" rx="10.779" ry="10.779" stroke="none"/>
        <ellipse cx="10.779" cy="10.779" rx="10.279" ry="10.279" fill="none"/>
      </g>
      <ellipse id="Elipse_13433" data-name="Elipse 13433" cx="5.988" cy="5.988" rx="5.988" ry="5.988" transform="translate(4.791 4.791)" fill="#8a08ff"/>
    </g>
    <g id="Grupo_1210251" data-name="Grupo 1210251" transform="translate(680.156 1161.687)">
      <g id="Elipse_13432-2" data-name="Elipse 13432" transform="translate(0)" fill="#fff" stroke="#8a08ff" stroke-width="1">
        <ellipse cx="10.779" cy="10.779" rx="10.779" ry="10.779" stroke="none"/>
        <ellipse cx="10.779" cy="10.779" rx="10.279" ry="10.279" fill="none"/>
      </g>
      <ellipse id="Elipse_13433-2" data-name="Elipse 13433" cx="5.988" cy="5.988" rx="5.988" ry="5.988" transform="translate(4.791 4.791)" fill="#8a08ff"/>
    </g>
    <g id="Grupo_1210253" data-name="Grupo 1210253" transform="translate(699.282 1258.687)">
      <g id="Elipse_13432-3" data-name="Elipse 13432" transform="translate(0)" fill="#fff" stroke="#8a08ff" stroke-width="1">
        <ellipse cx="10.779" cy="10.779" rx="10.779" ry="10.779" stroke="none"/>
        <ellipse cx="10.779" cy="10.779" rx="10.279" ry="10.279" fill="none"/>
      </g>
      <ellipse id="Elipse_13433-3" data-name="Elipse 13433" cx="5.988" cy="5.988" rx="5.988" ry="5.988" transform="translate(4.791 4.791)" fill="#8a08ff"/>
    </g>
    <g id="Grupo_1210258" data-name="Grupo 1210258" transform="translate(-5 -14.666)">
      <path id="Trazado_1053776" data-name="Trazado 1053776" d="M-487.96,6339.806h170.088" transform="translate(1060.53 -4962.34)" fill="none" stroke="#8a08ff" stroke-width="2"/>
      <g id="Trazado_1053775" data-name="Trazado 1053775" transform="translate(317.362 1356.966)" fill="#fff">
        <path d="M 313.825927734375 39 L 77.82420349121094 39 C 73.35227203369141 39 69.14134216308594 37.03850173950195 65.96713256835938 33.47682189941406 C 64.41223907470703 31.73210716247559 63.19070053100586 29.69839286804199 62.33645248413086 27.43217849731445 C 61.44966506958008 25.07964324951172 61.00002288818359 22.57907104492188 61.00002288818359 20 C 61.00002288818359 17.42092895507812 61.44966506958008 14.9203929901123 62.33645248413086 12.56782150268555 C 63.19070053100586 10.30160713195801 64.41223907470703 8.267928123474121 65.96713256835938 6.523214340209961 C 69.14134216308594 2.961499929428101 73.35227203369141 1 77.82420349121094 1 L 313.825927734375 1 C 318.2978515625 1 322.5087280273438 2.961499929428101 325.6829528808594 6.523214340209961 C 327.2378540039062 8.267928123474121 328.4594116210938 10.30160713195801 329.3136596679688 12.56782150268555 C 330.200439453125 14.9203929901123 330.6500854492188 17.42092895507812 330.6500854492188 20 C 330.6500854492188 22.57907104492188 330.200439453125 25.07964324951172 329.3136596679688 27.43217849731445 C 328.4594116210938 29.69839286804199 327.2378845214844 31.73210716247559 325.6829528808594 33.47682189941406 C 322.5087280273438 37.03850173950195 318.2978515625 39 313.825927734375 39 Z" stroke="none"/>
        <path d="M 77.82418823242188 2 C 69.09872436523438 2 62.00003051757812 10.07475090026855 62.00003051757812 20 C 62.00003051757812 29.92525100708008 69.09872436523438 38 77.82418823242188 38 L 313.825927734375 38 C 322.5513916015625 38 329.6500854492188 29.92525100708008 329.6500854492188 20 C 329.6500854492188 10.07475090026855 322.5513916015625 2 313.825927734375 2 L 77.82418823242188 2 M 77.82418823242188 0 L 313.825927734375 0 C 323.669921875 0 331.6500854492188 8.954286575317383 331.6500854492188 20 C 331.6500854492188 31.04567718505859 323.669921875 40 313.825927734375 40 L 77.82418823242188 40 C 67.98016357421875 40 60.00003051757812 31.04567718505859 60.00003051757812 20 C 60.00003051757812 8.954286575317383 67.98016357421875 0 77.82418823242188 0 Z" stroke="none" fill="#8a08ff"/>
      </g>
      <g id="Elipse_13436" data-name="Elipse 13436" transform="translate(363.354 1346.966)" fill="#fff" stroke="#8a08ff" stroke-width="2">
        <ellipse cx="30" cy="30" rx="30" ry="30" stroke="none"/>
        <ellipse cx="30" cy="30" rx="29" ry="29" fill="none"/>
      </g>
      <text id="Controles_administrativos" data-name="Controles administrativos" transform="translate(430.687 1383.193)" fill="#212429" font-size="16" font-family="SegoeUI-Bold, Segoe UI" font-weight="700" letter-spacing="0em"><tspan x="0" y="0">Controles administrativos</tspan></text>
      <g id="Grupo_1210255" data-name="Grupo 1210255" transform="translate(731.88 1366.687)">
        <g id="Elipse_13432-4" data-name="Elipse 13432" transform="translate(0)" fill="#fff" stroke="#8a08ff" stroke-width="1">
          <ellipse cx="10.779" cy="10.779" rx="10.779" ry="10.779" stroke="none"/>
          <ellipse cx="10.779" cy="10.779" rx="10.279" ry="10.279" fill="none"/>
        </g>
        <ellipse id="Elipse_13433-4" data-name="Elipse 13433" cx="5.988" cy="5.988" rx="5.988" ry="5.988" transform="translate(4.791 4.791)" fill="#8a08ff"/>
      </g>
    </g>
    <g id="Grupo_1210257" data-name="Grupo 1210257" transform="translate(742.659 1448.687)">
      <g id="Elipse_13432-5" data-name="Elipse 13432" transform="translate(0)" fill="#fff" stroke="#8a08ff" stroke-width="1">
        <circle cx="10.779" cy="10.779" r="10.779" stroke="none"/>
        <circle cx="10.779" cy="10.779" r="10.279" fill="none"/>
      </g>
      <circle id="Elipse_13433-5" data-name="Elipse 13433" cx="5.988" cy="5.988" r="5.988" transform="translate(4.791 4.791)" fill="#8a08ff"/>
    </g>
    <path id="Trazado_1054177" data-name="Trazado 1054177" d="M8,0H1.281V-11.2H7.742v2.055H3.8v2.492H7.469v2.047H3.8v2.563H8Zm9.384,3.68H14.916V-1.1h-.031A2.742,2.742,0,0,1,12.423.2,3.064,3.064,0,0,1,10-.855,4.339,4.339,0,0,1,9.08-3.8,4.794,4.794,0,0,1,10.088-7a3.271,3.271,0,0,1,2.625-1.2A2.381,2.381,0,0,1,14.884-7.07h.031V-8h2.469Zm-2.422-7.5v-.641a1.952,1.952,0,0,0-.453-1.312A1.46,1.46,0,0,0,13.345-6.3a1.507,1.507,0,0,0-1.289.645,2.986,2.986,0,0,0-.469,1.785,2.52,2.52,0,0,0,.457,1.6,1.448,1.448,0,0,0,1.191.578,1.53,1.53,0,0,0,1.254-.586A2.376,2.376,0,0,0,14.963-3.82ZM27.066,0H24.6V-1.219h-.039A2.792,2.792,0,0,1,22.12.2q-2.781,0-2.781-3.367V-8H21.8v4.609q0,1.7,1.344,1.7a1.329,1.329,0,0,0,1.063-.465,1.874,1.874,0,0,0,.4-1.262V-8h2.461ZM30.4-9.266a1.442,1.442,0,0,1-1.023-.371,1.2,1.2,0,0,1-.4-.91,1.153,1.153,0,0,1,.4-.906A1.49,1.49,0,0,1,30.4-11.8a1.486,1.486,0,0,1,1.027.352,1.158,1.158,0,0,1,.395.906,1.191,1.191,0,0,1-.395.922A1.466,1.466,0,0,1,30.4-9.266ZM31.614,0H29.145V-8h2.469Zm4.58-.93h-.031V3.68H33.694V-8h2.469v1.2h.031a2.9,2.9,0,0,1,2.57-1.4,2.892,2.892,0,0,1,2.4,1.066,4.54,4.54,0,0,1,.848,2.9,4.922,4.922,0,0,1-.988,3.211A3.222,3.222,0,0,1,38.4.2,2.491,2.491,0,0,1,36.194-.93Zm-.07-3.281v.641a2.037,2.037,0,0,0,.438,1.352A1.424,1.424,0,0,0,37.71-1.7a1.514,1.514,0,0,0,1.309-.652A3.15,3.15,0,0,0,39.483-4.2q0-2.109-1.641-2.109A1.541,1.541,0,0,0,36.6-5.73,2.29,2.29,0,0,0,36.124-4.211ZM47.43.2A4.3,4.3,0,0,1,44.285-.926a4.064,4.064,0,0,1-1.145-3.043,4.065,4.065,0,0,1,1.188-3.105A4.487,4.487,0,0,1,47.539-8.2a4.249,4.249,0,0,1,3.125,1.121A3.985,3.985,0,0,1,51.8-4.109,4.23,4.23,0,0,1,50.629-.961,4.348,4.348,0,0,1,47.43.2Zm.063-6.5a1.647,1.647,0,0,0-1.359.6A2.653,2.653,0,0,0,45.649-4q0,2.3,1.859,2.3,1.773,0,1.773-2.367Q49.281-6.3,47.492-6.3ZM52.877-.211v-2a5.256,5.256,0,0,0,1.215.547,4.028,4.028,0,0,0,1.145.18,2.455,2.455,0,0,0,1.035-.18.581.581,0,0,0,.379-.547.506.506,0,0,0-.172-.391,1.6,1.6,0,0,0-.441-.273,5.009,5.009,0,0,0-.59-.211q-.32-.094-.617-.211a5.913,5.913,0,0,1-.84-.387,2.427,2.427,0,0,1-.609-.48,1.889,1.889,0,0,1-.375-.633,2.525,2.525,0,0,1-.129-.852A2.192,2.192,0,0,1,53.17-6.8a2.393,2.393,0,0,1,.781-.793,3.57,3.57,0,0,1,1.117-.453A5.825,5.825,0,0,1,56.377-8.2a7.261,7.261,0,0,1,1.078.082,8.047,8.047,0,0,1,1.078.238v1.906a3.9,3.9,0,0,0-1-.41,4.235,4.235,0,0,0-1.051-.137,2.328,2.328,0,0,0-.457.043,1.505,1.505,0,0,0-.379.125.7.7,0,0,0-.258.211.486.486,0,0,0-.094.293.541.541,0,0,0,.141.375,1.221,1.221,0,0,0,.367.27,3.625,3.625,0,0,0,.5.2q.277.09.551.184a7.161,7.161,0,0,1,.891.375,2.848,2.848,0,0,1,.684.477,1.871,1.871,0,0,1,.438.641,2.277,2.277,0,0,1,.152.875,2.282,2.282,0,0,1-.309,1.215,2.471,2.471,0,0,1-.82.82,3.72,3.72,0,0,1-1.18.461A6.54,6.54,0,0,1,55.322.2,7.149,7.149,0,0,1,52.877-.211ZM72.685,0H70.216V-1.1h-.031A2.768,2.768,0,0,1,67.708.2,3.033,3.033,0,0,1,65.294-.863,4.382,4.382,0,0,1,64.38-3.82,4.77,4.77,0,0,1,65.388-7a3.287,3.287,0,0,1,2.641-1.2,2.246,2.246,0,0,1,2.156,1.109h.031v-4.758h2.469ZM70.263-3.891v-.6a1.893,1.893,0,0,0-.453-1.3A1.5,1.5,0,0,0,68.63-6.3a1.487,1.487,0,0,0-1.281.645,2.993,2.993,0,0,0-.461,1.77,2.59,2.59,0,0,0,.445,1.625,1.479,1.479,0,0,0,1.234.57,1.485,1.485,0,0,0,1.223-.6A2.507,2.507,0,0,0,70.263-3.891ZM81.952-3.3H76.733q.125,1.742,2.2,1.742a4.286,4.286,0,0,0,2.32-.625V-.4A6.1,6.1,0,0,1,78.366.2,4.058,4.058,0,0,1,75.358-.879a4.058,4.058,0,0,1-1.07-3,4.281,4.281,0,0,1,1.156-3.156A3.852,3.852,0,0,1,78.288-8.2a3.5,3.5,0,0,1,2.707,1.039,4,4,0,0,1,.957,2.82ZM79.663-4.812q0-1.719-1.391-1.719a1.328,1.328,0,0,0-1.027.492,2.234,2.234,0,0,0-.527,1.227ZM90.6-3.859V0H88.08V-11.2h3.953q4.234,0,4.234,3.57A3.426,3.426,0,0,1,95.053-4.9a4.813,4.813,0,0,1-3.246,1.043Zm0-5.406v3.492H91.6q2.016,0,2.016-1.766,0-1.727-2.016-1.727Zm12.283,3.492a2.142,2.142,0,0,0-1.039-.242,1.5,1.5,0,0,0-1.258.59,2.573,2.573,0,0,0-.453,1.605V0H97.668V-8h2.469v1.484h.031a2.136,2.136,0,0,1,2.109-1.625,1.59,1.59,0,0,1,.609.094ZM107.786.2a4.3,4.3,0,0,1-3.145-1.121A4.064,4.064,0,0,1,103.5-3.969a4.065,4.065,0,0,1,1.188-3.105A4.487,4.487,0,0,1,107.9-8.2a4.249,4.249,0,0,1,3.125,1.121,3.985,3.985,0,0,1,1.133,2.965,4.23,4.23,0,0,1-1.168,3.148A4.348,4.348,0,0,1,107.786.2Zm.063-6.5a1.647,1.647,0,0,0-1.359.6,2.653,2.653,0,0,0-.484,1.7q0,2.3,1.859,2.3,1.773,0,1.773-2.367Q109.638-6.3,107.849-6.3ZM118.593-.094A3.649,3.649,0,0,1,116.944.2q-2.609,0-2.609-2.711V-6.18h-1.3V-8h1.3V-9.727l2.461-.7V-8h1.8v1.82h-1.8v3.234q0,1.25.992,1.25a1.673,1.673,0,0,0,.8-.227Zm8.517-3.2h-5.219q.125,1.742,2.2,1.742a4.286,4.286,0,0,0,2.32-.625V-.4A6.1,6.1,0,0,1,123.524.2a4.058,4.058,0,0,1-3.008-1.074,4.058,4.058,0,0,1-1.07-3A4.281,4.281,0,0,1,120.6-7.031,3.852,3.852,0,0,1,123.446-8.2a3.5,3.5,0,0,1,2.707,1.039,4,4,0,0,1,.957,2.82Zm-2.289-1.516q0-1.719-1.391-1.719a1.328,1.328,0,0,0-1.027.492,2.234,2.234,0,0,0-.527,1.227Zm9.822,4.523A4.881,4.881,0,0,1,132.229.2a4.083,4.083,0,0,1-2.984-1.117A3.859,3.859,0,0,1,128.1-3.8a4.251,4.251,0,0,1,1.223-3.215A4.518,4.518,0,0,1,132.6-8.2a4.2,4.2,0,0,1,2.047.375v2.094a2.814,2.814,0,0,0-1.727-.578,2.275,2.275,0,0,0-1.684.621,2.317,2.317,0,0,0-.621,1.715,2.28,2.28,0,0,0,.594,1.668,2.182,2.182,0,0,0,1.633.605,3.258,3.258,0,0,0,1.8-.578Zm7.681,0A4.881,4.881,0,0,1,139.91.2a4.083,4.083,0,0,1-2.984-1.117A3.859,3.859,0,0,1,135.785-3.8a4.251,4.251,0,0,1,1.223-3.215,4.518,4.518,0,0,1,3.27-1.176,4.2,4.2,0,0,1,2.047.375v2.094A2.814,2.814,0,0,0,140.6-6.3a2.275,2.275,0,0,0-1.684.621,2.317,2.317,0,0,0-.621,1.715,2.28,2.28,0,0,0,.594,1.668,2.182,2.182,0,0,0,1.633.605,3.258,3.258,0,0,0,1.8-.578Zm2.869-8.977a1.442,1.442,0,0,1-1.023-.371,1.2,1.2,0,0,1-.4-.91,1.153,1.153,0,0,1,.4-.906,1.49,1.49,0,0,1,1.023-.352,1.486,1.486,0,0,1,1.027.352,1.158,1.158,0,0,1,.395.906,1.191,1.191,0,0,1-.395.922A1.466,1.466,0,0,1,145.193-9.266ZM146.412,0h-2.469V-8h2.469ZM152.3.2a4.3,4.3,0,0,1-3.145-1.121,4.064,4.064,0,0,1-1.145-3.043A4.065,4.065,0,0,1,149.2-7.074,4.487,4.487,0,0,1,152.413-8.2a4.249,4.249,0,0,1,3.125,1.121,3.985,3.985,0,0,1,1.133,2.965A4.23,4.23,0,0,1,155.5-.961,4.348,4.348,0,0,1,152.3.2Zm.063-6.5a1.647,1.647,0,0,0-1.359.6,2.653,2.653,0,0,0-.484,1.7q0,2.3,1.859,2.3,1.773,0,1.773-2.367Q154.155-6.3,152.366-6.3Zm2.648-5.484-2.445,2.523h-1.781l2.031-2.523ZM165.993,0h-2.461V-4.445q0-1.859-1.328-1.859a1.318,1.318,0,0,0-1.055.492,1.875,1.875,0,0,0-.414,1.25V0h-2.469V-8h2.469v1.266h.031a2.829,2.829,0,0,1,2.57-1.461q2.656,0,2.656,3.3Zm9.136-3.859V0h-2.523V-11.2h3.953q4.234,0,4.234,3.57a3.426,3.426,0,0,1-1.215,2.73,4.813,4.813,0,0,1-3.246,1.043Zm0-5.406v3.492h.992q2.016,0,2.016-1.766,0-1.727-2.016-1.727ZM188.9-3.3h-5.219q.125,1.742,2.2,1.742a4.286,4.286,0,0,0,2.32-.625V-.4A6.1,6.1,0,0,1,185.318.2,4.058,4.058,0,0,1,182.31-.879a4.058,4.058,0,0,1-1.07-3A4.281,4.281,0,0,1,182.4-7.031,3.852,3.852,0,0,1,185.24-8.2a3.5,3.5,0,0,1,2.707,1.039,4,4,0,0,1,.957,2.82Zm-2.289-1.516q0-1.719-1.391-1.719a1.328,1.328,0,0,0-1.027.492,2.234,2.234,0,0,0-.527,1.227Zm8.978-.961a2.142,2.142,0,0,0-1.039-.242,1.5,1.5,0,0,0-1.258.59,2.573,2.573,0,0,0-.453,1.605V0h-2.469V-8h2.469v1.484h.031a2.136,2.136,0,0,1,2.109-1.625,1.59,1.59,0,0,1,.609.094Zm.72,5.563v-2a5.256,5.256,0,0,0,1.215.547,4.028,4.028,0,0,0,1.145.18,2.455,2.455,0,0,0,1.035-.18.581.581,0,0,0,.379-.547.506.506,0,0,0-.172-.391,1.6,1.6,0,0,0-.441-.273,5.009,5.009,0,0,0-.59-.211q-.32-.094-.617-.211a5.914,5.914,0,0,1-.84-.387,2.427,2.427,0,0,1-.609-.48,1.889,1.889,0,0,1-.375-.633,2.525,2.525,0,0,1-.129-.852,2.192,2.192,0,0,1,.293-1.156,2.393,2.393,0,0,1,.781-.793,3.57,3.57,0,0,1,1.117-.453,5.825,5.825,0,0,1,1.309-.145,7.261,7.261,0,0,1,1.078.082,8.047,8.047,0,0,1,1.078.238v1.906a3.9,3.9,0,0,0-1-.41,4.235,4.235,0,0,0-1.051-.137,2.328,2.328,0,0,0-.457.043,1.505,1.505,0,0,0-.379.125.7.7,0,0,0-.258.211.486.486,0,0,0-.094.293.541.541,0,0,0,.141.375,1.221,1.221,0,0,0,.367.27,3.625,3.625,0,0,0,.5.2q.277.09.551.184a7.161,7.161,0,0,1,.891.375,2.848,2.848,0,0,1,.684.477,1.871,1.871,0,0,1,.438.641,2.277,2.277,0,0,1,.152.875,2.282,2.282,0,0,1-.309,1.215,2.471,2.471,0,0,1-.82.82,3.72,3.72,0,0,1-1.18.461A6.54,6.54,0,0,1,198.759.2,7.149,7.149,0,0,1,196.313-.211ZM207.69.2a4.3,4.3,0,0,1-3.145-1.121A4.064,4.064,0,0,1,203.4-3.969a4.065,4.065,0,0,1,1.188-3.105A4.487,4.487,0,0,1,207.8-8.2a4.249,4.249,0,0,1,3.125,1.121,3.985,3.985,0,0,1,1.133,2.965,4.23,4.23,0,0,1-1.168,3.148A4.348,4.348,0,0,1,207.69.2Zm.063-6.5a1.647,1.647,0,0,0-1.359.6,2.653,2.653,0,0,0-.484,1.7q0,2.3,1.859,2.3,1.773,0,1.773-2.367Q209.542-6.3,207.753-6.3ZM221.387,0h-2.461V-4.445q0-1.859-1.328-1.859a1.318,1.318,0,0,0-1.055.492,1.875,1.875,0,0,0-.414,1.25V0H213.66V-8h2.469v1.266h.031a2.829,2.829,0,0,1,2.57-1.461q2.656,0,2.656,3.3ZM230,0h-2.336V-1.148h-.031A2.607,2.607,0,0,1,225.248.2a2.492,2.492,0,0,1-1.832-.66,2.366,2.366,0,0,1-.668-1.762q0-2.328,2.758-2.687l2.172-.289q0-1.312-1.422-1.312a4.853,4.853,0,0,0-2.719.852V-7.523a6.116,6.116,0,0,1,1.41-.469,7.413,7.413,0,0,1,1.629-.2Q230-8.2,230-4.781Zm-2.32-3.25v-.539l-1.453.188q-1.2.156-1.2,1.086a.9.9,0,0,0,.293.691,1.126,1.126,0,0,0,.793.27,1.462,1.462,0,0,0,1.133-.48A1.735,1.735,0,0,0,227.678-3.25ZM234.421,0h-2.469V-11.844h2.469Zm11.23,2.547h-2.016a9.8,9.8,0,0,1-2.523-6.836,10.428,10.428,0,0,1,2.523-6.914h2a11.228,11.228,0,0,0-2.367,6.914A10.859,10.859,0,0,0,245.651,2.547ZM253.786,0h-6.719V-11.2h6.461v2.055H249.59v2.492h3.664v2.047H249.59v2.563h4.2Zm4.322-3.859V0h-2.523V-11.2h3.953q4.234,0,4.234,3.57a3.426,3.426,0,0,1-1.215,2.73,4.813,4.813,0,0,1-3.246,1.043Zm0-5.406v3.492h.992q2.016,0,2.016-1.766,0-1.727-2.016-1.727Zm9.83,5.406V0h-2.523V-11.2h3.953q4.234,0,4.234,3.57a3.426,3.426,0,0,1-1.215,2.73,4.813,4.813,0,0,1-3.246,1.043Zm0-5.406v3.492h.992q2.016,0,2.016-1.766,0-1.727-2.016-1.727ZM276.1,2.547h-2a10.8,10.8,0,0,0,2.391-6.836A11.2,11.2,0,0,0,274.1-11.2h2.016a10.428,10.428,0,0,1,2.531,6.914A9.82,9.82,0,0,1,276.1,2.547Z" transform="translate(389.21 1465.193)" fill="#212429"/>
    <g id="cooperation_14504246" transform="translate(708.066 1110.635)">
      <path id="Trazado_1053783" data-name="Trazado 1053783" d="M2,29.017a.888.888,0,0,0,.26.629L12.314,39.7a.889.889,0,0,0,1.257,0L18.6,34.676a.889.889,0,0,0,0-1.257l-.631-.631.437-.43L20.222,32a.888.888,0,0,0-.344-1.743l-2.08.408a.885.885,0,0,0-.451.238l-.635.627-6.285-6.287,3.762-3.762a1.791,1.791,0,0,1,1.255-.523h8a.889.889,0,1,1,0,1.778h-5.83a.889.889,0,0,0,0,1.778H30.763a.828.828,0,0,0,.132.01.876.876,0,0,0,.64-.282l3.393-3.393a2.753,2.753,0,0,1,3.042-.524l-7.87,7.87-3.257.658a.889.889,0,0,0,.175,1.761A.9.9,0,0,0,27.2,30.6l3.519-.712a.893.893,0,0,0,.451-.243l8.8-8.8a.889.889,0,0,0-.009-1.266,4.582,4.582,0,0,0-6.28.009l-3.153,3.153H25.948a2.636,2.636,0,0,0,.164-.889,2.67,2.67,0,0,0-2.667-2.667h-8a3.578,3.578,0,0,0-2.512,1.043L9.168,23.987l-.626-.626a.889.889,0,0,0-1.257,0l-5.03,5.028a.888.888,0,0,0-.26.629Zm5.919-3.771,8.8,8.8-3.771,3.771-8.8-8.8Z" transform="translate(0 13.095)" fill="#fff"/>
      <path id="Trazado_1053784" data-name="Trazado 1053784" d="M5.084,24.1a.889.889,0,1,0,1.257,0A.889.889,0,0,0,5.084,24.1Z" transform="translate(2.2 17.381)" fill="#fff"/>
      <path id="Trazado_1053785" data-name="Trazado 1053785" d="M18.012,11.575a.89.89,0,0,0-.455.243l-8.8,8.8a.889.889,0,0,0,0,1.257,4.471,4.471,0,0,0,3.141,1.3,4.411,4.411,0,0,0,3.141-1.3l3.151-3.151h4.571a2.666,2.666,0,0,0,2.514,3.556h8a3.531,3.531,0,0,0,2.514-1.042l3.762-3.762.629.629a.889.889,0,0,0,1.257,0l5.03-5.028a.889.889,0,0,0,0-1.257L36.414,1.76a.889.889,0,0,0-1.257,0L30.129,6.789a.889.889,0,0,0,0,1.257l.629.629-.438.438L18.012,11.575ZM35.786,3.646l8.8,8.8-3.773,3.771-4.4-4.4L32.643,8.046h0l-.628-.628,3.771-3.771Zm-.629,9.429L38.3,16.218,34.537,19.98a1.772,1.772,0,0,1-1.257.521h-8a.889.889,0,0,1,0-1.778h5.837a.889.889,0,0,0,0-1.778H17.929a.877.877,0,0,0-.726.255l-3.417,3.417a2.726,2.726,0,0,1-3.033.521l7.87-7.872L30.931,10.8a.877.877,0,0,0,.455-.243l.628-.628,3.143,3.143Z" transform="translate(5.061 0)" fill="#fff"/>
      <path id="Trazado_1053786" data-name="Trazado 1053786" d="M27.694,8.674a.889.889,0,1,0-1.257,0A.889.889,0,0,0,27.694,8.674Z" transform="translate(18.81 4.4)" fill="#fff"/>
      <path id="Trazado_1053787" data-name="Trazado 1053787" d="M3.5,26.5a22.331,22.331,0,0,0,.7,5.556.889.889,0,0,0,1.722-.444A20.449,20.449,0,0,1,25.336,6.075l-.241.241a.889.889,0,1,0,1.257,1.257L28.13,5.8a.889.889,0,0,0,0-1.257L26.352,2.76A.889.889,0,0,0,25.1,4.017l.278.278A22.24,22.24,0,0,0,3.5,26.5Z" transform="translate(1.171 0.778)" fill="#fff"/>
      <path id="Trazado_1053788" data-name="Trazado 1053788" d="M39.391,18.723a22.331,22.331,0,0,0-.7-5.556.889.889,0,0,0-1.722.444A20.449,20.449,0,0,1,17.555,39.149l.241-.241a.889.889,0,1,0-1.257-1.257L14.76,39.43a.889.889,0,0,0,0,1.257l1.778,1.778A.889.889,0,0,0,17.8,41.207l-.278-.278A22.24,22.24,0,0,0,39.391,18.723Z" transform="translate(9.727 8.556)" fill="#fff"/>
      <circle id="Elipse_13438" data-name="Elipse 13438" cx="0.889" cy="0.889" r="0.889" transform="translate(22.652 42.628)" fill="#fff"/>
    </g>
    <path id="employee_10930889" d="M42.529,30.071a5.01,5.01,0,1,0,5.01,5.01,5.016,5.016,0,0,0-5.01-5.01Zm0,8.653a3.643,3.643,0,1,1,3.643-3.643,3.647,3.647,0,0,1-3.643,3.643Zm7.185-19.431H45.246l1.048-2.359a.684.684,0,0,0-.141-.761l-3.927-3.926a.684.684,0,0,0-.761-.141L38.459,13.44a18.156,18.156,0,0,0-4.664-1.934L32.614,8.438A.684.684,0,0,0,31.975,8H26.423a.684.684,0,0,0-.638.438L24.6,11.506a18.159,18.159,0,0,0-4.664,1.934L16.933,12.1a.684.684,0,0,0-.761.141l-3.926,3.927a.684.684,0,0,0-.141.761l1.335,3.006A18.153,18.153,0,0,0,11.505,24.6L8.438,25.784A.684.684,0,0,0,8,26.423v5.553a.684.684,0,0,0,.438.638l3.067,1.18a18.155,18.155,0,0,0,1.934,4.666l-1.335,3a.684.684,0,0,0,.141.761l3.927,3.927a.684.684,0,0,0,.761.141l3.006-1.335A18.16,18.16,0,0,0,24.6,46.893l1.181,3.068a.684.684,0,0,0,.638.438h5.553a.684.684,0,0,0,.638-.438l1.18-3.067a18.154,18.154,0,0,0,4.666-1.934l1.932.858.051,3.355A1.246,1.246,0,0,0,41.687,50.4h.019l1.756-.026a1.246,1.246,0,0,0,1.226-1.263l-.071-4.719a1.236,1.236,0,0,0-.378-.874,1.252,1.252,0,0,0-.24-.181l-.008-1.56a6.811,6.811,0,0,0,2.213-.914h3.512a.684.684,0,0,0,.684-.684v-20.2a.684.684,0,0,0-.684-.684Zm-.684,13.631a6.85,6.85,0,0,0-13,0V27.808a1.511,1.511,0,0,0,0-2.734V20.66h13Zm-6.5,7.642a5.484,5.484,0,1,1,5.484-5.484A5.49,5.49,0,0,1,42.529,40.565Zm-2.845,1.209H38.068v-1.5a6.871,6.871,0,0,0,1.51.989c.039.169.076.339.107.51ZM23.977,34.381a10.684,10.684,0,0,1,10.444.009v2.324H23.977Zm2.8-14.012.189,1.456A1.7,1.7,0,0,0,28.643,23.3h1.112a1.7,1.7,0,0,0,1.678-1.474l.189-1.456a5.333,5.333,0,0,1,2.924,4.56H23.853a5.333,5.333,0,0,1,2.924-4.56Zm1.278-1.181a2.044,2.044,0,0,1,2.289,0c.018.022.045.055.031.163l-.3,2.3a.321.321,0,0,1-.321.282H28.643a.321.321,0,0,1-.321-.282l-.3-2.3C28.01,19.244,28.037,19.21,28.055,19.188ZM35.216,26.3h.167a.145.145,0,1,1,0,.29H23.016a.145.145,0,1,1,0-.29h12.2Zm-1.15,1.657a5.051,5.051,0,0,1-9.733,0ZM32.49,32.115a6.428,6.428,0,0,0,2.17-2.137v2.989a12.063,12.063,0,0,0-2.17-.852Zm2.854-12.823a.684.684,0,0,0-.684.684v1.246A6.7,6.7,0,0,0,31.7,18.905a1.5,1.5,0,0,0-.3-.584,2.943,2.943,0,0,0-2.155-.851.676.676,0,0,0-.093,0A2.943,2.943,0,0,0,27,18.321a1.5,1.5,0,0,0-.3.584,6.7,6.7,0,0,0-4.22,6.122,1.511,1.511,0,0,0,.442,2.923,6.4,6.4,0,0,0,2.982,4.163,12.044,12.044,0,0,0-6.437,4.5A12.236,12.236,0,0,1,36.381,19.292ZM20.33,37.755v4.019H18.713A10.6,10.6,0,0,1,20.33,37.755ZM21.7,36.1a10.659,10.659,0,0,1,.911-.8v2.1a.684.684,0,0,0,.684.684H35.105a.684.684,0,0,0,.684-.684V36.3a6.807,6.807,0,0,0,.911,2.373v3.1h-15Zm16.355,7.51a16.8,16.8,0,0,1-4.928,2.043.684.684,0,0,0-.48.42l-1.14,2.961H26.892l-1.14-2.962a.683.683,0,0,0-.48-.42,16.8,16.8,0,0,1-4.927-2.043.684.684,0,0,0-.636-.043l-2.9,1.289-3.263-3.262,1.289-2.9a.684.684,0,0,0-.043-.636,16.8,16.8,0,0,1-2.043-4.928.684.684,0,0,0-.42-.48l-2.961-1.14V26.892l2.961-1.14a.684.684,0,0,0,.42-.48,16.8,16.8,0,0,1,2.043-4.927.684.684,0,0,0,.043-.636l-1.289-2.9,3.262-3.262,2.9,1.289a.684.684,0,0,0,.636-.043,16.8,16.8,0,0,1,4.927-2.043.684.684,0,0,0,.48-.42l1.14-2.962h4.614l1.14,2.962a.684.684,0,0,0,.48.42,16.8,16.8,0,0,1,4.927,2.043.684.684,0,0,0,.636.043l2.9-1.289,3.263,3.262-1.1,2.485H38.519A13.6,13.6,0,0,0,18.69,37.834a11.965,11.965,0,0,0-1.445,4.55.684.684,0,0,0,.68.757H40.473a.684.684,0,0,0,.509-.227.691.691,0,0,0,.089-.126l0,.527a1.246,1.246,0,0,0-.7,1l-1.688-.75A.683.683,0,0,0,38.053,43.607Zm3.755,5.421-.067-4.473,1.51-.023.067,4.473Zm.821-5.854-.188,0-.006-1.247.1,0,.093,0Zm5.137-3.682a6.847,6.847,0,0,0,1.265-2.254v2.254Zm-10.357-12.8a.684.684,0,0,1,.684-.684h1.655a.684.684,0,1,1,0,1.368H38.093A.684.684,0,0,1,37.409,26.691Zm10.24,0a.684.684,0,0,1-.684.684H42.5a.684.684,0,0,1,0-1.368h4.463A.684.684,0,0,1,47.649,26.691Zm-10.24-3.385a.684.684,0,0,1,.684-.684h8.873a.684.684,0,1,1,0,1.368H38.093A.684.684,0,0,1,37.409,23.306Z" transform="translate(714.488 1210.802)" fill="#fff"/>
    <path id="process_4604465" d="M1.218,39.712H12.767a1.219,1.219,0,0,0,1.218-1.218V26.985a.62.62,0,0,0-.182-.439L9.621,22.364a.62.62,0,0,0-.438-.182H1.218A1.219,1.219,0,0,0,0,23.4V38.494a1.219,1.219,0,0,0,1.218,1.218ZM9.8,24.3l2.063,2.063H9.8Zm-8.562-.877H8.562v3.561a.62.62,0,0,0,.62.62h3.561V38.471H1.241Zm.909,1.65a.62.62,0,0,1,.62-.62H7.252a.62.62,0,1,1,0,1.241H2.771a.621.621,0,0,1-.62-.621Zm0,2.35a.62.62,0,0,1,.62-.62H7.252a.62.62,0,1,1,0,1.241H2.771a.62.62,0,0,1-.62-.621Zm9.684,2.35a.62.62,0,0,1-.62.62H2.771a.62.62,0,1,1,0-1.241h8.443a.62.62,0,0,1,.62.62Zm0,2.35a.62.62,0,0,1-.62.62H2.771a.62.62,0,0,1,0-1.241h8.443a.62.62,0,0,1,.62.62Zm0,2.35a.62.62,0,0,1-.62.62H2.771a.62.62,0,1,1,0-1.241h8.443a.62.62,0,0,1,.62.62Zm0,2.35a.62.62,0,0,1-.62.62H2.771a.62.62,0,0,1,0-1.241h8.443a.62.62,0,0,1,.62.62Zm17.147-8.434a.62.62,0,0,1,.62.62v3.732a.62.62,0,0,1-.62.62H15.691a.62.62,0,1,1,0-1.241h12.67V29.007A.62.62,0,0,1,28.981,28.387Zm8.709-1.834a2.01,2.01,0,0,0,2-1.964c.033-1.7.021-3.414-.037-5.108a.611.611,0,0,0-.011-.1,4.693,4.693,0,0,0-2.358-3.218.62.62,0,0,0-.149-.058c-1.083-.268-2.179-.524-3.278-.766a.627.627,0,0,0-.074-.016q-.817-.18-1.634-.351c-.03-.295-.071-.785-.124-1.594a4.993,4.993,0,0,0,1.71-2.468h.636a1.571,1.571,0,0,0,1.569-1.569V7.781A1.571,1.571,0,0,0,35,6.342c0-.1,0-.2,0-.3A8.68,8.68,0,0,0,34.607,2.6,4,4,0,0,0,31.472.3a10.534,10.534,0,0,0-4.981,0,4,4,0,0,0-3.135,2.3,8.678,8.678,0,0,0-.395,3.448c0,.091,0,.184,0,.276a1.57,1.57,0,0,0-.995,1.459v1.56a1.571,1.571,0,0,0,1.569,1.569h.685a4.989,4.989,0,0,0,1.526,2.318c-.058.9-.1,1.431-.134,1.744q-.817.169-1.635.351a.621.621,0,0,0-.073.016c-1.1.243-2.194.5-3.278.766a.621.621,0,0,0-.149.058,4.692,4.692,0,0,0-2.358,3.218.629.629,0,0,0-.011.1c-.058,1.694-.071,3.413-.037,5.108a2.01,2.01,0,0,0,2,1.964H20.1c5.831-.054,11.744-.054,17.574,0Zm.727-6.978c.056,1.655.068,3.333.035,4.989a.765.765,0,0,1-.762.747h-.007q-3.422-.031-6.873-.038L34.9,21.83a.62.62,0,0,0,.08-.868l-.8-.979.87-.276a.62.62,0,0,0,.395-.805l-.773-2.107q1.049.241,2.09.5A3.454,3.454,0,0,1,38.417,19.575Zm-13.17-.084a.621.621,0,0,0-.407-.415l-1.125-.357.824-2.248q.507-.111,1.013-.217v2.8a.62.62,0,0,0,.043.227L27.49,24.1l-3.353-2.824.995-1.214a.62.62,0,0,0,.115-.57Zm7.981-3.02.824,2.248-1.125.357a.62.62,0,0,0-.292.985l1,1.214L30.279,24.1l1.894-4.811a.619.619,0,0,0,.043-.227v-2.8q.506.106,1.013.217Zm-2.254,2.47-2.09,5.311-2.09-5.311V16.867l1.68,1.483a.62.62,0,0,0,.821,0l1.68-1.483Zm3.728-9.6a.333.333,0,0,1-.328.328h-.422c0-.073.006-.147.006-.221V7.525a1.949,1.949,0,0,0,.376-.074l.04,0a.333.333,0,0,1,.328.328ZM26.762,1.511l.016,0a9.289,9.289,0,0,1,4.407,0l.016,0c2.5.541,2.6,1.922,2.56,4.519l0,.264a.68.68,0,0,1-.2-.034.689.689,0,0,1-.34-.247c-.008-.374-.011-.745-.01-1.105a.62.62,0,0,0-.419-.589c-.092-.032-.191-.057-.295-.084a2.444,2.444,0,0,1-1.837-1.524.62.62,0,0,0-.99-.178,4.863,4.863,0,0,1-4.2,1.29.62.62,0,0,0-.726.617c.005.523,0,1.051-.008,1.572a.689.689,0,0,1-.34.247.679.679,0,0,1-.2.034q0-.133,0-.264C24.167,3.432,24.265,2.052,26.762,1.511ZM23.539,9.67a.333.333,0,0,1-.328-.328V7.781a.333.333,0,0,1,.328-.328.622.622,0,0,0,.078-.005A1.942,1.942,0,0,0,24,7.525V9.448c0,.074,0,.148.006.221Zm1.707-.221V7.217a1.935,1.935,0,0,0,.669-.755.621.621,0,0,0,.064-.261c.008-.356.013-.715.014-1.075a6.123,6.123,0,0,0,3.945-1.2A3.521,3.521,0,0,0,31.972,5.38c0,.271.006.546.012.822a.62.62,0,0,0,.064.261,1.935,1.935,0,0,0,.669.755V9.448a3.733,3.733,0,0,1-5.925,3.025.609.609,0,0,0-.075-.056,3.732,3.732,0,0,1-1.472-2.969Zm3.736,4.977a4.948,4.948,0,0,0,1.851-.358c.042.585.076.948.1,1.181l-2.05,1.809-2.05-1.809c.028-.244.063-.629.108-1.261a4.945,4.945,0,0,0,2.039.439Zm-8.9,10.887h-.007a.765.765,0,0,1-.762-.747c-.033-1.655-.021-3.334.035-4.989a3.454,3.454,0,0,1,1.659-2.285c.692-.171,1.39-.335,2.09-.5L22.327,18.9a.62.62,0,0,0,.395.805l.87.276-.8.979a.621.621,0,0,0,.08.868l4.089,3.444Q23.513,25.281,20.086,25.312ZM.486,10.12l1.56.347a6.586,6.586,0,0,0,.3.72l-.858,1.349a.62.62,0,0,0,.085.772L3.29,15.027a.62.62,0,0,0,.772.085l1.349-.858a6.6,6.6,0,0,0,.72.3l.347,1.56a.62.62,0,0,0,.606.486h.595v3.878a.62.62,0,1,0,1.241,0V16.6h.595a.62.62,0,0,0,.606-.486l.347-1.56a6.586,6.586,0,0,0,.72-.3l1.349.858a.62.62,0,0,0,.772-.085l1.719-1.719a.62.62,0,0,0,.085-.772l-.858-1.349a6.59,6.59,0,0,0,.3-.72l1.56-.347a.62.62,0,0,0,.486-.606V8.92h3.665a.62.62,0,1,0,0-1.241H16.6V7.084a.62.62,0,0,0-.486-.606l-1.56-.347a6.58,6.58,0,0,0-.3-.72l.858-1.349a.62.62,0,0,0-.085-.772L13.308,1.571a.62.62,0,0,0-.772-.085l-1.349.858a6.6,6.6,0,0,0-.72-.3L10.12.486A.62.62,0,0,0,9.515,0H7.084a.62.62,0,0,0-.606.486l-.347,1.56a6.579,6.579,0,0,0-.72.3L4.062,1.487a.62.62,0,0,0-.772.085L1.571,3.29a.62.62,0,0,0-.085.772l.858,1.349a6.6,6.6,0,0,0-.3.72l-1.56.347A.62.62,0,0,0,0,7.084V9.515a.62.62,0,0,0,.486.606Zm.755-2.539,1.423-.317a.62.62,0,0,0,.462-.436A5.351,5.351,0,0,1,3.6,5.682a.62.62,0,0,0-.018-.636L2.8,3.816,3.816,2.8l1.231.783a.62.62,0,0,0,.636.018,5.34,5.34,0,0,1,1.146-.476.62.62,0,0,0,.436-.462l.316-1.423H9.017l.317,1.423a.62.62,0,0,0,.436.462,5.351,5.351,0,0,1,1.146.476.62.62,0,0,0,.636-.018L12.782,2.8,13.8,3.816l-.783,1.231A.62.62,0,0,0,13,5.683a5.349,5.349,0,0,1,.476,1.146.62.62,0,0,0,.462.436l1.423.316V9.017l-1.423.317a.62.62,0,0,0-.462.436A5.347,5.347,0,0,1,13,10.916a.62.62,0,0,0,.018.636l.783,1.231L12.782,13.8l-1.231-.783A.62.62,0,0,0,10.916,13a5.351,5.351,0,0,1-1.146.476.62.62,0,0,0-.436.462l-.317,1.423H7.581l-.317-1.423a.621.621,0,0,0-.436-.462A5.347,5.347,0,0,1,5.682,13a.62.62,0,0,0-.636.018L3.816,13.8,2.8,12.782l.783-1.231a.62.62,0,0,0,.018-.636A5.347,5.347,0,0,1,3.126,9.77a.62.62,0,0,0-.462-.436L1.241,9.017ZM8.3,12.712A4.413,4.413,0,1,0,3.886,8.3,4.413,4.413,0,0,0,8.3,12.712Zm0-7.586A3.172,3.172,0,1,1,5.127,8.3,3.172,3.172,0,0,1,8.3,5.127Z" transform="translate(789.391 1345.3)" fill="#fff"/>
    <g id="delete_4556786" transform="translate(712.225 999.677)">
      <path id="Trazado_1053789" data-name="Trazado 1053789" d="M34.388,19.522v-7.36h2.9a1.452,1.452,0,0,0,0-2.9H28.451a8.7,8.7,0,0,0-17.159,0H2.452a1.452,1.452,0,1,0,0,2.9h2.9v26.13A4.368,4.368,0,0,0,9.71,42.646H32.936a11.608,11.608,0,0,0,1.452-23.125ZM19.872,4.9a5.807,5.807,0,0,1,5.6,4.355H14.268a5.807,5.807,0,0,1,5.6-4.355ZM9.71,39.743a1.456,1.456,0,0,1-1.452-1.452V12.162H31.485v7.36a11.584,11.584,0,0,0-6.2,20.222Zm23.227,0a8.71,8.71,0,1,1,8.71-8.71A8.71,8.71,0,0,1,32.936,39.743Z" transform="translate(0 0)" fill="#fff"/>
      <path id="Trazado_1053790" data-name="Trazado 1053790" d="M28.515,19.3a1.451,1.451,0,0,0-2.053,0L24.41,21.357,22.357,19.3A1.452,1.452,0,1,0,20.3,21.357l2.053,2.053L20.3,25.462a1.452,1.452,0,0,0,0,2.053,1.487,1.487,0,0,0,2.053,0l2.053-2.053,2.053,2.053a1.452,1.452,0,1,0,2.053-2.053L26.462,23.41l2.053-2.053a1.451,1.451,0,0,0,0-2.053Z" transform="translate(8.527 7.623)" fill="#fff"/>
    </g>
    <path id="Unin_1" data-name="Unin 1" d="M1460,471h26V0h37V471h25l-44,76Z" transform="translate(-462 970)" fill="url(#linear-gradient)"/>
    <path id="Trazado_1054179" data-name="Trazado 1054179" d="M19.314,0H15.888V-9.217q0-1.493.129-3.3h-.086a16.228,16.228,0,0,1-.483,2.041L11.838,0H9L5.328-10.366a20.172,20.172,0,0,1-.483-2.148h-.1q.14,2.277.14,4V0H1.762V-15.4H6.843L9.99-6.273a12.856,12.856,0,0,1,.548,2.2H10.6a22.174,22.174,0,0,1,.612-2.224L14.362-15.4h4.952ZM32.368-4.533H25.193q.172,2.4,3.019,2.4A5.893,5.893,0,0,0,31.4-3V-.548a8.381,8.381,0,0,1-3.964.816A5.58,5.58,0,0,1,23.3-1.208a5.58,5.58,0,0,1-1.472-4.12,5.887,5.887,0,0,1,1.59-4.34,5.3,5.3,0,0,1,3.91-1.6A4.807,4.807,0,0,1,31.052-9.84a5.5,5.5,0,0,1,1.316,3.878ZM29.221-6.617q0-2.363-1.912-2.363A1.826,1.826,0,0,0,25.9-8.3a3.072,3.072,0,0,0-.725,1.687ZM45.014,0H41.63V-6.112q0-2.557-1.826-2.557a1.812,1.812,0,0,0-1.45.677,2.578,2.578,0,0,0-.569,1.719V0H34.39V-11h3.395v1.74h.043a3.89,3.89,0,0,1,3.534-2.009q3.652,0,3.652,4.533Zm7.93.269A5.913,5.913,0,0,1,48.62-1.273a5.589,5.589,0,0,1-1.574-4.184,5.589,5.589,0,0,1,1.633-4.27,6.17,6.17,0,0,1,4.415-1.542,5.842,5.842,0,0,1,4.3,1.542A5.48,5.48,0,0,1,58.949-5.65a5.816,5.816,0,0,1-1.606,4.329A5.979,5.979,0,0,1,52.944.269Zm.086-8.937a2.264,2.264,0,0,0-1.869.827A3.647,3.647,0,0,0,50.495-5.5q0,3.169,2.557,3.169,2.438,0,2.438-3.255Q55.49-8.669,53.03-8.669Zm7.4,8.379V-3.04a7.227,7.227,0,0,0,1.67.752,5.538,5.538,0,0,0,1.574.247A3.375,3.375,0,0,0,65.1-2.288a.8.8,0,0,0,.521-.752.7.7,0,0,0-.236-.537,2.2,2.2,0,0,0-.607-.376,6.887,6.887,0,0,0-.811-.29q-.44-.129-.849-.29a8.131,8.131,0,0,1-1.155-.532,3.338,3.338,0,0,1-.838-.661,2.6,2.6,0,0,1-.516-.87,3.472,3.472,0,0,1-.177-1.171,3.014,3.014,0,0,1,.4-1.59,3.29,3.29,0,0,1,1.074-1.09,4.908,4.908,0,0,1,1.536-.623,8.01,8.01,0,0,1,1.8-.2,9.984,9.984,0,0,1,1.482.113,11.065,11.065,0,0,1,1.482.328v2.621a5.357,5.357,0,0,0-1.38-.564,5.823,5.823,0,0,0-1.445-.188,3.2,3.2,0,0,0-.628.059,2.07,2.07,0,0,0-.521.172.957.957,0,0,0-.354.29.668.668,0,0,0-.129.4.744.744,0,0,0,.193.516,1.679,1.679,0,0,0,.5.371,4.984,4.984,0,0,0,.693.279q.381.124.757.252a9.846,9.846,0,0,1,1.225.516,3.916,3.916,0,0,1,.94.655,2.573,2.573,0,0,1,.6.881,3.131,3.131,0,0,1,.209,1.2,3.138,3.138,0,0,1-.424,1.67A3.4,3.4,0,0,1,67.325-.564,5.115,5.115,0,0,1,65.7.07a8.993,8.993,0,0,1-1.907.2A9.83,9.83,0,0,1,60.434-.29ZM86.789-4.533H79.613q.172,2.4,3.019,2.4A5.893,5.893,0,0,0,85.822-3V-.548a8.381,8.381,0,0,1-3.964.816,5.58,5.58,0,0,1-4.136-1.477,5.58,5.58,0,0,1-1.472-4.12,5.887,5.887,0,0,1,1.59-4.34,5.3,5.3,0,0,1,3.91-1.6A4.807,4.807,0,0,1,85.473-9.84a5.5,5.5,0,0,1,1.316,3.878ZM83.641-6.617q0-2.363-1.912-2.363a1.826,1.826,0,0,0-1.413.677,3.072,3.072,0,0,0-.725,1.687Zm12.345-7.068a3.429,3.429,0,0,0-1.257-.258q-1.633,0-1.633,1.772V-11H95.61v2.5H93.1V0H89.713V-8.5H87.865V-11h1.848v-1.364a3.961,3.961,0,0,1,1.225-3.029,4.671,4.671,0,0,1,3.33-1.149,5.848,5.848,0,0,1,1.719.215Zm11.142,9.152H99.952q.172,2.4,3.019,2.4A5.893,5.893,0,0,0,106.161-3V-.548A8.381,8.381,0,0,1,102.2.269a5.58,5.58,0,0,1-4.136-1.477,5.58,5.58,0,0,1-1.472-4.12,5.887,5.887,0,0,1,1.59-4.34,5.3,5.3,0,0,1,3.91-1.6,4.807,4.807,0,0,1,3.722,1.429,5.5,5.5,0,0,1,1.316,3.878ZM103.98-6.617q0-2.363-1.912-2.363a1.826,1.826,0,0,0-1.413.677,3.072,3.072,0,0,0-.725,1.687ZM117.486-.4a6.712,6.712,0,0,1-3.319.666,5.614,5.614,0,0,1-4.1-1.536,5.305,5.305,0,0,1-1.568-3.964,5.845,5.845,0,0,1,1.681-4.42,6.213,6.213,0,0,1,4.5-1.617,5.768,5.768,0,0,1,2.814.516v2.879a3.87,3.87,0,0,0-2.374-.795,3.128,3.128,0,0,0-2.315.854,3.187,3.187,0,0,0-.854,2.358,3.135,3.135,0,0,0,.816,2.293A3,3,0,0,0,115-2.331a4.48,4.48,0,0,0,2.481-.795Zm8.875.269a5.017,5.017,0,0,1-2.267.4q-3.588,0-3.588-3.728V-8.5h-1.783V-11h1.783v-2.374l3.384-.967V-11h2.471v2.5H123.89V-4.05q0,1.719,1.364,1.719a2.3,2.3,0,0,0,1.106-.312Zm3.633-12.611a1.983,1.983,0,0,1-1.407-.51,1.644,1.644,0,0,1-.548-1.251,1.586,1.586,0,0,1,.548-1.246,2.048,2.048,0,0,1,1.407-.483,2.044,2.044,0,0,1,1.413.483,1.593,1.593,0,0,1,.542,1.246,1.638,1.638,0,0,1-.542,1.268A2.016,2.016,0,0,1,129.994-12.74ZM131.67,0h-3.395V-11h3.395ZM145-11,140.91,0h-3.867l-3.9-11h3.631l1.912,6.778a9.9,9.9,0,0,1,.376,1.955h.043a11.1,11.1,0,0,1,.4-1.891L141.458-11ZM151.483.269a5.913,5.913,0,0,1-4.324-1.542,5.589,5.589,0,0,1-1.574-4.184,5.589,5.589,0,0,1,1.633-4.27,6.17,6.17,0,0,1,4.415-1.542,5.842,5.842,0,0,1,4.3,1.542,5.48,5.48,0,0,1,1.558,4.077,5.816,5.816,0,0,1-1.606,4.329A5.979,5.979,0,0,1,151.483.269Zm.086-8.937a2.264,2.264,0,0,0-1.869.827,3.647,3.647,0,0,0-.666,2.342q0,3.169,2.557,3.169,2.438,0,2.438-3.255Q154.029-8.669,151.569-8.669Z" transform="translate(1050 1481) rotate(-90)" fill="#fff"/>
    <path id="Trazado_1054178" data-name="Trazado 1054178" d="M19.314,0H15.888V-9.217q0-1.493.129-3.3h-.086a16.228,16.228,0,0,1-.483,2.041L11.838,0H9L5.328-10.366a20.172,20.172,0,0,1-.483-2.148h-.1q.14,2.277.14,4V0H1.762V-15.4H6.843L9.99-6.273a12.856,12.856,0,0,1,.548,2.2H10.6a22.174,22.174,0,0,1,.612-2.224L14.362-15.4h4.952ZM31.638,0H28.426V-1.579h-.043A3.585,3.585,0,0,1,25.107.269a3.427,3.427,0,0,1-2.519-.908,3.253,3.253,0,0,1-.918-2.422q0-3.2,3.792-3.7l2.986-.4q0-1.8-1.955-1.8a6.673,6.673,0,0,0-3.738,1.171v-2.557a8.41,8.41,0,0,1,1.939-.645,10.192,10.192,0,0,1,2.24-.279q4.705,0,4.705,4.694Zm-3.19-4.469V-5.21l-2,.258Q24.8-4.737,24.8-3.459a1.234,1.234,0,0,0,.4.951,1.548,1.548,0,0,0,1.09.371A2.01,2.01,0,0,0,27.846-2.8,2.386,2.386,0,0,0,28.448-4.469ZM30.628-16.21l-3.362,3.47H24.817l2.793-3.47ZM33.606-.29V-3.04a7.227,7.227,0,0,0,1.67.752,5.538,5.538,0,0,0,1.574.247,3.375,3.375,0,0,0,1.423-.247.8.8,0,0,0,.521-.752.7.7,0,0,0-.236-.537,2.2,2.2,0,0,0-.607-.376,6.887,6.887,0,0,0-.811-.29q-.44-.129-.849-.29a8.131,8.131,0,0,1-1.155-.532,3.338,3.338,0,0,1-.838-.661,2.6,2.6,0,0,1-.516-.87,3.472,3.472,0,0,1-.177-1.171,3.014,3.014,0,0,1,.4-1.59,3.29,3.29,0,0,1,1.074-1.09,4.908,4.908,0,0,1,1.536-.623,8.01,8.01,0,0,1,1.8-.2,9.984,9.984,0,0,1,1.482.113,11.064,11.064,0,0,1,1.482.328v2.621A5.357,5.357,0,0,0,40-8.771a5.823,5.823,0,0,0-1.445-.188,3.2,3.2,0,0,0-.628.059,2.07,2.07,0,0,0-.521.172.957.957,0,0,0-.354.29.668.668,0,0,0-.129.4.744.744,0,0,0,.193.516,1.679,1.679,0,0,0,.5.371,4.984,4.984,0,0,0,.693.279q.381.124.757.252A9.846,9.846,0,0,1,40.3-6.1a3.916,3.916,0,0,1,.94.655,2.573,2.573,0,0,1,.6.881,3.131,3.131,0,0,1,.209,1.2,3.138,3.138,0,0,1-.424,1.67A3.4,3.4,0,0,1,40.5-.564,5.115,5.115,0,0,1,38.875.07a8.992,8.992,0,0,1-1.907.2A9.83,9.83,0,0,1,33.606-.29ZM59.961-4.533H52.785q.172,2.4,3.019,2.4A5.893,5.893,0,0,0,58.994-3V-.548A8.381,8.381,0,0,1,55.03.269a5.58,5.58,0,0,1-4.136-1.477,5.58,5.58,0,0,1-1.472-4.12,5.887,5.887,0,0,1,1.59-4.34,5.3,5.3,0,0,1,3.91-1.6A4.807,4.807,0,0,1,58.645-9.84a5.5,5.5,0,0,1,1.316,3.878ZM56.813-6.617q0-2.363-1.912-2.363a1.826,1.826,0,0,0-1.413.677,3.072,3.072,0,0,0-.725,1.687Zm12.345-7.068a3.429,3.429,0,0,0-1.257-.258q-1.633,0-1.633,1.772V-11h2.514v2.5H66.269V0H62.885V-8.5H61.037V-11h1.848v-1.364a3.961,3.961,0,0,1,1.225-3.029,4.671,4.671,0,0,1,3.33-1.149,5.848,5.848,0,0,1,1.719.215ZM80.3-4.533H73.125q.172,2.4,3.019,2.4A5.893,5.893,0,0,0,79.334-3V-.548A8.381,8.381,0,0,1,75.37.269a5.58,5.58,0,0,1-4.136-1.477,5.58,5.58,0,0,1-1.472-4.12,5.887,5.887,0,0,1,1.59-4.34,5.3,5.3,0,0,1,3.91-1.6A4.807,4.807,0,0,1,78.984-9.84,5.5,5.5,0,0,1,80.3-5.962ZM77.153-6.617q0-2.363-1.912-2.363a1.826,1.826,0,0,0-1.413.677A3.072,3.072,0,0,0,73.1-6.617ZM90.658-.4a6.712,6.712,0,0,1-3.319.666,5.614,5.614,0,0,1-4.1-1.536,5.305,5.305,0,0,1-1.568-3.964,5.845,5.845,0,0,1,1.681-4.42,6.213,6.213,0,0,1,4.5-1.617,5.768,5.768,0,0,1,2.814.516v2.879a3.87,3.87,0,0,0-2.374-.795,3.128,3.128,0,0,0-2.315.854,3.187,3.187,0,0,0-.854,2.358,3.135,3.135,0,0,0,.816,2.293,3,3,0,0,0,2.245.833,4.48,4.48,0,0,0,2.481-.795Zm8.875.269a5.017,5.017,0,0,1-2.267.4q-3.588,0-3.588-3.728V-8.5H91.9V-11h1.783v-2.374l3.384-.967V-11h2.471v2.5H97.063V-4.05q0,1.719,1.364,1.719a2.3,2.3,0,0,0,1.106-.312Zm3.633-12.611a1.983,1.983,0,0,1-1.407-.51,1.644,1.644,0,0,1-.548-1.251,1.586,1.586,0,0,1,.548-1.246,2.048,2.048,0,0,1,1.407-.483,2.044,2.044,0,0,1,1.413.483,1.593,1.593,0,0,1,.542,1.246,1.637,1.637,0,0,1-.542,1.268A2.016,2.016,0,0,1,103.166-12.74ZM104.842,0h-3.395V-11h3.395Zm13.333-11L114.083,0h-3.867l-3.9-11h3.631l1.912,6.778a9.9,9.9,0,0,1,.376,1.955h.043a11.1,11.1,0,0,1,.4-1.891L114.63-11ZM124.655.269a5.913,5.913,0,0,1-4.324-1.542,5.589,5.589,0,0,1-1.574-4.184,5.589,5.589,0,0,1,1.633-4.27,6.17,6.17,0,0,1,4.415-1.542,5.842,5.842,0,0,1,4.3,1.542A5.48,5.48,0,0,1,130.66-5.65a5.816,5.816,0,0,1-1.606,4.329A5.979,5.979,0,0,1,124.655.269Zm.086-8.937a2.264,2.264,0,0,0-1.869.827,3.647,3.647,0,0,0-.666,2.342q0,3.169,2.557,3.169,2.438,0,2.438-3.255Q127.2-8.669,124.741-8.669Z" transform="translate(1050 1118) rotate(-90)" fill="#fff"/>
    <g id="helmet_11695246" transform="translate(769.766 1436.266)">
      <g id="Grupo_1210259" data-name="Grupo 1210259" transform="translate(6.747 25.635)">
        <path id="Trazado_1053791" data-name="Trazado 1053791" d="M29.45,54.565h-5.2a2.737,2.737,0,0,1-2.734-2.734v-.374h-2.2v.374a2.737,2.737,0,0,1-2.734,2.734h-5.2A2.737,2.737,0,0,1,8.65,51.831V48.012a.513.513,0,0,1,.512-.512h22.51a.513.513,0,0,1,.512.512v3.819A2.737,2.737,0,0,1,29.45,54.565ZM18.8,50.433h3.225a.513.513,0,0,1,.512.512v.886a1.713,1.713,0,0,0,1.71,1.71h5.2a1.713,1.713,0,0,0,1.71-1.71V48.524H9.674v3.307a1.713,1.713,0,0,0,1.71,1.71h5.2a1.713,1.713,0,0,0,1.71-1.71v-.886a.513.513,0,0,1,.512-.512Z" transform="translate(-8.65 -47.5)" fill="#fff"/>
      </g>
      <g id="Grupo_1210260" data-name="Grupo 1210260" transform="translate(5.441 27.043)">
        <path id="Trazado_1053792" data-name="Trazado 1053792" d="M7.917,52.927H6.612a.513.513,0,0,1-.512-.512V50.762a.513.513,0,0,1,.512-.512H7.917a.513.513,0,0,1,.512.512v1.654A.513.513,0,0,1,7.917,52.927ZM7.124,51.9h.282v-.63H7.124Z" transform="translate(-6.1 -50.25)" fill="#fff"/>
      </g>
      <g id="Grupo_1210261" data-name="Grupo 1210261" transform="translate(29.257 27.043)">
        <path id="Trazado_1053793" data-name="Trazado 1053793" d="M54.437,52.927H53.132a.513.513,0,0,1-.512-.512V50.762a.513.513,0,0,1,.512-.512h1.305a.513.513,0,0,1,.512.512v1.654A.513.513,0,0,1,54.437,52.927ZM53.644,51.9h.282v-.63h-.282Z" transform="translate(-52.62 -50.25)" fill="#fff"/>
      </g>
      <g id="Grupo_1210262" data-name="Grupo 1210262" transform="translate(25.915 27.203)">
        <path id="Trazado_1053794" data-name="Trazado 1053794" d="M48.011,52.926a.5.5,0,0,1-.353-.143L46.25,51.442a.511.511,0,0,1,.706-.737l1.408,1.341a.51.51,0,0,1,.015.722.516.516,0,0,1-.369.159Z" transform="translate(-46.092 -50.562)" fill="#fff"/>
      </g>
      <g id="Grupo_1210263" data-name="Grupo 1210263" transform="translate(23.846 27.131)">
        <path id="Trazado_1053795" data-name="Trazado 1053795" d="M44.631,53.318a.516.516,0,0,1-.343-.133L42.22,51.311a.511.511,0,0,1,.686-.758l2.068,1.874a.51.51,0,0,1,.036.722A.494.494,0,0,1,44.631,53.318Z" transform="translate(-42.051 -50.421)" fill="#fff"/>
      </g>
      <g id="Grupo_1210264" data-name="Grupo 1210264" transform="translate(14.114 2.7)">
        <path id="Trazado_1053796" data-name="Trazado 1053796" d="M27.627,14.291a.509.509,0,0,1-.471-.307L23.081,4.717a.473.473,0,0,1-.041-.2A1.816,1.816,0,0,1,24.852,2.7H30.4a1.816,1.816,0,0,1,1.812,1.812.541.541,0,0,1-.041.2L28.1,13.983a.509.509,0,0,1-.471.307ZM24.069,4.415l3.558,8.094L31.185,4.42a.791.791,0,0,0-.783-.7h-5.55A.787.787,0,0,0,24.069,4.415Z" transform="translate(-23.04 -2.7)" fill="#fff"/>
      </g>
      <g id="Grupo_1210265" data-name="Grupo 1210265" transform="translate(4.75 18.857)">
        <path id="Trazado_1053797" data-name="Trazado 1053797" d="M30.312,40.5H7.09a2.342,2.342,0,0,1-2.34-2.34V34.772a.513.513,0,0,1,.512-.512H32.139a.513.513,0,0,1,.512.512v3.389A2.342,2.342,0,0,1,30.312,40.5ZM5.774,35.279v2.877A1.315,1.315,0,0,0,7.09,39.472H30.306a1.315,1.315,0,0,0,1.316-1.316V35.279Z" transform="translate(-4.75 -34.26)" fill="#fff"/>
      </g>
      <g id="Grupo_1210266" data-name="Grupo 1210266" transform="translate(4.75 5.586)">
        <path id="Trazado_1053798" data-name="Trazado 1053798" d="M32.139,22.627H5.262a.513.513,0,0,1-.512-.512v-.256A13.943,13.943,0,0,1,15.194,8.354a.513.513,0,0,1,.256.993A12.909,12.909,0,0,0,5.779,21.6H31.627A12.909,12.909,0,0,0,21.951,9.347a.513.513,0,1,1,.256-.993A13.938,13.938,0,0,1,32.651,21.859v.256A.51.51,0,0,1,32.139,22.627Z" transform="translate(-4.75 -8.337)" fill="#fff"/>
      </g>
    </g>
  </g>
</svg>
