<svg xmlns="http://www.w3.org/2000/svg" xmlns:xlink="http://www.w3.org/1999/xlink" width="113" height="113" viewBox="0 0 113 113">
  <defs>
    <filter id="Trazado_982547" x="0" y="0" width="113" height="113" filterUnits="userSpaceOnUse">
      <feOffset dy="3" input="SourceAlpha"/>
      <feGaussianBlur stdDeviation="3" result="blur"/>
      <feFlood flood-opacity="0.161"/>
      <feComposite operator="in" in2="blur"/>
      <feComposite in="SourceGraphic"/>
    </filter>
  </defs>
  <g id="Grupo_1210560" data-name="Grupo 1210560" transform="translate(9 6)">
    <g id="Grupo_1210325" data-name="Grupo 1210325" transform="translate(0 0)">
      <g id="Grupo_1210122" data-name="Grupo 1210122">
        <g id="Grupo_1209048" data-name="Grupo 1209048" transform="translate(0 0)">
          <g id="Grupo_1208492" data-name="Grupo 1208492">
            <g id="Grupo_1177675" data-name="Grupo 1177675" transform="translate(0 0)">
              <g id="Grupo_1176928" data-name="Grupo 1176928" transform="translate(0 0)">
                <g id="Grupo_1172322" data-name="Grupo 1172322">
                  <g id="Grupo_1164700" data-name="Grupo 1164700">
                    <g id="Grupo_1160931" data-name="Grupo 1160931">
                      <g id="Grupo_1160749" data-name="Grupo 1160749">
                        <g id="Grupo_1158891" data-name="Grupo 1158891">
                          <g id="Grupo_1157406" data-name="Grupo 1157406">
                            <g id="Grupo_1155793" data-name="Grupo 1155793">
                              <g id="Grupo_1154704" data-name="Grupo 1154704">
                                <g id="Grupo_1150790" data-name="Grupo 1150790">
                                  <g id="Grupo_1154214" data-name="Grupo 1154214">
                                    <g id="Grupo_1152583" data-name="Grupo 1152583">
                                      <g id="Grupo_1146973" data-name="Grupo 1146973">
                                        <g id="Grupo_1146954" data-name="Grupo 1146954">
                                          <g transform="matrix(1, 0, 0, 1, -9, -6)" filter="url(#Trazado_982547)">
                                            <g id="Trazado_982547-2" data-name="Trazado 982547" transform="translate(9 6)" fill="#fef9e7">
                                              <path d="M 47.5000114440918 93.49987030029297 C 41.28938293457031 93.49987030029297 35.26534652709961 92.28384399414062 29.5951976776123 89.88558959960938 C 24.11773109436035 87.56881713867188 19.19814491271973 84.25183868408203 14.97310447692871 80.02680206298828 C 10.74805164337158 75.80176544189453 7.43107795715332 70.88218688964844 5.114304542541504 65.40472412109375 C 2.716038227081299 59.73458862304688 1.500011444091797 53.71054840087891 1.500011444091797 47.49993515014648 C 1.500011444091797 41.28932189941406 2.716038227081299 35.26528167724609 5.114304542541504 29.59514808654785 C 7.43107795715332 24.1176815032959 10.74805164337158 19.1981086730957 14.97310447692871 14.97306823730469 C 19.19814491271973 10.74802875518799 24.11773109436035 7.431055068969727 29.5951976776123 5.11428165435791 C 35.26534652709961 2.716028451919556 41.28938293457031 1.500001788139343 47.5000114440918 1.500001788139343 C 53.71063995361328 1.500001788139343 59.73467636108398 2.716028451919556 65.40482330322266 5.11428165435791 C 70.88229370117188 7.431055068969727 75.8018798828125 10.74802875518799 80.02691650390625 14.97306823730469 C 84.25196838378906 19.1981086730957 87.56894683837891 24.1176815032959 89.88571929931641 29.59514808654785 C 92.28398132324219 35.26528167724609 93.50001525878906 41.28932189941406 93.50001525878906 47.49993515014648 C 93.50001525878906 53.71054840087891 92.28398132324219 59.73458862304688 89.88571929931641 65.40472412109375 C 87.56894683837891 70.88218688964844 84.25196838378906 75.80176544189453 80.02691650390625 80.02680206298828 C 75.8018798828125 84.25183868408203 70.88229370117188 87.56881713867188 65.40482330322266 89.88558959960938 C 59.73467636108398 92.28384399414062 53.71063995361328 93.49987030029297 47.5000114440918 93.49987030029297 Z" stroke="none"/>
                                              <path d="M 47.5000114440918 3 C 41.49122619628906 3 35.66378021240234 4.1761474609375 30.17951965332031 6.495796203613281 C 24.880859375 8.7369384765625 20.12153625488281 11.94596862792969 16.03376770019531 16.03373718261719 C 11.94598388671875 20.12149047851562 8.736968994140625 24.88081359863281 6.495811462402344 30.17947387695312 C 4.176162719726562 35.66371917724609 3.000007629394531 41.49116516113281 3.000007629394531 47.49993515014648 C 3.000007629394531 53.50870513916016 4.176162719726562 59.33615112304688 6.495811462402344 64.82039642333984 C 8.736968994140625 70.11905670166016 11.94598388671875 74.87837982177734 16.03376770019531 78.96613311767578 C 20.12153625488281 83.05390167236328 24.880859375 86.26293182373047 30.17951965332031 88.50407409667969 C 35.66378021240234 90.82372283935547 41.49122619628906 91.99987030029297 47.5000114440918 91.99987030029297 C 53.50879669189453 91.99987030029297 59.33624267578125 90.82372283935547 64.82050323486328 88.50407409667969 C 70.11916351318359 86.26293182373047 74.87848663330078 83.05390167236328 78.96625518798828 78.96613311767578 C 83.05403900146484 74.87837982177734 86.2630615234375 70.11905670166016 88.50421142578125 64.82039642333984 C 90.82386016845703 59.33615112304688 92.00001525878906 53.50870513916016 92.00001525878906 47.49993515014648 C 92.00001525878906 41.49116516113281 90.82386016845703 35.66371917724609 88.50421142578125 30.17947387695312 C 86.2630615234375 24.88081359863281 83.05403900146484 20.12149047851562 78.96625518798828 16.03373718261719 C 74.87848663330078 11.94596862792969 70.11916351318359 8.7369384765625 64.82050323486328 6.495796203613281 C 59.33624267578125 4.1761474609375 53.50879669189453 3 47.5000114440918 3 M 47.5000114440918 0 C 73.73353576660156 0 95.00001525878906 21.26644134521484 95.00001525878906 47.49993515014648 C 95.00001525878906 73.73342895507812 73.73353576660156 94.99987030029297 47.5000114440918 94.99987030029297 C 21.26648712158203 94.99987030029297 7.62939453125e-06 73.73342895507812 7.62939453125e-06 47.49993515014648 C 7.62939453125e-06 21.26644134521484 21.26648712158203 0 47.5000114440918 0 Z" stroke="none" fill="#f8ce24"/>
                                            </g>
                                          </g>
                                        </g>
                                      </g>
                                    </g>
                                  </g>
                                </g>
                              </g>
                            </g>
                          </g>
                        </g>
                      </g>
                    </g>
                  </g>
                </g>
              </g>
            </g>
          </g>
        </g>
      </g>
    </g>
    <g id="risk-management_12634581" transform="translate(16.003 13.224)">
      <path id="Trazado_1054001" data-name="Trazado 1054001" d="M67.462,42.485a10.164,10.164,0,0,1,3.031,16.857,1.567,1.567,0,0,0,.207.518,1.8,1.8,0,0,0,.673.6.722.722,0,0,1,.3.321A1.184,1.184,0,0,1,71.518,62l7.608,10.263a.724.724,0,0,1,.063.092,1.415,1.415,0,0,1,.18.851,3.414,3.414,0,0,1-.082,5.864l0,0a3.412,3.412,0,0,1-4.661-1.25v0a3.412,3.412,0,0,1-.4-1.1,3.46,3.46,0,0,1-.053-.5,1.412,1.412,0,0,1-.647-.581.731.731,0,0,1-.055-.119L68.388,63.8a1.329,1.329,0,0,1-.925-.239V74.383A2.723,2.723,0,0,1,64.746,77.1H21.305a3.248,3.248,0,0,1-2.851-1.647c-.009-.015-.017-.03-.024-.045a3.21,3.21,0,0,1,.024-3.247L23.2,63.941h0l1.059-1.834V22.2a2.723,2.723,0,0,1,2.717-2.717H37.9a1.446,1.446,0,0,1,1.439-1.324h2.771a4.376,4.376,0,0,1,1.387-1.453,4.338,4.338,0,0,1,4.736,0,4.375,4.375,0,0,1,1.387,1.453h2.771a1.446,1.446,0,0,1,1.439,1.324H64.746A2.723,2.723,0,0,1,67.463,22.2V42.486Z" transform="translate(-18.001 -16.005)" fill-rule="evenodd"/>
      <g id="Grupo_1210559" data-name="Grupo 1210559" transform="translate(1.453 1.456)">
        <path id="Trazado_1054002" data-name="Trazado 1054002" d="M38.721,315.481l-9.488,16.431a1.836,1.836,0,0,0,1.6,2.763H49.8a1.841,1.841,0,0,0,1.6-2.76q-4.745-8.219-9.488-16.437a1.83,1.83,0,0,0-3.191,0Zm1.6,14.291a2.166,2.166,0,1,1-2.166,2.166A2.166,2.166,0,0,1,40.316,329.772Zm0-.572a1.791,1.791,0,0,1-1.791-1.791c0-2.943-.234-5.922-.234-8.889a1.964,1.964,0,0,1,.59-1.4,2.033,2.033,0,0,1,2.871,0,1.964,1.964,0,0,1,.59,1.4c0,2.889-.159,5.963-.237,8.889a1.787,1.787,0,0,1-1.788,1.791Z" transform="translate(-28.979 -276.494)" fill="#fba23d" fill-rule="evenodd"/>
        <path id="Trazado_1054003" data-name="Trazado 1054003" d="M137.45,98.8V81.695H104.677v29.644a3.3,3.3,0,0,1,4.172,1.381l9.33,16.157h10.627V120.96a.727.727,0,0,1,.727-.727h7.917v-1.284a10.164,10.164,0,0,1,0-20.148Zm-24.157-8.029a7.986,7.986,0,0,1,.748-1.8l-.685-.685a.725.725,0,0,1-.213-.514v-.967a.725.725,0,0,1,.219-.521l1.057-1.057a.725.725,0,0,1,.514-.213h.967a.725.725,0,0,1,.521.219l.679.679a7.964,7.964,0,0,1,.878-.429,8.063,8.063,0,0,1,.923-.319V84.2a.725.725,0,0,1,.22-.521L119.8,83a.725.725,0,0,1,.514-.213h1.5a.725.725,0,0,1,.521.219l.677.677a.725.725,0,0,1,.213.514v.968a7.985,7.985,0,0,1,1.8.748l.685-.685a.725.725,0,0,1,.514-.213h.967a.725.725,0,0,1,.521.219l1.057,1.058a.725.725,0,0,1,.213.514v.967a.725.725,0,0,1-.219.521l-.679.679a7.974,7.974,0,0,1,.429.878,8.064,8.064,0,0,1,.319.923h.968a.725.725,0,0,1,.521.22l.677.677a.725.725,0,0,1,.213.514v1.5a.725.725,0,0,1-.219.521l-.677.677a.725.725,0,0,1-.514.213h-.968a7.986,7.986,0,0,1-.748,1.8l.686.685a.725.725,0,0,1,.213.514v.967a.725.725,0,0,1-.219.521l-1.057,1.057a.725.725,0,0,1-.514.213h-.967a.725.725,0,0,1-.521-.219l-.679-.679a7.976,7.976,0,0,1-.878.429,8.061,8.061,0,0,1-.923.319v.968a.725.725,0,0,1-.22.521l-.677.677a.725.725,0,0,1-.514.213h-1.5a.725.725,0,0,1-.521-.219l-.677-.677a.725.725,0,0,1-.213-.514v-.968a7.991,7.991,0,0,1-1.8-.748l-.685.685a.725.725,0,0,1-.514.213h-.967a.725.725,0,0,1-.521-.219l-1.058-1.058a.725.725,0,0,1-.213-.514V98.1a.725.725,0,0,1,.219-.521l.679-.679a7.97,7.97,0,0,1-.429-.878,8.064,8.064,0,0,1-.319-.923h-.968a.725.725,0,0,1-.521-.22l-.677-.677a.725.725,0,0,1-.213-.514v-1.5a.725.725,0,0,1,.219-.521l.677-.677a.725.725,0,0,1,.514-.213h.968Zm2.146,15.9a.727.727,0,0,1,0-1.455h11.052a.727.727,0,1,1,0,1.455Zm0,3.359a.727.727,0,0,1,0-1.455h10.717a.727.727,0,0,1,0,1.455Zm0,8.072a.727.727,0,0,1,0-1.455h13.816a.727.727,0,0,1,0,1.455Zm0-3.359a.727.727,0,0,1,0-1.455H127.18a.727.727,0,1,1,0,1.455Zm-5.009-8.683a.726.726,0,0,1,1.074.977l-1.949,2.148a.727.727,0,0,1-1.094-.023L107.4,107.89a.726.726,0,1,1,1.114-.932l.53.634,1.39-1.532Z" transform="translate(-94.659 -74.457)" fill="#e9e5dc" fill-rule="evenodd"/>
        <path id="Trazado_1054004" data-name="Trazado 1054004" d="M307.628,221.578a8.71,8.71,0,1,0,.606,16.641.73.73,0,0,1,.714.084,3.149,3.149,0,0,1,1.068,1.163,3.007,3.007,0,0,1,.306.956,3.918,3.918,0,0,0,1.611-.93,3.039,3.039,0,0,1-.673-.745,3.16,3.16,0,0,1-.477-1.545.725.725,0,0,1,.263-.6,8.711,8.711,0,0,0-3.418-15.025Zm-.376,1.4a7.261,7.261,0,1,1-8.893,5.135A7.264,7.264,0,0,1,307.252,222.977Z" transform="translate(-261.238 -195.572)" fill="#204a5d" fill-rule="evenodd"/>
        <path id="Trazado_1054005" data-name="Trazado 1054005" d="M300.9,74.343V54.533a1.268,1.268,0,0,0-1.262-1.262H288.723v2.307h9.144a.727.727,0,0,1,.727.727V74.05A10.187,10.187,0,0,1,300.9,74.343Z" transform="translate(-254.349 -49.795)" fill="#24809d" fill-rule="evenodd"/>
        <path id="Trazado_1054006" data-name="Trazado 1054006" d="M227.68,361.984v1.921a.722.722,0,0,1-.219.52l-8.631,8.631a.727.727,0,0,1-.522.221H207.531a3.283,3.283,0,0,1-.538,2.307h21.732a1.268,1.268,0,0,0,1.262-1.262V361.694a10.1,10.1,0,0,1-2.307.29Z" transform="translate(-183.435 -317.402)" fill="#24809d" fill-rule="evenodd"/>
        <path id="Trazado_1054007" data-name="Trazado 1054007" d="M325.9,243.387A5.809,5.809,0,1,0,330,250.5,5.814,5.814,0,0,0,325.9,243.387Zm1.057,2.914a.726.726,0,0,1,1.074.977l-4.007,4.416a.726.726,0,0,1-1.026.048c-.616-.561-1.664-1.979-2.257-2.689a.726.726,0,0,1,1.114-.932L323.5,250.1l3.448-3.8Z" transform="translate(-280.256 -214.579)" fill="#e9e5dc" fill-rule="evenodd"/>
        <path id="Trazado_1054008" data-name="Trazado 1054008" d="M456.571,458.274a5.418,5.418,0,0,1-3.124,1.8c0,.039.01.077.017.116a1.965,1.965,0,1,0,3.2-1.847q-.045-.038-.092-.073Z" transform="translate(-397.274 -401.201)" fill="#24809d" fill-rule="evenodd"/>
        <path id="Trazado_1054009" data-name="Trazado 1054009" d="M417.437,381.159l-7.484-10.1a5.767,5.767,0,0,1-.67.388l5,11.525c.256.21,1.511-.276,1.837-.463.287-.166,1.361-1.011,1.318-1.355Z" transform="translate(-358.955 -325.532)" fill="#535b63" fill-rule="evenodd"/>
        <path id="Trazado_1054010" data-name="Trazado 1054010" d="M109.992,440.593a.711.711,0,1,0,.711.711A.711.711,0,0,0,109.992,440.593Z" transform="translate(-98.654 -385.86)" fill="#f3585c" fill-rule="evenodd"/>
        <path id="Trazado_1054011" data-name="Trazado 1054011" d="M111.251,349.926c.03-2.943.232-6.029.232-8.889a.52.52,0,0,0-.158-.369.583.583,0,0,0-.825,0,.52.52,0,0,0-.158.369c0,2.966.234,5.948.234,8.889a.336.336,0,0,0,.336.336.34.34,0,0,0,.339-.336Z" transform="translate(-99.575 -299.011)" fill="#f3585c" fill-rule="evenodd"/>
        <path id="Trazado_1054012" data-name="Trazado 1054012" d="M78.559,87.931V56.305a.727.727,0,0,1,.727-.727H88.43V53.271H77.514a1.267,1.267,0,0,0-1.262,1.262V91.918C77.006,90.612,77.759,89.2,78.559,87.931Z" transform="translate(-69.996 -49.795)" fill="#24809d" fill-rule="evenodd"/>
        <path id="Trazado_1054013" data-name="Trazado 1054013" d="M165.962,106a6.584,6.584,0,0,0-.946,2.3.728.728,0,0,1-.719.619h-1.24l-.257.257v.9l.257.257h1.24a.728.728,0,0,1,.719.619,6.584,6.584,0,0,0,.946,2.3.727.727,0,0,1-.058.963l-.877.877v.364l.638.638h.364l.877-.877a.727.727,0,0,1,.963-.058,6.584,6.584,0,0,0,2.3.946.728.728,0,0,1,.619.719v1.24l.257.257h.9l.257-.257v-1.24a.728.728,0,0,1,.619-.719,6.581,6.581,0,0,0,2.3-.946.727.727,0,0,1,.963.058l.877.877h.364l.638-.638v-.364l-.877-.877a.727.727,0,0,1-.058-.963,6.584,6.584,0,0,0,.946-2.3.728.728,0,0,1,.719-.619h1.24l.257-.257v-.9l-.257-.257h-1.24a.728.728,0,0,1-.719-.619,6.583,6.583,0,0,0-.946-2.3.727.727,0,0,1,.058-.963l.877-.877V103.8l-.638-.638h-.364l-.877.877a.727.727,0,0,1-.963.058,6.583,6.583,0,0,0-2.3-.946.728.728,0,0,1-.619-.719v-1.24l-.257-.257h-.9l-.257.257v1.24a.728.728,0,0,1-.619.719,6.584,6.584,0,0,0-2.3.946.727.727,0,0,1-.963-.058l-.877-.877h-.364l-.638.638v.364l.877.877a.727.727,0,0,1,.058.963Zm9.295,7.388a5.321,5.321,0,1,1,1.559-3.763A5.3,5.3,0,0,1,175.257,113.392Z" transform="translate(-145.09 -91.15)" fill="#24809d" fill-rule="evenodd"/>
        <path id="Trazado_1054014" data-name="Trazado 1054014" d="M203.149,145.151a3.866,3.866,0,1,0-2.734-1.132A3.855,3.855,0,0,0,203.149,145.151Z" transform="translate(-176.745 -122.806)" fill="#204a5d" fill-rule="evenodd"/>
        <path id="Trazado_1054015" data-name="Trazado 1054015" d="M304.155,383.9h-6.161v6.161Z" transform="translate(-262.393 -336.668)" fill="#204a5d" fill-rule="evenodd"/>
        <path id="Trazado_1054016" data-name="Trazado 1054016" d="M183.153,28.69a.727.727,0,0,1-.679.466h-3.2v3.631H192.3V29.156h-3.2a.727.727,0,0,1-.679-.466,2.9,2.9,0,0,0-5.268,0Z" transform="translate(-159.383 -27.004)" fill="#fd7400" fill-rule="evenodd"/>
      </g>
    </g>
  </g>
</svg>
