<svg xmlns="http://www.w3.org/2000/svg" xmlns:xlink="http://www.w3.org/1999/xlink" width="113" height="113" viewBox="0 0 113 113">
  <defs>
    <filter id="Trazado_982547" x="0" y="0" width="113" height="113" filterUnits="userSpaceOnUse">
      <feOffset dy="3" input="SourceAlpha"/>
      <feGaussianBlur stdDeviation="3" result="blur"/>
      <feFlood flood-opacity="0.161"/>
      <feComposite operator="in" in2="blur"/>
      <feComposite in="SourceGraphic"/>
    </filter>
  </defs>
  <g id="Grupo_1210631" data-name="Grupo 1210631" transform="translate(-690 -7434.7)">
    <g id="Grupo_1210420" data-name="Grupo 1210420" transform="translate(-422 -3938.783)">
      <g id="Grupo_1210123" data-name="Grupo 1210123" transform="translate(0 9051.484)">
        <g id="Grupo_1209055" data-name="Grupo 1209055" transform="translate(0 1091.783)">
          <g id="Grupo_1209049" data-name="Grupo 1209049">
            <g id="Grupo_1208493" data-name="Grupo 1208493" transform="translate(0 -4397.209)">
              <g id="Grupo_1202104" data-name="Grupo 1202104" transform="translate(0 -1149.226)">
                <g id="Grupo_1201923" data-name="Grupo 1201923" transform="translate(-4174.49 4856.378)">
                  <g id="Grupo_1176928" data-name="Grupo 1176928" transform="translate(5295.49 1926.273)">
                    <g id="Grupo_1172322" data-name="Grupo 1172322" transform="translate(0 0)">
                      <g id="Grupo_1164700" data-name="Grupo 1164700">
                        <g id="Grupo_1160931" data-name="Grupo 1160931">
                          <g id="Grupo_1160749" data-name="Grupo 1160749">
                            <g id="Grupo_1158891" data-name="Grupo 1158891">
                              <g id="Grupo_1157406" data-name="Grupo 1157406">
                                <g id="Grupo_1155793" data-name="Grupo 1155793">
                                  <g id="Grupo_1154704" data-name="Grupo 1154704">
                                    <g id="Grupo_1150790" data-name="Grupo 1150790">
                                      <g id="Grupo_1154214" data-name="Grupo 1154214">
                                        <g id="Grupo_1152583" data-name="Grupo 1152583">
                                          <g id="Grupo_1146973" data-name="Grupo 1146973">
                                            <g id="Grupo_1146954" data-name="Grupo 1146954">
                                              <g transform="matrix(1, 0, 0, 1, -9, -6)" filter="url(#Trazado_982547)">
                                                <g id="Trazado_982547-2" data-name="Trazado 982547" transform="translate(9 6)" fill="#fef9e7">
                                                  <path d="M 47.5000114440918 93.49987030029297 C 41.28938293457031 93.49987030029297 35.26534652709961 92.28384399414062 29.5951976776123 89.88558959960938 C 24.11773109436035 87.56881713867188 19.19814491271973 84.25183868408203 14.97310447692871 80.02680206298828 C 10.74805164337158 75.80176544189453 7.43107795715332 70.88218688964844 5.114304542541504 65.40472412109375 C 2.716038227081299 59.73458862304688 1.500011444091797 53.71054840087891 1.500011444091797 47.49993515014648 C 1.500011444091797 41.28932189941406 2.716038227081299 35.26528167724609 5.114304542541504 29.59514808654785 C 7.43107795715332 24.1176815032959 10.74805164337158 19.1981086730957 14.97310447692871 14.97306823730469 C 19.19814491271973 10.74802875518799 24.11773109436035 7.431055068969727 29.5951976776123 5.11428165435791 C 35.26534652709961 2.716028451919556 41.28938293457031 1.500001788139343 47.5000114440918 1.500001788139343 C 53.71063995361328 1.500001788139343 59.73467636108398 2.716028451919556 65.40482330322266 5.11428165435791 C 70.88229370117188 7.431055068969727 75.8018798828125 10.74802875518799 80.02691650390625 14.97306823730469 C 84.25196838378906 19.1981086730957 87.56894683837891 24.1176815032959 89.88571929931641 29.59514808654785 C 92.28398132324219 35.26528167724609 93.50001525878906 41.28932189941406 93.50001525878906 47.49993515014648 C 93.50001525878906 53.71054840087891 92.28398132324219 59.73458862304688 89.88571929931641 65.40472412109375 C 87.56894683837891 70.88218688964844 84.25196838378906 75.80176544189453 80.02691650390625 80.02680206298828 C 75.8018798828125 84.25183868408203 70.88229370117188 87.56881713867188 65.40482330322266 89.88558959960938 C 59.73467636108398 92.28384399414062 53.71063995361328 93.49987030029297 47.5000114440918 93.49987030029297 Z" stroke="none"/>
                                                  <path d="M 47.5000114440918 3 C 41.49122619628906 3 35.66378021240234 4.1761474609375 30.17951965332031 6.495796203613281 C 24.880859375 8.7369384765625 20.12153625488281 11.94596862792969 16.03376770019531 16.03373718261719 C 11.94598388671875 20.12149047851562 8.736968994140625 24.88081359863281 6.495811462402344 30.17947387695312 C 4.176162719726562 35.66371917724609 3.000007629394531 41.49116516113281 3.000007629394531 47.49993515014648 C 3.000007629394531 53.50870513916016 4.176162719726562 59.33615112304688 6.495811462402344 64.82039642333984 C 8.736968994140625 70.11905670166016 11.94598388671875 74.87837982177734 16.03376770019531 78.96613311767578 C 20.12153625488281 83.05390167236328 24.880859375 86.26293182373047 30.17951965332031 88.50407409667969 C 35.66378021240234 90.82372283935547 41.49122619628906 91.99987030029297 47.5000114440918 91.99987030029297 C 53.50879669189453 91.99987030029297 59.33624267578125 90.82372283935547 64.82050323486328 88.50407409667969 C 70.11916351318359 86.26293182373047 74.87848663330078 83.05390167236328 78.96625518798828 78.96613311767578 C 83.05403900146484 74.87837982177734 86.2630615234375 70.11905670166016 88.50421142578125 64.82039642333984 C 90.82386016845703 59.33615112304688 92.00001525878906 53.50870513916016 92.00001525878906 47.49993515014648 C 92.00001525878906 41.49116516113281 90.82386016845703 35.66371917724609 88.50421142578125 30.17947387695312 C 86.2630615234375 24.88081359863281 83.05403900146484 20.12149047851562 78.96625518798828 16.03373718261719 C 74.87848663330078 11.94596862792969 70.11916351318359 8.7369384765625 64.82050323486328 6.495796203613281 C 59.33624267578125 4.1761474609375 53.50879669189453 3 47.5000114440918 3 M 47.5000114440918 0 C 73.73353576660156 0 95.00001525878906 21.26644134521484 95.00001525878906 47.49993515014648 C 95.00001525878906 73.73342895507812 73.73353576660156 94.99987030029297 47.5000114440918 94.99987030029297 C 21.26648712158203 94.99987030029297 7.62939453125e-06 73.73342895507812 7.62939453125e-06 47.49993515014648 C 7.62939453125e-06 21.26644134521484 21.26648712158203 0 47.5000114440918 0 Z" stroke="none" fill="#f8ce24"/>
                                                </g>
                                              </g>
                                            </g>
                                          </g>
                                        </g>
                                      </g>
                                    </g>
                                  </g>
                                </g>
                              </g>
                            </g>
                          </g>
                        </g>
                      </g>
                    </g>
                  </g>
                </g>
              </g>
            </g>
          </g>
        </g>
      </g>
    </g>
    <g id="zebra-crossing_8171140" transform="translate(713.082 7453.312)">
      <g id="Layer_3" transform="translate(1.567 3.387)">
        <g id="Grupo_1210565" data-name="Grupo 1210565">
          <path id="Trazado_1054041" data-name="Trazado 1054041" d="M63.853,55.629A6.169,6.169,0,0,1,58.4,58.793H7.307A6.294,6.294,0,0,1,1.892,49.28L27.607,5.9A6.289,6.289,0,0,1,33.042,2.82h.021a6.2,6.2,0,0,1,5.415,3.121L63.832,49.323A6.162,6.162,0,0,1,63.853,55.629Z" transform="translate(-1 -2.82)" fill="#fbb321"/>
        </g>
        <g id="Grupo_1210567" data-name="Grupo 1210567" transform="translate(11.881 14.029)">
          <circle id="Elipse_13448" data-name="Elipse 13448" cx="4.315" cy="4.315" r="4.315" transform="translate(15.654)" fill="#fff"/>
          <g id="Grupo_1210566" data-name="Grupo 1210566" transform="translate(0 27.551)">
            <path id="Trazado_1054042" data-name="Trazado 1054042" d="M12.43,29.1H6.595l5.162-6.7H16.08Z" transform="translate(-6.595 -22.402)" fill="#fff"/>
            <path id="Trazado_1054043" data-name="Trazado 1054043" d="M17.768,29.1H11.935l2.223-6.7h4.321Z" transform="translate(-0.596 -22.402)" fill="#fff"/>
            <path id="Trazado_1054044" data-name="Trazado 1054044" d="M23.484,29.1H17.651l-.713-6.7h4.321Z" transform="translate(5.024 -22.402)" fill="#fff"/>
            <path id="Trazado_1054045" data-name="Trazado 1054045" d="M30.377,29.1H24.544l-3.65-6.7h4.321Z" transform="translate(9.469 -22.402)" fill="#fff"/>
          </g>
        </g>
      </g>
      <g id="Layer_4" transform="translate(0.495 2.315)">
        <g id="Grupo_1210569" data-name="Grupo 1210569">
          <g id="Grupo_1210568" data-name="Grupo 1210568">
            <path id="Trazado_1054046" data-name="Trazado 1054046" d="M65.321,49.347,39.967,5.967a7.366,7.366,0,0,0-12.7-.042L1.538,49.3A7.37,7.37,0,0,0,7.876,60.431H58.961a7.365,7.365,0,0,0,6.36-11.084Zm-1.811,6.326a5.192,5.192,0,0,1-4.55,2.635H7.876a5.246,5.246,0,0,1-4.512-7.92L29.1,7.008a5.245,5.245,0,0,1,9.039.03L63.49,50.417A5.191,5.191,0,0,1,63.509,55.672Z" transform="translate(-0.495 -2.315)"/>
            <path id="Trazado_1054047" data-name="Trazado 1054047" d="M34.05,5.864a3.075,3.075,0,0,0-2.688-1.548h-.006A3.1,3.1,0,0,0,28.67,5.847L2.94,49.222a3.123,3.123,0,0,0,2.684,4.716H56.709A3.12,3.12,0,0,0,59.4,49.243ZM57.576,51.311a.953.953,0,0,1-.866.5H5.624a1,1,0,0,1-.858-1.51L30.5,6.928a.955.955,0,0,1,.858-.488.966.966,0,0,1,.862.495L57.571,50.313a.955.955,0,0,1,0,1Z" transform="translate(1.757 -0.067)"/>
            <path id="Trazado_1054048" data-name="Trazado 1054048" d="M17.552,22.422a1.06,1.06,0,0,0-.913-.52H12.318a1.062,1.062,0,0,0-.841.414l-5.16,6.7a1.06,1.06,0,0,0,.841,1.707h5.833a1.06,1.06,0,0,0,.932-.554l3.65-6.7a1.057,1.057,0,0,0-.021-1.049ZM12.36,28.6H9.315l3.525-4.576h2.013Z" transform="translate(5.797 19.689)"/>
            <path id="Trazado_1054049" data-name="Trazado 1054049" d="M28.45,37.207a1.062,1.062,0,0,0-1.009-.728H24.184l-2-1.522V24.048l4.253,2.988.97,3.586a1.062,1.062,0,0,0,2.049-.556l-1.07-3.956a1.054,1.054,0,0,0-.414-.59l-5.788-4.068V19.572a5.376,5.376,0,1,0-2.123,0V27.04l-4.922,2.348a1.061,1.061,0,1,0,.915,1.915l4.007-1.913v5.752l-.951,1.348c-.025,0-.047-.015-.07-.015H14.718a1.064,1.064,0,0,0-1.009.728l-2.221,6.7a1.06,1.06,0,0,0,1.007,1.4h5.833a1.059,1.059,0,0,0,1.055-.949l.571-5.368,1.4-1.99.718.548a1.019,1.019,0,0,0-.011.11l.711,6.7a1.061,1.061,0,0,0,1.055.949h5.835a1.06,1.06,0,0,0,1.007-1.4ZM17.873,14.3a3.253,3.253,0,1,1,3.253,3.251A3.256,3.256,0,0,1,17.873,14.3ZM15.487,38.6h2.143L14.4,43.178h-.435Zm1.888,4.578H17l.44-.624Zm7-3.886,2.261,1.724.524,2.162H24.789Z" transform="translate(11.795 5.113)"/>
            <path id="Trazado_1054050" data-name="Trazado 1054050" d="M26.618,22.317a1.062,1.062,0,0,0-.841-.414H21.456a1.062,1.062,0,0,0-.932,1.569l3.65,6.7a1.06,1.06,0,0,0,.932.554h5.833a1.06,1.06,0,0,0,.841-1.707ZM25.737,28.6l-2.493-4.576h2.011L28.782,28.6Z" transform="translate(21.86 19.69)"/>
          </g>
        </g>
      </g>
      <g id="Layer_5" transform="translate(33.423 3.392)">
        <g id="Grupo_1210570" data-name="Grupo 1210570" opacity="0.2">
          <path id="Trazado_1054051" data-name="Trazado 1054051" d="M46.983,49.325,21.629,5.943a6.2,6.2,0,0,0-5.415-3.121H16V58.8H41.547a6.3,6.3,0,0,0,5.436-9.47Z" transform="translate(-16.002 -2.822)"/>
        </g>
      </g>
    </g>
  </g>
</svg>
