<svg xmlns="http://www.w3.org/2000/svg" xmlns:xlink="http://www.w3.org/1999/xlink" width="103" height="103" viewBox="0 0 103 103">
  <defs>
    <filter id="Trazado_904820" x="0" y="0" width="103" height="103" filterUnits="userSpaceOnUse">
      <feOffset dy="3" input="SourceAlpha"/>
      <feGaussianBlur stdDeviation="3" result="blur"/>
      <feFlood flood-opacity="0.161"/>
      <feComposite operator="in" in2="blur"/>
      <feComposite in="SourceGraphic"/>
    </filter>
  </defs>
  <g id="Grupo_1210593" data-name="Grupo 1210593" transform="translate(-189 -8240.227)">
    <g id="Grupo_1210198" data-name="Grupo 1210198" transform="translate(0 7395.444)">
      <g id="Grupo_1210086" data-name="Grupo 1210086" transform="translate(4 -1506.217)">
        <g id="Grupo_1209249" data-name="Grupo 1209249" transform="translate(-15 1589)">
          <g id="Grupo_1202705" data-name="Grupo 1202705" transform="translate(209 768)">
            <g id="Grupo_1173585" data-name="Grupo 1173585" transform="translate(0 0)">
              <g id="Grupo_1173428" data-name="Grupo 1173428">
                <g id="Grupo_1171958" data-name="Grupo 1171958">
                  <g id="Grupo_1167341" data-name="Grupo 1167341">
                    <g id="Grupo_1166792" data-name="Grupo 1166792">
                      <g transform="matrix(1, 0, 0, 1, -9, -6)" filter="url(#Trazado_904820)">
                        <g id="Trazado_904820-2" data-name="Trazado 904820" transform="translate(9 6)" fill="#fef9e7">
                          <path d="M 42.49999618530273 83.50002288818359 C 36.96437454223633 83.50002288818359 31.59512519836426 82.41619873046875 26.54140853881836 80.27865600585938 C 21.65933799743652 78.21370697021484 17.27447891235352 75.25724792480469 13.50861930847168 71.49138641357422 C 9.742773056030273 67.72554016113281 6.786302089691162 63.34067153930664 4.721360683441162 58.45859909057617 C 2.583819627761841 53.40488052368164 1.499996185302734 48.0356330871582 1.499996185302734 42.5000114440918 C 1.499996185302734 36.96438980102539 2.583819627761841 31.59514045715332 4.721360683441162 26.54142379760742 C 6.786302089691162 21.65933990478516 9.742773056030273 17.27448272705078 13.50861930847168 13.50862312316895 C 17.27447891235352 9.742775917053223 21.65933799743652 6.78630542755127 26.54140853881836 4.721364498138428 C 31.59512519836426 2.583823204040527 36.96437454223633 1.499999642372131 42.49999618530273 1.499999642372131 C 48.03561782836914 1.499999642372131 53.40486526489258 2.583823204040527 58.45858383178711 4.721364498138428 C 63.34065628051758 6.78630542755127 67.72551727294922 9.742775917053223 71.49137115478516 13.50862312316895 C 75.25721740722656 17.27448272705078 78.21369171142578 21.65933990478516 80.27863311767578 26.54142379760742 C 82.41617584228516 31.59514045715332 83.5 36.96438980102539 83.5 42.5000114440918 C 83.5 48.0356330871582 82.41617584228516 53.40488052368164 80.27863311767578 58.45859909057617 C 78.21369171142578 63.34067153930664 75.25721740722656 67.72554016113281 71.49137115478516 71.49138641357422 C 67.72551727294922 75.25724792480469 63.34065628051758 78.21370697021484 58.45858383178711 80.27865600585938 C 53.40486526489258 82.41619873046875 48.03561782836914 83.50002288818359 42.49999618530273 83.50002288818359 Z" stroke="none"/>
                          <path d="M 42.49999618530273 3 C 37.16621017456055 3 31.99356842041016 4.043960571289062 27.1257438659668 6.102874755859375 C 22.42246246337891 8.092201232910156 18.19786071777344 10.94070434570312 14.56927490234375 14.56929016113281 C 10.94070434570312 18.19786834716797 8.092185974121094 22.42246627807617 6.102874755859375 27.1257438659668 C 4.043952941894531 31.99357223510742 2.999992370605469 37.16622543334961 2.999992370605469 42.5000114440918 C 2.999992370605469 47.83379745483398 4.043952941894531 53.00645065307617 6.102874755859375 57.8742790222168 C 8.092185974121094 62.57754516601562 10.94070434570312 66.80214691162109 14.56927490234375 70.43073272705078 C 18.19786071777344 74.05931854248047 22.42246246337891 76.90782165527344 27.1257438659668 78.89714813232422 C 31.99356842041016 80.95606231689453 37.16621017456055 82.00002288818359 42.49999618530273 82.00002288818359 C 47.83378219604492 82.00002288818359 53.00642395019531 80.95606231689453 57.87425231933594 78.89714813232422 C 62.57752990722656 76.90782165527344 66.80213165283203 74.05931854248047 70.43071746826172 70.43073272705078 C 74.05928802490234 66.80214691162109 76.90780639648438 62.57754516601562 78.89711761474609 57.8742790222168 C 80.95603942871094 53.00645065307617 82 47.83379745483398 82 42.5000114440918 C 82 37.16622543334961 80.95603942871094 31.99357223510742 78.89711761474609 27.1257438659668 C 76.90780639648438 22.42246627807617 74.05928802490234 18.19786834716797 70.43071746826172 14.56929016113281 C 66.80213165283203 10.94070434570312 62.57752990722656 8.092201232910156 57.87425231933594 6.102874755859375 C 53.00642395019531 4.043960571289062 47.83378219604492 3 42.49999618530273 3 M 42.49999618530273 0 C 65.97209167480469 0 85 19.02790832519531 85 42.5000114440918 C 85 65.97210693359375 65.97209167480469 85.00002288818359 42.49999618530273 85.00002288818359 C 19.02790069580078 85.00002288818359 -7.62939453125e-06 65.97210693359375 -7.62939453125e-06 42.5000114440918 C -7.62939453125e-06 19.02790832519531 19.02790069580078 0 42.49999618530273 0 Z" stroke="none" fill="#887013"/>
                        </g>
                      </g>
                    </g>
                  </g>
                </g>
              </g>
            </g>
          </g>
        </g>
      </g>
    </g>
    <g id="emotional-intelligence_17645954" transform="translate(210.337 8259.534)">
      <g id="Grupo_1210592" data-name="Grupo 1210592" transform="translate(0.581 0.615)">
        <g id="Grupo_1210578" data-name="Grupo 1210578" transform="translate(0.005 8.56)">
          <path id="Trazado_1054065" data-name="Trazado 1054065" d="M13.415,80.584v1.591a8.133,8.133,0,0,0-2.762,1.145L9.527,82.195a9.778,9.778,0,0,0-2.391,2.395l1.126,1.126a8.042,8.042,0,0,0-1.145,2.762H5.522a9.829,9.829,0,0,0,0,3.38H7.117A7.978,7.978,0,0,0,8.262,94.62L7.136,95.745A9.778,9.778,0,0,0,9.527,98.14l1.126-1.126a8.135,8.135,0,0,0,2.762,1.145v1.591a9.848,9.848,0,0,0,3.384,0V98.16a8.16,8.16,0,0,0,2.762-1.145l1.126,1.126a9.78,9.78,0,0,0,2.391-2.395L21.952,94.62A8.107,8.107,0,0,0,23.1,91.858h1.591a9.623,9.623,0,0,0,0-3.38H23.1a8.105,8.105,0,0,0-1.145-2.762l1.126-1.126a9.78,9.78,0,0,0-2.391-2.395l-1.126,1.126A8.162,8.162,0,0,0,16.8,82.175V80.584a9.848,9.848,0,0,0-3.384,0Z" transform="translate(-5.376 -80.438)" fill="#05e39c" fill-rule="evenodd"/>
        </g>
        <g id="Grupo_1210579" data-name="Grupo 1210579" transform="translate(4.872 13.427)">
          <path id="Trazado_1054066" data-name="Trazado 1054066" d="M52.924,132.848a4.862,4.862,0,1,0-4.864-4.864A4.873,4.873,0,0,0,52.924,132.848Z" transform="translate(-48.06 -123.123)" fill="#f2fbff" fill-rule="evenodd"/>
        </g>
        <g id="Grupo_1210580" data-name="Grupo 1210580" transform="translate(27.903)">
          <path id="Trazado_1054067" data-name="Trazado 1054067" d="M250.043,5.369H271.7l7.607,7.6V43.031H250.043Z" transform="translate(-250.043 -5.369)" fill="#e8f0fe" fill-rule="evenodd"/>
        </g>
        <g id="Grupo_1210581" data-name="Grupo 1210581" transform="translate(49.558 0)">
          <path id="Trazado_1054068" data-name="Trazado 1054068" d="M447.564,12.972h-7.607v-7.6Z" transform="translate(-439.957 -5.369)" fill="#9dc6fb" fill-rule="evenodd"/>
        </g>
        <g id="Grupo_1210582" data-name="Grupo 1210582" transform="translate(27.903 23.337)">
          <path id="Trazado_1054069" data-name="Trazado 1054069" d="M250.043,210.034A14.406,14.406,0,0,1,252,212.78a13.388,13.388,0,0,1,.634,11.579h-2.587Z" transform="translate(-250.043 -210.034)" fill="#cce4ff" fill-rule="evenodd"/>
        </g>
        <g id="Grupo_1210583" data-name="Grupo 1210583" transform="translate(3.017 18.288)">
          <path id="Trazado_1054070" data-name="Trazado 1054070" d="M31.8,172.788a15.554,15.554,0,0,1,13.2-7.037,16.408,16.408,0,0,1,3.247.329,9.889,9.889,0,0,1-.143,1.363H46.506a8.105,8.105,0,0,1-1.145,2.762l1.126,1.126a9.78,9.78,0,0,1-2.391,2.395L42.969,172.6a8.162,8.162,0,0,1-2.762,1.145v1.591a9.848,9.848,0,0,1-3.384,0v-1.591a8.132,8.132,0,0,1-2.762-1.145l-1.126,1.126A9.508,9.508,0,0,1,31.8,172.788Z" transform="translate(-31.797 -165.751)" fill="#0ed290" fill-rule="evenodd"/>
        </g>
        <g id="Grupo_1210584" data-name="Grupo 1210584" transform="translate(6.271 18.369)">
          <path id="Trazado_1054071" data-name="Trazado 1054071" d="M60.329,169.8a15.938,15.938,0,0,1,8.329-3.335,4.866,4.866,0,0,1-8.329,3.335Z" transform="translate(-60.329 -166.464)" fill="#cce4ff" fill-rule="evenodd"/>
        </g>
        <g id="Grupo_1210585" data-name="Grupo 1210585" transform="translate(0 19.729)">
          <path id="Trazado_1054072" data-name="Trazado 1054072" d="M21.548,178.391c7.652,0,13.86,5.736,13.86,12.809a12.054,12.054,0,0,1-2.131,6.826c-3.4,6.393-3.608,12.347-.127,17.793H15.3l-.211-5.144-4.913-.527a2.785,2.785,0,0,1-2.5-2.733l-.039-1.991,1.471-1.246-1.786-.9.264-2.414-1.636-.836a1.119,1.119,0,0,1-.465-1.549l2.534-4.5a11.867,11.867,0,0,1-.329-2.775C7.688,184.127,13.892,178.391,21.548,178.391Z" transform="translate(-5.334 -178.391)" fill="#ffcebf" fill-rule="evenodd"/>
        </g>
        <g id="Grupo_1210586" data-name="Grupo 1210586" transform="translate(5.867 23.672)">
          <path id="Trazado_1054073" data-name="Trazado 1054073" d="M64.831,213.119v1.591a8.159,8.159,0,0,0-2.762,1.145l-1.126-1.126a9.762,9.762,0,0,0-2.391,2.391l1.126,1.126a8.162,8.162,0,0,0-1.145,2.762H56.942a9.641,9.641,0,0,0,0,3.384h1.591a8.066,8.066,0,0,0,1.145,2.762l-1.126,1.126a9.777,9.777,0,0,0,2.391,2.395l1.126-1.126a8.163,8.163,0,0,0,2.762,1.145v1.591a9.847,9.847,0,0,0,3.384,0v-1.591a8.133,8.133,0,0,0,2.762-1.145l1.126,1.126a9.777,9.777,0,0,0,2.391-2.395l-1.126-1.126a8.069,8.069,0,0,0,1.145-2.762h1.594a9.848,9.848,0,0,0,0-3.384H74.513a8.092,8.092,0,0,0-1.145-2.762l1.126-1.126A9.766,9.766,0,0,0,72.1,214.73l-1.126,1.126a8.134,8.134,0,0,0-2.762-1.145v-1.591a9.849,9.849,0,0,0-3.384,0Z" transform="translate(-56.792 -212.973)" fill="#ef5350" fill-rule="evenodd"/>
        </g>
        <g id="Grupo_1210587" data-name="Grupo 1210587" transform="translate(10.735 28.536)">
          <path id="Trazado_1054074" data-name="Trazado 1054074" d="M104.341,265.357a4.864,4.864,0,1,0-4.864-4.864A4.873,4.873,0,0,0,104.341,265.357Z" transform="translate(-99.477 -255.629)" fill="#f2fbff" fill-rule="evenodd"/>
        </g>
        <g id="Grupo_1210588" data-name="Grupo 1210588" transform="translate(38.213 30.403)">
          <path id="Trazado_1054075" data-name="Trazado 1054075" d="M340.464,298.152V276.458l3.224-4.451,3.224,4.451v21.694c0,.335-.449.608-1,.608h-4.444C340.916,298.76,340.464,298.487,340.464,298.152Z" transform="translate(-340.464 -272.007)" fill="#ffd54f" fill-rule="evenodd"/>
        </g>
        <g id="Grupo_1210589" data-name="Grupo 1210589" transform="translate(38.213 30.403)">
          <path id="Trazado_1054076" data-name="Trazado 1054076" d="M343.688,272.007l-3.224,4.451h6.448Z" transform="translate(-340.464 -272.007)" fill="#144f87" fill-rule="evenodd"/>
        </g>
        <g id="Grupo_1210590" data-name="Grupo 1210590" transform="translate(38.213 54.095)">
          <path id="Trazado_1054077" data-name="Trazado 1054077" d="M346.911,479.782h-6.448v2.453c0,.335.452.608,1,.608h4.444c.553,0,1-.273,1-.608Z" transform="translate(-340.463 -479.782)" fill="#ef5350" fill-rule="evenodd"/>
        </g>
        <g id="Grupo_1210591" data-name="Grupo 1210591" transform="translate(15.253 28.536)">
          <path id="Trazado_1054078" data-name="Trazado 1054078" d="M139.453,255.629c-.117,0-.231.007-.345.013a4.863,4.863,0,0,1,0,9.7c.114.01.228.013.345.013a4.864,4.864,0,1,0,0-9.728Z" transform="translate(-139.108 -255.629)" fill="#cce4ff" fill-rule="evenodd"/>
        </g>
      </g>
      <path id="Trazado_1054079" data-name="Trazado 1054079" d="M58.123,7.79,50.569.237A.8.8,0,0,0,50,0H28.488a.8.8,0,0,0-.8.8V24.076a14.793,14.793,0,0,0-6.848-3.963,10.6,10.6,0,0,0,.064-1.14,10.387,10.387,0,0,0-.158-1.821.8.8,0,0,0-.786-.658H19a8.8,8.8,0,0,0-.755-1.822l.677-.677a.8.8,0,0,0,.089-1.024A10.551,10.551,0,0,0,16.441,10.4a.8.8,0,0,0-1.024.089l-.677.677a8.8,8.8,0,0,0-1.822-.755V9.451a.8.8,0,0,0-.658-.786,10.624,10.624,0,0,0-3.641,0,.8.8,0,0,0-.659.786v.958a8.844,8.844,0,0,0-1.821.755l-.675-.677A.8.8,0,0,0,4.44,10.4,10.55,10.55,0,0,0,1.867,12.97a.8.8,0,0,0,.089,1.024l.677.677a8.792,8.792,0,0,0-.755,1.822H.921a.8.8,0,0,0-.786.658,10.573,10.573,0,0,0,0,3.642.8.8,0,0,0,.786.659h.958a8.847,8.847,0,0,0,.755,1.821l-.676.674a.8.8,0,0,0-.09,1.024A10.548,10.548,0,0,0,3.844,27.09a12.66,12.66,0,0,0-1.258,8.668l-2.367,4.2a1.908,1.908,0,0,0,.8,2.642l1.136.58-.2,1.851a.8.8,0,0,0,.433.8l.7.355-.543.46a.8.8,0,0,0-.282.623l.036,1.98a3.59,3.59,0,0,0,3.2,3.492l4.2.45.179,4.422a.8.8,0,0,0,.8.766H28.4a.8.8,0,0,0,.673-1.228c-3.233-5.058-3.188-10.564.138-16.834a13.276,13.276,0,0,0,.778-1.3h7.946V56.98c0,.8.771,1.4,1.794,1.4h4.415c1.023,0,1.794-.6,1.794-1.4V39.016h11.62a.8.8,0,0,0,.8-.8V8.355a.8.8,0,0,0-.234-.565ZM50.8,2.729l4.828,4.828H50.8ZM3.578,24.586l.625-.623a.8.8,0,0,0,.105-1,7.281,7.281,0,0,1-1.026-2.474.8.8,0,0,0-.781-.633H1.616c-.029-.29-.043-.585-.043-.882s.014-.593.043-.882H2.5a.8.8,0,0,0,.781-.634,7.229,7.229,0,0,1,1.025-2.472.8.8,0,0,0-.1-1l-.626-.626a8.937,8.937,0,0,1,1.249-1.249l.623.625a.8.8,0,0,0,1,.105,7.284,7.284,0,0,1,2.474-1.026.8.8,0,0,0,.633-.781v-.885a9.162,9.162,0,0,1,1.765,0v.885a.8.8,0,0,0,.634.781,7.23,7.23,0,0,1,2.472,1.025.8.8,0,0,0,1-.1l.626-.626a8.935,8.935,0,0,1,1.25,1.25l-.626.626a.8.8,0,0,0-.1,1A7.227,7.227,0,0,1,17.6,17.457a.8.8,0,0,0,.781.634h.885c.028.289.043.584.043.882,0,.274-.013.546-.037.814a15.7,15.7,0,0,0-2.4-.184c-.283,0-.564.008-.843.023a5.727,5.727,0,0,0,.038-.653,5.631,5.631,0,1,0-9.21,4.344,13.922,13.922,0,0,0-2.167,2.406,8.949,8.949,0,0,1-1.116-1.136ZM8.162,22.3a4.032,4.032,0,1,1,6.311-3.323,4.064,4.064,0,0,1-.084.828,15.088,15.088,0,0,0-6.227,2.5Zm19.66,17.237c-3.326,6.249-3.6,12.046-.814,17.254H11.435l-.176-4.344a.8.8,0,0,0-.713-.762l-4.882-.524a1.966,1.966,0,0,1-1.775-1.935l-.029-1.6,1.172-.993a.8.8,0,0,0-.155-1.321L3.6,44.658l.2-1.849a.8.8,0,0,0-.43-.8L1.74,41.18a.311.311,0,0,1-.13-.434l2.518-4.47a.8.8,0,0,0,.081-.575,11.091,11.091,0,0,1,1.269-8.259.767.767,0,0,0,.174-.283A13.215,13.215,0,0,1,16.875,21.2c7.152,0,12.971,5.35,12.971,11.927a11.2,11.2,0,0,1-1.978,6.331A.763.763,0,0,0,27.822,39.533Zm11.71,14.212V36.226H41V53.745H39.532ZM42.6,36.226h1.745V53.745H42.6Zm-2.3-1.6,1.639-2.262,1.639,2.262Zm3.846,22.157H39.729a.747.747,0,0,1-.2-.025v-1.42h4.809v1.419A.734.734,0,0,1,44.145,56.786Zm1.794-19.367V35.428a.8.8,0,0,0-.009-.113l0-.022a.782.782,0,0,0-.026-.11l0,0a.8.8,0,0,0-.043-.1l-.006-.013a.805.805,0,0,0-.059-.1l0-.006-3.2-4.422a.8.8,0,0,0-1.293,0l-3.2,4.422,0,.006a.806.806,0,0,0-.059.1l-.006.013a.812.812,0,0,0-.043.1l0,0a.8.8,0,0,0-.026.11l0,.022a.8.8,0,0,0-.009.113v1.991H30.69a12.656,12.656,0,0,0-1.4-11.365V1.6h19.92V8.355a.8.8,0,0,0,.8.8H56.76V37.419ZM25.786,31.5h-.958a8.839,8.839,0,0,0-.755-1.822L24.75,29a.8.8,0,0,0,.088-1.025,10.522,10.522,0,0,0-2.574-2.57.8.8,0,0,0-1.023.091l-.675.677a8.847,8.847,0,0,0-1.821-.755v-.958a.8.8,0,0,0-.659-.786,10.628,10.628,0,0,0-3.641,0,.8.8,0,0,0-.658.786v.957a8.792,8.792,0,0,0-1.822.755l-.677-.677a.8.8,0,0,0-1.022-.09,10.522,10.522,0,0,0-2.574,2.57A.8.8,0,0,0,7.78,29l.678.678A8.84,8.84,0,0,0,7.7,31.5H6.745a.8.8,0,0,0-.786.659,10.58,10.58,0,0,0,0,3.641.8.8,0,0,0,.786.659H7.7a8.792,8.792,0,0,0,.755,1.822l-.677.677a.8.8,0,0,0-.089,1.024,10.548,10.548,0,0,0,2.573,2.573.8.8,0,0,0,1.024-.089l.677-.677a8.792,8.792,0,0,0,1.822.755v.957a.8.8,0,0,0,.663.787,10.572,10.572,0,0,0,3.632,0,.8.8,0,0,0,.663-.787v-.958a8.85,8.85,0,0,0,1.821-.755l.675.677a.8.8,0,0,0,1.024.09,10.548,10.548,0,0,0,2.573-2.573.8.8,0,0,0-.089-1.024l-.678-.678a8.833,8.833,0,0,0,.756-1.822h.957a.8.8,0,0,0,.786-.659,10.578,10.578,0,0,0,0-3.641.8.8,0,0,0-.786-.659Zm-.7,3.361h-.885a.8.8,0,0,0-.781.634A7.266,7.266,0,0,1,22.4,37.972a.8.8,0,0,0,.1,1l.626.626a8.938,8.938,0,0,1-1.249,1.249l-.623-.625a.8.8,0,0,0-1-.105,7.286,7.286,0,0,1-2.474,1.026.8.8,0,0,0-.633.781v.883a8.861,8.861,0,0,1-1.765,0v-.884a.8.8,0,0,0-.634-.781,7.233,7.233,0,0,1-2.472-1.025.8.8,0,0,0-1,.1l-.626.626A8.935,8.935,0,0,1,9.4,39.6l.626-.626a.8.8,0,0,0,.1-1A7.226,7.226,0,0,1,9.106,35.5a.8.8,0,0,0-.781-.634H7.44c-.028-.29-.043-.585-.043-.882s.014-.592.043-.882h.885a.8.8,0,0,0,.781-.633,7.279,7.279,0,0,1,1.026-2.474.8.8,0,0,0-.1-1L9.4,28.368A8.913,8.913,0,0,1,10.65,27.12l.627.627a.8.8,0,0,0,1,.1,7.23,7.23,0,0,1,2.472-1.025.8.8,0,0,0,.634-.781V25.16a9.19,9.19,0,0,1,1.765,0v.885a.8.8,0,0,0,.633.781,7.286,7.286,0,0,1,2.474,1.026.8.8,0,0,0,1-.105l.624-.625a8.914,8.914,0,0,1,1.248,1.247l-.626.626a.8.8,0,0,0-.1,1,7.28,7.28,0,0,1,1.026,2.474.8.8,0,0,0,.781.633h.885c.029.29.043.585.043.882s-.014.592-.043.883Zm-8.823-6.513a5.631,5.631,0,1,0,5.627,5.63A5.637,5.637,0,0,0,16.267,28.353Zm0,9.664A4.034,4.034,0,1,1,20.3,33.983,4.038,4.038,0,0,1,16.267,38.017ZM52,11.409a.8.8,0,0,1-.8.8H41.051a.8.8,0,1,1,0-1.6H51.2A.8.8,0,0,1,52,11.409Zm0,2.657a.8.8,0,0,1-.8.8H41.051a.8.8,0,0,1,0-1.6H51.2a.8.8,0,0,1,.8.8ZM38.187,11.28,34.91,15.217a.8.8,0,0,1-.614.288h0a.8.8,0,0,1-.614-.289l-1.71-2.062A.8.8,0,1,1,33.2,12.135l1.1,1.322,2.663-3.2a.8.8,0,0,1,1.227,1.022ZM52,18.957a.8.8,0,0,1-.8.8H41.051a.8.8,0,0,1,0-1.6H51.2A.8.8,0,0,1,52,18.957Zm0,2.66a.8.8,0,0,1-.8.8H41.051a.8.8,0,0,1,0-1.6H51.2A.8.8,0,0,1,52,21.617ZM33.682,22.766,31.972,20.7A.8.8,0,1,1,33.2,19.685l1.1,1.322,2.663-3.2a.8.8,0,0,1,1.227,1.021l-3.277,3.94a.8.8,0,0,1-.614.288h0a.8.8,0,0,1-.614-.289ZM52,26.507a.8.8,0,0,1-.8.8H41.051a.8.8,0,0,1,0-1.6H51.2A.8.8,0,0,1,52,26.507Zm0,2.66a.8.8,0,0,1-.8.8H41.051a.8.8,0,0,1,0-1.6H51.2A.8.8,0,0,1,52,29.167ZM38.187,26.378,34.91,30.315a.8.8,0,0,1-.614.288h0a.8.8,0,0,1-.614-.289l-1.71-2.062A.8.8,0,1,1,33.2,27.232l1.1,1.322,2.663-3.2a.8.8,0,0,1,1.227,1.022Z" transform="translate(0 0)"/>
    </g>
  </g>
</svg>
