<svg xmlns="http://www.w3.org/2000/svg" xmlns:xlink="http://www.w3.org/1999/xlink" width="98" height="98" viewBox="0 0 98 98">
  <defs>
    <filter id="Trazado_904820" x="0" y="0" width="98" height="98" filterUnits="userSpaceOnUse">
      <feOffset dy="3" input="SourceAlpha"/>
      <feGaussianBlur stdDeviation="3" result="blur"/>
      <feFlood flood-opacity="0.161"/>
      <feComposite operator="in" in2="blur"/>
      <feComposite in="SourceGraphic"/>
    </filter>
  </defs>
  <g id="Grupo_1210654" data-name="Grupo 1210654" transform="translate(-191 -2583.93)">
    <g id="Grupo_1210391" data-name="Grupo 1210391" transform="translate(0 -9893.312)">
      <g id="Grupo_1210129" data-name="Grupo 1210129" transform="translate(0 4735.458)">
        <g id="Grupo_1209198" data-name="Grupo 1209198" transform="translate(200 7747.783)">
          <g id="Grupo_1202705" data-name="Grupo 1202705" transform="translate(0 0)">
            <g id="Grupo_1173585" data-name="Grupo 1173585" transform="translate(0 0)">
              <g id="Grupo_1173428" data-name="Grupo 1173428">
                <g id="Grupo_1171958" data-name="Grupo 1171958">
                  <g id="Grupo_1167341" data-name="Grupo 1167341">
                    <g id="Grupo_1166792" data-name="Grupo 1166792">
                      <g transform="matrix(1, 0, 0, 1, -9, -6)" filter="url(#Trazado_904820)">
                        <g id="Trazado_904820-2" data-name="Trazado 904820" transform="translate(9 6)" fill="#fef9e7">
                          <path d="M 39.99999618530273 78.50002288818359 C 34.80187225341797 78.50002288818359 29.76002883911133 77.4822998046875 25.01451873779297 75.47511291503906 C 20.43014144897461 73.53608703613281 16.31264114379883 70.7598876953125 12.77638530731201 67.22362518310547 C 9.240129470825195 63.6873664855957 6.463929653167725 59.56986618041992 4.524896144866943 54.98548889160156 C 2.517718315124512 50.2399787902832 1.499996185302734 45.19814300537109 1.499996185302734 40.0000114440918 C 1.499996185302734 34.8018798828125 2.517718315124512 29.76003456115723 4.524896144866943 25.01453399658203 C 6.463929653167725 20.43015670776367 9.240129470825195 16.31264495849609 12.77638530731201 12.77638912200928 C 16.31264114379883 9.240133285522461 20.43014144897461 6.46393346786499 25.01451873779297 4.524900436401367 C 29.76002883911133 2.517722606658936 34.80186462402344 1.500000357627869 39.99999618530273 1.500000357627869 C 45.19812774658203 1.500000357627869 50.23996353149414 2.517722606658936 54.9854736328125 4.524900436401367 C 59.56985092163086 6.46393346786499 63.68735122680664 9.240133285522461 67.22360992431641 12.77638912200928 C 70.75986480712891 16.31264495849609 73.53606414794922 20.43015670776367 75.47509765625 25.01453399658203 C 77.48227691650391 29.76003456115723 78.5 34.8018798828125 78.5 40.0000114440918 C 78.5 45.19814300537109 77.48227691650391 50.2399787902832 75.47509765625 54.98548889160156 C 73.53606414794922 59.56986618041992 70.75986480712891 63.6873664855957 67.22360992431641 67.22362518310547 C 63.68735122680664 70.7598876953125 59.56985092163086 73.53608703613281 54.9854736328125 75.47511291503906 C 50.23996353149414 77.4822998046875 45.1981201171875 78.50002288818359 39.99999618530273 78.50002288818359 Z" stroke="none"/>
                          <path d="M 39.99999618530273 3 C 35.00370407104492 3 30.15846252441406 3.977851867675781 25.59885025024414 5.906410217285156 C 21.19327545166016 7.769813537597656 17.23603439331055 10.43806457519531 13.83705139160156 13.83705139160156 C 10.43806457519531 17.23603820800781 7.769805908203125 21.19327926635742 5.906410217285156 25.59885025024414 C 3.977851867675781 30.15846633911133 2.999992370605469 35.00371932983398 2.999992370605469 40.0000114440918 C 2.999992370605469 44.99630355834961 3.977851867675781 49.84154510498047 5.906410217285156 54.40115737915039 C 7.769805908203125 58.80674743652344 10.43806457519531 62.76398468017578 13.83705139160156 66.16297149658203 C 17.23603439331055 69.56195831298828 21.19327545166016 72.23020935058594 25.59885025024414 74.09361267089844 C 30.15846252441406 76.02217102050781 35.00370407104492 77.00002288818359 39.99999618530273 77.00002288818359 C 44.99628829956055 77.00002288818359 49.84152984619141 76.02217102050781 54.40114212036133 74.09361267089844 C 58.80671691894531 72.23020935058594 62.76395416259766 69.56195831298828 66.16294097900391 66.16297149658203 C 69.56192779541016 62.76398468017578 72.23017883300781 58.80674743652344 74.09358215332031 54.40115737915039 C 76.02214050292969 49.84154510498047 77 44.99630355834961 77 40.0000114440918 C 77 35.00371932983398 76.02214050292969 30.15846633911133 74.09358215332031 25.59885025024414 C 72.23017883300781 21.19327926635742 69.56192779541016 17.23603820800781 66.16294097900391 13.83705139160156 C 62.76395416259766 10.43806457519531 58.80671691894531 7.769813537597656 54.40114212036133 5.906410217285156 C 49.84152984619141 3.977851867675781 44.99628829956055 3 39.99999618530273 3 M 39.99999618530273 0 C 62.09138488769531 0 80 17.90861129760742 80 40.0000114440918 C 80 62.09140014648438 62.09138488769531 80.00002288818359 39.99999618530273 80.00002288818359 C 17.90861129760742 80.00002288818359 -7.62939453125e-06 62.09140014648438 -7.62939453125e-06 40.0000114440918 C -7.62939453125e-06 17.90861129760742 17.90861129760742 0 39.99999618530273 0 Z" stroke="none" fill="#887013"/>
                        </g>
                      </g>
                    </g>
                  </g>
                </g>
              </g>
            </g>
          </g>
        </g>
      </g>
    </g>
    <g id="project_4698487" transform="translate(213.593 2604.593)">
      <g id="Grupo_1210652" data-name="Grupo 1210652" transform="translate(0.852 0.852)">
        <g id="Grupo_1210635" data-name="Grupo 1210635" transform="translate(37.481 37.481)">
          <path id="Trazado_1054298" data-name="Trazado 1054298" d="M55.222,45.852v3.407a.854.854,0,0,1-.852.852H45.852A.854.854,0,0,1,45,49.259V45.852A.854.854,0,0,1,45.852,45H54.37A.854.854,0,0,1,55.222,45.852Z" transform="translate(-45 -45)" fill="#e6e9ed"/>
        </g>
        <g id="Grupo_1210636" data-name="Grupo 1210636" transform="translate(37.481 20.444)">
          <path id="Trazado_1054299" data-name="Trazado 1054299" d="M55.222,25.852v3.407a.854.854,0,0,1-.852.852H45.852A.854.854,0,0,1,45,29.259V25.852A.854.854,0,0,1,45.852,25H54.37A.854.854,0,0,1,55.222,25.852Z" transform="translate(-45 -25)" fill="#e6e9ed"/>
        </g>
        <g id="Grupo_1210637" data-name="Grupo 1210637" transform="translate(37.481 28.962)">
          <path id="Trazado_1054300" data-name="Trazado 1054300" d="M55.222,35.852v3.407a.854.854,0,0,1-.852.852H45.852A.854.854,0,0,1,45,39.259V35.852A.854.854,0,0,1,45.852,35H54.37A.854.854,0,0,1,55.222,35.852Z" transform="translate(-45 -35)" fill="#e6e9ed"/>
        </g>
        <g id="Grupo_1210638" data-name="Grupo 1210638" transform="translate(5.111 44.67)">
          <path id="Trazado_1054301" data-name="Trazado 1054301" d="M11.259,54.769H30.851a1.7,1.7,0,0,0,1.661-1.329,2.922,2.922,0,0,1,.043.477v4.259a1.709,1.709,0,0,1-1.7,1.7H8.7a1.709,1.709,0,0,1-1.7-1.7V53.917a2.818,2.818,0,0,1,.043-.469A1.7,1.7,0,0,0,8.7,54.769h2.556Z" transform="translate(-7 -53.44)" fill="#ccd1d9"/>
        </g>
        <g id="Grupo_1210639" data-name="Grupo 1210639" transform="translate(27.259 42.592)">
          <path id="Trazado_1054302" data-name="Trazado 1054302" d="M33.852,51a2.553,2.553,0,0,1,2.513,2.078A1.7,1.7,0,0,1,34.7,54.407H33V51.852A.854.854,0,0,1,33.852,51Z" transform="translate(-33 -51)" fill="#e6e9ed"/>
        </g>
        <g id="Grupo_1210640" data-name="Grupo 1210640" transform="translate(5.154 42.592)">
          <path id="Trazado_1054303" data-name="Trazado 1054303" d="M10.415,51.852v2.556h-1.7a1.7,1.7,0,0,1-1.661-1.32A2.563,2.563,0,0,1,9.563,51,.854.854,0,0,1,10.415,51.852Z" transform="translate(-7.05 -51)" fill="#e6e9ed"/>
        </g>
        <g id="Grupo_1210641" data-name="Grupo 1210641" transform="translate(9.37 39.185)">
          <path id="Trazado_1054304" data-name="Trazado 1054304" d="M28.969,53.338A8.058,8.058,0,0,0,23.926,47l-3.407,3.407L17.111,47a8.058,8.058,0,0,0-5.043,6.338L12,53.815H29.037Z" transform="translate(-12 -47)" fill="#b4dd7f"/>
        </g>
        <g id="Grupo_1210642" data-name="Grupo 1210642" transform="translate(14.481 39.082)">
          <path id="Trazado_1054305" data-name="Trazado 1054305" d="M18.86,46.957q.422.026.843.026h5.111L21.407,50.39,18,46.982v-.1C18.29,46.914,18.571,46.94,18.86,46.957Z" transform="translate(-18 -46.88)" fill="#f0d0b4"/>
        </g>
        <g id="Grupo_1210643" data-name="Grupo 1210643" transform="translate(1.704 22.148)">
          <path id="Trazado_1054306" data-name="Trazado 1054306" d="M18.333,27v3.407h-.852a2.556,2.556,0,0,0,0,5.111h.852a22.04,22.04,0,0,1-1.584,8.212l-.111.281c-.29-.017-.571-.043-.86-.077A14.48,14.48,0,0,1,3,29.556V27Z" transform="translate(-3 -27)" fill="#656d78"/>
        </g>
        <g id="Grupo_1210644" data-name="Grupo 1210644" transform="translate(13.629 22.148)">
          <path id="Trazado_1054307" data-name="Trazado 1054307" d="M33.253,40.5a10.2,10.2,0,0,1-7.735,3.535H19.556q-.422,0-.843-.026l.111-.281a22.04,22.04,0,0,0,1.584-8.212h-.852a2.556,2.556,0,0,1,0-5.111h.852V27H35.74v6.815a10.218,10.218,0,0,1-.145,1.7h-6.67a5.019,5.019,0,0,0,4.2,4.958Z" transform="translate(-17 -27)" fill="#f0d0b4"/>
        </g>
        <g id="Grupo_1210645" data-name="Grupo 1210645" transform="translate(25.555 30.666)">
          <path id="Trazado_1054308" data-name="Trazado 1054308" d="M31,37h6.67a10.106,10.106,0,0,1-2.343,4.983l-.128-.026A5.019,5.019,0,0,1,31,37Z" transform="translate(-31 -37)" fill="#ff826e"/>
        </g>
        <g id="Grupo_1210646" data-name="Grupo 1210646" transform="translate(5.111 6.815)">
          <path id="Trazado_1054309" data-name="Trazado 1054309" d="M30.851,20.926H26.592l-.273-.537a8.263,8.263,0,0,0-14.788,0l-.273.537H7a11.926,11.926,0,1,1,23.851,0Z" transform="translate(-7 -9)" fill="#ff826e"/>
        </g>
        <g id="Grupo_1210647" data-name="Grupo 1210647" transform="translate(9.37 13.629)">
          <path id="Trazado_1054310" data-name="Trazado 1054310" d="M27.06,21.574l.273.537H12l.273-.537a8.264,8.264,0,0,1,14.788,0Z" transform="translate(-12 -17)" fill="#ffeaa7"/>
        </g>
        <g id="Grupo_1210648" data-name="Grupo 1210648" transform="translate(1.704 3.407)">
          <path id="Trazado_1054311" data-name="Trazado 1054311" d="M33.666,20.333H30.259a11.926,11.926,0,1,0-23.851,0H3a15.333,15.333,0,1,1,30.666,0Z" transform="translate(-3 -5)" fill="#fc6e51"/>
        </g>
        <g id="Grupo_1210649" data-name="Grupo 1210649" transform="translate(0 18.74)">
          <path id="Trazado_1054312" data-name="Trazado 1054312" d="M35.074,23.852v1.7a.854.854,0,0,1-.852.852H1.852A.854.854,0,0,1,1,25.556v-1.7A.854.854,0,0,1,1.852,23h32.37A.854.854,0,0,1,35.074,23.852Z" transform="translate(-1 -23)" fill="#fc6e51"/>
        </g>
        <g id="Grupo_1210650" data-name="Grupo 1210650" transform="translate(34.074)">
          <path id="Trazado_1054313" data-name="Trazado 1054313" d="M44.407,9.518a5.111,5.111,0,1,0,5.111-5.111A5.115,5.115,0,0,0,44.407,9.518Zm5.111,8.518h-1.7v-.29a1.7,1.7,0,0,0-2.9-1.21l-.213.213L42.286,14.34l.213-.213a1.7,1.7,0,0,0-1.21-2.9H41V7.815h.29a1.7,1.7,0,0,0,1.21-2.9L42.286,4.7,44.7,2.286l.213.213a1.7,1.7,0,0,0,2.9-1.21V1h3.407v.29a1.7,1.7,0,0,0,2.9,1.21l.213-.213L56.75,4.7l-.213.213a1.7,1.7,0,0,0,1.21,2.9h.29v3.407h-.29a1.7,1.7,0,0,0-1.21,2.9l.213.213L54.34,16.75l-.213-.213a1.7,1.7,0,0,0-2.9,1.21v.29Z" transform="translate(-41 -1)" fill="#ffc729"/>
        </g>
        <g id="Grupo_1210651" data-name="Grupo 1210651" transform="translate(37.481 3.407)">
          <path id="Trazado_1054314" data-name="Trazado 1054314" d="M50.111,5A5.111,5.111,0,1,1,45,10.111,5.115,5.115,0,0,1,50.111,5Zm1.7,5.111a1.7,1.7,0,1,0-1.7,1.7A1.709,1.709,0,0,0,51.815,10.111Z" transform="translate(-45 -5)" fill="#fcd770"/>
        </g>
      </g>
      <g id="Grupo_1210653" data-name="Grupo 1210653" transform="translate(0 0)">
        <path id="Trazado_1054315" data-name="Trazado 1054315" d="M50.556,8a2.556,2.556,0,1,0,2.556,2.556A2.559,2.559,0,0,0,50.556,8Zm0,3.407a.852.852,0,1,1,.852-.852A.853.853,0,0,1,50.556,11.407Z" transform="translate(-7.112 -1.185)"/>
        <path id="Trazado_1054316" data-name="Trazado 1054316" d="M57.6,11.926H58.74V6.815H57.6a.852.852,0,0,1-.6-1.453l.811-.809L54.19.938l-.81.808a.852.852,0,0,1-1.454-.6V0H46.815V1.144a.852.852,0,0,1-1.455.6L44.551.938,40.937,4.552l.81.808a.852.852,0,0,1-.6,1.454H40v5.111h1.144a.852.852,0,0,1,.6,1.453l-.811.809L44.551,17.8l.81-.808a.852.852,0,0,1,1.454.6V18.74h1.7v1.7H45.111a1.705,1.705,0,0,0-1.7,1.7v3.407a1.705,1.705,0,0,0,1.7,1.7h3.407v1.7H45.111a1.705,1.705,0,0,0-1.7,1.7v3.407a1.705,1.705,0,0,0,1.7,1.7h3.407v1.7H45.111a1.705,1.705,0,0,0-1.7,1.7v3.407a1.705,1.705,0,0,0,1.7,1.7h8.518a1.705,1.705,0,0,0,1.7-1.7V39.185a1.705,1.705,0,0,0-1.7-1.7H50.222v-1.7h3.407a1.705,1.705,0,0,0,1.7-1.7V30.666a1.705,1.705,0,0,0-1.7-1.7H50.222v-1.7h3.407a1.705,1.705,0,0,0,1.7-1.7V22.148a1.705,1.705,0,0,0-1.7-1.7H50.222v-1.7h1.7V17.6a.852.852,0,0,1,1.455-.6l.809.808L57.8,14.188l-.81-.808a.852.852,0,0,1,.6-1.454ZM53.63,42.592H45.111V39.185h8.518Zm0-8.518H45.111V30.666h8.518Zm0-8.518H45.111V22.148h8.518Zm1.6-13.755a2.508,2.508,0,0,0,.2,2.348l-1.288,1.288a2.562,2.562,0,0,0-3.866,1.6H48.459a2.562,2.562,0,0,0-3.866-1.6L43.3,14.147a2.563,2.563,0,0,0-1.6-3.866V8.46a2.563,2.563,0,0,0,1.6-3.866l1.288-1.288a2.508,2.508,0,0,0,2.349.2A2.511,2.511,0,0,0,48.46,1.7h1.822a2.511,2.511,0,0,0,1.518,1.8,2.51,2.51,0,0,0,2.349-.2l1.288,1.288a2.563,2.563,0,0,0,1.6,3.866v1.822a2.506,2.506,0,0,0-1.8,1.518Z" transform="translate(-5.926 0)"/>
        <path id="Trazado_1054317" data-name="Trazado 1054317" d="M49.963,4a5.963,5.963,0,1,0,5.963,5.963A5.97,5.97,0,0,0,49.963,4Zm0,10.222a4.259,4.259,0,1,1,4.259-4.259A4.264,4.264,0,0,1,49.963,14.222Z" transform="translate(-6.519 -0.593)"/>
        <path id="Trazado_1054318" data-name="Trazado 1054318" d="M35.777,21.037a1.705,1.705,0,0,0-1.7-1.7H34.03a16.163,16.163,0,0,0-32.283,0H1.7a1.705,1.705,0,0,0-1.7,1.7v1.7a1.705,1.705,0,0,0,1.7,1.7v1.7A15.346,15.346,0,0,0,13.031,40.931a8.931,8.931,0,0,0-2.871,3.525,1.7,1.7,0,0,0-1.641-1.272,3.411,3.411,0,0,0-3.407,3.407v4.259a2.559,2.559,0,0,0,2.556,2.556H29.814a2.559,2.559,0,0,0,2.556-2.556V46.592a3.411,3.411,0,0,0-3.407-3.407,1.7,1.7,0,0,0-1.641,1.272A8.93,8.93,0,0,0,24.906,41.3a11.083,11.083,0,0,0,9.167-10.9V24.444a1.705,1.705,0,0,0,1.7-1.7ZM17.889,5.7A14.487,14.487,0,0,1,32.326,19.333h-1.7a12.762,12.762,0,0,0-25.468,0h-1.7A14.487,14.487,0,0,1,17.889,5.7ZM11.663,19.333a7.366,7.366,0,0,1,1.967-2.05v2.05Zm3.671-2.941a7.39,7.39,0,0,1,1.7-.408v3.349h-1.7Zm3.407-.408a7.39,7.39,0,0,1,1.7.408v2.941h-1.7Zm3.407,1.3a7.354,7.354,0,0,1,1.967,2.05H22.148Zm3.934,2.05-.034-.069a9.122,9.122,0,0,0-16.318,0l-.034.068H6.858a11.062,11.062,0,0,1,22.061,0ZM3.407,26.148v-1.7H17.037v1.7a3.407,3.407,0,0,0-.017,6.815,21.1,21.1,0,0,1-1.4,6.741A13.648,13.648,0,0,1,3.407,26.148ZM19.592,46.592v-2.2l1.7-1.7v3.907Zm-1.7-2.2v2.2h-1.7V42.685Zm.852-1.557-1.351-1.351h2.7Zm-4.259-.813v4.573h-3.24A7.2,7.2,0,0,1,14.481,42.019ZM8.518,44.888v1.7H7.667a.849.849,0,0,1-.766-.507A1.7,1.7,0,0,1,8.518,44.888Zm21.3,6.815H7.667a.853.853,0,0,1-.852-.852v-2.7a2.591,2.591,0,0,0,.852.144H29.814a2.54,2.54,0,0,0,.852-.148v2.7A.853.853,0,0,1,29.814,51.7Zm.766-5.618a.845.845,0,0,1-.766.507h-.852v-1.7A1.7,1.7,0,0,1,30.58,46.085Zm-4.341.507H23V42.019A7.2,7.2,0,0,1,26.239,46.592Zm4.154-10.45a4.15,4.15,0,0,1-3.048-3.18h4.661A9.353,9.353,0,0,1,30.394,36.142Zm1.976-5.735c0,.288-.018.571-.043.852H25.555v.852A5.855,5.855,0,0,0,29.1,37.5,9.322,9.322,0,0,1,23,39.777H17.42a22.857,22.857,0,0,0,1.32-7.667v-.852h-1.7a1.7,1.7,0,1,1,0-3.407h1.7V24.444H32.37ZM1.7,22.74v-1.7h32.37v1.7Z" transform="translate(0 -0.593)"/>
        <path id="Trazado_1054319" data-name="Trazado 1054319" d="M29.719,32.757a1.9,1.9,0,0,1,3.407,0l.089.18,1.524-.762L34.651,32A3.608,3.608,0,0,0,28.2,32l-.089.18,1.524.762Z" transform="translate(-4.164 -4.445)"/>
        <path id="Trazado_1054320" data-name="Trazado 1054320" d="M42,54h3.407v1.7H42Z" transform="translate(-6.223 -8.001)"/>
        <path id="Trazado_1054321" data-name="Trazado 1054321" d="M48,54h6.815v1.7H48Z" transform="translate(-7.112 -8.001)"/>
        <path id="Trazado_1054322" data-name="Trazado 1054322" d="M42,58H53.926v1.7H42Z" transform="translate(-6.223 -8.593)"/>
      </g>
    </g>
  </g>
</svg>
