<svg xmlns="http://www.w3.org/2000/svg" xmlns:xlink="http://www.w3.org/1999/xlink" width="98" height="98" viewBox="0 0 98 98">
  <defs>
    <filter id="Trazado_904820" x="0" y="0" width="98" height="98" filterUnits="userSpaceOnUse">
      <feOffset dy="3" input="SourceAlpha"/>
      <feGaussianBlur stdDeviation="3" result="blur"/>
      <feFlood flood-opacity="0.161"/>
      <feComposite operator="in" in2="blur"/>
      <feComposite in="SourceGraphic"/>
    </filter>
  </defs>
  <g id="Grupo_1210669" data-name="Grupo 1210669" transform="translate(-611 -2583.93)">
    <g id="Grupo_1210393" data-name="Grupo 1210393" transform="translate(0 -9893.312)">
      <g id="Grupo_1210130" data-name="Grupo 1210130" transform="translate(411 11715.241)">
        <g id="Grupo_1202705" data-name="Grupo 1202705" transform="translate(209 768)">
          <g id="Grupo_1173585" data-name="Grupo 1173585" transform="translate(0 0)">
            <g id="Grupo_1173428" data-name="Grupo 1173428">
              <g id="Grupo_1171958" data-name="Grupo 1171958">
                <g id="Grupo_1167341" data-name="Grupo 1167341">
                  <g id="Grupo_1166792" data-name="Grupo 1166792">
                    <g transform="matrix(1, 0, 0, 1, -9, -6)" filter="url(#Trazado_904820)">
                      <g id="Trazado_904820-2" data-name="Trazado 904820" transform="translate(9 6)" fill="#fef9e7">
                        <path d="M 39.99999618530273 78.50002288818359 C 34.80187225341797 78.50002288818359 29.76002883911133 77.4822998046875 25.01451873779297 75.47511291503906 C 20.43014144897461 73.53608703613281 16.31264114379883 70.7598876953125 12.77638530731201 67.22362518310547 C 9.240129470825195 63.6873664855957 6.463929653167725 59.56986618041992 4.524896144866943 54.98548889160156 C 2.517718315124512 50.2399787902832 1.499996185302734 45.19814300537109 1.499996185302734 40.0000114440918 C 1.499996185302734 34.8018798828125 2.517718315124512 29.76003456115723 4.524896144866943 25.01453399658203 C 6.463929653167725 20.43015670776367 9.240129470825195 16.31264495849609 12.77638530731201 12.77638912200928 C 16.31264114379883 9.240133285522461 20.43014144897461 6.46393346786499 25.01451873779297 4.524900436401367 C 29.76002883911133 2.517722606658936 34.80186462402344 1.500000357627869 39.99999618530273 1.500000357627869 C 45.19812774658203 1.500000357627869 50.23996353149414 2.517722606658936 54.9854736328125 4.524900436401367 C 59.56985092163086 6.46393346786499 63.68735122680664 9.240133285522461 67.22360992431641 12.77638912200928 C 70.75986480712891 16.31264495849609 73.53606414794922 20.43015670776367 75.47509765625 25.01453399658203 C 77.48227691650391 29.76003456115723 78.5 34.8018798828125 78.5 40.0000114440918 C 78.5 45.19814300537109 77.48227691650391 50.2399787902832 75.47509765625 54.98548889160156 C 73.53606414794922 59.56986618041992 70.75986480712891 63.6873664855957 67.22360992431641 67.22362518310547 C 63.68735122680664 70.7598876953125 59.56985092163086 73.53608703613281 54.9854736328125 75.47511291503906 C 50.23996353149414 77.4822998046875 45.1981201171875 78.50002288818359 39.99999618530273 78.50002288818359 Z" stroke="none"/>
                        <path d="M 39.99999618530273 3 C 35.00370407104492 3 30.15846252441406 3.977851867675781 25.59885025024414 5.906410217285156 C 21.19327545166016 7.769813537597656 17.23603439331055 10.43806457519531 13.83705139160156 13.83705139160156 C 10.43806457519531 17.23603820800781 7.769805908203125 21.19327926635742 5.906410217285156 25.59885025024414 C 3.977851867675781 30.15846633911133 2.999992370605469 35.00371932983398 2.999992370605469 40.0000114440918 C 2.999992370605469 44.99630355834961 3.977851867675781 49.84154510498047 5.906410217285156 54.40115737915039 C 7.769805908203125 58.80674743652344 10.43806457519531 62.76398468017578 13.83705139160156 66.16297149658203 C 17.23603439331055 69.56195831298828 21.19327545166016 72.23020935058594 25.59885025024414 74.09361267089844 C 30.15846252441406 76.02217102050781 35.00370407104492 77.00002288818359 39.99999618530273 77.00002288818359 C 44.99628829956055 77.00002288818359 49.84152984619141 76.02217102050781 54.40114212036133 74.09361267089844 C 58.80671691894531 72.23020935058594 62.76395416259766 69.56195831298828 66.16294097900391 66.16297149658203 C 69.56192779541016 62.76398468017578 72.23017883300781 58.80674743652344 74.09358215332031 54.40115737915039 C 76.02214050292969 49.84154510498047 77 44.99630355834961 77 40.0000114440918 C 77 35.00371932983398 76.02214050292969 30.15846633911133 74.09358215332031 25.59885025024414 C 72.23017883300781 21.19327926635742 69.56192779541016 17.23603820800781 66.16294097900391 13.83705139160156 C 62.76395416259766 10.43806457519531 58.80671691894531 7.769813537597656 54.40114212036133 5.906410217285156 C 49.84152984619141 3.977851867675781 44.99628829956055 3 39.99999618530273 3 M 39.99999618530273 0 C 62.09138488769531 0 80 17.90861129760742 80 40.0000114440918 C 80 62.09140014648438 62.09138488769531 80.00002288818359 39.99999618530273 80.00002288818359 C 17.90861129760742 80.00002288818359 -7.62939453125e-06 62.09140014648438 -7.62939453125e-06 40.0000114440918 C -7.62939453125e-06 17.90861129760742 17.90861129760742 0 39.99999618530273 0 Z" stroke="none" fill="#887013"/>
                      </g>
                    </g>
                  </g>
                </g>
              </g>
            </g>
          </g>
        </g>
      </g>
    </g>
    <g id="checklist_2563777_1_" data-name="checklist_2563777 (1)" transform="translate(634.01 2605.01)">
      <path id="Trazado_1054323" data-name="Trazado 1054323" d="M40.612,59.092,39,56.673,53.51,47l4.031,5.643v6.449Z" transform="translate(-7.368 -8.919)" fill="#a8b0bc"/>
      <path id="Trazado_1054324" data-name="Trazado 1054324" d="M40.612,59.67h9.246a11.127,11.127,0,0,0,.044-9.685L39,57.252Z" transform="translate(-7.368 -9.498)" fill="#c1c8d1"/>
      <path id="Trazado_1054325" data-name="Trazado 1054325" d="M55.2,49.37,40.612,59.092,39,56.673,53.51,47Z" transform="translate(-7.368 -8.919)" fill="#758190"/>
      <path id="Trazado_1054326" data-name="Trazado 1054326" d="M37.469,3.612A1.612,1.612,0,0,0,35.857,2H3.612A1.612,1.612,0,0,0,2,3.612V40.693a1.612,1.612,0,0,0,1.612,1.612H35.857a1.612,1.612,0,0,0,1.612-1.612Z" transform="translate(-0.194 -0.194)" fill="#758190"/>
      <path id="Trazado_1054327" data-name="Trazado 1054327" d="M35.632,5.806A.806.806,0,0,0,34.826,5H5.806A.806.806,0,0,0,5,5.806V39.663a.806.806,0,0,0,.806.806h29.02a.806.806,0,0,0,.806-.806Z" transform="translate(-0.776 -0.776)" fill="#ebf7fe"/>
      <g id="Grupo_1210655" data-name="Grupo 1210655" transform="translate(6.643 21.958)">
        <path id="Trazado_1054328" data-name="Trazado 1054328" d="M13.642,33.448H8.806A.805.805,0,0,1,8,32.642V27.805A.805.805,0,0,1,8.806,27h4.836a.805.805,0,0,1,.806.806v4.837A.805.805,0,0,1,13.642,33.448Zm-4.03-1.612h3.224V28.611H9.612Z" transform="translate(-8 -26.999)" fill="#758190"/>
      </g>
      <g id="Grupo_1210656" data-name="Grupo 1210656" transform="translate(6.643 30.825)">
        <path id="Trazado_1054329" data-name="Trazado 1054329" d="M13.642,44.448H8.806A.805.805,0,0,1,8,43.642V38.805A.805.805,0,0,1,8.806,38h4.836a.805.805,0,0,1,.806.806v4.837A.805.805,0,0,1,13.642,44.448Zm-4.03-1.612h3.224V39.611H9.612Z" transform="translate(-8 -37.999)" fill="#758190"/>
      </g>
      <g id="Grupo_1210657" data-name="Grupo 1210657" transform="translate(8.34 20.541)">
        <path id="Trazado_1054330" data-name="Trazado 1054330" d="M11.633,31.5a.818.818,0,0,1-.16-.016.805.805,0,0,1-.561-.43l-.806-1.612,1.441-.721.345.688,4.858-4.164,1.05,1.224L12.158,31.3a.811.811,0,0,1-.525.194Z" transform="translate(-10.106 -25.241)" fill="#96cc7f"/>
      </g>
      <g id="Grupo_1210658" data-name="Grupo 1210658" transform="translate(8.34 29.408)">
        <path id="Trazado_1054331" data-name="Trazado 1054331" d="M11.633,42.5a.818.818,0,0,1-.16-.016.805.805,0,0,1-.561-.43l-.806-1.612,1.441-.721.345.688,4.858-4.164,1.05,1.224L12.158,42.3a.811.811,0,0,1-.525.194Z" transform="translate(-10.106 -36.241)" fill="#96cc7f"/>
      </g>
      <g id="Grupo_1210659" data-name="Grupo 1210659" transform="translate(16.316 23.571)">
        <path id="Trazado_1054332" data-name="Trazado 1054332" d="M20,29h8.06v1.612H20Z" transform="translate(-20 -29)" fill="#c1c8d1"/>
      </g>
      <g id="Grupo_1210660" data-name="Grupo 1210660" transform="translate(16.316 26.796)">
        <path id="Trazado_1054333" data-name="Trazado 1054333" d="M20,33h4.836v1.612H20Z" transform="translate(-20 -33)" fill="#c1c8d1"/>
      </g>
      <g id="Grupo_1210661" data-name="Grupo 1210661" transform="translate(22.765 26.796)">
        <path id="Trazado_1054334" data-name="Trazado 1054334" d="M28,33h1.611v1.612H28Z" transform="translate(-28 -33)" fill="#c1c8d1"/>
      </g>
      <g id="Grupo_1210662" data-name="Grupo 1210662" transform="translate(16.316 32.438)">
        <path id="Trazado_1054335" data-name="Trazado 1054335" d="M20,40h8.06v1.612H20Z" transform="translate(-20 -40)" fill="#c1c8d1"/>
      </g>
      <g id="Grupo_1210663" data-name="Grupo 1210663" transform="translate(16.316 35.663)">
        <path id="Trazado_1054336" data-name="Trazado 1054336" d="M20,44h4.837v1.612H20Z" transform="translate(-20 -44)" fill="#c1c8d1"/>
      </g>
      <g id="Grupo_1210664" data-name="Grupo 1210664" transform="translate(22.765 35.663)">
        <path id="Trazado_1054337" data-name="Trazado 1054337" d="M28,44h1.611v1.612H28Z" transform="translate(-28 -44)" fill="#c1c8d1"/>
      </g>
      <path id="Trazado_1054338" data-name="Trazado 1054338" d="M8,9.612v.321A13.475,13.475,0,0,0,13.643,20.9,13.475,13.475,0,0,0,19.286,9.933V9.612L13.643,8Z" transform="translate(-1.357 -1.357)" fill="#f2c351"/>
      <g id="Grupo_1210665" data-name="Grupo 1210665" transform="translate(18.819 9.867)">
        <path id="Trazado_1054339" data-name="Trazado 1054339" d="M36.723,16.836H34.054a1.7,1.7,0,0,1-1.525-.942.085.085,0,0,0-.068-.049.092.092,0,0,0-.081.026l-.272.272a2.386,2.386,0,0,1-1.675.693,2.353,2.353,0,0,1-2.118-1.309l-.64-1.279a1.14,1.14,0,0,0-1.026-.635h0a1.144,1.144,0,0,0-1.029.635l-1.072,2.143-1.441-.721,1.072-2.143A2.746,2.746,0,0,1,26.647,12h0a2.744,2.744,0,0,1,2.469,1.527l.64,1.279a.782.782,0,0,0,1.211.2l.272-.272a1.7,1.7,0,0,1,2.731.443.093.093,0,0,0,.083.051h2.669v1.612Z" transform="translate(-23.105 -12)" fill="#c1c8d1"/>
      </g>
      <g id="Grupo_1210666" data-name="Grupo 1210666" transform="translate(18.734 15.51)">
        <path id="Trazado_1054340" data-name="Trazado 1054340" d="M23,19H33.478v1.612H23Z" transform="translate(-22.999 -19)" fill="#a8b0bc"/>
      </g>
      <g id="Grupo_1210667" data-name="Grupo 1210667" transform="translate(30.825 15.51)">
        <path id="Trazado_1054341" data-name="Trazado 1054341" d="M38,19H39.61v1.612H38Z" transform="translate(-37.999 -19)" fill="#a8b0bc"/>
      </g>
      <ellipse id="Elipse_13459" data-name="Elipse 13459" cx="2" cy="2.5" rx="2" ry="2.5" transform="translate(27.99 31.99)" fill="#c66b60"/>
      <path id="Trazado_1054342" data-name="Trazado 1054342" d="M51.052,43.339l-1.511-3.023V29.837A4.836,4.836,0,0,0,44.7,25H38.255a2.418,2.418,0,1,0,0,4.837h4.837V45.153a1.612,1.612,0,0,1-1.612,1.612H31l3.224,3.224h3.224l.907,1.814" transform="translate(-5.817 -4.653)" fill="#fadfb2"/>
      <path id="Trazado_1054343" data-name="Trazado 1054343" d="M8,9.612v.321a13.47,13.47,0,0,0,3.058,8.539,10.62,10.62,0,0,0,5.014-9.019c0-.26-.02-.515-.039-.77L13.643,8Z" transform="translate(-1.357 -1.357)" fill="#f7d881"/>
      <path id="Trazado_1054344" data-name="Trazado 1054344" d="M34,42.418a2.4,2.4,0,0,0,.773,1.764,4.362,4.362,0,0,0,2.311-3.85c0-.078-.007-.154-.011-.231A2.386,2.386,0,0,0,34,42.418Z" transform="translate(-6.398 -7.562)" fill="#e47c6e"/>
      <path id="Trazado_1054345" data-name="Trazado 1054345" d="M40.612,59.67l10.2-6.8a11.153,11.153,0,0,0-.913-2.887L39,57.252Z" transform="translate(-7.368 -9.497)" fill="#8892a0"/>
      <g id="Grupo_1210668" data-name="Grupo 1210668" transform="translate(1 1)">
        <path id="Trazado_1054346" data-name="Trazado 1054346" d="M14.285,27a.791.791,0,0,0-.643-.344H8.806A.805.805,0,0,0,8,27.465V32.3a.805.805,0,0,0,.806.806h4.836a.805.805,0,0,0,.806-.806V28.988l2.943-2.523-1.05-1.224ZM9.612,28.271h3.195l-1.323,1.134-.345-.688L9.7,29.438,10.5,31.05a.808.808,0,0,0,.561.43.849.849,0,0,0,.156.016H9.612Zm3.224,3.224H11.227a.809.809,0,0,0,.522-.194l1.087-.932v1.126Z" transform="translate(-2.357 -5.7)"/>
        <path id="Trazado_1054347" data-name="Trazado 1054347" d="M16.342,36.241,14.286,38a.792.792,0,0,0-.644-.345H8.806A.805.805,0,0,0,8,38.465V43.3a.805.805,0,0,0,.806.806h4.836a.805.805,0,0,0,.806-.806V39.988l2.943-2.523Zm-6.73,3.03h3.195l-1.323,1.134-.345-.688L9.7,40.438,10.5,42.05a.808.808,0,0,0,.561.43.849.849,0,0,0,.156.016H9.612ZM12.836,42.5H11.227a.809.809,0,0,0,.522-.194l1.087-.932V42.5Z" transform="translate(-2.357 -7.833)"/>
        <path id="Trazado_1054348" data-name="Trazado 1054348" d="M20,29h8.06v1.612H20Z" transform="translate(-4.684 -6.429)"/>
        <path id="Trazado_1054349" data-name="Trazado 1054349" d="M20,33h4.836v1.612H20Z" transform="translate(-4.684 -7.204)"/>
        <path id="Trazado_1054350" data-name="Trazado 1054350" d="M28,33h1.611v1.612H28Z" transform="translate(-6.235 -7.204)"/>
        <path id="Trazado_1054351" data-name="Trazado 1054351" d="M20,40h8.06v1.612H20Z" transform="translate(-4.684 -8.562)"/>
        <path id="Trazado_1054352" data-name="Trazado 1054352" d="M20,44h4.836v1.612H20Z" transform="translate(-4.684 -9.337)"/>
        <path id="Trazado_1054353" data-name="Trazado 1054353" d="M28,44h1.611v1.612H28Z" transform="translate(-6.235 -9.337)"/>
        <path id="Trazado_1054354" data-name="Trazado 1054354" d="M12.98,21.359a.8.8,0,0,0,.938,0A14.308,14.308,0,0,0,19.9,9.738v-.32a.807.807,0,0,0-.584-.775L13.67,7.031a.82.82,0,0,0-.443,0L7.584,8.643A.806.806,0,0,0,7,9.418v.321A14.305,14.305,0,0,0,12.98,21.359Zm.469-12.716,4.833,1.381A12.694,12.694,0,0,1,13.448,19.7a12.7,12.7,0,0,1-4.833-9.671Z" transform="translate(-2.163 -2.163)"/>
        <path id="Trazado_1054355" data-name="Trazado 1054355" d="M50.828,43.255,46.8,37.612a.809.809,0,0,0-1.1-.2l-.148.1-1.018-2.036V25.183a5.649,5.649,0,0,0-5.643-5.643H38.08V3.418A2.421,2.421,0,0,0,35.661,1H3.418A2.421,2.421,0,0,0,1,3.418V40.5a2.421,2.421,0,0,0,2.418,2.418h21.43l2.989,2.989a.805.805,0,0,0,.571.235h2.726l.366.731-.315.21a.807.807,0,0,0-.223,1.118l1.612,2.418a.808.808,0,0,0,.671.359H50.173a.805.805,0,0,0,.806-.806V43.724a.807.807,0,0,0-.151-.469ZM25.183,41.3H3.418a.806.806,0,0,1-.806-.806V3.418a.806.806,0,0,1,.806-.806H35.662a.806.806,0,0,1,.806.806V19.541h-.806V5.031A1.613,1.613,0,0,0,34.05,3.418H5.031A1.613,1.613,0,0,0,3.418,5.031V38.887A1.613,1.613,0,0,0,5.031,40.5H34.05a1.613,1.613,0,0,0,1.612-1.612V25.99h.806V40.5a.806.806,0,0,1-.806.806ZM32.438,25.99H34.05v12.9H5.031V5.031H34.05v14.51H32.437a3.224,3.224,0,0,0,0,6.449Zm-.085,18.986a.806.806,0,0,0-.721-.446H28.742l-1.612-1.612h8.533A2.421,2.421,0,0,0,38.08,40.5V25.183a.8.8,0,0,0-.806-.806H32.437a1.612,1.612,0,0,1,0-3.224h6.45a4.035,4.035,0,0,1,4.031,4.031V35.663a.809.809,0,0,0,.085.36L44.2,38.409,32.85,45.972Zm13.587-5.79.752,1.054L33.468,49.054l-.717-1.076Zm3.426,10.181H35.907L47.63,41.551l1.736,2.431Z" transform="translate(-1 -1)"/>
        <path id="Trazado_1054356" data-name="Trazado 1054356" d="M36.724,15.224H34.055a.094.094,0,0,1-.084-.051,1.7,1.7,0,0,0-2.731-.443L30.967,15a.781.781,0,0,1-1.211-.2l-.64-1.279A2.742,2.742,0,0,0,26.648,12h0a2.745,2.745,0,0,0-2.469,1.527l-1.071,2.143,1.441.721,1.071-2.143a1.144,1.144,0,0,1,1.029-.635h0a1.141,1.141,0,0,1,1.027.636l.64,1.279a2.355,2.355,0,0,0,2.118,1.309,2.385,2.385,0,0,0,1.674-.693l.272-.272a.09.09,0,0,1,.081-.026.085.085,0,0,1,.068.049,1.7,1.7,0,0,0,1.526.942h2.669V15.224Z" transform="translate(-5.286 -3.133)"/>
        <path id="Trazado_1054357" data-name="Trazado 1054357" d="M23,19H33.479v1.612H23Z" transform="translate(-5.266 -4.49)"/>
        <path id="Trazado_1054358" data-name="Trazado 1054358" d="M38,19h1.611v1.612H38Z" transform="translate(-8.174 -4.49)"/>
        <path id="Trazado_1054359" data-name="Trazado 1054359" d="M33,42.224A3.224,3.224,0,1,0,36.224,39,3.228,3.228,0,0,0,33,42.224Zm3.224-1.612a1.612,1.612,0,1,1-1.612,1.612A1.613,1.613,0,0,1,36.224,40.612Z" transform="translate(-7.204 -8.368)"/>
      </g>
    </g>
  </g>
</svg>
