<svg xmlns="http://www.w3.org/2000/svg" xmlns:xlink="http://www.w3.org/1999/xlink" width="98" height="98" viewBox="0 0 98 98">
  <defs>
    <filter id="Trazado_904820" x="0" y="0" width="98" height="98" filterUnits="userSpaceOnUse">
      <feOffset dy="3" input="SourceAlpha"/>
      <feGaussianBlur stdDeviation="3" result="blur"/>
      <feFlood flood-opacity="0.161"/>
      <feComposite operator="in" in2="blur"/>
      <feComposite in="SourceGraphic"/>
    </filter>
  </defs>
  <g id="Grupo_1210671" data-name="Grupo 1210671" transform="translate(-1031 -2584.93)">
    <g id="Grupo_1210394" data-name="Grupo 1210394" transform="translate(0 -9893.312)">
      <g id="Grupo_1210131" data-name="Grupo 1210131" transform="translate(0 4736.458)">
        <g id="Grupo_1209196" data-name="Grupo 1209196" transform="translate(1040 7747.783)">
          <g id="Grupo_1202705" data-name="Grupo 1202705" transform="translate(0 0)">
            <g id="Grupo_1173585" data-name="Grupo 1173585" transform="translate(0 0)">
              <g id="Grupo_1173428" data-name="Grupo 1173428">
                <g id="Grupo_1171958" data-name="Grupo 1171958">
                  <g id="Grupo_1167341" data-name="Grupo 1167341">
                    <g id="Grupo_1166792" data-name="Grupo 1166792">
                      <g transform="matrix(1, 0, 0, 1, -9, -6)" filter="url(#Trazado_904820)">
                        <g id="Trazado_904820-2" data-name="Trazado 904820" transform="translate(9 6)" fill="#fef9e7">
                          <path d="M 39.99999618530273 78.50002288818359 C 34.80187225341797 78.50002288818359 29.76002883911133 77.4822998046875 25.01451873779297 75.47511291503906 C 20.43014144897461 73.53608703613281 16.31264114379883 70.7598876953125 12.77638530731201 67.22362518310547 C 9.240129470825195 63.6873664855957 6.463929653167725 59.56986618041992 4.524896144866943 54.98548889160156 C 2.517718315124512 50.2399787902832 1.499996185302734 45.19814300537109 1.499996185302734 40.0000114440918 C 1.499996185302734 34.8018798828125 2.517718315124512 29.76003456115723 4.524896144866943 25.01453399658203 C 6.463929653167725 20.43015670776367 9.240129470825195 16.31264495849609 12.77638530731201 12.77638912200928 C 16.31264114379883 9.240133285522461 20.43014144897461 6.46393346786499 25.01451873779297 4.524900436401367 C 29.76002883911133 2.517722606658936 34.80186462402344 1.500000357627869 39.99999618530273 1.500000357627869 C 45.19812774658203 1.500000357627869 50.23996353149414 2.517722606658936 54.9854736328125 4.524900436401367 C 59.56985092163086 6.46393346786499 63.68735122680664 9.240133285522461 67.22360992431641 12.77638912200928 C 70.75986480712891 16.31264495849609 73.53606414794922 20.43015670776367 75.47509765625 25.01453399658203 C 77.48227691650391 29.76003456115723 78.5 34.8018798828125 78.5 40.0000114440918 C 78.5 45.19814300537109 77.48227691650391 50.2399787902832 75.47509765625 54.98548889160156 C 73.53606414794922 59.56986618041992 70.75986480712891 63.6873664855957 67.22360992431641 67.22362518310547 C 63.68735122680664 70.7598876953125 59.56985092163086 73.53608703613281 54.9854736328125 75.47511291503906 C 50.23996353149414 77.4822998046875 45.1981201171875 78.50002288818359 39.99999618530273 78.50002288818359 Z" stroke="none"/>
                          <path d="M 39.99999618530273 3 C 35.00370407104492 3 30.15846252441406 3.977851867675781 25.59885025024414 5.906410217285156 C 21.19327545166016 7.769813537597656 17.23603439331055 10.43806457519531 13.83705139160156 13.83705139160156 C 10.43806457519531 17.23603820800781 7.769805908203125 21.19327926635742 5.906410217285156 25.59885025024414 C 3.977851867675781 30.15846633911133 2.999992370605469 35.00371932983398 2.999992370605469 40.0000114440918 C 2.999992370605469 44.99630355834961 3.977851867675781 49.84154510498047 5.906410217285156 54.40115737915039 C 7.769805908203125 58.80674743652344 10.43806457519531 62.76398468017578 13.83705139160156 66.16297149658203 C 17.23603439331055 69.56195831298828 21.19327545166016 72.23020935058594 25.59885025024414 74.09361267089844 C 30.15846252441406 76.02217102050781 35.00370407104492 77.00002288818359 39.99999618530273 77.00002288818359 C 44.99628829956055 77.00002288818359 49.84152984619141 76.02217102050781 54.40114212036133 74.09361267089844 C 58.80671691894531 72.23020935058594 62.76395416259766 69.56195831298828 66.16294097900391 66.16297149658203 C 69.56192779541016 62.76398468017578 72.23017883300781 58.80674743652344 74.09358215332031 54.40115737915039 C 76.02214050292969 49.84154510498047 77 44.99630355834961 77 40.0000114440918 C 77 35.00371932983398 76.02214050292969 30.15846633911133 74.09358215332031 25.59885025024414 C 72.23017883300781 21.19327926635742 69.56192779541016 17.23603820800781 66.16294097900391 13.83705139160156 C 62.76395416259766 10.43806457519531 58.80671691894531 7.769813537597656 54.40114212036133 5.906410217285156 C 49.84152984619141 3.977851867675781 44.99628829956055 3 39.99999618530273 3 M 39.99999618530273 0 C 62.09138488769531 0 80 17.90861129760742 80 40.0000114440918 C 80 62.09140014648438 62.09138488769531 80.00002288818359 39.99999618530273 80.00002288818359 C 17.90861129760742 80.00002288818359 -7.62939453125e-06 62.09140014648438 -7.62939453125e-06 40.0000114440918 C -7.62939453125e-06 17.90861129760742 17.90861129760742 0 39.99999618530273 0 Z" stroke="none" fill="#887013"/>
                        </g>
                      </g>
                    </g>
                  </g>
                </g>
              </g>
            </g>
          </g>
        </g>
      </g>
    </g>
    <g id="Page-1" transform="translate(1059 2600)">
      <g id="_077---Clipboard" data-name="077---Clipboard">
        <path id="Shape" d="M32,7.03V8a2.006,2.006,0,0,1-2,2H12a2.006,2.006,0,0,1-2-2V7.03a2,2,0,0,1,.84-1.63l5.64-4.03A2,2,0,0,1,17.64,1h6.72a2,2,0,0,1,1.16.37L31.16,5.4A2,2,0,0,1,32,7.03Z" fill="#9e9e9e"/>
        <path id="Shape-2" data-name="Shape" d="M31.16,5.4,25.52,1.37A2,2,0,0,0,24.36,1h-3a2,2,0,0,1,1.16.37L28.16,5.4A2,2,0,0,1,29,7.03V8a2.006,2.006,0,0,1-2,2h3a2.006,2.006,0,0,0,2-2V7.03a2,2,0,0,0-.84-1.63Z" fill="#707070"/>
        <path id="Shape-3" data-name="Shape" d="M41,12V55a4,4,0,0,1-4,4H5a4,4,0,0,1-4-4V12A4,4,0,0,1,5,8h5a2.006,2.006,0,0,0,2,2H30a2.006,2.006,0,0,0,2-2h5A4,4,0,0,1,41,12Z" fill="#f5f5f5"/>
        <path id="Shape-4" data-name="Shape" d="M37,8H34a4,4,0,0,1,4,4V55a4,4,0,0,1-4,4h3a4,4,0,0,0,4-4V12A4,4,0,0,0,37,8Z" fill="#cfd8dc"/>
        <rect id="Rectangle-path" width="10" height="10" rx="1" transform="translate(6 44)" fill="#a4c400"/>
        <rect id="Rectangle-path-2" data-name="Rectangle-path" width="10" height="10" rx="1" transform="translate(6 30)" fill="#a4c400"/>
        <rect id="Rectangle-path-3" data-name="Rectangle-path" width="10" height="10" rx="1" transform="translate(6 16)" fill="#a4c400"/>
        <g id="Grupo_1210670" data-name="Grupo 1210670">
          <path id="Shape-5" data-name="Shape" d="M19,7h4a1,1,0,0,0,0-2H19a1,1,0,0,0,0,2Z"/>
          <path id="Shape-6" data-name="Shape" d="M37,7H33a3.007,3.007,0,0,0-1.255-2.413L26.1.554A2.988,2.988,0,0,0,24.36,0H17.64A2.991,2.991,0,0,0,15.9.557L10.258,4.588A3.006,3.006,0,0,0,9,7H5a5.006,5.006,0,0,0-5,5V55a5.006,5.006,0,0,0,5,5H37a5.006,5.006,0,0,0,5-5V12A5.006,5.006,0,0,0,37,7ZM11,7.03a.994.994,0,0,1,.421-.816l5.637-4.027A.989.989,0,0,1,17.64,2h6.72a.986.986,0,0,1,.578.184l5.64,4.029A1,1,0,0,1,31,7.03V8a1,1,0,0,1-1,1H12a1,1,0,0,1-1-1ZM40,55a3,3,0,0,1-3,3H5a3,3,0,0,1-3-3V12A3,3,0,0,1,5,9H9.171A3.006,3.006,0,0,0,12,11H30a3.006,3.006,0,0,0,2.829-2H37a3,3,0,0,1,3,3Z"/>
          <path id="Shape-7" data-name="Shape" d="M7,27h8a2,2,0,0,0,2-2V22.98a1,1,0,1,0-2,0V25H7V17h4.85a1,1,0,0,0,0-2H7a2,2,0,0,0-2,2v8a2,2,0,0,0,2,2Z"/>
          <path id="Shape-8" data-name="Shape" d="M17.35,15.241l-6.3,5.4L9.7,19.3A1,1,0,0,0,8.29,20.71l2,2a1,1,0,0,0,1.357.052l7-6a1,1,0,1,0-1.3-1.518Z"/>
          <path id="Shape-9" data-name="Shape" d="M7,41h8a2,2,0,0,0,2-2V36.98a1,1,0,0,0-2,0V39H7V31h4.85a1,1,0,0,0,0-2H7a2,2,0,0,0-2,2v8a2,2,0,0,0,2,2Z"/>
          <path id="Shape-10" data-name="Shape" d="M17.35,29.241l-6.3,5.4L9.7,33.3A1,1,0,0,0,8.29,34.71l2,2a1,1,0,0,0,1.357.052l7-6a1,1,0,1,0-1.3-1.518Z"/>
          <path id="Shape-11" data-name="Shape" d="M16,49.98a1,1,0,0,0-1,1V53H7V45h4.85a1,1,0,0,0,0-2H7a2,2,0,0,0-2,2v8a2,2,0,0,0,2,2h8a2,2,0,0,0,2-2V50.98A1,1,0,0,0,16,49.98Z"/>
          <path id="Shape-12" data-name="Shape" d="M17.35,43.241l-6.3,5.4L9.7,47.3A1,1,0,0,0,8.29,48.71l2,2a1,1,0,0,0,1.357.052l7-6a1,1,0,0,0-1.3-1.518Z"/>
          <path id="Shape-13" data-name="Shape" d="M35,16H25a1,1,0,0,0,0,2H35a1,1,0,0,0,0-2Z"/>
          <path id="Shape-14" data-name="Shape" d="M35,20H25a1,1,0,0,0,0,2H35a1,1,0,0,0,0-2Z"/>
          <path id="Shape-15" data-name="Shape" d="M25,26h5a1,1,0,0,0,0-2H25a1,1,0,0,0,0,2Z"/>
          <path id="Shape-16" data-name="Shape" d="M35,30H25a1,1,0,0,0,0,2H35a1,1,0,0,0,0-2Z"/>
          <path id="Shape-17" data-name="Shape" d="M35,34H25a1,1,0,0,0,0,2H35a1,1,0,0,0,0-2Z"/>
          <path id="Shape-18" data-name="Shape" d="M25,40h5a1,1,0,0,0,0-2H25a1,1,0,0,0,0,2Z"/>
          <path id="Shape-19" data-name="Shape" d="M35,44H25a1,1,0,0,0,0,2H35a1,1,0,0,0,0-2Z"/>
          <path id="Shape-20" data-name="Shape" d="M35,48H25a1,1,0,0,0,0,2H35a1,1,0,0,0,0-2Z"/>
          <path id="Shape-21" data-name="Shape" d="M30,52H25a1,1,0,0,0,0,2h5a1,1,0,0,0,0-2Z"/>
        </g>
      </g>
    </g>
  </g>
</svg>
