<svg xmlns="http://www.w3.org/2000/svg" xmlns:xlink="http://www.w3.org/1999/xlink" width="98" height="98" viewBox="0 0 98 98">
  <defs>
    <filter id="Trazado_904820" x="0" y="0" width="98" height="98" filterUnits="userSpaceOnUse">
      <feOffset dy="3" input="SourceAlpha"/>
      <feGaussianBlur stdDeviation="3" result="blur"/>
      <feFlood flood-opacity="0.161"/>
      <feComposite operator="in" in2="blur"/>
      <feComposite in="SourceGraphic"/>
    </filter>
  </defs>
  <g id="Grupo_1210673" data-name="Grupo 1210673" transform="translate(-191 -2738.43)">
    <g id="Grupo_1210396" data-name="Grupo 1210396" transform="translate(0 -9888.721)">
      <g id="Grupo_1210133" data-name="Grupo 1210133" transform="translate(0 4885.367)">
        <g id="Grupo_1209198" data-name="Grupo 1209198" transform="translate(200 7747.783)">
          <g id="Grupo_1202705" data-name="Grupo 1202705" transform="translate(0 0)">
            <g id="Grupo_1173585" data-name="Grupo 1173585" transform="translate(0 0)">
              <g id="Grupo_1173428" data-name="Grupo 1173428">
                <g id="Grupo_1171958" data-name="Grupo 1171958">
                  <g id="Grupo_1167341" data-name="Grupo 1167341">
                    <g id="Grupo_1166792" data-name="Grupo 1166792">
                      <g transform="matrix(1, 0, 0, 1, -9, -6)" filter="url(#Trazado_904820)">
                        <g id="Trazado_904820-2" data-name="Trazado 904820" transform="translate(9 6)" fill="#fef9e7">
                          <path d="M 39.99999618530273 78.50002288818359 C 34.80187225341797 78.50002288818359 29.76002883911133 77.4822998046875 25.01451873779297 75.47511291503906 C 20.43014144897461 73.53608703613281 16.31264114379883 70.7598876953125 12.77638530731201 67.22362518310547 C 9.240129470825195 63.6873664855957 6.463929653167725 59.56986618041992 4.524896144866943 54.98548889160156 C 2.517718315124512 50.2399787902832 1.499996185302734 45.19814300537109 1.499996185302734 40.0000114440918 C 1.499996185302734 34.8018798828125 2.517718315124512 29.76003456115723 4.524896144866943 25.01453399658203 C 6.463929653167725 20.43015670776367 9.240129470825195 16.31264495849609 12.77638530731201 12.77638912200928 C 16.31264114379883 9.240133285522461 20.43014144897461 6.46393346786499 25.01451873779297 4.524900436401367 C 29.76002883911133 2.517722606658936 34.80186462402344 1.500000357627869 39.99999618530273 1.500000357627869 C 45.19812774658203 1.500000357627869 50.23996353149414 2.517722606658936 54.9854736328125 4.524900436401367 C 59.56985092163086 6.46393346786499 63.68735122680664 9.240133285522461 67.22360992431641 12.77638912200928 C 70.75986480712891 16.31264495849609 73.53606414794922 20.43015670776367 75.47509765625 25.01453399658203 C 77.48227691650391 29.76003456115723 78.5 34.8018798828125 78.5 40.0000114440918 C 78.5 45.19814300537109 77.48227691650391 50.2399787902832 75.47509765625 54.98548889160156 C 73.53606414794922 59.56986618041992 70.75986480712891 63.6873664855957 67.22360992431641 67.22362518310547 C 63.68735122680664 70.7598876953125 59.56985092163086 73.53608703613281 54.9854736328125 75.47511291503906 C 50.23996353149414 77.4822998046875 45.1981201171875 78.50002288818359 39.99999618530273 78.50002288818359 Z" stroke="none"/>
                          <path d="M 39.99999618530273 3 C 35.00370407104492 3 30.15846252441406 3.977851867675781 25.59885025024414 5.906410217285156 C 21.19327545166016 7.769813537597656 17.23603439331055 10.43806457519531 13.83705139160156 13.83705139160156 C 10.43806457519531 17.23603820800781 7.769805908203125 21.19327926635742 5.906410217285156 25.59885025024414 C 3.977851867675781 30.15846633911133 2.999992370605469 35.00371932983398 2.999992370605469 40.0000114440918 C 2.999992370605469 44.99630355834961 3.977851867675781 49.84154510498047 5.906410217285156 54.40115737915039 C 7.769805908203125 58.80674743652344 10.43806457519531 62.76398468017578 13.83705139160156 66.16297149658203 C 17.23603439331055 69.56195831298828 21.19327545166016 72.23020935058594 25.59885025024414 74.09361267089844 C 30.15846252441406 76.02217102050781 35.00370407104492 77.00002288818359 39.99999618530273 77.00002288818359 C 44.99628829956055 77.00002288818359 49.84152984619141 76.02217102050781 54.40114212036133 74.09361267089844 C 58.80671691894531 72.23020935058594 62.76395416259766 69.56195831298828 66.16294097900391 66.16297149658203 C 69.56192779541016 62.76398468017578 72.23017883300781 58.80674743652344 74.09358215332031 54.40115737915039 C 76.02214050292969 49.84154510498047 77 44.99630355834961 77 40.0000114440918 C 77 35.00371932983398 76.02214050292969 30.15846633911133 74.09358215332031 25.59885025024414 C 72.23017883300781 21.19327926635742 69.56192779541016 17.23603820800781 66.16294097900391 13.83705139160156 C 62.76395416259766 10.43806457519531 58.80671691894531 7.769813537597656 54.40114212036133 5.906410217285156 C 49.84152984619141 3.977851867675781 44.99628829956055 3 39.99999618530273 3 M 39.99999618530273 0 C 62.09138488769531 0 80 17.90861129760742 80 40.0000114440918 C 80 62.09140014648438 62.09138488769531 80.00002288818359 39.99999618530273 80.00002288818359 C 17.90861129760742 80.00002288818359 -7.62939453125e-06 62.09140014648438 -7.62939453125e-06 40.0000114440918 C -7.62939453125e-06 17.90861129760742 17.90861129760742 0 39.99999618530273 0 Z" stroke="none" fill="#887013"/>
                        </g>
                      </g>
                    </g>
                  </g>
                </g>
              </g>
            </g>
          </g>
        </g>
      </g>
    </g>
    <g id="Icon" transform="translate(207.792 2753.792)">
      <g id="Grupo_1210672" data-name="Grupo 1210672" transform="translate(6 6)">
        <path id="Trazado_1054360" data-name="Trazado 1054360" d="M21,33h9.037V44.3H21Z" transform="translate(-14.222 -20.8)" fill="#5fa2ee" fill-rule="evenodd"/>
        <path id="Trazado_1054361" data-name="Trazado 1054361" d="M18.615,36.87v8.7a.888.888,0,0,1-.39.746l-2.009,1.305a.75.75,0,0,1-.809.011A.886.886,0,0,1,15,46.878V36.87a.839.839,0,0,1,.8-.87h2.008A.839.839,0,0,1,18.615,36.87Z" transform="translate(-10.933 -22.444)" fill="#0d47a1" fill-rule="evenodd"/>
        <path id="Trazado_1054362" data-name="Trazado 1054362" d="M31.579,51.378H11.615A3.615,3.615,0,0,1,8,47.764V35.238a3.616,3.616,0,0,1,1.61-3.008L24.818,22.092a1.806,1.806,0,0,0,.8-1.5V15.682a2.711,2.711,0,0,0-2.711-2.711H18.845a2.566,2.566,0,0,0-2.711,2.711V21.1H11.615A3.8,3.8,0,0,1,8,17.489V14.326A6.326,6.326,0,0,1,14.326,8H31.5a5.687,5.687,0,0,1,5.422,5.422V33.534a15.371,15.371,0,0,0-5.34,17.844Z" transform="translate(-7.096 -7.096)" fill="#ffd600" fill-rule="evenodd"/>
        <path id="Trazado_1054363" data-name="Trazado 1054363" d="M35.869,24.133a.9.9,0,0,0-.8.481,5.874,5.874,0,1,1,0-5.481.9.9,0,0,0,.8.481H59.245a7.278,7.278,0,0,1,0,4.519Z" transform="translate(-15.867 -11.481)" fill="#0d47a1" fill-rule="evenodd"/>
        <path id="Trazado_1054364" data-name="Trazado 1054364" d="M31.778,62A6.778,6.778,0,1,1,25,68.778,6.781,6.781,0,0,1,31.778,62Zm3.67,5.025-5.423,5.423a4.067,4.067,0,0,0,5.423-5.423Zm-7.34,3.506,5.423-5.423a4.067,4.067,0,0,0-5.423,5.423Z" transform="translate(-16.415 -36.696)" fill="#c62828" fill-rule="evenodd"/>
        <circle id="Elipse_13460" data-name="Elipse 13460" cx="12.5" cy="12.5" r="12.5" transform="translate(26.208 26.208)" fill="#e53935"/>
        <path id="Trazado_1054365" data-name="Trazado 1054365" d="M76,87.556,83.23,74l7.23,13.556Z" transform="translate(-44.37 -43.274)" fill="#f2be22" fill-rule="evenodd"/>
        <circle id="Elipse_13461" data-name="Elipse 13461" cx="3.5" cy="3.5" r="3.5" transform="translate(10.208 7.208)" fill="#5fa2ee"/>
        <path id="Trazado_1054366" data-name="Trazado 1054366" d="M44.86,31.3A13.556,13.556,0,1,1,31.3,44.86,13.562,13.562,0,0,1,44.86,31.3Zm0,1.807A11.748,11.748,0,1,0,56.608,44.86,11.754,11.754,0,0,0,44.86,33.111Zm.8,3.19,7.23,13.556a.9.9,0,0,1-.8,1.329H37.63a.9.9,0,0,1-.8-1.329L44.062,36.3a.9.9,0,0,1,1.6,0Zm-.8,2.346L39.136,49.378H50.583Zm.9,7.117a.9.9,0,0,1-1.807,0V42.149a.9.9,0,0,1,1.807,0Zm-.9,1.356a.9.9,0,1,1-.9.9A.9.9,0,0,1,44.86,47.119Zm-14,4.067H10.519A4.518,4.518,0,0,1,6,46.667V34.142a4.519,4.519,0,0,1,2.012-3.759l1.6-1.069V20.8A4.8,4.8,0,0,1,6,16.393V13.23A7.229,7.229,0,0,1,13.23,6H30.4a6.636,6.636,0,0,1,6.326,6.326v.9H48.475a2.711,2.711,0,0,1,2.711,2.711v.9a2.711,2.711,0,0,1-2.711,2.711H36.726V31.827a15.382,15.382,0,0,0-1.807,1.323V19.556H26a6.818,6.818,0,0,1-2.86,2.847L9.015,31.886a2.711,2.711,0,0,0-1.207,2.256V46.667a2.711,2.711,0,0,0,2.711,2.711H30.173A15.257,15.257,0,0,0,30.857,51.186ZM34.919,13.23v-.9A4.74,4.74,0,0,0,30.4,7.807H13.23A5.423,5.423,0,0,0,7.807,13.23v3.163A2.851,2.851,0,0,0,10.519,19.1h3.276A6.779,6.779,0,0,1,26,13.23ZM11.874,20.911h-.452v7.2l.452-.3Zm3.083,0H13.682V26.6l5.271-3.514A6.77,6.77,0,0,1,14.957,20.911Zm11.692-3.163H48.475a.9.9,0,0,0,.9-.9v-.9a.9.9,0,0,0-.9-.9H26.649a6.823,6.823,0,0,1,0,2.711Zm-6.642-6.326a4.97,4.97,0,1,0,4.97,4.97A4.973,4.973,0,0,0,20.008,11.422Zm0,.9a4.067,4.067,0,1,1-4.067,4.067A4.069,4.069,0,0,1,20.008,12.326Zm0,1.807a2.259,2.259,0,1,0,2.259,2.259A2.26,2.26,0,0,0,20.008,14.133ZM21.363,30.4a7.682,7.682,0,1,1-7.682,7.682A7.685,7.685,0,0,1,21.363,30.4Zm0,1.807a5.874,5.874,0,1,0,5.874,5.874A5.877,5.877,0,0,0,21.363,32.208Zm4.485,3.731a4.971,4.971,0,0,1-6.628,6.628.9.9,0,0,1-.249-1.454l5.423-5.423a.9.9,0,0,1,1.454.249ZM21.4,41.245a3.165,3.165,0,0,0,3.131-3.131Zm-4.517-1.02A4.971,4.971,0,0,1,23.506,33.6a.9.9,0,0,1,.249,1.454l-5.423,5.423a.9.9,0,0,1-1.454-.249ZM18.2,38.05l3.131-3.131A3.165,3.165,0,0,0,18.2,38.05Z" transform="translate(-6 -6)" fill-rule="evenodd"/>
      </g>
    </g>
  </g>
</svg>
