<svg xmlns="http://www.w3.org/2000/svg" xmlns:xlink="http://www.w3.org/1999/xlink" width="98" height="98" viewBox="0 0 98 98">
  <defs>
    <filter id="Trazado_904820" x="0" y="0" width="98" height="98" filterUnits="userSpaceOnUse">
      <feOffset dy="3" input="SourceAlpha"/>
      <feGaussianBlur stdDeviation="3" result="blur"/>
      <feFlood flood-opacity="0.161"/>
      <feComposite operator="in" in2="blur"/>
      <feComposite in="SourceGraphic"/>
    </filter>
  </defs>
  <g id="Grupo_1210674" data-name="Grupo 1210674" transform="translate(-611 -2739.43)">
    <g id="Grupo_1210397" data-name="Grupo 1210397" transform="translate(0 -9890.062)">
      <g id="Grupo_1210132" data-name="Grupo 1210132" transform="translate(411 11867.491)">
        <g id="Grupo_1202705" data-name="Grupo 1202705" transform="translate(209 768)">
          <g id="Grupo_1173585" data-name="Grupo 1173585" transform="translate(0 0)">
            <g id="Grupo_1173428" data-name="Grupo 1173428">
              <g id="Grupo_1171958" data-name="Grupo 1171958">
                <g id="Grupo_1167341" data-name="Grupo 1167341">
                  <g id="Grupo_1166792" data-name="Grupo 1166792">
                    <g transform="matrix(1, 0, 0, 1, -9, -6)" filter="url(#Trazado_904820)">
                      <g id="Trazado_904820-2" data-name="Trazado 904820" transform="translate(9 6)" fill="#fef9e7">
                        <path d="M 39.99999618530273 78.50002288818359 C 34.80187225341797 78.50002288818359 29.76002883911133 77.4822998046875 25.01451873779297 75.47511291503906 C 20.43014144897461 73.53608703613281 16.31264114379883 70.7598876953125 12.77638530731201 67.22362518310547 C 9.240129470825195 63.6873664855957 6.463929653167725 59.56986618041992 4.524896144866943 54.98548889160156 C 2.517718315124512 50.2399787902832 1.499996185302734 45.19814300537109 1.499996185302734 40.0000114440918 C 1.499996185302734 34.8018798828125 2.517718315124512 29.76003456115723 4.524896144866943 25.01453399658203 C 6.463929653167725 20.43015670776367 9.240129470825195 16.31264495849609 12.77638530731201 12.77638912200928 C 16.31264114379883 9.240133285522461 20.43014144897461 6.46393346786499 25.01451873779297 4.524900436401367 C 29.76002883911133 2.517722606658936 34.80186462402344 1.500000357627869 39.99999618530273 1.500000357627869 C 45.19812774658203 1.500000357627869 50.23996353149414 2.517722606658936 54.9854736328125 4.524900436401367 C 59.56985092163086 6.46393346786499 63.68735122680664 9.240133285522461 67.22360992431641 12.77638912200928 C 70.75986480712891 16.31264495849609 73.53606414794922 20.43015670776367 75.47509765625 25.01453399658203 C 77.48227691650391 29.76003456115723 78.5 34.8018798828125 78.5 40.0000114440918 C 78.5 45.19814300537109 77.48227691650391 50.2399787902832 75.47509765625 54.98548889160156 C 73.53606414794922 59.56986618041992 70.75986480712891 63.6873664855957 67.22360992431641 67.22362518310547 C 63.68735122680664 70.7598876953125 59.56985092163086 73.53608703613281 54.9854736328125 75.47511291503906 C 50.23996353149414 77.4822998046875 45.1981201171875 78.50002288818359 39.99999618530273 78.50002288818359 Z" stroke="none"/>
                        <path d="M 39.99999618530273 3 C 35.00370407104492 3 30.15846252441406 3.977851867675781 25.59885025024414 5.906410217285156 C 21.19327545166016 7.769813537597656 17.23603439331055 10.43806457519531 13.83705139160156 13.83705139160156 C 10.43806457519531 17.23603820800781 7.769805908203125 21.19327926635742 5.906410217285156 25.59885025024414 C 3.977851867675781 30.15846633911133 2.999992370605469 35.00371932983398 2.999992370605469 40.0000114440918 C 2.999992370605469 44.99630355834961 3.977851867675781 49.84154510498047 5.906410217285156 54.40115737915039 C 7.769805908203125 58.80674743652344 10.43806457519531 62.76398468017578 13.83705139160156 66.16297149658203 C 17.23603439331055 69.56195831298828 21.19327545166016 72.23020935058594 25.59885025024414 74.09361267089844 C 30.15846252441406 76.02217102050781 35.00370407104492 77.00002288818359 39.99999618530273 77.00002288818359 C 44.99628829956055 77.00002288818359 49.84152984619141 76.02217102050781 54.40114212036133 74.09361267089844 C 58.80671691894531 72.23020935058594 62.76395416259766 69.56195831298828 66.16294097900391 66.16297149658203 C 69.56192779541016 62.76398468017578 72.23017883300781 58.80674743652344 74.09358215332031 54.40115737915039 C 76.02214050292969 49.84154510498047 77 44.99630355834961 77 40.0000114440918 C 77 35.00371932983398 76.02214050292969 30.15846633911133 74.09358215332031 25.59885025024414 C 72.23017883300781 21.19327926635742 69.56192779541016 17.23603820800781 66.16294097900391 13.83705139160156 C 62.76395416259766 10.43806457519531 58.80671691894531 7.769813537597656 54.40114212036133 5.906410217285156 C 49.84152984619141 3.977851867675781 44.99628829956055 3 39.99999618530273 3 M 39.99999618530273 0 C 62.09138488769531 0 80 17.90861129760742 80 40.0000114440918 C 80 62.09140014648438 62.09138488769531 80.00002288818359 39.99999618530273 80.00002288818359 C 17.90861129760742 80.00002288818359 -7.62939453125e-06 62.09140014648438 -7.62939453125e-06 40.0000114440918 C -7.62939453125e-06 17.90861129760742 17.90861129760742 0 39.99999618530273 0 Z" stroke="none" fill="#887013"/>
                      </g>
                    </g>
                  </g>
                </g>
              </g>
            </g>
          </g>
        </g>
      </g>
    </g>
    <g id="process_11693989" transform="translate(617.846 2743.229)">
      <path id="Trazado_1054367" data-name="Trazado 1054367" d="M33.124,62.234a9.377,9.377,0,0,0-3.766,1.051l.479,1.2a2.042,2.042,0,0,1-1.2,2.67l-4.779,1.9a2.038,2.038,0,0,1-2.648-1.143L16.17,55.235a2.038,2.038,0,0,1,1.143-2.648l4.837-1.922A2.038,2.038,0,0,1,24.8,51.808l.168.423c1.61-.936,3.274-1.707,4.876-2.622,1.577-.9,2.8-1.794,4.38-1.97,2.061-.229,6.414.944,8.072,1.471,3.074,1,6.16,2.116,9.224,3.171a3.122,3.122,0,0,1,2.208,3.849L58.1,55,63,51.566c1.343-.939,4.565-.093,5.085,1.515.627,1.939-.315,3.128-2.114,4.241l-7.967,4.927c-.653.462-1.436.834-2.237,1.384-.671.461-1.366.995-1.923,1.424-.488.375-.877.675-1.1.806a7.352,7.352,0,0,1-4.8,1.107,21.915,21.915,0,0,1-5.188-1.088c-2.635-.9-5.033-2.329-7.42-3.15a8.434,8.434,0,0,0-2.219-.5Zm8.6-15.777a.694.694,0,1,1-1.005-.956l.856-.9a13.191,13.191,0,0,1-10.72-6l-.4,1.29a.694.694,0,1,1-1.326-.413l.879-2.825a.694.694,0,0,1,.869-.456l2.825.879a.694.694,0,1,1-.413,1.326l-1.139-.354A11.8,11.8,0,0,0,41.6,43.212l-.96-.912a.694.694,0,1,1,.956-1.005l2.126,2.019a.693.693,0,0,1,.025,1.019ZM38.99,20.537A.694.694,0,0,1,38.98,19.5l2.036-2.084a.694.694,0,1,1,.994.967l-.832.852A13.209,13.209,0,0,1,50.3,23.165l.148-1.363a.694.694,0,0,1,1.38.146l-.321,2.941a.694.694,0,0,1-.763.617l-2.941-.321a.694.694,0,1,1,.147-1.38l1.152.126a11.783,11.783,0,0,0-8.046-3.313l.986.964a.694.694,0,1,1-.967.994L38.99,20.536Zm-9.775-2.648a1.024,1.024,0,0,0-1.022,1.055,7.829,7.829,0,0,0-2.028.839l-.025-.022a1.019,1.019,0,0,0-1.443,0l-1.357,1.359a1.018,1.018,0,0,0,.023,1.467,7.781,7.781,0,0,0-.84,2.027,1.023,1.023,0,0,0-1.055,1.022v1.921a1.026,1.026,0,0,0,1.055,1.022,7.827,7.827,0,0,0,.839,2.027,1.021,1.021,0,0,0-.023,1.468L24.7,33.43a1.018,1.018,0,0,0,1.467-.022,7.824,7.824,0,0,0,2.027.839A1.006,1.006,0,0,0,29.216,35.3h1.921a1.021,1.021,0,0,0,1.022-1.055,7.832,7.832,0,0,0,2.027-.839l.025.022a1.019,1.019,0,0,0,1.443,0l1.358-1.358a1.021,1.021,0,0,0-.024-1.468,7.827,7.827,0,0,0,.839-2.027,1.024,1.024,0,0,0,1.055-1.022V25.635a1.021,1.021,0,0,0-1.055-1.022,7.781,7.781,0,0,0-.84-2.027,1.016,1.016,0,0,0,.083-1.4l-1.418-1.423a1.019,1.019,0,0,0-1.467.022,7.83,7.83,0,0,0-2.028-.839,1.021,1.021,0,0,0-1.022-1.055Zm23.723,7.745a1.119,1.119,0,0,0-.793.329,1.212,1.212,0,0,0-.329,1,10.048,10.048,0,0,0-2.9,1.2l-.151-.148a1.1,1.1,0,0,0-1.525-.055L45.4,29.8a1.119,1.119,0,0,0-.328.794,1.212,1.212,0,0,0,.478.943,10.049,10.049,0,0,0-1.2,2.9h-.212a1.125,1.125,0,0,0-1.122,1.122v2.515c0,.786.625,1.122,1.334,1.122a10.043,10.043,0,0,0,1.2,2.9l-.149.149a1.123,1.123,0,0,0,0,1.587l1.778,1.778a1.12,1.12,0,0,0,.794.328,1.212,1.212,0,0,0,.943-.478,10.05,10.05,0,0,0,2.9,1.2c0,.708.336,1.334,1.122,1.334h2.515a1.119,1.119,0,0,0,.793-.329,1.212,1.212,0,0,0,.329-1.005,10.048,10.048,0,0,0,2.9-1.2l.149.149a1.123,1.123,0,0,0,1.587,0l1.777-1.78a1.117,1.117,0,0,0,.33-.792,1.212,1.212,0,0,0-.478-.943,10.048,10.048,0,0,0,1.2-2.9h.211a1.125,1.125,0,0,0,1.122-1.123V35.558c0-.786-.625-1.122-1.334-1.122a10,10,0,0,0-1.2-2.9l.149-.152a1.12,1.12,0,0,0,0-1.586L61.215,28.02a1.119,1.119,0,0,0-.794-.328,1.212,1.212,0,0,0-.943.478,10.047,10.047,0,0,0-2.9-1.2v-.212a1.125,1.125,0,0,0-1.122-1.122ZM32.825,23.947a3.745,3.745,0,1,1-5.3,0,3.745,3.745,0,0,1,5.3,0Zm24.99,9.25a5.118,5.118,0,1,1-7.238,0,5.118,5.118,0,0,1,7.238,0Z" transform="translate(0 0)" fill-rule="evenodd"/>
      <path id="Trazado_1054368" data-name="Trazado 1054368" d="M287.438,107.417h-1.977l0,.5a.693.693,0,0,1-.571.682,8.762,8.762,0,0,0-3.395,1.4.7.7,0,0,1-.911-.063l-.358-.358-1.4,1.4.357.358a.7.7,0,0,1,.079.888,8.714,8.714,0,0,0-1.408,3.36.7.7,0,0,1-.692.631h-.5V118.2l.5,0a.693.693,0,0,1,.682.571,8.761,8.761,0,0,0,1.4,3.395.7.7,0,0,1-.063.911l-.358.358,1.4,1.4.358-.357a.7.7,0,0,1,.888-.079,8.713,8.713,0,0,0,3.36,1.408.7.7,0,0,1,.631.693v.5h1.977l0-.5a.693.693,0,0,1,.571-.682,8.764,8.764,0,0,0,3.395-1.4.7.7,0,0,1,.911.063l.358.358,1.4-1.4-.357-.358a.7.7,0,0,1-.079-.888,8.711,8.711,0,0,0,1.408-3.36.7.7,0,0,1,.693-.631h.5v-1.977l-.5,0a.693.693,0,0,1-.682-.571,8.747,8.747,0,0,0-1.388-3.375.7.7,0,0,1,.048-.93l.358-.358-1.4-1.4-.358.357a.7.7,0,0,1-.888.079,8.709,8.709,0,0,0-3.359-1.408.7.7,0,0,1-.631-.692Zm-.989,3.283a6.509,6.509,0,1,1-6.509,6.509,6.509,6.509,0,0,1,6.509-6.509Z" transform="translate(-232.254 -80.393)" fill="#00919e" fill-rule="evenodd"/>
      <path id="Trazado_1054369" data-name="Trazado 1054369" d="M86.707,36.287H85.525l0,.221a.693.693,0,0,1-.571.682,6.538,6.538,0,0,0-2.523,1.042.7.7,0,0,1-.911-.063l-.157-.157-.836.836.156.159a.693.693,0,0,1,.08.884,6.533,6.533,0,0,0-1.047,2.491.7.7,0,0,1-.692.63H78.8v1.182l.221,0a.693.693,0,0,1,.682.571,6.533,6.533,0,0,0,1.042,2.523.7.7,0,0,1-.063.911l-.157.157.836.836.157-.157a.7.7,0,0,1,.888-.079A6.5,6.5,0,0,0,84.9,50.006a.7.7,0,0,1,.63.692v.221h1.182l0-.221a.693.693,0,0,1,.571-.682A6.54,6.54,0,0,0,89.8,48.974a.7.7,0,0,1,.911.063l.157.157.836-.836L91.55,48.2a.7.7,0,0,1-.079-.888,6.5,6.5,0,0,0,1.047-2.489.7.7,0,0,1,.692-.63h.221V43.012l-.221,0a.693.693,0,0,1-.682-.571,6.528,6.528,0,0,0-1.027-2.5A.7.7,0,0,1,91.55,39l.157-.157-.836-.836-.157.157a.7.7,0,0,1-.888.079A6.5,6.5,0,0,0,87.336,37.2a.7.7,0,0,1-.63-.692v-.221Zm-.591,2.179A5.137,5.137,0,1,1,80.979,43.6a5.137,5.137,0,0,1,5.137-5.137Z" transform="translate(-55.939 -17.008)" fill="#0074ff" fill-rule="evenodd"/>
      <path id="Trazado_1054370" data-name="Trazado 1054370" d="M34.874,336.385a.664.664,0,0,0-.849-.366l-4.837,1.922a.664.664,0,0,0-.366.849l5.038,12.68a.664.664,0,0,0,.849.366l4.837-1.922a.667.667,0,0,0,.381-.808Q37.405,342.743,34.874,336.385Z" transform="translate(-11.364 -284.066)" fill="#0074ff" fill-rule="evenodd"/>
      <path id="Trazado_1054371" data-name="Trazado 1054371" d="M106.262,322.219a10.372,10.372,0,0,1,4.348-1.147c2.01.107,4.447,1.285,6.244,2.122a26.177,26.177,0,0,0,6.213,2.263,12.055,12.055,0,0,0,4.361.271,6.4,6.4,0,0,0,2.027-.833c.149-.089.509-.366.961-.714a27.077,27.077,0,0,1,3.528-2.422,7.085,7.085,0,0,0,.614-.37c.123-.109,7.311-4.533,8.1-5.023a3.941,3.941,0,0,0,1.518-1.374,1.612,1.612,0,0,0,0-1.264c-.213-.658-2.372-1.223-2.972-.8l-5.011,3.5a.691.691,0,0,1-.223.1l-6.447,1.672-3.9,2.083a.693.693,0,1,1-.652-1.223l1.585-.846-9.67-1.535a.693.693,0,1,1,.218-1.369l10.788,1.713.18.035a1.589,1.589,0,0,0,1.561-2.409,2.276,2.276,0,0,0-1.155-.833l-9.2-3.166c-1.461-.451-5.657-1.615-7.491-1.411a7.423,7.423,0,0,0-2.925,1.259c-1.146.674-2.088,1.183-3.263,1.792-.9.469-1.81.939-2.7,1.466Z" transform="translate(-77.416 -260.224)" fill="#ffae60" fill-rule="evenodd"/>
    </g>
  </g>
</svg>
