<svg xmlns="http://www.w3.org/2000/svg" xmlns:xlink="http://www.w3.org/1999/xlink" width="113" height="113" viewBox="0 0 113 113">
  <defs>
    <filter id="Trazado_982547" x="0" y="0" width="113" height="113" filterUnits="userSpaceOnUse">
      <feOffset dy="3" input="SourceAlpha"/>
      <feGaussianBlur stdDeviation="3" result="blur"/>
      <feFlood flood-opacity="0.161"/>
      <feComposite operator="in" in2="blur"/>
      <feComposite in="SourceGraphic"/>
    </filter>
  </defs>
  <g id="Grupo_1210562" data-name="Grupo 1210562" transform="translate(9 6)">
    <g id="Grupo_1210335" data-name="Grupo 1210335" transform="translate(0 0)">
      <g id="Grupo_1210123" data-name="Grupo 1210123">
        <g id="Grupo_1209055" data-name="Grupo 1209055" transform="translate(0 0)">
          <g id="Grupo_1209049" data-name="Grupo 1209049" transform="translate(0 0)">
            <g id="Grupo_1208493" data-name="Grupo 1208493" transform="translate(0 0)">
              <g id="Grupo_1202104" data-name="Grupo 1202104">
                <g id="Grupo_1201923" data-name="Grupo 1201923" transform="translate(0 0)">
                  <g id="Grupo_1176928" data-name="Grupo 1176928" transform="translate(0 0)">
                    <g id="Grupo_1172322" data-name="Grupo 1172322">
                      <g id="Grupo_1164700" data-name="Grupo 1164700">
                        <g id="Grupo_1160931" data-name="Grupo 1160931">
                          <g id="Grupo_1160749" data-name="Grupo 1160749">
                            <g id="Grupo_1158891" data-name="Grupo 1158891">
                              <g id="Grupo_1157406" data-name="Grupo 1157406">
                                <g id="Grupo_1155793" data-name="Grupo 1155793">
                                  <g id="Grupo_1154704" data-name="Grupo 1154704">
                                    <g id="Grupo_1150790" data-name="Grupo 1150790">
                                      <g id="Grupo_1154214" data-name="Grupo 1154214">
                                        <g id="Grupo_1152583" data-name="Grupo 1152583">
                                          <g id="Grupo_1146973" data-name="Grupo 1146973">
                                            <g id="Grupo_1146954" data-name="Grupo 1146954">
                                              <g transform="matrix(1, 0, 0, 1, -9, -6)" filter="url(#Trazado_982547)">
                                                <g id="Trazado_982547-2" data-name="Trazado 982547" transform="translate(9 6)" fill="#fef9e7">
                                                  <path d="M 47.5000114440918 93.49987030029297 C 41.28938293457031 93.49987030029297 35.26534652709961 92.28384399414062 29.5951976776123 89.88558959960938 C 24.11773109436035 87.56881713867188 19.19814491271973 84.25183868408203 14.97310447692871 80.02680206298828 C 10.74805164337158 75.80176544189453 7.43107795715332 70.88218688964844 5.114304542541504 65.40472412109375 C 2.716038227081299 59.73458862304688 1.500011444091797 53.71054840087891 1.500011444091797 47.49993515014648 C 1.500011444091797 41.28932189941406 2.716038227081299 35.26528167724609 5.114304542541504 29.59514808654785 C 7.43107795715332 24.1176815032959 10.74805164337158 19.1981086730957 14.97310447692871 14.97306823730469 C 19.19814491271973 10.74802875518799 24.11773109436035 7.431055068969727 29.5951976776123 5.11428165435791 C 35.26534652709961 2.716028451919556 41.28938293457031 1.500001788139343 47.5000114440918 1.500001788139343 C 53.71063995361328 1.500001788139343 59.73467636108398 2.716028451919556 65.40482330322266 5.11428165435791 C 70.88229370117188 7.431055068969727 75.8018798828125 10.74802875518799 80.02691650390625 14.97306823730469 C 84.25196838378906 19.1981086730957 87.56894683837891 24.1176815032959 89.88571929931641 29.59514808654785 C 92.28398132324219 35.26528167724609 93.50001525878906 41.28932189941406 93.50001525878906 47.49993515014648 C 93.50001525878906 53.71054840087891 92.28398132324219 59.73458862304688 89.88571929931641 65.40472412109375 C 87.56894683837891 70.88218688964844 84.25196838378906 75.80176544189453 80.02691650390625 80.02680206298828 C 75.8018798828125 84.25183868408203 70.88229370117188 87.56881713867188 65.40482330322266 89.88558959960938 C 59.73467636108398 92.28384399414062 53.71063995361328 93.49987030029297 47.5000114440918 93.49987030029297 Z" stroke="none"/>
                                                  <path d="M 47.5000114440918 3 C 41.49122619628906 3 35.66378021240234 4.1761474609375 30.17951965332031 6.495796203613281 C 24.880859375 8.7369384765625 20.12153625488281 11.94596862792969 16.03376770019531 16.03373718261719 C 11.94598388671875 20.12149047851562 8.736968994140625 24.88081359863281 6.495811462402344 30.17947387695312 C 4.176162719726562 35.66371917724609 3.000007629394531 41.49116516113281 3.000007629394531 47.49993515014648 C 3.000007629394531 53.50870513916016 4.176162719726562 59.33615112304688 6.495811462402344 64.82039642333984 C 8.736968994140625 70.11905670166016 11.94598388671875 74.87837982177734 16.03376770019531 78.96613311767578 C 20.12153625488281 83.05390167236328 24.880859375 86.26293182373047 30.17951965332031 88.50407409667969 C 35.66378021240234 90.82372283935547 41.49122619628906 91.99987030029297 47.5000114440918 91.99987030029297 C 53.50879669189453 91.99987030029297 59.33624267578125 90.82372283935547 64.82050323486328 88.50407409667969 C 70.11916351318359 86.26293182373047 74.87848663330078 83.05390167236328 78.96625518798828 78.96613311767578 C 83.05403900146484 74.87837982177734 86.2630615234375 70.11905670166016 88.50421142578125 64.82039642333984 C 90.82386016845703 59.33615112304688 92.00001525878906 53.50870513916016 92.00001525878906 47.49993515014648 C 92.00001525878906 41.49116516113281 90.82386016845703 35.66371917724609 88.50421142578125 30.17947387695312 C 86.2630615234375 24.88081359863281 83.05403900146484 20.12149047851562 78.96625518798828 16.03373718261719 C 74.87848663330078 11.94596862792969 70.11916351318359 8.7369384765625 64.82050323486328 6.495796203613281 C 59.33624267578125 4.1761474609375 53.50879669189453 3 47.5000114440918 3 M 47.5000114440918 0 C 73.73353576660156 0 95.00001525878906 21.26644134521484 95.00001525878906 47.49993515014648 C 95.00001525878906 73.73342895507812 73.73353576660156 94.99987030029297 47.5000114440918 94.99987030029297 C 21.26648712158203 94.99987030029297 7.62939453125e-06 73.73342895507812 7.62939453125e-06 47.49993515014648 C 7.62939453125e-06 21.26644134521484 21.26648712158203 0 47.5000114440918 0 Z" stroke="none" fill="#f8ce24"/>
                                                </g>
                                              </g>
                                            </g>
                                          </g>
                                        </g>
                                      </g>
                                    </g>
                                  </g>
                                </g>
                              </g>
                            </g>
                          </g>
                        </g>
                      </g>
                    </g>
                  </g>
                </g>
              </g>
            </g>
          </g>
        </g>
      </g>
    </g>
    <g id="test_1465427" transform="translate(14.611 16.315)">
      <path id="Trazado_1054017" data-name="Trazado 1054017" d="M271.793,256v6.578l-4.341,1.086a28.177,28.177,0,0,1-2.62,6.325l2.3,3.837-9.308,9.308-3.837-2.3a28.177,28.177,0,0,1-6.325,2.62l-1.086,4.341H240v-8.77a22.92,22.92,0,0,0,16.039-6.523l1.5-1.611A22.925,22.925,0,0,0,263.022,256Zm0,0" transform="translate(-207.111 -220.918)" fill="#fcd770"/>
      <path id="Trazado_1054018" data-name="Trazado 1054018" d="M16.77,256a23.02,23.02,0,0,0,23.023,23.023v8.77H33.215l-1.086-4.341a28.178,28.178,0,0,1-6.325-2.62l-3.837,2.3-9.308-9.308,2.3-3.837a28.176,28.176,0,0,1-2.62-6.325L8,262.578V256Zm0,0" transform="translate(-6.904 -220.918)" fill="#fcd770"/>
      <g id="Grupo_1210561" data-name="Grupo 1210561" transform="translate(14.252 1.096)">
        <path id="Trazado_1054019" data-name="Trazado 1054019" d="M317.8,8v6.139l-8.376-5.865A1.555,1.555,0,0,0,308.559,8Zm0,0" transform="translate(-280.526 -8)" fill="#e6e9ed"/>
        <path id="Trazado_1054020" data-name="Trazado 1054020" d="M176.119,227.289v1.1a12.059,12.059,0,1,1-24.119,0h8.77V224h15.348Zm0,0" transform="translate(-145.422 -194.4)" fill="#e6e9ed"/>
        <path id="Trazado_1054021" data-name="Trazado 1054021" d="M119.348,25.541h10.963v2.851a4.375,4.375,0,0,0,.965,2.741l2.456,3.069a4.369,4.369,0,0,1,.943,2.3c.011.142.022.3.022.438V37.6H119.348V31.022H108.385V41.986H104V8h27.824a1.516,1.516,0,0,0-1.513,1.513,1.5,1.5,0,0,0,.516,1.129l8.255,7.225v3.289H134.7V17.867a3.284,3.284,0,0,0-3.289-3.289,1.1,1.1,0,0,0-1.1,1.1v5.482H119.348v-8.77H108.385V23.348h8.77Zm0,0" transform="translate(-104 -8)" fill="#e6e9ed"/>
      </g>
      <path id="Trazado_1054022" data-name="Trazado 1054022" d="M141.275,248v.6c0,10.448-8.551,19.328-18.988,19.131A18.649,18.649,0,0,1,104,249.1h6.578a12.059,12.059,0,1,0,24.119,0V248Zm0,0" transform="translate(-89.748 -214.014)" fill="#5cd6b3"/>
      <path id="Trazado_1054023" data-name="Trazado 1054023" d="M334.44,216v4.385h-6.578v-3.947c0-.142-.011-.3-.022-.438Zm0,0" transform="translate(-282.913 -186.4)" fill="#37bc9b"/>
      <path id="Trazado_1054024" data-name="Trazado 1054024" d="M309.156,16.814v4.341H304.77V17.867l-8.255-7.225A1.5,1.5,0,0,1,296,9.513,1.516,1.516,0,0,1,297.513,8h.208a1.555,1.555,0,0,1,.866.274l8.376,5.865,1.261.877a2.218,2.218,0,0,1,.932,1.8Zm0,0" transform="translate(-255.436 -6.904)" fill="#f0d0b4"/>
      <path id="Trazado_1054025" data-name="Trazado 1054025" d="M343.348,104a2.2,2.2,0,0,1,2.193,2.193,2.208,2.208,0,0,1-2.193,2.193H328V104Zm0,0" transform="translate(-283.051 -89.748)" fill="#fcd770"/>
      <path id="Trazado_1054026" data-name="Trazado 1054026" d="M213.156,104v4.385H202.193L200,106.193,202.193,104Zm0,0" transform="translate(-172.592 -89.748)" fill="#fcd770"/>
      <path id="Trazado_1054027" data-name="Trazado 1054027" d="M300.385,66.963h8.771V69.54a4.311,4.311,0,0,1-.23,1.392l-1.732,5.218a4.31,4.31,0,0,0-.23,1.392v.384h-6.6a4.37,4.37,0,0,0-.943-2.3l-2.456-3.069A4.375,4.375,0,0,1,296,69.814V57.1a1.1,1.1,0,0,1,1.1-1.1,3.284,3.284,0,0,1,3.289,3.289Zm0,0" transform="translate(-255.436 -48.326)" fill="#f0d0b4"/>
      <path id="Trazado_1054028" data-name="Trazado 1054028" d="M146.963,177.1v9.867H136V176h10.963Zm0,0" transform="translate(-117.363 -151.881)" fill="#ff826e"/>
      <path id="Trazado_1054029" data-name="Trazado 1054029" d="M136,50.963V40h10.963v8.77l-2.193,2.193Zm0,0" transform="translate(-117.363 -34.518)" fill="#ff826e"/>
      <path id="Trazado_1054030" data-name="Trazado 1054030" d="M232,448h2.193v2.193H232Zm0,0" transform="translate(-200.207 -386.607)"/>
      <path id="Trazado_1054031" data-name="Trazado 1054031" d="M370.105,387.66l1.55-1.55,1.551,1.55-1.551,1.55Zm0,0" transform="translate(-319.386 -333.198)"/>
      <path id="Trazado_1054032" data-name="Trazado 1054032" d="M87.262,387.66l1.55-1.55,1.55,1.55-1.55,1.55Zm0,0" transform="translate(-75.303 -333.198)"/>
      <path id="Trazado_1054033" data-name="Trazado 1054033" d="M115.356,54.812q.181,0,.362,0a19.328,19.328,0,0,0,13.6-5.647,20.558,20.558,0,0,0,6.149-14.574V29.217a3.313,3.313,0,0,1,.168-1.04l1.745-5.228a5.485,5.485,0,0,0,.281-1.733V19.734h5.482a3.289,3.289,0,0,0,0-6.578H137.66V9.912a3.3,3.3,0,0,0-1.4-2.695l-.913-.639h.124V0H96V35.082a19.83,19.83,0,0,0,19.356,19.73ZM128.889,30.7h4.385v2.193h-4.385Zm6.578-9.482a3.313,3.313,0,0,1-.168,1.04l-1.745,5.228a5.453,5.453,0,0,0-.224,1.022h-4.681a5.491,5.491,0,0,0-.963-1.887l-2.462-3.079a3.3,3.3,0,0,1-.722-2.055V8.771a2.195,2.195,0,0,1,2.193,2.193V20.83h2.193v-1.1h6.578Zm-4.385-8.059h-2.193V10.963a4.36,4.36,0,0,0-.363-1.739l2.556,2.237Zm13.156,3.289a1.1,1.1,0,0,1-1.1,1.1H128.889V15.348h14.252A1.1,1.1,0,0,1,144.238,16.445ZM133.275,5.13l-4.2-2.937h4.2Zm-8.15-2.937a.415.415,0,0,1,.237.074L135,9.013a1.1,1.1,0,0,1,.469.9v3.244h-2.193v-2.69l-8.629-7.55a.412.412,0,0,1,.271-.723Zm-26.932,0h24.161a2.549,2.549,0,0,0-.042.412,2.605,2.605,0,0,0,.89,1.96l2.521,2.207a4.338,4.338,0,0,0-1.219-.194,2.195,2.195,0,0,0-2.193,2.193v4.385h-8.77V10.963h-2.193V13.8l-1.55,1.55h-7.22V6.578h3.289V4.385h-5.482V17.541H109.8l2.193,2.193h10.321v1.751a5.51,5.51,0,0,0,1.2,3.425l2.462,3.079a3.292,3.292,0,0,1,.722,2.053v5.04a10.963,10.963,0,0,1-21.871,1.1h8.715V29.6h-2.193v4.385h-8.77v-8.77h3.289V23.023h-5.482V36.178h2.248a13.151,13.151,0,0,0,26.256-1.1h4.36A18.358,18.358,0,0,1,127.782,47.6a17.148,17.148,0,0,1-12.066,5.02c-.106,0-.211,0-.319,0a17.625,17.625,0,0,1-17.2-17.538Zm24.119,15.348H112.9l-1.1-1.1,1.1-1.1h9.413Zm0,0" transform="translate(-82.844 0)"/>
      <path id="Trazado_1054034" data-name="Trazado 1054034" d="M154.344,33.376l2.968,2.968,8.449-8.449-1.55-1.55-6.9,6.9-1.417-1.418Zm0,0" transform="translate(-133.193 -22.734)"/>
      <path id="Trazado_1054035" data-name="Trazado 1054035" d="M154.344,169.375l2.968,2.968,8.449-8.449-1.55-1.55-6.9,6.9-1.417-1.417Zm0,0" transform="translate(-133.193 -140.096)"/>
      <path id="Trazado_1054036" data-name="Trazado 1054036" d="M240,216h8.77v2.193H240Zm0,0" transform="translate(-207.111 -186.4)"/>
      <path id="Trazado_1054037" data-name="Trazado 1054037" d="M240,248h8.77v2.193H240Zm0,0" transform="translate(-207.111 -214.014)"/>
      <path id="Trazado_1054038" data-name="Trazado 1054038" d="M224,280h8.77v2.193H224Zm0,0" transform="translate(-193.303 -241.629)"/>
      <path id="Trazado_1054039" data-name="Trazado 1054039" d="M192,280h2.193v2.193H192Zm0,0" transform="translate(-165.688 -241.629)"/>
      <path id="Trazado_1054040" data-name="Trazado 1054040" d="M65.778,256.53V248H54.815v1.1a21.927,21.927,0,0,1-5.222,14.184l1.67,1.42a24.134,24.134,0,0,0,5.72-14.506h6.6v4.626l-4.129,1.032-.17.615a27.151,27.151,0,0,1-2.524,6.085l-.313.557,2.192,3.65-8.093,8.093L46.9,272.66l-.557.313a27.208,27.208,0,0,1-6.085,2.524l-.615.17-1.03,4.127H27.167l-1.032-4.129-.615-.17a27.151,27.151,0,0,1-6.085-2.524l-.557-.313-3.65,2.192-8.092-8.093,2.192-3.65-.313-.557a27.211,27.211,0,0,1-2.524-6.085l-.17-.614-4.129-1.032v-4.626h6.6a24.106,24.106,0,0,0,40.9,16.186l-1.529-1.572a21.913,21.913,0,0,1-37.2-15.71V248H0v8.53l4.559,1.139a29.434,29.434,0,0,0,2.237,5.4L4.376,267.1l10.512,10.512,4.031-2.418a29.4,29.4,0,0,0,5.4,2.237l1.139,4.559H40.323l1.139-4.559a29.434,29.434,0,0,0,5.4-2.237l4.031,2.418L61.4,267.1l-2.419-4.031a29.4,29.4,0,0,0,2.237-5.4Zm0,0" transform="translate(0.001 -214.014)"/>
    </g>
  </g>
</svg>
