<svg xmlns="http://www.w3.org/2000/svg" xmlns:xlink="http://www.w3.org/1999/xlink" width="113" height="113" viewBox="0 0 113 113">
  <defs>
    <filter id="Trazado_982547" x="0" y="0" width="113" height="113" filterUnits="userSpaceOnUse">
      <feOffset dy="3" input="SourceAlpha"/>
      <feGaussianBlur stdDeviation="3" result="blur"/>
      <feFlood flood-opacity="0.161"/>
      <feComposite operator="in" in2="blur"/>
      <feComposite in="SourceGraphic"/>
    </filter>
  </defs>
  <g id="Grupo_1210630" data-name="Grupo 1210630" transform="translate(-330 -7434.7)">
    <g id="Grupo_1210419" data-name="Grupo 1210419" transform="translate(-782 -3938.783)">
      <g id="Grupo_1210123" data-name="Grupo 1210123" transform="translate(0 9051.484)">
        <g id="Grupo_1209055" data-name="Grupo 1209055" transform="translate(0 1091.783)">
          <g id="Grupo_1209049" data-name="Grupo 1209049">
            <g id="Grupo_1208493" data-name="Grupo 1208493" transform="translate(0 -4397.209)">
              <g id="Grupo_1202104" data-name="Grupo 1202104" transform="translate(0 -1149.226)">
                <g id="Grupo_1201923" data-name="Grupo 1201923" transform="translate(-4174.49 4856.378)">
                  <g id="Grupo_1176928" data-name="Grupo 1176928" transform="translate(5295.49 1926.273)">
                    <g id="Grupo_1172322" data-name="Grupo 1172322" transform="translate(0 0)">
                      <g id="Grupo_1164700" data-name="Grupo 1164700">
                        <g id="Grupo_1160931" data-name="Grupo 1160931">
                          <g id="Grupo_1160749" data-name="Grupo 1160749">
                            <g id="Grupo_1158891" data-name="Grupo 1158891">
                              <g id="Grupo_1157406" data-name="Grupo 1157406">
                                <g id="Grupo_1155793" data-name="Grupo 1155793">
                                  <g id="Grupo_1154704" data-name="Grupo 1154704">
                                    <g id="Grupo_1150790" data-name="Grupo 1150790">
                                      <g id="Grupo_1154214" data-name="Grupo 1154214">
                                        <g id="Grupo_1152583" data-name="Grupo 1152583">
                                          <g id="Grupo_1146973" data-name="Grupo 1146973">
                                            <g id="Grupo_1146954" data-name="Grupo 1146954">
                                              <g transform="matrix(1, 0, 0, 1, -9, -6)" filter="url(#Trazado_982547)">
                                                <g id="Trazado_982547-2" data-name="Trazado 982547" transform="translate(9 6)" fill="#fef9e7">
                                                  <path d="M 47.5000114440918 93.49987030029297 C 41.28938293457031 93.49987030029297 35.26534652709961 92.28384399414062 29.5951976776123 89.88558959960938 C 24.11773109436035 87.56881713867188 19.19814491271973 84.25183868408203 14.97310447692871 80.02680206298828 C 10.74805164337158 75.80176544189453 7.43107795715332 70.88218688964844 5.114304542541504 65.40472412109375 C 2.716038227081299 59.73458862304688 1.500011444091797 53.71054840087891 1.500011444091797 47.49993515014648 C 1.500011444091797 41.28932189941406 2.716038227081299 35.26528167724609 5.114304542541504 29.59514808654785 C 7.43107795715332 24.1176815032959 10.74805164337158 19.1981086730957 14.97310447692871 14.97306823730469 C 19.19814491271973 10.74802875518799 24.11773109436035 7.431055068969727 29.5951976776123 5.11428165435791 C 35.26534652709961 2.716028451919556 41.28938293457031 1.500001788139343 47.5000114440918 1.500001788139343 C 53.71063995361328 1.500001788139343 59.73467636108398 2.716028451919556 65.40482330322266 5.11428165435791 C 70.88229370117188 7.431055068969727 75.8018798828125 10.74802875518799 80.02691650390625 14.97306823730469 C 84.25196838378906 19.1981086730957 87.56894683837891 24.1176815032959 89.88571929931641 29.59514808654785 C 92.28398132324219 35.26528167724609 93.50001525878906 41.28932189941406 93.50001525878906 47.49993515014648 C 93.50001525878906 53.71054840087891 92.28398132324219 59.73458862304688 89.88571929931641 65.40472412109375 C 87.56894683837891 70.88218688964844 84.25196838378906 75.80176544189453 80.02691650390625 80.02680206298828 C 75.8018798828125 84.25183868408203 70.88229370117188 87.56881713867188 65.40482330322266 89.88558959960938 C 59.73467636108398 92.28384399414062 53.71063995361328 93.49987030029297 47.5000114440918 93.49987030029297 Z" stroke="none"/>
                                                  <path d="M 47.5000114440918 3 C 41.49122619628906 3 35.66378021240234 4.1761474609375 30.17951965332031 6.495796203613281 C 24.880859375 8.7369384765625 20.12153625488281 11.94596862792969 16.03376770019531 16.03373718261719 C 11.94598388671875 20.12149047851562 8.736968994140625 24.88081359863281 6.495811462402344 30.17947387695312 C 4.176162719726562 35.66371917724609 3.000007629394531 41.49116516113281 3.000007629394531 47.49993515014648 C 3.000007629394531 53.50870513916016 4.176162719726562 59.33615112304688 6.495811462402344 64.82039642333984 C 8.736968994140625 70.11905670166016 11.94598388671875 74.87837982177734 16.03376770019531 78.96613311767578 C 20.12153625488281 83.05390167236328 24.880859375 86.26293182373047 30.17951965332031 88.50407409667969 C 35.66378021240234 90.82372283935547 41.49122619628906 91.99987030029297 47.5000114440918 91.99987030029297 C 53.50879669189453 91.99987030029297 59.33624267578125 90.82372283935547 64.82050323486328 88.50407409667969 C 70.11916351318359 86.26293182373047 74.87848663330078 83.05390167236328 78.96625518798828 78.96613311767578 C 83.05403900146484 74.87837982177734 86.2630615234375 70.11905670166016 88.50421142578125 64.82039642333984 C 90.82386016845703 59.33615112304688 92.00001525878906 53.50870513916016 92.00001525878906 47.49993515014648 C 92.00001525878906 41.49116516113281 90.82386016845703 35.66371917724609 88.50421142578125 30.17947387695312 C 86.2630615234375 24.88081359863281 83.05403900146484 20.12149047851562 78.96625518798828 16.03373718261719 C 74.87848663330078 11.94596862792969 70.11916351318359 8.7369384765625 64.82050323486328 6.495796203613281 C 59.33624267578125 4.1761474609375 53.50879669189453 3 47.5000114440918 3 M 47.5000114440918 0 C 73.73353576660156 0 95.00001525878906 21.26644134521484 95.00001525878906 47.49993515014648 C 95.00001525878906 73.73342895507812 73.73353576660156 94.99987030029297 47.5000114440918 94.99987030029297 C 21.26648712158203 94.99987030029297 7.62939453125e-06 73.73342895507812 7.62939453125e-06 47.49993515014648 C 7.62939453125e-06 21.26644134521484 21.26648712158203 0 47.5000114440918 0 Z" stroke="none" fill="#f8ce24"/>
                                                </g>
                                              </g>
                                            </g>
                                          </g>
                                        </g>
                                      </g>
                                    </g>
                                  </g>
                                </g>
                              </g>
                            </g>
                          </g>
                        </g>
                      </g>
                    </g>
                  </g>
                </g>
              </g>
            </g>
          </g>
        </g>
      </g>
    </g>
    <g id="Page-1" transform="translate(360.016 7456.419)">
      <g id="_037---Connected" data-name="037---Connected" transform="translate(0.001 0)">
        <path id="Path" d="M15.594,52v4.99a2.437,2.437,0,0,1-2.427,2.426H7.425A2.437,2.437,0,0,1,5,56.99V52Z" transform="translate(0.296 3.087)" fill="#ffdc00" fill-rule="evenodd"/>
        <path id="Path-2" data-name="Path" d="M12.136,52v4.99a2.437,2.437,0,0,1-2.427,2.426h3.178a2.437,2.437,0,0,0,2.427-2.426V52Z" transform="translate(0.575 3.087)" fill="#fec108" fill-rule="evenodd"/>
        <path id="Path-3" data-name="Path" d="M27.484,3.807V28.914a2.813,2.813,0,0,1-2.808,2.807H18.637a2.813,2.813,0,0,0-2.806,2.807v20.5H5.237v-25A8.1,8.1,0,0,0,3.8,25.376,15.4,15.4,0,0,1,1.064,15.132,15.8,15.8,0,0,1,16.879,1h7.8A2.813,2.813,0,0,1,27.484,3.807Z" transform="translate(0.058 0.06)" fill="#02a9f4" fill-rule="evenodd"/>
        <path id="Path-4" data-name="Path" d="M12,32.807v20.5h3.178v-20.5A2.813,2.813,0,0,1,17.984,30H14.806A2.813,2.813,0,0,0,12,32.807Z" transform="translate(0.711 1.781)" fill="#0377bc" fill-rule="evenodd"/>
        <path id="Path-5" data-name="Path" d="M23.527,1H20.349a2.813,2.813,0,0,1,2.808,2.807V28.914a2.813,2.813,0,0,1-2.808,2.807h3.178a2.813,2.813,0,0,0,2.808-2.807V3.807A2.813,2.813,0,0,0,23.527,1Z" transform="translate(1.207 0.06)" fill="#0377bc" fill-rule="evenodd"/>
        <path id="Rectangle" d="M0,0H7.415V18.009H0Z" transform="translate(34.955 25.425) rotate(180)" fill="#37474f" fill-rule="evenodd"/>
        <path id="Path-6" data-name="Path" d="M5.3,0h6.356a2.119,2.119,0,0,1,2.119,2.119V20.128a2.119,2.119,0,0,1-2.119,2.119H5.3A5.3,5.3,0,0,1,0,16.95V5.3A5.3,5.3,0,0,1,5.3,0Z" transform="translate(48.726 27.543) rotate(180)" fill="#607d8b" fill-rule="evenodd"/>
        <path id="Path-7" data-name="Path" d="M41.178,5H38a5.3,5.3,0,0,1,5.3,5.3V21.95a5.3,5.3,0,0,1-5.3,5.3h3.178a5.3,5.3,0,0,0,5.3-5.3V10.3a5.3,5.3,0,0,0-5.3-5.3Z" transform="translate(2.254 0.297)" fill="#37474f" fill-rule="evenodd"/>
        <circle id="Oval" cx="2.119" cy="2.119" r="2.119" transform="translate(11.651 6.356)" fill="#ffdc00"/>
        <circle id="Oval-2" data-name="Oval" cx="14.831" cy="14.831" r="14.831" transform="translate(22.245 32.84)" fill="#60a917"/>
        <path id="Path-8" data-name="Path" d="M35.089,31a14.852,14.852,0,0,0-1.589.088,14.831,14.831,0,0,1,0,29.486A14.831,14.831,0,1,0,35.089,31Z" transform="translate(1.987 1.84)" fill="#549414" fill-rule="evenodd"/>
        <path id="Path-9" data-name="Path" d="M44.482,40.038a2.119,2.119,0,0,1-.13,2.994L33.2,53.253a2.119,2.119,0,0,1-2.93-.064l-3.1-3.1a2.2,2.2,0,0,1-.31-2.8,2.119,2.119,0,0,1,3.227-.271l1.745,1.744,9.655-8.851a2.119,2.119,0,0,1,2.993.13Z" transform="translate(1.571 2.336)" fill="#f5f5f5" fill-rule="evenodd"/>
        <g id="Grupo_1210563" data-name="Grupo 1210563">
          <path id="Shape" d="M2.988,26.043a7.087,7.087,0,0,1,1.249,4.042v29.99a3.49,3.49,0,0,0,3.485,3.485h5.742a3.49,3.49,0,0,0,3.485-3.485V34.585a1.747,1.747,0,0,1,1.745-1.745h6.045A3.869,3.869,0,0,0,28.6,28.977V26.484h5.492A3.178,3.178,0,0,0,37.077,28.6h6.356a6.362,6.362,0,0,0,6.356-6.356V10.594a6.362,6.362,0,0,0-6.356-6.356H37.077a3.178,3.178,0,0,0-2.983,2.119H28.6V3.863A3.869,3.869,0,0,0,24.739,0h-7.8A16.87,16.87,0,0,0,.066,15.1,16.549,16.549,0,0,0,2.988,26.043Zm10.476,35.4H7.723a1.369,1.369,0,0,1-1.367-1.367v-3.93h8.475v3.93A1.369,1.369,0,0,1,13.464,61.443ZM37.077,6.356h6.356a4.237,4.237,0,0,1,4.237,4.237V22.246a4.237,4.237,0,0,1-4.237,4.237H37.077a1.059,1.059,0,0,1-1.059-1.059V7.415A1.059,1.059,0,0,1,37.077,6.356ZM33.9,8.475v15.89H28.6V8.475ZM2.176,15.283A14.739,14.739,0,0,1,16.937,2.119h4.25V25.425a1.059,1.059,0,1,0,2.119,0V2.119h1.433a1.747,1.747,0,0,1,1.745,1.745V28.977a1.747,1.747,0,0,1-1.745,1.745H18.694a3.869,3.869,0,0,0-3.863,3.863V54.027H6.356V30.086a9.228,9.228,0,0,0-1.634-5.264,14.415,14.415,0,0,1-2.547-9.538Z" transform="translate(-0.001 0)"/>
          <path id="Shape-2" data-name="Shape" d="M13.178,11.356A3.178,3.178,0,1,0,10,8.178,3.178,3.178,0,0,0,13.178,11.356Zm0-4.237a1.059,1.059,0,1,1-1.059,1.059A1.059,1.059,0,0,1,13.178,7.119Z" transform="translate(0.592 0.297)"/>
          <path id="Shape-3" data-name="Shape" d="M35.89,30a15.89,15.89,0,1,0,15.89,15.89A15.89,15.89,0,0,0,35.89,30Zm0,29.662A13.772,13.772,0,1,1,49.662,45.89,13.772,13.772,0,0,1,35.89,59.662Z" transform="translate(1.186 1.781)"/>
          <path id="Shape-4" data-name="Shape" d="M45.323,39.382a3.178,3.178,0,0,0-4.491-.195l-8.907,8.166L30.9,46.325a3.178,3.178,0,0,0-4.835.4,3.264,3.264,0,0,0,.424,4.173l3.1,3.1a3.178,3.178,0,0,0,4.394.1l11.15-10.221a3.178,3.178,0,0,0,.192-4.491ZM43.7,42.31,32.544,52.533a1.085,1.085,0,0,1-1.463-.033l-3.1-3.1a1.147,1.147,0,0,1-.2-1.435,1.059,1.059,0,0,1,.783-.452h.087a1.059,1.059,0,0,1,.749.31l1.744,1.744a1.059,1.059,0,0,0,1.465.032l9.654-8.85A1.059,1.059,0,1,1,43.7,42.31Z" transform="translate(1.512 2.277)"/>
        </g>
      </g>
    </g>
  </g>
</svg>
