<svg xmlns="http://www.w3.org/2000/svg" xmlns:xlink="http://www.w3.org/1999/xlink" width="113" height="113" viewBox="0 0 113 113">
  <defs>
    <filter id="Trazado_982547" x="0" y="0" width="113" height="113" filterUnits="userSpaceOnUse">
      <feOffset dy="3" input="SourceAlpha"/>
      <feGaussianBlur stdDeviation="3" result="blur"/>
      <feFlood flood-opacity="0.161"/>
      <feComposite operator="in" in2="blur"/>
      <feComposite in="SourceGraphic"/>
    </filter>
  </defs>
  <g id="Grupo_1210632" data-name="Grupo 1210632" transform="translate(-330 -7800.7)">
    <g id="Grupo_1210421" data-name="Grupo 1210421" transform="translate(-782 -3572.783)">
      <g id="Grupo_1210123" data-name="Grupo 1210123" transform="translate(0 9051.484)">
        <g id="Grupo_1209055" data-name="Grupo 1209055" transform="translate(0 1091.783)">
          <g id="Grupo_1209049" data-name="Grupo 1209049">
            <g id="Grupo_1208493" data-name="Grupo 1208493" transform="translate(0 -4397.209)">
              <g id="Grupo_1202104" data-name="Grupo 1202104" transform="translate(0 -1149.226)">
                <g id="Grupo_1201923" data-name="Grupo 1201923" transform="translate(-4174.49 4856.378)">
                  <g id="Grupo_1176928" data-name="Grupo 1176928" transform="translate(5295.49 1926.273)">
                    <g id="Grupo_1172322" data-name="Grupo 1172322" transform="translate(0 0)">
                      <g id="Grupo_1164700" data-name="Grupo 1164700">
                        <g id="Grupo_1160931" data-name="Grupo 1160931">
                          <g id="Grupo_1160749" data-name="Grupo 1160749">
                            <g id="Grupo_1158891" data-name="Grupo 1158891">
                              <g id="Grupo_1157406" data-name="Grupo 1157406">
                                <g id="Grupo_1155793" data-name="Grupo 1155793">
                                  <g id="Grupo_1154704" data-name="Grupo 1154704">
                                    <g id="Grupo_1150790" data-name="Grupo 1150790">
                                      <g id="Grupo_1154214" data-name="Grupo 1154214">
                                        <g id="Grupo_1152583" data-name="Grupo 1152583">
                                          <g id="Grupo_1146973" data-name="Grupo 1146973">
                                            <g id="Grupo_1146954" data-name="Grupo 1146954">
                                              <g transform="matrix(1, 0, 0, 1, -9, -6)" filter="url(#Trazado_982547)">
                                                <g id="Trazado_982547-2" data-name="Trazado 982547" transform="translate(9 6)" fill="#fef9e7">
                                                  <path d="M 47.5000114440918 93.49987030029297 C 41.28938293457031 93.49987030029297 35.26534652709961 92.28384399414062 29.5951976776123 89.88558959960938 C 24.11773109436035 87.56881713867188 19.19814491271973 84.25183868408203 14.97310447692871 80.02680206298828 C 10.74805164337158 75.80176544189453 7.43107795715332 70.88218688964844 5.114304542541504 65.40472412109375 C 2.716038227081299 59.73458862304688 1.500011444091797 53.71054840087891 1.500011444091797 47.49993515014648 C 1.500011444091797 41.28932189941406 2.716038227081299 35.26528167724609 5.114304542541504 29.59514808654785 C 7.43107795715332 24.1176815032959 10.74805164337158 19.1981086730957 14.97310447692871 14.97306823730469 C 19.19814491271973 10.74802875518799 24.11773109436035 7.431055068969727 29.5951976776123 5.11428165435791 C 35.26534652709961 2.716028451919556 41.28938293457031 1.500001788139343 47.5000114440918 1.500001788139343 C 53.71063995361328 1.500001788139343 59.73467636108398 2.716028451919556 65.40482330322266 5.11428165435791 C 70.88229370117188 7.431055068969727 75.8018798828125 10.74802875518799 80.02691650390625 14.97306823730469 C 84.25196838378906 19.1981086730957 87.56894683837891 24.1176815032959 89.88571929931641 29.59514808654785 C 92.28398132324219 35.26528167724609 93.50001525878906 41.28932189941406 93.50001525878906 47.49993515014648 C 93.50001525878906 53.71054840087891 92.28398132324219 59.73458862304688 89.88571929931641 65.40472412109375 C 87.56894683837891 70.88218688964844 84.25196838378906 75.80176544189453 80.02691650390625 80.02680206298828 C 75.8018798828125 84.25183868408203 70.88229370117188 87.56881713867188 65.40482330322266 89.88558959960938 C 59.73467636108398 92.28384399414062 53.71063995361328 93.49987030029297 47.5000114440918 93.49987030029297 Z" stroke="none"/>
                                                  <path d="M 47.5000114440918 3 C 41.49122619628906 3 35.66378021240234 4.1761474609375 30.17951965332031 6.495796203613281 C 24.880859375 8.7369384765625 20.12153625488281 11.94596862792969 16.03376770019531 16.03373718261719 C 11.94598388671875 20.12149047851562 8.736968994140625 24.88081359863281 6.495811462402344 30.17947387695312 C 4.176162719726562 35.66371917724609 3.000007629394531 41.49116516113281 3.000007629394531 47.49993515014648 C 3.000007629394531 53.50870513916016 4.176162719726562 59.33615112304688 6.495811462402344 64.82039642333984 C 8.736968994140625 70.11905670166016 11.94598388671875 74.87837982177734 16.03376770019531 78.96613311767578 C 20.12153625488281 83.05390167236328 24.880859375 86.26293182373047 30.17951965332031 88.50407409667969 C 35.66378021240234 90.82372283935547 41.49122619628906 91.99987030029297 47.5000114440918 91.99987030029297 C 53.50879669189453 91.99987030029297 59.33624267578125 90.82372283935547 64.82050323486328 88.50407409667969 C 70.11916351318359 86.26293182373047 74.87848663330078 83.05390167236328 78.96625518798828 78.96613311767578 C 83.05403900146484 74.87837982177734 86.2630615234375 70.11905670166016 88.50421142578125 64.82039642333984 C 90.82386016845703 59.33615112304688 92.00001525878906 53.50870513916016 92.00001525878906 47.49993515014648 C 92.00001525878906 41.49116516113281 90.82386016845703 35.66371917724609 88.50421142578125 30.17947387695312 C 86.2630615234375 24.88081359863281 83.05403900146484 20.12149047851562 78.96625518798828 16.03373718261719 C 74.87848663330078 11.94596862792969 70.11916351318359 8.7369384765625 64.82050323486328 6.495796203613281 C 59.33624267578125 4.1761474609375 53.50879669189453 3 47.5000114440918 3 M 47.5000114440918 0 C 73.73353576660156 0 95.00001525878906 21.26644134521484 95.00001525878906 47.49993515014648 C 95.00001525878906 73.73342895507812 73.73353576660156 94.99987030029297 47.5000114440918 94.99987030029297 C 21.26648712158203 94.99987030029297 7.62939453125e-06 73.73342895507812 7.62939453125e-06 47.49993515014648 C 7.62939453125e-06 21.26644134521484 21.26648712158203 0 47.5000114440918 0 Z" stroke="none" fill="#f8ce24"/>
                                                </g>
                                              </g>
                                            </g>
                                          </g>
                                        </g>
                                      </g>
                                    </g>
                                  </g>
                                </g>
                              </g>
                            </g>
                          </g>
                        </g>
                      </g>
                    </g>
                  </g>
                </g>
              </g>
            </g>
          </g>
        </g>
      </g>
    </g>
    <g id="incident_13728323_1_" data-name="incident_13728323 (1)" transform="translate(341.356 7805.601)">
      <g id="Grupo_1210576" data-name="Grupo 1210576" transform="translate(8.145 14.529)">
        <g id="Grupo_1210572" data-name="Grupo 1210572" transform="translate(0 0)">
          <path id="Trazado_1054052" data-name="Trazado 1054052" d="M47.432,25.381,64.94,55.7a7.992,7.992,0,0,1-6.926,11.989H23.006A7.992,7.992,0,0,1,16.084,55.7l17.5-30.318a7.989,7.989,0,0,1,13.844,0Z" transform="translate(-15.004 -21.381)" fill="#ffe177" fill-rule="evenodd"/>
          <path id="Trazado_1054053" data-name="Trazado 1054053" d="M187.807,21.412q.355-.031.717-.031a7.937,7.937,0,0,1,6.922,4L212.954,55.7a7.992,7.992,0,0,1-6.926,11.989h-1.435A7.992,7.992,0,0,0,211.52,55.7L194.012,25.381A7.93,7.93,0,0,0,187.807,21.412Z" transform="translate(-163.018 -21.381)" fill="#ffd064" fill-rule="evenodd"/>
        </g>
        <g id="Grupo_1210573" data-name="Grupo 1210573" transform="translate(15.835 21.691)">
          <path id="Trazado_1054054" data-name="Trazado 1054054" d="M157.576,176.137v12.794H143.4V176.137a3.545,3.545,0,0,1,3.545-3.545h7.09a3.545,3.545,0,0,1,3.545,3.545Z" transform="translate(-140.814 -172.592)" fill="#fe646f" fill-rule="evenodd"/>
          <path id="Trazado_1054055" data-name="Trazado 1054055" d="M207.531,172.592h1.435a3.545,3.545,0,0,1,3.545,3.545v12.794h-1.434V176.137a3.545,3.545,0,0,0-3.545-3.545Z" transform="translate(-195.748 -172.592)" fill="#fd4755" fill-rule="evenodd"/>
          <path id="Trazado_1054056" data-name="Trazado 1054056" d="M144.973,267.26v2.673a1.058,1.058,0,0,1-1.058,1.058H126.452a1.058,1.058,0,0,1-1.058-1.058V267.26a1.058,1.058,0,0,1,1.058-1.058h17.463a1.058,1.058,0,0,1,1.058,1.058Z" transform="translate(-125.394 -252.774)" fill="#685e68" fill-rule="evenodd"/>
          <path id="Trazado_1054057" data-name="Trazado 1054057" d="M143.987,266.219a1.058,1.058,0,0,1,.987,1.056v2.673a1.058,1.058,0,0,1-1.058,1.058H126.452a1.058,1.058,0,0,1-1.058-1.058v-.037l.071,0h17.463a1.058,1.058,0,0,0,1.058-1.058Z" transform="translate(-125.394 -252.788)" fill="#544854" fill-rule="evenodd"/>
        </g>
        <g id="Grupo_1210574" data-name="Grupo 1210574" transform="translate(34.428 32.597)">
          <path id="Trazado_1054058" data-name="Trazado 1054058" d="M275.645,251.471a14.677,14.677,0,0,1,4.3,1.783l2.8-1.24,3.294,3.294-1.24,2.8a14.679,14.679,0,0,1,1.783,4.3l2.852,1.1v4.66l-2.852,1.1a14.689,14.689,0,0,1-1.783,4.3l1.24,2.8-3.294,3.3-2.8-1.242a14.682,14.682,0,0,1-4.3,1.785l-1.1,2.851h-4.66l-1.1-2.853a14.686,14.686,0,0,1-4.3-1.783l-2.8,1.242-3.3-3.3,1.242-2.794a14.724,14.724,0,0,1-1.785-4.3l-2.851-1.1V263.5l2.851-1.1a14.679,14.679,0,0,1,1.785-4.3l-1.242-2.8,3.3-3.294,2.794,1.24a14.722,14.722,0,0,1,4.3-1.783l1.1-2.853h4.66Z" transform="translate(-255.004 -248.619)" fill="#837683" fill-rule="evenodd"/>
          <path id="Trazado_1054059" data-name="Trazado 1054059" d="M319.256,252.431l.939-.417,3.294,3.294-1.24,2.8a14.678,14.678,0,0,1,1.783,4.3l2.853,1.1v4.66l-2.853,1.1a14.689,14.689,0,0,1-1.783,4.3l1.24,2.8-3.294,3.3-.939-.417,2.879-2.879-1.242-2.8a14.685,14.685,0,0,0,1.783-4.3l2.852-1.1V263.5l-2.852-1.1a14.674,14.674,0,0,0-1.783-4.3l1.242-2.8Zm-20.527,0,.417-.417,2.794,1.24c-.2.11-.392.224-.583.344Zm14.369-.96a14.676,14.676,0,0,1,4.3,1.783l-.771.344a19.2,19.2,0,0,0-4.888-2.127l-1.1-2.853H312Zm-11.156,26.94-2.8,1.242-.417-.417,2.627-1.167Q301.643,278.247,301.942,278.411Zm15.458,0a14.681,14.681,0,0,1-4.3,1.785l-1.1,2.851h-1.356l1.1-2.851a19.243,19.243,0,0,0,4.89-2.127Z" transform="translate(-292.457 -248.619)" fill="#685e68" fill-rule="evenodd"/>
          <path id="Trazado_1054060" data-name="Trazado 1054060" d="M308.792,291.319a11.089,11.089,0,1,1-11.087,11.09,11.089,11.089,0,0,1,11.087-11.09Z" transform="translate(-291.579 -285.194)" fill="#eceff1" fill-rule="evenodd"/>
          <path id="Trazado_1054061" data-name="Trazado 1054061" d="M308.792,291.319c.252,0,.5.009.752.027a11.088,11.088,0,0,0,0,22.126c-.25.016-.5.025-.752.025a11.089,11.089,0,0,1,0-22.177Z" transform="translate(-291.579 -285.194)" fill="#d1d1d6" fill-rule="evenodd"/>
        </g>
        <g id="Grupo_1210575" data-name="Grupo 1210575" transform="translate(45.377 44.802)">
          <circle id="Elipse_13449" data-name="Elipse 13449" cx="2.778" cy="2.778" r="2.778" fill="#8ac9fe"/>
          <path id="Trazado_1054062" data-name="Trazado 1054062" d="M348.291,333.72a2.778,2.778,0,1,1,0,5.514,2.778,2.778,0,0,0,0-5.514Z" transform="translate(-345.858 -333.699)" fill="#60b7ff" fill-rule="evenodd"/>
          <circle id="Elipse_13450" data-name="Elipse 13450" cx="2.505" cy="2.505" r="2.505" transform="translate(7.247 4.736)" fill="#6cf5c2"/>
          <path id="Trazado_1054063" data-name="Trazado 1054063" d="M396.9,366.736a2.531,2.531,0,0,1,.345-.024,2.5,2.5,0,1,1-.345,4.985,2.5,2.5,0,0,0,0-4.962Z" transform="translate(-387.498 -361.976)" fill="#00e499" fill-rule="evenodd"/>
        </g>
      </g>
      <path id="Trazado_1054064" data-name="Trazado 1054064" d="M41.89,48.5H42.5a2.206,2.206,0,0,1,2.206,2.206v2.673A2.206,2.206,0,0,1,42.5,55.585H25.038a2.206,2.206,0,0,1-2.206-2.206V50.706A2.206,2.206,0,0,1,25.038,48.5h.377V39.765a4.692,4.692,0,0,1,4.693-4.693H37.2a4.692,4.692,0,0,1,4.693,4.693Zm-14.18,0H32.5V44.39a1.148,1.148,0,1,1,2.3,0V48.5h4.795V39.765a2.4,2.4,0,0,0-2.4-2.4h-7.09a2.4,2.4,0,0,0-2.4,2.4Zm14.7,2.3H25.128V53.29H42.412Zm-3.226,8.892a1.148,1.148,0,1,1,0,2.3H16.146A9.14,9.14,0,0,1,8.23,48.273l17.5-30.318a9.137,9.137,0,0,1,15.832,0L56.388,43.621A1.148,1.148,0,0,1,54.4,44.769L39.579,19.1a6.842,6.842,0,0,0-11.856,0l-17.5,30.319a6.8,6.8,0,0,0,0,6.845h0a6.794,6.794,0,0,0,5.928,3.422ZM32.5,29.628a1.148,1.148,0,1,1,2.3,0v2.123a1.148,1.148,0,0,1-2.3,0ZM25.278,32.18a1.148,1.148,0,1,1,1.988-1.148l1.062,1.839a1.148,1.148,0,1,1-1.988,1.148ZM20.295,38a1.148,1.148,0,1,1,1.148-1.988l1.839,1.062a1.148,1.148,0,1,1-1.148,1.988Zm19.744-6.971a1.148,1.148,0,0,1,1.988,1.148l-1.062,1.839a1.148,1.148,0,0,1-1.988-1.148Zm5.823,4.983A1.148,1.148,0,0,1,47.01,38l-1.839,1.062a1.148,1.148,0,1,1-1.148-1.988Zm18.212,13a15.79,15.79,0,0,1,3.516,1.457l2.256-1a1.148,1.148,0,0,1,1.278.237L74.416,53a1.148,1.148,0,0,1,.238,1.276l-1,2.256a15.756,15.756,0,0,1,1.458,3.522l2.3.885a1.148,1.148,0,0,1,.735,1.071v4.658a1.147,1.147,0,0,1-.735,1.071l-2.3.886a15.922,15.922,0,0,1-1.458,3.516l1,2.257a1.148,1.148,0,0,1-.238,1.276l-3.293,3.293a1.148,1.148,0,0,1-1.276.238l-2.255-1a15.756,15.756,0,0,1-3.518,1.457l-.886,2.3a1.148,1.148,0,0,1-1.071.735H57.46a1.148,1.148,0,0,1-1.071-.735l-.885-2.3a15.888,15.888,0,0,1-3.52-1.458l-2.257,1a1.148,1.148,0,0,1-1.276-.238l-3.293-3.293A1.148,1.148,0,0,1,44.92,74.4l1-2.255a15.874,15.874,0,0,1-1.46-3.516l-2.3-.886a1.147,1.147,0,0,1-.735-1.071V62.013a1.148,1.148,0,0,1,.735-1.071l2.3-.886a15.884,15.884,0,0,1,1.46-3.52l-1-2.256A1.148,1.148,0,0,1,45.157,53L48.45,49.71a1.148,1.148,0,0,1,1.278-.237l2.256,1A15.792,15.792,0,0,1,55.5,49.019l.89-2.306a1.147,1.147,0,0,1,1.071-.734h4.658a1.147,1.147,0,0,1,1.071.736Zm-1.931,1.375-.815-2.12H58.248L57.429,50.4a1.148,1.148,0,0,1-.805.7,13.5,13.5,0,0,0-3.965,1.643,1.148,1.148,0,0,1-1.068.072l-2.075-.923-2.178,2.178.923,2.075a1.148,1.148,0,0,1-.072,1.068,13.616,13.616,0,0,0-1.648,3.972,1.147,1.147,0,0,1-.7.8L43.72,62.8v3.082l2.116.815a1.148,1.148,0,0,1,.7.8,13.587,13.587,0,0,0,1.647,3.966,1.147,1.147,0,0,1,.073,1.07l-.923,2.075,2.179,2.179,2.076-.92a1.147,1.147,0,0,1,1.064.071,13.6,13.6,0,0,0,3.971,1.644,1.148,1.148,0,0,1,.806.7l.815,2.116H61.33l.815-2.116a1.148,1.148,0,0,1,.806-.7,13.443,13.443,0,0,0,3.963-1.642,1.147,1.147,0,0,1,1.068-.073l2.076.92,2.18-2.18-.92-2.076a1.148,1.148,0,0,1,.071-1.064A13.625,13.625,0,0,0,73.033,67.5a1.147,1.147,0,0,1,.7-.806l2.116-.815V62.8l-2.116-.815a1.148,1.148,0,0,1-.7-.806,13.472,13.472,0,0,0-1.643-3.968,1.148,1.148,0,0,1-.072-1.067l.92-2.076-2.179-2.179-2.075.923a1.148,1.148,0,0,1-1.068-.072A13.5,13.5,0,0,0,62.95,51.1a1.148,1.148,0,0,1-.806-.7Zm-2.358,1.712A12.236,12.236,0,1,1,47.553,64.339,12.235,12.235,0,0,1,59.786,52.106Zm0,2.3a9.941,9.941,0,1,0,9.944,9.938A9.934,9.934,0,0,0,59.786,54.4Zm2.34,15.348a3.38,3.38,0,0,1,0-6.357V57.964a1.148,1.148,0,1,1,2.3,0v5.428a3.38,3.38,0,0,1,0,6.357v.966a1.148,1.148,0,1,1-2.3,0Zm1.148-4.262a1.083,1.083,0,1,0,1.083,1.083A1.084,1.084,0,0,0,63.274,65.487Zm-8.121-.2a3.38,3.38,0,0,1,0-6.357v-.966a1.148,1.148,0,0,1,2.3,0v.966a3.38,3.38,0,0,1,0,6.357v5.428a1.148,1.148,0,0,1-2.3,0ZM56.3,61.025a1.083,1.083,0,1,0,1.083,1.083A1.084,1.084,0,0,0,56.3,61.025Z" fill-rule="evenodd"/>
    </g>
  </g>
</svg>
