<svg xmlns="http://www.w3.org/2000/svg" xmlns:xlink="http://www.w3.org/1999/xlink" width="103" height="103" viewBox="0 0 103 103">
  <defs>
    <filter id="Trazado_904820" x="0" y="0" width="103" height="103" filterUnits="userSpaceOnUse">
      <feOffset dy="3" input="SourceAlpha"/>
      <feGaussianBlur stdDeviation="3" result="blur"/>
      <feFlood flood-opacity="0.161"/>
      <feComposite operator="in" in2="blur"/>
      <feComposite in="SourceGraphic"/>
    </filter>
  </defs>
  <g id="Grupo_1210610" data-name="Grupo 1210610" transform="translate(-503 -8240.227)">
    <g id="Grupo_1210200" data-name="Grupo 1210200" transform="translate(512 8246.227)">
      <g id="Grupo_1210088" data-name="Grupo 1210088" transform="translate(0 0)">
        <g id="Grupo_1209251" data-name="Grupo 1209251">
          <g id="Grupo_1202705" data-name="Grupo 1202705" transform="translate(0)">
            <g id="Grupo_1173585" data-name="Grupo 1173585">
              <g id="Grupo_1173428" data-name="Grupo 1173428">
                <g id="Grupo_1171958" data-name="Grupo 1171958">
                  <g id="Grupo_1167341" data-name="Grupo 1167341">
                    <g id="Grupo_1166792" data-name="Grupo 1166792">
                      <g transform="matrix(1, 0, 0, 1, -9, -6)" filter="url(#Trazado_904820)">
                        <g id="Trazado_904820-2" data-name="Trazado 904820" transform="translate(9 6)" fill="#fef9e7">
                          <path d="M 42.5 83.5 C 36.96437835693359 83.5 31.59512901306152 82.41617584228516 26.54141235351562 80.27863311767578 C 21.65934181213379 78.21368408203125 17.27448272705078 75.25722503662109 13.50862312316895 71.49137878417969 C 9.742776870727539 67.72551727294922 6.786305904388428 63.34066009521484 4.721364498138428 58.45857620239258 C 2.583823442459106 53.40485763549805 1.5 48.03562164306641 1.5 42.5 C 1.5 36.96437835693359 2.583823442459106 31.59512901306152 4.721364498138428 26.54141235351562 C 6.786305904388428 21.65934181213379 9.742776870727539 17.27447128295898 13.50862312316895 13.50862312316895 C 17.27448272705078 9.742764472961426 21.65934181213379 6.786305904388428 26.54141235351562 4.721364498138428 C 31.59512901306152 2.583823442459106 36.96437835693359 1.5 42.5 1.5 C 48.03562164306641 1.5 53.40486907958984 2.583823442459106 58.45858764648438 4.721364498138428 C 63.34066009521484 6.786305904388428 67.72553253173828 9.742764472961426 71.49137878417969 13.50862312316895 C 75.25723266601562 17.27447128295898 78.21369171142578 21.65934181213379 80.27863311767578 26.54141235351562 C 82.41617584228516 31.59512901306152 83.5 36.96437835693359 83.5 42.5 C 83.5 48.03562164306641 82.41617584228516 53.40485763549805 80.27863311767578 58.45857620239258 C 78.21369171142578 63.34066009521484 75.25723266601562 67.72551727294922 71.49137878417969 71.49137878417969 C 67.72553253173828 75.25722503662109 63.34066009521484 78.21368408203125 58.45858764648438 80.27863311767578 C 53.40486907958984 82.41617584228516 48.03562164306641 83.5 42.5 83.5 Z" stroke="none"/>
                          <path d="M 42.5 3 C 37.16621398925781 3 31.99356079101562 4.043960571289062 27.125732421875 6.102882385253906 C 22.42246627807617 8.092185974121094 18.19785308837891 10.94070434570312 14.56928253173828 14.56928253173828 C 10.94070434570312 18.19785308837891 8.092185974121094 22.42246627807617 6.102882385253906 27.125732421875 C 4.043960571289062 31.99356079101562 3 37.16621398925781 3 42.5 C 3 47.83378601074219 4.043960571289062 53.00642395019531 6.102882385253906 57.87425231933594 C 8.092185974121094 62.57753372192383 10.94070434570312 66.80213165283203 14.56928253173828 70.43070983886719 C 18.19786834716797 74.05929565429688 22.42246627807617 76.90779876708984 27.125732421875 78.89711761474609 C 31.99356079101562 80.95603942871094 37.16621398925781 82 42.5 82 C 47.83378601074219 82 53.00642395019531 80.95603942871094 57.87425231933594 78.89711761474609 C 62.57753372192383 76.90779876708984 66.80213165283203 74.05929565429688 70.43071746826172 70.43070983886719 C 74.05929565429688 66.80213165283203 76.90781402587891 62.57752227783203 78.89711761474609 57.87425231933594 C 80.95603942871094 53.00642395019531 82 47.83378601074219 82 42.5 C 82 37.16621398925781 80.95603942871094 31.99356079101562 78.89711761474609 27.125732421875 C 76.90781402587891 22.42246627807617 74.05929565429688 18.19786834716797 70.43071746826172 14.56928253173828 C 66.80213165283203 10.94070434570312 62.57753372192383 8.092185974121094 57.87425231933594 6.102882385253906 C 53.00643920898438 4.043960571289062 47.83378601074219 3 42.5 3 M 42.5 0 C 65.97209167480469 0 85 19.02789306640625 85 42.5 C 85 65.97207641601562 65.97209167480469 85 42.5 85 C 19.02789306640625 85 0 65.97207641601562 0 42.5 C 0 19.02789306640625 19.02789306640625 0 42.5 0 Z" stroke="none" fill="#887013"/>
                        </g>
                      </g>
                    </g>
                  </g>
                </g>
              </g>
            </g>
          </g>
        </g>
      </g>
    </g>
    <g id="operator_16773553" transform="translate(517.251 8232.649)">
      <g id="Grupo_1210609" data-name="Grupo 1210609" transform="translate(8.446 32.968)">
        <g id="Grupo_1210604" data-name="Grupo 1210604" transform="translate(7.973 0)">
          <g id="Grupo_1210603" data-name="Grupo 1210603">
            <g id="Grupo_1210594" data-name="Grupo 1210594">
              <path id="Trazado_1054080" data-name="Trazado 1054080" d="M134.995,41.644a1.621,1.621,0,0,0-1.621-1.621H88.337a1.621,1.621,0,0,0-1.621,1.621V70.818a1.621,1.621,0,0,0,1.621,1.621h45.037a1.621,1.621,0,0,0,1.621-1.621Z" transform="translate(-86.716 -40.023)" fill="#dbefff" fill-rule="evenodd"/>
              <path id="Trazado_1054081" data-name="Trazado 1054081" d="M466.592,72.438a1.621,1.621,0,0,0,1.621-1.621V41.644a1.621,1.621,0,0,0-1.621-1.621h1.772a1.621,1.621,0,0,1,1.621,1.621V70.818a1.621,1.621,0,0,1-1.621,1.621Z" transform="translate(-421.706 -40.023)" fill="#dbefff" fill-rule="evenodd"/>
            </g>
            <g id="Grupo_1210596" data-name="Grupo 1210596" transform="translate(24.139 5.62)">
              <g id="Grupo_1210595" data-name="Grupo 1210595">
                <circle id="Elipse_13451" data-name="Elipse 13451" cx="2.492" cy="2.492" r="2.492" transform="translate(0 0)" fill="#dbefff"/>
                <path id="Trazado_1054082" data-name="Trazado 1054082" d="M294.095,92.5a2.492,2.492,0,1,1,0-4.842,2.492,2.492,0,0,0,0,4.842Z" transform="translate(-291.012 -87.582)" fill="#dbefff" fill-rule="evenodd"/>
              </g>
            </g>
            <g id="Grupo_1210597" data-name="Grupo 1210597" transform="translate(32.012 22.284)">
              <circle id="Elipse_13452" data-name="Elipse 13452" cx="1.931" cy="1.931" r="1.931" transform="translate(0)" fill="#dbefff"/>
              <path id="Trazado_1054083" data-name="Trazado 1054083" d="M360.161,232.384a1.931,1.931,0,1,1,0-3.678,1.932,1.932,0,0,0,0,3.678Z" transform="translate(-357.639 -228.614)" fill="#dbefff" fill-rule="evenodd"/>
            </g>
            <g id="Grupo_1210598" data-name="Grupo 1210598" transform="translate(39.408 22.284)">
              <circle id="Elipse_13453" data-name="Elipse 13453" cx="1.931" cy="1.931" r="1.931" transform="translate(0)" fill="#dbefff"/>
              <path id="Trazado_1054084" data-name="Trazado 1054084" d="M422.76,232.384a1.931,1.931,0,1,1,0-3.678,1.932,1.932,0,0,0,0,3.678Z" transform="translate(-420.238 -228.614)" fill="#dbefff" fill-rule="evenodd"/>
            </g>
            <g id="Grupo_1210600" data-name="Grupo 1210600" transform="translate(32.125 5.62)">
              <g id="Grupo_1210599" data-name="Grupo 1210599">
                <circle id="Elipse_13454" data-name="Elipse 13454" cx="2.492" cy="2.492" r="2.492" transform="translate(0 0)" fill="#dbefff"/>
                <path id="Trazado_1054085" data-name="Trazado 1054085" d="M361.683,92.5a2.492,2.492,0,1,1,0-4.842,2.492,2.492,0,0,0,0,4.842Z" transform="translate(-358.6 -87.582)" fill="#dbefff" fill-rule="evenodd"/>
              </g>
            </g>
            <g id="Grupo_1210601" data-name="Grupo 1210601" transform="translate(40.444 6.723)">
              <path id="Trazado_1054086" data-name="Trazado 1054086" d="M432.277,96.917a.591.591,0,0,1,.591.591v2.681a.591.591,0,0,1-.591.591H429.6a.591.591,0,0,1-.591-.591V97.508a.591.591,0,0,1,.591-.591Z" transform="translate(-429.006 -96.917)" fill="#dbefff" fill-rule="evenodd"/>
              <path id="Trazado_1054087" data-name="Trazado 1054087" d="M430.778,100.779H429.6a.591.591,0,0,1-.591-.591V97.508a.591.591,0,0,1,.591-.591h1.182a.591.591,0,0,0-.591.591v2.681a.591.591,0,0,0,.591.591Z" transform="translate(-429.006 -96.917)" fill="#dbefff" fill-rule="evenodd"/>
            </g>
            <g id="Grupo_1210602" data-name="Grupo 1210602" transform="translate(40.444 14.071)">
              <path id="Trazado_1054088" data-name="Trazado 1054088" d="M432.277,159.113a.591.591,0,0,1,.591.591v2.681a.591.591,0,0,1-.591.591H429.6a.591.591,0,0,1-.591-.591V159.7a.591.591,0,0,1,.591-.591Z" transform="translate(-429.006 -159.113)" fill="#dbefff" fill-rule="evenodd"/>
              <path id="Trazado_1054089" data-name="Trazado 1054089" d="M430.778,162.975H429.6a.591.591,0,0,1-.591-.591V159.7a.591.591,0,0,1,.591-.591h1.182a.591.591,0,0,0-.591.591v2.681a.591.591,0,0,0,.591.591Z" transform="translate(-429.006 -159.113)" fill="#dbefff" fill-rule="evenodd"/>
            </g>
          </g>
        </g>
        <g id="Grupo_1210607" data-name="Grupo 1210607" transform="translate(0 12.736)">
          <g id="Grupo_1210605" data-name="Grupo 1210605" transform="translate(12.646)">
            <path id="Trazado_1054090" data-name="Trazado 1054090" d="M131.606,160.883c2.947,0,5.34-2.976,5.34-7.617s-2.28-5.453-5.227-5.453-5.452.812-5.452,5.453S128.659,160.883,131.606,160.883Z" transform="translate(-126.266 -147.813)" fill="#f6dccd" fill-rule="evenodd"/>
            <path id="Trazado_1054091" data-name="Trazado 1054091" d="M164.2,160.8c2.54-.52,4.482-3.349,4.482-7.53s-1.851-5.254-4.372-5.426c.281-.019.569-.027.861-.027,2.947,0,5.227.812,5.227,5.453s-2.393,7.617-5.34,7.617A4.273,4.273,0,0,1,164.2,160.8Z" transform="translate(-159.714 -147.813)" fill="#f1cbbc" fill-rule="evenodd"/>
          </g>
          <g id="Grupo_1210606" data-name="Grupo 1210606" transform="translate(0 10.298)">
            <path id="Trazado_1054092" data-name="Trazado 1054092" d="M28.335,242.739a4.283,4.283,0,0,1,3.025-1.254l10.984-.008a4.283,4.283,0,0,0,2.953-1.184l4.872-4.648a2.593,2.593,0,0,1,3.579.085h0a2.771,2.771,0,0,1-.091,4.006L44.4,248.616V261.99a.747.747,0,0,1-.747.747H30.359a.747.747,0,0,1-.747-.747V249.061l-5.787,5.787a2.687,2.687,0,0,1-3.8-3.8Z" transform="translate(-19.238 -234.969)" fill="#8ac9fe" fill-rule="evenodd"/>
            <path id="Trazado_1054093" data-name="Trazado 1054093" d="M222.2,235.078a2.593,2.593,0,0,1,2.581.65h0a2.771,2.771,0,0,1-.091,4.006l-9.261,8.882V261.99a.747.747,0,0,1-.747.747h-1.494a.747.747,0,0,0,.747-.747V248.616l9.261-8.882a2.771,2.771,0,0,0,.091-4.006h0A2.583,2.583,0,0,0,222.2,235.078Z" transform="translate(-190.267 -234.969)" fill="#60b7ff" fill-rule="evenodd"/>
          </g>
        </g>
        <g id="Grupo_1210608" data-name="Grupo 1210608" transform="translate(10.957 9.641)">
          <path id="Trazado_1054094" data-name="Trazado 1054094" d="M112.9,130.07h12.374a.77.77,0,1,0,0-1.535h-.167c.012-.143.019-.292.019-.441a5.656,5.656,0,0,0-4.178-5.317c.093-.877-1.077-1.157-1.857-1.157s-1.95.281-1.863,1.157a5.663,5.663,0,0,0-4.178,5.317c0,.149.006.3.019.441H112.9a.77.77,0,1,0,0,1.535Z" transform="translate(-112.062 -121.619)" fill="#ffe177" fill-rule="evenodd"/>
          <path id="Trazado_1054095" data-name="Trazado 1054095" d="M173.515,130.07h.873a.77.77,0,1,0,0-1.535h-.167c.012-.143.019-.292.019-.441a5.656,5.656,0,0,0-4.178-5.317c.093-.877-1.077-1.157-1.857-1.157a3.941,3.941,0,0,0-.439.029c.712.092,1.5.407,1.418,1.129a5.662,5.662,0,0,1,4.185,5.317c0,.149-.006.3-.019.441h.167a.77.77,0,1,1,0,1.535Z" transform="translate(-161.171 -121.619)" fill="#ffd064" fill-rule="evenodd"/>
          <path id="Trazado_1054096" data-name="Trazado 1054096" d="M112.811,179.953h12.374a.782.782,0,1,1,0,1.558H112.811a.782.782,0,1,1,0-1.558Z" transform="translate(-111.969 -173.06)" fill="#ffe177" fill-rule="evenodd"/>
          <path id="Trazado_1054097" data-name="Trazado 1054097" d="M112.811,179.953h12.374a.782.782,0,1,1,0,1.558h-.2a.818.818,0,0,0-.842-.751H111.969v-.029A.813.813,0,0,1,112.811,179.953Z" transform="translate(-111.969 -173.06)" fill="#ffd064" fill-rule="evenodd"/>
        </g>
      </g>
      <path id="Trazado_1054098" data-name="Trazado 1054098" d="M8.085,76.343a3.7,3.7,0,0,1,0-5.236l7.353-7.353V34.589A2.567,2.567,0,0,1,18,32.023H63.041a2.567,2.567,0,0,1,2.566,2.566V63.763a2.567,2.567,0,0,1-2.566,2.566H38.206l-3.5,3.353V83.771a.945.945,0,0,1-.945.945H18.592a.945.945,0,0,1-.945-.945V72.017l-4.325,4.325a3.7,3.7,0,0,1-5.236,0,.945.945,0,0,0,.668.277Zm9.243-14.365a5.341,5.341,0,0,1,3.057-.964l11.273-.009a3.451,3.451,0,0,0,2.379-.954l5-4.77.017-.015a3.607,3.607,0,0,1,4.977.118h0a3.789,3.789,0,0,1-.116,5.47l-3.738,3.585H63.041a.676.676,0,0,0,.676-.675V34.589a.676.676,0,0,0-.676-.676H18a.676.676,0,0,0-.675.676Zm25.366-5.257h0a1.716,1.716,0,0,0-2.361-.063l-4.991,4.762A5.341,5.341,0,0,1,31.659,62.9L20.386,62.9a3.45,3.45,0,0,0-2.437,1.011L9.421,72.443a1.812,1.812,0,0,0,0,2.563l0,0a1.812,1.812,0,0,0,2.56,0l5.939-5.939a.945.945,0,0,1,1.614.668v13.09H32.819V69.279a.946.946,0,0,1,.291-.682l9.5-9.115.017-.016a1.9,1.9,0,0,0,.063-2.745Zm7.632-2.414a2.876,2.876,0,1,1-2.876,2.876A2.878,2.878,0,0,1,50.326,54.307Zm0,1.891a.986.986,0,1,0,.986.986A.986.986,0,0,0,50.326,56.2Zm-30.363-4.35H19.1a.945.945,0,1,1,0-1.891h.007a7.34,7.34,0,0,1,4.489-6.3,1.93,1.93,0,0,1,.721-.975,3.986,3.986,0,0,1,4.251,0,1.921,1.921,0,0,1,.718.976,7.347,7.347,0,0,1,4.493,6.3h.007a.945.945,0,0,1,0,1.891h-.864c-.433,4.756-3.255,7.63-6.479,7.63S20.4,56.6,19.963,51.847Zm1.046-1.891H31.875a5.446,5.446,0,0,0-2.683-4.232l-.281,2.149a.949.949,0,0,1-1.882-.246l.433-3.311q0-.034,0-.068c0-.031-.026-.043-.048-.058a.94.94,0,0,0-.217-.105,2.428,2.428,0,0,0-1.518,0,.951.951,0,0,0-.218.106c-.021.014-.047.027-.052.052l0,.015.441,3.37a.949.949,0,0,1-1.882.246l-.282-2.152a5.443,5.443,0,0,0-2.683,4.235Zm10.013,1.891h-9.16c.364,3.478,2.2,5.74,4.58,5.74S30.658,55.325,31.022,51.847Zm26.7,2.459a2.876,2.876,0,1,1-2.876,2.876A2.878,2.878,0,0,1,57.722,54.307Zm0,1.891a.986.986,0,1,0,.986.986A.986.986,0,0,0,57.722,56.2Zm3.912-16.506v3.862a.945.945,0,0,1-.945.945H56.827a.945.945,0,0,1-.945-.945V39.691a.945.945,0,0,1,.945-.945h3.862A.945.945,0,0,1,61.635,39.691Zm-1.891.945H57.772v1.972h1.972Zm1.891,6.4V50.9a.945.945,0,0,1-.945.945H56.827a.945.945,0,0,1-.945-.945V47.04a.945.945,0,0,1,.945-.945h3.862A.945.945,0,0,1,61.635,47.04Zm-1.891.945H57.772v1.972h1.972Zm-9.689-3.6a3.437,3.437,0,1,1,1.891,0v5.822h.949a.945.945,0,1,1,0,1.891h-3.95a.945.945,0,0,1,0-1.891h1.11ZM51,39.533a1.547,1.547,0,1,0,1.547,1.547A1.547,1.547,0,0,0,51,39.533Zm-8.931,4.852a3.437,3.437,0,1,1,1.891,0v5.822h.949a.945.945,0,0,1,0,1.891h-3.95a.945.945,0,0,1,0-1.891h1.11Zm.945-4.852A1.547,1.547,0,1,0,44.56,41.08,1.547,1.547,0,0,0,43.014,39.533Z" fill-rule="evenodd"/>
    </g>
  </g>
</svg>
