<svg xmlns="http://www.w3.org/2000/svg" xmlns:xlink="http://www.w3.org/1999/xlink" width="103" height="103" viewBox="0 0 103 103">
  <defs>
    <filter id="Trazado_904820" x="0" y="0" width="103" height="103" filterUnits="userSpaceOnUse">
      <feOffset dy="3" input="SourceAlpha"/>
      <feGaussianBlur stdDeviation="3" result="blur"/>
      <feFlood flood-opacity="0.161"/>
      <feComposite operator="in" in2="blur"/>
      <feComposite in="SourceGraphic"/>
    </filter>
  </defs>
  <g id="Grupo_1210613" data-name="Grupo 1210613" transform="translate(-815 -8240.227)">
    <g id="Grupo_1210207" data-name="Grupo 1210207" transform="translate(0 7395.444)">
      <g id="Grupo_1210087" data-name="Grupo 1210087" transform="translate(824 850.783)">
        <g id="Grupo_1209250" data-name="Grupo 1209250">
          <g id="Grupo_1202705" data-name="Grupo 1202705" transform="translate(0)">
            <g id="Grupo_1173585" data-name="Grupo 1173585" transform="translate(0 0)">
              <g id="Grupo_1173428" data-name="Grupo 1173428">
                <g id="Grupo_1171958" data-name="Grupo 1171958">
                  <g id="Grupo_1167341" data-name="Grupo 1167341">
                    <g id="Grupo_1166792" data-name="Grupo 1166792">
                      <g transform="matrix(1, 0, 0, 1, -9, -6)" filter="url(#Trazado_904820)">
                        <g id="Trazado_904820-2" data-name="Trazado 904820" transform="translate(9 6)" fill="#fef9e7">
                          <path d="M 42.49999618530273 83.50002288818359 C 36.96437454223633 83.50002288818359 31.59512519836426 82.41619873046875 26.54140853881836 80.27865600585938 C 21.65933799743652 78.21370697021484 17.27447891235352 75.25724792480469 13.50861930847168 71.49138641357422 C 9.742773056030273 67.72554016113281 6.786302089691162 63.34067153930664 4.721360683441162 58.45859909057617 C 2.583819627761841 53.40488052368164 1.499996185302734 48.0356330871582 1.499996185302734 42.5000114440918 C 1.499996185302734 36.96438980102539 2.583819627761841 31.59514045715332 4.721360683441162 26.54142379760742 C 6.786302089691162 21.65933990478516 9.742773056030273 17.27448272705078 13.50861930847168 13.50862312316895 C 17.27447891235352 9.742775917053223 21.65933799743652 6.78630542755127 26.54140853881836 4.721364498138428 C 31.59512519836426 2.583823204040527 36.96437454223633 1.499999642372131 42.49999618530273 1.499999642372131 C 48.03561782836914 1.499999642372131 53.40486526489258 2.583823204040527 58.45858383178711 4.721364498138428 C 63.34065628051758 6.78630542755127 67.72551727294922 9.742775917053223 71.49137115478516 13.50862312316895 C 75.25721740722656 17.27448272705078 78.21369171142578 21.65933990478516 80.27863311767578 26.54142379760742 C 82.41617584228516 31.59514045715332 83.5 36.96438980102539 83.5 42.5000114440918 C 83.5 48.0356330871582 82.41617584228516 53.40488052368164 80.27863311767578 58.45859909057617 C 78.21369171142578 63.34067153930664 75.25721740722656 67.72554016113281 71.49137115478516 71.49138641357422 C 67.72551727294922 75.25724792480469 63.34065628051758 78.21370697021484 58.45858383178711 80.27865600585938 C 53.40486526489258 82.41619873046875 48.03561782836914 83.50002288818359 42.49999618530273 83.50002288818359 Z" stroke="none"/>
                          <path d="M 42.49999618530273 3 C 37.16621017456055 3 31.99356842041016 4.043960571289062 27.1257438659668 6.102874755859375 C 22.42246246337891 8.092201232910156 18.19786071777344 10.94070434570312 14.56927490234375 14.56929016113281 C 10.94070434570312 18.19786834716797 8.092185974121094 22.42246627807617 6.102874755859375 27.1257438659668 C 4.043952941894531 31.99357223510742 2.999992370605469 37.16622543334961 2.999992370605469 42.5000114440918 C 2.999992370605469 47.83379745483398 4.043952941894531 53.00645065307617 6.102874755859375 57.8742790222168 C 8.092185974121094 62.57754516601562 10.94070434570312 66.80214691162109 14.56927490234375 70.43073272705078 C 18.19786071777344 74.05931854248047 22.42246246337891 76.90782165527344 27.1257438659668 78.89714813232422 C 31.99356842041016 80.95606231689453 37.16621017456055 82.00002288818359 42.49999618530273 82.00002288818359 C 47.83378219604492 82.00002288818359 53.00642395019531 80.95606231689453 57.87425231933594 78.89714813232422 C 62.57752990722656 76.90782165527344 66.80213165283203 74.05931854248047 70.43071746826172 70.43073272705078 C 74.05928802490234 66.80214691162109 76.90780639648438 62.57754516601562 78.89711761474609 57.8742790222168 C 80.95603942871094 53.00645065307617 82 47.83379745483398 82 42.5000114440918 C 82 37.16622543334961 80.95603942871094 31.99357223510742 78.89711761474609 27.1257438659668 C 76.90780639648438 22.42246627807617 74.05928802490234 18.19786834716797 70.43071746826172 14.56929016113281 C 66.80213165283203 10.94070434570312 62.57752990722656 8.092201232910156 57.87425231933594 6.102874755859375 C 53.00642395019531 4.043960571289062 47.83378219604492 3 42.49999618530273 3 M 42.49999618530273 0 C 65.97209167480469 0 85 19.02790832519531 85 42.5000114440918 C 85 65.97210693359375 65.97209167480469 85.00002288818359 42.49999618530273 85.00002288818359 C 19.02790069580078 85.00002288818359 -7.62939453125e-06 65.97210693359375 -7.62939453125e-06 42.5000114440918 C -7.62939453125e-06 19.02790832519531 19.02790069580078 0 42.49999618530273 0 Z" stroke="none" fill="#887013"/>
                        </g>
                      </g>
                    </g>
                  </g>
                </g>
              </g>
            </g>
          </g>
        </g>
      </g>
    </g>
    <g id="interview_2726519" transform="translate(839 8260.5)">
      <path id="Trazado_1054099" data-name="Trazado 1054099" d="M15.677,35.952h.855A2.564,2.564,0,0,0,19.1,33.387V21.419A3.42,3.42,0,0,0,15.677,18H5.419A3.42,3.42,0,0,0,2,21.419V33.387a2.564,2.564,0,0,0,2.565,2.565H15.677Z" transform="translate(-0.145 -2.468)" fill="#f5b95b"/>
      <path id="Trazado_1054100" data-name="Trazado 1054100" d="M2,35v.855a2.564,2.564,0,0,0,2.565,2.565h.855V35Z" transform="translate(-0.145 -4.935)" fill="#efbe9c"/>
      <path id="Trazado_1054101" data-name="Trazado 1054101" d="M18,38.419h.855a2.564,2.564,0,0,0,2.565-2.565V35H18Z" transform="translate(-2.468 -4.935)" fill="#efbe9c"/>
      <path id="Trazado_1054102" data-name="Trazado 1054102" d="M6,35H16.258V54.661H6Z" transform="translate(-0.726 -4.935)" fill="#ac876d"/>
      <path id="Trazado_1054103" data-name="Trazado 1054103" d="M12,58h5.129a1.709,1.709,0,0,1,1.71,1.71v1.71H12Z" transform="translate(-1.597 -8.274)" fill="#88929f"/>
      <path id="Trazado_1054104" data-name="Trazado 1054104" d="M10.839,58H5.71A1.709,1.709,0,0,0,4,59.71v1.71h6.839Z" transform="translate(-0.435 -8.274)" fill="#88929f"/>
      <path id="Trazado_1054105" data-name="Trazado 1054105" d="M34,46H48.532V59.677H34Z" transform="translate(-4.79 -6.532)" fill="#976949"/>
      <path id="Trazado_1054106" data-name="Trazado 1054106" d="M43.387,14.548V7.71A1.709,1.709,0,0,0,41.677,6H29.71A1.709,1.709,0,0,0,28,7.71v6.839a1.709,1.709,0,0,0,1.71,1.71h5.129L37.4,18.823V16.258h4.274A1.709,1.709,0,0,0,43.387,14.548Z" transform="translate(-3.919 -0.726)" fill="#3c98f4"/>
      <path id="Trazado_1054107" data-name="Trazado 1054107" d="M29.71,14.548c5.645,0,10.3-3.726,11.008-8.548H29.71A1.709,1.709,0,0,0,28,7.71v6.71A12.494,12.494,0,0,0,29.71,14.548Z" transform="translate(-3.919 -0.726)" fill="#63adf6"/>
      <path id="Trazado_1054108" data-name="Trazado 1054108" d="M15.548,9.71v2.565a4.274,4.274,0,1,1-8.548,0V9.71h3.419L12.129,8l1.71,1.71Z" transform="translate(-0.871 -1.016)" fill="#efbe9c"/>
      <path id="Trazado_1054109" data-name="Trazado 1054109" d="M6.565,12.565V10H5.71a1.71,1.71,0,0,0,0,3.419h.941A4.264,4.264,0,0,1,6.565,12.565Z" transform="translate(-0.435 -1.306)" fill="#efbe9c"/>
      <path id="Trazado_1054110" data-name="Trazado 1054110" d="M10.984,2A5.984,5.984,0,0,0,5,7.984V9.076a1.7,1.7,0,0,1,.855-.237h4.274l1.71-1.71,1.71,1.71h2.565a1.7,1.7,0,0,1,.855.237V7.984A5.984,5.984,0,0,0,10.984,2Z" transform="translate(-0.581 -0.145)" fill="#976949"/>
      <g id="Grupo_1210611" data-name="Grupo 1210611" transform="translate(7.839 8.694)">
        <path id="Trazado_1054111" data-name="Trazado 1054111" d="M17.84,10h-.855v2.565a4.264,4.264,0,0,1-.086.855h.941a1.71,1.71,0,1,0,0-3.419Z" transform="translate(-10.147 -10)" fill="#efbe9c"/>
        <path id="Trazado_1054112" data-name="Trazado 1054112" d="M9,18v.855a2.565,2.565,0,0,0,5.129,0V18Z" transform="translate(-9 -11.161)" fill="#efbe9c"/>
        <path id="Trazado_1054113" data-name="Trazado 1054113" d="M60.178,24.492a4.307,4.307,0,0,0,.08-.8V16H50a3.4,3.4,0,0,0,1.71,2.945v4.749a4.274,4.274,0,0,0,8.463.846" transform="translate(-14.952 -10.871)" fill="#efbe9c"/>
      </g>
      <path id="Trazado_1054114" data-name="Trazado 1054114" d="M50.548,43.968V35.419A3.42,3.42,0,0,1,53.968,32H59.1V45.677a1.709,1.709,0,0,1-1.71,1.71H48.839l-2.565,6.839H42l3.566-8.841a2.565,2.565,0,0,1,2.294-1.417Z" transform="translate(-5.952 -4.5)" fill="#4d5d79"/>
      <path id="Trazado_1054115" data-name="Trazado 1054115" d="M58.839,49.71H52v3.419h8.548V48A1.709,1.709,0,0,1,58.839,49.71Z" transform="translate(-7.403 -6.823)" fill="#ac876d"/>
      <path id="Trazado_1054116" data-name="Trazado 1054116" d="M49,44.548h7.694V37.71a1.71,1.71,0,1,0-3.419,0v3.419H50.71A1.709,1.709,0,0,0,49,42.839Z" transform="translate(-6.968 -5.081)" fill="#88929f"/>
      <path id="Trazado_1054117" data-name="Trazado 1054117" d="M48.242,42H32v3.419H46.532V43.71A1.709,1.709,0,0,1,48.242,42Z" transform="translate(-4.5 -5.952)" fill="#ac876d"/>
      <path id="Trazado_1054118" data-name="Trazado 1054118" d="M40.71,58h5.129v3.419H39V59.71A1.709,1.709,0,0,1,40.71,58Z" transform="translate(-5.516 -8.274)" fill="#88929f"/>
      <path id="Trazado_1054119" data-name="Trazado 1054119" d="M55,54h3.419v7.694H55Z" transform="translate(-7.839 -7.694)" fill="#976949"/>
      <path id="Trazado_1054120" data-name="Trazado 1054120" d="M34.565,40.4,32,31h3.419l1.71,5.984h5.129a1.709,1.709,0,0,1,1.71,1.71V40.4Z" transform="translate(-4.5 -4.355)" fill="#88929f"/>
      <path id="Trazado_1054121" data-name="Trazado 1054121" d="M60.173,24.54a3.419,3.419,0,0,1-3.334-3.419v-1.71H53.419A3.42,3.42,0,0,1,50,15.992H60.258v7.694a4.276,4.276,0,0,1-.087.862Z" transform="translate(-7.113 -2.176)" fill="#976949"/>
      <g id="Grupo_1210612" data-name="Grupo 1210612" transform="translate(1 1)">
        <path id="Trazado_1054122" data-name="Trazado 1054122" d="M17.242,54a.855.855,0,0,0,.855-.855v-1.71a2.561,2.561,0,0,0-1.71-2.407V34.339a3.423,3.423,0,0,0,3.419-3.419V18.952a4.279,4.279,0,0,0-4.274-4.274H14.216a5.108,5.108,0,0,0,1.017-1.71h.3a2.555,2.555,0,0,0,1.71-4.462V7.839a6.839,6.839,0,1,0-13.677,0v.667a2.555,2.555,0,0,0,1.71,4.462h.3a5.136,5.136,0,0,0,1.017,1.71H5.274A4.279,4.279,0,0,0,1,18.952V30.919a3.423,3.423,0,0,0,3.419,3.419v14.69a2.561,2.561,0,0,0-1.71,2.407v1.71A.855.855,0,0,0,3.565,54ZM12.113,16.387a1.71,1.71,0,0,1-3.419,0Zm3.419-5.129V9.548a.855.855,0,0,1,0,1.71ZM4.419,10.4a.856.856,0,0,1,.855-.855v1.71A.856.856,0,0,1,4.419,10.4Zm.855-2.565a5.129,5.129,0,0,1,10.258,0H13.322L11.862,6.38a.854.854,0,0,0-1.209,0L9.194,7.839H5.274Zm1.71,3.419V9.548H9.548a.853.853,0,0,0,.6-.25l1.105-1.105L12.363,9.3a.853.853,0,0,0,.6.25h.855v1.71a3.419,3.419,0,0,1-6.839,0Zm-1.71,5.129h1.71a3.419,3.419,0,1,0,6.839,0h1.71A2.568,2.568,0,0,1,18.1,18.952V29.21h-1.71v-9.4h-1.71v9.4H6.129v-9.4H4.419v9.4H2.71V18.952A2.568,2.568,0,0,1,5.274,16.387ZM2.71,30.919h1.71v1.71A1.711,1.711,0,0,1,2.71,30.919ZM9.548,52.29H4.419v-.855a.856.856,0,0,1,.855-.855H9.548Zm0-17.952V48.871H6.129V30.919h8.548V48.871H11.258V34.339ZM16.387,52.29H11.258v-1.71h4.274a.856.856,0,0,1,.855.855Zm0-19.661v-1.71H18.1A1.711,1.711,0,0,1,16.387,32.629Z" transform="translate(-1 -1)"/>
        <path id="Trazado_1054123" data-name="Trazado 1054123" d="M60.968,23.548V15.855A.855.855,0,0,0,60.113,15H49.855a.855.855,0,0,0-.855.855,4.272,4.272,0,0,0,1.71,3.418v4.276a5.129,5.129,0,0,0,10.258,0Zm-5.129,3.419a3.423,3.423,0,0,1-3.419-3.419V20.043a4.27,4.27,0,0,0,.855.086h2.565v.855a4.282,4.282,0,0,0,3.056,4.1A3.422,3.422,0,0,1,55.839,26.968ZM59.258,23.4a2.569,2.569,0,0,1-1.71-2.418v-1.71a.855.855,0,0,0-.855-.855H53.274a2.569,2.569,0,0,1-2.418-1.71h8.4Z" transform="translate(-7.968 -3.032)"/>
        <path id="Trazado_1054124" data-name="Trazado 1054124" d="M48.1,35.129V39.4H44.677v-.855a2.568,2.568,0,0,0-2.565-2.565H37.628L36.1,30.62a.854.854,0,0,0-.821-.62H31.855a.855.855,0,0,0-.825,1.08L33.3,39.4H31.855a.855.855,0,0,0-.855.855v3.419a.855.855,0,0,0,.855.855h.855V58.21h1.71V44.532h8.9c-.048.08-.1.157-.142.243l-3.349,8.306h-.278a2.568,2.568,0,0,0-2.565,2.565v1.71a.855.855,0,0,0,.855.855h6.839a.855.855,0,0,0,.855-.855V54.091l2.3-6.139H48.1v2.565a.855.855,0,0,0,.855.855h1.71V58.21h1.71V51.371h1.71V58.21h1.71V51.371H57.5a.855.855,0,0,0,.855-.855V31.71a.855.855,0,0,0-.855-.855H52.371A4.279,4.279,0,0,0,48.1,35.129Zm0,6.839a.856.856,0,0,1,.855-.855h2.565a.855.855,0,0,0,.855-.855V36.839a.855.855,0,0,1,1.71,0v5.984H48.1ZM32.974,31.71H34.63l1.533,5.364a.854.854,0,0,0,.821.62h5.129a.856.856,0,0,1,.855.855V39.4h-7.9Zm-.264,9.4H46.544a2.536,2.536,0,0,0-.157.855v.855H32.71ZM43.823,56.5H38.694v-.855a.856.856,0,0,1,.855-.855h4.274Zm5.984-6.839v-1.71H55.79a2.536,2.536,0,0,0,.855-.157v1.867Zm6.839-17.1V45.387a.856.856,0,0,1-.855.855H47.242a.856.856,0,0,0-.8.555l-2.356,6.284H41.669l3.064-7.6a1.7,1.7,0,0,1,1.529-.945h8.673a.855.855,0,0,0,.855-.855V36.839a2.565,2.565,0,1,0-5.129,0V39.4h-.855V35.129a2.568,2.568,0,0,1,2.565-2.565Z" transform="translate(-5.355 -5.21)"/>
        <path id="Trazado_1054125" data-name="Trazado 1054125" d="M36.654,19.282a.855.855,0,0,0,1.459-.6v-1.71h3.419A2.568,2.568,0,0,0,44.1,14.4V7.565A2.568,2.568,0,0,0,41.532,5H29.565A2.568,2.568,0,0,0,27,7.565V14.4a2.568,2.568,0,0,0,2.565,2.565H34.34ZM28.71,14.4V7.565a.856.856,0,0,1,.855-.855H41.532a.856.856,0,0,1,.855.855V14.4a.856.856,0,0,1-.855.855H37.258a.855.855,0,0,0-.855.855v.5L35.3,15.509a.853.853,0,0,0-.6-.25H29.565a.856.856,0,0,1-.855-.855Z" transform="translate(-4.774 -1.581)"/>
        <path id="Trazado_1054126" data-name="Trazado 1054126" d="M31,9H41.258v1.71H31Z" transform="translate(-5.355 -2.161)"/>
        <path id="Trazado_1054127" data-name="Trazado 1054127" d="M31,13H41.258v1.71H31Z" transform="translate(-5.355 -2.742)"/>
      </g>
    </g>
  </g>
</svg>
