<svg xmlns="http://www.w3.org/2000/svg" xmlns:xlink="http://www.w3.org/1999/xlink" width="103" height="103" viewBox="0 0 103 103">
  <defs>
    <filter id="Trazado_904820" x="0" y="0" width="103" height="103" filterUnits="userSpaceOnUse">
      <feOffset dy="3" input="SourceAlpha"/>
      <feGaussianBlur stdDeviation="3" result="blur"/>
      <feFlood flood-opacity="0.161"/>
      <feComposite operator="in" in2="blur"/>
      <feComposite in="SourceGraphic"/>
    </filter>
  </defs>
  <g id="Grupo_1210615" data-name="Grupo 1210615" transform="translate(-1133 -8244.227)">
    <g id="Grupo_1210206" data-name="Grupo 1210206" transform="translate(0 7399.444)">
      <g id="Grupo_1210089" data-name="Grupo 1210089" transform="translate(3 -1506.217)">
        <g id="Grupo_1209252" data-name="Grupo 1209252" transform="translate(930 1589)">
          <g id="Grupo_1202705" data-name="Grupo 1202705" transform="translate(209 768)">
            <g id="Grupo_1173585" data-name="Grupo 1173585" transform="translate(0 0)">
              <g id="Grupo_1173428" data-name="Grupo 1173428">
                <g id="Grupo_1171958" data-name="Grupo 1171958">
                  <g id="Grupo_1167341" data-name="Grupo 1167341">
                    <g id="Grupo_1166792" data-name="Grupo 1166792">
                      <g transform="matrix(1, 0, 0, 1, -9, -6)" filter="url(#Trazado_904820)">
                        <g id="Trazado_904820-2" data-name="Trazado 904820" transform="translate(9 6)" fill="#fef9e7">
                          <path d="M 42.49999618530273 83.50002288818359 C 36.96437454223633 83.50002288818359 31.59512519836426 82.41619873046875 26.54140853881836 80.27865600585938 C 21.65933799743652 78.21370697021484 17.27447891235352 75.25724792480469 13.50861930847168 71.49138641357422 C 9.742773056030273 67.72554016113281 6.786302089691162 63.34067153930664 4.721360683441162 58.45859909057617 C 2.583819627761841 53.40488052368164 1.499996185302734 48.0356330871582 1.499996185302734 42.5000114440918 C 1.499996185302734 36.96438980102539 2.583819627761841 31.59514045715332 4.721360683441162 26.54142379760742 C 6.786302089691162 21.65933990478516 9.742773056030273 17.27448272705078 13.50861930847168 13.50862312316895 C 17.27447891235352 9.742775917053223 21.65933799743652 6.78630542755127 26.54140853881836 4.721364498138428 C 31.59512519836426 2.583823204040527 36.96437454223633 1.499999642372131 42.49999618530273 1.499999642372131 C 48.03561782836914 1.499999642372131 53.40486526489258 2.583823204040527 58.45858383178711 4.721364498138428 C 63.34065628051758 6.78630542755127 67.72551727294922 9.742775917053223 71.49137115478516 13.50862312316895 C 75.25721740722656 17.27448272705078 78.21369171142578 21.65933990478516 80.27863311767578 26.54142379760742 C 82.41617584228516 31.59514045715332 83.5 36.96438980102539 83.5 42.5000114440918 C 83.5 48.0356330871582 82.41617584228516 53.40488052368164 80.27863311767578 58.45859909057617 C 78.21369171142578 63.34067153930664 75.25721740722656 67.72554016113281 71.49137115478516 71.49138641357422 C 67.72551727294922 75.25724792480469 63.34065628051758 78.21370697021484 58.45858383178711 80.27865600585938 C 53.40486526489258 82.41619873046875 48.03561782836914 83.50002288818359 42.49999618530273 83.50002288818359 Z" stroke="none"/>
                          <path d="M 42.49999618530273 3 C 37.16621017456055 3 31.99356842041016 4.043960571289062 27.1257438659668 6.102874755859375 C 22.42246246337891 8.092201232910156 18.19786071777344 10.94070434570312 14.56927490234375 14.56929016113281 C 10.94070434570312 18.19786834716797 8.092185974121094 22.42246627807617 6.102874755859375 27.1257438659668 C 4.043952941894531 31.99357223510742 2.999992370605469 37.16622543334961 2.999992370605469 42.5000114440918 C 2.999992370605469 47.83379745483398 4.043952941894531 53.00645065307617 6.102874755859375 57.8742790222168 C 8.092185974121094 62.57754516601562 10.94070434570312 66.80214691162109 14.56927490234375 70.43073272705078 C 18.19786071777344 74.05931854248047 22.42246246337891 76.90782165527344 27.1257438659668 78.89714813232422 C 31.99356842041016 80.95606231689453 37.16621017456055 82.00002288818359 42.49999618530273 82.00002288818359 C 47.83378219604492 82.00002288818359 53.00642395019531 80.95606231689453 57.87425231933594 78.89714813232422 C 62.57752990722656 76.90782165527344 66.80213165283203 74.05931854248047 70.43071746826172 70.43073272705078 C 74.05928802490234 66.80214691162109 76.90780639648438 62.57754516601562 78.89711761474609 57.8742790222168 C 80.95603942871094 53.00645065307617 82 47.83379745483398 82 42.5000114440918 C 82 37.16622543334961 80.95603942871094 31.99357223510742 78.89711761474609 27.1257438659668 C 76.90780639648438 22.42246627807617 74.05928802490234 18.19786834716797 70.43071746826172 14.56929016113281 C 66.80213165283203 10.94070434570312 62.57752990722656 8.092201232910156 57.87425231933594 6.102874755859375 C 53.00642395019531 4.043960571289062 47.83378219604492 3 42.49999618530273 3 M 42.49999618530273 0 C 65.97209167480469 0 85 19.02790832519531 85 42.5000114440918 C 85 65.97210693359375 65.97209167480469 85.00002288818359 42.49999618530273 85.00002288818359 C 19.02790069580078 85.00002288818359 -7.62939453125e-06 65.97210693359375 -7.62939453125e-06 42.5000114440918 C -7.62939453125e-06 19.02790832519531 19.02790069580078 0 42.49999618530273 0 Z" stroke="none" fill="#887013"/>
                        </g>
                      </g>
                    </g>
                  </g>
                </g>
              </g>
            </g>
          </g>
        </g>
      </g>
    </g>
    <g id="opinion_1642394" transform="translate(1157.835 8266.562)">
      <path id="Trazado_1054128" data-name="Trazado 1054128" d="M182.914,362.965,178.466,360h-5.233l-4.448,2.965a1.713,1.713,0,0,0-.785,1.483v7.762h15.7v-7.762a1.713,1.713,0,0,0-.785-1.483Zm0,0" transform="translate(-149.685 -320.752)" fill="#3a6289"/>
      <path id="Trazado_1054129" data-name="Trazado 1054129" d="M232,408h1.744v6.977H232Zm0,0" transform="translate(-206.707 -363.519)" fill="#2b4a66"/>
      <path id="Trazado_1054130" data-name="Trazado 1054130" d="M192,424h1.744v5.233H192Zm0,0" transform="translate(-171.068 -377.775)" fill="#2b4a66"/>
      <path id="Trazado_1054131" data-name="Trazado 1054131" d="M272,424h1.744v5.233H272Zm0,0" transform="translate(-242.347 -377.775)" fill="#2b4a66"/>
      <path id="Trazado_1054132" data-name="Trazado 1054132" d="M28.06,8H9.744A1.749,1.749,0,0,0,8,9.744V24.571a1.749,1.749,0,0,0,1.744,1.744H24.4a1.648,1.648,0,0,1,1.57.959l2.093,4.274H29.8V9.744A1.749,1.749,0,0,0,28.06,8Zm0,0" transform="translate(-7.128 -7.128)" fill="#ddad6f"/>
      <path id="Trazado_1054133" data-name="Trazado 1054133" d="M315.489,277.058v15a1.749,1.749,0,0,0,1.744,1.744H327.7a1.749,1.749,0,0,0,1.744-1.744V273.744A1.749,1.749,0,0,0,327.7,272H312v.872l2.965,2.965a1.722,1.722,0,0,1,.523,1.221Zm0,0" transform="translate(-277.986 -242.346)" fill="#ddad6f"/>
      <path id="Trazado_1054134" data-name="Trazado 1054134" d="M20.21,277.8H9.744A1.749,1.749,0,0,1,8,276.06V257.744A1.749,1.749,0,0,1,9.744,256H26.316v.872l-3.925,4.71a1.839,1.839,0,0,0-.436,1.134V276.06A1.749,1.749,0,0,1,20.21,277.8Zm0,0" transform="translate(-7.128 -228.091)" fill="#5da364"/>
      <path id="Trazado_1054135" data-name="Trazado 1054135" d="M293.8,25.744V40.571a1.749,1.749,0,0,1-1.744,1.744h-14.74a1.688,1.688,0,0,0-1.483.872l-2.093,3.489H272V25.744A1.749,1.749,0,0,1,273.745,24H292.06A1.749,1.749,0,0,1,293.8,25.744Zm0,0" transform="translate(-242.347 -21.384)" fill="#5da364"/>
      <g id="Grupo_1210614" data-name="Grupo 1210614" transform="translate(3.488 31.398)">
        <path id="Trazado_1054136" data-name="Trazado 1054136" d="M32,288h1.744v1.744H32Zm0,0" transform="translate(-32 -288)" fill="#538457"/>
        <path id="Trazado_1054137" data-name="Trazado 1054137" d="M32,328h1.744v1.744H32Zm0,0" transform="translate(-32 -323.639)" fill="#538457"/>
        <path id="Trazado_1054138" data-name="Trazado 1054138" d="M32,368h1.744v1.744H32Zm0,0" transform="translate(-32 -359.278)" fill="#538457"/>
        <path id="Trazado_1054139" data-name="Trazado 1054139" d="M32,408h1.744v1.744H32Zm0,0" transform="translate(-32 -394.917)" fill="#538457"/>
      </g>
      <path id="Trazado_1054140" data-name="Trazado 1054140" d="M368,304h8.722v1.744H368Zm0,0" transform="translate(-327.88 -270.858)" fill="#f7d289"/>
      <path id="Trazado_1054141" data-name="Trazado 1054141" d="M368,344h8.722v1.744H368Zm0,0" transform="translate(-327.88 -306.497)" fill="#f7d289"/>
      <path id="Trazado_1054142" data-name="Trazado 1054142" d="M368,384h8.722v1.744H368Zm0,0" transform="translate(-327.88 -342.136)" fill="#f7d289"/>
      <path id="Trazado_1054143" data-name="Trazado 1054143" d="M368,424h8.722v1.744H368Zm0,0" transform="translate(-327.88 -377.775)" fill="#f7d289"/>
      <path id="Trazado_1054144" data-name="Trazado 1054144" d="M304,80h4.361v8.722H304Zm0,0" transform="translate(-270.858 -71.278)" fill="#4a4a56"/>
      <path id="Trazado_1054145" data-name="Trazado 1054145" d="M352.722,59.489h-1.744l.349-1.308a1.671,1.671,0,0,0-1.308-2.093.653.653,0,0,0-.436-.087h-.174a1.648,1.648,0,0,0-1.57.959l-1.221,2.529H344v6.105l2.617,1.744h6.105a1.749,1.749,0,0,0,1.744-1.744V61.233A1.749,1.749,0,0,0,352.722,59.489Zm0,0" transform="translate(-306.497 -49.895)" fill="#efccbf"/>
      <path id="Trazado_1054146" data-name="Trazado 1054146" d="M40,48h4.361v8.722H40Zm0,0" transform="translate(-35.639 -42.767)" fill="#4a4a56"/>
      <path id="Trazado_1054147" data-name="Trazado 1054147" d="M88.722,48H82.617L80,49.744V55.85h2.617l1.221,2.529a1.648,1.648,0,0,0,1.57.959h.174a1.749,1.749,0,0,0,1.744-1.744.786.786,0,0,0-.087-.436l-.261-1.308h1.744a1.749,1.749,0,0,0,1.744-1.744V49.744A1.749,1.749,0,0,0,88.722,48Zm0,0" transform="translate(-71.279 -42.767)" fill="#efccbf"/>
      <path id="Trazado_1054148" data-name="Trazado 1054148" d="M64,288h5.233v1.744H64Zm0,0" transform="translate(-57.023 -256.602)" fill="#538457"/>
      <path id="Trazado_1054149" data-name="Trazado 1054149" d="M64,328h5.233v1.744H64Zm0,0" transform="translate(-57.023 -292.241)" fill="#538457"/>
      <path id="Trazado_1054150" data-name="Trazado 1054150" d="M64,368h5.233v1.744H64Zm0,0" transform="translate(-57.023 -327.88)" fill="#538457"/>
      <path id="Trazado_1054151" data-name="Trazado 1054151" d="M64,408h5.233v1.744H64Zm0,0" transform="translate(-57.023 -363.519)" fill="#538457"/>
      <path id="Trazado_1054152" data-name="Trazado 1054152" d="M192,361.744l5.233,4.361,5.233-4.361L199.85,360h-5.233Zm0,0" transform="translate(-171.068 -320.752)" fill="#4282b7"/>
      <path id="Trazado_1054153" data-name="Trazado 1054153" d="M201.133,288.547l-.261-.174A1.8,1.8,0,0,1,200,286.89v-5.146A1.749,1.749,0,0,1,201.744,280h6.977v6.89a1.688,1.688,0,0,1-.872,1.483l-.349.174a5.99,5.99,0,0,1-6.367,0Zm0,0" transform="translate(-178.196 -249.474)" fill="#efccbf"/>
      <path id="Trazado_1054154" data-name="Trazado 1054154" d="M200,283.489h8.722V280h-6.977A1.749,1.749,0,0,0,200,281.744Zm0,0" transform="translate(-178.196 -249.474)" fill="#704d4d"/>
      <path id="Trazado_1054155" data-name="Trazado 1054155" d="M176.31,283.862l-3.227-2.18a2.473,2.473,0,0,0,.872-1.919V272h-7.85a2.57,2.57,0,0,0-2.617,2.617v5.146a2.5,2.5,0,0,0,.872,1.919l-3.227,2.18a2.728,2.728,0,0,0-1.134,2.18v8.634h17.443v-8.634A2.608,2.608,0,0,0,176.31,283.862Zm-7.588,2.7-3.75-3.14,1.134-.785a7.024,7.024,0,0,0,5.32,0l1.134.785Zm-3.489-11.949a.824.824,0,0,1,.872-.872h6.105v6.018a.916.916,0,0,1-.436.785l-.349.175a5.2,5.2,0,0,1-5.495,0l-.349-.175a.916.916,0,0,1-.436-.785v-5.146Zm-3.489,11.426a1.078,1.078,0,0,1,.349-.7l1.308-.872,4.448,3.663v4.8h-2.617v-4.361h-1.744v4.361h-1.744Zm13.955,6.89h-1.744v-4.361h-1.744v4.361h-2.617v-4.8l4.448-3.663,1.308.872a.794.794,0,0,1,.349.7Zm0,0" transform="translate(-142.557 -242.346)"/>
      <path id="Trazado_1054156" data-name="Trazado 1054156" d="M2.616,20.06H17.268a.839.839,0,0,1,.785.523l2.355,4.71h3.14V2.616A2.57,2.57,0,0,0,20.932,0H2.616A2.57,2.57,0,0,0,0,2.616V17.443A2.57,2.57,0,0,0,2.616,20.06ZM1.744,2.617a.824.824,0,0,1,.872-.872H20.932a.824.824,0,0,1,.872.872V23.549h-.349L19.536,19.8a2.627,2.627,0,0,0-2.355-1.483H2.616a.824.824,0,0,1-.872-.872Zm0,0"/>
      <path id="Trazado_1054157" data-name="Trazado 1054157" d="M320.571,264H304v2.093l3.227,3.227a.792.792,0,0,1,.261.61v15a2.57,2.57,0,0,0,2.617,2.617h10.466a2.57,2.57,0,0,0,2.617-2.617V266.617A2.57,2.57,0,0,0,320.571,264Zm.872,20.932a.824.824,0,0,1-.872.872H310.105a.824.824,0,0,1-.872-.872v-15a2.375,2.375,0,0,0-.785-1.831l-2.355-2.355h14.478a.824.824,0,0,1,.872.872Zm0,0" transform="translate(-270.858 -235.218)"/>
      <path id="Trazado_1054158" data-name="Trazado 1054158" d="M20.06,248H2.617A2.57,2.57,0,0,0,0,250.617v18.316a2.57,2.57,0,0,0,2.617,2.617H13.083a2.57,2.57,0,0,0,2.617-2.617V255.588a.934.934,0,0,1,.175-.523l4.186-4.972Zm-5.495,5.931a2.3,2.3,0,0,0-.611,1.657v13.344a.824.824,0,0,1-.872.872H2.617a.824.824,0,0,1-.872-.872V250.616a.824.824,0,0,1,.872-.872H18.054Zm0,0" transform="translate(0 -220.963)"/>
      <path id="Trazado_1054159" data-name="Trazado 1054159" d="M284.932,16H266.617A2.57,2.57,0,0,0,264,18.617v21.8h3.14l2.355-3.925a.917.917,0,0,1,.785-.436h14.652a2.57,2.57,0,0,0,2.617-2.617V18.617A2.57,2.57,0,0,0,284.932,16Zm.872,17.443a.824.824,0,0,1-.872.872h-14.74a2.713,2.713,0,0,0-2.268,1.308l-1.832,3.053h-.349V18.617a.824.824,0,0,1,.872-.872h18.316a.824.824,0,0,1,.872.872Zm0,0" transform="translate(-235.219 -14.256)"/>
      <path id="Trazado_1054160" data-name="Trazado 1054160" d="M32,288h1.744v1.744H32Zm0,0" transform="translate(-28.512 -256.602)"/>
      <path id="Trazado_1054161" data-name="Trazado 1054161" d="M32,328h1.744v1.744H32Zm0,0" transform="translate(-28.512 -292.241)"/>
      <path id="Trazado_1054162" data-name="Trazado 1054162" d="M32,368h1.744v1.744H32Zm0,0" transform="translate(-28.512 -327.88)"/>
      <path id="Trazado_1054163" data-name="Trazado 1054163" d="M32,408h1.744v1.744H32Zm0,0" transform="translate(-28.512 -363.519)"/>
      <path id="Trazado_1054164" data-name="Trazado 1054164" d="M368,304h8.722v1.744H368Zm0,0" transform="translate(-327.88 -270.858)"/>
      <path id="Trazado_1054165" data-name="Trazado 1054165" d="M368,344h8.722v1.744H368Zm0,0" transform="translate(-327.88 -306.497)"/>
      <path id="Trazado_1054166" data-name="Trazado 1054166" d="M368,384h8.722v1.744H368Zm0,0" transform="translate(-327.88 -342.136)"/>
      <path id="Trazado_1054167" data-name="Trazado 1054167" d="M368,424h8.722v1.744H368Zm0,0" transform="translate(-327.88 -377.775)"/>
      <path id="Trazado_1054168" data-name="Trazado 1054168" d="M309.955,51.489h-.611l.087-.261a2.6,2.6,0,0,0-1.919-3.14,1.92,1.92,0,0,0-.7-.087h-.174a2.571,2.571,0,0,0-2.355,1.483l-.959,2.006h-1.221v-.872H296V61.083h6.105v-.959l1.483.959h6.367a2.57,2.57,0,0,0,2.616-2.617V54.105a2.57,2.57,0,0,0-2.616-2.617Zm-9.594,7.85h-2.617V52.361h2.617Zm10.466-.872a.824.824,0,0,1-.872.872h-5.844l-2.006-1.308v-4.8h2.268l1.482-2.965a1,1,0,0,1,.785-.523h.174a.824.824,0,0,1,.872.872v.175l-.61,2.442h2.878a.824.824,0,0,1,.872.872Zm0,0" transform="translate(-263.73 -42.767)"/>
      <path id="Trazado_1054169" data-name="Trazado 1054169" d="M38.105,49.594h1.221L40.373,51.6a2.627,2.627,0,0,0,2.355,1.483H42.9a2.57,2.57,0,0,0,2.617-2.617,1.484,1.484,0,0,0-.087-.611l-.087-.261h.611a2.57,2.57,0,0,0,2.617-2.617V42.617A2.57,2.57,0,0,0,45.955,40H39.588l-1.483.959V40H32V50.466h6.105Zm2.006-7.85h5.844a.824.824,0,0,1,.872.872v4.361a.824.824,0,0,1-.872.872H43.077l.61,2.442a.9.9,0,0,1-.61,1.047h-.349a.838.838,0,0,1-.785-.523l-1.57-2.965H38.105v-4.8Zm-3.75,6.977H33.744V41.744h2.617Zm0,0" transform="translate(-28.512 -35.639)"/>
      <path id="Trazado_1054170" data-name="Trazado 1054170" d="M64,288h5.233v1.744H64Zm0,0" transform="translate(-57.023 -256.602)"/>
      <path id="Trazado_1054171" data-name="Trazado 1054171" d="M64,328h5.233v1.744H64Zm0,0" transform="translate(-57.023 -292.241)"/>
      <path id="Trazado_1054172" data-name="Trazado 1054172" d="M64,368h5.233v1.744H64Zm0,0" transform="translate(-57.023 -327.88)"/>
      <path id="Trazado_1054173" data-name="Trazado 1054173" d="M64,408h5.233v1.744H64Zm0,0" transform="translate(-57.023 -363.519)"/>
    </g>
  </g>
</svg>
