<svg xmlns="http://www.w3.org/2000/svg" xmlns:xlink="http://www.w3.org/1999/xlink" width="98" height="98" viewBox="0 0 98 98">
  <defs>
    <filter id="Trazado_904820" x="0" y="0" width="98" height="98" filterUnits="userSpaceOnUse">
      <feOffset dy="3" input="SourceAlpha"/>
      <feGaussianBlur stdDeviation="3" result="blur"/>
      <feFlood flood-opacity="0.161"/>
      <feComposite operator="in" in2="blur"/>
      <feComposite in="SourceGraphic"/>
    </filter>
  </defs>
  <g id="Grupo_1210518" data-name="Grupo 1210518" transform="translate(-191 -1919.458)">
    <g id="Grupo_1210391" data-name="Grupo 1210391" transform="translate(0 -10557.783)">
      <g id="Grupo_1210129" data-name="Grupo 1210129" transform="translate(0 4735.458)">
        <g id="Grupo_1209198" data-name="Grupo 1209198" transform="translate(200 7747.783)">
          <g id="Grupo_1202705" data-name="Grupo 1202705" transform="translate(0 0)">
            <g id="Grupo_1173585" data-name="Grupo 1173585" transform="translate(0 0)">
              <g id="Grupo_1173428" data-name="Grupo 1173428">
                <g id="Grupo_1171958" data-name="Grupo 1171958">
                  <g id="Grupo_1167341" data-name="Grupo 1167341">
                    <g id="Grupo_1166792" data-name="Grupo 1166792">
                      <g transform="matrix(1, 0, 0, 1, -9, -6)" filter="url(#Trazado_904820)">
                        <g id="Trazado_904820-2" data-name="Trazado 904820" transform="translate(9 6)" fill="#fef9e7">
                          <path d="M 39.99999618530273 78.50002288818359 C 34.80187225341797 78.50002288818359 29.76002883911133 77.4822998046875 25.01451873779297 75.47511291503906 C 20.43014144897461 73.53608703613281 16.31264114379883 70.7598876953125 12.77638530731201 67.22362518310547 C 9.240129470825195 63.6873664855957 6.463929653167725 59.56986618041992 4.524896144866943 54.98548889160156 C 2.517718315124512 50.2399787902832 1.499996185302734 45.19814300537109 1.499996185302734 40.0000114440918 C 1.499996185302734 34.8018798828125 2.517718315124512 29.76003456115723 4.524896144866943 25.01453399658203 C 6.463929653167725 20.43015670776367 9.240129470825195 16.31264495849609 12.77638530731201 12.77638912200928 C 16.31264114379883 9.240133285522461 20.43014144897461 6.46393346786499 25.01451873779297 4.524900436401367 C 29.76002883911133 2.517722606658936 34.80186462402344 1.500000357627869 39.99999618530273 1.500000357627869 C 45.19812774658203 1.500000357627869 50.23996353149414 2.517722606658936 54.9854736328125 4.524900436401367 C 59.56985092163086 6.46393346786499 63.68735122680664 9.240133285522461 67.22360992431641 12.77638912200928 C 70.75986480712891 16.31264495849609 73.53606414794922 20.43015670776367 75.47509765625 25.01453399658203 C 77.48227691650391 29.76003456115723 78.5 34.8018798828125 78.5 40.0000114440918 C 78.5 45.19814300537109 77.48227691650391 50.2399787902832 75.47509765625 54.98548889160156 C 73.53606414794922 59.56986618041992 70.75986480712891 63.6873664855957 67.22360992431641 67.22362518310547 C 63.68735122680664 70.7598876953125 59.56985092163086 73.53608703613281 54.9854736328125 75.47511291503906 C 50.23996353149414 77.4822998046875 45.1981201171875 78.50002288818359 39.99999618530273 78.50002288818359 Z" stroke="none"/>
                          <path d="M 39.99999618530273 3 C 35.00370407104492 3 30.15846252441406 3.977851867675781 25.59885025024414 5.906410217285156 C 21.19327545166016 7.769813537597656 17.23603439331055 10.43806457519531 13.83705139160156 13.83705139160156 C 10.43806457519531 17.23603820800781 7.769805908203125 21.19327926635742 5.906410217285156 25.59885025024414 C 3.977851867675781 30.15846633911133 2.999992370605469 35.00371932983398 2.999992370605469 40.0000114440918 C 2.999992370605469 44.99630355834961 3.977851867675781 49.84154510498047 5.906410217285156 54.40115737915039 C 7.769805908203125 58.80674743652344 10.43806457519531 62.76398468017578 13.83705139160156 66.16297149658203 C 17.23603439331055 69.56195831298828 21.19327545166016 72.23020935058594 25.59885025024414 74.09361267089844 C 30.15846252441406 76.02217102050781 35.00370407104492 77.00002288818359 39.99999618530273 77.00002288818359 C 44.99628829956055 77.00002288818359 49.84152984619141 76.02217102050781 54.40114212036133 74.09361267089844 C 58.80671691894531 72.23020935058594 62.76395416259766 69.56195831298828 66.16294097900391 66.16297149658203 C 69.56192779541016 62.76398468017578 72.23017883300781 58.80674743652344 74.09358215332031 54.40115737915039 C 76.02214050292969 49.84154510498047 77 44.99630355834961 77 40.0000114440918 C 77 35.00371932983398 76.02214050292969 30.15846633911133 74.09358215332031 25.59885025024414 C 72.23017883300781 21.19327926635742 69.56192779541016 17.23603820800781 66.16294097900391 13.83705139160156 C 62.76395416259766 10.43806457519531 58.80671691894531 7.769813537597656 54.40114212036133 5.906410217285156 C 49.84152984619141 3.977851867675781 44.99628829956055 3 39.99999618530273 3 M 39.99999618530273 0 C 62.09138488769531 0 80 17.90861129760742 80 40.0000114440918 C 80 62.09140014648438 62.09138488769531 80.00002288818359 39.99999618530273 80.00002288818359 C 17.90861129760742 80.00002288818359 -7.62939453125e-06 62.09140014648438 -7.62939453125e-06 40.0000114440918 C -7.62939453125e-06 17.90861129760742 17.90861129760742 0 39.99999618530273 0 Z" stroke="none" fill="#887013"/>
                        </g>
                      </g>
                    </g>
                  </g>
                </g>
              </g>
            </g>
          </g>
        </g>
      </g>
    </g>
    <g id="FILLED_OUTLINE" transform="translate(196.159 1921.161)">
      <rect id="Rectángulo_419530" data-name="Rectángulo 419530" width="41.159" height="48.317" rx="3" transform="translate(22.262 20.473)" fill="#916c5a"/>
      <path id="Trazado_1053837" data-name="Trazado 1053837" d="M85.324,161.133a1.793,1.793,0,0,0,.3.027H123.2a1.79,1.79,0,0,0,1.79-1.79V120a41.16,41.16,0,0,1-39.669,41.132Z" transform="translate(-61.572 -92.369)" fill="#7b5c4d"/>
      <path id="Trazado_1053838" data-name="Trazado 1053838" d="M104,88v39.37l1.79,1.79H138V88Z" transform="translate(-78.159 -63.948)" fill="#ffe8de"/>
      <path id="Trazado_1053839" data-name="Trazado 1053839" d="M243.063,291.07V270.3a41.313,41.313,0,0,1-20.771,20.77Z" transform="translate(-183.221 -225.859)" fill="#d9c5bd"/>
      <path id="Trazado_1053840" data-name="Trazado 1053840" d="M200.106,32.948H184V28.474a1.79,1.79,0,0,1,1.79-1.79h2.684l.487-1.461a1.79,1.79,0,0,1,1.7-1.224h2.789a1.79,1.79,0,0,1,1.7,1.224l.487,1.461h2.684a1.79,1.79,0,0,1,1.79,1.79Z" transform="translate(-149.212 -7.106)" fill="#535152"/>
      <path id="Trazado_1053841" data-name="Trazado 1053841" d="M248,64h1.79v1.79H248Z" transform="translate(-206.054 -42.632)" fill="#353334"/>
      <path id="Trazado_1053842" data-name="Trazado 1053842" d="M256.372,52.261A8.95,8.95,0,0,1,248,58.048h8.948V53.574a1.783,1.783,0,0,0-.577-1.313Z" transform="translate(-206.054 -32.206)" fill="#474546"/>
      <circle id="Elipse_13439" data-name="Elipse 13439" cx="8.948" cy="8.948" r="8.948" transform="translate(50.894 34.789)" fill="#6d6b6c"/>
      <g id="Grupo_1210517" data-name="Grupo 1210517" transform="translate(41.052 31.21)">
        <path id="Trazado_1053843" data-name="Trazado 1053843" d="M240,152h16.106v1.79H240Z" transform="translate(-240 -152)" fill="#ffcbb1"/>
        <path id="Trazado_1053844" data-name="Trazado 1053844" d="M240,184h9.842v1.79H240Z" transform="translate(-240 -180.421)" fill="#ffcbb1"/>
        <path id="Trazado_1053845" data-name="Trazado 1053845" d="M240,264h7.158v1.79H240Z" transform="translate(-240 -251.473)" fill="#ffcbb1"/>
        <path id="Trazado_1053846" data-name="Trazado 1053846" d="M240,296h8.053v1.79H240Z" transform="translate(-240 -279.894)" fill="#ffcbb1"/>
      </g>
      <path id="Trazado_1053847" data-name="Trazado 1053847" d="M36.071,179l-.988,3.071-2.455-2.093-8.56-30.124a1.79,1.79,0,1,1,3.443-.978Z" transform="translate(-7.107 -116.857)" fill="#f4aa8e"/>
      <path id="Trazado_1053848" data-name="Trazado 1053848" d="M27.511,148.873a1.79,1.79,0,0,0-3.443.978l.734,2.582,3.443-.978Z" transform="translate(-7.107 -116.857)" fill="#e88977"/>
      <path id="Trazado_1053849" data-name="Trazado 1053849" d="M409.934,343.717,406.42,328h-3.672l3.693,16.493a1.79,1.79,0,1,0,3.494-.776Z" transform="translate(-343.493 -277.105)" fill="#474546"/>
      <circle id="Elipse_13440" data-name="Elipse 13440" cx="4.474" cy="4.474" r="4.474" transform="translate(29.42 29.421)" fill="#04b263"/>
      <path id="Trazado_1053850" data-name="Trazado 1053850" d="M156.765,144.344a.892.892,0,0,1-.633-.262l-1.79-1.79,1.265-1.265,1.157,1.157,3.841-3.841,1.265,1.265-4.474,4.474a.892.892,0,0,1-.633.262Z" transform="translate(-122.872 -108.66)" fill="#17ce73"/>
      <circle id="Elipse_13441" data-name="Elipse 13441" cx="4.474" cy="4.474" r="4.474" transform="translate(29.42 41.947)" fill="#04b263"/>
      <path id="Trazado_1053851" data-name="Trazado 1053851" d="M156.765,256.344a.892.892,0,0,1-.633-.262l-1.79-1.79,1.265-1.265,1.157,1.157,3.841-3.841,1.265,1.265-4.474,4.474a.892.892,0,0,1-.633.262Z" transform="translate(-122.872 -208.133)" fill="#17ce73"/>
      <circle id="Elipse_13442" data-name="Elipse 13442" cx="4.474" cy="4.474" r="4.474" transform="translate(29.42 54.474)" fill="#ffcbb1"/>
      <path id="Trazado_1053852" data-name="Trazado 1053852" d="M375.143,242.976a8.947,8.947,0,0,0,11.833-11.833A17.936,17.936,0,0,1,375.143,242.976Z" transform="translate(-318.976 -191.081)" fill="#5d5b5c"/>
      <path id="Trazado_1053853" data-name="Trazado 1053853" d="M395.579,219.435V217.79a1.79,1.79,0,1,0-3.579,0v1.646a1.789,1.789,0,0,0,.9,1.554l.888.507.888-.507A1.789,1.789,0,0,0,395.579,219.435Z" transform="translate(-333.948 -177.632)" fill="#fcdcc8"/>
      <path id="Trazado_1053854" data-name="Trazado 1053854" d="M376.046,267.184l-3.572-2.041-3.572,2.041a1.79,1.79,0,0,0-.9,1.554v4.025a8.94,8.94,0,0,0,8.948,0v-4.025a1.79,1.79,0,0,0-.9-1.554Z" transform="translate(-312.632 -221.278)" fill="#f4aa8e"/>
      <path id="Trazado_1053855" data-name="Trazado 1053855" d="M375.143,296.287a8.941,8.941,0,0,0,8.149-.41v-4.025a1.788,1.788,0,0,0-.136-.684A17.9,17.9,0,0,1,375.143,296.287Z" transform="translate(-318.976 -244.393)" fill="#d09179"/>
      <path id="Trazado_1053856" data-name="Trazado 1053856" d="M240,368h16.106v1.79H240Z" transform="translate(-198.948 -312.631)" fill="#ffcbb1"/>
      <path id="Trazado_1053857" data-name="Trazado 1053857" d="M328.333,369.79h6.226V368h-4.488Q329.23,368.922,328.333,369.79Z" transform="translate(-277.402 -312.631)" fill="#d9ad97"/>
      <path id="Trazado_1053858" data-name="Trazado 1053858" d="M240,400h16.106v1.79H240Z" transform="translate(-198.948 -341.052)" fill="#ffcbb1"/>
      <path id="Trazado_1053859" data-name="Trazado 1053859" d="M290.636,401.79h10.442V400h-8.192Q291.793,400.933,290.636,401.79Z" transform="translate(-243.921 -341.052)" fill="#d9ad97"/>
      <path id="Trazado_1053860" data-name="Trazado 1053860" d="M248,64h1.79v1.79H248Z" transform="translate(-206.054 -42.632)"/>
      <path id="Trazado_1053861" data-name="Trazado 1053861" d="M64.234,52.543a9.84,9.84,0,0,0,.081-17.572V22.262a2.687,2.687,0,0,0-2.684-2.684H51.1a2.678,2.678,0,0,0-2-.895H47.065l-.283-.849A2.681,2.681,0,0,0,44.236,16H41.447A2.681,2.681,0,0,0,38.9,17.834l-.283.849H36.578a2.678,2.678,0,0,0-2,.895H24.051a2.687,2.687,0,0,0-2.684,2.684v9.867l-.1-.358A2.684,2.684,0,1,0,16.1,33.238l5.266,18.533V67a2.687,2.687,0,0,0,2.684,2.684H64.832v0a2.721,2.721,0,0,0,.445-.061,2.684,2.684,0,0,0,2.038-3.2Zm3.66-8.806a8.034,8.034,0,0,1-2.684,6V47.46a2.69,2.69,0,0,0-1.353-2.331l-2.263-1.293a2.691,2.691,0,0,0,.931-2.032V40.158a2.684,2.684,0,0,0-5.369,0V41.8a2.691,2.691,0,0,0,.931,2.032l-2.263,1.293a2.69,2.69,0,0,0-1.353,2.331v2.273a8.051,8.051,0,1,1,13.421-6ZM59.842,44.9l3.128,1.788a.9.9,0,0,1,.451.777v3.488a8.028,8.028,0,0,1-7.158,0V47.46a.9.9,0,0,1,.451-.777ZM58.947,41.8V40.158a.895.895,0,0,1,1.79,0V41.8a.9.9,0,0,1-.451.777l-.444.254L59.4,42.58A.9.9,0,0,1,58.947,41.8ZM51.789,21.368h9.842a.9.9,0,0,1,.895.895v12a9.781,9.781,0,0,0-1.79-.331V24.052a.9.9,0,0,0-.895-.895H51.789Zm-16.106,0a.9.9,0,0,1,.895-.895h2.684a.9.9,0,0,0,.849-.612L40.6,18.4a.894.894,0,0,1,.849-.612h2.789a.894.894,0,0,1,.849.612l.487,1.461a.9.9,0,0,0,.849.612H49.1a.9.9,0,0,1,.895.895v3.579H35.683Zm-.895,5.369H50.894a.9.9,0,0,0,.895-.895v-.895h7.158v8.989a9.842,9.842,0,0,0,0,19.6V64.316H29.2l.607-1.888a5.365,5.365,0,0,0,9.451-3.481h-1.79a3.579,3.579,0,1,1-3.579-3.579v-1.79a5.377,5.377,0,0,0-5.239,4.2l-1.919-6.755V24.947h7.158v.895a.9.9,0,0,0,.895.895ZM23.156,22.262a.9.9,0,0,1,.895-.895h9.842v1.79H25.841a.9.9,0,0,0-.895.895V44.725l-1.79-6.3ZM17.822,32.749a.895.895,0,1,1,1.721-.489l.489,1.721-1.721.489Zm.978,3.443,1.721-.489,7.507,26.421-.494,1.536-1.228-1.046Zm5.251,31.7A.9.9,0,0,1,23.156,67V58.069l1.5,5.294a.894.894,0,0,0,.28.436L27.4,65.892a.894.894,0,0,0,.58.214H59.842a.9.9,0,0,0,.895-.895V61.568l1.337,6.015a2.722,2.722,0,0,0,.092.313Zm41.4-.415a.895.895,0,0,1-1.628-.286l-3.038-13.66a9.777,9.777,0,0,0,1.764-.333l3.02,13.605a.889.889,0,0,1-.119.674Z" transform="translate(0 0)"/>
      <path id="Trazado_1053862" data-name="Trazado 1053862" d="M155.609,141.027l-1.265,1.265,1.79,1.79a.9.9,0,0,0,1.265,0l4.474-4.474-1.265-1.265-3.841,3.841Z" transform="translate(-122.872 -108.66)"/>
      <path id="Trazado_1053863" data-name="Trazado 1053863" d="M240,152h16.106v1.79H240Z" transform="translate(-198.948 -120.79)"/>
      <path id="Trazado_1053864" data-name="Trazado 1053864" d="M240,184h9.842v1.79H240Z" transform="translate(-198.948 -149.211)"/>
      <path id="Trazado_1053865" data-name="Trazado 1053865" d="M133.369,136.948a3.579,3.579,0,1,1,0-7.158V128a5.369,5.369,0,1,0,5.369,5.369h-1.79A3.583,3.583,0,0,1,133.369,136.948Z" transform="translate(-99.475 -99.474)"/>
      <path id="Trazado_1053866" data-name="Trazado 1053866" d="M155.609,253.027l-1.265,1.265,1.79,1.79a.9.9,0,0,0,1.265,0l4.474-4.474-1.265-1.265-3.841,3.841Z" transform="translate(-122.872 -208.134)"/>
      <path id="Trazado_1053867" data-name="Trazado 1053867" d="M133.369,248.948a3.579,3.579,0,0,1,0-7.158V240a5.369,5.369,0,1,0,5.369,5.369h-1.79A3.583,3.583,0,0,1,133.369,248.948Z" transform="translate(-99.475 -198.948)"/>
      <path id="Trazado_1053868" data-name="Trazado 1053868" d="M240,264h7.158v1.79H240Z" transform="translate(-198.948 -220.263)"/>
      <path id="Trazado_1053869" data-name="Trazado 1053869" d="M240,296h8.053v1.79H240Z" transform="translate(-198.948 -248.684)"/>
      <path id="Trazado_1053870" data-name="Trazado 1053870" d="M240,368h16.106v1.79H240Z" transform="translate(-198.948 -312.631)"/>
      <path id="Trazado_1053871" data-name="Trazado 1053871" d="M240,400h16.106v1.79H240Z" transform="translate(-198.948 -341.052)"/>
    </g>
  </g>
</svg>
