<svg xmlns="http://www.w3.org/2000/svg" xmlns:xlink="http://www.w3.org/1999/xlink" width="113" height="113" viewBox="0 0 113 113">
  <defs>
    <filter id="Trazado_982547" x="0" y="0" width="113" height="113" filterUnits="userSpaceOnUse">
      <feOffset dy="3" input="SourceAlpha"/>
      <feGaussianBlur stdDeviation="3" result="blur"/>
      <feFlood flood-opacity="0.161"/>
      <feComposite operator="in" in2="blur"/>
      <feComposite in="SourceGraphic"/>
    </filter>
  </defs>
  <g id="Grupo_1210618" data-name="Grupo 1210618" transform="translate(-1138 -844.448)">
    <g id="Grupo_1210489" data-name="Grupo 1210489" transform="translate(0 -14857.543)">
      <g id="Grupo_1210150" data-name="Grupo 1210150" transform="translate(26 13379.992)">
        <g id="Grupo_1209055" data-name="Grupo 1209055" transform="translate(0 1091.783)">
          <g id="Grupo_1209049" data-name="Grupo 1209049">
            <g id="Grupo_1208493" data-name="Grupo 1208493" transform="translate(0 -4397.209)">
              <g id="Grupo_1202104" data-name="Grupo 1202104" transform="translate(0 -1149.226)">
                <g id="Grupo_1201923" data-name="Grupo 1201923" transform="translate(-4174.49 4856.378)">
                  <g id="Grupo_1176928" data-name="Grupo 1176928" transform="translate(5295.49 1926.273)">
                    <g id="Grupo_1172322" data-name="Grupo 1172322" transform="translate(0 0)">
                      <g id="Grupo_1164700" data-name="Grupo 1164700">
                        <g id="Grupo_1160931" data-name="Grupo 1160931">
                          <g id="Grupo_1160749" data-name="Grupo 1160749">
                            <g id="Grupo_1158891" data-name="Grupo 1158891">
                              <g id="Grupo_1157406" data-name="Grupo 1157406">
                                <g id="Grupo_1155793" data-name="Grupo 1155793">
                                  <g id="Grupo_1154704" data-name="Grupo 1154704">
                                    <g id="Grupo_1150790" data-name="Grupo 1150790">
                                      <g id="Grupo_1154214" data-name="Grupo 1154214">
                                        <g id="Grupo_1152583" data-name="Grupo 1152583">
                                          <g id="Grupo_1146973" data-name="Grupo 1146973">
                                            <g id="Grupo_1146954" data-name="Grupo 1146954">
                                              <g transform="matrix(1, 0, 0, 1, -9, -6)" filter="url(#Trazado_982547)">
                                                <g id="Trazado_982547-2" data-name="Trazado 982547" transform="translate(9 6)" fill="#fef9e7">
                                                  <path d="M 47.5000114440918 93.49987030029297 C 41.28938293457031 93.49987030029297 35.26534652709961 92.28384399414062 29.5951976776123 89.88558959960938 C 24.11773109436035 87.56881713867188 19.19814491271973 84.25183868408203 14.97310447692871 80.02680206298828 C 10.74805164337158 75.80176544189453 7.43107795715332 70.88218688964844 5.114304542541504 65.40472412109375 C 2.716038227081299 59.73458862304688 1.500011444091797 53.71054840087891 1.500011444091797 47.49993515014648 C 1.500011444091797 41.28932189941406 2.716038227081299 35.26528167724609 5.114304542541504 29.59514808654785 C 7.43107795715332 24.1176815032959 10.74805164337158 19.1981086730957 14.97310447692871 14.97306823730469 C 19.19814491271973 10.74802875518799 24.11773109436035 7.431055068969727 29.5951976776123 5.11428165435791 C 35.26534652709961 2.716028451919556 41.28938293457031 1.500001788139343 47.5000114440918 1.500001788139343 C 53.71063995361328 1.500001788139343 59.73467636108398 2.716028451919556 65.40482330322266 5.11428165435791 C 70.88229370117188 7.431055068969727 75.8018798828125 10.74802875518799 80.02691650390625 14.97306823730469 C 84.25196838378906 19.1981086730957 87.56894683837891 24.1176815032959 89.88571929931641 29.59514808654785 C 92.28398132324219 35.26528167724609 93.50001525878906 41.28932189941406 93.50001525878906 47.49993515014648 C 93.50001525878906 53.71054840087891 92.28398132324219 59.73458862304688 89.88571929931641 65.40472412109375 C 87.56894683837891 70.88218688964844 84.25196838378906 75.80176544189453 80.02691650390625 80.02680206298828 C 75.8018798828125 84.25183868408203 70.88229370117188 87.56881713867188 65.40482330322266 89.88558959960938 C 59.73467636108398 92.28384399414062 53.71063995361328 93.49987030029297 47.5000114440918 93.49987030029297 Z" stroke="none"/>
                                                  <path d="M 47.5000114440918 3 C 41.49122619628906 3 35.66378021240234 4.1761474609375 30.17951965332031 6.495796203613281 C 24.880859375 8.7369384765625 20.12153625488281 11.94596862792969 16.03376770019531 16.03373718261719 C 11.94598388671875 20.12149047851562 8.736968994140625 24.88081359863281 6.495811462402344 30.17947387695312 C 4.176162719726562 35.66371917724609 3.000007629394531 41.49116516113281 3.000007629394531 47.49993515014648 C 3.000007629394531 53.50870513916016 4.176162719726562 59.33615112304688 6.495811462402344 64.82039642333984 C 8.736968994140625 70.11905670166016 11.94598388671875 74.87837982177734 16.03376770019531 78.96613311767578 C 20.12153625488281 83.05390167236328 24.880859375 86.26293182373047 30.17951965332031 88.50407409667969 C 35.66378021240234 90.82372283935547 41.49122619628906 91.99987030029297 47.5000114440918 91.99987030029297 C 53.50879669189453 91.99987030029297 59.33624267578125 90.82372283935547 64.82050323486328 88.50407409667969 C 70.11916351318359 86.26293182373047 74.87848663330078 83.05390167236328 78.96625518798828 78.96613311767578 C 83.05403900146484 74.87837982177734 86.2630615234375 70.11905670166016 88.50421142578125 64.82039642333984 C 90.82386016845703 59.33615112304688 92.00001525878906 53.50870513916016 92.00001525878906 47.49993515014648 C 92.00001525878906 41.49116516113281 90.82386016845703 35.66371917724609 88.50421142578125 30.17947387695312 C 86.2630615234375 24.88081359863281 83.05403900146484 20.12149047851562 78.96625518798828 16.03373718261719 C 74.87848663330078 11.94596862792969 70.11916351318359 8.7369384765625 64.82050323486328 6.495796203613281 C 59.33624267578125 4.1761474609375 53.50879669189453 3 47.5000114440918 3 M 47.5000114440918 0 C 73.73353576660156 0 95.00001525878906 21.26644134521484 95.00001525878906 47.49993515014648 C 95.00001525878906 73.73342895507812 73.73353576660156 94.99987030029297 47.5000114440918 94.99987030029297 C 21.26648712158203 94.99987030029297 7.62939453125e-06 73.73342895507812 7.62939453125e-06 47.49993515014648 C 7.62939453125e-06 21.26644134521484 21.26648712158203 0 47.5000114440918 0 Z" stroke="none" fill="#f8ce24"/>
                                                </g>
                                              </g>
                                            </g>
                                          </g>
                                        </g>
                                      </g>
                                    </g>
                                  </g>
                                </g>
                              </g>
                            </g>
                          </g>
                        </g>
                      </g>
                    </g>
                  </g>
                </g>
              </g>
            </g>
          </g>
        </g>
      </g>
    </g>
    <g id="Page-1" transform="translate(1162.869 866.869)">
      <g id="_022---Furnace" data-name="022---Furnace" transform="translate(0 0)">
        <path id="Shape" d="M53.829,52.038v4.151H31V52.038A1.038,1.038,0,0,1,32.038,51H52.791A1.038,1.038,0,0,1,53.829,52.038Z" transform="translate(1.168 1.922)" fill="#0377bc"/>
        <path id="Shape-2" data-name="Shape" d="M50.716,52.038v4.151H31V52.038A1.038,1.038,0,0,1,32.038,51H49.678A1.038,1.038,0,0,1,50.716,52.038Z" transform="translate(1.168 1.922)" fill="#02a9f4"/>
        <path id="Shape-3" data-name="Shape" d="M10.316,1.456A16.119,16.119,0,0,1,12.439,5.8c-.58.14-1,1.993-1.732,1.989-.783,0-1.884-1.88-2.792-2.179a13.3,13.3,0,0,0-1.3-2.179q-.293-.415-.573-.8A1.038,1.038,0,0,1,6.889,1H9.451A1.047,1.047,0,0,1,10.316,1.456Z" transform="translate(0.221 0.038)" fill="#37474f"/>
        <path id="Shape-4" data-name="Shape" d="M24.4,26.153a11.43,11.43,0,0,1-16.146,0,9.159,9.159,0,0,1-.934-1.079,11.432,11.432,0,0,0,15-1l-.073-.768,1.9.218Z" transform="translate(0.276 0.879)" fill="#37474f"/>
        <rect id="Rectangle-path" width="35" height="4" rx="1" transform="translate(26.131 57.131)" fill="#283593"/>
        <rect id="Rectangle-path-2" data-name="Rectangle-path" width="32" height="4" rx="1" transform="translate(26.131 57.131)" fill="#3f51b5"/>
        <path id="Shape-5" data-name="Shape" d="M38.91,25.22a17.848,17.848,0,0,1,6.382,4.5,9.215,9.215,0,0,1,.571.726,11.486,11.486,0,0,1,1.453,8.405,7.437,7.437,0,0,1-2.885,2.407c1.173-3.756,1.743-8.426-.643-11.85a9.216,9.216,0,0,0-.571-.726A16.773,16.773,0,0,0,38.91,25.22Z" transform="translate(1.466 0.95)" fill="#fdd834"/>
        <path id="Shape-6" data-name="Shape" d="M47.908,49.872a9.7,9.7,0,0,1-3.206,1.38,16.238,16.238,0,0,1-3.819.322A10.362,10.362,0,0,1,35.3,49.893a10.138,10.138,0,0,0,3.507.643,16.238,16.238,0,0,0,3.819-.322,9.7,9.7,0,0,0,3.206-1.38c3.082-2.117,5.448-5.77,4.888-9.619a10.1,10.1,0,0,0-.332-1.474c.083-.228.156-.467.228-.706.062-.218.125-.425.176-.643a2.547,2.547,0,0,0,.145-.623A10.011,10.011,0,0,1,52.8,40.253C53.356,44.1,50.99,47.755,47.908,49.872Z" transform="translate(1.33 1.348)" fill="#fdd834"/>
        <path id="Shape-7" data-name="Shape" d="M45.995,49.269a9.7,9.7,0,0,1-3.206,1.38,16.238,16.238,0,0,1-3.819.322,10.138,10.138,0,0,1-3.507-.643A9.207,9.207,0,0,1,31,42.576,10.076,10.076,0,0,1,33.4,36.7,10.643,10.643,0,0,0,35.2,33.3c.042-.125.073-.239.1-.363a23.617,23.617,0,0,0,.332-2.843,4.752,4.752,0,0,1,1.474,2.677c.135.508.239,1.007.311,1.432a14.211,14.211,0,0,1,.249,2.563.217.217,0,0,0,.042-.062,19.1,19.1,0,0,0,1.193-2.283,7.037,7.037,0,0,0,.955-3.808,7.79,7.79,0,0,0-1.37-3.528,16.7,16.7,0,0,0-1.224-1.6c-.218-.259-.83-1.173-1.152-1.235a16.882,16.882,0,0,1,3.092,1.007,16.773,16.773,0,0,1,4.306,3.466,9.214,9.214,0,0,1,.571.726c2.387,3.424,1.816,8.094.643,11.85a7.437,7.437,0,0,0,2.885-2.407,22.543,22.543,0,0,1-.809,3.445,7.082,7.082,0,0,0,3.539-3.6c.073-.187.145-.374.208-.56a10.1,10.1,0,0,1,.332,1.474C51.442,43.5,49.077,47.152,45.995,49.269Z" transform="translate(1.168 0.914)" fill="#ffeb3a"/>
        <path id="Shape-8" data-name="Shape" d="M44.934,51.45H40.721s-3.289,0-3.331-4.068a9.889,9.889,0,0,1,2.117-5.77,15.321,15.321,0,0,1,2.324-2.563c-.674,1.131-.145,3.466,2.086,5.873C46.169,47.341,44.934,51.45,44.934,51.45Z" transform="translate(1.409 1.472)" fill="#f57c00"/>
        <path id="Shape-9" data-name="Shape" d="M43.087,51.357H40.721s-3.289,0-3.331-4.068a9.889,9.889,0,0,1,2.117-5.77,8.156,8.156,0,0,0,2.335,4.348C43.388,47.528,43.294,49.977,43.087,51.357Z" transform="translate(1.409 1.565)" fill="#ff9801"/>
        <path id="Shape-10" data-name="Shape" d="M28.125,22.431l-2.771-.218-.114-1.92.809.062A11.436,11.436,0,0,0,27.025,5.32a12.2,12.2,0,0,1,1.1.965A11.43,11.43,0,0,1,28.125,22.431Z" transform="translate(0.951 0.201)" fill="#37474f"/>
        <path id="Shape-11" data-name="Shape" d="M22.412,24.592a11.432,11.432,0,0,1-15,1A11.264,11.264,0,0,1,5.041,19.56a11.448,11.448,0,0,1,.28-3.663A9.63,9.63,0,0,1,6.93,12.265,7.648,7.648,0,0,0,8.59,9.722c.021,0,.052.01.073.01a10.227,10.227,0,0,0,1.453.135c.135.01.259.01.384.01a11.564,11.564,0,0,0,2.231-.208.287.287,0,0,0,.093-.01c-.01.1-.021.208-.042.311a8.745,8.745,0,0,1-1.069,2.947,15.171,15.171,0,0,1-1.38,1.785,5.25,5.25,0,0,0-.872,1.8,7.16,7.16,0,0,0,.882,6.091l.01.01a7.455,7.455,0,0,0,.924,1.131,7.252,7.252,0,0,0,10.273,0l.789.093Z" transform="translate(0.188 0.364)" fill="#607d8b"/>
        <path id="Shape-12" data-name="Shape" d="M26.963,20.476l-.809-.062-.052-.8a7.252,7.252,0,0,0,0-10.273,7.336,7.336,0,0,0-1.131-.924l-.01-.01A7.292,7.292,0,0,0,18.63,7.6a28.688,28.688,0,0,0-2.708,1.359,12.311,12.311,0,0,1-2.947.986.287.287,0,0,1-.093.01,11.564,11.564,0,0,1-2.231.208c-.125,0-.249,0-.384-.01a10.227,10.227,0,0,1-1.453-.135c-.021,0-.052-.01-.073-.01a12.942,12.942,0,0,1-2.75-.768,14.467,14.467,0,0,1-2.677-1.4C2.65,7.4,2.027,6.975,1.446,6.581A1.053,1.053,0,0,1,1,5.72V3.178a1.038,1.038,0,0,1,1.64-.841C3.5,2.96,4.487,3.644,5.6,4.371a9.79,9.79,0,0,0,2.5,1.2,8.241,8.241,0,0,0,4.524.187c1.463-.342,2.573-1.256,3.933-1.816a11.179,11.179,0,0,1,3.808-.861,11.5,11.5,0,0,1,7.43,2.241,1.1,1.1,0,0,1,.125.1s.021,0,.021.01A11.436,11.436,0,0,1,26.963,20.476Z" transform="translate(0.038 0.081)" fill="#607d8b"/>
        <path id="Shape-13" data-name="Shape" d="M32.831,27.934,29.9,30.86a1.046,1.046,0,0,1-1.474,0l-9.412-9.412-1.64-1.629a1.045,1.045,0,0,1,.042-1.432l2.937-2.926a1.046,1.046,0,0,1,1.474,0l4.524,4.524,6.475,6.475A1.046,1.046,0,0,1,32.831,27.934Z" transform="translate(0.645 0.571)" fill="#d84315"/>
        <path id="Shape-14" data-name="Shape" d="M30.755,25.859l-2.926,2.926a1.046,1.046,0,0,1-1.474,0l-7.336-7.336-1.64-1.629a1.045,1.045,0,0,1,.042-1.432l2.937-2.926a1.046,1.046,0,0,1,1.474,0l4.524,4.524,4.4,4.4A1.046,1.046,0,0,1,30.755,25.859Z" transform="translate(0.645 0.571)" fill="#ff5722"/>
        <ellipse id="Oval" cx="2.5" cy="2" rx="2.5" ry="2" transform="translate(22.131 45.131)" fill="#ff9801"/>
        <circle id="Oval-2" data-name="Oval" cx="2" cy="2" r="2" transform="translate(54.131 25.131)" fill="#ff9801"/>
        <path id="Shape-15" data-name="Shape" d="M59.281,60.226H26.075A2.075,2.075,0,0,1,24,58.151V56.075A2.075,2.075,0,0,1,26.075,54H59.281a2.075,2.075,0,0,1,2.075,2.075v2.075A2.075,2.075,0,0,1,59.281,60.226ZM26.075,56.075v2.075H59.281V56.075Z" transform="translate(0.905 2.035)"/>
        <path id="Shape-16" data-name="Shape" d="M53.867,56.226H31.038A1.038,1.038,0,0,1,30,55.188V52.075A2.075,2.075,0,0,1,32.075,50H52.829A2.075,2.075,0,0,1,54.9,52.075v3.113A1.038,1.038,0,0,1,53.867,56.226ZM32.075,54.151H52.829V52.075H32.075Z" transform="translate(1.131 1.884)"/>
        <path id="Shape-17" data-name="Shape" d="M41.088,53.084a11.529,11.529,0,0,1-8.114-3.424A9.9,9.9,0,0,1,30,42.608a10.885,10.885,0,0,1,2.61-6.5,9.742,9.742,0,0,0,1.645-3.076,9.551,9.551,0,0,0,.311-2.059c.025-.318.051-.638.087-.963a1.038,1.038,0,0,1,1.636-.726,6.417,6.417,0,0,1,2.053,4,5.019,5.019,0,0,0,.533-2.536,6.967,6.967,0,0,0-1.2-3.058A15.471,15.471,0,0,0,36.526,26.2c-.062-.072-.15-.187-.253-.322a7.349,7.349,0,0,0-.519-.639,1.038,1.038,0,0,1,.6-1.972A19.612,19.612,0,0,1,46.4,29.113a9.276,9.276,0,0,1,.646.822c2.058,2.955,2.1,6.641,1.511,9.842a5.529,5.529,0,0,0,.859-1.408,10.415,10.415,0,0,0,.4-1.149c.059-.208.112-.407.163-.611.009-.035.029-.1.056-.184.017-.053.042-.122.059-.185a1.038,1.038,0,0,1,1.868-.612,10.955,10.955,0,0,1,2.046,4.945c.561,3.848-1.529,8.016-5.325,10.621a10.646,10.646,0,0,1-3.536,1.537A16.765,16.765,0,0,1,41.088,53.084ZM36.269,33.529c-.011.036-.022.075-.033.111a11.782,11.782,0,0,1-1.981,3.729,8.943,8.943,0,0,0-2.179,5.255A7.831,7.831,0,0,0,34.448,48.2a9.57,9.57,0,0,0,6.64,2.808,14.848,14.848,0,0,0,3.573-.3,8.6,8.6,0,0,0,2.86-1.227c2.387-1.641,4.989-4.877,4.444-8.613a8.757,8.757,0,0,0-.524-1.966c-.034.09-.07.177-.1.265a8.07,8.07,0,0,1-4.03,4.127,1.038,1.038,0,0,1-1.453-1.245c1.006-3.217,1.734-7.725-.505-10.939a7.176,7.176,0,0,0-.5-.634,16.655,16.655,0,0,0-5.492-4l.035.052a8.9,8.9,0,0,1,1.543,4.011,8.163,8.163,0,0,1-1.047,4.345,20.553,20.553,0,0,1-1.257,2.4c-.006.009-.051.08-.058.089a1.038,1.038,0,0,1-1.9-.581,13.6,13.6,0,0,0-.235-2.387C36.4,34.2,36.349,33.886,36.269,33.529Z" transform="translate(1.131 0.876)"/>
        <path id="Shape-18" data-name="Shape" d="M44.976,52.526a1.038,1.038,0,0,1-1-1.334c.02-.068,1.02-3.586-.781-5.526a10.351,10.351,0,0,1-2.4-3.943,9.4,9.4,0,0,0-2.328,5.694c.031,2.949,2.06,3.034,2.29,3.034a1.038,1.038,0,0,1,0,2.075c-1.492,0-4.324-1.064-4.367-5.091-.054-5.064,4.63-8.992,4.83-9.156a1.038,1.038,0,0,1,1.544,1.343c-.377.613-.018,2.509,1.952,4.631,2.622,2.824,1.307,7.343,1.245,7.533A1.038,1.038,0,0,1,44.976,52.526Z" transform="translate(1.372 1.434)"/>
        <path id="Shape-19" data-name="Shape" d="M29.076,23.626a1.038,1.038,0,0,1-.734-.3l-2.937-2.937a1.038,1.038,0,0,1,0-1.467,6.226,6.226,0,0,0-6.4-10.3,9.308,9.308,0,0,0-1.489.726c-.368.208-.737.415-1.119.59A13.18,13.18,0,0,1,13.2,11a13.225,13.225,0,0,1-4.6.063A14.853,14.853,0,0,1,2.782,8.74c-.673-.439-1.3-.868-1.89-1.271A2.075,2.075,0,0,1,0,5.768V3.22A2.075,2.075,0,0,1,3.285,1.535c.916.664,1.9,1.339,2.918,2A8.781,8.781,0,0,0,8.445,4.626a7.189,7.189,0,0,0,3.971.168,8.556,8.556,0,0,0,2.16-.953A15.638,15.638,0,0,1,16.2,3.028a12.121,12.121,0,0,1,4.151-.934,12.529,12.529,0,0,1,8.1,2.447,12.956,12.956,0,0,1,1.358,1.177,12.469,12.469,0,0,1,0,17.614A1.038,1.038,0,0,1,29.076,23.626Zm-1.514-4.019,1.478,1.478a10.393,10.393,0,0,0-.7-13.905A11.106,11.106,0,0,0,27.2,6.193a10.418,10.418,0,0,0-6.745-2.032A10.113,10.113,0,0,0,17,4.943a14.141,14.141,0,0,0-1.415.715A10.316,10.316,0,0,1,12.9,6.806,9.206,9.206,0,0,1,7.812,6.6a10.838,10.838,0,0,1-2.75-1.324C4.02,4.592,3.009,3.9,2.068,3.216l.007,2.552c.57.392,1.185.811,1.845,1.245A12.826,12.826,0,0,0,8.943,9.025a11.049,11.049,0,0,0,3.878-.057,11.132,11.132,0,0,0,2.7-.906c.334-.157.656-.337.979-.519a11.049,11.049,0,0,1,1.832-.882,8.3,8.3,0,0,1,9.233,12.946Z" transform="translate(0 0.043)"/>
        <path id="Shape-20" data-name="Shape" d="M29.206,32.242a2.068,2.068,0,0,1-1.467-.607l-11.016-11a2.075,2.075,0,0,1,0-2.939l2.939-2.934a2.082,2.082,0,0,1,2.934,0l11.011,11a2.075,2.075,0,0,1,0,2.935l-2.933,2.933A2.068,2.068,0,0,1,29.206,32.242ZM21.131,16.228l-2.94,2.934L29.206,30.167l2.934-2.934Z" transform="translate(0.607 0.534)"/>
        <path id="Shape-21" data-name="Shape" d="M10.543,7.112a9.375,9.375,0,0,1-2.911-.471,1.038,1.038,0,0,1-.623-.552,12.218,12.218,0,0,0-1.2-2.006l-.571-.8A2.075,2.075,0,0,1,6.927,0H9.488a2.075,2.075,0,0,1,1.726.913,17.172,17.172,0,0,1,2.257,4.63,1.038,1.038,0,0,1-.75,1.307A9.22,9.22,0,0,1,10.543,7.112ZM8.685,4.79a7.138,7.138,0,0,0,2.4.225A16.233,16.233,0,0,0,9.5,2.075H6.927l.573.8A15.078,15.078,0,0,1,8.685,4.79Z" transform="translate(0.183 0)"/>
        <path id="Shape-22" data-name="Shape" d="M16.452,31.077a12.452,12.452,0,0,1-12.1-15.388,10.755,10.755,0,0,1,1.8-4.032c.116-.146.236-.288.355-.433A5.17,5.17,0,0,0,7.632,9.479,1.038,1.038,0,0,1,8.8,8.737a11.087,11.087,0,0,0,3.865-.059,1.049,1.049,0,0,1,.892.254,1.038,1.038,0,0,1,.332.868,4.08,4.08,0,0,1-.057.415,9.777,9.777,0,0,1-1.191,3.269,9.359,9.359,0,0,1-1.038,1.4c-.142.167-.284.334-.415.506a4.182,4.182,0,0,0-.69,1.441,6.234,6.234,0,0,0,5.95,8.038h0a6.194,6.194,0,0,0,4.406-1.828,1.038,1.038,0,0,1,1.467,0l2.937,2.937a1.038,1.038,0,0,1,0,1.468A12.44,12.44,0,0,1,16.452,31.077ZM9.292,10.894a9.339,9.339,0,0,1-1.181,1.66l-.327.4a8.717,8.717,0,0,0-1.41,3.227A10.377,10.377,0,0,0,23.021,26.668l-1.477-1.477a8.244,8.244,0,0,1-5.092,1.747h-.008A8.308,8.308,0,0,1,8.508,16.233,6.192,6.192,0,0,1,9.556,14.1c.153-.194.311-.381.469-.568a7.581,7.581,0,0,0,.83-1.092,7.626,7.626,0,0,0,.682-1.525,13.033,13.033,0,0,1-2.251-.019Z" transform="translate(0.151 0.326)"/>
        <path id="Shape-23" data-name="Shape" d="M24.113,49.226a3.113,3.113,0,1,1,3.113-3.113A3.113,3.113,0,0,1,24.113,49.226Zm0-4.151a1.038,1.038,0,1,0,1.038,1.038A1.038,1.038,0,0,0,24.113,45.075Z" transform="translate(0.791 1.621)"/>
        <circle id="Oval-3" data-name="Oval" cx="1" cy="1" r="1" transform="translate(17.131 42.131)"/>
        <ellipse id="Oval-4" data-name="Oval" cx="1" cy="1.5" rx="1" ry="1.5" transform="translate(20.131 36.131)"/>
        <path id="Shape-24" data-name="Shape" d="M54.113,29.226a3.113,3.113,0,1,1,3.113-3.113A3.113,3.113,0,0,1,54.113,29.226Zm0-4.151a1.038,1.038,0,1,0,1.038,1.038A1.038,1.038,0,0,0,54.113,25.075Z" transform="translate(1.922 0.867)"/>
        <ellipse id="Oval-5" data-name="Oval" cx="1" cy="0.5" rx="1" ry="0.5" transform="translate(46.131 17.131)"/>
        <ellipse id="Oval-6" data-name="Oval" cx="1.5" cy="1" rx="1.5" ry="1" transform="translate(51.131 7.131)"/>
        <ellipse id="Oval-7" data-name="Oval" cx="1" cy="0.5" rx="1" ry="0.5" transform="translate(56.131 17.131)"/>
      </g>
    </g>
  </g>
</svg>
