<svg xmlns="http://www.w3.org/2000/svg" xmlns:xlink="http://www.w3.org/1999/xlink" width="98" height="98" viewBox="0 0 98 98">
  <defs>
    <filter id="Trazado_904820" x="0" y="0" width="98" height="98" filterUnits="userSpaceOnUse">
      <feOffset dy="3" input="SourceAlpha"/>
      <feGaussianBlur stdDeviation="3" result="blur"/>
      <feFlood flood-opacity="0.161"/>
      <feComposite operator="in" in2="blur"/>
      <feComposite in="SourceGraphic"/>
    </filter>
  </defs>
  <g id="Grupo_1210528" data-name="Grupo 1210528" transform="translate(-611 -1919.458)">
    <g id="Grupo_1210393" data-name="Grupo 1210393" transform="translate(0 -10557.783)">
      <g id="Grupo_1210130" data-name="Grupo 1210130" transform="translate(411 11715.241)">
        <g id="Grupo_1202705" data-name="Grupo 1202705" transform="translate(209 768)">
          <g id="Grupo_1173585" data-name="Grupo 1173585" transform="translate(0 0)">
            <g id="Grupo_1173428" data-name="Grupo 1173428">
              <g id="Grupo_1171958" data-name="Grupo 1171958">
                <g id="Grupo_1167341" data-name="Grupo 1167341">
                  <g id="Grupo_1166792" data-name="Grupo 1166792">
                    <g transform="matrix(1, 0, 0, 1, -9, -6)" filter="url(#Trazado_904820)">
                      <g id="Trazado_904820-2" data-name="Trazado 904820" transform="translate(9 6)" fill="#fef9e7">
                        <path d="M 39.99999618530273 78.50002288818359 C 34.80187225341797 78.50002288818359 29.76002883911133 77.4822998046875 25.01451873779297 75.47511291503906 C 20.43014144897461 73.53608703613281 16.31264114379883 70.7598876953125 12.77638530731201 67.22362518310547 C 9.240129470825195 63.6873664855957 6.463929653167725 59.56986618041992 4.524896144866943 54.98548889160156 C 2.517718315124512 50.2399787902832 1.499996185302734 45.19814300537109 1.499996185302734 40.0000114440918 C 1.499996185302734 34.8018798828125 2.517718315124512 29.76003456115723 4.524896144866943 25.01453399658203 C 6.463929653167725 20.43015670776367 9.240129470825195 16.31264495849609 12.77638530731201 12.77638912200928 C 16.31264114379883 9.240133285522461 20.43014144897461 6.46393346786499 25.01451873779297 4.524900436401367 C 29.76002883911133 2.517722606658936 34.80186462402344 1.500000357627869 39.99999618530273 1.500000357627869 C 45.19812774658203 1.500000357627869 50.23996353149414 2.517722606658936 54.9854736328125 4.524900436401367 C 59.56985092163086 6.46393346786499 63.68735122680664 9.240133285522461 67.22360992431641 12.77638912200928 C 70.75986480712891 16.31264495849609 73.53606414794922 20.43015670776367 75.47509765625 25.01453399658203 C 77.48227691650391 29.76003456115723 78.5 34.8018798828125 78.5 40.0000114440918 C 78.5 45.19814300537109 77.48227691650391 50.2399787902832 75.47509765625 54.98548889160156 C 73.53606414794922 59.56986618041992 70.75986480712891 63.6873664855957 67.22360992431641 67.22362518310547 C 63.68735122680664 70.7598876953125 59.56985092163086 73.53608703613281 54.9854736328125 75.47511291503906 C 50.23996353149414 77.4822998046875 45.1981201171875 78.50002288818359 39.99999618530273 78.50002288818359 Z" stroke="none"/>
                        <path d="M 39.99999618530273 3 C 35.00370407104492 3 30.15846252441406 3.977851867675781 25.59885025024414 5.906410217285156 C 21.19327545166016 7.769813537597656 17.23603439331055 10.43806457519531 13.83705139160156 13.83705139160156 C 10.43806457519531 17.23603820800781 7.769805908203125 21.19327926635742 5.906410217285156 25.59885025024414 C 3.977851867675781 30.15846633911133 2.999992370605469 35.00371932983398 2.999992370605469 40.0000114440918 C 2.999992370605469 44.99630355834961 3.977851867675781 49.84154510498047 5.906410217285156 54.40115737915039 C 7.769805908203125 58.80674743652344 10.43806457519531 62.76398468017578 13.83705139160156 66.16297149658203 C 17.23603439331055 69.56195831298828 21.19327545166016 72.23020935058594 25.59885025024414 74.09361267089844 C 30.15846252441406 76.02217102050781 35.00370407104492 77.00002288818359 39.99999618530273 77.00002288818359 C 44.99628829956055 77.00002288818359 49.84152984619141 76.02217102050781 54.40114212036133 74.09361267089844 C 58.80671691894531 72.23020935058594 62.76395416259766 69.56195831298828 66.16294097900391 66.16297149658203 C 69.56192779541016 62.76398468017578 72.23017883300781 58.80674743652344 74.09358215332031 54.40115737915039 C 76.02214050292969 49.84154510498047 77 44.99630355834961 77 40.0000114440918 C 77 35.00371932983398 76.02214050292969 30.15846633911133 74.09358215332031 25.59885025024414 C 72.23017883300781 21.19327926635742 69.56192779541016 17.23603820800781 66.16294097900391 13.83705139160156 C 62.76395416259766 10.43806457519531 58.80671691894531 7.769813537597656 54.40114212036133 5.906410217285156 C 49.84152984619141 3.977851867675781 44.99628829956055 3 39.99999618530273 3 M 39.99999618530273 0 C 62.09138488769531 0 80 17.90861129760742 80 40.0000114440918 C 80 62.09140014648438 62.09138488769531 80.00002288818359 39.99999618530273 80.00002288818359 C 17.90861129760742 80.00002288818359 -7.62939453125e-06 62.09140014648438 -7.62939453125e-06 40.0000114440918 C -7.62939453125e-06 17.90861129760742 17.90861129760742 0 39.99999618530273 0 Z" stroke="none" fill="#887013"/>
                      </g>
                    </g>
                  </g>
                </g>
              </g>
            </g>
          </g>
        </g>
      </g>
    </g>
    <g id="task_1045610_1_" data-name="task_1045610 (1)" transform="translate(634.625 1937.086)">
      <g id="Grupo_1210519" data-name="Grupo 1210519" transform="translate(0.746 35.389)">
        <rect id="Rectángulo_419531" data-name="Rectángulo 419531" width="14.612" height="14.612" fill="#c2fb3b"/>
        <rect id="Rectángulo_419532" data-name="Rectángulo 419532" width="14.612" height="14.612" transform="translate(17.322)" fill="#c2fb3b"/>
        <rect id="Rectángulo_419533" data-name="Rectángulo 419533" width="14.612" height="14.612" transform="translate(34.645)" fill="#c2fb3b"/>
      </g>
      <g id="Grupo_1210520" data-name="Grupo 1210520" transform="translate(4.448 38.622)">
        <path id="Trazado_1053872" data-name="Trazado 1053872" d="M48.583,398.12l-3.734-4.629,1.994-1.609,1.9,2.359,4.351-4.55,1.852,1.771Z" transform="translate(-44.849 -389.691)" fill="#91dc5a"/>
        <path id="Trazado_1053873" data-name="Trazado 1053873" d="M223.365,398.12l-3.734-4.629,1.994-1.609,1.9,2.359,4.351-4.55,1.852,1.771Z" transform="translate(-202.309 -389.691)" fill="#91dc5a"/>
        <path id="Trazado_1053874" data-name="Trazado 1053874" d="M398.147,398.12l-3.734-4.629,1.994-1.609,1.9,2.359,4.351-4.55,1.852,1.771Z" transform="translate(-359.768 -389.691)" fill="#91dc5a"/>
      </g>
      <path id="Trazado_1053875" data-name="Trazado 1053875" d="M33.583,398.12l-3.734-4.629,1.994-1.609,1.9,2.359,4.351-4.55,1.852,1.771Z" transform="translate(-26.888 -351.069)" fill="#ffe477"/>
      <circle id="Elipse_13443" data-name="Elipse 13443" cx="12.314" cy="12.314" r="12.314" transform="translate(13.06 0.743)" fill="#57a4ff"/>
      <circle id="Elipse_13444" data-name="Elipse 13444" cx="9.315" cy="9.315" r="9.315" transform="translate(19.033 3.742)" fill="#006df0"/>
      <circle id="Elipse_13445" data-name="Elipse 13445" cx="9.315" cy="9.315" r="9.315" transform="translate(16.059 3.742)" fill="#fff"/>
      <g id="Grupo_1210521" data-name="Grupo 1210521" transform="translate(20.283 11.777)">
        <circle id="Elipse_13446" data-name="Elipse 13446" cx="1.28" cy="1.28" r="1.28" transform="translate(3.811)" fill="#ffe477"/>
        <path id="Trazado_1053876" data-name="Trazado 1053876" d="M208.365,398.12l-3.734-4.629,1.994-1.609,1.9,2.359,4.351-4.55,1.852,1.771Z" transform="translate(-204.631 -362.846)" fill="#ffe477"/>
        <path id="Trazado_1053877" data-name="Trazado 1053877" d="M383.147,398.12l-3.734-4.629,1.994-1.609,1.9,2.359,4.351-4.55,1.852,1.771Z" transform="translate(-362.091 -362.846)" fill="#ffe477"/>
      </g>
      <g id="Grupo_1210522" data-name="Grupo 1210522" transform="translate(0.746 35.389)">
        <rect id="Rectángulo_419534" data-name="Rectángulo 419534" width="2.973" height="14.612" fill="#91dc5a"/>
        <rect id="Rectángulo_419535" data-name="Rectángulo 419535" width="2.973" height="14.612" transform="translate(17.322)" fill="#91dc5a"/>
        <rect id="Rectángulo_419536" data-name="Rectángulo 419536" width="2.973" height="14.612" transform="translate(34.645)" fill="#91dc5a"/>
      </g>
      <g id="Grupo_1210523" data-name="Grupo 1210523" transform="translate(2.961 38.622)">
        <path id="Trazado_1053878" data-name="Trazado 1053878" d="M31.336,413.407l1.094-.882-.586-.726-1.994,1.609,3.734,4.629.806-.843Z" transform="translate(-29.849 -409.607)" fill="#ffb655"/>
        <path id="Trazado_1053879" data-name="Trazado 1053879" d="M77.986,394.241l3.641-3.807-.777-.743L77.306,393.4Z" transform="translate(-72.603 -389.691)" fill="#ffb655"/>
      </g>
      <path id="Trazado_1053880" data-name="Trazado 1053880" d="M134.726,19.814A12.317,12.317,0,0,1,145.554,7.589a12.315,12.315,0,1,0-1.487,24.54,12.455,12.455,0,0,0,1.487-.089A12.317,12.317,0,0,1,134.726,19.814Z" transform="translate(-118.692 -6.757)" fill="#006df0"/>
      <path id="Trazado_1053881" data-name="Trazado 1053881" d="M164.988,47.077a9.317,9.317,0,0,1,7.828-9.2,9.315,9.315,0,1,0,0,18.394A9.317,9.317,0,0,1,164.988,47.077Z" transform="translate(-145.955 -34.019)" fill="#e0e0e2"/>
      <g id="Grupo_1210524" data-name="Grupo 1210524" transform="translate(20.283 38.622)">
        <path id="Trazado_1053882" data-name="Trazado 1053882" d="M206.118,413.407l1.094-.882-.586-.726-1.994,1.609,3.734,4.629.806-.843Z" transform="translate(-204.631 -409.607)" fill="#ffb655"/>
        <path id="Trazado_1053883" data-name="Trazado 1053883" d="M252.768,394.241l3.641-3.807-.777-.743-3.544,3.707Z" transform="translate(-247.385 -389.691)" fill="#ffb655"/>
        <path id="Trazado_1053884" data-name="Trazado 1053884" d="M427.55,394.241l3.641-3.807-.777-.743L426.87,393.4Z" transform="translate(-404.844 -389.691)" fill="#ffb655"/>
        <path id="Trazado_1053885" data-name="Trazado 1053885" d="M380.9,413.407l1.094-.882-.586-.726-1.994,1.609,3.734,4.629.806-.843Z" transform="translate(-362.091 -409.607)" fill="#ffb655"/>
      </g>
      <path id="Trazado_1053886" data-name="Trazado 1053886" d="M31.5,381.886l-2.927-2.8-4.28,4.476-1.838-2.279L19.3,383.826l4.731,5.866Zm-9.268,1.489,1.967,2.439,4.422-4.624.777.743-5.268,5.509-2.736-3.392Z" transform="translate(-17.386 -341.517)"/>
      <path id="Trazado_1053887" data-name="Trazado 1053887" d="M136.567,26.094v4.339h1.487V26.094a13.058,13.058,0,1,0-1.487,0Zm.743-24.608A11.571,11.571,0,1,1,125.74,13.058,11.584,11.584,0,0,1,137.311,1.487Z" transform="translate(-111.936)"/>
      <path id="Trazado_1053888" data-name="Trazado 1053888" d="M164.573,50.379A10.058,10.058,0,1,0,154.515,40.32,10.07,10.07,0,0,0,164.573,50.379Zm-.743-18.6v1.214h1.487V31.781a8.586,8.586,0,0,1,7.8,7.8H171.9v1.487h1.214a8.587,8.587,0,0,1-7.8,7.8V47.646H163.83V48.86a8.587,8.587,0,0,1-7.8-7.8h1.214V39.577h-1.214A8.587,8.587,0,0,1,163.83,31.781Z" transform="translate(-139.198 -27.263)"/>
      <path id="Trazado_1053889" data-name="Trazado 1053889" d="M188.321,156.9l.494-1.4a6.155,6.155,0,0,1-3.744-3.77l-1.406.484A7.654,7.654,0,0,0,188.321,156.9Z" transform="translate(-165.459 -136.695)"/>
      <path id="Trazado_1053890" data-name="Trazado 1053890" d="M306.892,90.354l1.465-.252a7.6,7.6,0,0,0-1.329-3.149l-1.2.872A6.1,6.1,0,0,1,306.892,90.354Z" transform="translate(-275.511 -78.334)"/>
      <path id="Trazado_1053891" data-name="Trazado 1053891" d="M271.313,57.632a7.534,7.534,0,0,0-1.558-.533l-.324,1.451a6.045,6.045,0,0,1,1.25.428Z" transform="translate(-242.725 -51.44)"/>
      <path id="Trazado_1053892" data-name="Trazado 1053892" d="M290.825,69.982l1.066-1.036a7.64,7.64,0,0,0-1.266-1.049l-.82,1.24A6.152,6.152,0,0,1,290.825,69.982Z" transform="translate(-261.081 -61.168)"/>
      <path id="Trazado_1053893" data-name="Trazado 1053893" d="M233.118,95.084a2.013,2.013,0,0,0,.167.805l-.439.439,1.051,1.051.439-.439a2.023,2.023,0,0,0,1.61,0l.754.754,1.051-1.051L237,95.889a2.023,2.023,0,0,0,0-1.61l2.177-2.177-1.051-1.051-2.177,2.177a2.023,2.023,0,0,0-2.828,1.857Zm2.023-.537a.537.537,0,1,1-.537.537A.537.537,0,0,1,235.141,94.547Z" transform="translate(-209.766 -82.026)"/>
      <rect id="Rectángulo_419537" data-name="Rectángulo 419537" width="1.487" height="3.685" transform="translate(23.98 10.612) rotate(135)"/>
      <rect id="Rectángulo_419538" data-name="Rectángulo 419538" width="1.487" height="1.487" transform="translate(28.758 16.618)"/>
      <rect id="Rectángulo_419539" data-name="Rectángulo 419539" width="1.487" height="1.487" transform="translate(26.28 16.618)"/>
      <g id="Grupo_1210525" data-name="Grupo 1210525" transform="translate(2.183 37.123)">
        <rect id="Rectángulo_419540" data-name="Rectángulo 419540" width="1.487" height="1.487" transform="translate(2.973)" fill="#fff"/>
        <rect id="Rectángulo_419541" data-name="Rectángulo 419541" width="1.982" height="1.487" fill="#fff"/>
        <rect id="Rectángulo_419542" data-name="Rectángulo 419542" width="1.487" height="1.487" transform="translate(5.451)" fill="#fff"/>
      </g>
      <path id="Trazado_1053894" data-name="Trazado 1053894" d="M206.281,381.886l-2.926-2.8-4.28,4.476-1.838-2.279-3.152,2.542,4.731,5.866Zm-9.268,1.489,1.967,2.439,4.422-4.624.778.743-5.268,5.509-2.736-3.392Z" transform="translate(-174.847 -341.517)"/>
      <g id="Grupo_1210526" data-name="Grupo 1210526" transform="translate(19.505 37.123)">
        <rect id="Rectángulo_419543" data-name="Rectángulo 419543" width="1.487" height="1.487" transform="translate(5.451)" fill="#fff"/>
        <rect id="Rectángulo_419544" data-name="Rectángulo 419544" width="1.982" height="1.487" fill="#fff"/>
        <rect id="Rectángulo_419545" data-name="Rectángulo 419545" width="1.487" height="1.487" transform="translate(2.973)" fill="#fff"/>
      </g>
      <path id="Trazado_1053895" data-name="Trazado 1053895" d="M381.063,381.886l-2.927-2.8-4.28,4.476-1.838-2.279-3.152,2.542,4.731,5.866Zm-9.268,1.489,1.967,2.439,4.422-4.624.777.743-5.268,5.509-2.736-3.392Z" transform="translate(-332.306 -341.517)"/>
      <path id="Trazado_1053896" data-name="Trazado 1053896" d="M358.318,342.813v-.743h-1.487v.743h-7.264v16.1h16.1v-16.1Zm5.861,14.612H351.054V344.3h13.125Z" transform="translate(-314.919 -308.168)"/>
      <g id="Grupo_1210527" data-name="Grupo 1210527" transform="translate(36.829 37.123)">
        <rect id="Rectángulo_419546" data-name="Rectángulo 419546" width="1.487" height="1.487" transform="translate(2.973)" fill="#fff"/>
        <rect id="Rectángulo_419547" data-name="Rectángulo 419547" width="1.487" height="1.487" transform="translate(5.451)" fill="#fff"/>
        <rect id="Rectángulo_419548" data-name="Rectángulo 419548" width="1.982" height="1.487" fill="#fff"/>
      </g>
      <rect id="Rectángulo_419549" data-name="Rectángulo 419549" width="1.487" height="1.487" transform="translate(41.913 31.425)"/>
      <path id="Trazado_1053897" data-name="Trazado 1053897" d="M290.243,279.02H274v1.487h14.754V281.8h1.487Z" transform="translate(-246.844 -251.367)"/>
      <path id="Trazado_1053898" data-name="Trazado 1053898" d="M74.788,280.507H89.624V279.02H73.3v2.78h1.487Z" transform="translate(-66.034 -251.367)"/>
      <path id="Trazado_1053899" data-name="Trazado 1053899" d="M8.754,342.07H7.267v.743H0v16.1H16.1v-16.1H8.754Zm5.861,15.355H1.49V344.3H14.615Z" transform="translate(0 -308.168)"/>
      <rect id="Rectángulo_419550" data-name="Rectángulo 419550" width="1.487" height="1.487" transform="translate(7.267 31.425)"/>
      <path id="Trazado_1053900" data-name="Trazado 1053900" d="M183.578,342.07h-1.487v.743h-7.306v16.1h16.1v-16.1h-7.306v-.743Zm5.819,15.355H176.272V344.3H189.4Z" transform="translate(-157.46 -308.168)"/>
      <rect id="Rectángulo_419551" data-name="Rectángulo 419551" width="1.487" height="1.487" transform="translate(24.631 31.425)"/>
    </g>
  </g>
</svg>
