<svg xmlns="http://www.w3.org/2000/svg" xmlns:xlink="http://www.w3.org/1999/xlink" width="98" height="98" viewBox="0 0 98 98">
  <defs>
    <filter id="Trazado_904820" x="0" y="0" width="98" height="98" filterUnits="userSpaceOnUse">
      <feOffset dy="3" input="SourceAlpha"/>
      <feGaussianBlur stdDeviation="3" result="blur"/>
      <feFlood flood-opacity="0.161"/>
      <feComposite operator="in" in2="blur"/>
      <feComposite in="SourceGraphic"/>
    </filter>
  </defs>
  <g id="Grupo_1210529" data-name="Grupo 1210529" transform="translate(-1031 -1920.458)">
    <g id="Grupo_1210394" data-name="Grupo 1210394" transform="translate(0 -10557.783)">
      <g id="Grupo_1210131" data-name="Grupo 1210131" transform="translate(0 4736.458)">
        <g id="Grupo_1209196" data-name="Grupo 1209196" transform="translate(1040 7747.783)">
          <g id="Grupo_1202705" data-name="Grupo 1202705" transform="translate(0 0)">
            <g id="Grupo_1173585" data-name="Grupo 1173585" transform="translate(0 0)">
              <g id="Grupo_1173428" data-name="Grupo 1173428">
                <g id="Grupo_1171958" data-name="Grupo 1171958">
                  <g id="Grupo_1167341" data-name="Grupo 1167341">
                    <g id="Grupo_1166792" data-name="Grupo 1166792">
                      <g transform="matrix(1, 0, 0, 1, -9, -6)" filter="url(#Trazado_904820)">
                        <g id="Trazado_904820-2" data-name="Trazado 904820" transform="translate(9 6)" fill="#fef9e7">
                          <path d="M 39.99999618530273 78.50002288818359 C 34.80187225341797 78.50002288818359 29.76002883911133 77.4822998046875 25.01451873779297 75.47511291503906 C 20.43014144897461 73.53608703613281 16.31264114379883 70.7598876953125 12.77638530731201 67.22362518310547 C 9.240129470825195 63.6873664855957 6.463929653167725 59.56986618041992 4.524896144866943 54.98548889160156 C 2.517718315124512 50.2399787902832 1.499996185302734 45.19814300537109 1.499996185302734 40.0000114440918 C 1.499996185302734 34.8018798828125 2.517718315124512 29.76003456115723 4.524896144866943 25.01453399658203 C 6.463929653167725 20.43015670776367 9.240129470825195 16.31264495849609 12.77638530731201 12.77638912200928 C 16.31264114379883 9.240133285522461 20.43014144897461 6.46393346786499 25.01451873779297 4.524900436401367 C 29.76002883911133 2.517722606658936 34.80186462402344 1.500000357627869 39.99999618530273 1.500000357627869 C 45.19812774658203 1.500000357627869 50.23996353149414 2.517722606658936 54.9854736328125 4.524900436401367 C 59.56985092163086 6.46393346786499 63.68735122680664 9.240133285522461 67.22360992431641 12.77638912200928 C 70.75986480712891 16.31264495849609 73.53606414794922 20.43015670776367 75.47509765625 25.01453399658203 C 77.48227691650391 29.76003456115723 78.5 34.8018798828125 78.5 40.0000114440918 C 78.5 45.19814300537109 77.48227691650391 50.2399787902832 75.47509765625 54.98548889160156 C 73.53606414794922 59.56986618041992 70.75986480712891 63.6873664855957 67.22360992431641 67.22362518310547 C 63.68735122680664 70.7598876953125 59.56985092163086 73.53608703613281 54.9854736328125 75.47511291503906 C 50.23996353149414 77.4822998046875 45.1981201171875 78.50002288818359 39.99999618530273 78.50002288818359 Z" stroke="none"/>
                          <path d="M 39.99999618530273 3 C 35.00370407104492 3 30.15846252441406 3.977851867675781 25.59885025024414 5.906410217285156 C 21.19327545166016 7.769813537597656 17.23603439331055 10.43806457519531 13.83705139160156 13.83705139160156 C 10.43806457519531 17.23603820800781 7.769805908203125 21.19327926635742 5.906410217285156 25.59885025024414 C 3.977851867675781 30.15846633911133 2.999992370605469 35.00371932983398 2.999992370605469 40.0000114440918 C 2.999992370605469 44.99630355834961 3.977851867675781 49.84154510498047 5.906410217285156 54.40115737915039 C 7.769805908203125 58.80674743652344 10.43806457519531 62.76398468017578 13.83705139160156 66.16297149658203 C 17.23603439331055 69.56195831298828 21.19327545166016 72.23020935058594 25.59885025024414 74.09361267089844 C 30.15846252441406 76.02217102050781 35.00370407104492 77.00002288818359 39.99999618530273 77.00002288818359 C 44.99628829956055 77.00002288818359 49.84152984619141 76.02217102050781 54.40114212036133 74.09361267089844 C 58.80671691894531 72.23020935058594 62.76395416259766 69.56195831298828 66.16294097900391 66.16297149658203 C 69.56192779541016 62.76398468017578 72.23017883300781 58.80674743652344 74.09358215332031 54.40115737915039 C 76.02214050292969 49.84154510498047 77 44.99630355834961 77 40.0000114440918 C 77 35.00371932983398 76.02214050292969 30.15846633911133 74.09358215332031 25.59885025024414 C 72.23017883300781 21.19327926635742 69.56192779541016 17.23603820800781 66.16294097900391 13.83705139160156 C 62.76395416259766 10.43806457519531 58.80671691894531 7.769813537597656 54.40114212036133 5.906410217285156 C 49.84152984619141 3.977851867675781 44.99628829956055 3 39.99999618530273 3 M 39.99999618530273 0 C 62.09138488769531 0 80 17.90861129760742 80 40.0000114440918 C 80 62.09140014648438 62.09138488769531 80.00002288818359 39.99999618530273 80.00002288818359 C 17.90861129760742 80.00002288818359 -7.62939453125e-06 62.09140014648438 -7.62939453125e-06 40.0000114440918 C -7.62939453125e-06 17.90861129760742 17.90861129760742 0 39.99999618530273 0 Z" stroke="none" fill="#887013"/>
                        </g>
                      </g>
                    </g>
                  </g>
                </g>
              </g>
            </g>
          </g>
        </g>
      </g>
    </g>
    <g id="control_1622601" transform="translate(1055.538 1940.996)">
      <path id="Trazado_1053901" data-name="Trazado 1053901" d="M299.57,19.419V16.15l-2.128-.7a7.961,7.961,0,0,0-.588-1.417l.9-1.9a9.809,9.809,0,0,0-2.312-2.312l-1.9.9a7.933,7.933,0,0,0-1.417-.588L291.42,8h-3.269l-.7,2.128-1.417.588-1.9-.9a9.81,9.81,0,0,0-2.312,2.312l.9,1.9-.588,1.417-2.129.7v3.269l2.128.7.588,1.417-.9,1.9a9.81,9.81,0,0,0,2.312,2.312l1.9-.9,1.417.588.7,2.129h3.269l.7-2.128a7.958,7.958,0,0,0,1.417-.588l1.9.9a9.81,9.81,0,0,0,2.312-2.312l-.9-1.9a7.939,7.939,0,0,0,.588-1.417Zm0,0" transform="translate(-251.461 -7.184)" fill="#a4a6a1"/>
      <path id="Trazado_1053902" data-name="Trazado 1053902" d="M337.785,60.892A4.892,4.892,0,1,1,332.892,56,4.893,4.893,0,0,1,337.785,60.892Zm0,0" transform="translate(-294.568 -50.292)" fill="#b8e6f9"/>
      <path id="Trazado_1053903" data-name="Trazado 1053903" d="M355.784,90.56a1.631,1.631,0,1,0-2.675,0A1.731,1.731,0,0,0,352,92.167v1.7a4.865,4.865,0,0,0,4.892,0v-1.7A1.731,1.731,0,0,0,355.784,90.56Zm0,0" transform="translate(-316.122 -79.03)" fill="#f25f5c"/>
      <path id="Trazado_1053904" data-name="Trazado 1053904" d="M27.57,51.419V48.15l-2.128-.7a7.958,7.958,0,0,0-.588-1.417l.9-1.9a9.809,9.809,0,0,0-2.312-2.312l-1.9.9a7.933,7.933,0,0,0-1.417-.588L19.42,40H16.151l-.7,2.128-1.417.588-1.9-.9a9.809,9.809,0,0,0-2.312,2.312l.9,1.9-.589,1.416L8,48.15v3.269l2.128.7.588,1.417-.9,1.9a9.809,9.809,0,0,0,2.312,2.312l1.9-.9,1.417.588.7,2.129h3.269l.7-2.128a7.958,7.958,0,0,0,1.417-.588l1.9.9a9.809,9.809,0,0,0,2.312-2.312l-.9-1.9a7.934,7.934,0,0,0,.588-1.417Zm0,0" transform="translate(-7.185 -35.923)" fill="#a4a6a1"/>
      <path id="Trazado_1053905" data-name="Trazado 1053905" d="M157.2,268.371V264.83l-2.306-.763a8.686,8.686,0,0,0-.637-1.536l.979-2.062a10.626,10.626,0,0,0-2.5-2.5l-2.062.979a8.521,8.521,0,0,0-1.536-.637L148.371,256H144.83l-.763,2.306-1.534.637-2.062-.979a10.625,10.625,0,0,0-2.5,2.5l.979,2.062-.637,1.536-2.308.763v3.541l2.306.763.637,1.536-.979,2.062a10.626,10.626,0,0,0,2.5,2.5l2.062-.979,1.536.637.763,2.306h3.541l.763-2.306a8.687,8.687,0,0,0,1.536-.637l2.062.979a10.626,10.626,0,0,0,2.5-2.5l-.979-2.062a8.521,8.521,0,0,0,.637-1.536Zm0,0" transform="translate(-122.138 -229.907)" fill="#a4a6a1"/>
      <path id="Trazado_1053906" data-name="Trazado 1053906" d="M65.785,92.892A4.892,4.892,0,1,1,60.892,88,4.893,4.893,0,0,1,65.785,92.892Zm0,0" transform="translate(-50.292 -79.03)" fill="#31bdf9"/>
      <path id="Trazado_1053907" data-name="Trazado 1053907" d="M195.416,309.708A5.708,5.708,0,1,1,189.708,304,5.708,5.708,0,0,1,195.416,309.708Zm0,0" transform="translate(-165.245 -273.014)" fill="#ffc34d"/>
      <path id="Trazado_1053908" data-name="Trazado 1053908" d="M0,315.416H3.262v-5.378A6.039,6.039,0,0,1,9.3,304a1.3,1.3,0,0,1,1.3,1.3v13.657a2.165,2.165,0,0,1-2.166,2.166H0" transform="translate(0 -273.014)" fill="#b8e6f9"/>
      <path id="Trazado_1053909" data-name="Trazado 1053909" d="M386.6,315.416h-3.262v-5.378A6.039,6.039,0,0,0,377.3,304a1.3,1.3,0,0,0-1.3,1.3v13.657a2.166,2.166,0,0,0,2.166,2.166H386.6" transform="translate(-337.676 -273.014)" fill="#b8e6f9"/>
      <path id="Trazado_1053910" data-name="Trazado 1053910" d="M325.708,48a5.708,5.708,0,1,0,5.708,5.708A5.715,5.715,0,0,0,325.708,48Zm1.631,9.439a4.021,4.021,0,0,1-3.262,0v-1.2a.914.914,0,0,1,.593-.848.815.815,0,0,0,.372-1.222.815.815,0,1,1,1.332,0,.815.815,0,0,0,.372,1.222.914.914,0,0,1,.593.848Zm1.619-1.3a2.517,2.517,0,0,0-.882-1.827,2.412,2.412,0,0,0,.078-.608,2.446,2.446,0,0,0-4.893,0,2.414,2.414,0,0,0,.078.608,2.515,2.515,0,0,0-.882,1.827,4.039,4.039,0,0,1-.827-2.435,4.077,4.077,0,1,1,8.154,0A4.039,4.039,0,0,1,328.958,56.143Zm0,0" transform="translate(-287.383 -43.108)"/>
      <path id="Trazado_1053911" data-name="Trazado 1053911" d="M292.642,8.192,290.9,7.615c-.095-.264-.2-.525-.324-.781l.732-1.544a.816.816,0,0,0-.073-.823,10.612,10.612,0,0,0-2.5-2.5.815.815,0,0,0-.823-.073l-1.544.732c-.256-.121-.517-.229-.781-.324L285.009.559A.813.813,0,0,0,284.236,0h-3.27a.814.814,0,0,0-.774.559L279.6,2.334l-.737.306-1.577-.749a.815.815,0,0,0-.823.073,10.612,10.612,0,0,0-2.5,2.5.815.815,0,0,0-.073.823l.749,1.577-.306.737-1.775.588a.813.813,0,0,0-.559.773v3.27a.815.815,0,0,0,.559.774l1.775.588.306.737-.749,1.577a.816.816,0,0,0,.073.823,10.612,10.612,0,0,0,2.5,2.5.817.817,0,0,0,.823.073l1.577-.749.737.307.588,1.775a.813.813,0,0,0,.773.559h3.27a.814.814,0,0,0,.774-.559l.577-1.741c.264-.095.525-.2.781-.324l1.544.732a.817.817,0,0,0,.823-.073,10.612,10.612,0,0,0,2.5-2.5.815.815,0,0,0,.073-.823l-.732-1.544c.121-.256.229-.517.324-.781l1.741-.577a.813.813,0,0,0,.559-.773V8.966a.814.814,0,0,0-.559-.774Zm-1.071,3.454-1.57.52a.816.816,0,0,0-.524.537,7.164,7.164,0,0,1-.527,1.27.819.819,0,0,0-.017.733l.693,1.459a9.08,9.08,0,0,1-1.46,1.46l-1.459-.693a.814.814,0,0,0-.733.017,7.054,7.054,0,0,1-1.271.527.813.813,0,0,0-.537.524l-.52,1.57h-2.091l-.52-1.57a.817.817,0,0,0-.461-.5l-1.417-.588a.818.818,0,0,0-.662.017l-1.459.693a8.992,8.992,0,0,1-1.46-1.46l.693-1.459a.816.816,0,0,0,.017-.662l-.588-1.417a.812.812,0,0,0-.5-.461l-1.571-.521V9.555l1.569-.52a.816.816,0,0,0,.5-.461l.588-1.417a.815.815,0,0,0-.017-.662l-.693-1.459a9.081,9.081,0,0,1,1.46-1.46l1.459.693a.815.815,0,0,0,.662.017l1.417-.588a.812.812,0,0,0,.461-.5l.521-1.57h2.091l.52,1.57a.816.816,0,0,0,.537.524,7.167,7.167,0,0,1,1.271.527.822.822,0,0,0,.733.017l1.459-.693a9.08,9.08,0,0,1,1.46,1.46l-.693,1.459a.814.814,0,0,0,.017.733,7.052,7.052,0,0,1,.527,1.27.813.813,0,0,0,.524.537l1.57.52Zm0,0" transform="translate(-244.276 0)"/>
      <path id="Trazado_1053912" data-name="Trazado 1053912" d="M53.708,91.416A5.708,5.708,0,1,0,48,85.708,5.715,5.715,0,0,0,53.708,91.416Zm0-9.785a4.077,4.077,0,1,1-4.077,4.077A4.082,4.082,0,0,1,53.708,81.631Zm0,0" transform="translate(-43.108 -71.846)"/>
      <path id="Trazado_1053913" data-name="Trazado 1053913" d="M.559,45.01l1.775.588.306.737-.749,1.577a.816.816,0,0,0,.073.823,10.612,10.612,0,0,0,2.5,2.5.815.815,0,0,0,.823.073l1.577-.749.737.307.588,1.775a.813.813,0,0,0,.773.559h3.27a.814.814,0,0,0,.774-.559l.577-1.741c.264-.095.525-.2.781-.324l1.544.732a.816.816,0,0,0,.823-.073,10.612,10.612,0,0,0,2.5-2.5.815.815,0,0,0,.073-.823l-.732-1.544c.121-.256.229-.517.324-.781l1.741-.577a.813.813,0,0,0,.559-.773v-3.27a.814.814,0,0,0-.559-.774L18.9,39.615c-.095-.264-.2-.525-.324-.781l.732-1.544a.816.816,0,0,0-.073-.823,10.612,10.612,0,0,0-2.5-2.5.82.82,0,0,0-.823-.073l-1.544.732c-.256-.121-.517-.229-.781-.324l-.577-1.741A.813.813,0,0,0,12.235,32H8.966a.814.814,0,0,0-.774.559L7.6,34.335l-.737.306-1.577-.749a.818.818,0,0,0-.822.073,10.612,10.612,0,0,0-2.5,2.5.816.816,0,0,0-.073.823l.749,1.577-.306.737-1.775.588A.814.814,0,0,0,0,40.966v3.27a.814.814,0,0,0,.559.774Zm1.071-3.454,1.57-.52a.816.816,0,0,0,.5-.461l.588-1.417a.815.815,0,0,0-.017-.662l-.693-1.459a9.08,9.08,0,0,1,1.46-1.46l1.459.693a.815.815,0,0,0,.662.017L8.573,35.7a.812.812,0,0,0,.461-.5l.521-1.57h2.091l.52,1.57a.816.816,0,0,0,.537.524,7.166,7.166,0,0,1,1.27.527.819.819,0,0,0,.733.017l1.459-.693a9.08,9.08,0,0,1,1.46,1.46L16.932,38.5a.814.814,0,0,0,.017.733,7.054,7.054,0,0,1,.527,1.271.813.813,0,0,0,.524.537l1.57.52v2.091l-1.57.52a.816.816,0,0,0-.524.537,7.166,7.166,0,0,1-.527,1.271.819.819,0,0,0-.017.733l.693,1.459a9.08,9.08,0,0,1-1.46,1.46l-1.459-.693a.812.812,0,0,0-.733.017,7.054,7.054,0,0,1-1.27.527.813.813,0,0,0-.537.524l-.52,1.57H9.555L9.035,50a.817.817,0,0,0-.461-.5l-1.417-.588a.818.818,0,0,0-.662.017l-1.459.693a8.993,8.993,0,0,1-1.46-1.46l.693-1.459a.816.816,0,0,0,.017-.662L3.7,44.629a.822.822,0,0,0-.5-.462l-1.57-.52Zm0,0" transform="translate(0 -28.739)"/>
      <path id="Trazado_1053914" data-name="Trazado 1053914" d="M182.523,296a6.523,6.523,0,1,0,6.523,6.523A6.531,6.531,0,0,0,182.523,296Zm0,8.97a.816.816,0,0,1-.815-.815h-1.631a2.443,2.443,0,0,0,1.631,2.3v.892a4.887,4.887,0,0,1,0-9.638v.892a2.443,2.443,0,0,0-1.631,2.3c0,1.72,1.379,2.151,2.2,2.408.921.287,1.059.4,1.059.854A.816.816,0,0,1,182.523,304.97Zm.815,2.373v-.892a2.443,2.443,0,0,0,1.631-2.3c0-1.723-1.38-2.154-2.2-2.41-.919-.287-1.057-.4-1.057-.851a.815.815,0,1,1,1.631,0h1.631a2.443,2.443,0,0,0-1.631-2.3V297.7a4.887,4.887,0,0,1,0,9.638Zm0,0" transform="translate(-158.061 -265.83)"/>
      <path id="Trazado_1053915" data-name="Trazado 1053915" d="M148.718,252.812a11.431,11.431,0,0,0-2.7-2.7.821.821,0,0,0-.823-.072l-1.7.808a9.153,9.153,0,0,0-.9-.374l-.634-1.918a.815.815,0,0,0-.774-.558h-3.542a.815.815,0,0,0-.774.559l-.647,1.953-.855.356-1.735-.825a.82.82,0,0,0-.822.072,11.421,11.421,0,0,0-2.7,2.7.816.816,0,0,0-.072.823l.825,1.735-.356.855-1.953.647a.812.812,0,0,0-.558.772v3.542a.815.815,0,0,0,.559.774l1.953.646.356.856-.825,1.735a.816.816,0,0,0,.072.822,11.422,11.422,0,0,0,2.7,2.7.817.817,0,0,0,.823.072l1.735-.825.855.356.647,1.953a.812.812,0,0,0,.772.558h3.542a.814.814,0,0,0,.774-.559l.634-1.918a9.317,9.317,0,0,0,.9-.374l1.7.808a.816.816,0,0,0,.822-.072,11.413,11.413,0,0,0,2.7-2.7.815.815,0,0,0,.073-.823l-.808-1.7a9.182,9.182,0,0,0,.374-.9l1.918-.633a.813.813,0,0,0,.559-.773v-3.542a.815.815,0,0,0-.559-.774l-1.918-.634a9.307,9.307,0,0,0-.374-.9l.808-1.7A.816.816,0,0,0,148.718,252.812Zm.483,5.422V260.6l-1.747.578a.816.816,0,0,0-.524.536,7.791,7.791,0,0,1-.577,1.39.819.819,0,0,0-.017.732l.768,1.618a9.762,9.762,0,0,1-1.652,1.652l-1.618-.768a.81.81,0,0,0-.734.017,7.746,7.746,0,0,1-1.388.577.812.812,0,0,0-.536.524L140.6,269.2h-2.363l-.579-1.747a.815.815,0,0,0-.461-.5l-1.534-.637a.816.816,0,0,0-.662.017l-1.618.768a9.763,9.763,0,0,1-1.652-1.652l.768-1.618a.82.82,0,0,0,.017-.662l-.637-1.535a.81.81,0,0,0-.5-.461l-1.749-.579v-2.363l1.747-.579a.816.816,0,0,0,.5-.461l.637-1.534a.816.816,0,0,0-.017-.662l-.768-1.618a9.762,9.762,0,0,1,1.652-1.652L135,252.5a.815.815,0,0,0,.662.017l1.534-.637a.811.811,0,0,0,.461-.5l.58-1.749H140.6l.579,1.747a.816.816,0,0,0,.536.524,7.8,7.8,0,0,1,1.39.577.821.821,0,0,0,.732.017l1.618-.768a9.762,9.762,0,0,1,1.652,1.652L146.336,255a.817.817,0,0,0,.017.734,7.743,7.743,0,0,1,.577,1.388.812.812,0,0,0,.524.536Zm0,0" transform="translate(-114.954 -222.722)"/>
      <path id="Trazado_1053916" data-name="Trazado 1053916" d="M11.416,311.774V298.117A2.118,2.118,0,0,0,9.3,296a6.862,6.862,0,0,0-6.853,6.853v4.562H0v1.631H3.262a.814.814,0,0,0,.815-.815v-5.378A5.228,5.228,0,0,1,9.3,297.631a.486.486,0,0,1,.485.485v13.657a1.352,1.352,0,0,1-1.35,1.35H0v1.631H8.435a2.986,2.986,0,0,0,2.981-2.981Zm0,0" transform="translate(0 -265.83)"/>
      <path id="Trazado_1053917" data-name="Trazado 1053917" d="M376.97,302.853A6.862,6.862,0,0,0,370.116,296,2.118,2.118,0,0,0,368,298.116v13.657a2.986,2.986,0,0,0,2.981,2.981h8.435v-1.631h-8.435a1.352,1.352,0,0,1-1.35-1.35V298.116a.486.486,0,0,1,.485-.485,5.228,5.228,0,0,1,5.223,5.223v5.378a.814.814,0,0,0,.815.815h3.262v-1.631H376.97Zm0,0" transform="translate(-330.491 -265.829)"/>
      <path id="Trazado_1053918" data-name="Trazado 1053918" d="M78.91,115.124a.817.817,0,0,0,.363-.678V112H77.642v2.01L75.558,115.4l.9,1.357Zm0,0" transform="translate(-67.857 -100.584)"/>
      <path id="Trazado_1053919" data-name="Trazado 1053919" d="M0,8H1.631V9.631H0ZM0,8" transform="translate(0 -7.185)"/>
      <path id="Trazado_1053920" data-name="Trazado 1053920" d="M456,208h1.631v1.631H456Zm0,0" transform="translate(-409.521 -186.799)"/>
      <path id="Trazado_1053921" data-name="Trazado 1053921" d="M360,248h1.631v1.631H360Zm0,0" transform="translate(-323.306 -222.722)"/>
      <path id="Trazado_1053922" data-name="Trazado 1053922" d="M224,0h1.631V1.631H224Zm0,0" transform="translate(-201.168)"/>
      <path id="Trazado_1053923" data-name="Trazado 1053923" d="M0,256H1.631v1.631H0Zm0,0" transform="translate(0 -229.907)"/>
    </g>
  </g>
</svg>
