<svg xmlns="http://www.w3.org/2000/svg" xmlns:xlink="http://www.w3.org/1999/xlink" width="113" height="113" viewBox="0 0 113 113">
  <defs>
    <filter id="Trazado_982547" x="0" y="0" width="113" height="113" filterUnits="userSpaceOnUse">
      <feOffset dy="3" input="SourceAlpha"/>
      <feGaussianBlur stdDeviation="3" result="blur"/>
      <feFlood flood-opacity="0.161"/>
      <feComposite operator="in" in2="blur"/>
      <feComposite in="SourceGraphic"/>
    </filter>
  </defs>
  <g id="Grupo_1210634" data-name="Grupo 1210634" transform="translate(-3920 -1280.448)">
    <g id="Grupo_1210492" data-name="Grupo 1210492" transform="translate(2782 -14421.543)">
      <g id="Grupo_1210150" data-name="Grupo 1210150" transform="translate(26 13379.992)">
        <g id="Grupo_1209055" data-name="Grupo 1209055" transform="translate(0 1091.783)">
          <g id="Grupo_1209049" data-name="Grupo 1209049">
            <g id="Grupo_1208493" data-name="Grupo 1208493" transform="translate(0 -4397.209)">
              <g id="Grupo_1202104" data-name="Grupo 1202104" transform="translate(0 -1149.226)">
                <g id="Grupo_1201923" data-name="Grupo 1201923" transform="translate(-4174.49 4856.378)">
                  <g id="Grupo_1176928" data-name="Grupo 1176928" transform="translate(5295.49 1926.273)">
                    <g id="Grupo_1172322" data-name="Grupo 1172322" transform="translate(0 0)">
                      <g id="Grupo_1164700" data-name="Grupo 1164700">
                        <g id="Grupo_1160931" data-name="Grupo 1160931">
                          <g id="Grupo_1160749" data-name="Grupo 1160749">
                            <g id="Grupo_1158891" data-name="Grupo 1158891">
                              <g id="Grupo_1157406" data-name="Grupo 1157406">
                                <g id="Grupo_1155793" data-name="Grupo 1155793">
                                  <g id="Grupo_1154704" data-name="Grupo 1154704">
                                    <g id="Grupo_1150790" data-name="Grupo 1150790">
                                      <g id="Grupo_1154214" data-name="Grupo 1154214">
                                        <g id="Grupo_1152583" data-name="Grupo 1152583">
                                          <g id="Grupo_1146973" data-name="Grupo 1146973">
                                            <g id="Grupo_1146954" data-name="Grupo 1146954">
                                              <g transform="matrix(1, 0, 0, 1, -9, -6)" filter="url(#Trazado_982547)">
                                                <g id="Trazado_982547-2" data-name="Trazado 982547" transform="translate(9 6)" fill="#fef9e7">
                                                  <path d="M 47.5000114440918 93.49987030029297 C 41.28938293457031 93.49987030029297 35.26534652709961 92.28384399414062 29.5951976776123 89.88558959960938 C 24.11773109436035 87.56881713867188 19.19814491271973 84.25183868408203 14.97310447692871 80.02680206298828 C 10.74805164337158 75.80176544189453 7.43107795715332 70.88218688964844 5.114304542541504 65.40472412109375 C 2.716038227081299 59.73458862304688 1.500011444091797 53.71054840087891 1.500011444091797 47.49993515014648 C 1.500011444091797 41.28932189941406 2.716038227081299 35.26528167724609 5.114304542541504 29.59514808654785 C 7.43107795715332 24.1176815032959 10.74805164337158 19.1981086730957 14.97310447692871 14.97306823730469 C 19.19814491271973 10.74802875518799 24.11773109436035 7.431055068969727 29.5951976776123 5.11428165435791 C 35.26534652709961 2.716028451919556 41.28938293457031 1.500001788139343 47.5000114440918 1.500001788139343 C 53.71063995361328 1.500001788139343 59.73467636108398 2.716028451919556 65.40482330322266 5.11428165435791 C 70.88229370117188 7.431055068969727 75.8018798828125 10.74802875518799 80.02691650390625 14.97306823730469 C 84.25196838378906 19.1981086730957 87.56894683837891 24.1176815032959 89.88571929931641 29.59514808654785 C 92.28398132324219 35.26528167724609 93.50001525878906 41.28932189941406 93.50001525878906 47.49993515014648 C 93.50001525878906 53.71054840087891 92.28398132324219 59.73458862304688 89.88571929931641 65.40472412109375 C 87.56894683837891 70.88218688964844 84.25196838378906 75.80176544189453 80.02691650390625 80.02680206298828 C 75.8018798828125 84.25183868408203 70.88229370117188 87.56881713867188 65.40482330322266 89.88558959960938 C 59.73467636108398 92.28384399414062 53.71063995361328 93.49987030029297 47.5000114440918 93.49987030029297 Z" stroke="none"/>
                                                  <path d="M 47.5000114440918 3 C 41.49122619628906 3 35.66378021240234 4.1761474609375 30.17951965332031 6.495796203613281 C 24.880859375 8.7369384765625 20.12153625488281 11.94596862792969 16.03376770019531 16.03373718261719 C 11.94598388671875 20.12149047851562 8.736968994140625 24.88081359863281 6.495811462402344 30.17947387695312 C 4.176162719726562 35.66371917724609 3.000007629394531 41.49116516113281 3.000007629394531 47.49993515014648 C 3.000007629394531 53.50870513916016 4.176162719726562 59.33615112304688 6.495811462402344 64.82039642333984 C 8.736968994140625 70.11905670166016 11.94598388671875 74.87837982177734 16.03376770019531 78.96613311767578 C 20.12153625488281 83.05390167236328 24.880859375 86.26293182373047 30.17951965332031 88.50407409667969 C 35.66378021240234 90.82372283935547 41.49122619628906 91.99987030029297 47.5000114440918 91.99987030029297 C 53.50879669189453 91.99987030029297 59.33624267578125 90.82372283935547 64.82050323486328 88.50407409667969 C 70.11916351318359 86.26293182373047 74.87848663330078 83.05390167236328 78.96625518798828 78.96613311767578 C 83.05403900146484 74.87837982177734 86.2630615234375 70.11905670166016 88.50421142578125 64.82039642333984 C 90.82386016845703 59.33615112304688 92.00001525878906 53.50870513916016 92.00001525878906 47.49993515014648 C 92.00001525878906 41.49116516113281 90.82386016845703 35.66371917724609 88.50421142578125 30.17947387695312 C 86.2630615234375 24.88081359863281 83.05403900146484 20.12149047851562 78.96625518798828 16.03373718261719 C 74.87848663330078 11.94596862792969 70.11916351318359 8.7369384765625 64.82050323486328 6.495796203613281 C 59.33624267578125 4.1761474609375 53.50879669189453 3 47.5000114440918 3 M 47.5000114440918 0 C 73.73353576660156 0 95.00001525878906 21.26644134521484 95.00001525878906 47.49993515014648 C 95.00001525878906 73.73342895507812 73.73353576660156 94.99987030029297 47.5000114440918 94.99987030029297 C 21.26648712158203 94.99987030029297 7.62939453125e-06 73.73342895507812 7.62939453125e-06 47.49993515014648 C 7.62939453125e-06 21.26644134521484 21.26648712158203 0 47.5000114440918 0 Z" stroke="none" fill="#f8ce24"/>
                                                </g>
                                              </g>
                                            </g>
                                          </g>
                                        </g>
                                      </g>
                                    </g>
                                  </g>
                                </g>
                              </g>
                            </g>
                          </g>
                        </g>
                      </g>
                    </g>
                  </g>
                </g>
              </g>
            </g>
          </g>
        </g>
      </g>
    </g>
    <g id="hazardous_17609056_1_" data-name="hazardous_17609056 (1)" transform="translate(3947.208 1295.415)">
      <g id="Grupo_1210633" data-name="Grupo 1210633" transform="translate(-2.34 2.043)">
        <g id="Grupo_1210630" data-name="Grupo 1210630" transform="translate(0 0)">
          <g id="Grupo_1210629" data-name="Grupo 1210629" transform="translate(1.866)">
            <path id="Trazado_1054284" data-name="Trazado 1054284" d="M210.117,9H222.3a1.808,1.808,0,0,1,1.8,1.8V19.6a.521.521,0,0,1-.52.52H208.834a.521.521,0,0,1-.52-.52V10.8a1.809,1.809,0,0,1,1.8-1.8Z" transform="translate(-182.67 -9)" fill="#465759" fill-rule="evenodd"/>
            <path id="Trazado_1054285" data-name="Trazado 1054285" d="M210.486,9h12.182a1.808,1.808,0,0,1,1.8,1.8V19.6a.521.521,0,0,1-.52.52h-.786V12.109a1.808,1.808,0,0,0-1.8-1.8H209.18a1.789,1.789,0,0,0-.442.055A1.81,1.81,0,0,1,210.486,9Z" transform="translate(-183.038 -9)" fill="#3e4d4f" fill-rule="evenodd"/>
            <path id="Trazado_1054286" data-name="Trazado 1054286" d="M22.594,91.949H32.922l.7-3.073a6.12,6.12,0,0,1,6.024-4.812H53.228a3.264,3.264,0,0,1,3.237,2.727l.663,3.844h1.449a5.794,5.794,0,0,1,5.782,5.782v37.365a5,5,0,0,1-4.994,4.994H16.943a5,5,0,0,1-4.994-4.994V102.594A10.665,10.665,0,0,1,22.593,91.949Z" transform="translate(-11.949 -74.261)" fill="#64b5f6" fill-rule="evenodd"/>
            <path id="Trazado_1054287" data-name="Trazado 1054287" d="M22.594,91.949H32.922l.7-3.073a6.12,6.12,0,0,1,6.024-4.812H53.228a3.264,3.264,0,0,1,3.237,2.727l.046.268a3.292,3.292,0,0,0-1.687-.46H41.238a6.12,6.12,0,0,0-6.024,4.812l-.7,3.073H24.19a10.665,10.665,0,0,0-10.644,10.645v31.188a4.977,4.977,0,0,0,.163,1.264,4.986,4.986,0,0,1-1.759-3.8V102.593A10.665,10.665,0,0,1,22.594,91.949Zm35.694-1.314h.29A5.8,5.8,0,0,1,64.1,94.718a5.76,5.76,0,0,0-3.93-1.548H58.725Z" transform="translate(-11.949 -74.261)" fill="#42a5f5" fill-rule="evenodd"/>
          </g>
          <circle id="Elipse_13456" data-name="Elipse 13456" cx="15.281" cy="15.281" r="15.281" transform="translate(0 41.208) rotate(-45)" fill="#fc685b"/>
          <path id="Trazado_1054288" data-name="Trazado 1054288" d="M78.947,207.542a15.281,15.281,0,0,1,10.8,26.088A15.282,15.282,0,0,0,66.3,214.25a15.265,15.265,0,0,1,12.651-6.707Z" transform="translate(-57.332 -181.613)" fill="#fb4737" fill-rule="evenodd"/>
          <circle id="Elipse_13457" data-name="Elipse 13457" cx="1.571" cy="1.571" r="1.571" transform="translate(19.719 42.393) rotate(-76.7)" fill="#da8c36"/>
          <path id="Trazado_1054289" data-name="Trazado 1054289" d="M100.968,251.067a10.921,10.921,0,0,1-4.568,8.966l-4.172-5.117c.184-.075-.168.1,0,0a4.333,4.333,0,0,0,2.1-4.532l6.639.683ZM84.8,241.353a10.921,10.921,0,0,1,10.062-.131L92.272,247.3c-.152-.129.164.1,0,0a4.333,4.333,0,0,0-4.989.25L84.8,241.353Zm-.63,19.12a10.922,10.922,0,0,1-5.216-8.605l6.547-.851c-.034.2.007-.194,0,0a4.333,4.333,0,0,0,2.746,4.173Z" transform="translate(-68.335 -209.883)" fill="#ffda2d" fill-rule="evenodd"/>
          <path id="Trazado_1054290" data-name="Trazado 1054290" d="M100.967,251.067a10.927,10.927,0,0,1-3.879,8.432,10.927,10.927,0,0,0,2.573-7.125l-5.314-.546a4.3,4.3,0,0,0-.019-1.442Zm-8.682,3.919-.057-.071c.184-.075-.168.1,0,0,.061-.035.12-.071.179-.109q-.058.091-.121.179ZM84.8,241.353a10.921,10.921,0,0,1,10.062-.131L92.271,247.3c-.152-.128.164.1,0,0a4.29,4.29,0,0,0-.612-.323l1.893-4.446a10.923,10.923,0,0,0-8.506-.553l-.25-.622Zm-.63,19.12c-.068-.041-.135-.083-.2-.126l2.972-3.852a4.333,4.333,0,0,1-2.746-4.173c.007-.194-.034.2,0,0l-5.11.664a10.822,10.822,0,0,1-.132-1.119l6.547-.851c-.034.2.007-.194,0,0a4.333,4.333,0,0,0,2.746,4.173l-4.077,5.284Z" transform="translate(-68.334 -209.883)" fill="#ffc700" fill-rule="evenodd"/>
          <circle id="Elipse_13458" data-name="Elipse 13458" cx="1.571" cy="1.571" r="1.571" transform="translate(19.719 42.393) rotate(-76.7)" fill="#ffda2d"/>
          <path id="Trazado_1054291" data-name="Trazado 1054291" d="M157.465,312.525a1.571,1.571,0,0,1,.085,3.139,1.571,1.571,0,0,0-.856-2.888l-.085,0a1.563,1.563,0,0,1,.856-.254Z" transform="translate(-135.851 -272.886)" fill="#ffc700" fill-rule="evenodd"/>
        </g>
        <g id="Grupo_1210632" data-name="Grupo 1210632" transform="translate(38.018 26.42)">
          <path id="Trazado_1054292" data-name="Trazado 1054292" d="M312.61,217.782l.184,13.927-4.686,2.46h-13.22a2.442,2.442,0,0,1,0-4.884h-1.224a2.449,2.449,0,0,1,0-4.9h-1.224a2.449,2.449,0,0,1,0-4.9h-1.224a2.449,2.449,0,0,1,0-4.9l8.718.044c-2.232-.6-5.009-.117-5.147-1.644-.191-2.11,5.256-1.994,7.1-1l10.722,5.789Z" transform="translate(-288.773 -211.302)" fill="#ffd6bd" fill-rule="evenodd"/>
          <path id="Trazado_1054293" data-name="Trazado 1054293" d="M313.9,217.784l.184,13.927-1.314.69-.176-13.311L301.867,213.3a9.343,9.343,0,0,0-5.8-.406c-.016-2.008,5.29-1.881,7.107-.9l10.722,5.789Zm-19.973,13q.042-.1.091-.191h.854A2.42,2.42,0,0,0,293.922,230.785Zm-1.222-4.9c.028-.065.058-.129.091-.191h.852a2.413,2.413,0,0,0-.943.191Zm-1.224-4.9q.042-.1.091-.191h.852a2.412,2.412,0,0,0-.943.191Zm-1.224-4.9a2.413,2.413,0,0,1,.943-.191l8.718.044c-2.067-.559-4.6-.183-5.074-1.338l-2.338-.012a2.451,2.451,0,0,0-2.249,1.5Z" transform="translate(-290.058 -211.304)" fill="#f9c6aa" fill-rule="evenodd"/>
          <path id="Trazado_1054294" data-name="Trazado 1054294" d="M461.682,242.9h3.45a.835.835,0,0,1,.835.835v17.07a.835.835,0,0,1-.835.835h-3.45a.835.835,0,0,1-.835-.835v-17.07a.835.835,0,0,1,.835-.835Z" transform="translate(-438.375 -238.777)" fill="#72d561"/>
          <g id="Grupo_1210631" data-name="Grupo 1210631" transform="translate(22.472 4.127)">
            <path id="Trazado_1054295" data-name="Trazado 1054295" d="M465.132,261.645h-.471v-16.6a.837.837,0,0,0-.835-.835h-2.979v-.471a.837.837,0,0,1,.835-.835h3.451a.837.837,0,0,1,.835.835v17.07a.837.837,0,0,1-.835.835Z" transform="translate(-460.847 -242.905)" fill="#42c345" fill-rule="evenodd"/>
            <path id="Trazado_1054296" data-name="Trazado 1054296" d="M472.449,342.732a1.045,1.045,0,0,1,2.09,0v1.25a1.045,1.045,0,1,1-2.09,0Z" transform="translate(-470.934 -328.786)" fill="#eff4f7" fill-rule="evenodd"/>
          </g>
        </g>
      </g>
      <path id="Trazado_1054297" data-name="Trazado 1054297" d="M24.743,43.779a.526.526,0,1,1,.526-.526A.527.527,0,0,1,24.743,43.779Zm2.616-.526a2.616,2.616,0,1,0-2.616,2.616,2.619,2.619,0,0,0,2.616-2.616Zm-8.627,7.966A9.862,9.862,0,0,1,14.9,44.931l4.446-.579a5.382,5.382,0,0,0,2.123,3.32l-2.737,3.547Zm4.687-4.843a1.045,1.045,0,0,1,.447,1.611l-4.077,5.284a1.047,1.047,0,0,1-1.37.255A11.947,11.947,0,0,1,12.7,44.1a1.044,1.044,0,0,1,.908-1.1l6.217-.809a1.073,1.073,0,0,1,.536-.106,1.047,1.047,0,0,1,.974,1.126s0,.008,0,.013a3.282,3.282,0,0,0,2.082,3.16Zm11.263-2.21a9.862,9.862,0,0,1-3.327,6.57l-2.833-3.475a5.382,5.382,0,0,0,1.7-3.554l4.456.459Zm-6.326-2.33a1.039,1.039,0,0,1,.874-.331l6.639.682a1.046,1.046,0,0,1,.938,1.03A11.947,11.947,0,0,1,31.8,53.043a1.043,1.043,0,0,1-1.416-.191l-3.961-4.858a1.061,1.061,0,0,1-.372-.4,1.045,1.045,0,0,1,.443-1.42l.012-.006A3.283,3.283,0,0,0,28.1,42.733a1.043,1.043,0,0,1,.26-.9Zm-.067-7.918-1.757,4.125a5.383,5.383,0,0,0-3.938.146l-1.669-4.158a9.863,9.863,0,0,1,7.363-.114Zm-7.181,6.177L18.621,33.9a1.045,1.045,0,0,1,.475-1.31,11.946,11.946,0,0,1,11.026-.144,1.045,1.045,0,0,1,.491,1.342l-2.456,5.768a1.051,1.051,0,0,1-1.644.785l-.011-.008a3.281,3.281,0,0,0-3.779.192,1.045,1.045,0,0,1-.646.223,1.064,1.064,0,0,1-.27-.035,1.043,1.043,0,0,1-.7-.62Zm3.636,17.394A14.236,14.236,0,1,0,10.507,43.253,14.252,14.252,0,0,0,24.743,57.489Zm0-30.562A16.326,16.326,0,1,0,41.069,43.253,16.345,16.345,0,0,0,24.743,26.927ZM65.134,47.784v-1.25a1.045,1.045,0,0,1,2.09,0v1.25a1.045,1.045,0,1,1-2.09,0Zm2.56,2.5V33.634H64.664v16.65Zm-7.47,0H47.261a1.4,1.4,0,1,1,0-2.793H51.85a1.045,1.045,0,1,0,0-2.09H46.037a1.4,1.4,0,0,1,0-2.809h4.588a1.045,1.045,0,1,0,0-2.09H44.813a1.4,1.4,0,0,1,0-2.809H49.4a1.045,1.045,0,0,0,0-2.09H43.589a1.4,1.4,0,0,1-.005-2.809l8.718.044a1.045,1.045,0,0,0,.278-2.053,15.273,15.273,0,0,0-2.473-.387,6.4,6.4,0,0,1-1.906-.353c.076-.112.664-.507,2.273-.537a7.762,7.762,0,0,1,3.293.564L56.9,31.766l.009,0,5.662,3.057V49.051l-2.35,1.233Zm-3.864,11.28v-9.19h-9.1a3.485,3.485,0,0,1-2.95-5.343,3.495,3.495,0,0,1-1.223-4.9,3.5,3.5,0,0,1-1.224-4.9,3.495,3.495,0,0,1,1.725-6.529l2.622.013a2.337,2.337,0,0,1-.091-.474A2.153,2.153,0,0,1,47.167,28.2c1.873-1.235,5.933-.865,7.592.031l1.6.865V24.2a4.743,4.743,0,0,0-4.737-4.738H50.174a1.045,1.045,0,0,1-1.029-.867l-.663-3.844a2.208,2.208,0,0,0-2.208-1.86H32.688a5.1,5.1,0,0,0-5,4l-.7,3.073a1.044,1.044,0,0,1-1.019.813H15.639a9.611,9.611,0,0,0-9.6,9.6V61.564a3.954,3.954,0,0,0,3.949,3.949H52.412a3.954,3.954,0,0,0,3.949-3.949ZM31.684,3.846a.759.759,0,0,1,.758-.759h1.1V10.8h-.858a7.382,7.382,0,0,0-1,.069Zm7.894-.759h1.854V10.8H39.578ZM35.635,10.8V3.088h1.853V10.8Zm9.748-6.955V10.8H43.521V3.088h1.1a.759.759,0,0,1,.758.759ZM67.9,31.545H64.453a1.881,1.881,0,0,0-1.67,1.022l-4.333-2.34V24.2a6.835,6.835,0,0,0-6.827-6.827h-.569L50.54,14.4a4.32,4.32,0,0,0-3.068-3.425V3.846A2.851,2.851,0,0,0,44.625,1H32.442a2.851,2.851,0,0,0-2.848,2.848v7.643a7.186,7.186,0,0,0-3.95,4.938l-.512,2.259H15.64A11.7,11.7,0,0,0,3.95,30.376V61.564A6.046,6.046,0,0,0,9.989,67.6H52.412a6.046,6.046,0,0,0,6.039-6.039v-9.19h2.031a1.047,1.047,0,0,0,.485-.119l1.8-.943a1.88,1.88,0,0,0,1.69,1.062H67.9a1.881,1.881,0,0,0,1.879-1.879V33.425a1.881,1.881,0,0,0-1.879-1.88Z" transform="translate(-5.469)" fill-rule="evenodd"/>
    </g>
  </g>
</svg>
