<svg xmlns="http://www.w3.org/2000/svg" xmlns:xlink="http://www.w3.org/1999/xlink" width="103" height="103" viewBox="0 0 103 103">
  <defs>
    <filter id="Trazado_978624" x="0" y="0" width="103" height="103" filterUnits="userSpaceOnUse">
      <feOffset dy="3" input="SourceAlpha"/>
      <feGaussianBlur stdDeviation="3" result="blur"/>
      <feFlood flood-opacity="0.161"/>
      <feComposite operator="in" in2="blur"/>
      <feComposite in="SourceGraphic"/>
    </filter>
  </defs>
  <g id="Grupo_1210493" data-name="Grupo 1210493" transform="translate(-171 -2866)">
    <g id="Grupo_1176881" data-name="Grupo 1176881">
      <g id="Grupo_1175148" data-name="Grupo 1175148" transform="translate(0 1580)">
        <g id="Grupo_1173798" data-name="Grupo 1173798" transform="translate(-3 -3520)">
          <g id="Grupo_1171925" data-name="Grupo 1171925" transform="translate(-22 -2246)">
            <g id="Grupo_1164524" data-name="Grupo 1164524" transform="translate(205 7058)">
              <g id="Grupo_1144123" data-name="Grupo 1144123">
                <g transform="matrix(1, 0, 0, 1, -9, -6)" filter="url(#Trazado_978624)">
                  <g id="Trazado_978624-2" data-name="Trazado 978624" transform="translate(9 6)" fill="#edf3fc">
                    <path d="M 42.5 83.5 C 36.96437835693359 83.5 31.59512901306152 82.41617584228516 26.54141235351562 80.27863311767578 C 21.65934181213379 78.21369171142578 17.27447128295898 75.25723266601562 13.50862312316895 71.49137878417969 C 9.742764472961426 67.72553253173828 6.786305904388428 63.34066009521484 4.721364498138428 58.45858764648438 C 2.583823442459106 53.40486907958984 1.5 48.03562164306641 1.5 42.5 C 1.5 36.96437835693359 2.583823442459106 31.59512901306152 4.721364498138428 26.54141235351562 C 6.786305904388428 21.65934181213379 9.742764472961426 17.27447128295898 13.50862312316895 13.50862312316895 C 17.27447128295898 9.742764472961426 21.65934181213379 6.786305904388428 26.54141235351562 4.721364498138428 C 31.59512901306152 2.583823442459106 36.96437835693359 1.5 42.5 1.5 C 48.03562164306641 1.5 53.40486907958984 2.583823442459106 58.45858764648438 4.721364498138428 C 63.34066009521484 6.786305904388428 67.72553253173828 9.742764472961426 71.49137878417969 13.50862312316895 C 75.25723266601562 17.27447128295898 78.21369171142578 21.65934181213379 80.27863311767578 26.54141235351562 C 82.41617584228516 31.59512901306152 83.5 36.96437835693359 83.5 42.5 C 83.5 48.03562164306641 82.41617584228516 53.40486907958984 80.27863311767578 58.45858764648438 C 78.21369171142578 63.34066009521484 75.25723266601562 67.72553253173828 71.49137878417969 71.49137878417969 C 67.72553253173828 75.25723266601562 63.34066009521484 78.21369171142578 58.45858764648438 80.27863311767578 C 53.40486907958984 82.41617584228516 48.03562164306641 83.5 42.5 83.5 Z" stroke="none"/>
                    <path d="M 42.5 3 C 37.16621398925781 3 31.99356079101562 4.043960571289062 27.125732421875 6.102882385253906 C 22.42246627807617 8.092185974121094 18.19785308837891 10.94070434570312 14.56928253173828 14.56928253173828 C 10.94070434570312 18.19785308837891 8.092185974121094 22.42246627807617 6.102882385253906 27.125732421875 C 4.043960571289062 31.99356079101562 3 37.16621398925781 3 42.5 C 3 47.83378601074219 4.043960571289062 53.00643920898438 6.102882385253906 57.87425231933594 C 8.092185974121094 62.57753372192383 10.94070434570312 66.80213165283203 14.56928253173828 70.43071746826172 C 18.19786834716797 74.05929565429688 22.42246627807617 76.90781402587891 27.125732421875 78.89711761474609 C 31.99356079101562 80.95603942871094 37.16621398925781 82 42.5 82 C 47.83378601074219 82 53.00642395019531 80.95603942871094 57.87425231933594 78.89711761474609 C 62.57753372192383 76.90781402587891 66.80213165283203 74.05929565429688 70.43071746826172 70.43071746826172 C 74.05929565429688 66.80213165283203 76.90781402587891 62.57753372192383 78.89711761474609 57.87425231933594 C 80.95603942871094 53.00642395019531 82 47.83378601074219 82 42.5 C 82 37.16621398925781 80.95603942871094 31.99356079101562 78.89711761474609 27.125732421875 C 76.90781402587891 22.42246627807617 74.05929565429688 18.19786834716797 70.43071746826172 14.56928253173828 C 66.80213165283203 10.94070434570312 62.57753372192383 8.092185974121094 57.87425231933594 6.102882385253906 C 53.00643920898438 4.043960571289062 47.83378601074219 3 42.5 3 M 42.5 0 C 65.97209167480469 0 85 19.02789306640625 85 42.5 C 85 65.97209167480469 65.97209167480469 85 42.5 85 C 19.02789306640625 85 0 65.97209167480469 0 42.5 C 0 19.02789306640625 19.02789306640625 0 42.5 0 Z" stroke="none" fill="#2f5b79"/>
                  </g>
                </g>
              </g>
            </g>
          </g>
        </g>
      </g>
    </g>
    <g id="inspire-idea_14781822_1_" data-name="inspire-idea_14781822 (1)" transform="translate(189.504 2880.729)">
      <g id="Grupo_1173811" data-name="Grupo 1173811" transform="translate(7.75 7.5)">
        <path id="Trazado_1030754" data-name="Trazado 1030754" d="M118.589,345.38v-3.7a2.249,2.249,0,0,0,1.828-2.209v-6.359h11.614v6.359a2.249,2.249,0,0,0,1.828,2.209l.316,3.185Z" transform="translate(-107.317 -300.001)" fill="#ca6e59"/>
        <path id="Trazado_1030755" data-name="Trazado 1030755" d="M60.179,17.509c0,7.317-3.938,16.009-13.962,13.134l-8.364-3.8a3.3,3.3,0,0,1-.218-4.884l.844-.233.584-.581a3.49,3.49,0,0,1,.7-5.987.308.308,0,0,0,.18-.358,3.313,3.313,0,0,1-.093-.78,3.225,3.225,0,0,1,3.189-3.258,3.192,3.192,0,0,1,.62.062,1.514,1.514,0,0,1,.241-.244,1.288,1.288,0,0,0,.535-1.124A3.594,3.594,0,0,1,49.471,9.1a.3.3,0,0,0,.455-.073,3.155,3.155,0,0,1,5.4,0,.3.3,0,0,0,.456.073A3.582,3.582,0,0,1,56.5,8.62C60.179,9.736,60.179,14.869,60.179,17.509Z" transform="translate(-33.72 -7.5)" fill="#73788c"/>
        <path id="Trazado_1030756" data-name="Trazado 1030756" d="M153.016,30.766a3.278,3.278,0,0,1-1.193,2.54l-9.566,5.2h-8.552l-3.065-1.394a15.027,15.027,0,0,0,10.281-22.023,3.56,3.56,0,0,1,1.619-.387,3.609,3.609,0,0,1,2.7,1.219l.168.821.608.547a3.19,3.19,0,0,1,.619-.062,3.225,3.225,0,0,1,3.19,3.258,3.331,3.331,0,0,1-.168,1.042,3.486,3.486,0,0,1,.955,6.082A3.248,3.248,0,0,1,153.016,30.766Z" transform="translate(-118.143 -13.968)" fill="#5e6577"/>
        <path id="Trazado_1030757" data-name="Trazado 1030757" d="M67.919,200.17a5.568,5.568,0,0,0,4.241-5.407h0a2.214,2.214,0,0,0-2.214-2.214H67.919l-22.3,0H43.589a2.214,2.214,0,0,0-2.214,2.214h0a5.568,5.568,0,0,0,4.241,5.407Z" transform="translate(-37.955 -173.73)" fill="#ca6e59"/>
        <path id="Trazado_1030758" data-name="Trazado 1030758" d="M99.84,130.95a2.2,2.2,0,0,1,2.877.948,8.841,8.841,0,0,0,.738,1.121l.481.64c.2.594.657,3.368,1.285,3.368v8.447a7.046,7.046,0,0,1-2.407,5.3l-4.376,3.83a4.7,4.7,0,0,1-3.093,1.161h-2.6a4.7,4.7,0,0,1-3.093-1.161l-4.376-3.83a7.046,7.046,0,0,1-2.407-5.3v-8.447A1.5,1.5,0,0,0,84.265,136l.964-3.76a2.2,2.2,0,0,1,3.034-1.273l.141.067,1.134.434a12.551,12.551,0,0,0,8.982,0l1.134-.434Z" transform="translate(-75.235 -118.206)" fill="#d78878"/>
        <path id="Trazado_1030759" data-name="Trazado 1030759" d="M170.647,300.083c-2.413,0-2.52-2.227-2.48-3.035a.3.3,0,0,1,.3-.288h4.342a.3.3,0,0,1,.3.3C173.14,297.87,172.981,300.083,170.647,300.083Z" transform="translate(-151.849 -267.344)" fill="#eaf6ff"/>
        <path id="Trazado_1030760" data-name="Trazado 1030760" d="M14.438,439.682l-6.383-.015a.3.3,0,0,1-.305-.3v-5.668a.306.306,0,0,1,.164-.272,9.864,9.864,0,0,1,2.659-.915l.735-.147,6.487,2.406Z" transform="translate(-7.75 -389.154)" fill="#9be69d"/>
        <path id="Trazado_1030761" data-name="Trazado 1030761" d="M297.81,435.218l-2.462,4.018-8.5.006-3.075-5.386c.034-.035,6.217-1.976,6.217-1.976l.42.08a9.867,9.867,0,0,1,2.779.978Z" transform="translate(-255.702 -388.722)" fill="#9be69d"/>
        <path id="Trazado_1030762" data-name="Trazado 1030762" d="M122.1,418.39l.929,4.666-3.357,4.064-10.195.012-3.867-4.263,1.442-4.456A10.442,10.442,0,0,0,122.1,418.39Z" transform="translate(-95.655 -376.604)" fill="#eaf6ff"/>
        <path id="Trazado_1030763" data-name="Trazado 1030763" d="M49.151,408.927l-2.777-9.985a1.118,1.118,0,0,0-1.4-.77L38.8,400.054a.484.484,0,0,0-.3.66l1.3,2.949a.305.305,0,0,0,.211.174l3.173.728a.305.305,0,0,1,.182.472L41.643,407.5a.305.305,0,0,0-.037.278l.415,1.146Z" transform="translate(-35.333 -358.399)" fill="#bbf49b"/>
        <path id="Trazado_1030764" data-name="Trazado 1030764" d="M243.879,408.71l2.78-10a1.117,1.117,0,0,1,1.4-.769l6.173,1.88a.485.485,0,0,1,.3.66l-1.3,2.949a.3.3,0,0,1-.211.174l-3.173.728a.305.305,0,0,0-.182.472l1.722,2.468a.3.3,0,0,1,.037.277l-.416,1.16Z" transform="translate(-219.866 -358.194)" fill="#bbf49b"/>
        <g id="Grupo_1173808" data-name="Grupo 1173808" transform="translate(37.646 27.587)">
          <path id="Trazado_1030765" data-name="Trazado 1030765" d="M390.017,387.922v3.911a11.913,11.913,0,0,1-.268,2.371,8.328,8.328,0,0,1-.963,1.733c-.616,1.037-.347,2.105-.342,3.311l-.782.5h-7.707v-1.674a4.206,4.206,0,0,0-1.106-2.842,3.482,3.482,0,0,1-.914-2.349V391.2a2.063,2.063,0,0,1,.881-1.69Z" transform="translate(-377.933 -376.822)" fill="#d78878"/>
          <g id="Grupo_1173807" data-name="Grupo 1173807" transform="translate(9.406 6.566)">
            <path id="Trazado_1030766" data-name="Trazado 1030766" d="M473.1,344.006v3.878a.813.813,0,0,1-.326.728c-.244.244-1.1-.129-1.474-.126l-.663-.709-.214-2.521.7-.543a1.364,1.364,0,0,1,1.328-1.362C472.9,343.516,473.1,343.747,473.1,344.006Z" transform="translate(-470.425 -343.35)" fill="#d78878"/>
            <path id="Trazado_1030767" data-name="Trazado 1030767" d="M481.61,344.7v3.064a1.365,1.365,0,0,1-2.468.8l-.087-.093a1.365,1.365,0,0,0,1.353-1.365V344.05a1.356,1.356,0,0,0-.2-.709h.037A1.364,1.364,0,0,1,481.61,344.7Z" transform="translate(-478.177 -343.34)" fill="#ca6e59"/>
          </g>
          <path id="Trazado_1030768" data-name="Trazado 1030768" d="M476.669,386.87v4.079a6.651,6.651,0,0,1-.936,3.4,6.654,6.654,0,0,0-.935,3.427l0,.719a.305.305,0,0,1-.3.306h-.939l0-1.025a6.665,6.665,0,0,1,.936-3.427,6.65,6.65,0,0,0,.936-3.4v-3.9Z" transform="translate(-463.829 -375.877)" fill="#ca6e59"/>
          <path id="Trazado_1030769" data-name="Trazado 1030769" d="M391.4,281.34v11.016c0,.791-1.295,1.438-2.086,1.438l.672-1.8-.93-.884V281.34a1.44,1.44,0,0,1,.848-1.31A1.33,1.33,0,0,1,391.4,281.34Z" transform="translate(-387.921 -279.902)" fill="#d78878"/>
          <path id="Trazado_1030770" data-name="Trazado 1030770" d="M417.66,332.161v3.614c0,.583-.946,1.087-1.447,1.312a1.441,1.441,0,0,1-.851-1.312l-.351-.078v-3.412l.351-.124a1.441,1.441,0,0,1,.851-1.311C417.42,331,417.66,331.579,417.66,332.161Z" transform="translate(-411.24 -325.554)" fill="#d78878"/>
          <path id="Trazado_1030771" data-name="Trazado 1030771" d="M447.26,332.161v3.833c0,.582-1.052,1.086-1.552,1.311a1.44,1.44,0,0,1-.851-1.311l-.343-.219v-3.459l.343-.155a1.441,1.441,0,0,1,.851-1.311C447.071,331.035,447.26,331.579,447.26,332.161Z" transform="translate(-437.743 -325.554)" fill="#d78878"/>
          <path id="Trazado_1030772" data-name="Trazado 1030772" d="M399.537,280.208v10.429a.65.65,0,0,1-1.3,0V280.208a1.442,1.442,0,0,0-.847-1.31,1.416,1.416,0,0,1,.59-.128h.115A1.442,1.442,0,0,1,399.537,280.208Z" transform="translate(-395.415 -278.77)" fill="#ca6e59"/>
          <path id="Trazado_1030773" data-name="Trazado 1030773" d="M428.975,331.038v3.614a1.443,1.443,0,0,1-1.438,1.439h-.116a1.4,1.4,0,0,1-.587-.127,1.441,1.441,0,0,0,.851-1.312v-3.614a1.441,1.441,0,0,0-.851-1.311,1.405,1.405,0,0,1,.587-.127h.116A1.442,1.442,0,0,1,428.975,331.038Z" transform="translate(-421.861 -324.431)" fill="#ca6e59"/>
          <path id="Trazado_1030774" data-name="Trazado 1030774" d="M458.395,331.038v3.833a1.443,1.443,0,0,1-1.439,1.438h-.115a1.4,1.4,0,0,1-.587-.127,1.44,1.44,0,0,0,.85-1.311v-3.833a1.441,1.441,0,0,0-.85-1.311,1.4,1.4,0,0,1,.587-.127h.115A1.443,1.443,0,0,1,458.395,331.038Z" transform="translate(-448.289 -324.431)" fill="#ca6e59"/>
          <path id="Trazado_1030775" data-name="Trazado 1030775" d="M399.148,367.052a3.1,3.1,0,0,1-.066.633c-.267,1.279-2.17,1.438-3.519,1.578a4.3,4.3,0,0,0-2.549-.347c-.806.249-1.313,1.544-1.324,1.536l-2.64-1.381v-1.3l2.549-1.833a2.855,2.855,0,0,1,1.632-.531l4.232-.04A1.687,1.687,0,0,1,399.148,367.052Z" transform="translate(-387.92 -356.56)" fill="#ca6e59"/>
          <path id="Trazado_1030776" data-name="Trazado 1030776" d="M390.472,380.9l1.2-1.62a.305.305,0,0,1,.208-.121l2.6-.315a2.065,2.065,0,0,0,1.423-1.981.7.7,0,0,0-.7-.68h-3.829a2.584,2.584,0,0,0-1.483.467l-3.3,2.312Z" transform="translate(-385.714 -366.273)" fill="#d78878"/>
        </g>
        <g id="Grupo_1173810" data-name="Grupo 1173810" transform="translate(27.943 1.437)">
          <path id="Trazado_1030777" data-name="Trazado 1030777" d="M302.915,29.783a11.847,11.847,0,0,1-11.763,12.029c-2.146,0-6.857-1.575-7.47-3.285l.116-.468a.3.3,0,0,0-.026-.213A11.1,11.1,0,0,1,300.966,24.4,10.541,10.541,0,0,1,302.915,29.783Z" transform="translate(-282.516 -21.635)" fill="#eaf6ff"/>
          <path id="Trazado_1030778" data-name="Trazado 1030778" d="M305.7,59.546a11.121,11.121,0,0,1-16.668,7.1.3.3,0,0,0-.216-.04l-4.579.873a.306.306,0,0,1-.354-.373l1.018-4.119a11.975,11.975,0,0,0,17.284-14.123A11.077,11.077,0,0,1,305.7,59.546Z" transform="translate(-283.738 -46.096)" fill="#d8ecfe"/>
          <g id="Grupo_1173809" data-name="Grupo 1173809" transform="translate(5.374 2.766)">
            <path id="Trazado_1030779" data-name="Trazado 1030779" d="M345.509,55.23c0,2.975-3.125,5.854-6.162,5.854-.461,0-.959.313-1.763-.875a6.47,6.47,0,0,0-.8-1.4,5.512,5.512,0,0,1,3.111-9.127C344.071,49.682,345.509,52.583,345.509,55.23Z" transform="translate(-335.361 -49.596)" fill="#ffe177"/>
            <path id="Trazado_1030780" data-name="Trazado 1030780" d="M364.536,54.349a5.492,5.492,0,0,1-1.4,3.672,6.655,6.655,0,0,0-1.335,3.968v.345l-5.549.018v-.3a9.315,9.315,0,0,0-.682-3.032,5.581,5.581,0,0,0,1.335.16c3.036,0,5.667-1.977,5.667-4.953a5.419,5.419,0,0,0-4.519-5.3,5.516,5.516,0,0,1,6.485,5.426Z" transform="translate(-353.513 -48.837)" fill="#ffd15b"/>
            <path id="Trazado_1030781" data-name="Trazado 1030781" d="M366.692,179.51l.863,1.685c0,.914-.548,1.685-2.517,1.685h-.432a1.655,1.655,0,0,1-1.655-1.655V179.51h3.741Z" transform="translate(-360.145 -166.221)" fill="#5e6577"/>
            <path id="Trazado_1030782" data-name="Trazado 1030782" d="M386.8,179.511v1.715a1.655,1.655,0,0,1-1.655,1.655h-1.67a1.654,1.654,0,0,0,1.654-1.655v-1.715Z" transform="translate(-378.581 -166.222)" fill="#4d5263"/>
            <path id="Trazado_1030783" data-name="Trazado 1030783" d="M354.015,160.546c0,.366.222.781,0,1.022a6.664,6.664,0,0,1-2.212.525h-4.07a1.28,1.28,0,0,1-1.229-1.326,1.382,1.382,0,0,1,.36-.939,1.184,1.184,0,0,1,.869-.388h4.07C352.482,159.439,354.015,159.813,354.015,160.546Z" transform="translate(-345.371 -148.191)" fill="#73788c"/>
            <path id="Trazado_1030784" data-name="Trazado 1030784" d="M402.069,160.766a1.38,1.38,0,0,1-.359.938,1.185,1.185,0,0,1-.869.388h-2.229a1.183,1.183,0,0,0,.869-.388,1.38,1.38,0,0,0,.359-.938,1.281,1.281,0,0,0-1.229-1.327h2.229A1.281,1.281,0,0,1,402.069,160.766Z" transform="translate(-392.179 -148.191)" fill="#5e6577"/>
          </g>
        </g>
      </g>
      <g id="Grupo_1173820" data-name="Grupo 1173820" transform="translate(7.75 7.5)">
        <g id="Grupo_1173812" data-name="Grupo 1173812" transform="translate(3.42 18.822)">
          <path id="Trazado_1030785" data-name="Trazado 1030785" d="M45.566,200.186a5.568,5.568,0,0,1-4.19-5.394h0a2.214,2.214,0,0,1,2.214-2.214h2.027" transform="translate(-41.376 -192.577)" fill="none" stroke="#000" stroke-linecap="round" stroke-linejoin="round" stroke-miterlimit="10" stroke-width="0.8"/>
          <path id="Trazado_1030786" data-name="Trazado 1030786" d="M306.932,232.041a5.577,5.577,0,0,1-3.875,3.588" transform="translate(-276.445 -228.028)" fill="none" stroke="#000" stroke-linecap="round" stroke-linejoin="round" stroke-miterlimit="10" stroke-width="0.8"/>
        </g>
        <path id="Trazado_1030787" data-name="Trazado 1030787" d="M209.872,132.179a12.549,12.549,0,0,0,2.728-.707l1.134-.434.188-.088a2.2,2.2,0,0,1,3.021,1.279" transform="translate(-189.317 -118.207)" fill="none" stroke="#000" stroke-linecap="round" stroke-linejoin="round" stroke-miterlimit="10" stroke-width="0.8"/>
        <path id="Trazado_1030788" data-name="Trazado 1030788" d="M105.22,141.262v4.343a7.046,7.046,0,0,1-2.407,5.3l-4.376,3.83a4.7,4.7,0,0,1-3.093,1.161h-2.6a4.7,4.7,0,0,1-3.093-1.161l-4.376-3.83a7.046,7.046,0,0,1-2.407-5.3v-8.447a1.5,1.5,0,0,0,1.39-1.022l.964-3.76a2.2,2.2,0,0,1,3.034-1.273l.141.067,1.134.434a12.543,12.543,0,0,0,2.711.7" transform="translate(-75.235 -118.339)" fill="none" stroke="#000" stroke-linecap="round" stroke-linejoin="round" stroke-miterlimit="10" stroke-width="0.8"/>
        <g id="Grupo_1173814" data-name="Grupo 1173814" transform="translate(12.358 17.855)">
          <g id="Grupo_1173813" data-name="Grupo 1173813">
            <path id="Trazado_1030789" data-name="Trazado 1030789" d="M184.227,262.089a2.357,2.357,0,0,1-2.138,0" transform="translate(-176.717 -254.053)" fill="none" stroke="#000" stroke-linecap="round" stroke-linejoin="round" stroke-miterlimit="10" stroke-width="0.8"/>
            <path id="Trazado_1030790" data-name="Trazado 1030790" d="M133.176,183.574a4.067,4.067,0,0,0-3.91,0" transform="translate(-129.266 -183.073)" fill="none" stroke="#000" stroke-linecap="round" stroke-linejoin="round" stroke-miterlimit="10" stroke-width="0.8"/>
            <path id="Trazado_1030791" data-name="Trazado 1030791" d="M221.4,183.574a4.067,4.067,0,0,0-3.91,0" transform="translate(-208.514 -183.073)" fill="none" stroke="#000" stroke-linecap="round" stroke-linejoin="round" stroke-miterlimit="10" stroke-width="0.8"/>
            <line id="Línea_813" data-name="Línea 813" y1="1.732" transform="translate(10.927 2.936)" fill="none" stroke="#000" stroke-linecap="round" stroke-linejoin="round" stroke-miterlimit="10" stroke-width="0.8"/>
            <line id="Línea_814" data-name="Línea 814" y1="1.732" transform="translate(1.955 2.936)" fill="none" stroke="#000" stroke-linecap="round" stroke-linejoin="round" stroke-miterlimit="10" stroke-width="0.8"/>
          </g>
          <path id="Trazado_1030792" data-name="Trazado 1030792" d="M170.648,300.083c-2.947,0-2.454-3.323-2.454-3.323H173.1S173.507,300.083,170.648,300.083Z" transform="translate(-164.207 -285.199)" fill="none" stroke="#000" stroke-linecap="round" stroke-linejoin="round" stroke-miterlimit="10" stroke-width="0.8"/>
        </g>
        <path id="Trazado_1030793" data-name="Trazado 1030793" d="M64.641,11.9A3.144,3.144,0,0,0,61.6,10.82a3.66,3.66,0,0,0-3.476-2.588A3.6,3.6,0,0,0,55.51,9.356a3.162,3.162,0,0,0-5.76,0,3.6,3.6,0,0,0-2.611-1.124,3.66,3.66,0,0,0-3.476,2.588,3.143,3.143,0,0,0-.62-.062,3.224,3.224,0,0,0-3.19,3.258,3.315,3.315,0,0,0,.168,1.042,3.487,3.487,0,0,0-.955,6.083,3.286,3.286,0,0,0-1.21,5.7" transform="translate(-33.724 -7.5)" fill="none" stroke="#000" stroke-linecap="round" stroke-linejoin="round" stroke-miterlimit="10" stroke-width="0.8"/>
        <path id="Trazado_1030794" data-name="Trazado 1030794" d="M61.766,142.224a3.192,3.192,0,0,1-1.439-.583" transform="translate(-54.98 -127.999)" fill="none" stroke="#000" stroke-linecap="round" stroke-linejoin="round" stroke-miterlimit="10" stroke-width="0.8"/>
        <path id="Trazado_1030795" data-name="Trazado 1030795" d="M105.6,40.2a3.027,3.027,0,0,1,1.918,1.274" transform="translate(-95.649 -36.874)" fill="none" stroke="#000" stroke-linecap="round" stroke-linejoin="round" stroke-miterlimit="10" stroke-width="0.8"/>
        <path id="Trazado_1030796" data-name="Trazado 1030796" d="M268.087,40.183a3.031,3.031,0,0,0-1.541,1.174" transform="translate(-240.228 -36.859)" fill="none" stroke="#000" stroke-linecap="round" stroke-linejoin="round" stroke-miterlimit="10" stroke-width="0.8"/>
        <path id="Trazado_1030797" data-name="Trazado 1030797" d="M302.028,33.043q-.051.322-.121.645a11.448,11.448,0,0,1-17.262,7.247l-5.315,1.013,1.312-5.312A11.419,11.419,0,0,1,288.812,20" transform="translate(-251.68 -18.731)" fill="none" stroke="#000" stroke-linecap="round" stroke-linejoin="round" stroke-miterlimit="10" stroke-width="0.8"/>
        <path id="Trazado_1030798" data-name="Trazado 1030798" d="M407.545,19.544q.41.059.822.148a11.432,11.432,0,0,1,8.871,9.381" transform="translate(-366.888 -18.319)" fill="none" stroke="#000" stroke-linecap="round" stroke-linejoin="round" stroke-miterlimit="10" stroke-width="0.8"/>
        <g id="Grupo_1173815" data-name="Grupo 1173815" transform="translate(33.316 4.206)">
          <path id="Trazado_1030799" data-name="Trazado 1030799" d="M337.751,59.921a6.5,6.5,0,0,0-.97-1.866,5.506,5.506,0,1,1,8.185-.028,6.79,6.79,0,0,0-.987,1.872" transform="translate(-335.355 -48.863)" fill="none" stroke="#000" stroke-linecap="round" stroke-linejoin="round" stroke-miterlimit="10" stroke-width="0.8"/>
          <line id="Línea_815" data-name="Línea 815" y1="4.048" transform="translate(5.506 6.988)" fill="none" stroke="#000" stroke-linecap="round" stroke-linejoin="round" stroke-miterlimit="10" stroke-width="0.8"/>
          <path id="Trazado_1030800" data-name="Trazado 1030800" d="M368.324,186.134v.627a2.034,2.034,0,0,1-2.034,2.034h-1.338a2.034,2.034,0,0,1-2.034-2.034v-.627" transform="translate(-360.115 -172.174)" fill="none" stroke="#000" stroke-linecap="round" stroke-linejoin="round" stroke-miterlimit="10" stroke-width="0.8"/>
          <path id="Trazado_1030801" data-name="Trazado 1030801" d="M355.738,160.461h-5.479a1.392,1.392,0,0,1-1.392-1.392v-.082a1.392,1.392,0,0,1,1.392-1.392h5.479a1.392,1.392,0,0,1,1.392,1.392v.082A1.392,1.392,0,0,1,355.738,160.461Z" transform="translate(-347.493 -146.537)" fill="none" stroke="#000" stroke-linecap="round" stroke-linejoin="round" stroke-miterlimit="10" stroke-width="0.8"/>
          <line id="Línea_816" data-name="Línea 816" x2="3.525" transform="translate(3.817 6.979)" fill="none" stroke="#000" stroke-linecap="round" stroke-linejoin="round" stroke-miterlimit="10" stroke-width="0.8"/>
        </g>
        <path id="Trazado_1030802" data-name="Trazado 1030802" d="M346.53,432.2l.256.049a9.85,9.85,0,0,1,2.779.978" transform="translate(-312.078 -389.005)" fill="none" stroke="#000" stroke-linecap="round" stroke-linejoin="round" stroke-miterlimit="10" stroke-width="0.8"/>
        <path id="Trazado_1030803" data-name="Trazado 1030803" d="M250.768,358.351v3.792a2.249,2.249,0,0,0,1.828,2.209" transform="translate(-226.054 -322.671)" fill="none" stroke="#000" stroke-linecap="round" stroke-linejoin="round" stroke-miterlimit="10" stroke-width="0.8"/>
        <path id="Trazado_1030804" data-name="Trazado 1030804" d="M118.589,417.362h0a10.444,10.444,0,0,0,15.27,0h0" transform="translate(-107.317 -375.681)" fill="none" stroke="#000" stroke-linecap="round" stroke-linejoin="round" stroke-miterlimit="10" stroke-width="0.8"/>
        <path id="Trazado_1030805" data-name="Trazado 1030805" d="M10.973,365.944l-.4.08a9.849,9.849,0,0,0-2.823,1m13.1-8.676v3.792a2.249,2.249,0,0,1-1.828,2.209l-.117.022" transform="translate(-7.75 -322.671)" fill="none" stroke="#000" stroke-linecap="round" stroke-linejoin="round" stroke-miterlimit="10" stroke-width="0.8"/>
        <g id="Grupo_1173816" data-name="Grupo 1173816" transform="translate(2.843 39.725)">
          <path id="Trazado_1030806" data-name="Trazado 1030806" d="M45.218,404.68l-1.6-5.738a1.118,1.118,0,0,0-1.4-.77l-6.173,1.881a.484.484,0,0,0-.3.66l1.364,3.089,3.763.863L38.8,407.633l.469,1.309" transform="translate(-35.703 -398.124)" fill="none" stroke="#000" stroke-linecap="round" stroke-linejoin="round" stroke-miterlimit="10" stroke-width="0.8"/>
          <line id="Línea_817" data-name="Línea 817" x1="0.232" y1="0.833" transform="translate(10.469 9.985)" fill="none" stroke="#000" stroke-linecap="round" stroke-linejoin="round" stroke-miterlimit="10" stroke-width="0.8"/>
          <path id="Trazado_1030807" data-name="Trazado 1030807" d="M244.868,408.943l2.782-10a1.117,1.117,0,0,1,1.4-.769l6.173,1.88a.485.485,0,0,1,.3.66l-1.364,3.089-3.763.863,2.071,2.968L252,408.943" transform="translate(-223.597 -398.125)" fill="none" stroke="#000" stroke-linecap="round" stroke-linejoin="round" stroke-miterlimit="10" stroke-width="0.8"/>
        </g>
        <g id="Grupo_1173819" data-name="Grupo 1173819" transform="translate(37.653 27.616)">
          <g id="Grupo_1173817" data-name="Grupo 1173817" transform="translate(10.11 6.566)">
            <path id="Trazado_1030808" data-name="Trazado 1030808" d="M480.141,344.989a1.363,1.363,0,0,0-1.363-1.363h0a1.365,1.365,0,0,0-1.365,1.365v3.061a1.365,1.365,0,0,0,1.365,1.365h0a1.365,1.365,0,0,0,1.365-1.365Z" transform="translate(-477.412 -343.626)" fill="none" stroke="#000" stroke-linecap="round" stroke-linejoin="round" stroke-miterlimit="10" stroke-width="0.8"/>
            <path id="Trazado_1030809" data-name="Trazado 1030809" d="M490.831,400.563" transform="translate(-489.466 -394.773)" fill="none" stroke="#000" stroke-linecap="round" stroke-linejoin="round" stroke-miterlimit="10" stroke-width="0.8"/>
          </g>
          <g id="Grupo_1173818" data-name="Grupo 1173818" transform="translate(10.969 11.031)">
            <path id="Trazado_1030810" data-name="Trazado 1030810" d="M487.728,387.53v4.079a6.624,6.624,0,0,1-.935,3.365h0a6.658,6.658,0,0,0-.935,3.427l0,1.025" transform="translate(-485.858 -387.53)" fill="none" stroke="#000" stroke-linecap="round" stroke-linejoin="round" stroke-miterlimit="10" stroke-width="0.8"/>
          </g>
          <path id="Trazado_1030811" data-name="Trazado 1030811" d="M433.859,414.75a5.579,5.579,0,0,1,1.191,5.1l-.042.163" transform="translate(-428.178 -400.951)" fill="none" stroke="#000" stroke-linecap="round" stroke-linejoin="round" stroke-miterlimit="10" stroke-width="0.8"/>
          <path id="Trazado_1030812" data-name="Trazado 1030812" d="M389.115,291.5V280.5a1.442,1.442,0,0,1,1.438-1.438h.115a1.442,1.442,0,0,1,1.438,1.438v8.945" transform="translate(-387.985 -279.057)" fill="none" stroke="#000" stroke-linecap="round" stroke-linejoin="round" stroke-miterlimit="10" stroke-width="0.8"/>
          <path id="Trazado_1030813" data-name="Trazado 1030813" d="M418.532,331.331a1.442,1.442,0,0,1,1.438-1.438h.115a1.442,1.442,0,0,1,1.438,1.438V334.6" transform="translate(-414.41 -324.723)" fill="none" stroke="#000" stroke-linecap="round" stroke-linejoin="round" stroke-miterlimit="10" stroke-width="0.8"/>
          <path id="Trazado_1030814" data-name="Trazado 1030814" d="M447.947,334.57v-3.238a1.442,1.442,0,0,1,1.438-1.438h.115a1.442,1.442,0,0,1,1.438,1.438V332.7" transform="translate(-440.834 -324.723)" fill="none" stroke="#000" stroke-linecap="round" stroke-linejoin="round" stroke-miterlimit="10" stroke-width="0.8"/>
          <path id="Trazado_1030815" data-name="Trazado 1030815" d="M382.757,381.185l1.282-1.725,2.569-.331a2.065,2.065,0,0,0,1.424-1.962.7.7,0,0,0-.7-.7h-3.666a2.584,2.584,0,0,0-1.483.467l-3.3,2.312a2.064,2.064,0,0,0-.881,1.691v1.685a3.477,3.477,0,0,0,.915,2.349,4.207,4.207,0,0,1,1.106,2.843v1.674" transform="translate(-377.999 -366.562)" fill="none" stroke="#000" stroke-linecap="round" stroke-linejoin="round" stroke-miterlimit="10" stroke-width="0.8"/>
        </g>
      </g>
    </g>
  </g>
</svg>
