<svg xmlns="http://www.w3.org/2000/svg" xmlns:xlink="http://www.w3.org/1999/xlink" width="98" height="98" viewBox="0 0 98 98">
  <defs>
    <filter id="Trazado_904820" x="0" y="0" width="98" height="98" filterUnits="userSpaceOnUse">
      <feOffset dy="3" input="SourceAlpha"/>
      <feGaussianBlur stdDeviation="3" result="blur"/>
      <feFlood flood-opacity="0.161"/>
      <feComposite operator="in" in2="blur"/>
      <feComposite in="SourceGraphic"/>
    </filter>
  </defs>
  <g id="Grupo_1210531" data-name="Grupo 1210531" transform="translate(-191 -3217)">
    <g id="Grupo_1210395" data-name="Grupo 1210395" transform="translate(0 -9260.241)">
      <g id="Grupo_1210129" data-name="Grupo 1210129" transform="translate(0 4735.458)">
        <g id="Grupo_1209198" data-name="Grupo 1209198" transform="translate(200 7747.783)">
          <g id="Grupo_1202705" data-name="Grupo 1202705" transform="translate(0 0)">
            <g id="Grupo_1173585" data-name="Grupo 1173585" transform="translate(0 0)">
              <g id="Grupo_1173428" data-name="Grupo 1173428">
                <g id="Grupo_1171958" data-name="Grupo 1171958">
                  <g id="Grupo_1167341" data-name="Grupo 1167341">
                    <g id="Grupo_1166792" data-name="Grupo 1166792">
                      <g transform="matrix(1, 0, 0, 1, -9, -6)" filter="url(#Trazado_904820)">
                        <g id="Trazado_904820-2" data-name="Trazado 904820" transform="translate(9 6)" fill="#fef9e7">
                          <path d="M 39.99999618530273 78.50002288818359 C 34.80187225341797 78.50002288818359 29.76002883911133 77.4822998046875 25.01451873779297 75.47511291503906 C 20.43014144897461 73.53608703613281 16.31264114379883 70.7598876953125 12.77638530731201 67.22362518310547 C 9.240129470825195 63.6873664855957 6.463929653167725 59.56986618041992 4.524896144866943 54.98548889160156 C 2.517718315124512 50.2399787902832 1.499996185302734 45.19814300537109 1.499996185302734 40.0000114440918 C 1.499996185302734 34.8018798828125 2.517718315124512 29.76003456115723 4.524896144866943 25.01453399658203 C 6.463929653167725 20.43015670776367 9.240129470825195 16.31264495849609 12.77638530731201 12.77638912200928 C 16.31264114379883 9.240133285522461 20.43014144897461 6.46393346786499 25.01451873779297 4.524900436401367 C 29.76002883911133 2.517722606658936 34.80186462402344 1.500000357627869 39.99999618530273 1.500000357627869 C 45.19812774658203 1.500000357627869 50.23996353149414 2.517722606658936 54.9854736328125 4.524900436401367 C 59.56985092163086 6.46393346786499 63.68735122680664 9.240133285522461 67.22360992431641 12.77638912200928 C 70.75986480712891 16.31264495849609 73.53606414794922 20.43015670776367 75.47509765625 25.01453399658203 C 77.48227691650391 29.76003456115723 78.5 34.8018798828125 78.5 40.0000114440918 C 78.5 45.19814300537109 77.48227691650391 50.2399787902832 75.47509765625 54.98548889160156 C 73.53606414794922 59.56986618041992 70.75986480712891 63.6873664855957 67.22360992431641 67.22362518310547 C 63.68735122680664 70.7598876953125 59.56985092163086 73.53608703613281 54.9854736328125 75.47511291503906 C 50.23996353149414 77.4822998046875 45.1981201171875 78.50002288818359 39.99999618530273 78.50002288818359 Z" stroke="none"/>
                          <path d="M 39.99999618530273 3 C 35.00370407104492 3 30.15846252441406 3.977851867675781 25.59885025024414 5.906410217285156 C 21.19327545166016 7.769813537597656 17.23603439331055 10.43806457519531 13.83705139160156 13.83705139160156 C 10.43806457519531 17.23603820800781 7.769805908203125 21.19327926635742 5.906410217285156 25.59885025024414 C 3.977851867675781 30.15846633911133 2.999992370605469 35.00371932983398 2.999992370605469 40.0000114440918 C 2.999992370605469 44.99630355834961 3.977851867675781 49.84154510498047 5.906410217285156 54.40115737915039 C 7.769805908203125 58.80674743652344 10.43806457519531 62.76398468017578 13.83705139160156 66.16297149658203 C 17.23603439331055 69.56195831298828 21.19327545166016 72.23020935058594 25.59885025024414 74.09361267089844 C 30.15846252441406 76.02217102050781 35.00370407104492 77.00002288818359 39.99999618530273 77.00002288818359 C 44.99628829956055 77.00002288818359 49.84152984619141 76.02217102050781 54.40114212036133 74.09361267089844 C 58.80671691894531 72.23020935058594 62.76395416259766 69.56195831298828 66.16294097900391 66.16297149658203 C 69.56192779541016 62.76398468017578 72.23017883300781 58.80674743652344 74.09358215332031 54.40115737915039 C 76.02214050292969 49.84154510498047 77 44.99630355834961 77 40.0000114440918 C 77 35.00371932983398 76.02214050292969 30.15846633911133 74.09358215332031 25.59885025024414 C 72.23017883300781 21.19327926635742 69.56192779541016 17.23603820800781 66.16294097900391 13.83705139160156 C 62.76395416259766 10.43806457519531 58.80671691894531 7.769813537597656 54.40114212036133 5.906410217285156 C 49.84152984619141 3.977851867675781 44.99628829956055 3 39.99999618530273 3 M 39.99999618530273 0 C 62.09138488769531 0 80 17.90861129760742 80 40.0000114440918 C 80 62.09140014648438 62.09138488769531 80.00002288818359 39.99999618530273 80.00002288818359 C 17.90861129760742 80.00002288818359 -7.62939453125e-06 62.09140014648438 -7.62939453125e-06 40.0000114440918 C -7.62939453125e-06 17.90861129760742 17.90861129760742 0 39.99999618530273 0 Z" stroke="none" fill="#887013"/>
                        </g>
                      </g>
                    </g>
                  </g>
                </g>
              </g>
            </g>
          </g>
        </g>
      </g>
    </g>
    <g id="incident_17810691" transform="translate(189.267 3214.232)">
      <path id="Trazado_1053924" data-name="Trazado 1053924" d="M51.958,32.5,65.724,55.335a3.215,3.215,0,0,1,0,3.41,3.5,3.5,0,0,1-3.082,1.7H35.111a3.51,3.51,0,0,1-3.084-1.7,3.215,3.215,0,0,1,0-3.41L45.793,32.5a3.643,3.643,0,0,1,6.166,0Z" transform="translate(-7.075 -7.121)" fill="#fb8500" fill-rule="evenodd"/>
      <path id="Trazado_1053925" data-name="Trazado 1053925" d="M76.8,60.82l6.883,11.418,6.884,11.415H63.03l6.883-11.415Z" transform="translate(-34.994 -33.735)" fill="#fc0" fill-rule="evenodd"/>
      <path id="Trazado_1053926" data-name="Trazado 1053926" d="M172.33,127.1a1.365,1.365,0,0,1,2.728,0v5.226a1.365,1.365,0,0,1-2.728,0Zm2.728,10.032a1.365,1.365,0,0,1-2.728,0v-.579a1.365,1.365,0,0,1,2.728,0Z" transform="translate(-131.892 -91.333)" fill="#fff"/>
      <g id="Grupo_1210530" data-name="Grupo 1210530" transform="translate(27.975 36.525)">
        <path id="Trazado_1053927" data-name="Trazado 1053927" d="M200.132,155.118a13.279,13.279,0,1,1,22.344,11.713l5.32,7.449q-1.617,1.152-3.226,2.306l-5.323-7.449a13.28,13.28,0,0,1-19.116-14.019Z" transform="translate(-184.352 -144.019)" fill="#cc4242" fill-rule="evenodd"/>
        <path id="Trazado_1053928" data-name="Trazado 1053928" d="M231.731,183.767a9.69,9.69,0,1,1,7.964,11.152A9.693,9.693,0,0,1,231.731,183.767Z" transform="translate(-212.41 -172.079)" fill="#fff" fill-rule="evenodd"/>
        <path id="Trazado_1053929" data-name="Trazado 1053929" d="M384.153,369.937l3.178-2.271a1.309,1.309,0,0,1,1.769.46l5.417,7.584a1.31,1.31,0,0,1-.138,1.823L391.2,379.8a1.306,1.306,0,0,1-1.769-.46l-5.417-7.584A1.306,1.306,0,0,1,384.153,369.937Z" transform="translate(-347.268 -342.125)" fill="#cc4242" fill-rule="evenodd"/>
        <path id="Trazado_1053930" data-name="Trazado 1053930" d="M251.79,202.25V201.5a.782.782,0,0,1,.778-.782h.109a.77.77,0,0,0,.749-.563,6.363,6.363,0,0,1,.517-1.252.765.765,0,0,0-.132-.926l-.077-.077a.785.785,0,0,1,0-1.1l.531-.531a.785.785,0,0,1,1.1,0l.077.077a.77.77,0,0,0,.929.132,6.029,6.029,0,0,1,1.248-.517.772.772,0,0,0,.563-.749V195.1a.783.783,0,0,1,.782-.782h.749a.782.782,0,0,1,.778.782v.109a.769.769,0,0,0,.566.749,6.093,6.093,0,0,1,1.248.517.771.771,0,0,0,.929-.132l.077-.077a.785.785,0,0,1,1.1,0l.531.531a.785.785,0,0,1,0,1.1l-.077.077a.765.765,0,0,0-.132.926,6.333,6.333,0,0,1,.517,1.252.769.769,0,0,0,.749.563h.109a.782.782,0,0,1,.778.782v.749a.781.781,0,0,1-.778.778h-.109a.768.768,0,0,0-.749.563,6.194,6.194,0,0,1-.517,1.252.771.771,0,0,0,.132.929l.077.077a.785.785,0,0,1,0,1.1l-.531.531a.785.785,0,0,1-1.1,0l-.077-.077a.771.771,0,0,0-.929-.132,6.222,6.222,0,0,1-1.248.517.769.769,0,0,0-.566.749v.109a.781.781,0,0,1-.778.778h-.749a.782.782,0,0,1-.782-.778v-.109a.765.765,0,0,0-.563-.749,6.248,6.248,0,0,1-1.248-.517.77.77,0,0,0-.929.132l-.077.077a.785.785,0,0,1-1.1,0l-.531-.531a.785.785,0,0,1,0-1.1l.077-.077a.771.771,0,0,0,.132-.929,6.17,6.17,0,0,1-.517-1.252.772.772,0,0,0-.749-.563h-.109A.781.781,0,0,1,251.79,202.25Z" transform="translate(-230.311 -188.612)" fill="#9c6" fill-rule="evenodd"/>
        <path id="Trazado_1053931" data-name="Trazado 1053931" d="M291.736,230.87a3.408,3.408,0,1,1-3.406,3.406A3.407,3.407,0,0,1,291.736,230.87Z" transform="translate(-262.705 -221.015)" fill="#fff" fill-rule="evenodd"/>
        <path id="Trazado_1053932" data-name="Trazado 1053932" d="M62.49,324.3h5.9v5.9h-5.9Z" transform="translate(-62.49 -303.844)" fill="#9c6" fill-rule="evenodd"/>
        <path id="Trazado_1053933" data-name="Trazado 1053933" d="M62.49,408.72h5.9v5.9h-5.9Z" transform="translate(-62.49 -378.685)" fill="#9c6" fill-rule="evenodd"/>
      </g>
      <path id="Trazado_1053934" data-name="Trazado 1053934" d="M37.247,72.349a.907.907,0,1,1,0-1.813h9.288a.907.907,0,1,1,0,1.813Zm0-3.333a.908.908,0,0,1,0-1.817h9.263a.908.908,0,0,1,0,1.817Zm0-6.51a.907.907,0,1,1,0-1.813h8.867a.907.907,0,1,1,0,1.813Zm0-3.333a.908.908,0,0,1,0-1.817h6.234a.908.908,0,0,1,0,1.817Zm-9.273,6.478h5.9a.906.906,0,0,1,.907.907v5.9a.906.906,0,0,1-.907.907h-5.9a.906.906,0,0,1-.907-.907v-5.9A.906.906,0,0,1,27.975,65.653Zm4.995,1.814H28.882v4.088h4.088V67.467ZM27.975,56.075h5.9a.906.906,0,0,1,.907.907v5.9a.906.906,0,0,1-.907.907h-5.9a.906.906,0,0,1-.907-.907v-5.9A.906.906,0,0,1,27.975,56.075Zm4.995,1.813H28.882v4.088h4.088V57.888ZM57.006,45.474A4.316,4.316,0,1,1,52.69,49.79,4.318,4.318,0,0,1,57.006,45.474Zm1.769,2.547a2.5,2.5,0,1,0,0,3.535,2.5,2.5,0,0,0,0-3.535ZM48.544,50.163c0-.749-.087-1.36.5-1.943a1.68,1.68,0,0,1,1.21-.5l.231-.64q.131-.318.289-.621l-.009-.009v0a1.682,1.682,0,0,1-.5-1.194h0c0-.826.489-1.194,1.02-1.724a1.691,1.691,0,0,1,2.4.01,6.826,6.826,0,0,1,1.257-.517,1.683,1.683,0,0,1,1.688-1.7v0c.749,0,1.36-.087,1.943.492a1.719,1.719,0,0,1,.5,1.213,6.925,6.925,0,0,1,1.257.517,1.688,1.688,0,0,1,2.4-.01c.531.531,1.026.9,1.026,1.724a1.686,1.686,0,0,1-.5,1.2,7.093,7.093,0,0,1,.517,1.257,1.687,1.687,0,0,1,1.7,1.688c0,.752.09,1.354-.5,1.939l0,0a1.682,1.682,0,0,1-1.213.5,6.826,6.826,0,0,1-.517,1.257,1.691,1.691,0,0,1,.009,2.4c-.531.531-.9,1.022-1.724,1.022a1.686,1.686,0,0,1-1.2-.5,7.19,7.19,0,0,1-1.257.521,1.692,1.692,0,0,1-1.688,1.7c-.752,0-1.354.087-1.939-.5l0,0a1.68,1.68,0,0,1-.5-1.21,7.224,7.224,0,0,1-1.261-.521l-.01.009h0a1.691,1.691,0,0,1-2.39,0c-.531-.531-1.022-.9-1.022-1.721a1.69,1.69,0,0,1,.5-1.206,6.979,6.979,0,0,1-.521-1.257,1.694,1.694,0,0,1-1.705-1.687Zm1.817-.621v.5a1.678,1.678,0,0,1,1.6,1.219,5.418,5.418,0,0,0,.444,1.064,1.685,1.685,0,0,1-.27,1.994l.351.351a1.677,1.677,0,0,1,1.991-.273,5.349,5.349,0,0,0,1.064.444,1.684,1.684,0,0,1,1.222,1.6h.492a1.685,1.685,0,0,1,1.219-1.6,5.389,5.389,0,0,0,1.068-.444,1.681,1.681,0,0,1,1.991.27l.351-.347a1.683,1.683,0,0,1-.27-1.994,5.35,5.35,0,0,0,.444-1.064,1.681,1.681,0,0,1,1.6-1.222v-.492a1.683,1.683,0,0,1-1.6-1.219,4.97,4.97,0,0,0-.193-.544c-.242-.57-.544-.887-.447-1.569a1.7,1.7,0,0,1,.466-.945l-.351-.351a1.679,1.679,0,0,1-1.991.27,5.458,5.458,0,0,0-1.068-.444,1.682,1.682,0,0,1-1.219-1.6h-.5a1.676,1.676,0,0,1-1.219,1.6,5.632,5.632,0,0,0-1.064.444,1.686,1.686,0,0,1-1.995-.27l-.347.351a1.679,1.679,0,0,1,.27,1.991,5.166,5.166,0,0,0-.251.524c-.238.573-.242,1-.8,1.422a1.717,1.717,0,0,1-.994.339ZM65.027,63.109l1.753-1.254-1.412-1.978a.9.9,0,0,1,.1-1.183,12.373,12.373,0,1,0-3,2.146.908.908,0,0,1,1.148.283Zm3.362-2.116A2.347,2.347,0,0,1,70.544,62l5.417,7.588a2.188,2.188,0,0,1-.405,3.12l-3.123,2.232a2.2,2.2,0,0,1-3.03-.672l-5.417-7.584a2.352,2.352,0,0,1-.28-2.316l-1.129-1.579a14.2,14.2,0,0,1-19.2-8.555H28.036a4.313,4.313,0,0,1-3.86-6.487L37.943,24.915a4.543,4.543,0,0,1,7.719,0L52.522,36.3A14.186,14.186,0,0,1,67.276,59.432Zm.174,1.814-3.178,2.27c-.1.07-.065.363.074.559l5.417,7.584c.135.186.4.321.5.244l3.18-2.267c.1-.07.065-.367-.074-.559L69.07,63.054C68.939,62.87,68.681,62.73,68.563,62.807ZM46.405,48.065a10.594,10.594,0,1,1,8.706,12.193A10.593,10.593,0,0,1,46.405,48.065Zm5.342-5.4A8.783,8.783,0,1,0,64,44.7,8.781,8.781,0,0,0,51.747,42.662Zm-8.839,9.759a13.746,13.746,0,0,1-.205-1.6H28.036a.9.9,0,0,1-.752-1.412L41.025,26.62a.908.908,0,0,1,1.56.012l6.732,11.161a14.613,14.613,0,0,1,1.5-.82L44.11,25.851a2.727,2.727,0,0,0-4.612,0L25.73,48.684a2.5,2.5,0,0,0,2.306,3.738Zm-.218-3.41c.026-.408.065-.82.126-1.232A2.272,2.272,0,0,1,39.529,45.8v-.582a2.226,2.226,0,0,1,1.6-2.113,2.222,2.222,0,0,1-1.6-2.11v-5.23a2.282,2.282,0,0,1,3.866-1.576,2.177,2.177,0,0,1,.679,1.576V41a2.225,2.225,0,0,1-1.592,2.11,2.275,2.275,0,0,1,1.338,1.1,14.152,14.152,0,0,1,4.02-5.349L41.8,28.845,29.642,49.012ZM41.465,35.493a.377.377,0,0,0-.119.273V41c0,.524.913.524.913,0v-5.23A.471.471,0,0,0,41.465,35.493Zm.672,10.579a.378.378,0,0,0,.123-.27v-.582c0-.524-.913-.524-.913,0V45.8A.468.468,0,0,0,42.136,46.072Z"/>
    </g>
  </g>
</svg>
